<svg fill="#00DCFF" xmlns="http://www.w3.org/2000/svg" xmlns:xlink="http://www.w3.org/1999/xlink" version="1.1" x="0px" y="0px" viewBox="0 0 100 100" style="enable-background:new 0 0 100 100;" xml:space="preserve"><g><path d="M10.1,46.5c1,1.7,2.1,3.2,3.4,4.6c-0.8,0.9-1.6,1.9-2.4,2.9c-1.3,1.8-2.4,3.8-3.1,6c-0.7,2.2-0.8,4.8,0,7.2   c0.9,2.4,2.7,4.3,4.7,5.6c2,1.3,4.3,2.2,6.5,2.7c4.3,1,8.6,1.3,12.8,1.1c1.4,4,3.3,7.9,5.9,11.5c1.4,1.8,3,3.6,5,5   c2,1.4,4.5,2.3,7,2.2c2.5-0.1,4.9-1.2,6.6-2.7c1.8-1.5,3.2-3.3,4.4-5.1c2.2-3.4,3.6-7.2,4.7-10.9c0.5,0,1,0.1,1.6,0.1   c4.4,0.3,9,0.1,13.5-1c2.2-0.6,4.5-1.4,6.5-2.7c2-1.3,3.8-3.3,4.7-5.6c0.9-2.4,0.7-5,0-7.2c-0.7-2.2-1.8-4.2-3.1-6   c-0.7-1-1.5-2-2.4-2.9c1.2-1.5,2.3-3,3.4-4.6c1.2-2,2.2-4.1,2.7-6.5c0.5-2.3,0.4-5-0.6-7.3c-1.1-2.3-3-4-5-5.1   c-2.1-1.1-4.2-1.7-6.4-2.1c-4.4-0.7-8.7-0.5-13,0c-0.4,0-0.8,0.1-1.2,0.2c-0.1-0.4-0.2-0.8-0.3-1.1c-1.2-4.1-2.6-8.3-5-12   c-1.2-1.9-2.6-3.7-4.4-5.1c-1.8-1.5-4.1-2.6-6.7-2.7c-2.5-0.1-5,0.8-7,2.2c-2,1.4-3.6,3.1-5,5c-2.7,3.7-4.6,7.8-6.1,12.1   c-0.2,0.5-0.3,1-0.5,1.5c-3.9-0.4-7.9-0.5-11.9,0.2c-2.2,0.4-4.4,1-6.4,2.1c-2,1.1-3.9,2.8-5,5.1C7,35,6.9,37.7,7.5,40   C8,42.4,9,44.6,10.1,46.5z M35.3,67.6c1.7,0.9,3.4,1.7,5.2,2.4c-1.5,0.4-3,0.7-4.5,0.9C35.7,69.8,35.5,68.7,35.3,67.6z M59.5,86.5   c-1.2,1.7-2.7,3.2-4.3,4.2c-1.6,1.1-3.5,1.7-5.2,1.6c-1.8-0.1-3.4-0.9-4.9-2.1c-1.4-1.2-2.6-2.8-3.7-4.4c-1.8-2.9-3.1-6.2-4.1-9.6   c4.3-0.6,8.5-1.5,12.7-2.8c4.8,1.5,9.7,2.5,14.8,3C63.4,80.1,61.7,83.5,59.5,86.5z M59.5,70c2.8-1.2,5.5-2.5,8.2-4   c-0.3,1.8-0.8,3.5-1.2,5.3C64.1,71,61.8,70.6,59.5,70z M68.9,42.4c-0.1-1.5-0.2-3-0.4-4.5c3.8,2.2,7.4,4.8,10.6,7.7   c1.1,1,2.3,2.1,3.3,3.2c-1.5,1.4-3.1,2.8-4.7,4c-2.8,2.2-5.8,4.1-8.9,5.9c0-0.4,0.1-0.7,0.1-1.1c1-2.4,1.5-4.9,1.5-7.7   C70.4,47.3,69.8,44.7,68.9,42.4z M68.8,42.1c-1-2.4-2.5-4.6-4.3-6.4c1.3,0.7,2.6,1.4,3.8,2.1C68.5,39.2,68.6,40.6,68.8,42.1z    M68.8,58c0,0.3,0,0.6-0.1,0.8c-0.2,0.1-0.3,0.2-0.5,0.3C68.4,58.7,68.6,58.3,68.8,58z M87.3,55.1c1.1,1.8,1.9,3.7,2.3,5.6   c0.4,1.9,0.3,3.8-0.5,5.4c-0.8,1.6-2.1,2.8-3.8,3.7c-1.7,0.9-3.6,1.4-5.5,1.7c-3.9,0.7-8,0.5-12.1,0c-0.2,0-0.5-0.1-0.7-0.1   c0.4-1.8,0.8-3.7,1-5.6c4.6-2.6,9-5.6,13-9.1c1.6-1.4,3-2.8,4.4-4.4C86.2,53.3,86.8,54.2,87.3,55.1z M67.5,26.3   c4.2-0.2,8.5,0,12.6,1c2,0.5,3.9,1.3,5.6,2.4c1.6,1.1,2.9,2.5,3.5,4.2c0.6,1.7,0.5,3.5-0.1,5.3c-0.6,1.8-1.5,3.5-2.7,5.1   c-0.9,1.3-2,2.5-3.1,3.7c-1.2-1.1-2.4-2-3.6-3c-3.5-2.7-7.3-5.1-11.2-7.3c-0.4-3.8-1.1-7.5-2-11.2C66.8,26.4,67.2,26.3,67.5,26.3z    M68.3,37.5c-1.3-0.7-2.6-1.4-4-2.1c-3.6-3.6-8.6-5.8-14.1-5.8c5.1-1.6,10.3-2.7,15.6-3.2C66.9,30.1,67.7,33.8,68.3,37.5z    M36.9,25.4c1.1-3.9,2.5-7.8,4.6-11.2c1-1.7,2.2-3.2,3.7-4.4c1.4-1.2,3.1-2,4.8-2.1c1.8-0.1,3.6,0.5,5.2,1.6   c1.6,1.1,3.1,2.6,4.3,4.2c2.5,3.3,4.3,7.2,5.7,11.2c0.1,0.3,0.2,0.7,0.3,1c-5.3,0.8-10.5,2.1-15.5,3.8c-4.3-1.5-8.8-2.6-13.3-3.5   C36.7,25.9,36.8,25.7,36.9,25.4z M36.5,26.7c4.5,0.6,9,1.6,13.3,2.9c-5.5,0-10.5,2.3-14.1,5.8c-0.3,0.2-0.6,0.3-1,0.5   C35.2,32.8,35.8,29.7,36.5,26.7z M34.8,36.1c0.3-0.1,0.5-0.3,0.8-0.4c-0.3,0.3-0.6,0.6-0.8,0.9C34.7,36.4,34.7,36.2,34.8,36.1z    M20.2,71.5c-2-0.3-3.9-0.8-5.5-1.7c-1.7-0.9-3-2.1-3.8-3.7c-0.8-1.6-0.9-3.5-0.5-5.4c0.4-1.9,1.2-3.8,2.3-5.6   c0.6-0.9,1.2-1.9,1.9-2.7c1.4,1.6,2.9,3,4.4,4.4c3.1,2.7,6.5,5.2,10,7.3c0.4,2.6,1,5.1,1.6,7.6C27.1,72,23.5,72.1,20.2,71.5z    M28.1,56.9c-2-1.3-4-2.6-5.9-4.1c-1.6-1.3-3.2-2.6-4.7-4c1.1-1.1,2.2-2.2,3.3-3.2c2.4-2.1,4.9-4,7.6-5.7   c-0.4,3.4-0.6,6.8-0.6,10.2C27.9,52.3,28,54.6,28.1,56.9z M10.9,33.9c0.6-1.7,1.8-3.1,3.5-4.2c1.6-1.1,3.6-1.9,5.6-2.4   c3.6-0.9,7.4-1.2,11.2-1c-1.3,4.3-2.2,8.7-2.7,13.1c-2.8,1.7-5.5,3.5-8.1,5.5c-1.2,1-2.4,2-3.6,3c-1.1-1.2-2.2-2.4-3.1-3.7   c-1.2-1.6-2.1-3.3-2.7-5.1C10.4,37.4,10.3,35.5,10.9,33.9z"></path></g></svg>