<svg fill="#00DCFF" xmlns="http://www.w3.org/2000/svg" xmlns:xlink="http://www.w3.org/1999/xlink" version="1.1" x="0px" y="0px" viewBox="0 0 100 100" enable-background="new 0 0 100 100" xml:space="preserve"><g><path fill="none" d="M47.609,48.561c-0.114-0.12-0.23-0.24-0.347-0.362c-0.145-0.15-0.293-0.303-0.442-0.456   c-0.118-0.122-0.24-0.245-0.361-0.368c-0.108-0.11-0.216-0.22-0.327-0.331c-0.149-0.15-0.301-0.301-0.453-0.453   c-0.14-0.139-0.283-0.278-0.425-0.418c-0.103-0.101-0.205-0.201-0.309-0.302c-0.158-0.153-0.317-0.305-0.479-0.459   c-0.008-0.008-0.017-0.016-0.025-0.024c-0.148-0.14-0.299-0.28-0.45-0.421c-0.101-0.094-0.201-0.188-0.303-0.281   c-0.152-0.139-0.305-0.279-0.459-0.418c-0.054-0.048-0.108-0.096-0.162-0.145c-0.135-0.12-0.272-0.24-0.409-0.36   c-0.096-0.084-0.192-0.169-0.289-0.253c-0.145-0.126-0.291-0.25-0.439-0.375c-0.082-0.069-0.164-0.138-0.247-0.206   c-0.143-0.12-0.288-0.238-0.434-0.356c-0.089-0.072-0.177-0.145-0.266-0.217c-0.137-0.11-0.276-0.22-0.415-0.33   c-0.103-0.081-0.208-0.162-0.312-0.242c-0.158-0.122-0.318-0.241-0.478-0.361c-0.081-0.061-0.162-0.122-0.244-0.182   c-0.129-0.095-0.258-0.189-0.388-0.283c-0.124-0.089-0.247-0.177-0.372-0.265c-0.174-0.122-0.351-0.241-0.527-0.36   c-0.075-0.051-0.15-0.102-0.225-0.152c-0.118-0.079-0.236-0.157-0.355-0.234c-0.143-0.093-0.286-0.186-0.43-0.276   c-0.194-0.122-0.391-0.238-0.587-0.356c-0.067-0.04-0.134-0.081-0.201-0.12c-0.106-0.063-0.212-0.125-0.319-0.187   c-0.161-0.093-0.321-0.186-0.484-0.276c-0.219-0.121-0.442-0.233-0.664-0.349c-0.056-0.029-0.111-0.058-0.167-0.087   c-0.094-0.048-0.187-0.095-0.281-0.142c-0.178-0.088-0.354-0.178-0.534-0.263c-0.245-0.115-0.495-0.219-0.744-0.327   c-0.047-0.02-0.093-0.041-0.14-0.061c-0.079-0.033-0.157-0.067-0.236-0.1c-0.193-0.08-0.384-0.163-0.579-0.238   c-0.274-0.105-0.553-0.195-0.831-0.29c-0.039-0.013-0.078-0.027-0.117-0.04c-0.061-0.021-0.122-0.041-0.184-0.061   c-0.002-0.001-0.004-0.001-0.006-0.002c-0.205-0.066-0.407-0.139-0.613-0.2c-0.311-0.091-0.628-0.163-0.944-0.24   c-0.032-0.008-0.064-0.016-0.096-0.024c-0.012-0.003-0.023-0.006-0.035-0.008c-0.033-0.008-0.066-0.017-0.1-0.024   c-0.209-0.048-0.415-0.106-0.626-0.148c-0.375-0.075-0.757-0.124-1.138-0.177c-0.024-0.003-0.047-0.008-0.071-0.011   c-0.023-0.003-0.047-0.007-0.07-0.01c-0.191-0.025-0.379-0.063-0.571-0.083c-0.625-0.063-1.256-0.1-1.897-0.1   c-9.79,0-14.25,7.387-14.25,14.25c0,0.422,0.023,0.844,0.061,1.264c0.283,2.875,1.549,5.269,3.703,6.974   C17.002,60.209,20.629,61.25,25,61.25c9.233,0,17.42-6.335,23.042-12.234c-0.052-0.055-0.104-0.11-0.157-0.165   C47.794,48.755,47.701,48.658,47.609,48.561z"></path><path fill="none" d="M75,38.75c-7.48,0-15.413,4.219-23.038,12.23c0.045,0.047,0.089,0.093,0.135,0.141   c0.07,0.073,0.146,0.151,0.219,0.226c0.11,0.114,0.22,0.228,0.335,0.345c0.146,0.149,0.295,0.301,0.447,0.455   c0.04,0.041,0.083,0.083,0.124,0.124c0.154,0.155,0.31,0.311,0.47,0.47c0.156,0.155,0.316,0.312,0.478,0.47   c0.07,0.068,0.144,0.138,0.215,0.207c0.152,0.147,0.304,0.294,0.461,0.443c0.158,0.151,0.32,0.302,0.483,0.454   c0.09,0.084,0.182,0.168,0.274,0.253c0.161,0.149,0.323,0.297,0.488,0.447c0.157,0.142,0.316,0.285,0.477,0.427   c0.108,0.096,0.218,0.191,0.327,0.287c0.173,0.151,0.348,0.303,0.526,0.454c0.152,0.13,0.305,0.259,0.46,0.389   c0.126,0.106,0.255,0.211,0.383,0.316c0.188,0.154,0.377,0.307,0.569,0.46c0.145,0.115,0.29,0.23,0.437,0.345   c0.143,0.111,0.287,0.222,0.432,0.333c0.202,0.154,0.407,0.307,0.614,0.458c0.137,0.101,0.274,0.201,0.413,0.301   c0.159,0.114,0.318,0.228,0.479,0.34c0.219,0.153,0.441,0.303,0.664,0.452c0.125,0.084,0.25,0.167,0.375,0.249   c0.175,0.114,0.349,0.228,0.526,0.34c0.237,0.149,0.477,0.293,0.717,0.438c0.112,0.067,0.224,0.134,0.337,0.2   c0.189,0.11,0.377,0.221,0.567,0.328c0.254,0.142,0.513,0.276,0.77,0.411c0.099,0.052,0.199,0.104,0.298,0.155   c0.201,0.102,0.401,0.207,0.604,0.304c0.276,0.133,0.555,0.254,0.835,0.377c0.082,0.036,0.164,0.073,0.246,0.108   c0.212,0.091,0.423,0.186,0.637,0.271c0.299,0.119,0.602,0.222,0.905,0.328c0.066,0.023,0.131,0.047,0.197,0.069   c0.219,0.075,0.436,0.156,0.656,0.224c0.33,0.102,0.664,0.182,0.997,0.268c0.048,0.012,0.096,0.026,0.145,0.038   c0.217,0.054,0.432,0.117,0.65,0.164c0.386,0.082,0.776,0.137,1.166,0.194c0.025,0.004,0.051,0.009,0.076,0.012   c0.193,0.028,0.385,0.069,0.579,0.09c0.611,0.067,1.226,0.106,1.844,0.106c0.001,0,0.002,0,0.002,0   c4.513,0,8.219-1.444,10.719-4.178C88.029,57.549,89.25,54.065,89.25,50c0-0.476-0.023-0.941-0.061-1.397   C88.611,42.064,83.846,38.75,75,38.75z"></path><path d="M90.683,48.455c-0.001-0.01-0.001-0.021-0.002-0.031c-0.002-0.023-0.002-0.048-0.004-0.072   C89.955,39.969,83.713,34.25,75,34.25c-0.427,0-0.85,0.019-1.272,0.046c-0.179,0.011-0.359,0.022-0.539,0.037   c-11.488,0.838-20.36,9.38-23.748,13.167c-0.123,0.138-0.248,0.275-0.374,0.415c-0.009-0.01-0.019-0.02-0.028-0.029   c-0.085-0.089-0.173-0.181-0.259-0.271c-0.149-0.156-0.297-0.311-0.451-0.471c-0.077-0.08-0.15-0.157-0.228-0.237   c-0.048-0.05-0.097-0.1-0.145-0.15c-0.099-0.102-0.202-0.206-0.303-0.309c-0.156-0.16-0.313-0.319-0.474-0.48   c-0.077-0.078-0.15-0.154-0.228-0.232c-0.047-0.047-0.097-0.095-0.144-0.142c-0.114-0.113-0.229-0.226-0.345-0.34   c-0.154-0.152-0.31-0.303-0.467-0.456c-0.089-0.086-0.174-0.171-0.264-0.258c-0.053-0.051-0.108-0.101-0.162-0.152   c-0.12-0.115-0.242-0.229-0.365-0.344c-0.15-0.141-0.3-0.281-0.453-0.422c-0.104-0.096-0.206-0.192-0.311-0.287   c-0.069-0.063-0.14-0.125-0.21-0.188c-0.117-0.106-0.236-0.21-0.355-0.316c-0.143-0.127-0.287-0.253-0.432-0.38   c-0.122-0.106-0.242-0.211-0.365-0.316c-0.086-0.074-0.172-0.146-0.259-0.22c-0.112-0.095-0.226-0.188-0.34-0.282   c-0.137-0.114-0.274-0.226-0.413-0.339c-0.138-0.112-0.277-0.223-0.418-0.334c-0.104-0.083-0.208-0.166-0.313-0.248   c-0.106-0.083-0.213-0.164-0.32-0.246c-0.129-0.099-0.258-0.196-0.388-0.294c-0.157-0.118-0.317-0.233-0.476-0.348   c-0.123-0.089-0.245-0.18-0.369-0.268c-0.043-0.031-0.084-0.063-0.128-0.094c-0.009-0.006-0.018-0.012-0.027-0.018   c-0.047-0.033-0.096-0.063-0.143-0.096c-0.119-0.083-0.239-0.165-0.359-0.247c-0.178-0.121-0.36-0.238-0.54-0.356   c-0.142-0.093-0.282-0.189-0.426-0.28c-0.039-0.025-0.076-0.052-0.114-0.076c-0.051-0.032-0.106-0.061-0.157-0.093   c-0.108-0.067-0.216-0.134-0.325-0.2c-0.201-0.122-0.406-0.236-0.609-0.354c-0.161-0.093-0.32-0.191-0.483-0.282   c-0.081-0.045-0.162-0.088-0.243-0.132c-0.096-0.052-0.193-0.104-0.29-0.156c-0.225-0.119-0.455-0.228-0.683-0.342   c-0.181-0.09-0.357-0.186-0.54-0.273c-0.03-0.014-0.058-0.031-0.088-0.045c-0.04-0.019-0.082-0.033-0.122-0.052   c-0.083-0.038-0.166-0.077-0.25-0.114c-0.252-0.113-0.51-0.213-0.766-0.319c-0.199-0.082-0.393-0.173-0.594-0.251   c-0.024-0.009-0.048-0.021-0.072-0.031c-0.033-0.013-0.068-0.022-0.102-0.034c-0.069-0.026-0.137-0.052-0.206-0.077   c-0.284-0.104-0.576-0.19-0.865-0.284c-0.213-0.069-0.422-0.15-0.637-0.213c-0.019-0.006-0.038-0.013-0.057-0.019   c-0.026-0.008-0.052-0.012-0.078-0.019c-0.053-0.015-0.106-0.031-0.16-0.045c-0.326-0.091-0.66-0.16-0.991-0.236   c-0.22-0.051-0.436-0.116-0.659-0.16c-0.013-0.003-0.026-0.007-0.039-0.009c-0.018-0.004-0.036-0.005-0.054-0.008   c-0.037-0.007-0.073-0.014-0.11-0.021c-0.392-0.074-0.793-0.12-1.192-0.173c-0.204-0.027-0.403-0.07-0.609-0.091   c-0.016-0.002-0.032-0.003-0.048-0.004c-0.019-0.002-0.038-0.004-0.057-0.006C26.313,34.284,25.661,34.25,25,34.25   C14.179,34.25,9.25,42.414,9.25,50c0,0.499,0.024,0.993,0.071,1.481c0.332,3.457,1.813,6.802,4.177,9.355   C16.432,64.005,20.517,65.75,25,65.75c0.667,0,1.328-0.032,1.984-0.091c11.406-0.91,20.204-9.391,23.575-13.159   c0.125-0.141,0.252-0.28,0.378-0.419c0.008,0.009,0.018,0.019,0.027,0.027c0.085,0.089,0.174,0.18,0.262,0.271   c0.039,0.04,0.076,0.079,0.116,0.12c0.02,0.02,0.038,0.039,0.058,0.06c0.006,0.006,0.011,0.012,0.017,0.018   c0.109,0.112,0.223,0.228,0.336,0.343c0.039,0.04,0.076,0.078,0.116,0.118c0.017,0.018,0.034,0.035,0.052,0.053   c0.122,0.124,0.249,0.251,0.375,0.377c0.049,0.049,0.095,0.096,0.145,0.146c0.013,0.013,0.027,0.027,0.04,0.04   c0.009,0.009,0.017,0.018,0.026,0.027c0.115,0.114,0.234,0.231,0.352,0.347c0.044,0.044,0.087,0.086,0.132,0.13   c0.024,0.023,0.047,0.047,0.072,0.07c0.011,0.011,0.022,0.022,0.034,0.033c0.133,0.13,0.27,0.261,0.406,0.392   c0.004,0.003,0.007,0.007,0.011,0.011c0.039,0.037,0.076,0.073,0.115,0.111c0.019,0.018,0.037,0.036,0.056,0.054   c0.01,0.01,0.02,0.019,0.03,0.029c0.095,0.091,0.193,0.183,0.29,0.274c0.057,0.054,0.113,0.107,0.171,0.161   c0.034,0.032,0.067,0.064,0.102,0.096c0.029,0.027,0.059,0.055,0.088,0.082c0.122,0.114,0.247,0.228,0.372,0.343   c0.049,0.045,0.097,0.09,0.147,0.135c0.034,0.031,0.068,0.063,0.102,0.094c0.021,0.02,0.043,0.039,0.065,0.059   c0.07,0.063,0.141,0.126,0.211,0.19c0.052,0.046,0.104,0.093,0.156,0.139c0.006,0.005,0.012,0.01,0.018,0.016   c0.082,0.073,0.162,0.145,0.244,0.218c0.027,0.024,0.054,0.048,0.082,0.072c0.1,0.088,0.202,0.175,0.303,0.263   c0.052,0.045,0.103,0.09,0.156,0.135c0.059,0.051,0.117,0.101,0.176,0.152c0.034,0.029,0.067,0.057,0.101,0.086   c0.038,0.032,0.076,0.065,0.115,0.097c0.027,0.023,0.055,0.046,0.082,0.069c0.051,0.043,0.104,0.087,0.156,0.13   c0.095,0.08,0.189,0.159,0.285,0.239c0.04,0.033,0.08,0.067,0.121,0.1c0.02,0.016,0.039,0.033,0.059,0.049   c0.056,0.046,0.115,0.092,0.172,0.138c0.052,0.042,0.103,0.084,0.155,0.126c0.086,0.069,0.172,0.139,0.258,0.208   c0.036,0.029,0.072,0.058,0.108,0.087c0.012,0.009,0.024,0.019,0.036,0.028c0.017,0.013,0.033,0.027,0.05,0.04   c0.086,0.068,0.174,0.134,0.26,0.201c0.11,0.086,0.219,0.171,0.331,0.257c0.05,0.038,0.099,0.077,0.149,0.115   c0.02,0.015,0.04,0.031,0.06,0.046c0.034,0.026,0.069,0.051,0.103,0.076c0.044,0.034,0.09,0.066,0.135,0.1   c0.004,0.003,0.008,0.006,0.012,0.009c0.097,0.073,0.193,0.146,0.291,0.218c0.031,0.023,0.062,0.045,0.093,0.068   c0.043,0.032,0.086,0.064,0.13,0.095c0.019,0.014,0.038,0.028,0.057,0.042c0.067,0.048,0.135,0.095,0.202,0.143   c0.012,0.008,0.024,0.017,0.036,0.025c0.119,0.085,0.238,0.17,0.359,0.255c0.063,0.044,0.126,0.089,0.19,0.133   c0.018,0.013,0.036,0.026,0.054,0.038c0.01,0.007,0.021,0.014,0.031,0.021c0.016,0.011,0.032,0.021,0.047,0.032   c0.026,0.018,0.053,0.035,0.079,0.053c0.023,0.016,0.046,0.031,0.069,0.046c0.072,0.049,0.142,0.099,0.215,0.148   c0.011,0.008,0.023,0.015,0.034,0.023c0.041,0.027,0.083,0.054,0.123,0.081c0.07,0.046,0.139,0.094,0.209,0.14   c0.017,0.011,0.034,0.023,0.052,0.035c0.027,0.018,0.055,0.035,0.083,0.053c0.044,0.028,0.088,0.056,0.132,0.084   c0.128,0.083,0.256,0.164,0.385,0.246c0.068,0.043,0.134,0.087,0.202,0.129c0.006,0.004,0.012,0.007,0.018,0.011   c0.003,0.002,0.007,0.004,0.01,0.006c0.082,0.051,0.166,0.1,0.249,0.151c0.003,0.002,0.005,0.003,0.007,0.005   c0.042,0.026,0.083,0.052,0.125,0.077c0.089,0.054,0.179,0.105,0.268,0.158c0.084,0.049,0.166,0.1,0.25,0.149   c0.076,0.044,0.154,0.087,0.231,0.131c0.138,0.079,0.277,0.156,0.416,0.233c0.007,0.004,0.015,0.008,0.022,0.013   c0.043,0.024,0.086,0.049,0.129,0.073c0.038,0.021,0.076,0.042,0.115,0.063c0.044,0.024,0.088,0.046,0.131,0.07   c0.037,0.02,0.075,0.039,0.112,0.059c0.134,0.071,0.269,0.14,0.404,0.21c0.095,0.049,0.188,0.099,0.283,0.147   c0.066,0.033,0.133,0.064,0.199,0.096c0.122,0.06,0.245,0.119,0.368,0.177c0.056,0.027,0.112,0.053,0.169,0.08   c0.066,0.031,0.13,0.064,0.196,0.094c0.006,0.003,0.013,0.005,0.019,0.008c0.011,0.005,0.021,0.01,0.032,0.015   c0.014,0.007,0.029,0.012,0.044,0.019c0.033,0.015,0.067,0.029,0.101,0.044c0.153,0.069,0.307,0.134,0.461,0.2   c0.107,0.046,0.212,0.094,0.319,0.138c0.054,0.022,0.109,0.043,0.163,0.065c0.1,0.041,0.201,0.08,0.301,0.12   c0.062,0.024,0.125,0.047,0.187,0.071c0.06,0.023,0.119,0.047,0.178,0.07c0.049,0.018,0.097,0.038,0.146,0.056   c0.009,0.003,0.018,0.007,0.027,0.01c0.038,0.014,0.077,0.026,0.115,0.039c0.163,0.059,0.328,0.113,0.492,0.169   c0.118,0.04,0.235,0.083,0.353,0.121c0.041,0.013,0.083,0.025,0.124,0.037c0.077,0.024,0.154,0.047,0.231,0.071   c0.048,0.015,0.097,0.028,0.145,0.042c0.069,0.021,0.139,0.04,0.208,0.059c0.098,0.028,0.194,0.059,0.292,0.086   c0.006,0.002,0.013,0.004,0.019,0.006c0.028,0.008,0.057,0.013,0.085,0.021c0.175,0.047,0.351,0.087,0.527,0.129   c0.126,0.03,0.252,0.065,0.379,0.093c0.005,0.001,0.01,0.003,0.016,0.004c0.023,0.005,0.046,0.008,0.068,0.013   c0.052,0.011,0.104,0.022,0.156,0.033c0.033,0.007,0.067,0.013,0.1,0.02c0.064,0.013,0.129,0.023,0.193,0.035   c0.035,0.007,0.07,0.013,0.105,0.02c0.127,0.024,0.253,0.052,0.381,0.074c0.004,0.001,0.009,0.002,0.013,0.002   c0.011,0.002,0.023,0.003,0.034,0.005c0.006,0.001,0.012,0.001,0.017,0.002c0.196,0.032,0.394,0.057,0.591,0.083   c0.006,0.001,0.013,0.002,0.019,0.003c0.119,0.016,0.236,0.036,0.355,0.05c0.015,0.002,0.029,0.003,0.044,0.004   c0.026,0.003,0.052,0.006,0.079,0.008c0.017,0.002,0.034,0.003,0.051,0.005c0.043,0.004,0.086,0.006,0.128,0.01   c0.138,0.014,0.276,0.024,0.414,0.034c0.008,0.001,0.016,0.002,0.025,0.002c0.1,0.007,0.199,0.02,0.299,0.026   c0.007,0,0.015,0,0.022,0.001c0.341,0.019,0.682,0.03,1.025,0.03c0.001,0,0.001,0,0.002,0c4.944,0,9.034-1.613,11.826-4.665   C89.394,58.28,90.75,54.447,90.75,50C90.75,49.469,90.727,48.954,90.683,48.455z M25,61.25c-4.371,0-7.998-1.041-10.486-3.012   c-2.154-1.705-3.419-4.098-3.703-6.974c-0.038-0.42-0.061-0.842-0.061-1.264c0-6.863,4.46-14.25,14.25-14.25   c0.64,0,1.272,0.036,1.897,0.1c0.193,0.02,0.38,0.057,0.571,0.083c0.023,0.003,0.047,0.007,0.07,0.01   c0.024,0.003,0.047,0.008,0.071,0.011c0.381,0.053,0.763,0.102,1.138,0.177c0.211,0.042,0.417,0.1,0.626,0.148   c0.033,0.008,0.067,0.016,0.1,0.024c0.012,0.003,0.023,0.006,0.035,0.008c0.032,0.008,0.064,0.016,0.096,0.024   c0.316,0.077,0.633,0.149,0.944,0.24c0.207,0.061,0.409,0.133,0.613,0.2c0.002,0.001,0.004,0.001,0.006,0.002   c0.061,0.02,0.122,0.041,0.184,0.061c0.039,0.013,0.078,0.027,0.117,0.04c0.278,0.095,0.557,0.185,0.831,0.29   c0.195,0.075,0.386,0.158,0.579,0.238c0.079,0.033,0.158,0.066,0.236,0.1c0.047,0.02,0.093,0.041,0.14,0.061   c0.249,0.107,0.499,0.212,0.744,0.327c0.18,0.084,0.356,0.174,0.534,0.263c0.094,0.047,0.188,0.094,0.281,0.142   c0.056,0.029,0.111,0.058,0.167,0.087c0.222,0.115,0.445,0.228,0.664,0.349c0.163,0.09,0.323,0.183,0.484,0.276   c0.107,0.061,0.213,0.124,0.319,0.187c0.067,0.04,0.134,0.08,0.201,0.12c0.196,0.118,0.394,0.234,0.587,0.356   c0.144,0.091,0.287,0.184,0.43,0.276c0.119,0.077,0.237,0.156,0.355,0.234c0.075,0.05,0.15,0.101,0.225,0.152   c0.176,0.12,0.353,0.238,0.527,0.36c0.125,0.088,0.249,0.176,0.372,0.265c0.13,0.094,0.259,0.188,0.388,0.283   c0.082,0.06,0.163,0.121,0.244,0.182c0.16,0.12,0.32,0.239,0.478,0.361c0.104,0.08,0.208,0.161,0.312,0.242   c0.139,0.109,0.277,0.219,0.415,0.33c0.089,0.072,0.178,0.144,0.266,0.217c0.145,0.118,0.291,0.237,0.434,0.356   c0.082,0.069,0.165,0.137,0.247,0.206c0.147,0.125,0.293,0.25,0.439,0.375c0.097,0.084,0.193,0.168,0.289,0.253   c0.137,0.12,0.274,0.24,0.409,0.36c0.054,0.048,0.109,0.096,0.162,0.145c0.154,0.139,0.307,0.278,0.459,0.418   c0.102,0.094,0.203,0.188,0.303,0.281c0.151,0.14,0.302,0.281,0.45,0.421c0.008,0.008,0.017,0.016,0.025,0.024   c0.161,0.153,0.321,0.306,0.479,0.459c0.104,0.101,0.207,0.201,0.309,0.302c0.143,0.14,0.286,0.279,0.425,0.418   c0.153,0.152,0.304,0.303,0.453,0.453c0.11,0.111,0.218,0.221,0.327,0.331c0.121,0.123,0.242,0.246,0.361,0.368   c0.149,0.153,0.297,0.305,0.442,0.456c0.117,0.122,0.232,0.242,0.347,0.362c0.092,0.097,0.185,0.194,0.276,0.289   c0.053,0.056,0.105,0.11,0.157,0.165C42.42,54.915,34.233,61.25,25,61.25z M85.721,60.072c-2.5,2.733-6.206,4.178-10.719,4.178   c0,0-0.001,0-0.002,0c-0.618,0-1.233-0.039-1.844-0.106c-0.194-0.021-0.386-0.063-0.579-0.09c-0.025-0.004-0.051-0.009-0.076-0.012   c-0.39-0.058-0.78-0.112-1.166-0.194c-0.218-0.046-0.433-0.11-0.65-0.164c-0.048-0.012-0.096-0.025-0.145-0.038   c-0.333-0.085-0.667-0.166-0.997-0.268c-0.22-0.068-0.437-0.149-0.656-0.224c-0.066-0.023-0.131-0.046-0.197-0.069   c-0.302-0.107-0.606-0.21-0.905-0.328c-0.214-0.085-0.425-0.18-0.637-0.271c-0.082-0.035-0.164-0.072-0.246-0.108   c-0.279-0.123-0.559-0.244-0.835-0.377c-0.203-0.098-0.403-0.202-0.604-0.304c-0.1-0.051-0.199-0.103-0.298-0.155   c-0.258-0.135-0.516-0.269-0.77-0.411c-0.191-0.107-0.379-0.218-0.567-0.328c-0.113-0.066-0.225-0.133-0.337-0.2   c-0.24-0.144-0.481-0.288-0.717-0.438c-0.177-0.112-0.351-0.226-0.526-0.34c-0.126-0.082-0.251-0.165-0.375-0.249   c-0.223-0.149-0.445-0.299-0.664-0.452c-0.161-0.112-0.32-0.226-0.479-0.34c-0.138-0.1-0.276-0.2-0.413-0.301   c-0.206-0.152-0.411-0.304-0.614-0.458c-0.145-0.11-0.289-0.221-0.432-0.333c-0.147-0.115-0.293-0.229-0.437-0.345   c-0.191-0.153-0.381-0.306-0.569-0.46c-0.128-0.105-0.257-0.211-0.383-0.316c-0.155-0.13-0.308-0.259-0.46-0.389   c-0.177-0.151-0.352-0.303-0.526-0.454c-0.109-0.096-0.22-0.191-0.327-0.287c-0.161-0.143-0.32-0.285-0.477-0.427   c-0.165-0.15-0.328-0.298-0.488-0.447c-0.091-0.084-0.184-0.169-0.274-0.253c-0.163-0.152-0.324-0.304-0.483-0.454   c-0.156-0.149-0.309-0.296-0.461-0.443c-0.071-0.069-0.145-0.139-0.215-0.207c-0.162-0.158-0.322-0.315-0.478-0.47   c-0.16-0.159-0.316-0.315-0.47-0.47c-0.041-0.041-0.083-0.083-0.124-0.124c-0.152-0.154-0.302-0.306-0.447-0.455   c-0.114-0.117-0.225-0.231-0.335-0.345c-0.072-0.075-0.148-0.152-0.219-0.226c-0.046-0.048-0.09-0.094-0.135-0.141   C59.587,42.969,67.52,38.75,75,38.75c8.846,0,13.611,3.314,14.189,9.853c0.039,0.456,0.061,0.92,0.061,1.397   C89.25,54.065,88.029,57.549,85.721,60.072z"></path></g></svg>