<?xml version="1.0" encoding="utf-8"?><!DOCTYPE svg PUBLIC "-//W3C//DTD SVG 1.1//EN" "http://www.w3.org/Graphics/SVG/1.1/DTD/svg11.dtd"><svg fill="#00DCFF" version="1.1" xmlns="http://www.w3.org/2000/svg" xmlns:xlink="http://www.w3.org/1999/xlink" x="0px" y="0px" viewBox="22.896 -3.724 66.073 100" enable-background="new 22.896 -3.724 66.073 100" xml:space="preserve"><g><path d="M42.446,6.931c0.013-0.862-0.093-1.739-0.317-2.632c-0.717-2.826-2.197-4.988-4.433-6.489
		c-2.239-1.494-4.901-1.879-7.453-1.233c-2.034,0.515-3.884,1.852-5.164,3.682c-1.285,1.832-1.688,4.301-1.511,6.587l7.643-1.935
		c0.95-0.24,1.871-0.341,2.479,0.529l1.568,2.021c0.57,0.718,1.288,0.963,2.165,0.742L42.446,6.931z"></path><path d="M32.007,6.614l-5.883,1.49l0.106,0.413c0.475,1.875,1.579,3.325,3.315,4.36c1.737,1.03,3.541,1.312,5.406,0.837
		c2.424-0.611,4.074-2.094,4.95-4.457l-2.198,0.556c-1.605,0.407-2.894,0.006-3.872-1.209l-1.46-1.838
		C32.268,6.629,32.144,6.58,32.007,6.614z"></path><path d="M50.173,60.243l5.632-16.083c0.616-2.598,0.131-5.284-0.344-6.475l-6.795-18.566c-1.339-3.654-5.667-6.379-9.626-4.896
		c-7.97,2.988-3.965,11.964-3.965,11.964l2.039,3.995H26.606c-2.049,0-3.71,1.661-3.71,3.711c0,2.049,1.662,3.711,3.71,3.711h6.124
		V37.59h9.279c1.515,0,2.747-1.231,2.747-2.746v-6.949h1.927v6.949c0,2.578-2.095,4.676-4.674,4.676h-0.128l1.549,3.034
		l-3.092,15.958c-0.126,0.715-0.028,2.631,0.142,3.323l6.043,20.245c0.587,2.103,2.061,3.172,4.41,3.221
		c1.4,0.029,2.581-0.408,3.556-1.304c0.972-0.894,1.47-2.043,1.495-3.438c0.009-0.443-0.077-1.015-0.251-1.708L50.173,60.243z"></path><path d="M65.347,32.865l-7.883-21.567c-0.011-0.031-0.022-0.055-0.033-0.084c-0.002-0.007-0.004-0.015-0.009-0.023
		c-0.157-0.446-0.322-0.741-0.632-1.111c-0.755-0.904-1.762-1.516-3.153-1.454c-2.269,0.102-4.112,1.903-4.112,4.175
		c0,0.139,0.027,0.272,0.041,0.409c0.001,0.003,0.001,0.006,0.001,0.01c0.045,0.453,0.155,0.885,0.336,1.284l7.749,21.196
		c0.428,1.331,1.312,1.749,2.656,1.25l3.795-1.431C65.438,35.092,65.846,34.211,65.347,32.865z"></path><path d="M57.593,70.119l-0.104-0.014c-0.876-0.061-1.529-0.816-1.47-1.677c0.074-0.817,0.759-1.457,1.573-1.457
		c0.534,0.029,0.921,0.223,1.189,0.55c0.28,0.311,0.416,0.728,0.383,1.145C59.093,69.481,58.409,70.119,57.593,70.119L57.593,70.119
		z M57.965,65.414c-0.016,0-0.118,0-0.133-0.015c-0.418-0.03-0.802-0.222-1.071-0.534c-0.266-0.327-0.397-0.727-0.371-1.146
		c0.062-0.815,0.742-1.452,1.561-1.452c0.996,0.074,1.634,0.831,1.571,1.692C59.465,64.775,58.767,65.414,57.965,65.414
		L57.965,65.414z M58.321,60.707c-0.017,0-0.118,0-0.135,0c-0.415-0.027-0.786-0.221-1.069-0.548
		c-0.264-0.312-0.399-0.728-0.371-1.145c0.06-0.817,0.743-1.455,1.56-1.455c0.55,0.045,0.934,0.239,1.203,0.55
		c0.282,0.329,0.401,0.729,0.371,1.146C59.82,60.07,59.138,60.707,58.321,60.707L58.321,60.707z M58.676,56.003h-0.102
		c-0.878-0.074-1.53-0.829-1.47-1.693c0.073-0.814,0.755-1.455,1.57-1.455c0.536,0.045,0.921,0.238,1.188,0.548
		c0.283,0.328,0.416,0.728,0.388,1.145C60.177,55.364,59.491,56.003,58.676,56.003L58.676,56.003z M59.034,51.297
		c-0.018,0-0.106,0-0.121,0c-0.858-0.06-1.513-0.831-1.438-1.694c0.06-0.799,0.742-1.438,1.56-1.438
		c0.531,0.028,0.919,0.221,1.187,0.533c0.284,0.327,0.415,0.728,0.386,1.145C60.548,50.658,59.849,51.297,59.034,51.297
		L59.034,51.297z M59.391,46.605c0,0-0.104-0.014-0.12-0.014c-0.861-0.061-1.499-0.816-1.438-1.676
		c0.059-0.816,0.755-1.456,1.572-1.456c0.979,0.075,1.632,0.833,1.558,1.693C60.904,45.968,60.221,46.605,59.391,46.605
		L59.391,46.605z M59.761,41.899h-0.105c-0.43-0.043-0.816-0.239-1.081-0.549c-0.284-0.327-0.418-0.726-0.388-1.142
		c0.074-0.816,0.759-1.454,1.574-1.454c0.994,0.072,1.634,0.831,1.573,1.692C61.275,41.262,60.578,41.899,59.761,41.899
		L59.761,41.899z"></path><path d="M65.817,86.731c-0.833,0-1.529-0.638-1.575-1.47c-0.027-0.415,0.119-0.831,0.388-1.144c0.281-0.312,0.668-0.504,1.082-0.52
		c0,0,0,0,0.016,0c0.921,0,1.604,0.639,1.651,1.469c0.026,0.416-0.107,0.816-0.388,1.128c-0.282,0.312-0.654,0.506-1.084,0.535
		L65.817,86.731L65.817,86.731z M65.505,82.025c-0.816,0-1.515-0.654-1.56-1.469c-0.028-0.431,0.118-0.832,0.386-1.145
		c0.284-0.312,0.669-0.504,1.084-0.52c0.015,0,0.015,0,0.015,0c0.921,0,1.604,0.638,1.663,1.469
		c0.015,0.419-0.119,0.816-0.401,1.128c-0.265,0.312-0.653,0.506-1.085,0.535C65.607,82.025,65.521,82.025,65.505,82.025
		L65.505,82.025z M65.224,77.319c-0.833,0-1.514-0.653-1.573-1.482c-0.047-0.862,0.608-1.604,1.47-1.665c0.015,0,0.015,0,0.015,0
		c0.922,0,1.604,0.656,1.665,1.471c0.025,0.43-0.121,0.831-0.403,1.144c-0.266,0.312-0.653,0.504-1.068,0.533
		C65.313,77.319,65.224,77.319,65.224,77.319L65.224,77.319z M64.942,72.614c-0.834,0-1.529-0.653-1.576-1.469
		c-0.027-0.433,0.105-0.832,0.386-1.145c0.284-0.312,0.667-0.507,1.085-0.535l0,0c0.936,0,1.618,0.653,1.662,1.47
		c0.061,0.862-0.609,1.618-1.47,1.678L64.942,72.614L64.942,72.614z M64.645,67.909c-0.833,0-1.516-0.654-1.575-1.484
		c-0.027-0.416,0.12-0.816,0.389-1.13c0.279-0.326,0.665-0.504,1.081-0.533c0.922-0.028,1.62,0.653,1.678,1.471
		c0.016,0.415-0.119,0.83-0.399,1.141c-0.284,0.314-0.67,0.506-1.084,0.521L64.645,67.909L64.645,67.909z M64.349,63.187
		c-0.832,0-1.517-0.638-1.574-1.471c-0.017-0.416,0.117-0.817,0.401-1.128c0.267-0.326,0.654-0.505,1.066-0.535
		c0.967-0.014,1.618,0.641,1.678,1.472c0.017,0.415-0.117,0.831-0.399,1.142c-0.267,0.312-0.652,0.504-1.068,0.521
		C64.438,63.187,64.349,63.187,64.349,63.187L64.349,63.187z M64.051,58.481c-0.831,0-1.516-0.64-1.558-1.471
		c-0.032-0.416,0.104-0.816,0.384-1.142c0.281-0.312,0.668-0.506,1.083-0.521l0,0c0.936,0,1.618,0.637,1.665,1.47
		c0.026,0.414-0.106,0.816-0.39,1.128c-0.28,0.326-0.667,0.504-1.081,0.534C64.14,58.481,64.064,58.481,64.051,58.481L64.051,58.481
		z M63.77,53.773c-0.833,0-1.517-0.636-1.575-1.471c-0.06-0.858,0.61-1.616,1.471-1.66c0,0,0,0,0.013,0
		c0.923,0,1.604,0.638,1.649,1.47c0.028,0.417-0.104,0.818-0.385,1.145c-0.282,0.312-0.667,0.49-1.086,0.518L63.77,53.773
		L63.77,53.773z M63.472,49.07c-0.833,0-1.516-0.638-1.574-1.471c-0.043-0.877,0.61-1.619,1.471-1.677c0.016,0,0.016,0,0.016,0
		c0.92,0,1.603,0.653,1.663,1.483c0.044,0.863-0.609,1.604-1.473,1.665C63.56,49.07,63.472,49.07,63.472,49.07L63.472,49.07z"></path><path d="M85.531,75.629c-0.533,0-1.024-0.269-1.321-0.714c-0.239-0.357-0.313-0.771-0.223-1.188c0.087-0.4,0.326-0.757,0.683-0.979
		c0.713-0.46,1.72-0.239,2.184,0.458c0.222,0.357,0.296,0.774,0.207,1.189c-0.073,0.4-0.327,0.757-0.671,0.978
		C86.14,75.552,85.843,75.629,85.531,75.629L85.531,75.629z M82.963,71.679c-0.535,0-1.039-0.269-1.321-0.713
		c-0.476-0.729-0.267-1.706,0.459-2.183c0.714-0.462,1.724-0.238,2.169,0.461c0.237,0.357,0.312,0.772,0.223,1.189
		c-0.092,0.413-0.327,0.756-0.683,0.993C83.557,71.589,83.26,71.679,82.963,71.679L82.963,71.679z M80.394,67.729
		c-0.548,0-1.036-0.267-1.319-0.714c-0.476-0.741-0.269-1.703,0.459-2.18c0.698-0.459,1.707-0.238,2.168,0.459
		c0.476,0.729,0.268,1.707-0.461,2.184C80.988,67.639,80.689,67.729,80.394,67.729L80.394,67.729z M77.812,63.766
		c-0.536,0-1.024-0.268-1.322-0.713c-0.222-0.357-0.297-0.771-0.207-1.174c0.074-0.413,0.326-0.771,0.668-1.009
		c0.71-0.46,1.721-0.239,2.181,0.476c0.226,0.341,0.313,0.771,0.226,1.174c-0.092,0.414-0.328,0.771-0.686,0.994
		C78.421,63.676,78.124,63.766,77.812,63.766L77.812,63.766z M75.244,59.817c-0.534,0-1.022-0.267-1.321-0.714
		c-0.223-0.352-0.312-0.771-0.223-1.186c0.09-0.416,0.324-0.758,0.682-0.996c0.699-0.459,1.723-0.236,2.184,0.461
		c0.223,0.356,0.296,0.772,0.223,1.19c-0.089,0.413-0.342,0.756-0.684,0.993C75.838,59.728,75.54,59.817,75.244,59.817
		L75.244,59.817z M72.676,55.87c-0.534,0-1.039-0.283-1.321-0.729c-0.239-0.342-0.312-0.771-0.223-1.174
		c0.089-0.414,0.327-0.771,0.684-0.994c0.712-0.459,1.722-0.235,2.167,0.462c0.239,0.339,0.313,0.771,0.223,1.172
		c-0.089,0.414-0.328,0.771-0.686,0.995C73.268,55.781,72.972,55.87,72.676,55.87L72.676,55.87z M70.107,51.906
		c-0.535,0-1.041-0.267-1.323-0.713c-0.237-0.356-0.31-0.772-0.22-1.188c0.089-0.414,0.325-0.756,0.683-0.995
		c0.696-0.444,1.707-0.237,2.167,0.477c0.237,0.339,0.31,0.756,0.221,1.172s-0.324,0.772-0.681,0.994
		C70.701,51.816,70.402,51.906,70.107,51.906L70.107,51.906z M67.522,47.956c-0.532,0-1.022-0.267-1.318-0.712
		c-0.226-0.356-0.298-0.772-0.209-1.188c0.075-0.415,0.326-0.757,0.667-0.996c0.715-0.459,1.722-0.235,2.185,0.461
		c0.22,0.357,0.312,0.771,0.22,1.188c-0.087,0.417-0.326,0.756-0.683,0.994C68.133,47.868,67.837,47.956,67.522,47.956
		L67.522,47.956z M64.956,44.007c-0.536,0-1.025-0.28-1.322-0.725c-0.46-0.728-0.268-1.694,0.462-2.167
		c0.711-0.461,1.722-0.237,2.182,0.458c0.223,0.34,0.312,0.772,0.223,1.174c-0.09,0.416-0.341,0.771-0.683,0.995
		C65.55,43.919,65.254,44.007,64.956,44.007L64.956,44.007z"></path><path d="M87.387,65.353c-0.475,0-0.92-0.207-1.216-0.578c-0.27-0.311-0.387-0.728-0.344-1.142c0.045-0.418,0.252-0.802,0.565-1.071
		c0.653-0.52,1.692-0.414,2.211,0.225c0.268,0.326,0.401,0.742,0.358,1.158c-0.046,0.414-0.239,0.801-0.565,1.053
		C88.112,65.238,87.758,65.353,87.387,65.353L87.387,65.353z M84.4,61.703c-0.473,0-0.903-0.208-1.215-0.578
		c-0.549-0.67-0.445-1.664,0.223-2.214c0.653-0.518,1.691-0.415,2.21,0.224c0.553,0.683,0.461,1.664-0.206,2.212
		C85.13,61.585,84.774,61.703,84.4,61.703L84.4,61.703z M81.419,58.051c-0.476,0-0.905-0.207-1.217-0.577
		c-0.552-0.668-0.445-1.664,0.221-2.213c0.655-0.52,1.692-0.415,2.214,0.223c0.267,0.326,0.398,0.743,0.356,1.159
		c-0.045,0.414-0.253,0.799-0.579,1.067C82.132,57.931,81.789,58.051,81.419,58.051L81.419,58.051z M78.436,54.399
		c-0.462,0-0.906-0.207-1.219-0.564c-0.266-0.339-0.385-0.742-0.34-1.172c0.045-0.415,0.252-0.786,0.566-1.056
		c0.653-0.52,1.689-0.415,2.209,0.225c0.551,0.683,0.463,1.663-0.22,2.211C79.148,54.28,78.806,54.399,78.436,54.399L78.436,54.399z
		 M75.451,50.748c-0.475,0-0.92-0.208-1.217-0.579c-0.549-0.669-0.444-1.664,0.22-2.213c0.656-0.518,1.695-0.416,2.215,0.224
		c0.268,0.325,0.384,0.742,0.356,1.158c-0.047,0.414-0.254,0.786-0.58,1.055C76.164,50.628,75.823,50.748,75.451,50.748
		L75.451,50.748z M72.468,47.094c-0.475,0-0.922-0.207-1.216-0.578c-0.271-0.327-0.389-0.729-0.345-1.144
		c0.049-0.415,0.239-0.802,0.566-1.069c0.653-0.519,1.692-0.416,2.213,0.224c0.549,0.683,0.46,1.663-0.223,2.209
		C73.179,46.976,72.837,47.094,72.468,47.094L72.468,47.094z M69.484,43.443c-0.475,0-0.92-0.207-1.217-0.579
		c-0.269-0.327-0.387-0.728-0.342-1.144c0.028-0.415,0.238-0.802,0.565-1.068c0.651-0.521,1.677-0.416,2.212,0.223
		c0.267,0.327,0.385,0.744,0.354,1.157c-0.043,0.416-0.253,0.787-0.579,1.054C70.197,43.324,69.841,43.443,69.484,43.443
		L69.484,43.443z M66.5,39.792c-0.475,0-0.92-0.208-1.218-0.58c-0.549-0.668-0.444-1.663,0.223-2.211
		c0.654-0.535,1.691-0.416,2.212,0.223c0.269,0.326,0.387,0.742,0.357,1.158c-0.047,0.416-0.252,0.787-0.579,1.054
		C67.211,39.674,66.857,39.792,66.5,39.792L66.5,39.792z"></path><path d="M82.34,96.276c-0.668,0-1.262-0.43-1.486-1.055c-0.295-0.815,0.135-1.723,0.954-2.003c0.798-0.297,1.734,0.163,2.002,0.948
		c0.296,0.818-0.134,1.724-0.95,2.008C82.679,96.247,82.501,96.276,82.34,96.276L82.34,96.276z M80.766,91.823
		c-0.668,0-1.262-0.431-1.484-1.056c-0.294-0.816,0.134-1.707,0.95-2.004c0.803-0.281,1.723,0.166,2.005,0.967
		c0.296,0.816-0.134,1.706-0.951,2.005C81.107,91.795,80.944,91.823,80.766,91.823L80.766,91.823z M79.192,87.37
		c-0.668,0-1.262-0.416-1.486-1.039c-0.295-0.818,0.134-1.722,0.95-2.006c0.819-0.294,1.724,0.166,2.006,0.952
		c0.297,0.816-0.132,1.722-0.952,2.003C79.533,87.34,79.373,87.37,79.192,87.37L79.192,87.37z M77.619,82.932
		c-0.668,0-1.262-0.416-1.484-1.056c-0.297-0.816,0.134-1.707,0.95-2.005c0.815-0.28,1.736,0.163,2.003,0.952
		c0.297,0.83-0.133,1.72-0.949,2.017C77.961,82.9,77.782,82.932,77.619,82.932L77.619,82.932z M76.044,78.479
		c-0.667,0-1.26-0.418-1.482-1.04c-0.149-0.402-0.121-0.834,0.059-1.205c0.179-0.384,0.505-0.666,0.89-0.8
		c0.802-0.296,1.723,0.149,2.008,0.95c0.295,0.816-0.136,1.721-0.952,2.005C76.387,78.449,76.207,78.479,76.044,78.479
		L76.044,78.479z M74.474,74.041c-0.67,0-1.264-0.432-1.486-1.057c-0.15-0.401-0.116-0.816,0.06-1.202
		c0.176-0.372,0.505-0.666,0.891-0.803c0.801-0.296,1.734,0.166,2.004,0.966c0.296,0.804-0.134,1.709-0.95,2.004
		C74.812,74.01,74.636,74.041,74.474,74.041L74.474,74.041z M72.898,69.585c-0.668,0-1.262-0.415-1.484-1.039
		c-0.298-0.816,0.134-1.721,0.95-2.018c0.802-0.283,1.739,0.161,2.004,0.966c0.297,0.816-0.133,1.722-0.949,2.002
		C73.255,69.554,73.077,69.585,72.898,69.585L72.898,69.585z M71.325,65.146c-0.67,0-1.262-0.431-1.484-1.053
		c-0.298-0.816,0.131-1.723,0.949-2.005c0.8-0.284,1.722,0.16,2.005,0.949c0.295,0.815-0.136,1.723-0.951,2.02
		C71.682,65.118,71.501,65.146,71.325,65.146L71.325,65.146z M69.752,60.694c-0.668,0-1.262-0.418-1.484-1.057
		c-0.297-0.814,0.132-1.706,0.948-2.003c0.817-0.283,1.724,0.163,2.016,0.964c0.285,0.816-0.144,1.709-0.96,2.006
		C70.107,60.666,69.929,60.694,69.752,60.694L69.752,60.694z M68.177,56.254c-0.669,0-1.262-0.43-1.484-1.054
		c-0.296-0.815,0.133-1.723,0.949-2.004c0.816-0.296,1.739,0.163,2.022,0.951c0.279,0.815-0.152,1.723-0.969,2.017
		C68.534,56.225,68.355,56.254,68.177,56.254L68.177,56.254z"></path></g></svg>