<svg fill="#00DCFF" xmlns="http://www.w3.org/2000/svg" xmlns:xlink="http://www.w3.org/1999/xlink" version="1.1" x="0px" y="0px" viewBox="0 0 64 64" style="enable-background:new 0 0 64 64;" xml:space="preserve"><g><path d="M39,53c3.859,0,7-3.141,7-7c0-1.506-0.497-2.997-1.4-4.199L39,34.333L33.4,41.8C32.497,43.003,32,44.494,32,46   C32,49.859,35.141,53,39,53z M35,43l4-5.333l4,5.334c0.645,0.858,1,1.924,1,2.999c0,2.757-2.243,5-5,5s-5-2.243-5-5   C34,44.925,34.355,43.859,35,43z"></path><path d="M27,13.333L21.4,20.8C20.497,22.003,20,23.494,20,25c0,3.859,3.141,7,7,7s7-3.141,7-7c0-1.506-0.497-2.997-1.4-4.199   L27,13.333z M27,30c-2.757,0-5-2.243-5-5c0-1.075,0.355-2.141,1-3l4-5.333l4,5.334c0.645,0.858,1,1.924,1,2.999   C32,27.757,29.757,30,27,30z"></path><path d="M59,28c-2.206,0-4,1.794-4,4c0,0.455,0.093,0.886,0.233,1.294l-4.24,2.544L40,29.426V16.574l12-7V1h-2v7.426l-11,6.417   L28,8.426V1h-2v7.426l-10.982,6.406l-6.155-3.847C8.944,10.668,9,10.342,9,10c0-2.206-1.794-4-4-4s-4,1.794-4,4s1.794,4,4,4   c1.143,0,2.169-0.488,2.899-1.259L14,16.554v12.872l-11.504,6.71l1.008,1.729L15,31.157l5.5,3.208l5.5,3.208v12.852l-10.069,5.873   C15.2,55.505,14.162,55,13,55c-2.206,0-4,1.794-4,4s1.794,4,4,4s4-1.794,4-4c0-0.324-0.049-0.635-0.122-0.937L27,52.158l11,6.416   V63h2v-4.426l4.845-2.827l6.16-3.593l6.499,3.714l0.992-1.736L52,50.42V37.566l4.338-2.603C57.047,35.601,57.974,36,59,36   c2.206,0,4-1.794,4-4S61.206,28,59,28z M5,12c-1.103,0-2-0.897-2-2s0.897-2,2-2s2,0.897,2,2S6.103,12,5,12z M13,61   c-1.103,0-2-0.897-2-2s0.897-2,2-2s2,0.897,2,2S14.103,61,13,61z M38,29.426l-5.5,3.208L27,35.842l-5.5-3.208L16,29.426V16.574   l11-6.417l11,6.417V29.426z M28,37.574l5.5-3.208l5.5-3.208l11,6.417v12.851l-6.169,3.599L39,56.843l-11-6.417V37.574z M59,34   c-1.103,0-2-0.897-2-2s0.897-2,2-2s2,0.897,2,2S60.103,34,59,34z"></path><rect x="54" y="22" width="2" height="2"></rect><rect x="50" y="22" width="2" height="2"></rect><rect x="46" y="22" width="2" height="2"></rect><rect x="18" y="43" width="2" height="2"></rect><rect x="14" y="43" width="2" height="2"></rect><rect x="10" y="43" width="2" height="2"></rect></g></svg>