<svg fill="#00DCFF" xmlns="http://www.w3.org/2000/svg" xmlns:xlink="http://www.w3.org/1999/xlink" version="1.1" x="0px" y="0px" viewBox="0 0 100 100" style="enable-background:new 0 0 100 100;" xml:space="preserve"><path d="M21.4,55.1c-5.1,6.3-6.8,11.5-4.7,14.8c1.3,2,3.9,3.1,7.6,3.1c2.2,0,4.8-0.4,7.7-1.1c1.9-0.5,3.9-1.1,5.9-1.8  c0.4,1.7,0.8,3.3,1.2,4.8c-0.7,0.5-1.2,1.4-1.2,2.4c0,1.6,1.3,2.9,2.9,2.9c0.1,0,0.2,0,0.3,0c2.3,5.1,5.2,8.1,8.4,8.1  c5,0,9.3-7.3,11.7-18.4c2.2,0.8,4.3,1.5,6.3,2c2.9,0.7,5.5,1.1,7.7,1.1c3.7,0,6.3-1,7.6-3.1c2.8-4.4-1.6-12.6-10.7-21.1  c1-1,2-1.9,2.9-2.9c0.3,0.1,0.7,0.2,1.1,0.2c1.6,0,2.9-1.3,2.9-2.9c0-0.5-0.1-1-0.4-1.4c4.5-5.8,6.2-10.9,4.2-14.1  c-2.7-4.2-11.1-3.9-21.8,0.1c-2.4-10.9-6.6-18-11.6-18c-4.9,0-9.1,7-11.5,17.8c-1.2-0.5-2.4-0.8-3.6-1.2c-0.1-1.5-1.4-2.8-2.9-2.8  c-1.1,0-2,0.6-2.5,1.4c-6.2-1.1-10.5-0.2-12.3,2.6c-2.1,3.2-0.4,8.5,4.7,14.8c1.7,2.1,3.7,4.2,6,6.4C25.1,50.8,23.1,53,21.4,55.1z   M38.2,57.4c1.4,1,2.8,1.9,4.2,2.8c1.8,1.1,3.5,2.2,5.3,3.2c-2.8,1.5-5.6,2.8-8.3,3.8C38.8,64.3,38.4,61,38.2,57.4z M49.5,86.2  c-2.3,0-4.7-2.5-6.7-6.9c0.6-0.5,0.9-1.3,0.9-2.1c0-1.6-1.2-2.8-2.7-2.9c-0.5-1.5-0.9-3.2-1.3-5c3.2-1.3,6.6-2.8,10-4.7  c3.3,1.8,6.5,3.3,9.6,4.5C57.1,79.8,53.2,86.2,49.5,86.2z M59.7,67.1c-2.6-1-5.2-2.3-7.9-3.7c1.8-1,3.5-2,5.3-3.2  c1.3-0.8,2.5-1.7,3.8-2.5C60.6,61.1,60.2,64.2,59.7,67.1z M81.2,68.8c-1.6,2.4-6.4,2.8-13.2,1.1c-2-0.5-4.2-1.2-6.4-2.1  c0.7-3.5,1.1-7.4,1.4-11.6c2.8-2,5.4-4.1,7.7-6.2C79.5,58.2,83.3,65.5,81.2,68.8z M63.1,43.7c2.2,1.7,4.3,3.3,6.1,5  c-1.8,1.6-3.9,3.3-6.1,5c0.1-1.6,0.1-3.1,0.1-4.7C63.2,47.2,63.2,45.4,63.1,43.7z M75.2,26.5c3,0,5,0.7,5.9,2.2  c1.5,2.3,0,6.6-4,11.7c-0.3-0.1-0.7-0.2-1.1-0.2c-1.6,0-2.9,1.3-2.9,2.9c0,0.5,0.2,1,0.4,1.4c-0.9,0.9-1.8,1.9-2.9,2.8  c-2.3-2.1-4.9-4.2-7.7-6.2c-0.3-4.1-0.8-8-1.5-11.5C67,27.5,71.7,26.5,75.2,26.5z M60.9,39.7c-1.2-0.8-2.4-1.7-3.7-2.5  c-1.8-1.1-3.5-2.2-5.3-3.2c2.7-1.4,5.3-2.6,7.8-3.7C60.2,33.2,60.6,36.3,60.9,39.7z M49.5,11.7c3.6,0,7.5,6.3,9.7,16.7  c-3,1.2-6.2,2.7-9.5,4.5c-3.4-1.8-6.7-3.4-9.9-4.6C42.1,17.9,45.9,11.7,49.5,11.7z M39.5,30.2c2.7,1.1,5.4,2.3,8.2,3.8  c-1.7,1-3.5,2-5.3,3.2C41,38.1,39.6,39,38.2,40C38.5,36.5,38.9,33.2,39.5,30.2z M38,42.6c1.8-1.3,3.6-2.5,5.5-3.7  c2.1-1.4,4.2-2.6,6.3-3.7c2.1,1.2,4.2,2.4,6.3,3.7c1.7,1.1,3.4,2.2,5,3.4c0.1,2.2,0.2,4.4,0.2,6.7c0,2.2-0.1,4.2-0.2,6.3  c-1.6,1.1-3.3,2.3-5,3.4c-2.1,1.3-4.2,2.6-6.3,3.7c-2.1-1.2-4.2-2.4-6.3-3.7c-1.9-1.2-3.7-2.5-5.5-3.7c-0.1-1.9-0.1-3.9-0.1-5.9  C37.8,46.7,37.9,44.6,38,42.6z M22.9,41.1c-4.4-5.5-6.1-10-4.6-12.4c0.9-1.4,3-2.2,5.9-2.2c1.3,0,2.7,0.2,4.3,0.4  c0.2,1.4,1.4,2.5,2.9,2.5c1,0,1.8-0.5,2.3-1.2c1.2,0.4,2.5,0.8,3.8,1.3c-0.7,3.7-1.2,7.7-1.5,12c-2.6,1.9-5,3.9-7.2,5.9  C26.6,45.3,24.6,43.1,22.9,41.1z M35.9,53.3c-2-1.5-3.9-3-5.6-4.6c1.7-1.6,3.6-3.1,5.6-4.6c-0.1,1.6-0.1,3.2-0.1,4.8  C35.8,50.4,35.9,51.9,35.9,53.3z M28.8,50.1c2.2,2,4.6,3.9,7.2,5.8c0.3,4.3,0.8,8.4,1.5,12.1c-2.1,0.8-4.1,1.4-6,1.9  c-6.8,1.7-11.6,1.3-13.2-1.1c-1.5-2.4,0.1-7,4.6-12.4C24.6,54.3,26.6,52.2,28.8,50.1z"></path><path d="M49.5,54.5c3.1,0,5.6-2.5,5.6-5.6s-2.5-5.6-5.6-5.6S44,45.9,44,48.9S46.5,54.5,49.5,54.5z M49.5,45.4c2,0,3.6,1.6,3.6,3.6  c0,2-1.6,3.6-3.6,3.6c-2,0-3.6-1.6-3.6-3.6C46,47,47.6,45.4,49.5,45.4z"></path></svg>