<svg fill="#00DCFF" xmlns="http://www.w3.org/2000/svg" xmlns:xlink="http://www.w3.org/1999/xlink" viewBox="0 0 20 24" version="1.1" x="0px" y="0px"><title>6 -Tube- (Outline)</title><desc>Created with Sketch.</desc><g stroke="none" stroke-width="1" fill="none" fill-rule="evenodd"><g fill="#00DCFF"><path d="M5.9996,3 L5.9996,2 L13.9996,2 L13.9996,3 L5.9996,3 Z M14.0006,5 C15.1048847,5 15.9996,4.10528475 15.9996,3.001 L15.9996,1.999 C15.9996,0.89471525 15.1048847,0 14.0006,0 L5.9996,0 C4.89543355,0 3.9996,0.894596212 3.9996,1.999 L3.9996,3.001 C3.9996,4.10540379 4.89543355,5 5.9996,5 L14.0006,5 Z"></path><path d="M14,4 C14,3.44771525 13.5522847,3 13,3 L7,3 C6.44771525,3 6,3.44771525 6,4 L6,5.3174825 C2.40625176,6.86871091 0,10.3758783 0,14.276 C0,19.6535567 4.48375377,24 10,24 C15.5162462,24 20,19.6535567 20,14.276 C20,10.3758783 17.5937482,6.86871091 14,5.3174825 L14,4 Z M8,5 L12,5 L12,6 C12,6.42491593 12.2685282,6.8034317 12.669578,6.94383329 C15.840185,8.05381583 18,11.0008245 18,14.276 C18,18.5348274 14.4253576,22 10,22 C5.57464243,22 2,18.5348274 2,14.276 C2,11.0008245 4.15981497,8.05381583 7.33042204,6.94383329 C7.73147184,6.8034317 8,6.42491593 8,6 L8,5 Z"></path><path d="M13.4943918,12.7821456 C12.7991665,13.4762199 12.5315223,13.4610681 10.7528392,12.5909277 C7.92825823,10.8654042 5.76625786,10.7739044 3.82836205,13.2628555 C3.84483373,13.2414706 3.55390566,13.3684109 3.08903798,13.483268 C2.53092068,13.6211648 1.78530666,13.7418864 0.918775751,13.8383377 C0.387567299,13.8974651 -0.00323749865,14.3638644 0.0315161867,14.8972223 C0.364615159,20.009226 4.72493552,24.0002 10.0004,24.0002 C15.515975,24.0002 20.0004,19.6534396 20.0004,14.2762 C20.0004,13.9176073 19.9749068,13.5544649 19.9261771,13.1512269 C19.8636671,12.633956 19.4144532,12.2513645 18.8938271,12.2719833 C16.5009004,11.2488478 15.1665801,11.2397328 13.4943918,12.7821456 Z M17.9969075,14.077275 C17.9992344,14.1447002 18.0004,14.2108724 18.0004,14.2762 C18.0004,18.5346749 14.4251195,22.0002 10.0004,22.0002 C6.09945702,22.0002 2.83904411,19.2948444 2.14676586,15.6991672 C3.85603622,15.4530907 4.92996827,15.1096125 5.40937505,14.4877535 C6.57437708,12.991493 7.64871809,13.0369611 9.79317802,14.3432311 C12.3244827,15.5862626 13.4418936,15.6534529 14.864186,14.2395823 C15.7937644,13.3870865 16.363362,13.3704775 17.9969075,14.077275 Z"></path></g></g></svg>