<svg fill="#00DCFF" xmlns="http://www.w3.org/2000/svg" xmlns:xlink="http://www.w3.org/1999/xlink" version="1.1" x="0px" y="0px" viewBox="0 0 32 32" enable-background="new 0 0 32 32" xml:space="preserve"><path d="M16,0C7.163,0,0,7.164,0,16s7.163,16,16,16c8.836,0,16-7.164,16-16S24.836,0,16,0z M28.912,15h-4.963  c-0.076-1.629-0.33-3.208-0.756-4.72c1.128-0.572,2.169-1.284,3.124-2.095C27.779,10.111,28.717,12.45,28.912,15z M17,3.132  c1.592,1.745,2.861,3.785,3.725,6.026c-1.176,0.427-2.424,0.7-3.725,0.793V3.132z M20.014,3.682  c1.888,0.615,3.582,1.653,4.979,3.003c-0.753,0.636-1.57,1.193-2.445,1.663C21.896,6.677,21.045,5.113,20.014,3.682z M15,3.131  v6.821c-1.301-0.093-2.55-0.364-3.728-0.791C12.137,6.919,13.406,4.877,15,3.131z M9.452,8.348c-0.875-0.47-1.696-1.023-2.45-1.659  c1.397-1.352,3.094-2.391,4.982-3.007C10.953,5.113,10.101,6.677,9.452,8.348z M15,11.954V15h-4.973  c0.07-1.354,0.287-2.668,0.626-3.934C12.025,11.556,13.482,11.859,15,11.954z M15,17v3.047c-1.518,0.095-2.976,0.397-4.348,0.889  c-0.34-1.266-0.556-2.581-0.626-3.936H15z M15,22.047v6.812c-1.591-1.745-2.863-3.78-3.727-6.021  C12.45,22.412,13.699,22.14,15,22.047z M12.002,28.325c-1.896-0.616-3.598-1.659-5-3.014c0.754-0.636,1.574-1.19,2.449-1.658  C10.104,25.326,10.967,26.89,12.002,28.325z M17,28.857v-6.811c1.301,0.094,2.549,0.367,3.725,0.793  C19.861,25.078,18.59,27.113,17,28.857z M22.549,23.652c0.875,0.469,1.69,1.027,2.443,1.663c-1.4,1.353-3.102,2.394-4.995,3.01  C21.032,26.89,21.895,25.326,22.549,23.652z M17,20.047V17h4.973c-0.07,1.354-0.287,2.672-0.627,3.938  C19.973,20.449,18.518,20.143,17,20.047z M17,15v-3.048c1.518-0.095,2.973-0.401,4.344-0.892c0.34,1.268,0.558,2.584,0.627,3.938  L17,15L17,15z M5.674,8.195c0.955,0.811,2.006,1.509,3.133,2.08C8.381,11.789,8.127,13.369,8.051,15H3.088  C3.283,12.455,4.217,10.119,5.674,8.195z M3.088,17h4.961c0.077,1.631,0.33,3.213,0.756,4.727c-1.125,0.57-2.176,1.27-3.131,2.079  C4.217,21.881,3.283,19.545,3.088,17z M26.317,23.814c-0.955-0.811-1.995-1.521-3.122-2.094c0.426-1.512,0.678-3.092,0.755-4.721  h4.962C28.717,19.549,27.779,21.889,26.317,23.814z"></path></svg>