<svg fill="#D1B794" xmlns="http://www.w3.org/2000/svg" xmlns:xlink="http://www.w3.org/1999/xlink" version="1.1" x="0px" y="0px" viewBox="0 0 100 100" enable-background="new 0 0 100 100" xml:space="preserve"><path d="M81.058,52.443h-4.443V48h4.443V52.443z M77.614,51.443h2.443V49h-2.443V51.443z"></path><path d="M53.662,52.443h-4.444V48h4.444V52.443z M50.218,51.443h2.444V49h-2.444V51.443z"></path><path d="M25.595,52.179h-4.443v-4.443h4.443V52.179z M22.151,51.179h2.443v-2.443h-2.443V51.179z"></path><path d="M95.251,53.014l-2.925-2.925l2.925-2.924l0.707,0.707l-2.218,2.217l2.218,2.218L95.251,53.014z M72.425,43.854l-0.707-0.707  L69.5,45.364l-4.451-4.452l-0.707,0.707l5.158,5.159L72.425,43.854z M38.658,41.619l-0.707-0.707L33.5,45.364l-2.218-2.218  l-0.707,0.707l2.925,2.925L38.658,41.619z M42.904,37.373l-0.707-0.707l-1.828,1.828l0.707,0.707L42.904,37.373z M62.865,38.494  l-1.828-1.828l-0.707,0.707l1.828,1.828L62.865,38.494z M42.904,62.494l-1.828-1.828l-0.707,0.707l1.828,1.828L42.904,62.494z   M62.865,61.373l-0.707-0.707l-1.828,1.828l0.707,0.707L62.865,61.373z M69.5,54.207l2.218,2.218l0.707-0.707L69.5,52.793  l-5.256,5.256l0.707,0.707L69.5,54.207z M38.873,58.166L33.5,52.793l-2.925,2.925l0.707,0.707l2.218-2.218l4.666,4.666  L38.873,58.166z M92.302,55.461l-4.727-4.752L82.313,56h-7.354l-5.652-5.314L63.655,56H61h-3h-0.281l-2,2h6.678L51.44,68.957  L40.483,58h6.678l-2-2h-6.607l-5.652-5.314L27.25,56H19.9l-5.46-5.305l-4.665,4.528l-0.697-0.717l4.644-4.509L8.835,45.25  l0.697-0.717l4.908,4.768L19.9,44h7.35l5.652,5.314L38.554,44h5.95l2-2h-6.02L51.44,31.043L62.397,42h-6.021l2,2H61h2.655  l5.652,5.314L74.959,44h7.354l5.262,5.291l4.483-4.508l0.709,0.705L88.28,50l4.73,4.756L92.302,55.461z M62.634,49.671L57.963,45  H44.917l-4.671,4.671L45.575,55h11.73L62.634,49.671z M47.504,41l3.937-3.937L55.377,41h4.606l-8.543-8.543L42.897,41H47.504z   M51.44,38.478L48.918,41h5.045L51.44,38.478z M45.917,44h11.045l-2-2h-7.045L45.917,44z M32.172,50l-5.318-5h-6.547l-5.149,4.998  L20.307,55h6.547L32.172,50z M44.161,55l-5.329-5.329L43.503,45H38.95l-5.318,5l5.318,5H44.161z M54.719,59l-3.279,3.279L48.161,59  h-5.264l8.543,8.543L59.983,59H54.719z M51.44,60.865L53.305,59h-3.73L51.44,60.865z M56.305,56h-9.73l2,2h5.73L56.305,56z   M68.577,50l-5.318-5H61h-1.623l4.671,4.671L58.719,55H61h2.259L68.577,50z M86.87,50l-4.973-5h-6.542l-5.318,5l5.318,5h6.542  L86.87,50z M9.882,50.089l-2.924-2.924l-0.707,0.707l2.217,2.217l-2.217,2.218l0.707,0.707L9.882,50.089z"></path></svg>