<svg fill="#00DCFF" xmlns="http://www.w3.org/2000/svg" xmlns:xlink="http://www.w3.org/1999/xlink" version="1.1" x="0px" y="0px" viewBox="0 0 100 100" enable-background="new 0 0 100 100" xml:space="preserve"><g><g><g><g><g><path d="M86.392,51c0.357,0.339,0.116-0.115,0.047-0.532L86.392,51z"></path><path d="M86.44,50.468l0.034-0.378C86.42,50.191,86.419,50.325,86.44,50.468z"></path><path d="M86.474,46.935c0.382,0.783,0.003,1.785,0.471,2.27C87.145,48.366,87.016,47.075,86.474,46.935z"></path><polygon points="86.291,48.173 86.53,48.257 86.13,47.579      "></polygon><polygon points="86.102,48.692 86.183,48.585 85.89,47.507      "></polygon><path d="M86.225,44.183l0.188,0.799c-0.2,0.806-0.5-0.428-0.635,0.11c0.154,0.995,0.711,0.243,0.799,1.521       c0.283-0.139-0.311-2.024,0.186-1.898C86.745,43.615,86.48,44.711,86.225,44.183z"></path><path d="M51.613,16.756c-0.038-0.023-0.071-0.033-0.106-0.05C51.548,16.759,51.59,16.797,51.613,16.756z"></path><path d="M39.333,18.74c-0.176,0.013-0.346,0.045-0.509,0.084c0.064,0.028,0.139,0.048,0.231,0.052L39.333,18.74z"></path><path d="M59.607,17.145c0.165,0.097,0.318,0.174,0.46,0.239C59.993,17.296,59.859,17.212,59.607,17.145z"></path><path d="M17.371,68.258c-0.044-0.014-0.094-0.018-0.153,0.001c0,0.006,0.001,0.016,0.001,0.027l0.178,0.075L17.371,68.258z"></path><path d="M27.856,26.235c-0.139,0.134-0.271,0.269-0.374,0.406C27.724,26.432,27.825,26.314,27.856,26.235z"></path><path d="M64.006,18.653c-0.064-0.032-0.119-0.06-0.174-0.087c0.049,0.043,0.117,0.096,0.197,0.149l-0.015-0.057       C64.014,18.657,64.011,18.655,64.006,18.653z"></path><path d="M43.379,18.305c-0.171-0.013-0.319,0.016-0.443,0.045C43.092,18.355,43.234,18.315,43.379,18.305z"></path><path d="M82.33,32.241c-0.084-0.223-0.212-0.375-0.349-0.495C81.998,31.911,82.085,32.079,82.33,32.241z"></path><path d="M79.557,28.21l0.019,0.022C79.604,28.174,79.586,28.169,79.557,28.21z"></path><path d="M77.574,25.791l0.046,0.033C77.626,25.77,77.619,25.75,77.574,25.791z"></path><path d="M81.981,31.746c-0.049-0.441,0.392-0.87-0.437-0.966l-0.02,0.137c-0.043-0.347-0.483-0.616-0.714-0.895       c-0.03,0.065-0.046,0.128-0.054,0.195c0.094,0.156,0.2,0.374,0.357,0.712C81.224,31.378,81.637,31.452,81.981,31.746z"></path><path d="M51.667,16.637C51.704,16.76,52.01,16.714,51.667,16.637L51.667,16.637z"></path><path d="M55.61,16.551c-0.126-0.026-0.251-0.052-0.381-0.079C55.349,16.514,55.467,16.556,55.61,16.551z"></path><path d="M69.255,22.054c-0.017-0.021-0.03-0.038-0.045-0.059C69.154,22.042,69.209,22.062,69.255,22.054z"></path><path d="M54.876,16.412l0.353,0.06C55.124,16.432,55.013,16.397,54.876,16.412z"></path><path d="M65.556,19.54c-0.017-0.015-0.032-0.033-0.048-0.042C65.516,19.512,65.534,19.527,65.556,19.54z"></path><path d="M74.085,81.669c-0.234,0.246-0.496,0.227-0.779,0.374c-0.305,0.773,1.176-0.868,0.588,0.056       c0.251-0.191,0.415-0.386,0.561-0.573l-0.612-0.053C73.448,81.968,74.258,81.334,74.085,81.669z"></path><path d="M18.668,72.11l-0.041-0.138c-0.102,0.183-0.214,0.153,0.025,0.636c0.504,0.199,0.44-0.605,1.163-0.162       c-0.116-0.101-0.238-0.289-0.332-0.48C19.463,72.365,19.057,72.267,18.668,72.11z"></path><path d="M19.483,71.965c-0.001-0.011,0.003-0.018,0.005-0.03c0.012-0.049,0.017-0.098,0.016-0.148       c-0.066-0.09-0.117-0.185-0.136-0.278C19.346,71.624,19.397,71.792,19.483,71.965z"></path><path d="M64.458,87.035c-0.133,0.034-0.253,0.064-0.363,0.092C64.294,87.139,64.395,87.099,64.458,87.035z"></path><path d="M25.121,21.658c0.092-0.138,0.179-0.278,0.245-0.395C25.199,21.443,25.14,21.561,25.121,21.658z"></path><path d="M15.449,65.229c-0.012-0.125-0.037-0.248-0.071-0.379c-0.033-0.072-0.061-0.132-0.1-0.217L15.449,65.229z"></path><path d="M33.805,80.222c-0.426,0.269,0.159,0.093,0.476,0.521l0.519-0.027C34.468,80.468,34.08,80.395,33.805,80.222z"></path><path d="M74.501,81.529c-0.009-0.011-0.017-0.021-0.022-0.036c-0.009,0.011-0.014,0.019-0.025,0.033L74.501,81.529z"></path><path d="M46.335,84.104c0.073,0.034,0.137,0.065,0.206,0.097C46.501,84.167,46.437,84.134,46.335,84.104z"></path><path d="M18.106,69.371c0,0-0.237-0.405-0.475-0.809c-0.198-0.425-0.397-0.851-0.397-0.851l0.136,0.547       C17.663,68.396,17.729,69.285,18.106,69.371z"></path><path d="M28.082,75.813l0.077-0.313c-0.801-0.355-1.492-0.952-2.009-1.643c-0.551-0.662-1.09-1.258-1.87-1.484       c-0.462-2.243-1.528-0.55-1.956-2.594l-0.079,0.131c-1.637-2.67-2.974-5.607-3.846-8.624c-0.257-0.741-0.369-1.521-0.572-2.267       c-0.191-0.751-0.39-1.493-0.478-2.252c-0.121-0.752-0.254-1.494-0.401-2.227c-0.087-0.742-0.173-1.475-0.258-2.197l0.199,0.004       c-0.016-4.656,0.739-9.227,2.373-13.492c1.633-4.251,4.127-8.222,7.478-11.393c0.511-0.709-0.181-0.675,0.228-1.346       c0.256-0.208,0.792-0.729,0.954-0.546c-0.38,0.528,0.028,0.449-0.067,0.666c0.387-0.347,0.835-0.742,1.329-1.053       c0.485-0.323,0.934-0.663,1.217-1.062l-0.815,0.215c0.212-0.324,0.727-0.597,1-0.782c-0.017,0.215,0.562,0.212,0.381,0.444       c0.539-0.932,0.968-0.999,1.323-1.073c0.371-0.057,0.732-0.037,1.351-0.597c-0.098-0.812,1.557-2.172,2.648-3.242       c-0.007-0.02,0.758-0.113,0.758-0.113c-0.92,0.347,0.185,0.407-0.918,0.893c0.485-0.148,0.926-0.341,1.366-0.528       c0.436-0.195,0.864-0.4,1.328-0.513c-0.229-0.095-0.259-0.319,0.08-0.525c0.591-0.103,0.725,0.151,1.385,0.032       c0,0-0.575,0.367-0.568,0.385c0.488,0.089,0.767-0.29,1.153-0.442c0.206,0.237,1.171,0.042,1.077,0.389       c0.767-0.58,1.107-0.506,2.011-0.861C42.918,17.66,44.149,17.4,44,17.186c0,0-1.112,0.264-1.103,0.3       c0.804-0.069,0.682-0.007,0.379,0.078c-0.302,0.096-0.761,0.327-0.652,0.539c-0.778-0.027,0.833-1.031-0.378-0.64       c0.705-0.331,1.164-0.4,1.621-0.49c0.458-0.096,0.913-0.212,1.665-0.527c-0.928,0.233,0.139-0.337-0.387-0.404       c1.204-0.203,0.321,0.12,0.729,0.369c0.647-0.131,0.912,0.161,1.486-0.227c1.072,0.091-0.133,0.367,0.414,0.534       c-0.182,0.188-0.92,0.08-1.56,0.158c-0.639,0.088-1.182,0.25-0.967,0.75c-0.532,0.093-1.109,0.589-1.867,0.679       c0.693,0.037,1.676,0.238,2.451-0.125l-0.033-0.595c0.622-0.113,0.711-0.543,1.18-0.502c-0.228,0.182,0.233,0.411,0.737,0.337       c-0.151-0.077-0.353-0.047-0.305-0.153c0.944-0.091,1.055-0.502,2.201-0.673c-0.95-0.105-1.152-0.273-2.067-0.485       c0.215-0.427,0.633-0.093,1.16-0.17c-0.078,0.061-0.187,0.077-0.029,0.152l0.559-0.229c1.203,0.121-0.137,0.602,0.841,0.767       c0.665,0.384,0.923-0.147,1.434,0.077c-0.033-0.04-0.066-0.082-0.096-0.11c0.115,0.013,0.196,0.027,0.256,0.042       c-0.003-0.01-0.008-0.018-0.007-0.029c0.63-0.029,1.3,0.037,1.507-0.264c0.055,0.137,0.557-0.013,0.772-0.061       c0.36-0.071,1.264-0.303,1.711,0.27c-0.014,0.002-0.027-0.004-0.04-0.003c0.775,0.179,1.351,0.423,1.15,0.563       c0.01-0.04,1.199,0.417,1.199,0.417l-0.222,0.36c1.124,0.177,1.071-0.081,1.953-0.286c0.184,0.111,0.414,0.198,0.66,0.282       c0.241,0.103,0.501,0.192,0.757,0.266c0.513,0.149,1.011,0.24,1.297,0.264c0.08,0.047,0.211,0.096,0.436,0.155l-0.399-0.315       c0.847,0.334,0.831,0.082,1.39,0.31c-0.099-0.089-0.105-0.118,0.174,0.087c0.089,0.053,0.184,0.109,0.301,0.178       c-0.045,0.026-0.164-0.039-0.277-0.117l0.045,0.172c0.477,0.707,1.109,0.264,1.752,0.74c-0.074-0.019-0.2-0.048-0.27-0.086       c0.351,0.29,0.643,1.065,0.969,0.834c0.071,0.08,0.23,0.106,0.402,0.105l0.244,0.22c-0.103-0.085-0.179-0.156-0.24-0.219       c0.226,0.002,0.461-0.024,0.44,0.065l0.919,0.643c0.151,0.16,0.422,0.266,0.653,0.339l0.071,0.239       c0.361,0.189,0.309,0.274,0.242,0.288c0.803,1.284,1.932,1.045,2.827,2.361c0.397-0.025,0.008-0.538,0.052-0.672       c0.344-0.046,1.099,0.43,1.539,0.608c0.271,0.753,1.558,2.415,0.89,2.593c0.802,0.949-0.014-0.527,0.543-0.2l0.081,0.122       c-0.246-0.364-0.329-0.761-0.371-1.07c0.159-0.303,0.995,0.468,1.161,0.789l-0.475,0.116c0.896,0.763,1.209,0.148,2.038,0.421       c0.518,0.823-0.153,0.663-0.311,1.059c0.02-0.018,0.695,0.706,0.695,0.706l-0.253,0.2c0.447,0.456,0.778,0.396,1.209,1.183       c-0.627-0.331,0.548,1.231-0.314,0.763c0.202,0.444,0.804,0.209,0.57,0.664c0.462,0.099-0.076-0.473-0.154-0.719       c0.138-0.217,0.365-0.046,0.575,0.258c0.203,0.309,0.419,0.727,0.627,0.945c-0.192,0.177-0.458-0.174-0.245,0.505       c0.238,0.018,0.597,0.321,0.597,0.775c0.267-0.154,0.492,0.625,0.624,0.996c-0.119-0.434-0.286-1.077,0.12-0.971       c0.304,0.229,0.502,0.466,0.802,1.209l-0.105-0.565c0.726,0.417,0.197,1.195,0.741,1.978c-0.349-0.278-0.457-0.502-0.819-0.71       c0.326,0.332,0.909,0.993,1.349,1.567l-0.161,0.926c0.253,0.007,0.286,0.843,0.588,0.731c0.136,1.001-0.637-0.613-0.888-0.613       c0.219,1.219,0.843,0.742,0.783,2.008l-0.419-0.27c0.121,0.366,0.54,1.051,0.387,1.149c0.099-0.03,0.024-0.211-0.057-0.44       c0.695,0.031,0.888,1.626,1.5,1.312l-0.096-0.548c0.335,0.785,0.927,1.276,0.863,1.969c-0.084,0.534-0.529-0.248-0.77-0.492       c0.133,0.781,0.925,0.458,1.001,1.429c0.028-0.522,0.275-0.476,0.49-0.203c-0.017-0.572-0.246-1.74-0.448-1.477l-0.012,0.213       c-0.181-0.011-0.319-0.293-0.441-0.419c-0.19-0.74,0.203-0.42,0.289-0.601c-0.218-1.272-0.669,0.071-0.937-1.058l0.086-0.184       c-0.302-0.491-0.658-1.278-1.083-1.287c0.232-0.618-0.605-1.156-0.554-1.762c0.841-0.449,0.612,1.857,1.322,2.298       c-0.029-0.632,0.556,0.184,0.836,0.372c0,0-0.055-0.111-0.158-0.27c-0.099-0.16-0.231-0.372-0.363-0.585       c-0.263-0.421-0.526-0.842-0.526-0.842c0.069-0.186,0.311-0.895-0.131-1.101l0.032,0.151c-0.377-0.68-0.622-0.351-0.795-0.995       c0.035-0.127,0.261-0.004,0.342,0.017c-0.187-0.589-0.418-0.374-0.673-0.705c-0.189-0.587,0.485,0.114,0.357-0.392       c-0.639-0.486-0.413-1.056-0.705-1.609c-0.306,0.442-1.858-1.752-1.593-0.394l-1.06-1.04c0.001-0.535,1.156,0.458,1.337-0.115       l0.593,1.015c0.472-0.505-1.644-1.875-1.43-2.941c-0.356-0.525-0.335-0.341-0.788-1.502l-0.356,0.519       c-0.258-0.574-0.123-0.935-0.054-1.024c-0.25-0.27-0.436-0.543-0.62-0.832c0.122,0.016,0.261,0.068,0.419,0.227       c-0.029-0.585-0.202-0.627-0.453-0.632c-0.287-0.093-0.531-0.392-0.791-0.687l0.405,0.117c-0.2-0.146-0.446-0.322-0.544-0.27       c-0.111-0.119-0.225-0.225-0.352-0.309c-0.006,0.148-0.089,0.572,0.165,1.082c-0.801-1.205-1.594-1.994-2.207-3.15       c0.151-0.095,0.687,0.103,0.586-0.018c-0.407-0.488-1.115-0.724-1.244-0.492c-0.115-0.082-0.199-0.15-0.27-0.212       c0.01-0.19,0.006-0.408-0.198-0.628c-0.015-0.087-0.069-0.199-0.216-0.358c-0.438,0.197-1.266-0.673-1.598-0.667       c0.195,0.207,0.472,0.409,0.761,0.606c-0.599-0.055-1.167-0.029-1.319-0.46c0.921,0.313-0.497-0.986,0.702-0.252       c-0.433-1.072-0.67,0.035-1.374-0.756l-0.406-0.597c0.276-0.223,0.978,0.515,0.925,0.314l-0.404-0.247       c0.524,0.08,1.869,1.259,2.973,1.659c0,0-0.089-0.111-0.246-0.248c-0.156-0.14-0.364-0.326-0.572-0.512       c-0.419-0.373-0.837-0.746-0.837-0.746c-2.432-1.412-5.343-3.456-7.809-3.749l0.094,0.035c-0.05,0.013-0.094,0.063-0.176,0.169       l-0.061-0.125c0,0-0.521,0.044-0.525,0.055c-0.369-0.478-1.274-0.879-1.986-1.411c0.43,0.383,0.428,0.383,0.39,0.643       c-0.216,0.288-0.338,0.398-1.023,0.013c0.068-0.235,0.52-0.063,0.04-0.445c0.242,0.216-0.062,0.288-0.389,0.202       c-0.356-0.322-1.069-0.493-1.007-0.745c0.217-0.013,0.353,0.109,0.477,0.179c0.219-0.011-0.745-0.421-0.098-0.46l-0.799-0.134       c-0.404-0.315,0.388-0.232,0.242-0.406c-0.678-0.089-1.217-0.039-1.733,0.017c-0.515,0.05-1.007,0.111-1.617,0.12       c0.079-0.119,0.192-0.654,0.15-0.5c-0.902-0.306-2.069,0.283-3.097,0.173c0.169-0.138,0.549-0.015,0.873-0.045       c-0.784-0.202-1.548-0.271-2.293-0.342c-0.746-0.079-1.47-0.155-2.189-0.231c-1.442-0.075-2.868-0.122-4.423-0.274       l-0.719,0.675l-0.837-0.25c-0.806,0.043-1.573,0.081-2.292,0.228c-0.715,0.168-1.398,0.36-2.07,0.568       c-1.362,0.36-2.597,1.031-3.999,1.619c-0.873,0.368-0.691-0.183-1.162-0.135c-0.965,0.427-1.499,0.842-1.999,1.268       c-0.505,0.421-0.98,0.851-1.78,1.439c0.144-0.289,0.311-0.954-0.441-0.525c-0.057,0.224-0.015,0.496-0.53,0.692l0.146-0.29       c-0.556,0.047-0.847,0.492-1.78,0.95c-1.445,1.12-2.668,2.41-3.291,3.907c-1.204,1.017-0.284-0.557-0.584-0.449       c0.971-0.604,0.516-0.602,0.574-0.915c-0.345,0.526-0.811,1.081-1.313,0.996c-0.59,0.599-0.935,0.797-1.286,1.611       c0.183-0.405,0.58-0.51,0.444-0.098c-0.559,0.404-1.611,1.789-1.922,1.389c-2.554,3.044-5.068,6.772-6.691,10.733       c-0.01,0.771,0.281-0.473,0.312-0.033c-0.047,1.098-0.446,0.707-0.482,1.583l-0.138-0.418       c-0.233,0.577-0.344,1.219-0.414,1.859c-0.082,0.637-0.007,1.309-0.048,1.908c-0.25-0.273-0.493,0.882-0.425-0.125       c-0.093,0.568-1.624,0.943-1.463,1.464l1.427-0.355c0.116,0.061-0.162,0.83-0.058,0.77c-0.4,0.429-0.75,1.003-0.814,1.353       c-0.342,0.117-0.158-0.764-0.044-1.24c-0.555-0.195-0.609,1.582-0.998,0.776c-0.076,1.077,0.299-0.1,0.401,0.566l-0.256,0.9       l0.289-0.681c0.044,0.794,0.417,1.103-0.037,2.077c0,0,0.077,0.276,0.203,0.553c0.119,0.274,0.238,0.549,0.238,0.549       c-0.436,0.071-0.119,0.76-0.246,1.293l-0.258-0.355c-0.023,0.725-0.111,1.001-0.291,1.453       c-0.359-0.421,0.124-0.656-0.226-0.846l-0.167,0.802c0.245,0.003,0.412,0.513,0.587-0.055c0.217,0.375,0.389,0.659,0.547,1.077       c0.167,0.418,0.279,0.967,0.306,1.874c-0.376,0.848-0.415-0.868-0.81-0.51c-0.074,1.945,1.169,2.254,1.309,3.329       c0.041,1.406,0.411,1.27,0.651,2.653c-0.384-0.38-0.06,1.02-0.253,1.338l-0.428-0.482c0.194,0.404,0.19,0.836-0.043,0.761       c0.374-0.174,0.769,1.736,1.282,2.604l0.254-0.262c0.366,0.686,0.921,1.599,1.118,2.383c0.499,1.085,0.725,0.698,1.421,1.375       c-0.053,0.574-0.391,0.679-0.79,0.677c0.013-0.361-0.312-0.81-0.448-1.327c-0.763-1.307-1.9-2.195-2.181-3.73       c-0.466-0.214-0.378,0.033-0.183,0.436c0.204,0.4,0.581,0.923,0.571,1.325c-0.053-0.005-0.086-0.052-0.113-0.103       c0.021,0.064,0.038,0.121,0.043,0.186c-0.279-0.493-0.73-1.305-1.13-1.346c0.35,0.887,0.974,0.403,1.037,1.61       c0.504,0.73,0.162,1.616,0.297,2.138c0.501,0.421,1.112,0.176,1.601,1.491l-0.671-0.366c0.688,1.45,0.914,0.393,1.532,1.718       c-0.176-0.485,0.6,0.237,0.19-0.639c0.388,0.335,0.969,1.199,1.268,1.929c0.164,0.139,0.152-0.042,0.301-0.088       c-0.16-0.894-1.002-0.994-0.905-1.848l-0.687-0.317c-0.195-0.804,0.122-1.038,0.501-0.687       c-0.114-0.191-0.259-0.339-0.254-0.521c0.593-0.436,0.18,0.967,0.846,0.936l-0.286-0.474c0.339-0.432,0.873,0.991,1.259,1.584       c0.223,0.791,0.537,1.464,0.278,1.692l-0.692-0.857c0.062,0.626,0.863,1.112,1.178,1.657c-0.017,0.061-0.014,0.133,0.004,0.21       c0.008-0.045,0.024-0.078,0.052-0.096c0.052,0.127,0.089,0.247,0.085,0.374c0.321,0.459,0.978,0.992,1.201,1.472l0.203-0.235       l-0.178,0.047c-0.296-0.416-0.555-1.074-0.142-0.901c0.846,0.779,0.518,1.318,0.477,1.704       c-0.527,0.074-0.673-0.906-1.151-1.281c-0.158,0.557,0.666,0.972,1.15,2.125c-0.683-0.069-0.835-1.127-1.366-1.059       c0.539,0.831,0.923,0.853,1.512,1.702c-0.287,0.071-0.926-0.714-1.113-0.481c0,0,0.073,0.157,0.146,0.314       c0.071,0.159,0.152,0.311,0.152,0.311c-1.033-1.302-0.313,0.636-1.198-0.333c0.216,0.628,0.822,0.446,1.179,1.294       c0-0.328-0.156-1.097,0.55-0.611l0.518,0.792c0.086,0.458-1.065-0.374-0.805,0.22l0.799,0.624       c0.087-0.128-0.176-0.53,0.177-0.45c0.266,0.534,1.053,0.293,1.651,0.618c0.371,0.368,0.661,0.665,0.676,0.92       c0.643,0.284,1.266,0.704,1.875,1.115c0.603,0.416,1.275,0.724,1.87,0.926c-0.838-0.249-0.289,0.428-0.023,0.91       c-0.803-0.521-1.101-0.154-1.231,0.128c0.51,0.319,1.106,0.156,0.963-0.149c0.671,0.743,0.729,0.135,1.233,0.908       c0.361,0.462-0.49,0.223-0.433,0.48c0.879,0.614,0.561-0.315,1.479,0.386c-0.087,0.02-0.188-0.018-0.157,0.104       c0.482,0.41,1.172,0.569,1.402,0.434c0.127,0.436,0.536,0.668,0.862,0.837c0.34,0.144,0.592,0.242,0.395,0.479       c1.436,0.516-0.053-0.389,0.314-0.444c0.671,0.03,1.588,0.713,1.871,0.954c-0.338-0.147-0.715-0.147-0.997-0.386l0.107,0.513       c1.591,1.081,1.434-0.299,2.981,0.649c-0.949-0.118-0.404,0.187-0.949,0.299c0.305,0.002,1.6,0.601,0.904,0.007       c0.627,0.267,1.046,0.499,1.465,0.733c0.614,0.078,1.283,0.126,1.697-0.052c0.9,0.277,1.507,0.738,1.911,1.028       c0.998,0.146,1.953,0.255,2.909,0.479c0.48,0.099,0.965,0.197,1.463,0.27c0.498,0.068,1.016,0.036,1.548-0.007l-0.154-0.033       c1.625,0.16-0.68-0.588,1-0.488c-0.249,0.498,0.994,0.394,1.541,0.69c1.044,0.122,1.95-0.046,2.824-0.165       c0.437-0.065,0.868-0.124,1.311-0.158c0.439-0.073,0.891-0.116,1.378-0.104c-0.001,0.108-0.107,0.253-0.476,0.322       c0.741-0.031,1.407-0.118,2.05-0.219c0.321-0.054,0.637-0.108,0.956-0.162c0.313-0.079,0.629-0.159,0.953-0.24L58.741,88.7       c1.084-0.075,2.093-0.321,3.053-0.713c0.948-0.437,1.873-0.94,2.885-1.379c-0.144,0.121-0.115,0.316-0.221,0.427       c0.558-0.117,1.233-0.398,1.843-0.722c0.611-0.321,1.151-0.691,1.396-1.068c1.438-0.13,0.693-0.544,2.413-0.988       c0.131,0.025-0.103,0.161-0.19,0.236c0.809-0.298,1.304-0.648,2.06-1.059c0.67-0.7,0.996-1.249,1.384-1.764       c0.377-0.53,0.869-0.955,1.712-1.63c0.541,0.459-0.881,1.022-0.596,1.452c0.283-0.349,0.467-0.713,1.021-0.996       c-0.093,0.449,0.053,0.182,0.031,0.543c0.473-0.181,0.909-1.8,0.94-1.739c-0.073-0.115-0.239-0.062-0.543,0.241       c0.087-0.65,1.569-1.439,2.116-2.374c-0.239,0.245-1.053,0.937-1.018,0.412c1.043-0.927,0.863-1.72,1.288-2.598       c1.086-0.731-0.179,1.064,0.34,1.214c0.276-0.041,0.923-0.178,0.698,0.353c0.902-0.784,1.038-1.768,1.586-2.651l0.093,0.104       c0.398-0.612,0.765-1.275,1.019-1.967c0.272-0.681,0.557-1.306,0.99-1.755l-0.468,0.468c0.052-0.244,0.463-0.845,0.425-1.321       c0.187,0.156,0.825-0.565,0.806-0.138c-0.374-0.928,1.056-3.14,0.667-4.067c0.299-0.284,0.47,0.11,0.583,0.284       c-0.401,0.812-0.698,1.008-0.629,1.564c0.317-0.681,0.727-1.106,0.831-0.936c-0.114-0.879,0.303-2.626,0.007-3.116       c0.401-0.433,0.697-0.887,0.993-0.594c0.371-2.275-1.389,0.738-0.743-1.722c0.644-1.03,0.196,1.234,0.719-0.294l-0.017,0.304       c1.238-0.897-0.47-0.97-0.117-2.212c0.565-0.065,0.144,0.968,0.742,0.163c0.071-1.231-0.64-1.873-0.289-3.02l0.196,0.214       c0.125-0.757,0.293-2.236,0.285-3.002c0.106-0.031,0.086,0.079,0.107,0.227c0.272-1.41-0.241-0.598,0.183-1.749L87.078,51       c-0.212,0.584-0.527,1.677-0.262,2.424c-0.266-0.74-0.728,1.086-1.161,0.685l0.174,0.157c-0.979,1.768-1.408,4.054-2.338,6.178       c0.038,0.385,0.017,0.729-0.067,1.041c-0.101,0.307-0.24,0.589-0.384,0.872c-0.288,0.567-0.597,1.128-0.688,1.927       c0.495,0.468,0.029,0.328-0.447,1.581c0.238-0.672-0.394-0.271-0.66,0.088c0.033,0.302-0.052,0.613-0.139,0.924       c-0.164,0.067-0.496,0.442-0.859,0.839c-0.36,0.4-0.669,0.87-0.647,1.24c-0.586,0.581-0.072-0.265-0.093-0.478       c-0.44,0.111-0.124,0.684-0.444,0.799c0,0-0.05-0.047-0.034-0.134c-0.578,1.076-1.188,1.54-1.998,2.503       c0.406,0.442-0.527,1.169-0.773,1.697c-0.027-0.263-0.655,0.38-0.981,0.567l-0.125,0.811c-0.182,0.769-0.809,0.527-1.322,1.247       l0.233-0.063c-0.359,0.558-1.838,1.453-2.527,1.578c-1.942,2.256-4.017,3.409-6.205,4.162       c-1.102,0.375-2.192,0.765-3.419,1.041c-0.604,0.162-1.223,0.345-1.865,0.564c-0.664,0.151-1.352,0.333-2.079,0.562       c-0.342,0.278,0.355,0.227,0.116,0.569c-0.594,0.219-0.735,0.253-1.294,0.374c0.53,0.064,0.405-0.137,0.379,0.052l0.814-0.388       c0.052,0.033-0.038,0.075,0.063,0.139c0.274-0.129,0.579-0.333,0.953-0.396c-0.483,0.287-0.526,0.763-1.295,0.784       c0.042-0.075,0.132-0.118,0.314-0.205c-0.606,0.117-0.589,0.344-1.067,0.332c-0.582-0.013-0.417,0.102-0.526-0.079       l-1.773,0.025c-0.396,0.324-0.881,0.434-1.302,0.392c-0.422-0.047-0.772-0.17-0.914-0.188c0.158-0.42,1.148-0.151,1.519-0.647       c0,0-0.642-0.19-0.643-0.211l-0.005,0.323l-0.89-0.046l0.045-0.064c-0.095,0.131-0.196,0.261-0.428,0.161       c-0.041-0.043-0.132-0.126-0.035-0.15l-0.621,0.209c0.352-0.353-0.556-0.071-0.475-0.46c-1.015-0.007-1.657,0.027-2.278,0.097       c-0.619,0.055-1.218,0.078-2.085-0.234c0.272,0.226-0.628,0.516-1.174,0.361c-0.306-0.142-0.371-0.24-0.15-0.355l-0.748,0.086       c-0.4-0.371-0.832-0.471-1.32-0.573c-0.481-0.13-1.026-0.224-1.64-0.488l0.109-0.147c-0.518,0.064-1.087,0.116-1.772-0.166       l0.228-0.277c-0.76-0.535-0.866,0.439-1.737-0.111c-0.123,0.343,0.413,0.739,0.396,1.102c-0.108-0.435-1.108-0.859-0.965-0.526       c-1.013-0.211-0.661-0.251-0.709-0.362c0,0-0.648,0.002-0.642-0.015c-0.64-0.329-0.012-0.537,0.302-0.616       c-0.749,0.073-1.291-0.496-1.932-0.873l0.345-0.016l-0.851-0.482c-0.711-0.016-1.472-0.518-2.107-1.059l0.735-0.116       c-0.358-0.51-0.338-0.011-0.511-0.02c-0.899-0.282-0.912-0.632-1.14-1.139c-0.72-0.229-1.188-0.825-1.635-1.369       C29.155,76.514,28.771,75.962,28.082,75.813z M69.072,21.677l-0.081-0.133C69.309,21.639,69.507,21.668,69.072,21.677z        M61.646,17.883c1.013,0.171,0.634,0.274,0.658,0.424c-0.89-0.447-1.439-0.545-2.238-0.923       c0.109,0.127,0.098,0.257,0.118,0.344c-0.329-0.108-0.636-0.295-0.686-0.56c0.27-0.162,0.928,0.027,1.42,0.35       C61.42,17.812,61.804,18.089,61.646,17.883z M78.79,26.967c-0.053-0.004-0.11-0.012-0.167-0.025c0,0,0,0-0.004-0.004       L78.79,26.967z M74.787,23.472c0.014-0.128-0.045-0.258-0.138-0.394C74.636,23.24,74.635,23.382,74.787,23.472z M66.375,17.105       c-0.135-0.288-0.671-0.479-1.059-0.613C65.481,16.595,65.765,16.8,66.375,17.105z M13.603,42.269       c0.004-0.328-0.04-0.968-0.32-0.465c0.101,0.299-0.318,0.732-0.117,1.009c-0.018,0.029-0.024,0.032-0.036,0.049       C13.369,42.583,13.569,42.359,13.603,42.269z M20.52,71.334c-0.195,0.069-0.51,0.006-0.545,0.209       c-0.012-0.024-0.026-0.053-0.039-0.079c-0.009,0.1-0.016,0.184-0.088,0.16c0.117,0.222,0.235,0.46,0.387,0.568       C20.811,71.886,21.203,72.238,20.52,71.334z"></path><path d="M13.538,63.224c0.049,0.116,0.087,0.205,0.117,0.277C13.628,63.425,13.591,63.339,13.538,63.224z"></path><path d="M20.206,72.15c0.047-0.006-0.077-0.279-0.232-0.607C19.952,71.647,20.004,71.824,20.206,72.15z"></path><path d="M84.351,42.85l-0.136-0.269l-0.042,0.611c0.467,0.893,0.706,0.901,1.068,1.079c-0.417-0.825-0.477-1.364-0.824-2.452       L84.351,42.85z"></path><path d="M86.308,41.845c0.057-0.122,0.201-0.43,0.182-0.588l-0.227-0.1L86.308,41.845z"></path><path d="M82.208,30.089l0.38,0.954C82.902,31.229,82.544,30.061,82.208,30.089z"></path><path d="M81.374,35.501l0.405,0.344c-0.035-0.469-0.312-0.995-0.563-0.972C81.585,35.341,81.163,35.063,81.374,35.501z"></path><path d="M80.667,27.85c-0.496-0.016-0.472-0.917-0.884-0.856C80.027,27.14,80.329,28.044,80.667,27.85z"></path><path d="M78.12,30.582c-0.128,0.449,0.439,0.633,0.693,1.162C78.549,31.346,78.44,30.591,78.12,30.582z"></path><path d="M76.353,24.516c0.241-0.171,0.501,0.161,0.773,0.55c-0.168-0.057-0.329-0.043-0.5-0.166       c0.677,0.425,0.683,0.495,1.198,0.87c-0.276-0.592-0.825-1.382-0.512-1.548C76.822,24.036,76.1,23.957,76.353,24.516z"></path><path d="M77.249,29.492c0.205,0.454,0.172,0.838,0.532,1.283c0.097-0.193,0.206-0.513-0.236-1.029l0.401-0.002       C77.756,29.093,77.755,30.201,77.249,29.492z"></path><path d="M74.728,22.028l0.139,0.327c0.718,0.303,1.334,1.037,1.928,1.027C76.111,22.787,75.166,22.164,74.728,22.028z"></path><path d="M76.156,27.294l-0.395,0.234c0.409,0.543,0.079-0.138,0.322-0.03c0.083,0.188,0.248,0.43,0.409,0.48       C75.919,27.449,76.73,27.701,76.156,27.294z"></path><path d="M74.261,26.019l-0.772-0.44l0.157,0.808C74.505,26.932,73.878,26.218,74.261,26.019z"></path><path d="M73.676,25.081l-0.014-0.13l-1.402-0.375C73.01,24.882,73.017,24.946,73.676,25.081z"></path><path d="M60.809,14.504c-0.207,0.146,0.522,0.583,0.243,0.288C61.254,14.679,60.249,14.161,60.809,14.504z"></path><path d="M62.683,18.977c-0.292-0.262-1.517-0.417-2.043-0.47C61.252,18.634,62.668,19.251,62.683,18.977z"></path><path d="M60.425,18.484c0.043,0.005,0.123,0.013,0.215,0.023C60.546,18.487,60.477,18.479,60.425,18.484z"></path><path d="M39.239,19.667c-0.049,0.025-0.094,0.056-0.127,0.101C39.156,19.733,39.193,19.703,39.239,19.667z"></path><path d="M39.679,19.384c0.334-0.082,0.964-0.348,1.023-0.579c-0.506,0.21-0.943,0.43-1.463,0.861       C39.454,19.563,39.772,19.601,39.679,19.384z"></path><path d="M35.119,21.167c0.175-0.221,0.52-0.316,0.359-0.447C35.31,20.708,34.906,21.125,35.119,21.167z"></path><path d="M11.276,46.478c-0.196,0.534-0.121,0.868,0.167,0.746C11.495,46.613,11.303,46.93,11.276,46.478z"></path><polygon points="11.465,47.932 11.321,47.995 11.088,48.341      "></polygon><path d="M10.934,51.707c-0.046-0.027-0.1-0.125-0.134-0.228C10.849,51.695,10.897,51.878,10.934,51.707z"></path><path d="M10.778,51.37c0.007,0.034,0.016,0.074,0.023,0.109C10.793,51.445,10.785,51.404,10.778,51.37z"></path><path d="M10.855,51.119l-0.152-0.043c0.025,0.062,0.049,0.181,0.074,0.294C10.763,51.267,10.778,51.158,10.855,51.119z"></path><path d="M10.94,52.853l0.393-0.74c-0.248-0.746-0.178,0.864-0.671,0.136L10.94,52.853z"></path><path d="M11.228,55.369c-0.035,0.71,0.782,1.594,0.341,2.059c0.573,1.878,0.734-0.573,1.322,1.548       c-0.121-2.074-1.141-0.861-1.159-2.752C11.556,57.164,11.393,55.658,11.228,55.369z"></path><path d="M12.027,54.951c-0.269-0.085-0.163,0.778,0.045,1.022C12.062,55.719,12.351,55.254,12.027,54.951z"></path><polygon points="12.06,59.112 12.017,59.735 12.215,59.85      "></polygon><path d="M12.525,61.334l-0.431-0.491C12.254,61.002,12.451,61.857,12.525,61.334z"></path><path d="M13.146,64.469c0.098,0.558,0.904,0.779,0.367-0.254l0.066,0.257C13.457,64.442,13.448,65.117,13.146,64.469z"></path><path d="M17.235,70.574c-0.18-0.324-0.482-0.656-0.564-0.52l0.648,0.802L17.235,70.574z"></path><path d="M18.58,69.602c0.194-0.491-0.516-0.753-0.703-1.388C18.157,68.893,18.084,68.836,18.58,69.602z"></path><path d="M17.343,71.883c-0.289-0.146-0.421-0.575-0.532-0.81C16.675,71.303,17.099,71.883,17.343,71.883z"></path><path d="M18.369,73.17c0.064,0.366-0.234,0.074-0.174,0.344c0.282,0.692,0.765,1.296,1.192,1.484       c0.023-0.263,0.249-0.76,0.589-0.652c-0.79-0.811-1.772-0.846-1.622-1.631c0,0-0.303-0.081-0.572-0.191       c-0.277-0.107-0.553-0.214-0.553-0.214C17.614,73.172,18.032,72.628,18.369,73.17z"></path><path d="M18.272,70.501l0.106,0.638c0.136-0.228,0.405,0.136,0.633,0.362C19.37,71.079,18.477,70.779,18.272,70.501z"></path><path d="M22.664,77.85c-0.023,0.025,1.02,0.807,1.02,0.807l-0.29-0.304c0,0-0.188-0.12-0.375-0.24       C22.833,77.991,22.664,77.85,22.664,77.85z"></path><polygon points="23.138,78.554 23.057,78.686 23.986,79.154      "></polygon><polygon points="24.026,79.605 23.927,79.483 23.267,79.062      "></polygon><path d="M26.035,81.454l-0.055-0.318c-0.311-0.142-0.659-0.756-0.796-0.494C25.448,80.776,25.993,81.19,26.035,81.454z"></path><path d="M36.113,81.051c-0.245,0.045-0.191,0.215-0.135,0.389l0.448-0.203C36.332,81.213,36.146,81.164,36.113,81.051z"></path><path d="M37.104,82.186l0.951-0.114c-0.881-0.384-1.14-0.11-1.927-0.432c0.272,0.277,0.835,0.238,1.223,0.48L37.104,82.186z"></path><path d="M53.769,84.859c-0.048,0.277,0.146,0.244-0.476,0.472c0.859-0.257,1.605-0.347,2.596-0.528       c-0.196-0.147,0.485-0.557,0.12-0.425l-1.072,0.332l0.137-0.213C54.277,84.404,54.613,84.881,53.769,84.859z"></path><path d="M86.587,56.383c0.116,0.131,0.259,0.005,0.402-0.124C86.95,55.52,86.594,56.533,86.587,56.383z"></path></g></g></g></g></g></svg>