<svg fill="#FFFFFF" xmlns="http://www.w3.org/2000/svg" xmlns:xlink="http://www.w3.org/1999/xlink" version="1.1" x="0px" y="0px" viewBox="0 0 100 100" enable-background="new 0 0 100 100" xml:space="preserve"><path fill="#FFFFFF" d="M90.994,88.007c-0.572,0-1.072,0.248-1.414,0.639l-10.985-7.687c0.061-0.135,0.098-0.282,0.098-0.442  c0-0.609-0.491-1.103-1.078-1.103c-0.106,0-0.204,0.032-0.302,0.061l-20.18-40.022c0.516-0.333,0.854-0.91,0.854-1.583  c0-0.032-0.009-0.062-0.01-0.095l29.84-5.104c0.158,0.402,0.552,0.698,1.021,0.698c0.587,0,1.078-0.493,1.078-1.076  c0-0.562-0.423-1.008-0.947-1.076V11.351c0.509-0.097,0.9-0.521,0.9-1.039c0-0.607-0.492-1.101-1.102-1.101  c-0.585,0-1.077,0.493-1.077,1.101c0,0.121,0.032,0.234,0.071,0.345l-8.354,4.774c-0.199-0.232-0.484-0.386-0.809-0.386  c-0.384,0-0.703,0.197-0.9,0.485L64.295,9.932c0.052-0.17,0.088-0.347,0.088-0.533c0-1.025-0.834-1.859-1.859-1.859  c-1.024,0-1.858,0.834-1.858,1.859c0,0.671,0.36,1.254,0.896,1.581l-4.535,9.767c-0.088-0.022-0.172-0.054-0.266-0.054  c-0.586,0-1.078,0.493-1.078,1.101c0,0.061,0.025,0.113,0.035,0.171l-5.128,1.888c-0.306-0.616-0.932-1.034-1.679-1.034  c-0.686,0-1.279,0.382-1.601,0.943l-15.904-7.027c0.019-0.078,0.049-0.153,0.049-0.236c0-0.36-0.183-0.665-0.445-0.865l2.101-4.413  c0.087,0.023,0.172,0.055,0.266,0.055c0.609,0,1.102-0.493,1.102-1.079c0-0.607-0.493-1.101-1.102-1.101  c-0.586,0-1.078,0.493-1.078,1.101c0,0.35,0.186,0.651,0.452,0.85l-2.099,4.409c-0.09-0.024-0.178-0.057-0.275-0.057  c-0.507,0-0.915,0.348-1.043,0.813l-5.188-0.428c-0.056-0.553-0.509-0.972-1.081-0.972c-0.396,0-0.737,0.226-0.924,0.555  L9.208,11.002c0.007-0.052,0.03-0.098,0.03-0.15c0-0.586-0.491-1.079-1.101-1.079c-0.586,0-1.078,0.493-1.078,1.079  c0,0.607,0.492,1.101,1.078,1.101c0.413,0,0.758-0.236,0.946-0.571l12.933,4.358c-0.007,0.051-0.03,0.096-0.03,0.148  c0,0.609,0.493,1.079,1.078,1.079c0.506,0,0.914-0.332,1.043-0.791l5.19,0.432c0.06,0.534,0.509,0.967,1.078,0.967  c0.36,0,0.669-0.197,0.866-0.477l15.908,7.029c-0.058,0.183-0.098,0.373-0.098,0.574c0,0.833,0.555,1.531,1.312,1.766l-1.151,5.829  c-0.005,0-0.009-0.003-0.013-0.003c-0.608,0-1.101,0.49-1.101,1.101c0,0.609,0.492,1.076,1.101,1.076  c0.345,0,0.643-0.173,0.841-0.43l6.327,3.183c-0.075,0.202-0.122,0.418-0.122,0.646c0,1.039,0.833,1.884,1.858,1.884  c0.238,0,0.462-0.047,0.67-0.125l20.183,40.027c-0.263,0.201-0.442,0.504-0.442,0.861c0,0.608,0.491,1.077,1.101,1.077  c0.299,0,0.57-0.123,0.768-0.323l10.97,7.703c-0.148,0.271-0.24,0.578-0.24,0.914c0,1.025,0.845,1.86,1.883,1.86  c1.025,0,1.859-0.835,1.859-1.86C92.854,88.851,92.02,88.007,90.994,88.007z M87.963,11.002c0.156,0.181,0.365,0.299,0.605,0.347  v19.896c-0.064,0.017-0.131,0.025-0.19,0.053l-9.049-14.388c0.21-0.194,0.347-0.469,0.347-0.786c0-0.123-0.033-0.235-0.07-0.345  L87.963,11.002z M62.523,8.539c0.475,0,0.859,0.386,0.859,0.859s-0.385,0.858-0.859,0.858c-0.473,0-0.858-0.385-0.858-0.858  S62.051,8.539,62.523,8.539z M61.923,11.148c0.189,0.065,0.39,0.108,0.601,0.108c0.696,0,1.297-0.389,1.615-0.956l13.404,5.598  c-0.016,0.075-0.045,0.145-0.045,0.225c0,0.61,0.49,1.077,1.102,1.077c0.138,0,0.27-0.03,0.392-0.078l9.059,14.404  c-0.188,0.194-0.306,0.459-0.31,0.751l-29.829,5.102c-0.194-0.697-0.784-1.229-1.519-1.341l0.525-13.196  c0.53-0.079,0.943-0.517,0.943-1.049c0-0.369-0.193-0.68-0.473-0.879L61.923,11.148z M48.051,24.701  c0-0.495,0.377-0.884,0.858-0.884c0.495,0,0.883,0.389,0.883,0.884c0,0.48-0.388,0.857-0.883,0.857  C48.436,25.559,48.051,25.174,48.051,24.701z M48.219,33.683c0.026-0.094,0.059-0.186,0.059-0.289c0-0.462-0.283-0.853-0.674-1.017  l1.152-5.834c0.052,0.005,0.101,0.016,0.153,0.016c1.039,0,1.883-0.833,1.883-1.857c0-0.166-0.027-0.323-0.065-0.475l5.128-1.888  c0.148,0.243,0.382,0.416,0.663,0.485L55.992,36.02c-0.607,0.037-1.136,0.361-1.447,0.844L48.219,33.683z M55.245,37.869  c0-0.475,0.386-0.86,0.858-0.86c0.494,0,0.883,0.378,0.883,0.86c0,0.495-0.389,0.884-0.883,0.884  C55.622,38.753,55.245,38.364,55.245,37.869z M90.994,90.748c-0.495,0-0.883-0.378-0.883-0.86c0-0.494,0.388-0.881,0.883-0.881  c0.481,0,0.859,0.387,0.859,0.881C91.854,90.362,91.468,90.748,90.994,90.748z"></path></svg>