<svg fill="#FF7F7F" xmlns="http://www.w3.org/2000/svg" xmlns:xlink="http://www.w3.org/1999/xlink" version="1.1" x="0px" y="0px" viewBox="0 0 100 100" enable-background="new 0 0 100 100" xml:space="preserve"><g><g><g><g><g><polygon points="86.051,50 86.109,49.373 85.842,49.181      "></polygon><path d="M86.818,46.961c0,0-0.041-0.273-0.082-0.546c-0.031-0.274-0.117-0.541-0.117-0.541c-0.657,0.696-0.5-0.149-0.94,1.567       c0.144,0.572,0.466,1.861,0.748,1.685c-0.053-0.428-0.366-1.038-0.307-1.673c0.226,0.257,0.236,0.938,0.529,1.248       c0.177-1.043-0.212-0.638-0.168-1.775L86.818,46.961z"></path><path d="M85.963,45.75c0.141,0.083,0.283,0.172,0.384,0.141C86.205,45.803,85.97,45.304,85.963,45.75z"></path><path d="M85.788,45.11c-0.075-0.677,0.272-0.027,0.302-0.1l-0.588-0.695L85.788,45.11z"></path><path d="M85.353,42.316c-0.043-0.103-0.083-0.201-0.123-0.297C85.184,42.143,85.269,42.214,85.353,42.316z"></path><path d="M84.953,40.984c-0.091,0.309,0.09,0.622,0.278,1.036c0.006-0.016,0.011-0.028,0.019-0.049       c0.038-0.409,0.462-0.129,0.533,0.507c0.206,0.638-0.156,0.644,0.155,1.171l0.15-0.834       C85.83,41.791,85.172,41.339,84.953,40.984z"></path><path d="M85.353,42.316c0.042,0.11,0.081,0.228,0.113,0.354C85.482,42.5,85.421,42.4,85.353,42.316z"></path><polygon points="85.568,43.721 85.691,44.058 85.82,43.949      "></polygon><path d="M84.299,38.763c0.54,0,0.42,1.604,0.807,1.681c-0.237-0.885-0.122-1.697,0.171-1.578l-0.491-0.926       C84.503,37.673,84.326,38.201,84.299,38.763z"></path><path d="M84.71,36.478c-0.06-0.049-0.111-0.114-0.155-0.194C84.611,36.384,84.666,36.466,84.71,36.478z"></path><path d="M81.769,32.102c0,0,0.431,0.441,0.775,0.94c0.366,0.49,0.732,0.981,0.732,0.981c-0.231-0.137-0.324,0.007-0.608-0.461       c0.404,0.981,0.731,0.98,1.069,1.791c-0.281,0.411-0.698-1.378-0.83-0.763c0.275,0.546,0.71,1.354,1.189,1.696l0.062,1.026       l0.33-0.48c-0.012-0.429-0.623-0.619-0.402-0.975c0.144-0.195,0.318,0.167,0.461,0.418c-0.269-0.579-0.354-1.76-0.981-2.926       C82.91,32.125,82.434,32.749,81.769,32.102z"></path><polygon points="82.175,31.767 82.252,31.537 82.093,31.757      "></polygon><path d="M80.289,29.853l0.896,0.903c0.035,0.137-0.011,0.251-0.039,0.373c0.069-0.098,0.401,0.092,0.451,0.001       c0.057-0.715-0.902-1.254-1.337-1.757c-0.903-1.531,0.237-0.066,0.154-0.853c0.279,0.42,0.252,0.462,0.579,1.079       c-0.194-1.196-1.439-2.03-1.935-2.52c0.089,0.191,0.016,0.314,0.278,0.599l-0.545-0.494       C78.965,27.999,79.292,28.537,80.289,29.853z"></path><path d="M81.442,31.743c-0.267-0.378-0.328-0.539-0.297-0.607C81.109,31.299,81.117,31.475,81.442,31.743z"></path><path d="M78.823,26.783c0.026,0.08,0.111,0.177,0.236,0.295C79.022,27,78.958,26.906,78.823,26.783z"></path><path d="M78.851,27.667l-0.487-0.726l0.047,0.401C78.501,27.425,78.781,27.747,78.851,27.667z"></path><path d="M49.971,12.828c0.08,0.172,0.401,0.278,1.082,0.277c-0.088,0.242-0.964,0.107-1.373,0.283       c0.891,0.12-0.012,0.268,0.214,0.486c0.977,0.051,1.424-0.213,2.479-0.103c-0.055,0.063-0.042,0.166,0.089,0.254       c0.319-0.018,0.692-0.038,1.093-0.06c0.401-0.007,0.824,0.044,1.248,0.078c0.848,0.081,1.691,0.205,2.284,0.397       c1.147,0.339,2.018,0.483,3.326,0.701c4.086,1.355,8.306,3.202,11.85,6.241l0.809,0.042c0.057,0.291,0.85,0.725,0.564,0.858       c-0.158-0.208-0.351-0.356-0.604-0.529c0.499,0.948,1.992,1.733,2.767,2.657c-0.034-0.156,0.109-0.58,0.405-0.362       c-0.425,0.28,0.969,1.052,0.778,1.7c0.696,0.979,0.361-0.257,1.142,0.722c0.317-0.092-0.701-0.986-0.689-1.305       c0.447,0.135,0.694,0.916,0.893,0.672c-0.315-0.402-0.742-0.855-1.236-1.34c-0.25-0.238-0.514-0.488-0.787-0.747       c-0.301-0.228-0.613-0.465-0.931-0.707c-0.638-0.471-1.303-0.963-1.964-1.451c-0.704-0.429-1.395-0.858-2.033-1.283       l0.423-0.032c-0.347-0.197-0.734-0.439-1.132-0.709c-0.41-0.251-0.855-0.495-1.269-0.77c-0.841-0.526-1.574-1.163-2.05-1.628       c0.151,0.365-2.055-1.15-2.096-0.501c-0.301-0.297-0.419-0.33-0.912-0.623l-0.217,0.123c-0.756-0.282-0.525-0.509-1.409-0.813       c0.481,0.45-0.179,0.292-0.501,0.402c-0.448-0.31-0.936-0.658-1.435-0.942c-0.509-0.267-1.005-0.526-1.436-0.752       c0.052,0.1,0.11,0.213,0.396,0.402c-0.599-0.248-0.556,0.018-0.743,0.061c-0.6-0.141-0.461-0.451-0.392-0.607       c-1.09-0.413-1.718,0.159-2.516-0.177l0.246,0.308c-0.579-0.056-1.098-0.193-1.637-0.329c-0.537-0.145-1.095-0.279-1.743-0.245       c-0.598-0.392,1.091-0.287,1.639-0.309c-0.254-0.108-0.805-0.239-0.977-0.347c-0.576,0.156-1.529,0.361-2.219,0.502       C52.075,12.935,50.417,12.871,49.971,12.828z"></path><path d="M53.616,12.822c0.168-0.046,0.307-0.085,0.392-0.108c-0.127,0-0.249,0.014-0.439-0.01       C53.547,12.749,53.571,12.788,53.616,12.822z"></path><path d="M49.971,12.828c-0.006-0.015-0.023-0.026-0.027-0.042C49.814,12.817,49.852,12.826,49.971,12.828z"></path><path d="M57.244,14.487c-0.048-0.015-0.106-0.032-0.158-0.048c-0.07-0.014-0.133-0.026-0.206-0.041L57.244,14.487z"></path><path d="M58.439,13.539c0.227,0.155,0.546,0.335,0.904,0.526C59.265,13.921,59.201,13.807,58.439,13.539z"></path><path d="M65.88,16.451c0.241,0.064,0.148-0.07,0.34-0.074C65.768,16.148,65.576,16.152,65.88,16.451z"></path><polygon points="52.183,12.679 51.183,12.711 50.817,12.765      "></polygon><path d="M33.266,18.09c0.912-0.08,1.932-0.809,2.909-1.178c1.739-0.813-0.034-0.728,1.687-1.398l-0.077,0.725       c0.426-0.159,0.896-0.335,1.384-0.518c0.496-0.16,1.024-0.278,1.532-0.438c1.024-0.29,1.983-0.716,2.713-1.073       c0.149,0.058,0.486,0.106,0.034,0.27c1.197-0.208,0.475-1.015,2.147-1.05c-1.471,0.635,0.545,0.308,0.173,0.774l-0.228,0.081       c0.252-0.056,0.525-0.116,0.803-0.177c0.281-0.042,0.566-0.085,0.841-0.126c0.551-0.084,1.062-0.157,1.403-0.16       c0.023-0.17-0.592-0.396,0.334-0.463c-0.377-0.015-0.232-0.212-0.207-0.382c-0.958,0.234-1.487,0.146-2.053,0.398       c-0.556-0.192,0.357-0.09-0.203-0.278c-0.003-0.021-0.746,0.293-0.746,0.293c-0.572,0.036,0.557-0.307-0.329-0.219       c-0.087,0.142-0.78,0.389-1.469,0.465L44.1,13.53c-0.51,0.166-1.273,0.175-0.95,0.493c0,0-0.69-0.269-0.689-0.252l0.158,0.218       c-1.414,0.266-2.114-0.192-3.85,0.615c0.445-0.083,0.096,0.186-0.115,0.313c0.783-0.106,0.873-0.44,1.582-0.676       c0.168,0.212-0.958,0.809-0.053,0.728c-1.044-0.072-1.745,0.57-2.344,0.129c-1.132,0.395-1.463,0.767-2.617,1.136l-0.007-0.099       c-0.034,0.47-0.968,0.26-1.591,1.026l0.612-0.193c0.045,0.164-0.23,0.302-0.6,0.514c0.015-0.08,0.015-0.08-0.146-0.091       c0.007,0.161-0.286,0.398-0.594,0.612c-0.31,0.21-0.6,0.461-0.655,0.534c0.488-0.269,1.006-0.761,1.569-1.121       C33.586,17.717,33.791,17.894,33.266,18.09z"></path><path d="M44.46,13.33L44.1,13.53C44.252,13.482,44.388,13.418,44.46,13.33z"></path><path d="M28.501,20.47c-0.646,0.398,0.014-0.327-0.632-0.009c-0.493,0.625,0.956-0.188,0.542,0.506       c-0.477,0.134-0.885,0.824-1.123,1.01c0.16-0.338-0.239-0.529-0.403-0.508c-0.178,0.241-0.767,0.554-1.152,0.877       c1.066-0.637-0.663,0.8,0.328,0.261c0.091,0.233-0.627,1.116-1.092,1.296c-0.091-0.144,0.21-0.37,0.431-0.581       c-0.03-0.404-0.685,0.392-1.018,0.302c-0.552,1.113-2.992,3.862-1.758,3.528c0.364-0.198,0.455-0.552,0.714-0.884       c-0.9,0.778-0.288-0.241-0.312-0.404c0.427-0.3,0.852-1.103,0.903-0.781l-0.347,0.778c1.765-1.87,4.435-4.134,6.831-5.863       c0,0-0.281,0.154-0.545,0.335c-0.258,0.189-0.516,0.377-0.516,0.377c0.012-0.241,0.475-0.639,0.84-0.943       c0,0-0.804-0.062-0.796-0.046c0.325-0.192,0.606-0.419,0.668-0.268c0.283-0.404,0.042-0.398-0.284-0.389       c0.799-0.581,1.028-0.507,1.521-1.165c-0.8,0.261-1.059,0.512-1.335,0.78c-0.273,0.276-0.589,0.527-1.428,0.971L28.501,20.47z"></path><polygon points="31.327,18.304 31.114,18.712 31.564,18.301      "></polygon><path d="M31.333,19.51c-0.069-0.079,0.107-0.24,0.038-0.318C30.699,19.52,30.852,19.594,31.333,19.51z"></path><path d="M23.658,24.314l-0.599,0.78l0.494-0.408C23.466,24.627,23.595,24.42,23.658,24.314z"></path><path d="M20.355,30.326c0.704-1.104,0.903-1.676,1.972-2.728c0.202-0.782-0.652-0.086-0.68-0.515       c-0.506,0.562-0.042,0.81-0.422,1.485c-0.38,0.079-0.646,0.931-1.106,1.503C20.256,30.055,20.359,30.125,20.355,30.326z"></path><path d="M17.212,33.808c-0.272,0.556-0.354,1.202-0.682,1.589c-0.123-0.128-0.018-0.488,0.184-0.805       c-0.441,0.058-0.254,0.636-0.756,1.152c0.052-0.043,0.218-0.239,0.213-0.037c-0.658,1.537-0.034,0.99-0.977,2.942       c-0.012,0.325-0.112,0.614,0.148,0.641c-0.607,1.088-0.451,0.49-1.088,1.854c0.156-0.023,0.602-0.405,0.901-0.315       c-0.468,0.94-0.588,1.459-0.663,1.884c-0.037,0.435-0.045,0.775-0.307,1.399c0.007-0.148-0.047-0.339,0.049-0.682       c-0.458,0.094-0.089,1.112-0.285,1.819l-0.36-0.118c-0.015,0.343-0.035,0.811-0.038,1.3c0.01,0.491-0.023,0.997-0.181,1.419       l-0.177-0.207c0.115,0.886,0.05,1.831,0.102,2.745c0.066,0.913,0.113,1.796,0.221,2.534l-0.19,0.819       c0.295,1.004,0.241,0.492,0.238-0.087c0.037-0.585,0.106-1.23,0.422-0.511c-0.702,0.29,0.313,1.019,0.226,2.184       c-0.189,0.581-0.318-1.137-0.537-0.497c0.389,0.208,0.194,0.599,0.388,1.198c-0.349-0.078,0.152,1.288-0.276,0.981       c0,0,0.059,0.128,0.147,0.321c0.091,0.191,0.247,0.438,0.386,0.686c0.285,0.49,0.571,0.98,0.571,0.98       c-0.097,0.384,0.092,0.988,0.253,1.421c-0.286-1.129,0.555,0.167,0.381-1.129c-0.302-0.888-0.741-2.081-0.913-3.393       c-0.112-0.65-0.217-1.318-0.305-1.969c-0.073-0.653-0.042-1.298-0.039-1.887c-0.471-0.235-0.072-1.513-0.465-1.882       c0.139-0.056,0.263-0.236,0.417-0.291c-0.02-1.516-0.269,0.353-0.417-0.015c-0.026-0.675,0.276-1.206,0.439-1.136       c0.079-1.085-0.119-0.128-0.337-0.697l0.538-0.678c-0.034-0.85,0.075-1.757,0.173-2.711c0.099-0.954,0.166-1.961,0.429-2.946       c0.114-0.497,0.229-0.997,0.344-1.497c0.116-0.501,0.235-1.002,0.433-1.474c0.361-0.956,0.726-1.899,1.142-2.772l-0.399,0.148       c0.427-0.775,0.612-1.499,0.816-2.201c0.214-0.694,0.45-1.367,1.176-1.856l0.047-0.596c-0.022,0.33,0.563-0.019,0.508,0.485       c0.156-0.463,0.521-0.833,0.694-1.306l-0.583,0.671c0.093-0.668,0.59-1.168,0.889-1.211c0.236-0.629,0.017-0.548-0.317-0.291       c-0.314,0.268-0.732,0.719-0.922,0.777c-0.461,1.904-1.532,1.308-2.093,3.089C16.454,34.743,17.093,33.669,17.212,33.808z"></path><path d="M19.045,32.189c0.039-0.111,0.058-0.2,0.066-0.27C19.08,32.007,19.058,32.094,19.045,32.189z"></path><path d="M15.144,60.417c0.039,0.132,0.07,0.296,0.158,0.498C15.439,61.057,15.277,60.812,15.144,60.417z"></path><path d="M20.119,30.072c0,0-0.002-0.001-0.007,0c0.002,0.005-0.002,0.014-0.002,0.014       C20.113,30.082,20.119,30.072,20.119,30.072z"></path><polygon points="19.999,28.915 19.693,29.308 19.863,29.32      "></polygon><path d="M16.661,65.469l0.152-0.064C16.746,65.383,16.69,65.388,16.661,65.469z"></path><path d="M24.984,77.05l-0.223-0.214C24.815,76.918,24.9,76.99,24.984,77.05z"></path><path d="M56.883,85.872c0.9-0.236,2.06-0.709,2.648-1.114l-0.02,0.177c0.467-0.191,1.908-0.868,0.842-0.878l-0.197,0.2       c-1.052,0.523-0.886-0.056-1.775,0.062c-0.512,0.168-0.882,0.456-1.254,0.689c-0.377,0.206-0.751,0.384-1.241,0.384       c-0.418,0.081-0.377-0.094-0.275-0.235c-0.954,0.099-1.266,0.633-1.928,0.794c-0.198-0.616-0.92-0.496-1.799-0.309       c-0.875,0.174-1.923,0.479-2.628,0.001c-0.907,0.04-2.103-0.079-3.278,0.038c0.642-0.219-1.074-0.191-0.778-0.503       c-0.207,0.337-1.02,0.131-1.813-0.048c-0.801-0.142-1.544-0.456-1.758-0.012c-1.463-0.641-0.082,0.042-1.785-0.618       c0.031-0.098,0.327-0.022,0.448-0.01c-0.642-0.352-1.187,0.104-1.612-0.516c-1.338-0.562-0.311,0.151-1.205,0.086       c-1.394-0.634-0.958-0.575-1.575-1.249c-0.294,0.343-1.024-0.243-1.789-0.36c0.155,0.098,1.055,0.627,0.371,0.482       c-0.788-0.418-1.14-0.509-1.494-0.573c-0.36-0.053-0.7-0.114-1.446-0.505c-0.483-0.858,1.436,0.854,0.368-0.239       c0.991,0.385,1.737,0.675,2.383,0.622c-1.279-0.569-2.732-1.431-4.157-2.052c-0.69-0.495,0.498,0.036-0.05-0.347       c-1.095-1.044-2.156-0.987-3.007-1.88l0.359-0.042c-0.417-0.072-0.877-0.57-1.416-1.093c-0.524-0.541-1.126-1.113-1.674-1.556       c0.03,0.218,0.052,0.368-0.134,0.287c0.469-0.416-1.566-1.234-2.171-2.566c-0.237,0.343-1.233-0.614-1.79-1.291       c-0.096-0.309,0.078-0.353,0.166-0.412c0.66,1.271,1.158,0.844,1.968,1.591c-0.724-0.595-1.448-1.941-2.166-2.413l0.443,0.073       c-0.373-0.512-0.651-0.658-0.92-0.825c-0.269-0.165-0.52-0.36-0.741-1.01l0.263-0.007c-0.343-0.574-0.724-1.162-1.019-1.802       c-0.283-0.645-0.568-1.296-0.847-1.931c-0.147-0.313-0.292-0.623-0.434-0.926c-0.126-0.31-0.249-0.614-0.369-0.909       c-0.251-0.585-0.522-1.122-0.829-1.586c-0.245-0.122-0.285,1.052-0.401,1.163c0.302,0.589,0.595,1.028,0.873,1.425       c0.298,0.389,0.615,0.722,0.897,1.133l-0.328,0.142c0.322,0.103,0.964,1.101,0.853,0.427c0.509,0.633-0.022,0.686,0.563,1.418       c-0.363,0.117-0.638-0.367-0.919-0.233c0,0,0.511,0.648,0.531,0.636c-0.258-0.147,0.145,0.482-0.112,0.34       c1.191,1.045,0.903,1.927,1.978,3.1c0,0-0.117-0.184-0.234-0.368c-0.118-0.183-0.208-0.384-0.208-0.384       c0.169-0.103,0.42,0.326,0.705,0.581c0.014,0.508,0.197,0.687,0.578,1.409c0.563,0.443,1.03,0.558,1.653,1.237       c-0.436,0.108,0.872,1.28,0.747,1.637c0.413-0.114,1.322,1.238,1.608,1.133c0.424,0.276,0.898,0.764,0.751,0.916       c-0.062-0.042-0.196-0.11-0.324-0.203l0.361,0.346c-0.066,0.002-0.076,0.038-0.123,0.005c0.325,0.308,0.516,0.095,0.811,0.626       c-0.072,0.075-0.299-0.134-0.514-0.273c0.819,0.886,1.966,0.87,2.528,1.739c0.266-0.032,1.364,0.767,1.366,0.245       c0.208,0.335-0.104,0.558,0.78,1.018c0.671-0.004,0.878,0.685,1.635,0.879c-1.045-0.2-0.052,0.09-0.988-0.065       c0.52,0.467,1.586,0.643,2.633,1.169c0.068,0.126,0.019,0.219,0.092,0.348c0.456,0.082,1.028,0.037,1.289,0.488l0.056-0.252       c0.656,0.505,1.742,0.783,2.457,1.341l1.1-0.104c0.54,0.5,1.317,0.683,2.071,0.774c0.757,0.087,1.499,0.049,2.051-0.032       c0.469,0.123,1.181,0.298,1.157,0.408c-0.118,0.018-0.32,0.061-0.557,0.09c0.708,0.126,1.548,0.529,2.001,0.198       c0.746-0.009,0.504,0.353,1.047,0.5c1.528-0.474,4.439,0.663,4.888-0.305c-0.306,0.007-0.749,0.006-1.258-0.034       c-0.51-0.064-1.085-0.127-1.665-0.138c0.312-0.087,0.082-0.265,0.506-0.263c0.576,0.003,1.01,0.117,1.448,0.164       c0.437,0.034,0.878,0.055,1.453-0.045l-0.117,0.548c0.509,0.112,1.007,0.11,1.485,0.055c0.48-0.045,0.938-0.165,1.374-0.327       C55.229,85.861,56.032,85.609,56.883,85.872z"></path><path d="M41.948,85.608c0,0,0.766,0.493,0.773,0.467l-0.044-0.243C42.412,85.814,42.152,85.74,41.948,85.608z"></path><path d="M42.677,85.833c0.178,0.002,0.354-0.012,0.512-0.033c-0.183-0.033-0.362-0.05-0.521-0.028L42.677,85.833z"></path><path d="M60.154,84.987c0.185-0.035,0.564-0.056,0.892-0.248C60.802,84.779,60.311,84.851,60.154,84.987z"></path><path d="M61.056,84.557c0,0-0.426,0.063-0.43,0.052l-0.042,0.075c0,0,0.121-0.021,0.239-0.054       C60.94,84.594,61.056,84.557,61.056,84.557z"></path><path d="M79.972,69.572l0.415-1.319c0.264-0.113,0.873-1.502,0.87-0.944c0.056-0.874,1.101-2.271,0.329-1.939       c-0.195,0.443-0.399,0.907-0.611,1.388c-0.267,0.452-0.544,0.92-0.828,1.4c-0.289,0.477-0.586,0.966-0.887,1.462       c-0.335,0.474-0.7,0.939-1.052,1.418c-0.355,0.478-0.712,0.959-1.07,1.441c-0.393,0.454-0.786,0.907-1.177,1.358       c-0.394,0.448-0.744,0.933-1.146,1.358c-0.405,0.421-0.798,0.845-1.173,1.272l0.385-0.654c-1.416,1.964-2.735,1.666-3.71,3.523       l-0.061-0.526c-0.452,0.283-0.792,0.687-1.177,1.052c-0.379,0.371-0.795,0.713-1.396,0.796l0.191,0.102       c-0.256,0.155-0.398,0.144-0.657,0.299l0.143,0.011c-0.579,0.581-1.059,0.717-1.806,0.957c-0.113-0.107,0.3-0.214,0.499-0.353       c-0.386,0.021-0.798,0.564-1.345,0.825c-0.481,0.091-0.08-0.193-0.048-0.277c-0.759,0.511-1.414,0.653-1.971,0.844       c-0.559,0.194-1.029,0.419-1.527,0.965c-0.081,0.163,0.52,0.057-0.09,0.343c1.205-0.218,2.055-0.798,3.002-1.364       c0.003,0.007-0.283,0.114-0.283,0.114c0.535-0.951,0.661-0.141,1.807-1.002c-0.215,0.402-0.767,0.666-0.931,0.905       c1.685-0.277,1.947-1.306,3.176-1.297l-0.096,0.08c0.239-0.072,0.55-0.405,0.834-0.648c-0.146-0.01-0.478,0.141-0.717,0.212       c0.286-0.245,0.299-0.594,0.342-0.765c0.504,0.036,0.391-0.405,1.03-0.621c0.347,0.106-0.337,0.495-0.472,0.748l0.581-0.57       c0.606-0.396,0.785-0.109,1.156-0.212c0.376-0.54-0.373,0.096-0.138-0.442c0.406-0.094,1.271-0.665,2.171-1.356       c0.895-0.697,1.705-1.652,2.214-2.262c-0.38,0.397,0.057,0.34-0.469,0.758c0.222-0.119,0.758-0.796,0.617-0.949       c0.685-0.864,1.644-1.846,2.5-2.465l-0.358,0.082c0.347-0.818,1.539-1.538,2.306-2.865l-0.023,0.024       c0.272-0.409,0.061-1.047,0.603-1.745C80.005,69.079,79.737,69.478,79.972,69.572z"></path><path d="M82.099,64.698l0.052,0.562c0.294-0.461,0.244-1.216,0.022-1.187c-0.098,0.345-0.42,0.718-0.297,0.848       C81.941,64.882,82.032,64.93,82.099,64.698z"></path><path d="M84.872,55.118c-0.036-0.202-0.152-0.169-0.22-0.261c-0.178,2.102-0.828,4.636-1.231,5.386       c-0.295,0.648,0.054,0.893-0.154,1.777l-0.414,0.28c0.012,0.523-0.803,1.783-0.172,1.484c0.059-0.04-0.064-0.487,0.158-0.845       l0.131,0.124l0.276-0.922l0.09,0.36c0.711-1.146-0.224-1.056,0.412-2.522l0.398,0.131c0.293-1.046,0.288-1.603,0.773-2.472       c0,0-0.201-0.052-0.164,0.142c-0.068,0.172-0.289,0.361-0.379,0.211c0.085-1.639,0.181,0.296,0.631-0.768       c-0.076-1.446,0.136-4.046,0.418-4.801c-0.284,0.63-0.503-0.353-0.44-1.113c0.165-0.345,0.235,0.254,0.354,0.384       c0.063-0.356,0.183-0.647,0.139-1.013c-0.254,0.466-0.551,0.146-0.65-0.68c-0.177,0.906-0.091,1.714,0.021,2.543       c0.047,0.413,0.14,0.833,0.137,1.258C84.982,54.227,84.954,54.664,84.872,55.118z"></path><path d="M84.606,54.531c-0.015,0.188,0.009,0.275,0.047,0.326c0.034-0.246,0.069-0.493,0.101-0.722L84.606,54.531z"></path></g></g></g></g></g></svg>