<svg fill="#00DCFF" xmlns="http://www.w3.org/2000/svg" xmlns:xlink="http://www.w3.org/1999/xlink" version="1.1" x="0px" y="0px" viewBox="0 0 100 100" enable-background="new 0 0 100 100" xml:space="preserve"><g><g><g><g><g><path d="M88.588,49.717c-0.02,0.357,0.393,0.229,0.471,0.283C88.938,49.396,88.48,49.734,88.588,49.717z"></path><polygon points="87.128,43.991 87.312,44.065 86.77,43.296      "></polygon><path d="M85.941,38.738c-0.544,0.692,0.602,1.853,0.599,2.852l-0.12,0.189l0.669,0.297       C86.704,40.948,85.968,39.584,85.941,38.738z"></path><path d="M86.387,35.464c-0.194,0.276-0.444-0.518,0.16,0.686c0.005-0.074,0.015-0.099,0.022-0.144       C86.524,35.894,86.467,35.738,86.387,35.464z"></path><path d="M86.569,36.006C86.792,36.555,86.653,35.56,86.569,36.006L86.569,36.006z"></path><path d="M85.362,33.563l0.562,0.599c0.08-0.213-0.188-0.859,0.032-0.675C85.483,32.817,85.41,33.042,85.362,33.563z"></path><path d="M84.575,33.13l0.267,0.312C84.874,33.349,84.849,33.243,84.575,33.13z"></path><path d="M85.409,34.111l-0.567-0.669c-0.055,0.15-0.261,0.257,0.24,0.315C84.86,33.784,85.117,33.847,85.409,34.111z"></path><path d="M85.516,34.587c0.055,0.448,0.144,1.004-0.366,0.392C85.755,36.298,86.178,35.909,85.516,34.587z"></path><path d="M85.144,38.705c0,0-0.003,0.145-0.006,0.29c-0.004,0.145-0.026,0.294-0.026,0.294l0.349,0.391       C85.302,39.48,85.365,38.599,85.144,38.705z"></path><path d="M83.373,29.128c-0.154,0.04-0.207,0.438-0.343,0.589l0.445,0.397C83.412,29.81,83.203,29.282,83.373,29.128z"></path><path d="M83.029,29.717l-0.662-0.586C82.734,29.792,82.911,29.845,83.029,29.717z"></path><polygon points="83.805,33.357 84.894,34.358 83.684,33.124      "></polygon><polygon points="81.519,26.4 82.096,26.585 81.146,26.202      "></polygon><path d="M80.132,24.707c0.468,0.084,0.041-0.689,0.437-0.518c-0.445-0.415-0.979-0.632-1.453-0.818       C79.536,23.646,79.865,24.057,80.132,24.707z"></path><path d="M78.361,23.027c0.213,0.13,0.473,0.23,0.755,0.344C78.893,23.225,78.65,23.103,78.361,23.027z"></path><path d="M81.629,27.892c0.036-0.105,0.157-0.344-0.048-0.789l-0.147,0.518C81.494,27.703,81.561,27.797,81.629,27.892z"></path><path d="M81.431,27.638l0.004-0.017c-0.207-0.297-0.35-0.503-0.411-0.591C81.075,27.106,81.198,27.289,81.431,27.638z"></path><path d="M81.678,27.96c-0.018-0.025-0.031-0.044-0.049-0.068C81.614,27.942,81.614,27.965,81.678,27.96z"></path><path d="M83.14,31.244c-0.464-0.306-1.204-1.031-1.013-0.014C82.56,31.379,82.446,30.792,83.14,31.244z"></path><path d="M81.484,28.593c0.021-0.014,0.391,0.803,0.391,0.803c0.086-0.076,0.14-0.303,0.367-0.159       C82.242,29.237,81.505,28.576,81.484,28.593z"></path><polygon points="81.112,28.322 81.484,28.593 81.317,28.309      "></polygon><path d="M79.112,24.448c-0.402-0.166-0.698-0.469-1.043-0.803c0.285,0.437,0.606,0.86,0.945,1.231       C79.163,24.84,79.496,24.849,79.112,24.448z"></path><path d="M80.257,25.988c-0.023-0.017-0.05-0.038-0.071-0.054C80.19,25.999,80.206,26.04,80.257,25.988z"></path><polygon points="74.659,20.388 74.665,20.499 74.726,20.454      "></polygon><path d="M79.011,24.992c0.195,0.338,0.428,0.44,0.677,0.52c-0.226-0.187-0.452-0.395-0.674-0.636       C78.947,24.892,78.912,24.914,79.011,24.992z"></path><path d="M77.296,22.205c0.097,0.2,0.202,0.416,0.311,0.641C77.579,22.598,77.43,22.171,77.296,22.205z"></path><path d="M80.2,25.755l0.05,0.035C80.244,25.631,80.219,25.671,80.2,25.755z"></path><path d="M80.2,25.755c-0.169-0.121-0.343-0.18-0.512-0.244c0.169,0.164,0.335,0.311,0.498,0.423       C80.181,25.877,80.188,25.809,80.2,25.755z"></path><path d="M71.849,21.687c0.274-0.263,1.326-0.026,1.637,0.884c0.792,0.319,1.274-1.004,1.179-2.072       c-0.136,0.123-0.216,0.21-1.067-0.124c0.143,0.321,1.138,1.634,0.367,1.419c-0.968-0.6-0.632-0.684-0.932-1.199       c0.065,0.664-1.589-0.292-1.817,0.443l0.927,0.374C72.087,21.511,71.699,21.445,71.849,21.687z"></path><path d="M75.888,21.662l0.303,0.209c-0.261-0.33-0.373-0.647-0.58-1.253c-0.583-0.266-0.769-0.237-0.885-0.165l1.295,1.249       L75.888,21.662z"></path><path d="M77.385,22.99c-0.485,0.075-1.27-0.346-1.201,0.334c0.767,0.702,0.76,0.273,1.329,0.599       c-1.226-1.186,0.505,0.198-0.155-0.888c0.281,0.199,0.503,0.409,0.711,0.61c-0.172-0.266-0.328-0.533-0.463-0.799       c0.003,0.019,0.005,0.032,0.008,0.048L77.62,22.9l-0.005,0.003c0.012,0.093,0.005,0.134-0.03,0.051       c-0.007-0.001-0.023-0.015-0.031-0.021c-0.05,0.033-0.109,0.046-0.168,0.056c-0.274-0.432,0.026-0.137,0.168-0.056       c0.02-0.011,0.043-0.015,0.061-0.03l-0.001-0.008c0.031-0.036-1.423-1.023-1.423-1.023       C76.414,22.169,76.784,22.443,77.385,22.99z"></path><path d="M80.875,30.953c0.006-0.063,0.033-0.078,0.058-0.097C80.832,30.793,80.781,30.778,80.875,30.953z"></path><path d="M80.744,30.238c0.113,0.07,0.31,0.063,0.475,0.42c0.066,0.357-0.176,0.107-0.287,0.197       c0.217,0.137,0.691,0.542,0.486-0.2l-0.111-0.069c-0.218-0.645-0.224-1.687-0.115-1.62       C80.974,29.352,80.835,29.655,80.744,30.238z"></path><path d="M79.167,26.597c0,0-0.237-0.259-0.516-0.481c-0.275-0.224-0.549-0.448-0.549-0.448l0.19,0.764l0.148-0.17       C78.878,26.922,78.966,26.632,79.167,26.597z"></path><path d="M74.673,20.112l0.435-0.221c0.011-0.019-1.066-0.022-1.066-0.022L74.673,20.112z"></path><polygon points="73.134,19.022 73.427,18.748 72.884,18.64      "></polygon><path d="M20.952,67.197l0.289,0.259C21.12,67.325,21.029,67.248,20.952,67.197z"></path><path d="M19.699,64.82l-0.204,0.026C19.646,64.912,19.739,64.922,19.699,64.82z"></path><path d="M29.678,17.157c-0.722,0.006-1.643-0.101-1.332,0.23l0.403,0.262C29.077,17.358,29.388,17.224,29.678,17.157z"></path><path d="M14.64,42.905c0.05-0.045,0.102-0.093,0.154-0.141c-0.111-0.166-0.214-0.322-0.309-0.464       C14.534,42.483,14.563,42.685,14.64,42.905z"></path><path d="M16.342,43.639l-0.385,0.67C16.079,44.163,16.206,43.948,16.342,43.639z"></path><path d="M31.16,77.485c0,0,0.147-0.027,0.295-0.054c0.151-0.035,0.302-0.07,0.302-0.07       C31.209,76.994,31.329,77.332,31.16,77.485z"></path><path d="M55.48,11.889c-0.503-0.248-0.919-0.383-1.287-0.459C54.807,11.774,55.262,12.221,55.48,11.889z"></path><path d="M16.369,68.517c0.203,0.183,0.336,0.234,0.417,0.18C16.584,68.507,16.433,68.418,16.369,68.517z"></path><path d="M52.648,11.328c0.091,0.048,0.182,0.075,0.275,0.116c0.395-0.043,0.798-0.111,1.269-0.014       C53.741,11.178,53.193,11.065,52.648,11.328z"></path><path d="M77.934,68.842c0.037-0.022,0.068-0.057,0.106-0.074C77.996,68.725,77.967,68.77,77.934,68.842z"></path><path d="M87.694,55.068c0.002,0.174-0.04,0.452-0.075,0.715C87.669,55.66,87.699,55.444,87.694,55.068z"></path><path d="M66.747,14.937C67.121,15.086,66.825,14.922,66.747,14.937L66.747,14.937z"></path><path d="M67.687,17.296c-0.096,0.007-0.182,0.035-0.238,0.119C67.527,17.337,67.607,17.302,67.687,17.296z"></path><path d="M48.759,13.961c-0.011,0-0.02,0-0.032,0C48.84,14.04,48.821,14.025,48.759,13.961z"></path><path d="M67.203,15.376c-0.111-0.113-0.248-0.228-0.404-0.338C66.859,15.104,66.981,15.21,67.203,15.376z"></path><path d="M67.222,15.157c0.118,0.075,0.209,0.134,0.297,0.19C67.597,15.305,67.577,15.245,67.222,15.157z"></path><path d="M66.233,14.716c0.21,0.093,0.394,0.204,0.566,0.322c-0.058-0.061-0.078-0.097-0.052-0.101       C66.639,14.891,66.486,14.825,66.233,14.716z"></path><path d="M54.572,84.517c0.025,0.01,0.054,0.014,0.082,0.029C54.988,84.313,54.834,84.365,54.572,84.517z"></path><path d="M24.994,26.796c0.008-0.015,0.005-0.029,0.012-0.043c-0.015,0.009-0.033,0.02-0.047,0.028L24.994,26.796z"></path><path d="M24.387,27.944c-0.047-0.749,0.215-0.94,0.573-1.164l-1.209-0.529c0,0,0.156,0.427,0.312,0.854       C24.225,27.525,24.387,27.944,24.387,27.944z"></path><path d="M24.838,72.309l-0.292-0.899c1.193,0.354,1.513,1.037,1.388,0.086c-0.529,0.398-1.169-0.159-1.694-0.809       c-0.525-0.65-1.054-1.296-1.642-0.95l-0.114-0.627c0.088,0.139,0.169,0.115,0.256,0.252c-0.141-1.253-1.298-0.116-1.915-1.483       c-0.178-0.494-0.192-0.895,0.127-0.682l-0.882-0.802c-0.142-0.3,0.101-0.338,0.249-0.046c0,0-0.061-0.09-0.152-0.224       c-0.079-0.141-0.184-0.33-0.289-0.518c-0.211-0.378-0.423-0.755-0.423-0.755l0.041-0.006c-0.297-0.128-0.841-0.497-1.091-0.692       c-0.016-0.482,0.229,0.143,0.333-0.03c0,0-0.735-0.737-0.714-0.749c0.096-0.255,0.289-0.223,0.485-0.053       c0.215,0.163,0.44,0.46,0.561,0.769c0.424-0.682,0.261-0.814-0.02-1.049c-0.253-0.241-0.622-0.596-0.579-1.631l0.466,0.776       c0.523-0.812,0.029-1.356,0.144-2.424c-0.164,0.273-0.456,2.26-1.129,1.411c0-0.311-0.099-0.678-0.536-1.13       c0.46-0.148,0.214-0.638,0.018-1.291l0.63-0.122c-0.358-0.652-0.661-0.519-1.049-0.873c-0.146-0.814,0.292-1.076,0.683-1.345       c-0.091-1.297-0.646,1.043-0.995-0.465c0.039-0.563-0.035-1.019-0.192-1.495c-0.153-0.477-0.422-0.97-0.619-1.62       c0.183-0.79,0.397,0.104,0.566-0.187l-0.543-0.647c0.004-0.169,0.163-0.123,0.243-0.1c-0.227-0.567-0.641-0.011-0.861-0.927       c-0.349-0.115-0.148-0.603,0.111-1.184c0.276-0.585,0.545-1.254,0.174-1.843c0.195-0.268,0.385,0.158,0.636,0.086       c-0.447-1.576-0.348-1.342-0.842-2.7l0.581-1.024c-0.595,0.721-1.003-0.379-1.318-1.405c-0.272,0.248-0.511,0.466-0.632,0.619       c0,0-0.027-0.392-0.053-0.784c-0.019-0.392,0.007-0.779,0.007-0.779c0.148-0.157,0.324,0.043,0.524,0.338       c-0.026-0.111-0.053-0.217-0.081-0.301c0.365-0.472,0.654-0.111,0.909,0.33l-0.519,0.435c0.325,0.443,0.698,0.853,1.078,0.847       c-0.059-0.106-0.094-0.297-0.099-0.501c0.089,0.113,0.173,0.19,0.243,0.16c0.079-0.034-0.058-0.213-0.15-0.474l0.779-0.165       l-0.257-0.137l0.895-1.69c-0.09-0.368-0.207-0.738-0.315-1.118c-0.081-0.372-0.161-0.758-0.219-1.168       c-0.103-0.815-0.165-1.758,0.138-2.837c0.242,0.701,0.735,0.44,1.29,0.714c-0.835,0.288-0.316,1.657-0.822,2.629       c0.263-0.517,0.498-0.299,0.545-0.131l0.112-2.045c0.45,0.233,0.485-0.249,0.914-0.614c-1.085-0.055,0.029-1.593,0.106-2.463       c0.318,0.112,0.541,0.444,0.047,1.282c1.145-0.606-0.481-1.821,0.665-2.425c-0.118,0.21-0.231,0.296-0.131,0.461       c0.033-0.628,0.954-1.687,1.032-1.254l-0.118,0.207c0.231-0.323,0.502-0.741,0.77-1.197c0.286-0.445,0.617-0.897,0.874-1.352       c0.53-0.897,0.85-1.765,0.62-2.117c0.094,0.059,0.646,0.81,0.729,0.997c0,0-0.039-0.256-0.059-0.62       c-0.022-0.375-0.051-0.874-0.08-1.373c-0.047-1.012-0.051-2.071-0.051-2.071c0.361,0.689,2.251,1.193,1.673,2.446       c0.34-0.195,0.692-0.486,1.092-1.198c-0.262,0.09-1.216-0.31-1.005-0.604c1.293-0.076,0.814-0.151,2.159-0.437       c-0.388,0.142-0.84-0.996-0.348-1.394c0.04,0.195,0.774,0.823,0.689,1.062c0,0,0.098-0.469,0.196-0.939       c0.111-0.462,0.255-0.906,0.255-0.906c-0.184,0.39,0.544,0.782,1.007,0.835c-0.26-0.082,1.049-0.758,1.302-1.088l-0.663,0.171       c1.439-0.896,0.494-2.281,2.039-3.169c-0.069,0.313,0.299,1.492,1.103,1.167c0.03-0.34,0.041-1.207,0.266-2.065       c0.222-0.856,0.624-1.783,1.27-2.34l0.418,0.165c0,0,0.243-0.221,0.487-0.442c0.244-0.223,0.509-0.404,0.509-0.404       c-0.215,0.511-0.603,1.474-1.01,2.388c-0.406,0.924-0.824,1.818-1.138,2.374c0.689-0.055,0.341,0.264,1.175-0.173       c0.435,0.134-0.247,0.638-0.483,0.77l2.027-0.754c-0.182-0.285,0.121-0.619,0.439-0.945c0.331-0.292,0.681-0.564,0.538-0.811       c0,0-0.125,0.092-0.314,0.23c-0.191,0.13-0.435,0.323-0.665,0.543c-0.463,0.417-0.926,0.834-0.926,0.834       c-0.189-0.281-0.087-0.86,0.269-1.452c0.342-0.617,0.983-1.153,1.773-1.369c0.478,0.11,0.136,1.225,0.254,1.42       c0.104-0.283,1.25-0.928,1.438-0.823l-0.507,0.569c0.448-0.03,0.706-0.362,1.01-0.66c0.304-0.289,0.672-0.489,1.265-0.317       c0.369-0.05,1.253,0.572,1.217,0.17c-0.736-0.602-1.475-2.863-1.193-3.53c0.074,0.008,0.623,0.056,1.206,0.138       c0.58,0.061,1.219,0.286,1.465,0.424c0.714,0.5-0.663,1.551-0.046,1.979c-0.013-0.184,0.277-0.457,0.403-0.55       c0.409,0.097-0.06,0.585,0.749,0.377c0.036-0.694,1.693-0.201,0.308-0.63c0.795-0.298,0.882-0.04,1.843-0.124       c-0.358-0.423,0.754-1.537,1.625-1.777c-0.044,0.176,0.159,0.392,0.254,0.49c0.437-0.007,0.823,0.005,1.181,0.024       c0.358,0.044,0.688,0.114,1.013,0.171c0.65,0.119,1.28,0.23,2.085,0.273c0.137,0.166,0.885,0.42,0.529,0.685       c0.237-0.09,0.471-0.285,0.961-0.227c0.861,0.728-1.09-0.075-0.461,0.739c0.104-0.384,1.31-0.353,2.048-0.49       c-0.111-0.636-1.602-0.363-2.314-0.223c0.077-0.84,1.417-1.531,3.246-1.645c1.422,0.047,0.481,0.658,0.746,0.579       c1.243,0.395,1.87,0.176,2.448,0.004c0.575-0.174,1.108-0.32,2.047,0.371c0.643,0.807-0.316,1.022-0.261,1.455       c-0.556-0.091-0.924-0.329-1.257-0.548c-0.339-0.199-0.632-0.409-1.003-0.494l0.832,0.477c-0.396,0.083-1.144,0.03-1.495-0.221       c0.567,0.571,4.123,1.298,5.7,2.576c0.384-0.014,1.009,0.079,0.845-0.24l-0.594-0.203c-0.344-0.647,1.323-0.028,0.688-0.559       c0.45,0.047,0.948,0.07,1.46,0.176c0.256,0.053,0.516,0.126,0.771,0.235c0.244,0.13,0.485,0.295,0.716,0.506l-0.112,0.649       c0.07-0.166-0.494-0.729-0.876-0.737c0.577,0.025,1.154,1.669,2.041,1.267l-0.505-0.804c0.883,0.201,2.228,0.164,2.98,1.024       c-0.058-0.794-0.235-0.098-0.48-1.145c0.096,1.089-2.415-1.516-1.965-0.157c-0.277-1.103-0.983-1.063-1.613-2.143       c-0.064,0.194,0.16,0.507-0.639,0.01c-0.065,0.034-0.188,0.058-0.265,0.07c-0.022-0.018-0.031-0.025-0.05-0.041l0.036,0.044       c-0.05,0.01-0.056,0.014,0.014,0.015c0.16,0.177,0.274,0.349,0.288,0.481c-0.627,0.212-1.929-0.431-2.468-0.422       c-0.45-0.323,0.297-0.115,0.117-0.441c0,0-0.202,0.003-0.404,0.006c-0.207,0.019-0.413,0.037-0.413,0.037       c0.11-0.437-1.095-1.198,0.228-0.991l-1.099-0.425c-0.565-0.469-1.44-0.914-2.059-0.909c-0.516-0.235-1.498,0.126-0.934-0.092       l-1.854-0.189l0.009-0.113c-0.868-0.291-1.838-0.203-2.799-0.268c-0.967-0.044-1.929-0.246-2.939-0.663       c-0.621,0.081-1.253,0.188-2.269,0.011l-0.194-0.398c-0.783,0.084-2.39-0.299-2.712,0.104c-0.228-0.25-0.587-0.377-1.02-0.427       c-0.433-0.06-0.937-0.026-1.447,0.094c-1.027,0.205-2.092,0.529-2.803,0.546l0.045,0.506c-0.946,0.142-1.798,0.557-2.887,1.033       l0.19,0.414c-0.879,0.546-2.549,0.474-4.049,1.067c0.038-0.197,0.438-0.297,0.744-0.298c-0.538-0.073-1.035,0.024-1.499,0.207       c-0.453,0.208-0.861,0.529-1.262,0.839c-0.792,0.645-1.556,1.225-2.47,1.357c-0.289,0.366-0.581,0.478-0.898,0.539       c0.034-0.022,0.06-0.048,0.079-0.076c-0.04,0.019-0.097,0.052-0.155,0.087c-0.203,0.033-0.418,0.059-0.639,0.109       c0.213-0.002,0.408-0.016,0.558-0.058c-0.28,0.181-0.683,0.491-1.043,0.842l-0.444-0.293c-0.032,0.025-0.057,0.045-0.091,0.071       c-0.518,0.109-0.207,0.393,0.215,0.56c-0.173,0.186-0.291,0.414-0.367,0.61c-0.763-0.4-0.87,0.976-1.795,0.633       c-0.011,0.261-0.46,0.692-0.861,1.158c-0.368,0.507-0.684,1.05-0.496,1.454c-0.086-0.072-0.226-0.016-0.038-0.197       c-0.461,0.288-0.929,0.583-1.12,1.081L23.6,22.733c0,0-0.075,0.346-0.149,0.693c-0.051,0.36-0.103,0.721-0.103,0.721       c-0.744,0.264-1.113,0.347-0.968-0.512c-0.633,1.78-0.763,1.228-1.176,2.785l-0.263-0.308       c-0.305,0.432-0.382,1.419-0.829,1.471c-1.409,0.437-3.337,4.698-5.146,7.198c0.666-0.029,0.38,0.228,0.06,0.569       c-0.302,0.349-0.67,0.78-0.269,0.999c-0.317,0.064-0.611,0.412-0.663-0.139c-0.266,1.559-1.278,2.073-0.781,3.347       c-0.311,0.098-0.304-0.435-0.502-0.327c0.026,0.14,0.106,0.549-0.094,0.664c-0.198,0.113-0.166-0.284-0.218-0.561       c-0.363,1.591,0.427,1.94,1.175,2.228c-0.281,0.339-0.436,0.611-0.47,0.879c-0.01,0.272,0.094,0.54,0.309,0.866       c-0.297,0.221-0.637,0.635-0.581-0.346c-0.113,0.527-0.905,3.279-0.239,3.398c-0.171,0.155-0.087,0.758-0.02,0.906       c-0.1,1.218-0.163,1.326-0.162,2.527l0.12-0.331c0.726,0.478,0.169,0.987,0.308,1.949l-0.08-0.024       c-0.223,1.114-0.144,1.355-0.075,1.584c0.095,0.23,0.065,0.457-0.063,1.575l0.459-0.174c1.054,0.06-0.318,1.981,0.274,3.185       l0.196-0.503c0.432,0.593-0.914,2.175-0.872,2.93c-0.048,0.175-0.201-0.202-0.319-0.399c-0.116,1.99,0.668,0.078,1.155,1.378       c-0.25,0.345-0.933-0.069-0.709,0.855c-0.05,0.265,0.449,0.832,0.933,1.49c0.504,0.653,0.911,1.427,0.919,2.122       c0.117-0.361,0.239-0.708,0.694-0.213c0.513,0.814,0.237,2.857,1.422,3.231c0.002,0.142-0.033,0.216-0.087,0.252       c0.575,0.541,1.57,1.906,2.172,2.035c-0.511,0.75,0.38,1.573,1.186,2.298c0.788,0.747,1.626,1.299,1.048,1.791l1.614,1.653       l-0.153,0.064c0.95,1.145,1.646,1.181,2.252,1.268c0.18,0.304-0.097,0.245-0.172,0.285c1.36,1.699,1.678,1.72,3.534,2.189       l-0.14,0.515c0.277,0.031,0.773,0.665,1.545,1.286c0.765,0.62,1.694,1.425,2.792,1.612c-0.045,0.041-0.129,0.107-0.314,0.096       c1.218,0.24,2.315,1.235,3.42,1.855c1.102,0.609,2.11,1.016,2.793,0.305c0,0,0.396,0.046,0.808,0.022       c0.406-0.01,0.811-0.02,0.811-0.02c-1.886-0.631,0.501-0.68-0.203-1.17c0.759,0.086,1.782,1.02,0.84,0.874L40.5,85.529       c-0.582,0.811,2.304,0.961,2.133,1.527c3.896,0.714,7.79,1.301,11.571,1.003c0,0-0.126-0.166-0.253-0.331       c-0.125-0.173-0.25-0.345-0.25-0.345c0.002,0.027,1.284-0.139,1.284-0.139c0.357,0.117,0.534,0.498-0.397,0.609       c0.544,0.337,1.504-0.581,1.496-0.74c1.849,0.016-0.564,0.95-0.014,0.883l0.752-0.171l-0.186-0.058       c0.558-0.415,0.565-0.649,1.647-0.908c0.716-0.032,0.454,0.349,0.732,0.307c0.011,0.052,0.109,0.052,0.423-0.086l1.624-0.355       l-0.8-0.389c0.627-0.446,1.487-0.371,0.577-0.793c0.67,0.337,2.13-0.13,3.516-0.627c1.357-0.57,2.575-1.305,2.959-1.301       c0.181-0.204,0.371-0.383,0.573-0.545c0.194-0.177,0.394-0.347,0.609-0.502c0.43-0.312,0.912-0.588,1.452-0.887       c-0.327,0.058-0.819-0.402,0.112-0.876c0.193,0.65,0.711,0.558,1.284,0.25c0.575-0.306,1.247-0.743,1.891-0.623       c-0.506-0.02,0.085-0.512,0.605-0.993c0.519-0.487,0.899-1.034,0.168-0.966c0.726-0.511,0.364,0.347,1.074,0.129       c0.6-0.936,1.592-1.584,2.485-2.453c0.912-0.842,1.992-1.656,2.68-2.811c-0.116-0.139-0.59,0.047-0.461-0.563l1.543-0.596       c0.23-0.489-0.508-0.934,0.483-1.415c-0.194,0.034-0.483,0.081-0.35-0.246c1.741-1.933,2.856-4.384,3.708-6.874       c0.409-1.257,0.897-2.483,1.265-3.753c0.21-0.627,0.446-1.249,0.721-1.867c0.282-0.616,0.482-1.253,0.797-1.876       c-0.446,0.656-0.405,0.174-0.336-0.365c-0.134,0.338-0.428-0.074-0.674-0.042c0,0,0.246-0.516,0.492-1.032       c0.123-0.262,0.246-0.524,0.339-0.72c0.093-0.198,0.132-0.333,0.132-0.333c-0.637-0.456,0.077-2.361-0.545-2.612l0.08,0.691       c-0.701-0.924-1.721,1.173-2.668,0.947c0.2,0.255,0.213,0.537,0.14,0.838c-0.091,0.299-0.297,0.613-0.481,0.943       c-0.374,0.664-0.706,1.371-0.226,2.256c-0.243,0.302-0.259-0.349-0.505-0.209c0.367,0.467,0.305,0.951-0.089,1.763l-0.074-0.12       c-0.276,1.203-0.503,2.061-0.976,2.868c-0.218,0.406-0.442,0.821-0.693,1.287c-0.25,0.463-0.495,0.987-0.878,1.563l0.521,0.009       c-0.316,0.51-0.505,0.559-0.732,0.756c0.353,0.921,0.76-1.481,1.214-0.599c-0.616,0.167-1.072,1.103-1.529,2.01       c-0.474,0.896-1.072,1.694-1.657,1.638c-0.473,0.767,0.604,0.061,0.127,0.835l-0.374,0.045l0.2,0.406       c-0.356,0.485-0.882,0.485-1.087,0.367c0.11-0.097,0.186-0.364,0.26-0.498c-0.743,0.405-1.189,1.783-1.438,1.929l0.661-0.58       c-0.32,0.526-0.661,1.086-1.084,1.598c-0.445,0.495-0.899,1.003-1.353,1.508l-0.667,0.766       c-0.241,0.233-0.476,0.469-0.701,0.709c-0.45,0.48-0.862,0.974-1.209,1.494l0.28,0.047c-1.155,1.516-1.321,0.716-2.808,2.101       l0.029-0.088c-0.184,0.444-0.603,0.805-1.092,1.076c0.295-0.485-1.09,0.067-0.672-0.526c-1.472,1.397-0.633,0.831-1.405,2.198       l-0.451-0.195c-0.256,0.496-0.212,0.671-1.105,1.208c0.624-0.654-0.825-0.229-0.161-1.016       c-0.563,0.046-0.993,0.199-1.351,0.395c-0.365,0.177-0.671,0.368-0.942,0.556c-0.544,0.366-0.988,0.647-1.629,0.252       c-0.593,1.31,1.915-0.096,1.475,0.3c0.559,0.152-0.504,1.001-1.186,1.142c-0.661,0.249-1.52-0.921-3.132-0.47       c0.164-0.037,0.157-0.116,0.32-0.152c-0.672-0.124-1.114,0.712-1.972,0.379c-0.32,0.676-0.999,0.116-1.001,0.916l1.525-0.417       c-0.827,0.334-1.54,1.38-3.084,1.162c0.099-0.176,0.512-0.452,0.794-0.614c-0.455-0.179-0.802,0.307-1.274,0.083       c0.05-0.754,1.871-0.449,2.706-1.173c-0.496-0.264-1.669,0.835-1.324-0.086c-0.257,0.591-0.68,0.621-1.153,0.627       c-0.482-0.037-1.012-0.115-1.561,0.331l0.048-0.477c-0.174,0.083-0.538,0.326-0.873,0.331l0.572-0.645       c-0.899,0.565-1.762-0.333-2.622-0.133c0.908,0.046,1.011,0.184,0.983,0.369c-0.028,0.19-0.194,0.432,0.201,0.584       c-2.324,0.568-1.294-1.286-3.796-1.189c0.339-0.027,1.252,0.351,0.7,0.55c-0.479-0.096-1.089-0.377-1.345-0.676       c-1.658-0.155,0.19,0.523-0.553,0.705c-0.486-0.66-0.852,0.108-1.636,0.176l0.083-0.475c-0.927-0.275-1.084-0.145-1.245,0.092       c-0.153,0.212-0.288,0.419-1.101,0.017l0.876-0.465l-0.92-0.059l0.318-0.485c-1.04,0.128-1.345,0.025-2.19-0.463       c0.105,0.4-0.389,0.788-1.215,0.502c-0.457-0.472,0.466-0.318-0.705-0.672c0.371-0.186,0.776-0.441,1.119,0.157       c0.103-0.13,0.352-0.192,0.454-0.321c-0.471-0.524-1.43-0.603-1.841-0.747c0.15,0.073,0.327,0.165,0.398,0.263       c0,0-0.472,0.003-0.943,0.006c-0.464-0.039-0.927-0.078-0.927-0.078c-0.175-0.286,0.086-0.321,0.338-0.358       c-0.339-0.105-0.654-0.011-1.146-0.202c0.294-0.294,0.445-0.67,1.172-0.524l-1.67-0.32c-0.027-0.193-0.533-0.786-0.274-0.818       c-0.632-0.675-2.3-0.476-3.146-1.412c-0.093,0.025-0.236,0.009-0.475-0.101c-0.432-0.38-0.777-0.815-1.187-1.201       c-0.203-0.195-0.432-0.368-0.683-0.535c-0.241-0.181-0.518-0.339-0.857-0.466l-0.093-1.034       c-0.888-0.59,0.174,1.353-1.323,0.354c-1.093-0.694,0.067-0.739-0.1-1.188c-0.655-0.199-1.936-0.537-2.284-1.765       C24.437,71.792,24.559,72.08,24.838,72.309z M17.953,61.201c0.184,0.209,0.651,0.574,0.448,0.849       C17.785,61.974,17.952,61.663,17.953,61.201z M16.035,41.134c0.105,0.231-0.047,0.503-0.31,0.795       C15.748,41.678,15.836,41.406,16.035,41.134z M62.553,13.635c-0.014,0.003-0.024,0.005-0.037,0.011       C61.968,13.246,62.16,13.396,62.553,13.635z M63.741,14.292c0.15-0.016,0.166-0.082,0.137-0.164       c-0.132,0.081-0.417-0.014-0.727-0.164C63.197,14.115,63.328,14.256,63.741,14.292z M59.118,86.957l-0.28-0.058       C59.368,86.619,59.241,86.781,59.118,86.957z"></path><path d="M16.146,43.549c-0.091,0.058-0.182,0.061-0.274,0.062C15.936,43.727,16.028,43.746,16.146,43.549z"></path><path d="M31.05,77.505l0.028,0.028c0.034-0.011,0.06-0.028,0.081-0.048L31.05,77.505z"></path><path d="M44.092,16.348c-0.255-0.032-0.407-0.097-0.515-0.174C43.585,16.291,43.715,16.373,44.092,16.348z"></path><path d="M70.505,16.74l-0.811-0.346c0.373,0.198,0.447,0.367,0.588,0.543C70.325,16.831,70.267,16.604,70.505,16.74z"></path><path d="M74.506,23.515c0.128,0.036,0.19,0.164,0.317,0.198l0.13-0.185C74.567,23.197,74.186,23.095,74.506,23.515z"></path><path d="M70.326,18.507c-0.173,0.39,0.377,0.498,0.876,0.806c-0.029-0.02-0.058-0.037-0.083-0.062       C71.585,18.884,70.972,18.657,70.326,18.507z"></path><path d="M71.319,19.383c0.155,0.092,0.309,0.194,0.439,0.315C71.946,19.555,71.609,19.527,71.319,19.383z"></path><path d="M65.424,14.671c0.216,0.219,0.372-0.397,0.453-0.175C66.376,14.148,63.889,14.261,65.424,14.671z"></path><polygon points="69.992,19.868 70.094,19.344 69.6,19.516      "></polygon><path d="M66.275,17.323l0.759,0.52c0.027-0.08,0.154-0.073,0.301-0.044C66.835,17.539,66.321,17.181,66.275,17.323z"></path><path d="M67.334,17.799c0.257,0.142,0.493,0.291,0.676,0.3C67.869,18.025,67.575,17.849,67.334,17.799z"></path><polygon points="68.856,19.354 68.682,19.126 68.155,18.763      "></polygon><path d="M57.021,14.056l-1.013-0.01c-0.128,0.154,0.122,0.299,0.498,0.287C56.762,14.25,57.141,14.242,57.021,14.056z"></path><path d="M59.588,16.094c-0.224-0.165-0.212-0.277-0.313-0.473l-0.19,0.592L59.588,16.094z"></path><path d="M56.834,15.56c-0.132,0.154-1.455,0.28-0.26,0.421C56.701,15.815,57.671,15.858,56.834,15.56z"></path><polygon points="42.309,14.945 42.549,14.875 42.303,13.887      "></polygon><path d="M31.702,22.001c1.057-0.354-0.116-0.664,0.89-0.918c0.097-0.341-0.824,0.209-0.708-0.105       C31.448,21.54,31.076,21.597,31.702,22.001z"></path><path d="M31.884,20.978c0.07-0.09,0.142-0.19,0.212-0.309C31.963,20.824,31.91,20.913,31.884,20.978z"></path><polygon points="88.507,52.211 88.76,51.416 88.392,51.92      "></polygon><path d="M87.828,50.658l0.658-0.177L87.922,50C87.942,50.178,87.981,50.525,87.828,50.658z"></path><path d="M18.61,58.975l-0.163-0.008c-0.136,0.149-0.108,0.308-0.055,0.628L18.61,58.975z"></path><polygon points="21.949,67.616 21.877,67.472 21.538,68.044      "></polygon><path d="M27.386,73.187c-0.226-0.217-0.565-0.4-0.756-0.655C27.146,72.979,26.944,73.761,27.386,73.187z"></path></g></g></g></g></g></svg>