<svg fill="#FF7F7F" xmlns="http://www.w3.org/2000/svg" xmlns:xlink="http://www.w3.org/1999/xlink" version="1.1" x="0px" y="0px" viewBox="0 0 100 100" enable-background="new 0 0 100 100" xml:space="preserve"><g><g><g><g><g><g><path d="M88.164,44.046c0.139,0.537-0.098,1.051-0.267,0.865c0.536,1.053,0.125,1.124,0.856,1.195        c0.396,0.694-0.059,1.501-0.396,0.707l0.551,2.047l0.051-1.253c0.624,0.314-0.082,2.001,0.643,2.393l-0.17-2.289l0.207,0.104        c-0.244-0.511-0.204-1.527-0.143-1.891c0.107,0.045,0.263-0.007,0.304,0.4c-0.291-2.776-1.143-0.632-1.666-2.836        C88.169,43.624,88.187,43.799,88.164,44.046z"></path><path d="M89.222,41.467l-0.981-0.772l-0.215-1.619c-0.258,0.051-0.755-1.017-0.777-0.186c0.078,0.137,0.23,0.41,0.268,0.655        c-0.296-0.011-0.496-0.501-0.676-0.911c-0.203-0.404-0.408-0.718-0.599-0.413c0.54,1.127,0.405,1.361,1.062,1.98        c0.217,1.129,0.352,1.954,0.2,2.523c0.136,0.317,0.485,0.301,0.62,0.719c-0.022-0.094-0.041-0.18-0.066-0.288l0.833-0.197        c-0.241-0.331-0.186-0.695-0.302-1.089c0,0,0.099,0.1,0.216,0.258c0.119,0.159,0.279,0.371,0.438,0.583        c0.319,0.434,0.638,0.868,0.638,0.868c0.347-0.372,0.33-1.022,0.251-1.677c-0.111-0.649-0.329-1.292-0.258-1.707        C89.409,41.283,89.342,39.554,89.222,41.467z"></path><path d="M88.124,43.443c0.002,0.012,0.006,0.031,0.009,0.045C88.13,43.474,88.126,43.455,88.124,43.443z"></path><path d="M22.437,69.438c0.22,0.267,0.443,0.23,0.555,0.209c0,0-0.145-0.191-0.362-0.479c-0.108-0.144-0.235-0.312-0.37-0.491        c-0.117-0.192-0.242-0.397-0.367-0.602c-0.502-0.819-1.004-1.637-1.004-1.637c-0.134,0.209,0.211,1.311-0.295,0.737        c-0.038,0.413,0.678,1.185,1.006,1.144l-0.434-0.058c0.813,0.54,0.476,1.517-0.082,1.178l0.047,0.062        c0,0,0.723,0.262,1.446,0.524c0.703,0.238,1.407,0.476,1.407,0.476C23.528,69.728,23.111,70.303,22.437,69.438z"></path><path d="M84.088,55.78c-0.001,0.522,0.07,0.601,0.16,0.558C84.215,56.143,84.17,55.956,84.088,55.78z"></path><path d="M24.627,70.708c-0.016,0.018,0.896,0.223,0.896,0.223C25.22,70.8,24.88,70.742,24.627,70.708z"></path><path d="M14.752,70.443c-0.025,0.012-0.052,0.016-0.072,0.056l0.45,0.223c-0.003-0.006-0.006-0.009-0.006-0.009        C14.993,70.611,14.87,70.523,14.752,70.443z"></path><path d="M39.027,78.722c0.076,0.015,0.14,0.027,0.231,0.045C39.177,78.741,39.101,78.729,39.027,78.722z"></path><path d="M7.22,59.302l1.042,2.037c-0.306-0.224,0.034,0.795-0.354,0.417c0.08,0.155,0.374,0.899,0.437,0.654l-0.13-0.434        c0.977,0.925,1.002,0.195,2.15,1.797c-0.003-0.615-0.134-1.007-0.331-1.311c-0.171-0.312-0.408-0.535-0.64-0.792        c-0.1-0.19-0.165-0.356-0.236-0.522l-1.4-1.528L7.22,59.302z"></path><path d="M74.594,79.725l0.019,0.056C74.615,79.753,74.606,79.737,74.594,79.725z"></path><path d="M74.689,80.009l-0.076-0.228C74.605,79.937,74.342,80.262,74.689,80.009z"></path><path d="M24.109,70.77c0.115-0.063,0.297-0.084,0.518-0.062l-0.645-0.206C24.024,70.572,24.067,70.674,24.109,70.77z"></path><path d="M22.108,70.642l-0.979-1.14l-0.592-0.272C20.927,69.666,21.451,70.127,22.108,70.642z"></path><path d="M37.278,77.539c2.488,1.084-0.942,0.462,0.108,1.189c0.733,0.264,1.161-0.072,1.641-0.005        c-1.085-0.215-0.893-0.485-0.696-0.773c0.2-0.297,0.378-0.556-0.606-0.936c0.286-0.264,0.689-0.249,1.114-0.171        c0.43,0.067,0.862,0.257,1.159,0.468c0.522,0.916-0.827,0.228-1.258,0.785c0.853,0.19,0.754,0.023,1.223-0.21        c1.2,0.685,2.839-0.03,3.372,1.112c0.963,0.115,0.978-0.277,1.575-0.536c0.116-0.351-0.209-0.496-0.589-0.625        c-0.372-0.166-0.796-0.347-0.892-0.666c0.053,0.077,0.157,0.232,0.095,0.322l-0.728-0.347        c0.665,0.434-0.282,0.679-0.703,0.633c-0.295-0.055-0.883-0.17-0.739-0.353c-0.004,0.016,0.479-0.031,0.479-0.031        c-0.489-0.341-1.37,0.074-1.823-0.49c0.027-0.164,0.27-0.158,0.337-0.241c-0.803,0.214-1.45,0.038-2.502-0.132l0.826-0.399        c-1.033,0.361-2.699-0.596-3.52-1.687c0.057,0.178,0.232,0.386,0.029,0.425c-0.741-0.25-0.96-0.955-0.455-1.097        c-0.232,0.028-0.496-0.052-0.741-0.241c-0.242-0.194-0.491-0.455-0.748-0.714c-0.503-0.535-1.095-0.982-1.689-1.05        c0,0-1.428-0.069-2.99-0.232c-1.462-0.24-3.033-0.602-3.033-0.602c0.2,0.082,0.395,0.185,0.561,0.32        c-0.161,0.766,0.081,0.917-0.933,0.692c0.807,0.389,0.971-0.191,1.804,0.692c-0.537-0.138-1.186,0.293-0.388,1.202        c1.359,0.76,2.602,1.216,3.973,1.353c0.65,0.088,1.297,0.175,1.956,0.263c0.639,0.097,1.328,0.122,1.979,0.264        c-0.088,0.233,0.315,0.581,0.837,0.951c0.533,0.348,1.225,0.634,1.635,0.908c-0.556,0.304-1.31,0.143-2.039-0.131        c0.403,0.273,1.165,0.618,1.709,0.917L37.278,77.539z"></path><path d="M30.866,75.612c0.031,0.078,0.077,0.142,0.124,0.207C30.982,75.762,30.947,75.696,30.866,75.612z"></path><path d="M34.715,77.309c-0.017,0.011-0.022,0.025-0.034,0.041l0.227,0.096C34.84,77.398,34.763,77.344,34.715,77.309z"></path><path d="M23.701,72.024c-0.234-0.043-0.353-0.121-0.568-0.184c0.105,0.061,0.216,0.154,0.345,0.225        C23.617,72.119,23.71,72.122,23.701,72.024z"></path><path d="M23.981,71.006l0.213-0.05c-0.028-0.075-0.056-0.122-0.084-0.185C24.013,70.821,23.955,70.896,23.981,71.006z"></path><path d="M46.792,84.626l0.306-0.091C46.918,84.534,46.838,84.573,46.792,84.626z"></path><path d="M39.794,79.449c-0.925-0.289-0.35,0.647-1.665,0.173l0.37,0.182c-1.091,0.018-2.599-0.995-3.704-1.456        c0.247-0.178-0.458-0.673-0.114-0.997c-0.735-0.328-1.466-0.652-2.081-0.479c-0.365-0.36-1.199-0.511-1.609-1.053        c0.061,0.387-1.298,0.181,0.181,0.874c-0.125-0.047-0.096,0.052-0.221,0.007c0.598,0.962,1.352,0.593,2.099,1.051        c0.316,0.507-0.975-0.083-0.602,0.27c0.548,0.18,1.249,0.718,1.888,1.072c0.667,0.302,1.238,0.455,1.426-0.017        c0.751,0.282,0.755,0.533,0.897,0.808c0.774-0.167,1.843,0.267,2.764,0.711c0.914,0.463,1.753,0.669,1.929,0.009        c-0.226-0.038-0.521-0.087-0.844-0.141c-0.316-0.079-0.666-0.138-1.03-0.114L39.794,79.449z"></path><path d="M24.956,73.297c0.039,0.053,0.101,0.114,0.129,0.162C25.046,73.411,24.999,73.352,24.956,73.297z"></path><path d="M21.709,60.588l0.975,0.04c0.421,0.995,0.832,1.613,1.078,2.271c0.135,0.325,0.266,0.642,0.409,0.987        c0.164,0.335,0.383,0.675,0.633,1.077c-0.031,0.187-0.218,0.031-0.314-0.05c0.413,0.533,0.769,1.298,1.264,1.917        c0.493,0.62,0.984,1.185,1.432,1.445c0.208,0.37,0.8,1.336,0.296,1.213c0.202,0.102,0.421,0.226,0.561,0.423        c-0.198,0.265-0.432-0.336-0.642-0.17c0.114,0.156,0.117,0.254,0.223,0.218c-0.432-0.057-0.584,0.99-1.628-0.177        c0.196-0.938,0.787,0.745,1.192-0.069c-0.336-0.374-0.545-0.123-0.653-0.089c-0.409-0.506-0.207-0.645-0.046-0.73        c-0.35-0.038-0.545-0.906-1.067-0.944c-0.809-0.965,0.552-0.314,0.054-0.955c0,0-0.245,0.027-0.491,0.054        c-0.25,0.028-0.487,0.044-0.487,0.044l-0.573-1.263c-0.643-0.769-0.929-0.532-1.247-0.308c-0.298,0.21-0.72,0.461-1.466-0.507        c0.524,0.074,0.777-1.13,0.473-2.16c0.335,0.562,1.265,1.403,1.482,2.213c-0.022-1.304,0.897,1.31,1.236,0.412        c-0.589-0.292-1.169-1.059-1.271-1.825l0.172,0.18c-0.244-0.73-1.313-0.885-1.472-2.006c-0.206-0.497,0.05-0.49,0.265-0.477        C21.829,60.977,21.534,60.654,21.709,60.588z M22.266,61.61c-0.021,0.008,0.226,0.674,0.226,0.674        C22.549,62.074,22.415,61.847,22.266,61.61z"></path><path d="M84.224,29.287c0.029,0.092,0.063,0.196,0.09,0.28C84.315,29.494,84.274,29.392,84.224,29.287z"></path><path d="M14.663,30.501l0.309-0.458C14.835,30.212,14.741,30.362,14.663,30.501z"></path><path d="M20.282,18.738l0.502-0.726C20.54,18.251,20.397,18.489,20.282,18.738z"></path><path d="M80.467,23.967l-0.013-0.024c-0.041-0.024-0.078-0.037-0.119-0.064L80.467,23.967z"></path><path d="M44.055,9.29c0.134,0.052,0.282,0.095,0.478,0.116C44.499,9.326,44.323,9.292,44.055,9.29z"></path><path d="M20.191,18.871c0.021-0.01,0.033-0.016,0.049-0.024l0.042-0.11L20.191,18.871z"></path><path d="M10.074,34.553c-0.018,0.128-0.039,0.242-0.051,0.382C10.069,34.763,10.077,34.651,10.074,34.553z"></path><path d="M12.585,34.69c-0.024,0.128-0.042,0.251-0.041,0.354L12.585,34.69z"></path><path d="M8.092,53.525l0.164,0.759C8.221,53.907,8.161,53.685,8.092,53.525z"></path><path d="M11.383,36.353c0.022,0.054,0.042,0.108,0.069,0.148C11.462,36.395,11.432,36.332,11.383,36.353z"></path><path d="M84.118,34.464c-0.008-0.014-0.016-0.028-0.021-0.037L84,34.453L84.118,34.464z"></path><path d="M85.932,35.539c0.092,0.184,0.188,0.375,0.282,0.563C86.138,35.881,86.035,35.678,85.932,35.539z"></path><path d="M54.839,10.502c0.178,0.15,0.605,0.363,0.378,0.471C55.605,10.852,55.641,10.423,54.839,10.502z"></path><path d="M77.984,34.096c0.149,0.024,0.287,0.081,0.424,0.141C78.184,34.108,77.995,33.995,77.984,34.096z"></path><path d="M78.408,34.236c0.111,0.063,0.228,0.133,0.337,0.185C78.638,34.35,78.523,34.287,78.408,34.236z"></path><path d="M49.939,17.219c-0.04-0.056-0.102-0.1-0.185-0.111C49.779,17.222,49.846,17.243,49.939,17.219z"></path><path d="M86.261,36.625c0.225,0.023,1.586,2.481,0.889,0.263c0.606-0.119,0.834,1.307,1.094,1.881        c0.026-0.485,0.445,0.107,0.626-0.09c-0.16-0.284-0.401-0.601-0.551-1.099c0.19-0.316,0.666,0.369,0.696,1.012        c0.123-0.843,0.728,0.814,0.694-0.322c-0.403-1.112-0.926-1.999-1.405-2.791c-0.494-0.788-1.043-1.449-1.835-1.973        c0.174,0.28,0.354,0.568,0.533,0.856c0.15,0.302,0.295,0.609,0.426,0.915c0.262,0.61,0.465,1.215,0.528,1.759l-0.667-0.241        c0.021-0.641-0.12-1.112-0.308-1.556c-0.18-0.449-0.425-0.865-0.671-1.401c0,0,0.055,0.157,0.137,0.391        c0.092,0.23,0.175,0.554,0.252,0.878c0.16,0.644,0.32,1.289,0.32,1.289c-0.005,1.307-0.386,0.564-0.806-0.294        C86.288,36.325,86.331,36.536,86.261,36.625z"></path><path d="M81.262,36.848l-0.001,0.042c0.029,0.024,0.054,0.057,0.083,0.068L81.262,36.848z"></path><path d="M19.058,52.506l0.213,0.16C19.171,52.527,19.105,52.485,19.058,52.506z"></path><path d="M83.066,34.515l0.001,0.002C83.054,34.505,83.053,34.501,83.066,34.515z"></path><path d="M19.072,48.085c0.014,0.007,0.029,0.014,0.045,0.026C19.101,48.094,19.085,48.093,19.072,48.085z"></path><path d="M7.453,45.748c-0.025,0.009-0.049,0.01-0.076,0.034C7.4,45.915,7.429,45.854,7.453,45.748z"></path><path d="M19.021,48.078c0.016,0.001,0.033-0.001,0.051,0.006C19.054,48.08,19.037,48.072,19.021,48.078z"></path><path d="M25.911,27.382c0,0-0.117-0.011-0.26,0.013C25.659,27.462,25.732,27.47,25.911,27.382z"></path><path d="M22.391,30.405c-0.034,0.012-0.059,0.015-0.1,0.033L22.391,30.405z"></path><path d="M53.78,7.919c-0.284-0.024-0.499-0.022-0.681-0.008C53.306,7.935,53.53,7.946,53.78,7.919z"></path><path d="M19.117,48.111c0.055,0.048,0.112,0.114,0.18,0.221C19.224,48.214,19.167,48.15,19.117,48.111z"></path><path d="M29.53,20.62c-0.03,0.048-0.058,0.094-0.086,0.139l0.087-0.031L29.53,20.62z"></path><path d="M31.888,19.594c-0.042,0.098-0.043,0.173-0.055,0.246c0.326-0.329,0.872-0.66,1.326-0.975        c0.477-0.273,0.857-0.548,0.817-0.849c-0.136,0.074-0.603,0.208-1.03,0.274c-0.418,0.08-0.782,0.122-0.749-0.102        c-0.478,0.459-1.505,0.609-1.756,0.873c1.077-0.284,0.353,0.357-0.141,0.886c-0.645,0.194-0.152-0.452-0.69-0.251        l-1.174,0.953l1.095-0.723l0,0.695c0.027-0.044,0.046-0.074,0.075-0.123C31.286,19.079,30.2,21.063,31.888,19.594z"></path><path d="M31.833,19.84c-0.097,0.1-0.175,0.197-0.222,0.295C31.779,20.023,31.816,19.934,31.833,19.84z"></path><path d="M40.082,17.142c0.099-0.045,0.204-0.098,0.334-0.176C40.352,16.999,40.209,17.075,40.082,17.142z"></path><path d="M20.058,68.261c0.118-0.122-0.23-1.344-0.592-1.114c0.154,0.338,0.309,0.679,0.464,1.022L20.058,68.261z"></path><path d="M63.836,15.898c-0.132-0.062-0.267-0.117-0.407-0.161c-0.037,0.009-0.074,0.021-0.104,0.033        C63.386,15.859,63.684,15.885,63.836,15.898z"></path><path d="M32.442,17.803c-0.173,0.181-0.23,0.295-0.246,0.384C32.312,18.078,32.406,17.956,32.442,17.803z"></path><path d="M63.529,16.868c0.123,0.177,0.301,0.433,0.268,0.605c0.326,0.162,0.647,0.067,1.017,0.157        C64.401,17.519,64.004,17.218,63.529,16.868z"></path><path d="M64.845,17.636l-0.031-0.006C64.824,17.634,64.834,17.634,64.845,17.636z"></path><path d="M20.29,68.993c0.081,0.077,0.163,0.156,0.248,0.236l-0.185-0.086c0.12,0.266,0.215,0.547,0.353,0.802        c0.085,0.068,0.174,0.144,0.27,0.246c-0.046-0.036-0.109-0.045-0.164-0.04l0.126,0.251c0.785,0.298,2.033,1.464,2.542,1.662        c0.577,0.35,1.176,0.848,1.477,1.232c-0.296-0.339-0.765-0.722-0.828-0.427c0.215,0.426,0.265,0.849,0.457,1.264        c0.19,0.415,0.514,0.836,1.346,1.133c0,0-0.176-0.157-0.353-0.314c-0.179-0.155-0.346-0.32-0.346-0.32s0.13,0.058,0.343,0.124        c0.208,0.068,0.486,0.16,0.763,0.251c0.546,0.175,1.091,0.349,1.091,0.349c0.278,0.786-1.083-0.344-1.542-0.297        c0.77,0.382,1.188,1.027,1.568,1.578c0.362,0.569,0.772,0.929,1.317,0.847c-0.214,0.449-0.562,1.206,0.365,1.839        c-0.314-0.93,0.737,0.105,0.56-0.771c0.452,0.005,0.878,0.864,1.147,0.574l-0.198,0.116c1.189,1.615,2.336,0.926,3.189,0.94        c2.042,0.755,2.783,1.528,4.504,2.012c-0.05,0.33,0.113,1.348,0.821,1.571c0.452-0.276,2.103-0.111,2.392-0.608        c-1.165-0.544-1.133,0.201-1.923,0.135c-0.42-0.788,0.119-0.583-0.576-1.216c0.561,0.547,3.075,0.536,3.674,1.295L42.45,83.38        c0.548,0.335,0.827,0.81,1.248,1.159c0.417,0.353,0.99,0.581,2.075,0.318c0,0,0.255-0.049,0.51-0.097        c0.253-0.045,0.509-0.134,0.509-0.134c-0.053,0.054-0.064,0.12-0.094,0.169c1.607,0.139,1.147,0.761,2.962,0.345        c-0.139,0.032-0.053,0.099-0.195,0.13c1.033,0.375,2.063-0.398,2.813-0.544c0.502,0.448-0.079,0.47-0.358,0.826        c1.863,0.177,3.708-1.058,4.67-1.754c0,0,0.074,0.006,0.184,0.016c0.112,0.014,0.258,0.02,0.403,0.013        c0.292-0.004,0.584-0.008,0.584-0.008c-0.605,0.39-1.353,0.988-1.092,1.237c0.626-0.185,0.453-0.392,1.356-0.528        c-0.083,0.331-0.392,0.711-0.746,1.181c1.995,0.023,0.175-1.148,1.699-0.579c0.591-0.146,0.812-0.659,0.773-1.026        c0,0,1.184,0.197,1.179,0.165c-0.025-0.485,1.209-0.967,1.998-1.33c0.023-0.222-0.829-0.225-1.071,0.055        c-0.061-0.367,0.724-0.838,1.27-1.028c0.604,0.867,3.378-1.764,3.278-0.423c0.582-0.331,1.153-0.817,1.771-1.247        c0.602-0.457,1.262-0.855,1.819-1.351c0.56-0.491,1.092-0.965,1.555-1.4c0.227-0.221,0.44-0.429,0.637-0.62        c0.175-0.215,0.327-0.417,0.454-0.601c0.595-0.178,1.478-0.961,1.265-0.149c0.399-0.361,0.707-0.724,0.968-1.081        c0.253-0.366,0.425-0.762,0.621-1.128c0.37-0.754,0.801-1.422,1.552-2.156c0.098-0.032-0.038,0.162-0.17,0.376        c-0.147,0.202-0.283,0.43-0.134,0.508c0.339-0.616,0.734-1.093,1.28-1.587c0.264-0.254,0.547-0.525,0.832-0.852        c0.142-0.163,0.287-0.339,0.425-0.535c0.121-0.207,0.239-0.433,0.351-0.68c-0.173,0.318-0.059,0.52-0.002,0.62        c-0.153-0.058,0.179-0.942,0.332-1.495c0.234-0.223-0.115,0.416,0.081,0.331c1.345-1.624,1.901-3.442,2.401-5.19        c0.188-0.904,0.36-1.802,0.574-2.705c0.184-0.914,0.303-1.866,0.581-2.838c-0.3,1.109,0.214,1.708,0.465,1.794l0.3-1.121        c-0.215-0.511,0.054-1.337-0.113-2.1c0.133-0.064,0.314-0.39,0.41-0.008c0.483-1.076,0.364-2.016,0.127-2.986        c-0.287-0.983-0.612-1.984-0.372-3.344c0,0,0.283,0.842,0.565,1.683c0.282,0.873,0.565,1.745,0.565,1.745l0.495-0.816        c0,0,0.128,0.395,0.256,0.791c0.145,0.4,0.211,0.798,0.211,0.798c0.493-0.888-0.354-1.765,0.16-1.838        c0.128,0.205,0.06,0.675,0.322,0.712c0.237-0.886-0.123-0.982-0.185-1.655c0.987,1.814,0.515,5.399,0.253,7.308        c0.001,0.312-0.17-0.307-0.255-0.379c-0.162,0.766-0.578,1.139-0.656,2.132c0.251,0.71,0.415-0.366,0.579-0.827        c0.337,0.158,0.254,0.392,0.17,0.938c-0.418,0.002-1.111,2.8-1.912,3.234c-0.409,1.381-0.162,1.371,0.167,1.376        c0.302-0.007,0.568-0.04-0.153,1.217l-0.874,0.527c-0.082,0.419-0.183,0.868-0.302,1.331        c-0.149,0.447-0.332,0.901-0.528,1.358c-0.415,0.898-0.828,1.852-1.464,2.566l0.224-0.331        c-0.039-0.347-0.422-0.078-0.637,0.005c-1.046,0.975-1.238,2.454-2.247,2.735c-0.313,0.788-0.85,1.765-1.451,2.751        c-0.639,0.947-1.397,1.846-1.996,2.608c-0.861-0.226,1.428-2.107,1.633-2.985c0,0-0.071,0.078-0.178,0.195        c-0.117,0.107-0.272,0.249-0.427,0.391c-0.311,0.284-0.622,0.569-0.622,0.569c0.764-0.709,0.885-1.177,0.984-1.936        c-1.082,0.961-1.045,1.686-1.945,2.79c-0.051-0.224-0.27-0.192-0.748,0.233l0.177,0.498c-0.033-0.021-0.11-0.002-0.291,0.092        l-1.824,1.738c0.55-0.148,0.824,0.178,1.357-0.214c-0.36-0.086,0.051-0.465,0.579-0.852c-0.263,0.594,0.685-0.171,0.836,0.03        c-1.063,0.801-2.338,1.824-2.967,2.459l-0.491-0.223c-1.134,0.561-2.145,1.467-2.944,1.795l0.114-0.349        c-1.381,0.587-2.615,1.471-3.993,1.628c-1.055,0.919-2.502,1.969-3.438,2.786c-0.209,0.355-1.253,0.439-2.384,0.569        c-1.125,0.18-2.379,0.176-3.085,0.715c-0.111-0.046,0.991-0.594,1.463-0.891c-1.018,0.068-1.723,0.906-2.128,0.348        c2.297-0.142-0.192-0.464,0.796-0.791c-1.044,0.152-2.126,0.488-2.633,0.695c1.72-0.171-0.529,0.956,1.193,0.452        c-0.646,0.389-1.452,0.57-2.299,0.715c-0.848,0.13-1.741,0.189-2.567,0.106c0.017-0.263-0.186-0.395-0.793-0.533l-0.504,0.359        c-0.762-0.107,1.493-0.381-0.04-0.592c-0.799,0.271-2,0.173-3.067,0.011c-1.069-0.182-2.029-0.283-2.483,0.259        c-1.115-0.655,2.361-0.128,0.651-0.982c1.097-0.286,2.457,0.468,2.862-0.164c-1.028,0.115-0.318-0.535-0.958-0.617        L44.4,88.476l0.243,0.06c-1.97,0.346-4.903-0.586-7.226-1.288c-1.069-0.065-2.032-0.022-3.032-0.086        c-0.971-0.128-1.971-0.391-3.113-0.98c0.423,0.007-0.018-0.302-0.338-0.596c-0.317-0.305-0.506-0.597,0.345-0.511        c-0.861-0.831-2.003-1.128-2.171-0.909c0.833,0.612,0.265,0.26,0.944,0.823c-0.662-0.024-1.83-0.751-2.189-1.218        c0.208,0.154,0.158,0.052,0.261-0.003c-0.931-0.824-0.678-0.044-1.487-0.458c0.03-0.534-1.52-1.283-2.029-1.958        c0,0-0.347-0.041-0.663-0.127c-0.325-0.078-0.651-0.157-0.651-0.157c0.762,0.123-0.751-0.886-0.628-1.298        c-0.817-0.362-1.762-0.439-2.548-1.515c0.523,0.249-0.576-1.102-0.27-1.4c-0.296-0.478-0.649-0.837-1.032-1.143        c-0.352-0.332-0.734-0.61-1.113-0.893c-0.744-0.571-1.522-1.144-1.852-2.203c0.119,0.002,0.573,0.208,0.341-0.376        c-0.353-0.347-0.753-1.1-1.061-1.52l0.019,0.008l-0.024-0.017c-0.152-0.205-0.28-0.316-0.373-0.27        c-0.409-0.279-0.775-0.464-1.178-0.76c-0.378-0.311-0.799-0.729-1.351-1.467c-0.373,0.325,0.439,1.653,0.916,2.143        l0.714,0.252c-0.356,0.837,0.95,1.323,0.952,1.8c-0.645-0.228-1.338-1.051-2.042-1.992c-0.65-0.972-1.252-2.089-1.912-2.842        c-0.059,0.667,0.17,1.6,0.553,2.614c0.367,1.022,1.054,2.029,1.656,2.98l-0.265-0.999l0.618,0.996l-0.145-1.235        c0.512,0.972,1.055,1.754,1.643,2.549c-0.712-0.922-0.314-1.714-0.084-1.09c0.327,1.325,1.037,0.899,1.58,1.693        c-0.288-0.459-0.697-1.024-0.202-0.826c0.686,1.86,1.225,2.092,1.948,3.773c0.461-0.7,1.532,1.564,2.188,1.289l-0.492-0.637        c0,0,0.374,0.226,0.747,0.452c0.375,0.221,0.78,0.405,0.78,0.405c0.696,1.535-1.502-0.458-0.05,1.504        c1.603,1.564,2.09,0.896,3.51,1.864c-0.373,0.021-0.9-0.095-1.476-0.328c-0.563-0.249-1.138-0.66-1.662-1.136l0.484,0.751        c-0.514-0.101-1.971-1.456-2.637-2.182c0.764,0.388,0.663,0.215,0.339-0.143c-0.308-0.375-0.825-0.959-0.912-1.376        c-0.437,0.213,0.324,0.941-0.785,0.277c0.808,0.839,0.892,0.989,1.851,2.127c-1.088-1.174-1.809-1.482-2.57-1.716        c-0.371-0.125-0.732-0.247-1.102-0.49c-0.379-0.235-0.75-0.606-1.096-1.251c0.963,0.923,0.246-0.788,0.338-1.045        c-0.413-0.454-1.246-1.388-1.646-1.737l-0.275,0.761c-0.638-0.582-0.673-1.245-0.791-1.872        c-0.114-0.634-0.276-1.251-1.072-1.901c-0.481-0.015,0.759,1.522,0.513,1.263c-1.787-2.032-1.154-3.483-1.691-5.726        c-0.228-0.043-0.649,0.175-1.267-0.452c0.469,0.08,0.433-0.547,1.049,0.173c-0.138-0.77-0.708-1.515-1.096-2.1        c0.333,1.596-0.772-0.416-1.105-0.631c-0.221-0.818,0.47,0.116,0.756,0.557c-0.131-0.673,0.17-1.597-0.535-1.772        c0.4-0.141,1.691,1.4,2.211,2.481l-0.217-0.788c0.397,0.45,0.374,0.566,0.593,1.347c0.031-0.863,0.4-0.917,0.744-0.862        c-0.023,0.118-0.113-0.016-0.137,0.098c0.115,0.64,0.407,1.047,0.562,0.82c0.741,0.297,0.003-0.947,0.139-1.453        c-0.146-0.286-0.292-0.572-0.435-0.852c0,0-0.714-0.623-1.429-1.246c-0.681-0.651-1.322-1.357-1.322-1.357        c-0.552-1.354-0.343-2.084-0.248-3.192l-0.529-0.201c-0.147-1.257-0.165-2.44,0.569-1.739        c-0.156,0.067-0.092,0.224-0.075,0.493c0.071,0.025,0.127,0.078,0.177,0.149c0.032,0.021,0.063,0.03,0.094,0.047        c-0.362-1.285-0.587-2.087-0.609-2.163c1.037,2.129,0.901,0.001,1.822,0.274c0,0-0.038-0.133-0.094-0.332        c-0.06-0.199-0.134-0.465-0.175-0.736c-0.1-0.541-0.2-1.082-0.2-1.082c-0.205,1.351-0.424,0.057-0.566-0.417        c0.494-0.155-0.121-1.781-0.029-2.566l0.098,0.058c0.202-0.717,0.216-1.966,0.131-2.872c-0.158,0.034-0.931-1.195-1.288-1.823        c-0.391,1.562-0.447,0.608-0.783,0.701c0.032-0.165,0.095-0.461,0.034-0.503C7.382,45,7.257,45.537,7.089,45.567        c0.12,1.751,0.106,3.532,0.759,4.226c0.332-0.514-0.256-0.893-0.021-1.472c0.209,0.43,0.279,0.908,0.288,1.457        c0.02,0.549,0.042,1.166,0.067,1.866l-0.387,0.479l0.297,1.403c-0.248-0.574-0.659-0.182-0.817-1.687        c-0.377,0.212,0.163,1.493,0.088,2.423c0,0,0.148,0.104,0.295,0.207c0.152,0.102,0.305,0.203,0.305,0.203        c-0.329-0.151-0.097,1.82-0.714,0.475c0,0-0.049-0.14-0.121-0.349c-0.078-0.209-0.169-0.49-0.232-0.775        c-0.143-0.57-0.286-1.141-0.286-1.141l-0.336,0.676l-0.207-1.977l0.304,0.456c-0.504-3.17,0.96-0.939,0.443-4.104        c-0.585-1.019-0.698-2.133-0.197-4.053c-0.064,1.425,0.439,0.206,0.739,0.779c0.483-1.368,0.02-1.921-0.116-2.711        c0.4-0.298,0.718-0.494,0.472,0.75c0.7,0.286,0.114-1.677,0.927-1.627c0.497-2.009,0.12-2.977-0.093-4.033        C8.405,36.015,8.39,34.86,9.75,32.7l0.198,0.288c0.503-1.507,1.05-2.644,1.601-3.735c0.626-1.052,1.277-2.05,1.947-3.371        c0,0,0.116-0.096,0.29-0.241c0.187-0.134,0.436-0.312,0.685-0.49c0.498-0.347,0.995-0.693,0.995-0.693        c-0.215,0.485-0.546,1.9,0.134,1.605c-1.297,0.425-1.622,1.614-2.612,2.402c0.113,0.205,0.489-0.134,0.704-0.248        c-0.368,0.605-0.875,0.731-1.217,1.621c0.142,0.022,0.853-0.75,0.535-0.048c0,0-0.258,0.22-0.501,0.453        c-0.247,0.233-0.494,0.466-0.494,0.466c-0.543,1.651,0.665,1.256-0.386,2.95c-0.238-0.497-0.475-1.441-0.224-2.197        c-0.488,0.8,0.307-1.232-0.292-0.579c0.015,1.499-0.821,1.831-1.038,3.671c-0.01-0.228-0.107-0.325,0.01-0.752l-1.147,2.351        c0.285-0.244,0.198,0.296,0.12,0.882c-0.066,0.592-0.059,1.249,0.228,1.207c0.213-0.646,0.375-1.075,0.513-1.404        c0.126-0.332,0.202-0.572,0.284-0.822c0.166-0.499,0.358-1.046,1.042-2.432c-0.193,0.87-0.056,2.122,0.257,2.771        c-0.03,0.017-0.061,0.052-0.102,0.136c0.359,0.607,0.657,0.217,1.553,0.542c-0.157-1.462,0.573-2.136,0.934-3.682        c-0.327-0.483-1.042,0.541-1.183,1.341c0,0,0.01-0.09,0.026-0.226c0.013-0.137,0.038-0.317,0.079-0.491        c0.073-0.353,0.145-0.706,0.145-0.706l0.1,0.348c0,0,0.425-0.784,0.851-1.569c0.214-0.39,0.427-0.78,0.587-1.072        c0.152-0.296,0.29-0.473,0.29-0.473c-0.317,0.594-0.116,0.958-0.074,1.368c0.222-0.394,0.514-0.746,0.905-1.067        c-0.487-0.157-0.762-0.381-0.523-0.759c0.641-0.948,1.224-1.63,1.754-2.118c0.538-0.483,1.087-0.731,1.552-0.899        c0.042-0.075,0.088-0.16,0.126-0.228c-0.638,0.004,0.211-1.826,0.255-2.725c0.383,0.362,1.032-0.673,1.674-0.977        c-0.213-0.666-1.14-0.89-2.076-0.593c-0.65,1.546-0.169,1.031-0.019,2.108l-1.067,2.3l-0.062-0.725        c-0.955,0.858-1.018,2.245-1.499,1.825c0.003-0.391,0.178-0.805,0.404-1.183c0.228-0.378,0.456-0.754,0.485-1.144        l-0.689,0.542c0.39-1.559,0.933-0.262,1.664-1.953c-0.814,0.2,0.06-0.158,0.262-0.992c-0.682,0.253-1.8,2.642-2.207,1.666        c0.127-0.503,0.827-0.994,1.491-1.536c0.66-0.549,1.386-1.063,1.462-1.843l0.035,0.115c0.668-0.649,1.019-1.179,1.237-1.646        c0.223-0.462,0.343-0.827,0.487-1.189c0.793-0.328,1.334-1.378,1.968-1.991l0.154,0.217c0,0,0.2-0.239,0.434-0.438        c0.228-0.207,0.456-0.415,0.456-0.415c-0.181,0.709-1.13,0.888-1.866,1.66l0.423,0.279c-1.278,0.389-1.306,1.561-1.632,2.514        c0.646-1.257,2.851-2.462,2.462-3.415c-0.01-0.016,0.967-0.14,0.967-0.14l0.207-0.381c0.732-0.073,0.559,0.746-0.277,1.572        c-0.232,0.042-0.348,0.064-0.368-0.056c-0.269,0.537-0.386,1.155-1.434,1.959l0.344-0.665        c-1.283,1.05-2.134,2.324-2.149,3.058c0.426-0.404,0.849-0.806,1.269-1.205c0.441-0.376,0.879-0.749,1.314-1.119        c0.875-0.732,1.67-1.525,2.567-2.159c-0.167-1.262,0.105-2.242-0.212-3.29c0.289-0.27,0.602-0.57,0.949-0.849        c0.358-0.261,0.736-0.522,1.118-0.762c0.765-0.482,1.55-0.886,2.226-1.07l-0.009,0.241c0.613-0.257,1.155-0.531,1.555-0.871        c0.748-0.062-0.184,0.694,0.318,0.614l1.85-1.271c0.06,0.486-1.605,1.286-2.379,1.702c0.131-0.107,0.397-0.323,0.272-0.332        c-1.054,0.23-2.245,1.962-2.983,1.601c-0.37,0.363,0.616-0.959-0.865-0.096c-1.131,0.376-1.085,1.113-1.06,1.351        c0.116,0.192,1.681-0.667,1.333-0.07c0.72-0.48,0.843-0.954,1.927-1.312c-0.73,0.477-1.433,1.535-2.045,1.429        c-1.141,1.352-0.17,2.253,0.465,1.843c-0.402-0.244,2.295-1.974,0.165-1.274c0.282-0.466,0.814-0.938,1.396-1.409        c0.58-0.475,1.208-0.952,1.737-1.355l-0.007,0.115l1.409-0.82c-0.148,0.225-0.538,0.543-0.435,0.786l1.731-1.613        c-0.481,0.492-0.267,0.482,0.136,0.345c0.408-0.128,1.036-0.324,1.34-0.33c0.075-0.459,0.811-1.044-0.074-0.966        c-1.012,0.061-0.448,0.398-1.251,0.73l0.927-1.024l0.123,0.021l0.529-0.75c1.626-0.552-0.294,1.395,1.587,0.172l-0.49-0.579        c2.485-0.72,5.815-0.654,7.519-1.17c-0.43,0.474-0.527,1.147,0.175,1.43c-0.746,0.018-2.244,0.178-3.251,0.561        c-0.113-0.036,0.162-0.323,0.62-0.618c0.459-0.285,1.117-0.506,1.711-0.528c-0.376-0.526-1.096-0.251-1.736,0.048        c-0.635,0.338-1.203,0.66-1.412,0.104c-1.524,0.177-2.001,0.599-2.413,0.965c-0.408,0.397-0.746,0.754-2.06,0.863        c0.15,0.507-0.588,0.49-0.543,0.969c0.505,0.272,1.275-0.019,2.134-0.413c0.845-0.433,1.851-0.767,2.666-0.845        c-0.144,0.077-0.431,0.232-0.465,0.344c1.151-0.137,1.576-0.366,2.318-0.755l-0.111-0.036        c1.285-0.768,0.936,0.238,1.779,0.332c0.301-0.126,1.445-0.146,1.213-0.501c0,0,0.383,0.069,0.766,0.138        c0.381,0.067,0.758,0.152,0.758,0.152L45.9,9.489c0.839-0.081,1.047,0.297,1.784-0.1l0.006-0.527c0,0-0.532-0.018-1.064-0.036        c-0.267-0.008-0.534-0.016-0.734-0.022c-0.201-0.009-0.333,0.009-0.333,0.009c1.057-0.269,0.248-0.53,1.436-0.714        c-1.29,0.646,0.965,0.24,1.115,0.724l0.859-0.339l-0.219,0.151c0.687,0.253,0.808-0.266,1.609-0.169        c-0.936-0.316-1.583-0.612-2.775-0.191c0.858-0.33,2.624-0.785,3.062-0.728c0.945-0.178,1.588,0.256,2.452,0.362        c-1.677,0.126,0.467,1.618-2.778,1.083c0.061-0.098,0.326-0.063,0.427,0.004c-0.428-0.74-1.969,0.062-2.647,0.355        c0.195,0.378-0.521,0.51,0.712,0.663c-0.418-0.201,1.024-0.983,2.208-0.554l-0.224,0.819l1.676,0.181l-0.159,0.031        c0.59,0.571,1.8-0.049,2.905,0.48c0.431-0.085,1.431,0.052,2.171,0.08c0.742,0.013,1.222-0.001,0.629-0.587        c0.918,0.746,1.95,0.341,3.115,0.525l-1.321-0.691c1.83-0.134,1.24,0.086,2.87-0.429c0.068,0.265,0.304,0.548-0.037,0.679        c1.092,0.429,2.418,0.949,3.631,1.425c1.184,0.539,2.292,0.952,3.075,0.956c0.755,0.362,1.021,0.878,1.406,1.329        c0.38,0.465,0.844,0.919,1.931,1.361c0.239,0.078,0.266-0.132,0.38-0.238c0.114-0.108,0.323-0.114,0.872,0.452        c0.043,0.109-1.535-0.373-0.131,0.587c1.343,0.236,2.107,1.92,3.586,2.6c0.467,0.732,1.588,1.641,1.014,1.8        c-0.883-0.963-2.323-2.132-2.689-2.119c0.338-0.126-0.555-0.788,0.363-0.389c-1.351-1.497-1.218-0.528-2.485-1.797        c-0.212,0.094,0.402,0.995,0.811,1.076c-0.402,0.534-2.969-1.757-2.184-0.181c1.406,1.138,2.77,0.306,3.566,1.897        c-0.738-0.113-1.355-0.964-2.428-0.879l0.866,0.995c0,0,1.07,0.17,1.056,0.192l-0.107,0.04        c1.27,2.028,2.072,0.854,3.817,2.112c-0.496-1.243,1.056-0.63,0.613-1.519c1.067,1.004,1.716,1.877,1.207,2.336        c-2.22-1.59-0.637,0.351-2.793-0.929c0.095,0.455-1.082,0.302-0.184,1.376c1.422,0.829,0.092-0.752,1.33,0.269        c0.018,0.111,0.038,0.226-0.075,0.253c0.761,0.305,0.475,0.715,1.372,1.118l-0.247-0.068c0.383,1.093,1.107,0.651,1.326,1.678        c0.181-0.612,0.716,0.256,1.332,0.55c-0.432-0.879-0.128-1.784-1.4-3.287c-0.467,0.086-0.545,0.335-1.223-0.123l0.876,0.897        c-0.232-0.159-0.449-0.244-0.675-0.374l-0.647-1.026c1.241,0.938,1.098,0.136,1.861,0.353c0.789,1.202,0.818,0.859,1.269,1.65        c-0.521,0.298,0.864,2.764,1.287,4.367c-0.109-0.224-0.288-0.489-0.365-0.644c-0.917-0.782-0.006,0.941-0.127,1.058        l0.688,0.563c-0.117-0.115-0.349-0.23-0.238,0.115c0.687,0.903,1.152,0.578,1.754,1.559c-0.257,0.219-1.113-0.41-0.961,0.298        c-0.147,0.352-0.504,1.354,0.385,2.543c0.17,0.039,0.375,0.364,0.572,0.76c-0.038-0.051-0.076-0.118-0.107-0.135l0.003,1.04        c-0.792-0.565-0.322-1.667-1.219-2.173l-0.512,0.158c-0.275-0.567-0.852-1.235-1.263-1.456c0.33,0.892,0.54,1.007,1.101,1.919        c-0.243,0.268-0.79-0.295-0.868-0.374l0.342,0.013c-0.074-0.659-0.395-1.033-0.765-1.41c-0.354-0.388-0.809-0.752-1.177-1.431        c-0.102-0.21,0.005-0.109,0.119-0.115c-1.089-0.796-1.105-2.259-2.426-2.813l0.463,0.152        c-0.701-0.517-1.997-1.554-3.473-2.325l-0.162,0.129c0.023,0.21-0.362-0.224-0.51-0.512l0.003-0.001        c-0.349-0.201-0.691-0.398-1.013-0.584c-0.337-0.163-0.655-0.317-0.939-0.455c0.055,0.221,0.161,0.462,0.347,0.67        c0.359-0.025,1.13,1.166,1.411,0.644c0.187,0.707,1.262,1.156,1.41,1.66c-0.144-0.445,0.056-0.418,0.33-0.276        c0.264,0.148,0.604,0.408,0.771,0.377c-0.096,0.452,0.811,1.04,0.365,1.224c0.007,0.212-0.011-0.532-0.459-0.664        c-0.891-0.465,0.695,1.569-0.317,0.907c1.19,0.913,1.978,2.655,3.148,3.711l-0.271-0.812c0.337,0.579,1.078,1.981,0.934,2.183        c-0.272-0.417-0.491-0.956-0.883-1.461c-0.439,0.204,0.667,1.357,0.416,1.563l1.592,1.292l-0.328-0.747        c0.569,0.312,0.799,2.08,1.152,3.282c-0.466-0.223-0.631-0.658-0.772-1.189c-0.142-0.528-0.239-1.164-0.683-1.688        c-0.661-0.739-0.383,0.808-0.927,0.08c-0.057,0.277,0.221,0.776,0.496,0.968l-0.003,0.376        c-0.865-0.485-1.546-2.076-2.513-2.845c0.105,0.056,0.207,0.099,0.288,0.092c-0.195-0.89-0.706-1.645-1.286-2.29        c0.059,0.499,0.27,0.575,0.47,0.758c-0.122,0.111-0.6-0.542-0.907-0.702c0.245,0.776-0.25,0.335-0.087,0.814        c-0.407-0.34-0.534-0.74-0.853-1.268c0.011-0.397,0.441,0.018,0.67-0.216c-0.546-0.4-0.096-1.095-0.969-1.637        c0.646,1.093-0.765,0.159-1.18-0.037l0.105,0.18c-0.522-0.083-0.736-0.319-0.662-0.736c0.477,0.256,0.654,0.744,0.878,0.379        c-0.202-0.269-0.444-0.505-0.792-0.707l0.447,0.075l-1.191-1.186c-0.429,0.035-1.069,0.046-1.576,0.235        c-0.038-0.507-0.646-0.665-0.989-0.828l0.223,0.011c-0.341-0.679-1.648-1.615-1.975-1.409        c-0.059-0.127,0.165-0.153,0.492-0.146c0.319,0.017,0.719,0.097,1.051,0.116c0.65,0.057,1.015-0.147-0.511-1.25        c-1.146-0.849-1.3,0.236-2.125,0.035c0,0,0.093-0.054,0.068-0.151c-0.445-0.413-0.689-0.172-1.185-0.306        c0.223,0.305,0.611,0.642,0.83,0.621c-0.189,0.11-0.428-0.081-0.689-0.304c-0.267-0.213-0.585-0.416-0.86-0.403        c0.84-0.219-0.854-0.794-0.294-0.829c-0.411-0.468-0.935-0.814-1.488-0.932c-0.554-0.119-1.085-0.109-1.459-0.036        c-0.391-1.056-1.28-0.547-2.367-1.287c0.178,0.09,0.561,0.104,0.793,0.276c0.89-0.205-1.182-0.703,0.07-0.731        c-0.262-0.013-0.113,0.239,0.154,0.252c0.445,0.08,0.9,0.091,0.891-0.171c0,0-0.194-0.239-0.416-0.42        c-0.218-0.195-0.437-0.39-0.437-0.39l0.409,0.02l-1.384-1.15c-0.076,0.078,0.034,0.25,0.089,0.337        c-0.444-0.223-0.907-0.46-1.404-0.604c-0.5-0.134-1.012-0.249-1.515-0.358c-0.503-0.108-0.998-0.214-1.474-0.316        c-0.484-0.055-0.946-0.118-1.37-0.203c-0.278,0.691-1.314,0.599-2.485,0.613c-1.171,0.049-2.472-0.072-3.137,0.407        c0.352-0.426,0.562-1.131,0.33-1.418c0.307-0.055,0.963-0.575,1.68-0.424c0.107,0.23,0.963,0.527,0.385,0.755        c1.96-0.066-0.22-0.624,0.389-1.115c-1.117,0.031-2.003,0.164-2.765,0.466c-0.763,0.304-1.405,0.624-2.068,0.821l-0.047-0.163        c0,0-0.996,0.342-0.989,0.377c0.416-0.011,0.634,0.228,0.609,0.396c-0.024,0.184-0.286,0.291-0.816,0.252l0.121-0.059        c-0.634-0.236-1.818,0.342-2.746,0.425c-0.007-0.018-0.515,0.599-0.515,0.599c-0.9,0.182-1.151-0.636-1.585-1.051        c-1.503,0.269-2.081,1.322-2.907,2.045c-0.281-0.079-0.974-0.006-1.437,0.103c-0.469,0.09-0.767,0.084-0.322-0.383        c-0.546,0.447-0.539,1.088-0.703,1.612c-0.082,0.262-0.207,0.494-0.467,0.659c-0.13,0.082-0.295,0.148-0.507,0.192        c-0.204,0.06-0.449,0.111-0.757,0.136l0.323-0.62c-0.453,0.301-0.935,0.665-1.417,1.04c-0.48,0.378-0.976,0.744-1.381,1.173        c-0.833,0.823-1.612,1.444-2.091,1.641c-0.208-1.526-2.902,0.822-4.079,0.278c0.282,0.118-0.227,0.825-0.197,1.021        c-0.234,0.037-0.554,0.176-0.583,0.595c0.783-0.484,0.568,1.327,1.307-0.246c0.081,1.236-0.176,2.368-1.21,3.781l-0.407-0.337        l0.967-1.033c-0.403-0.144,0.103-0.673,0.177-1.009c-0.516,0.434-0.797,0.608-0.969,0.643        c-0.181,0.029-0.268-0.094-0.346-0.209c-0.157-0.231-0.278-0.427-1.095,0.724c0.112,0.42,0.104,0.197-0.223,0.857        c0.19-0.282-0.066-0.546-0.406-0.105l0.027,0.662c-0.609,0.179-0.55-0.265-0.367-0.663c0.167-0.405,0.376-0.814-0.133-0.65        c0.324-1.132,1.341-2.851,0.623-2.978c-1.367,1.343-0.029,2.117-1.427,3.467l-0.344,0.017        c-0.191,0.692,0.145,1.032,0.195,1.491c-0.155-0.057-0.347,0.023-0.612,0.367c0.008,0.661-0.089,1.137-0.094,1.644        c-0.008,0.504-0.002,0.997,0.115,1.607c0.163-0.657,0.335-1.106,0.512-1.443c0.196-0.327,0.416-0.533,0.622-0.748        c0.431-0.42,0.817-0.858,1.364-2.134c-0.09,0.462-0.908,2.209-0.347,2.656l-0.444-0.287c-0.257,0.866-0.344,1.779-0.976,2.675        l0.021-0.727c-0.146,0.734-0.596,1.182-0.961,1.645c-0.317,0.479-0.569,0.962-0.353,1.648        c0.183-0.362,0.279-0.674,0.289-0.938c-0.028,0.788-0.416,1.628-0.758,2.369l0.434,1.83c-0.249-0.08-0.528,0.926-0.808,0.345        c-0.173,0.267-0.266,0.514-0.306,0.743c-0.015,0.234,0.019,0.45,0.072,0.651c0.105,0.402,0.285,0.746,0.298,1.091        c-0.738,1.118-0.088-1.07-0.789-1.331c-0.246,0.826-0.387,1.706-0.427,2.495c0.01,0.796,0.178,1.507,0.382,1.993        c0.124-0.34,0.223-0.5,0.35-0.475c-0.168,0.04-0.159,0.721-0.185,1.098l0.328,0.266c-0.267,0.618-0.464,0.539-0.692-0.007        c-0.137,0.615,0.62,1.317,0.142,1.954c-0.22-0.509-0.307-1.104-0.275-1.633c0.036-0.53,0.086-0.995-0.028-1.273        c0.108,1.096-0.194,1.634-0.381,2.271c-0.206,0.63-0.435,1.369-0.112,2.756c-0.157,0.054-0.549-0.392-0.468,0.153        c0.322,1.244,0.752,0.241,1.19,0.58c-0.383-0.91-0.183-1.389,0.229-1.964l0.29,0.228c-0.136,0.048-0.138,0.638-0.242,0.823        l0.587,0.088c-0.635-0.008-0.96,0.996-0.616,1.705c0.336-0.815,0.344-0.607,1.021-0.905c0.837,0.884-0.517,1.256,0.422,2.237        c-0.244-0.031-0.551-0.993-0.552-0.109c0.157,0.702,0.609,0.502,0.88,0.923c-0.643-0.396-0.985-0.172-1.745-0.624        c-0.305-1.283-0.082-0.52-0.51-1.761l-0.271,1.167c-0.252-1.111-0.714-0.726-0.925-0.787c-0.237,2.079,1.02,1.328,1.185,2.569        c0.499,0.497-0.22-1.15,0.381-0.327c0.214,1.138,0.4,0.178,0.934,1.357l-0.283-0.142c-0.196,0.467,0.24,0.747,0.467,1.147        c0.317,0.404,1.547-1.061,2.245,0.737c-0.169-0.037-0.268-0.038-0.324-0.017c0,0-1.19-0.058-2.408-0.188        c-0.608-0.063-1.221-0.14-1.684-0.205c-0.463-0.064-0.749-0.121-0.749-0.121c0.351,1.075,0.777,2.216,1.138,3.436        c0.511,1.155,0.921,2.42,1.458,3.639c-0.204,0.476-0.626,0.168-0.984-0.257c-0.339-0.433-0.655-0.952-0.792-0.791        l-0.382-1.198c0.363-0.087,1.225,2.283,1.317,0.992c-0.575-0.913-0.906-1.627-1.226-2.324        c-0.284-0.716-0.619-1.387-1.33-2.239c-0.297,0.438-0.022,1.079,0.303,1.786c0.171,0.35,0.321,0.732,0.481,1.095        c0.162,0.363,0.273,0.735,0.271,1.113c-0.19-0.544-0.512-0.929-0.794-1.323c0.436,1.211,0.908,2.526,1.494,3.892l0.353,0.182        c-0.462-0.88-0.617-1.569-0.65-1.65c0.46,1.244,1.541,1.899,2.095,1.657l-0.098-0.205l0.406,0.291L20.29,68.993z         M84.375,58.477c0.039,0.089,0.092,0.166,0.166,0.231C84.464,58.64,84.394,58.676,84.375,58.477z M12.977,44.959        c-0.085,0.441-0.196,0.88-0.271,1.324l-0.164,1.337c-0.098,0.89-0.241,1.777-0.269,2.645c1.353-3.139,2.411-5.012,2.155-0.116        l0.107,0.322c0.088-0.645,0.234-1.743,0.175-2.79c-0.189-0.432-0.705-1.376-1.02-2.233c-0.353-0.857-0.68-1.638-0.753-1.634        c-0.392,0.259-0.086,0.777-0.278,1.331L12.977,44.959z M15.223,44.047c0.28-0.923-0.024-0.758-0.244-0.954        c-0.02,0.343-0.041,0.685-0.061,1.023C14.999,43.999,15.095,43.952,15.223,44.047z M14.727,43.103        c-0.023,0.107-0.048,0.198-0.088,0.24L14.727,43.103z M15.786,61.934c-0.021-0.039-0.029-0.053-0.049-0.09        c0.062,0.225,0.124,0.451,0.189,0.687C15.931,62.428,15.898,62.248,15.786,61.934z M15.756,59.864l-0.495-0.1        c0.038,0.214,0.076,0.433,0.115,0.656C15.555,60.29,15.707,60.163,15.756,59.864z M16.016,53.52        c-0.565-0.325-0.651-1.626-1.285-1.676c-0.165-0.076-0.213,0.206-0.249,0.524c0.001,0.352,0.003,0.729,0.004,1.128        c0.095,0.005,0.174,0.076,0.276,0.198c0.045-0.398,0.198-0.67,0.587-0.548c-0.773,1.075,0.708,0.814,0.634,1.876        C16.472,55.284,16.243,53.815,16.016,53.52z M72.541,22.198c-0.01,0.061-0.013,0.235-0.005,0.459l-0.805-0.214        c-0.999-0.884-1.33-2.382-2.839-2.327c-0.385-0.462-0.438-0.978-0.523-1.427c0.234,0.171,0.447,0.34,0.611,0.5        c1.832,0.409,2.013,1.006,2.112,1.495C71.191,21.191,71.176,21.666,72.541,22.198z M58.717,14.166        c0.151-0.002,0.227-0.088,0.227-0.088c-3.354,0.339-5.836,0.487-7.493,0.387c0.305,0.488,1.737,0.869,2.389,1.153        c-0.001-0.015-0.651,0.443-0.65,0.458L52.85,15.65l-1.072,0.422c0.269,0.365,1.102,0.333,1.626,0.627        c0.049-0.096,1.878-0.426,2.444-0.667l-1.385-0.577c0.366,0.229,2.309,0.325,3.082,0.413c0.034-0.119-0.245-0.387-0.584-0.505        c-0.339-0.115-0.723-0.131-0.854,0.136c-0.095-0.407,1.45-0.176,0.551-0.733c1.249-0.225,2.997,0.668,3.777,1.039l-0.05,0.659        c0.798,0.552,0.842-0.531,1.776,0.21c-1.333-0.353-0.026,0.752-1.056,0.426c0.242,0.351-0.214,0.656,0.794,0.973        c1.137-0.479,0.86,0.836,1.897,0.509c0.389,0.488-0.742,0.217,0.185,0.795c1.308,0.128,1.402-0.189,1.752-0.717        c-1.018-0.683-1.562,0.15-2.37-0.402c0,0,0.538-0.04,1.091-0.074c0.559-0.029,1.117-0.059,1.117-0.059        c-0.263-0.296-0.503-0.429-0.726-0.489c0.387,0.117,0.762,0.121,1.125,0.052c0.206-0.038,0.394-0.064,0.565-0.082        c-1.037-0.506-1.952-0.963-2.011-1.289l0.267-0.21c-0.254-0.461-0.993-0.465-1.361-0.371        c-0.999-0.331-2.105-0.283-2.196-0.736l0.46-0.129c-0.617-0.195-0.973-0.252-1.368-0.326        C59.932,14.466,59.502,14.366,58.717,14.166z M20.435,26.81c0.684,0.032,1.309,0.011,2.106-0.297        c0.391-0.161,0.805-0.408,1.259-0.786c0.463-0.37,0.922-0.913,1.563-1.517l-0.151,0.242c0.898-0.342,1.367-1.081,1.903-1.869        c0.56-0.748,1.241-1.484,2.329-1.824c-0.59,0.966-0.579,0.912-0.885,2.341l0.68-0.901c0.124,0.666,0.8-0.231,1.455-0.688        l-0.143,1.011c-0.493,0.111-1.521,0.784-1.39,0.891c0.082-0.111-0.379-0.051-0.959,0.141        c-0.542,0.235-1.193,0.618-1.507,1.045c0.415,0.287,1.876-1.315,1.684-0.057c0.394-0.836,0.833-0.462,1.411-1.136        c-0.464,0.764,0.242,0.653-0.026,1.296l1.015-0.964c0.119,0.117-1.395,1.491-0.121,1.294c0.283-0.528,1.631-1.141,1.355-1.594        l0.118,0.114c0.935-0.437-0.02-0.859,1.231-1.268c-0.123-0.236-0.429-0.264-0.796,0.022c-0.266,0.311-0.139,0.618-0.749,1.126        c-0.258-0.061-0.063-0.201,0.102-0.341c0.172-0.13,0.306-0.279-0.127-0.425c-0.441-0.147-1.536,1.517-1.53,0.522l0.919-0.548        c-0.291-0.468,0.387-0.864,0.141-1.201c0.472-0.513,1.318-0.33,1.666-1.08c0.076-0.442-0.673-0.742,0.457-1.088        c1.194,0.32,3.413-1.023,4.34-1.38l0.695-0.613c-0.178-0.279-1.545,0.612-1.17,0.027l1.243-0.59l-0.033,0.228        c0.441-0.105,0.798-0.498,1.167-0.715c-0.302,0.474-1.26,0.693-0.901,1.138c0.633-0.102,0.768,0.017,1.297-0.224        c-0.111,0.068-0.2,0.147-0.162,0.217c1.288-0.083,1.02-0.895,1.291-1.15c1.099-1.021-1.452-0.312-1.457-0.896        c0,0,3.741-1.304,3.774-1.191c-0.304,0.227-0.602,0.452-0.434,0.655c0.991,0.106,0.101,0.416,1.412,0.19        c-0.106-0.364,0.294-0.544,0.835-0.704c0.272-0.077,0.574-0.164,0.868-0.248c0.295-0.08,0.582-0.145,0.814-0.269        c0.473,0.284,0.565,0.341-0.406,0.399c0.157,0.48,1.431,0.229,1.895,0.25c0.261-0.135,0.716-0.229,1.004-0.352        c-0.392-0.218-0.239-0.551,0.622-0.775l0.051-0.1c-0.705-0.069-1.614-0.164-2.464-0.217c-0.848-0.041-1.635-0.032-2.044,0.313        l0.223-0.278c-1.715-0.146-3.401,1.347-4.309,0.704c-0.013-0.373-0.342,0.001-0.437-0.519l-1.093,0.706l0.186-0.295        c0,0-0.5,0.16-1,0.32c-0.506,0.139-0.98,0.373-0.98,0.373l0.021-0.113c-0.789,0.796-1.368,1.424-1.819,1.928        c0.083,0.214,0.167,0.259-0.068,0.525c-0.258,0.211-0.475,0.314-0.678,0.388l0,0.003l-0.001-0.002        c-0.468,0.151-0.901-0.007-1.513,0.138c0,0,0.42-0.218,0.839-0.436c0.21-0.109,0.42-0.218,0.578-0.3        c0.156-0.087,0.268-0.125,0.268-0.125c-0.005-0.41-0.317-0.758-1.284-0.582c0.345-0.182,0.373-0.533-0.085-0.363        c-0.009,0.117-1.052,0.783-0.497,0.861c-0.794,0.468-2,0.749-3.194,1.36c-0.607,0.283-1.235,0.602-1.834,0.979        c-0.581,0.404-1.101,0.916-1.555,1.478c1.36-1.575-1.624,0.561,0.096-0.925c-0.823,0.224-1.01,0.557-1.149,0.936        c-0.133,0.389-0.258,0.782-0.867,1.295c-0.248-0.083,0.656-0.566,0.694-1.111c-1.147,0.72-1.777,1.739-2.43,2.654        c-0.655,0.924-1.125,1.967-2.068,2.825l-0.443-0.236C20.986,25.842,20.708,26.313,20.435,26.81z M18.111,31.304        c-0.196,0.447-0.429,0.88-0.598,1.353c0.026-0.042,0.049-0.08,0.075-0.123l-0.278,1.479c0.556-0.716,1.271-0.967,0.973,0.229        c-0.136-0.182-0.512,0.029-0.433-0.406c-0.615,0.602-1.666,2.131-0.783,1.995c0.046-1.698,1.012,0.06,1.071-1.252        c0.155,0.794-0.331,1.271-0.381,1.912c-0.126-0.743-0.902-0.227-1.404,0.637c-0.035,0.441-0.539,1.487-0.596,2.209        c0.515-0.098,0.554,0.542,1.049-0.477c-0.015,0.212-0.055,0.473-0.149,0.757c-0.065,0.292-0.181,0.607-0.381,0.922        c-0.004-0.295,0.066-0.792-0.099-0.806c-0.512,0.331-0.633,0.873-0.879,1.122c-0.037,0.241-0.075,0.485-0.111,0.722        c0.056-0.06,0.121-0.107,0.194-0.134l0.188,0.864c0.058-1.074,0.324-0.424,0.578-0.352c-0.506-0.148-0.236,0.64-0.308,0.986        l0.737-0.628c0.09,0.21-0.09,0.502-0.219,0.737c-0.108,0.239-0.164,0.418,0.12,0.375c0.558-1.532,0.663-2.128,0.85-3.599        l-0.561,0.454c0.167-1.7,1.032-0.753,1.615-2.486c-0.168-0.894,1.084-2.537,0.382-2.919c0.128,0.315,1.111-0.738,1.108-1.459        c-0.268-0.947,0.792-2.883,0.169-2.492c-0.319,0.509-0.388,1.388-1.046,1.563l0.473-1.068l-0.737,0.454        C19.058,31.605,18.708,31.439,18.111,31.304z M9.371,58.128c-0.001,0.015-0.001,0.035-0.002,0.054l-0.007-0.058L9.371,58.128z        "></path><path d="M84.364,35.138c0.342,0.233,0.575,1.079,0.888,0.77c-0.195,0.089-0.344-0.271-0.478-0.571        C84.615,35.046,84.471,34.818,84.364,35.138z"></path><path d="M84.362,36.253c0.116,0.019,0.252-0.082,0.4,0.277l-0.467-0.958L84.362,36.253z"></path><path d="M81.997,38.263c0.471,0.362,0.753,0.611,1.002,1.369c-0.888,0.593-0.727-1.134-1.758-1.133        c0.196,0.678,0.547,1.043,0.914,1.384c0.342,0.347,0.668,0.678,0.863,1.243c0.119-0.336,0.15-1.136-0.08-1.788        C82.715,38.684,82.374,38.146,81.997,38.263z"></path><polygon points="80.553,38.136 81.038,38.782 81.069,38.689 80.583,38.042       "></polygon><path d="M76.629,17.738c0.139-0.308-0.558-0.431-0.867-0.566C75.962,17.35,76.207,17.639,76.629,17.738z"></path><path d="M80.211,79.393c0,0,0.305-0.363,0.762-0.907c0.447-0.552,1.081-1.254,1.638-2.015        c1.077-1.555,2.124-3.114,2.124-3.114c-0.6,0.899-1.203,1.749-1.884,2.73c-0.326,0.503-0.729,0.991-1.177,1.525        C81.23,78.151,80.748,78.739,80.211,79.393z"></path><path d="M53.7,10.476c0.967-0.078,1.68-0.142,2.409-0.244c0.725-0.072,1.475-0.184,2.465-0.029        c-1.223-0.595-2.153-0.429-2.985-0.314c-0.841,0.125-1.599,0.249-2.667-0.112L53.7,10.476z"></path><path d="M54.654,7.967c0.263,0.614-1.621,0.581-1.364,1.06c1.347-0.072,0.679-0.564,1.89-0.34L54.654,7.967z"></path><polygon points="60.397,19.565 59.857,19.705 60.246,19.725       "></polygon><polygon points="45.442,8.501 45.648,8.331 44.621,8.287       "></polygon><path d="M45.857,8.172c0,0-0.209,0.154-0.208,0.16C45.647,8.326,45.857,8.172,45.857,8.172z"></path><polygon points="59.429,20.605 60.015,20.963 60.42,20.812       "></polygon><path d="M54.033,16.103l0.683-0.093C54.582,16.028,53.707,15.639,54.033,16.103z"></path><polygon points="39.317,9.4 38.418,9.876 38.533,9.908 39.428,9.434       "></polygon><path d="M48.898,17.59c0.448,0.448-1.245,0.191-0.338,0.561C49.342,18.037,49.019,17.808,48.898,17.59z"></path><path d="M38.8,16.162c-0.107,0.039-0.214,0.096-0.306,0.186C38.617,16.281,38.717,16.218,38.8,16.162z"></path><path d="M38.8,16.162c0.345-0.13,0.742-0.084,0.95-0.264C39.241,15.796,39.114,15.961,38.8,16.162z"></path><path d="M34.944,17.831l0.313-0.114c-0.208,0.358-0.078,0.257,0.117-0.044c0.31-0.167,0.232-0.295,0.229-0.406        c0.039-0.084,0.08-0.17,0.123-0.262c-0.072,0.105-0.138,0.201-0.194,0.282C35.036,17.522,34.744,17.689,34.944,17.831z"></path><path d="M16.592,22.189c1.135-1.003,1.457-1.225,1.673-0.921c1.029-0.957,0.427-1.228,0.905-1.963        C18.131,20.538,17.782,20.669,16.592,22.189z"></path><path d="M19.17,19.304c0.117-0.138,0.246-0.253,0.387-0.408C19.379,19.05,19.254,19.172,19.17,19.304z"></path><path d="M40.679,19.843c0,0-0.12,0.183-0.234,0.377c-0.113,0.191-0.226,0.382-0.226,0.382l0.205-0.159        C40.424,20.443,40.673,19.829,40.679,19.843z"></path><path d="M15.091,23.845c0.186-0.21,0.442-0.578,0.673-0.676C15.523,22.878,14.905,24.056,15.091,23.845z"></path><path d="M23.961,24.441c0.229,0.046,0.729-0.588,1.032-0.745C24.624,23.981,23.837,23.742,23.961,24.441z"></path><path d="M13.962,28.204c0.16-0.22,0.584-0.442,0.748-0.13C14.759,27.651,14.492,26.849,13.962,28.204z"></path><polygon points="22.363,26.102 22.577,26.051 22.983,25.255       "></polygon><path d="M28.232,27.709c0.326-0.883-1.739,0.159-0.905-1.095c-1.685,1.034,0.512,0.309-0.494,1.285        C27.474,27.376,28.173,27.531,28.232,27.709z"></path><path d="M26.833,27.899c-0.096,0.072-0.192,0.159-0.287,0.262C26.664,28.06,26.756,27.975,26.833,27.899z"></path><path d="M17.787,36.841c0.004-0.144-0.011-0.249-0.029-0.349C17.754,36.606,17.761,36.718,17.787,36.841z"></path><path d="M24.284,31.54l0.24-1.414c-0.085,0.479-0.452,1.141-0.721,1.712c-0.289,0.559-0.359,1.105-0.068,1.213        c0.428-0.529,0.823-1.24,0.787-1.688L24.284,31.54z"></path><path d="M7.131,42.846l-0.138-0.786l-0.22,0.917C6.91,42.727,7.308,43.283,7.131,42.846z"></path><path d="M6.731,43.155l0.041-0.178C6.751,43.014,6.735,43.07,6.731,43.155z"></path><path d="M18.606,34.323c0.239-0.386,0.373-0.721,0.457-1.144C18.874,33.269,18.285,34.244,18.606,34.323z"></path><polygon points="7.535,48.12 7.486,46.907 7.466,48.227       "></polygon><path d="M6.53,53.839l-0.11,0.224c0,0,0.064,0.252,0.155,0.501c0.095,0.248,0.19,0.495,0.19,0.495l0.091-0.228        c0,0-0.104-0.245-0.18-0.493C6.603,54.088,6.53,53.839,6.53,53.839z"></path><path d="M19.293,47.373c0.071-0.587-0.397-1.109-0.553-0.97c0,0-0.01,0.073-0.025,0.182c-0.02,0.108-0.034,0.255-0.031,0.403        c-0.007,0.294-0.014,0.589-0.014,0.589c0.535-0.255-0.024-0.329,0.183-0.992C18.828,46.584,19.293,47.373,19.293,47.373z"></path><path d="M29.57,87.502c-0.471,0.119-1.879-0.963-1.782-1.286c0.274,0.003,1.142,0.37,0.746-0.112l-1.613,0.001        c-1.27-1.392,1.78-0.201,2.666-0.019c-0.75-0.515-1.308-0.725-1.892-0.937c-0.584-0.209-1.202-0.408-1.971-1.011        c0.422,0.398,0.584,0.807,0.751,1.111c-0.293,0.561-1.629-0.778-2.716-1.531c0.519,0.71,0,0.593-0.644,0.398        c-0.101-0.054-0.182-0.072-0.248-0.074c-0.076-0.022-0.148-0.042-0.222-0.063l0.13,0.097        c-0.051,0.045-0.072,0.129-0.047,0.286c1.013,0.55,1.419,1.467,2.015,1.916c-0.008-0.623,0.497-0.254,1.189,0.2        c0.689,0.458,1.519,1.092,1.989,1.203l0.957,0.465l0.342,0.201c0.019,0.131-0.142,0.197-0.758,0.047        c0.506,0.139,2.023,0.895,2.014,0.563c0,0,0.868,0.413,1.736,0.826c0.435,0.204,0.866,0.418,1.21,0.529        c0.338,0.125,0.564,0.208,0.564,0.208c0.098,0.078,0.192,0.165,0.251,0.261c0.147-0.01,0.186-0.049,0.187-0.1        c0,0,0.986,0.354,2.464,0.884c0.751,0.226,1.644,0.436,2.594,0.682c0.951,0.247,1.965,0.504,3.005,0.628        c1.034,0.151,2.069,0.303,3.039,0.445c0.976,0.05,1.888,0.097,2.669,0.137c0.781,0.032,1.432,0.068,1.888,0.071        c0.456-0.022,0.716-0.034,0.716-0.034c-0.824-0.011-1.531-0.298-2.366-0.437c1.276-0.577-1.367-0.182-0.965-0.768        c0.57-0.19,1.374-0.082,1.858,0.087c0.183-0.296-0.497-0.598-0.407-0.958c-0.994-0.239-1.578-0.001-2.179,0.256        c-0.598,0.266-1.211,0.542-2.188,0.262c0.127-0.351,0.767-0.577-0.516-0.72l0.335-0.029c-2.116,0.086-1.439-1.044-2.908-0.284        l0.14-0.508c-0.983,0.164-2.761-0.289-3.776-0.483l0.089-0.081c-1.464-0.149-1.854-0.299-2.277-0.454        c-0.415-0.185-0.882-0.349-2.429-0.881c0,0,0.1,0.005,0.25,0.012c0.148,0.011,0.35,0.015,0.556,0.004        c0.406-0.013,0.813-0.026,0.813-0.026c-0.949-0.604-1.424-0.123-2.127-0.531c0.093-0.068,0.089-0.498,0.803-0.263        c0,0-0.98-0.21-1.959-0.42c-0.497-0.111-0.994-0.223-1.367-0.306c-0.376-0.084-0.609-0.175-0.609-0.175        C28.562,86.647,29.547,87.228,29.57,87.502z"></path><path d="M25.724,84.138c-0.152-0.148-0.335-0.299-0.572-0.45C25.36,83.863,25.545,84.005,25.724,84.138z"></path><path d="M51.97,93.433l-1.17,0.06C51.163,93.509,51.542,93.5,51.97,93.433z"></path><path d="M20.562,81.388c0.336,0.676-0.652-0.078-0.885-0.019l1.896,1.712c0.125-0.162,0.459-0.166,0.541-0.342L20.562,81.388z        "></path><path d="M21.879,83.87c0.15-0.045,0.449,0.021,0.766,0.11c0,0-0.289-0.199-0.549-0.433c-0.261-0.233-0.522-0.465-0.522-0.465        C21.481,83.203,21.507,83.413,21.879,83.87z"></path><path d="M28.656,75.393l0.267,0.217l0.516,0.188c0,0-0.2-0.094-0.401-0.189C28.836,75.515,28.656,75.393,28.656,75.393z"></path><path d="M32.592,79.257c-0.201-0.483-1.002-0.695-1.277-0.77C32.11,78.956,31.707,78.849,32.592,79.257z"></path><polygon points="33.401,75.889 34.179,76.156 34.147,76.065       "></polygon><path d="M60.035,90.179c0.169-0.055,0.333-0.109,0.504-0.165C60.304,90.072,60.154,90.126,60.035,90.179z"></path><path d="M50.869,91.911c2.641,0.467-1.709,0.574-0.889,1.288l1.451-0.315l-0.117,0.209l1.773-0.156        c-0.388-0.328-0.658-0.336-0.602-0.705c2.344-0.007,0.766,0.448,2.542,0.7l2.626-0.466l-0.194,0.141        c0.221-0.043,0.311-0.103,0.376-0.174c0,0,0.138-0.025,0.379-0.07c0.242-0.039,0.586-0.107,0.989-0.231        c0.809-0.23,1.888-0.536,2.966-0.843c1.08-0.297,2.099-0.78,2.886-1.066c0.778-0.311,1.297-0.518,1.297-0.518        c1.387-0.862-1.075-0.28-0.182-1.207c-1.727,0.642-4.375,1.218-4.346,1.883c0.032-0.113,0.092-0.336-0.291-0.325l-0.873,0.846        l1.043-0.073c-0.441,0.424-1.536,0.828-2.605,1.09c-1.072,0.25-2.135,0.228-2.473,0.11c1.933-0.541,0.823-0.962,3.565-1.262        c-0.166-0.148-0.722-0.342-0.155-0.591c-1.5,0.551-3.004,0.713-4.502,0.961C54.037,91.45,52.514,91.491,50.869,91.911z"></path><path d="M79.468,79.358l0.03,0.065C79.511,79.356,79.505,79.324,79.468,79.358z"></path><path d="M78.625,80.018l-0.669,1.574l1.768-1.692l-0.227-0.477c-0.059,0.239-0.517,0.995-0.894,1.077L78.625,80.018z"></path><path d="M76.854,83.126c0.855-0.975,0.381-1.4-0.286-1.143c0.67-0.972,0.865,0.074,1.04-0.924        c-0.307-0.306-1.164,0.839-1.381,1.089L76.854,83.126z"></path><polygon points="68.784,87.915 68.995,87.541 68.178,87.864       "></polygon><path d="M68.995,87.541l0.812-0.323c-0.139-0.134-0.276-0.264-0.46-0.313L68.995,87.541z"></path><path d="M71.862,86.212c0.339-0.154,0.706-0.339,1.14-0.586L71.862,86.212z"></path><path d="M70.933,86.598l0.064,0.051l0.865-0.438C71.533,86.358,71.234,86.48,70.933,86.598z"></path><path d="M69.806,87.219c0.323,0.308,0.686,0.623,1.722-0.147l-0.532-0.421C70.996,86.65,69.821,87.248,69.806,87.219z"></path><polygon points="38.349,79.141 39.126,79.174 39.076,79.088 38.3,79.056       "></polygon><path d="M42.319,80.801c0.197-0.025,0.35-0.063,0.49-0.108C42.611,80.689,42.445,80.717,42.319,80.801z"></path><path d="M45.867,78.62c0.747,0.537-1.193,0.371,0.28,0.787c0.089,0.406-0.702,0.785-1.402,0.487        c0.121-0.35,0.739-0.125,0.36-0.558c-0.544,0.345-0.68,0.035-0.611,0.6c-0.882,0.234-1.046,0.545-1.686,0.757        c0.264,0.001,0.579,0.09,0.937,0.17c0.361,0.068,0.762,0.143,1.17,0.219c0.821,0.122,1.681,0.303,2.363-0.053        c0.763-0.626,0.392-1.544,0.478-2.493c-0.04-0.128-0.485-0.184-0.923-0.238C46.395,78.25,45.944,78.313,45.867,78.62z"></path><path d="M44.793,77.499c-0.347-0.095-0.464-0.068-0.691-0.056C44.09,77.788,44.503,77.484,44.793,77.499z"></path><path d="M53.802,84.968c0.073-0.148,0.854-0.438,0.651-0.643c0,0-1.187,0.361-1.193,0.324        C53.55,84.664,53.667,84.811,53.802,84.968z"></path><path d="M52.728,84.749l0.531-0.1C53.124,84.644,52.96,84.671,52.728,84.749z"></path><path d="M53.869,85.044l-0.067-0.075C53.788,85,53.794,85.029,53.869,85.044z"></path><path d="M75.012,84.407c0.137,0.224,0.583-0.303,0.803-0.565C75.583,83.988,75.226,84.147,75.012,84.407z"></path><path d="M88.971,64.296l0.394-0.473C89.178,63.975,89.084,64.052,88.971,64.296z"></path><path d="M84.036,54.728c-0.048-0.021-0.085-0.061-0.118-0.113C83.943,54.666,83.981,54.704,84.036,54.728z"></path><path d="M83.918,54.614c-0.166-0.346,0.337-1.298-0.011-1.691l0.099,0.054l-0.163-0.681c-0.006,0.312-0.014,0.795-0.022,1.247        C83.783,53.992,83.788,54.413,83.918,54.614z"></path></g></g></g></g></g></g></svg>