<svg fill="#00DCFF" xmlns="http://www.w3.org/2000/svg" xmlns:xlink="http://www.w3.org/1999/xlink" version="1.1" x="0px" y="0px" viewBox="0 0 100 100" enable-background="new 0 0 100 100" xml:space="preserve"><g><g><g><g><g><path d="M85.719,44.298c-0.024,0.118-0.018,0.296-0.03,0.439C85.594,44.339,85.574,44.142,85.719,44.298z"></path><path d="M85.749,50c-0.111-1.461-0.119-3.766-0.06-5.263C86.123,45.978,86.773,49.558,85.749,50z"></path><path d="M87.408,43.751l-0.031,1.945C86.92,44.626,87.456,44.767,87.408,43.751z"></path><polygon points="86.514,44.593 86.107,44.555 86.338,43.506      "></polygon><path d="M19.526,37.318c0.213-0.1,0.436-0.12,0.622,0.047L19.526,37.318z"></path><path d="M16.54,40.501c-0.153,0.339-0.243,0.582-0.315,0.792C16.259,41.04,16.351,40.844,16.54,40.501z"></path><path d="M20.909,34.058c-0.019-0.01-0.264,0.644-0.264,0.644C20.696,34.481,20.758,34.237,20.909,34.058z"></path><path d="M58.172,16.32c0.586,0.447,1.126,0.856,1.536,1.143C58.383,17.441,58.447,16.783,58.172,16.32z"></path><path d="M10.858,60.62l0.358,0.114C11.133,60.987,11.027,61.134,10.858,60.62z"></path><path d="M11.149,40.152c0.184,0.025,0.304,0.101,0.379,0.21c-0.046,0.072-0.085,0.149-0.134,0.216L11.149,40.152z"></path><path d="M21.799,31.35c-0.006-0.016-0.004-0.035-0.009-0.053c-0.012-0.009,0.479-0.37,0.488-0.362       C22.135,31.209,21.996,31.348,21.799,31.35z"></path><path d="M12.74,67.105c-0.032,0.346-0.106,0.704-0.262,1.066C12.321,67.508,12.471,67.103,12.74,67.105z"></path><path d="M16.202,41.392c-0.006,0.007-0.009-0.002-0.016,0.004c0.011-0.029,0.029-0.075,0.039-0.103       C16.22,41.331,16.205,41.355,16.202,41.392z"></path><path d="M13.681,33.844c-0.197,0.303-0.402,0.58-0.587,0.919C13.167,34.299,13.456,34.005,13.681,33.844z"></path><path d="M58.172,16.32c-0.167-0.126-0.331-0.252-0.5-0.379C57.934,16.015,58.073,16.152,58.172,16.32z"></path><path d="M83.959,39.678c-0.16-0.56-0.026-0.749,0.165-0.929C84.133,39.088,84.111,39.397,83.959,39.678z"></path><path d="M84.028,51.372l0.02-0.223C84.062,51.244,84.049,51.315,84.028,51.372z"></path><path d="M76.037,70.64c-0.114,0.035-0.238,0.068-0.363,0.063C75.715,70.508,75.89,70.52,76.037,70.64z"></path><path d="M62.884,88.871c1.417-1.013,3.409-0.682,4.764-1.347l-0.621-0.139l1.485-0.349l-0.268-0.498       c1.182-0.372,2.303-1.182,3.305-1.792c0.501-0.307,0.972-0.57,1.396-0.745c0.403-0.204,0.767-0.31,1.079-0.261l-0.753-0.567       l2.503-0.978l-1.561,0.407c2.267-1.758,5.817-4.437,6.214-4.948l-0.425-0.033c0.192-0.467,0.607-0.594,1.024-0.892       l-0.636-0.049c0.778-0.761,1.27-1.506,1.678-2.195c0.414-0.684,0.742-1.314,1.084-1.945c0.313-0.651,0.602-1.33,1.02-2.066       c0.415-0.74,0.961-1.537,1.568-2.572c0.458-1.227-0.462,0.578-0.721,0.461c-0.048-0.815,1.007-2.126,1.37-2.368       c-0.885,0.026-1.514,1.885-1.442,0.276c0.806-0.78-0.969,0.331-0.039-1.248c0,0,0.318-0.057,0.612-0.129       c0.297-0.074,0.594-0.147,0.594-0.147c0.195-1.039-0.663-0.488-0.015-1.969c1.059-1.618,0.291,2.555,1.474-0.26       c0.263-0.726-0.13-1.694-0.377-2.749c-0.259-1.066-0.358-2.207,0.077-3.572c-0.157-2.475-1.746,0.996-0.993-2.221l-0.971,1.964       c-0.202-0.573-0.754-0.317-0.334-1.642c0.484-0.374,1.037-1.191,1.116-1.952c-0.459,1.49-0.711,0.785-0.994,0.094       c-0.282-0.701-0.594-1.381-1.157-0.076l0.087-0.992c-0.045,0.122-0.144,0.149-0.218,0.08l-0.001-1.313       c-0.266,0.813-0.453,2.698-1.153,1.775l-0.089-1.839c-0.588,0.48-0.784-0.183-1.241-0.076c0,0-0.337,1.272-0.675,2.543       c-0.131,0.629-0.411,1.231-0.573,1.683c-0.171,0.449-0.285,0.748-0.285,0.748c0.361-0.136,0.69-0.83,0.987-0.512       c0.042,0.701-0.149,0.957-0.318,1.197c-0.174,0.242-0.286,0.476-0.24,1.141l0.581-0.458c-0.193,0.066-0.291,0.229-0.276-0.054       c-0.219-0.503,0.142-0.633,0.421-0.588c0.542,0.568-0.206,1.784-0.676,2.056c-0.345,1.647,0.9,0.609,0.976,1.014       c-0.285,0.154-0.469,0.402-0.596,0.705c-0.147,0.297-0.266,0.639-0.358,0.999c-0.189,0.715-0.327,1.487-0.712,1.904       l0.806-0.417c0.145,0.775-0.112,1.37-0.445,1.841c-0.327,0.476-0.728,0.83-0.993,1.13l0.582-0.044       c-0.418,0.838-0.458,1.619-0.638,2.281c-0.18,0.655-0.516,1.183-1.641,1.284l0.388,0.022c-0.309,0.716-0.744,1.893-1.605,2.164       c0.156,0.145,0.282,0.416,0.14,0.712c-0.797-0.105-0.953,0.805-1.639,1.76c0.65-0.447,1.146,0.342,1.876-0.136       c-0.281,0.993-0.763,1.152-1.283,1.183c-0.519,0.039-1.083-0.04-1.651,0.46c-0.37,0.942,0.97-0.171,1.347-0.12       c-1.026,0.661-1.596,1.837-2.212,2.892c-0.681,0.959-1.429,1.753-2.555,1.475l0.49-1.083c-0.986,0.252-1.381,0.555-1.197,0.627       c0.209-0.23,0.386-0.152,0.569-0.079c-0.423,0.644-0.981,0.973-1.53,1.229c-0.554,0.249-1.128,0.384-1.7,0.499       c-1.17,0.196-2.375,0.192-3.553,0.985c0.319,0.219,0.73,0.142,0.862,0.393c-0.519,0.464-1.001,0.16-1.535-0.064       c-0.538-0.221-1.123-0.38-1.978,0.306l0.508,0.23c-0.582,0.468-1.239,0.101-1.184-0.047c0.202,0.736-0.89,0.994-2.134,1.357       c-0.617,0.209-1.294,0.344-1.888,0.582c-0.593,0.245-1.106,0.601-1.421,1.153c-0.579-0.296-1.629-0.63-2.626-0.794       c-0.998-0.158-1.953-0.142-2.412,0.027c-1.348,0.847,1.157,1.069,0.67,1.897c-1.086-0.046-1.604-0.918-3.194-0.702       c0.091-0.844,3.114-1.571,0.337-2.193l-0.434,0.436c0.3-0.047,0.712-0.2,1.113-0.069c0.79,0.542-0.528,0.544-0.742,0.763       c0,0-0.192-0.025-0.479-0.063c-0.287-0.043-0.663-0.152-1.04-0.237c-0.751-0.18-1.502-0.359-1.502-0.359       c-0.058-0.924,1.681-0.445,1.893-0.642c-0.59-0.044-1.222-0.02-1.879,0.024c-0.328,0.017-0.666,0.061-0.999,0.064l-0.999-0.029       c-0.667-0.028-1.332-0.079-1.957-0.195c-0.626-0.111-1.177-0.4-1.661-0.721l0.089,0.393c-2.425-1.701-2.266,0.957-3.784-1.369       c-1.223-0.326-0.014,1.057-1.765,0.294c-0.469-0.268-0.029-0.408,0.106-0.458c-1.812-1.477-1.325,0.198-2.718-1.62       l-0.126,1.042c-0.487-0.455-0.865-1.069-1.247-1.648c-0.367-0.578-0.735-1.159-1.092-1.722c-0.663-1.166-1.297-2.2-2.24-2.769       c-0.429,0.608,0.621,1.465,0.652,2.251c-0.323-0.767-0.843-1.402-1.353-2.089c-0.505-0.69-1.093-1.339-1.695-1.973       c-0.589-0.643-1.098-1.347-1.591-1.999c-0.24-0.332-0.466-0.659-0.658-0.987c-0.164-0.347-0.302-0.69-0.403-1.028       c0.937,0.334,0.598-1.831,1.899-0.691c-0.605,0.906,0.4,1.185,0.844,1.949c0.205-0.601,0.032-1.141-0.306-1.664       c-0.295-0.551-0.772-1.079-1.25-1.586c-0.239-0.256-0.473-0.507-0.69-0.74c-0.199-0.246-0.348-0.497-0.463-0.724       c-0.224-0.459-0.253-0.853,0.108-1.142l-0.831-0.024c-0.076-0.41,0.003-1.518,0.515-0.998c0,0-0.112-0.14-0.25-0.365       c-0.13-0.229-0.304-0.535-0.478-0.841c-0.354-0.619-0.707-1.238-0.707-1.238c-0.094,0.551-0.259,1.44-0.271,2.257       c-0.036,0.824,0.237,1.498,0.724,1.642c-0.344,1.092-0.998-0.872-1.492,0.172c0.101-1.153-0.079-1.392-0.429-1.6       c-0.341-0.205-0.803-0.389-1.042-1.429c0.669,0.273,0.83-0.341,0.898-1.003c0.07-0.667,0.154-1.423,0.401-1.443       c-0.338-0.59-0.272-2.109,0.013-2.718c-0.034-0.569-0.36-1.457-0.674-2.456c-0.301-0.998-0.407-2.13-0.294-3.053       c-0.297,0.699-0.684,1.853-1.364,1.826c0.34-0.969,0.277-1.973-0.524-2.148c-0.635,1.718-0.167,1.994,0.361,2.177       c0.264,0.096,0.543,0.179,0.707,0.427c0.148,0.251,0.231,0.656,0.12,1.422c-0.39,0.424-0.607,0.858-0.729,1.388       c-0.108,0.528-0.192,1.165-0.092,1.963c-0.686-0.599-0.827-0.241-1.513-0.413c0.782-1.194,0.632-2.444,0.361-3.793       c-0.121-1.351-0.458-2.811,0.042-4.1c0.611-1.065,1.769-0.243,2.09-2.556l0.481,2.017c-0.417-2.188,0.588-0.487,0.881-2.218       l-0.647,0.647c-0.101-1.1,0.155-1.484,0.667-2.013l-1.088,0.79c-0.026-0.6,0.022-1.719,0.58-1.639       c-0.207-0.188-0.381-0.273-0.542-0.3c0.174-0.089,0.316-0.349,0.389-1.044c-0.168,0.383-0.152,0.687-0.432,0.645       c0.138-0.657,0.204-1.024,0.178-1.246c-0.03-0.223-0.148-0.298-0.278-0.343c-0.261-0.09-0.57-0.058-0.312-0.876       c-0.282,0.209-0.427-0.33-0.385-0.967c0.743,0.226,1.279-0.49,1.961-1.239c0.645-0.763,1.236-1.634,1.764-1.871l-0.024,0.001       c0,0,0.069-0.119,0.218-0.277c0.141-0.16,0.328-0.373,0.516-0.587c0.37-0.42,0.74-0.84,0.74-0.84       c-0.298,0.338-0.464-0.263-0.329-0.913l-0.038,0.097c0.047-0.368-0.403-0.372-0.706-0.491c-0.151-0.06-0.265-0.15-0.258-0.336       c-0.001-0.189,0.133-0.469,0.52-0.871l0.969-0.739c-0.15,0.144-0.246-0.14-0.288-0.292l0.945-0.773       c-0.095-1.128,0.621-1.69,1.36-2.22c0.724-0.557,1.642-0.942,2.077-1.943c-0.313,0.522-1.006,1.124-1.088,0.537       c0.145-0.414,0.684-0.762,1.057-0.842l-0.193-0.036c0,0,0.209-0.145,0.523-0.362c0.156-0.108,0.338-0.233,0.532-0.368       c0.21-0.117,0.433-0.241,0.657-0.365c0.879-0.486,1.758-0.973,1.758-0.973c-0.555-0.176-2.229,1.292-1.885,0.206       c-0.011-0.894,1.306-1.179,1.905-1.563c0.153,0.349-0.589,1.471,0.543,0.792c0-0.242,0.758-1.32,0.109-1.19       c0.676-0.243,1.426-0.63,2.2-0.924c0.803-0.251,1.598-0.456,2.276-0.457c0.233-0.346-0.352-0.181-0.55-0.124l-0.023,0.147       c-0.796,0.226-0.639-0.802-1.785,0.372c-0.423-0.505,0.032-0.885,0.729-1.249c0.71-0.342,1.593-0.757,2.212-1.105       c0,0-0.625,0.026-1.214,0.154c-0.606,0.11-1.212,0.219-1.212,0.219c0.303-0.445,0.662-0.857,1.063-1.238       c0.407-0.37,0.888-0.649,1.378-0.933c0.494-0.277,1.016-0.526,1.551-0.755c0.534-0.23,1.121-0.344,1.688-0.496       c0.572-0.139,1.146-0.264,1.71-0.383c0.564-0.121,1.151-0.137,1.703-0.212c1.115-0.118,2.15-0.302,3.116-0.396       c-1.053,0.527-2.028,0.45-1.673,1.392c1.174-0.088,1.694-0.007,2.19-0.076c0.499-0.042,0.994-0.131,2.139-0.192       c-0.001-0.006-0.201-0.03-0.201-0.03c1.157-0.602,2.819,0.335,3.585-0.621c-0.533-0.537-1.685,0.614-1.765-0.518       c0,0,0.746-0.016,1.492-0.033c0.373-0.022,0.745,0.047,1.024,0.058c0.279,0.023,0.465,0.038,0.465,0.038       c-0.925-0.797-2.993-0.054-4.132-0.165c-0.816,0.104,1.669,0.073,1.308,0.832c-0.682,0.026-1.235,0-1.709-0.067       c-0.472-0.056-0.858-0.098-1.213-0.213c-0.709-0.214-1.276-0.582-2.072-0.998c-1.012-0.64,1.119-0.981,1.662-1.07       c0.504,0.235,1.037,0.36,1.61,0.552c0.572,0.179,1.172,0.311,1.795,0.387c0.623,0.096,1.27,0.054,1.939,0.102       c0.669,0.029,1.359-0.001,2.074-0.099c0,0,0.407-0.195,0.814-0.39c0.413-0.212,0.828-0.343,0.828-0.343       c1.315,0.999,0.499,2.396,2.925,2.612c0.008-0.02-0.599-0.736-0.599-0.736c0.586-0.174,0.949-0.139,1.204-0.071       c-0.465-0.384-0.975-0.704-1.483-1.031c-0.514-0.34-1.018-0.673-1.482-0.98c0.815-0.526,1.892-0.24,2.945,0.343       c1.047,0.647,2.088,1.463,3.062,1.884c-0.046-0.219-0.76-0.429-0.884-0.817c0.811,0.094,1.562,0.433,2.283,0.81       c0.715,0.391,1.42,0.777,2.037,1.279c1.22,1.038,2.334,1.949,3.267,2.713c1.168,0.024-1.523-1.357-0.717-1.829       c0.98,0.885,2.597,1.062,2.48,1.893c0.057-0.614,0.724-0.266,1.145,0.023c0.405,0.303,0.654,0.44-0.092-0.712       c1.054,0.571,2.04,1.319,3.019,2.086c0.909,0.852,1.775,1.778,2.59,2.732c0.733,1.035,1.482,2.043,2.112,3.107       c0.575,1.108,1.208,2.137,1.688,3.219c0.166-0.38,0.399-0.538,0.695-0.491c-0.409-0.701-1.002-1.503-1.393-2.357       c-0.204-0.421-0.378-0.841-0.498-1.235c-0.145-0.374-0.238-0.721-0.245-1.021c0.293,0.109,0.514,0.317,0.685,0.565       c0.157,0.26,0.251,0.57,0.33,0.857c0.155,0.578,0.22,1.084,0.45,1.108c-0.108-0.609-0.779-1.492-0.354-1.865       c1.37,0.769,1.146,1.971,1.651,2.827l-0.561-0.274c0.588,1.485,0.317,2.144,0.262,2.692c-0.039,0.28-0.047,0.545,0.073,0.898       c0.12,0.354,0.388,0.783,0.778,1.47c1.112,0.727,0.5-0.26,1.243-0.674c0.031,0.827,1.995,2.71,1.362,3.831       c0,0-0.186-0.456-0.372-0.912c-0.085-0.231-0.2-0.45-0.289-0.612c-0.086-0.164-0.144-0.273-0.144-0.273       c0.216,0.658,0.355,1.321,0.512,1.917c0.149,0.599,0.273,1.149,0.295,1.637c0.14-0.149,0.29-0.282,0.259-0.579       c0.169,1.093,0.509,2.448,0.117,3.112l0.959,0.076c-0.564-0.539-1.069-2.384-0.763-2.838c0.879-0.089,0.895,2.012,1.171,2.835       c-0.179-0.949-0.23-1.691-0.229-2.323c-0.033-0.621-0.04-1.123-0.047-1.611c-0.012-0.486-0.044-0.951-0.182-1.479       c-0.071-0.263-0.158-0.546-0.3-0.846c-0.159-0.293-0.358-0.609-0.608-0.958l-0.01,0.624c-0.765-0.794-1.105-1.777-1.392-2.785       c-0.357-0.965-0.64-1.965-1.132-2.744c0.425,0.341,0.763,0.258,0.763-0.035c-0.655-0.812-1.387-1.547-2.041-2.343       c-0.323-0.4-0.648-0.801-0.974-1.204c-0.35-0.383-0.702-0.768-1.056-1.156c-1.376-1.588-2.977-3.09-4.91-4.392l-0.588-1.559       l-0.474,0.496c-2.017-1.106,0.179-1.116-1.113-1.886c0.492,0.296,0.34,0.336,0.338,0.546c-1.881-2.077-1.613-0.249-2.774-1.21       c0.243,0.998,2.31,1.71,1.225,2.181c-1.744-2.113-5.639-3.442-5.393-5.077c-1.25-0.266-2.495-0.724-3.792-1.105       c-0.654-0.173-1.31-0.362-1.965-0.561c-0.657-0.193-1.305-0.434-1.973-0.559c-0.664-0.156-1.323-0.31-1.969-0.461       c-0.649-0.152-1.286-0.326-1.916-0.387c-1.256-0.166-2.45-0.338-3.521-0.391c-0.58,0.315,0.364,0.208,0.14,0.448       c-0.839-0.437-2.267-0.201-3.449,0.041c-1.186,0.249-2.126,0.662-2.203,0.221c-0.775,0.354-0.998,1.019-1.169,1.276       c-1.122-0.293-2.392-0.081-3.747,0.123l1.022-0.022l-0.076,0.138l-1.45,0.033l0.036-0.064c-3.332,0.77-6.862,2.461-9.95,3.416       c1.824-0.46,0.146,1.107,1.041,0.954c-1.002-0.17-2.376,0.197-3.678,1.034c-0.662,0.401-1.349,0.856-1.993,1.364       c-0.613,0.546-1.207,1.117-1.756,1.664c0.203,0.198,0.183,0.522,0.602,0.445c0,0-1.706,0.786-1.677,0.825l0.4,0.064       c-0.492,0.63-1.072,1.196-1.685,1.73c-0.307,0.267-0.622,0.526-0.938,0.78c-0.294,0.274-0.584,0.546-0.868,0.811       c-1.133,1.07-2.193,2.086-2.439,3.196c0.821-1.041,1.06-0.882,1.514-0.731c-0.618,0.949-1.218,1.871-1.846,2.834       c-0.648,0.954-1.198,2.019-1.982,3.132c0.138-0.096,0.264-0.14,0.359-0.102c-0.092,0.34-0.322,0.656-0.548,0.98       c-0.226,0.323-0.458,0.656-0.667,0.955l0.599,0.334c-0.379,0.578-0.638,1.312-0.931,2.065       c-0.265,0.764-0.492,1.569-0.965,2.286c0.141,0.2,0.11,0.524-0.019,0.931c-0.139,0.405-0.358,0.898-0.539,1.443       c-0.392,1.081-0.884,2.343-0.842,3.299c-0.224,0.694,0.917-1.469,0.711,0.516c-1.483,0.171-0.171,2.589-1.759,2.708       c0,0,0.109,0.455,0.263,0.903c0.165,0.445,0.331,0.891,0.331,0.891l-0.771,0.422c1.58,1.446-0.628,2.397,0.237,4.665       c0.15-0.146,0.168-0.398,0.298-0.297c-0.054,0.754,0.116,2.484-0.491,1.228c0.05,0.307,0.105,0.803,0.172,1.343       c0.112,0.531,0.238,1.106,0.366,1.578c0.257,0.948,0.516,1.474,0.683,0.454c-0.4,0.246-0.473-1.528-0.469-2.28       c0.668-0.037,0.87,1.79,1.693,2.037c-0.058,0.075-0.112,0.335-0.176,0.531l0.469,0.135c-0.123,1.2,0.29,2.272,0.563,3.304       c0.146,0.514,0.281,1.012,0.361,1.505c0.101,0.483,0.175,0.948,0.133,1.428c0.233,0.001,0.552,0.292,0.851,1.019l-0.745,0.41       c0,0,0.275,0.555,0.55,1.11c0.295,0.544,0.632,1.064,0.632,1.064s0.12-0.399,0.24-0.798c0.12-0.395,0.257-0.787,0.257-0.787       c0.771,1.077,1.111,2.17,1.383,3.283c0.281,1.102,0.621,2.136,1.196,3.106c0.731-0.202,1.249,0.746,2.001,1.752       c0.727,1.018,1.545,2.24,2.718,2.394c0,0-0.249-0.358-0.498-0.716c-0.244-0.36-0.451-0.752-0.451-0.752       c2.444,2.732,3.416,2.468,5.835,4.846c-1.29-0.665-1.903-1.068-2.7-1.503c-0.749-0.502-1.682-1.021-3.661-2.085       c1.801,1.251,2.981,2.706,4.389,3.893c0.69,0.604,1.344,1.253,2.129,1.747c0.787,0.49,1.635,0.928,2.588,1.262       c-0.065-0.431-0.789-1.125,0.201-0.932c0.253,1.108,3.286,1.638,2.376,2.172c1.24,0.263,1.732-0.348,2.454-0.185       c0,0,0.854,0.593,1.708,1.186c0.438,0.298,0.876,0.596,1.205,0.819c0.329,0.234,0.564,0.346,0.564,0.346l-0.073-0.193       c0.915-0.014,1.778,0.039,2.611,0.148c0.417,0.054,0.826,0.123,1.229,0.203c0.408,0.056,0.815,0.104,1.217,0.174       c0.804,0.134,1.594,0.309,2.383,0.509c0.788,0.217,1.587,0.305,2.387,0.485c0.801,0.153,1.61,0.337,2.429,0.465       c0.819,0.081,1.65,0.149,2.491,0.185c1.686,0.14,3.398-0.155,5.109-0.618l-0.217-0.424c0,0,0.466,0.093,0.931,0.185       c0.466,0.055,0.931,0.11,0.931,0.11c-1.442-0.093,0.46-0.702,0.461-1.114c0,0,1.15-0.043,2.299-0.087       c1.143-0.106,2.294-0.285,2.294-0.285C64.402,89.091,63.845,88.335,62.884,88.871z M13.75,68.19l-0.397-0.964       c-0.129-0.169-0.232-0.36-0.251-0.61l0.251,0.61C13.687,67.662,14.175,67.85,13.75,68.19z M62.52,13.138       c0.323,0.538-0.685-0.126-1.019-0.179l1.488,0.647C63.277,13.469,62.724,13.272,62.52,13.138z M18.629,65.679l0.723,0.19       l-0.119,0.782L18.629,65.679z M26.302,75.773l-0.71-1.088l0.158-0.011l0.698,1.077L26.302,75.773z M36.819,87.343       c-0.074-0.063-0.145-0.114-0.222-0.201C36.674,87.193,36.75,87.264,36.819,87.343c0.921,0.776,1.628-0.04,2.231,1.115       C37.712,89.018,37.293,87.872,36.819,87.343z M17.108,72.138c-0.16-0.473-0.237-0.702-0.469-0.969       c-0.158,0.39-0.062,1.505-0.537,0.956c0.065-0.644-0.713-2.118-0.233-2.418C16.094,71.26,17.955,71.252,17.108,72.138z        M12.12,39.762l-0.032,0.362l0.752-1.142L12.12,39.762z M14.677,34.247c0.488-0.174,0.897-0.678,1.272-1.271       c0.368-0.596,0.708-1.28,1.124-1.761c-0.371-0.598-1.704,0.14-2.269,1.571C13.531,34.155,15.391,33.795,14.677,34.247z        M25.203,79.494l0.065-0.621l0.283,0.175l-0.79-1.16c1.724,0.703,1.954,2.403,2.579,3.157       C26.695,80.515,25.755,78.24,25.203,79.494z M22.002,23.866c1.133-0.699,3.229-1.732,3.395-1.226       c-0.567-0.77-2.249,0.114-2.633,0.545C22.582,23.471,22.383,23.609,22.002,23.866z M23.282,25.151       c-1.496,1.019-1.972,0.767-3.496,1.345c0.194-0.426,0.416-0.729,0.654-0.921c0.253-0.18,0.505-0.262,0.736-0.276       c0.461-0.029,0.835,0.211,0.957,0.456c1.154-0.609,0.53-0.849,0.891-1.419L23.282,25.151z M19.989,24.76       c-0.013-0.01-0.399,0.665-0.386,0.674c-0.238,0.982,0.538,1.766-1.09,2.124l1.09-2.124       C19.648,25.211,19.757,24.975,19.989,24.76z M32.361,15.048l-0.851,0.045C32.218,14.786,32.363,14.878,32.361,15.048       l0.703-0.027C31.722,16.056,32.341,15.386,32.361,15.048z M22.762,22.224c0,0-0.106,0.089-0.265,0.222       c-0.147,0.146-0.343,0.341-0.539,0.535c-0.39,0.392-0.781,0.785-0.781,0.785C21.609,23.988,22.32,22.782,22.762,22.224z        M32.31,16.024c-0.815,0.426-2.742,1.85-2.503,1.604C29.731,17.106,31.629,15.97,32.31,16.024z M75.831,23.55l-0.947-0.926       l0.942-0.066L75.831,23.55z M62.615,15.814l0.424-0.208l0.701,0.31L62.615,15.814z M48.772,13.638       c0.063-0.151,0.021-0.335-0.103-0.486c-0.219-0.048-0.414-0.127-0.511-0.263c0.197-0.012,0.39,0.105,0.511,0.263       c0.577,0.131,1.42-0.024,1.813-0.181c-0.227-0.375-1.118-0.271-1.469-0.472c0.327-0.207,0.767-0.261,1.22-0.16       c0.454,0.099,0.921,0.276,1.316,0.403c0.787,0.253,1.315,0.304,0.967-0.872c0.278,0.153,0.891,0.406,1.335,0.667       c0.441,0.306,0.716,0.603,0.369,0.753c-0.732-0.193-1.83-0.157-2.869-0.129c-0.52,0.029-1.028,0.053-1.473,0.137       C49.433,13.402,49.049,13.517,48.772,13.638c-0.061,0.126-0.18,0.229-0.431,0.26C48.411,13.809,48.575,13.723,48.772,13.638z        M31.067,19.51c-0.48,0.224-0.714,0.285-0.844,0.276c-0.489,0.082-0.912,0.085-0.981-0.257c1.098-0.381,0.64,0.233,0.981,0.257       C30.517,19.728,30.814,19.64,31.067,19.51z M28.425,21.499l1.62-0.666l-0.976,0.105c0,0,0.647-0.212,1.308-0.369       c0.669-0.131,1.339-0.262,1.339-0.262C30.7,21.386,29.009,21.861,28.425,21.499z M28.217,22.21l-0.625-0.222l0.78,0.121       L28.217,22.21l0.141,0.051c0,0-0.155,0.091-0.387,0.227c-0.237,0.131-0.543,0.318-0.825,0.538       c-0.582,0.422-1.163,0.844-1.163,0.844s0.546-0.432,1.093-0.864c0.266-0.224,0.548-0.426,0.775-0.559       C28.07,22.304,28.217,22.21,28.217,22.21z M13.702,47.042c0.932,0.619,1.275-0.004,1.566-0.796       c0.339-0.791,0.584-1.783,1.077-1.972c-0.614-0.209-1.423-1.479-1.828,1.318c-0.257-2.524,1.429-1.282,0.108-3.014       c-0.085,1.176-0.771,2.51-0.865,2.719l0.146-1.401c-0.643,0.297-0.584,0.873-0.426,1.465c0.079,0.297,0.181,0.599,0.231,0.884       C13.785,46.533,13.813,46.804,13.702,47.042z M15.857,61.813l0.588,1.734l-0.448-1.679L15.857,61.813z M50.41,85.604       c-0.109-0.444,2.099-1.371,2.705-0.554C51.97,85.23,50.704,85.249,50.41,85.604z M68.615,80.481c0,0-0.481,0.182-0.963,0.363       c-0.239,0.09-0.477,0.179-0.656,0.247c-0.175,0.072-0.306,0.095-0.306,0.095c-0.144-1.064,1.547-0.881,2.276-1.521       C69.52,79.921,68.705,80.025,68.615,80.481z M78.381,71.692l0.52-0.42l-1.213-0.069L78.381,71.692z M76.797,71.558       c-0.061-0.3-0.333-0.216-0.603-0.025c-0.289,0.176-0.596,0.445-0.677,0.58c0,0,0.326-0.13,0.652-0.26       c0.168-0.063,0.325-0.137,0.436-0.197C76.72,71.597,76.797,71.558,76.797,71.558z M81.521,61.302l-0.214,0.768l1.093-0.37       L81.521,61.302z M82.067,62.884c-0.686-0.065-1.377-0.445-1.793,1.36c0.58,0.363,0.8-0.107,1.217,0.87       c0.422-0.497,0.384-1.082,0.466-1.383c-0.286,0.337-0.243,0.91-0.703,0.824C81.33,63.818,81.721,63.215,82.067,62.884       c0.236,0.024,0.461,0,0.643-0.2C82.516,62.616,82.283,62.699,82.067,62.884z M79.508,69.323       c-0.067,0.26-0.097,0.506-0.07,0.647l-0.211-0.003C79.15,69.598,79.304,69.433,79.508,69.323       c0.07-0.287,0.172-0.605,0.281-0.928c-0.383-0.477-1.375,0.415-1.815,0.511c0.45-0.413,1.195-0.573,1.32-1.442       c-0.2,0.004-0.247-0.142-0.501,0.292l0.464-1.004c1.356-0.689,0.945,0.455,0.531,1.642c0.087,0.1,0.152,0.248,0.154,0.525       C79.91,69.134,79.696,69.214,79.508,69.323z M84.718,61.433l-0.379,0.558c-0.325,0.238-0.467-0.037-0.666,0.015       C83.976,61.327,84.686,60.513,84.718,61.433z M56.657,86.133c0.393-0.235-0.708-0.746-1.623-0.428l0.375-0.919       c0.102,0.537,1.996,0.236,2.202,0.177C58.106,85.644,57.32,85.54,56.657,86.133z M17.896,67.931       c0.707-0.798-0.87-2.735-0.873-3.343c0.385,0.529,0.945,1.41,1.231,2.137C18.532,67.453,18.651,67.989,17.896,67.931z        M15.597,64.194c-0.226-0.656-0.389-0.804,0.139-0.932c0.096-0.391-0.359-0.8-0.264-1.188       C16.371,63.154,15.537,63.374,15.597,64.194c0.055,0.173,0.121,0.367,0.209,0.61C15.647,64.568,15.607,64.373,15.597,64.194z        M33.708,83.502l0.506,1.115c0,0,1.354,0.576,1.368,0.539c0,0-0.124-0.093-0.31-0.233c-0.176-0.158-0.411-0.369-0.645-0.58       C34.167,83.922,33.708,83.502,33.708,83.502z M48.577,88.626c-0.101-0.472,1.588-0.349,1.946-0.197       c-0.118-0.556-1.242-0.515-2.136-0.635c-0.113-0.055-0.298-0.095-0.585-0.107c0.173,0.051,0.366,0.081,0.585,0.107       c0.33,0.156,0.086,0.449,0.076,0.657l-0.462,0.151l1.263,0.224L48.577,88.626z M75.162,80.222c0.474-1.051,0.667-1,1.298-1.35       C76.45,79.191,75.795,79.873,75.162,80.222z M40.035,87.887c1.757,0.146-0.578-1.076,0.591-1.077l-0.879-0.162       c1.557-0.251,0.834,0.91,1.88,0.993l-0.696-0.056c-0.669,0.418,0.944,0.643,0.982,1.117       C41.058,88.727,39.322,87.826,40.035,87.887z M76.643,79.397c0.883-1.616,1.524-0.496,2.333-1.228       C78.361,79.572,77.704,78.618,76.643,79.397z M51,90.895l-0.112,0.117l1.49,0.258l0.111-0.12L51,90.895z"></path><path d="M74.003,73.725c0.196-0.325,0.367-0.496,0.535-0.613C74.386,73.322,74.214,73.532,74.003,73.725z"></path><path d="M18.163,59.255c-0.156,0.011-0.264-0.092-0.357-0.246C17.898,59.006,18.008,59.062,18.163,59.255z"></path><path d="M17.832,56.399c-0.004-0.036-0.009-0.075-0.013-0.107c0.011-0.028,0.026-0.066,0.039-0.098L17.832,56.399z"></path><path d="M82.956,39.034c-0.472,0.83-0.325-0.538-0.507-1.028C82.629,38.488,83.183,38.511,82.956,39.034z"></path><path d="M82.53,34.745c-0.057,0.379,0.004,0.842,0.184,1.358C82.544,35.802,82.453,35.439,82.53,34.745z"></path><path d="M83.544,38.028c-0.426-0.712-0.683-1.364-0.83-1.925C82.939,36.584,83.346,36.917,83.544,38.028z"></path><path d="M76.026,25.533c0.115,0.791,1.135,1.561,1.135,1.561c-2.165-1.733-0.238,0.939-0.422,1.344       C75.802,27.071,76.181,26.726,76.026,25.533z"></path><path d="M73.544,22.826c0.214,0.188,0.426,0.36,0.629,0.453C73.896,23.182,73.705,23.017,73.544,22.826z"></path><path d="M72.493,22.479c-0.694-0.649-0.655-1.255-0.781-1.836c1.17,0.427,1.3,1.486,1.832,2.183       c-0.256-0.225-0.498-0.462-0.687-0.567C72.656,22.168,72.52,22.199,72.493,22.479z"></path><path d="M45.418,17.253c0.209,0.024,0.691-0.055,0.736,0.223l-1.448,0.236C44.096,17.637,45.131,17.358,45.418,17.253z"></path><path d="M39.678,17.105c-1.172,0.383-0.335,0.853-0.968,0.908l-0.253-0.931L39.678,17.105z"></path><path d="M38.976,12.251l0.428-0.012c-0.154,0.028-0.305,0.056-0.468,0.086L38.976,12.251z"></path><path d="M34.645,20.232l1.214,0.603C34.863,21.01,34.444,20.267,34.645,20.232z"></path><polygon points="31.156,23.188 31.895,23.052 29.99,24.075      "></polygon><path d="M26.647,26.26l0.016,0.291c0,0-0.083,0.049-0.192,0.137c-0.112,0.086-0.261,0.201-0.411,0.317       c-0.301,0.232-0.602,0.463-0.602,0.463s0.293-0.307,0.585-0.614c0.146-0.153,0.292-0.307,0.402-0.422       C26.566,26.329,26.647,26.26,26.647,26.26z"></path><path d="M31.424,78.702c-0.132,0.423-0.724,0.299-1.287-0.096c-0.577-0.373-1.203-0.884-1.567-1.01       c0.549-0.299,0.882,0.067,1.274,0.478C30.229,78.487,30.681,78.945,31.424,78.702z"></path><path d="M72.732,75.462c0,0-0.466,0.355-0.932,0.71c-0.48,0.336-0.989,0.629-0.989,0.629       C72.029,75.44,71.219,76.519,72.732,75.462z"></path></g></g></g></g></g></svg>