<svg fill="#00DCFF" xmlns="http://www.w3.org/2000/svg" xmlns:xlink="http://www.w3.org/1999/xlink" version="1.1" x="0px" y="0px" viewBox="0 0 100 100" enable-background="new 0 0 100 100" xml:space="preserve"><g><g><g><g><g><polygon points="88.339,51 88.962,50.768 88.096,49.559      "></polygon><path d="M86.937,38.484c-1.057-0.854-2.179-2.685-3.461-2.144c0,0,0.498,0.309,0.924,0.666       c0.446,0.357,0.893,0.714,0.893,0.714c-0.867,0.628-0.298,1.763,0.303,2.776c0,0-0.087-0.312-0.201-0.615       c-0.126-0.299-0.252-0.598-0.252-0.598c0.242,0.272,0.773-0.128,1.018,0.152c0.062,1.039,0.389,1.597,0.695,2.16       c0.278,0.564,0.55,1.136,0.174,2.161l-0.12-0.084l0.864,1.346c-0.077,0.488-0.571,0.37-0.771,0.253       c0.359,0.602,0.715,1.14,1.007,1.754c0.244,0.618,0.395,1.317,0.414,2.222c0.851-0.743,0.512-1.759,0.012-2.7       c-0.5-0.952-0.994-1.844-0.207-2.704l0.121,0.086c-0.429-0.821-0.605-1.745-0.685-2.718       C87.565,40.248,87.515,39.242,86.937,38.484z"></path><path d="M87.004,45.271l-0.064-0.106C86.891,45.181,86.928,45.225,87.004,45.271z"></path><path d="M31.989,15.184l0.063,0.29C32.104,15.333,32.152,15.193,31.989,15.184z"></path><path d="M53.988,14.769l-0.097-0.05C53.718,15.099,53.796,15.01,53.988,14.769z"></path><path d="M67.293,86.674l0.59,0.181C67.607,86.556,67.43,86.549,67.293,86.674z"></path><path d="M87.592,64.592l-0.002-0.05C87.591,64.558,87.592,64.578,87.592,64.592z"></path><path d="M76.302,73.096l-0.317-0.198C76.109,73.069,76.211,73.118,76.302,73.096z"></path><path d="M80.258,65.589c0.187-0.17,0.351-0.348,0.462-0.556C80.462,65.094,80.291,65.336,80.258,65.589z"></path><path d="M87.633,64.931c-0.03-0.109-0.039-0.225-0.041-0.338C87.59,64.715,87.592,64.838,87.633,64.931z"></path><path d="M66.052,80.622l-0.747-0.711C65.457,80.186,65.759,80.407,66.052,80.622z"></path><path d="M80.41,63.419c0.21-0.037,0.354-0.146,0.465-0.277C80.673,63.149,80.488,63.228,80.41,63.419z"></path><path d="M86.196,36.649c0.107,0.256,0.233,0.54,0.462,0.861C86.6,37.147,86.426,36.873,86.196,36.649z"></path><path d="M24.118,71.116c0.119-0.012,0.244-0.047,0.377-0.11C24.321,70.914,24.209,70.988,24.118,71.116z"></path><path d="M47.167,83.822l0.092-0.028c-0.02-0.043-0.05-0.094-0.099-0.158L47.167,83.822z"></path><path d="M39.382,82.35c0.056-0.046,0.112-0.1,0.166-0.161C39.448,82.248,39.408,82.302,39.382,82.35z"></path><path d="M53.061,82.802c0.086-0.09,0.171-0.186,0.236-0.345C53.298,82.466,53.061,82.802,53.061,82.802z"></path><path d="M58.777,82.732c-0.339-0.267-0.155-0.645,0.01-1.019c-0.733-0.052-1.126,0.24-1.552,0.492       c-0.212,0.126-0.43,0.242-0.693,0.299c-0.266,0.039-0.583-0.005-0.974-0.154l0.76,0.364c-0.793,0.798-2.577,1.302-3.499,0.414       l0.233-0.325c-0.844,0.804-2.314-0.542-2.661,0.129c0.374,0.399-0.011,0.661,0.579,1.024c0,0-0.145,0.057-0.362,0.143       c-0.218,0.077-0.51,0.221-0.805,0.296c-0.597,0.167-1.194,0.334-1.194,0.334l-0.12-1.305l-1.24,0.372       c0.131,0.262-0.274,0.152-0.723,0.1c-0.445-0.084-0.942-0.086-1.041,0.52c-0.636-0.573,0.424-0.93,0.715-1.394       c-0.717,0.268-0.707-0.293-1.445,0.351l-0.468-1.213c0,0-0.466,0.155-0.933,0.254c-0.469,0.087-0.939,0.175-0.939,0.175       c0.111-0.082,0.024-0.187,0.13-0.269c-0.5,0.367-0.97,0.101-1.477-0.084c-0.254-0.095-0.522-0.16-0.816-0.138       c-0.289,0.004-0.609,0.114-0.99,0.415c0.07-0.039,0.073-0.096,0.112-0.161c-0.831,0.641-1.983-0.452-2.377-0.817       c-0.927-0.205-0.792,0.826-1.016,1.249c-1.213-0.748-1.613-1-2.065-1.051c-0.463-0.037-0.93,0.086-2.318,0.028       c-0.257-0.987,0.422-1.246,0.995-1.506c0.58-0.255,1.062-0.508,0.592-1.375c-0.275,0.237-0.739,0.317-1.308,0.273       c-0.581-0.023-1.222-0.237-1.853-0.55c-0.359-0.585-0.918-1.241-1.382-1.973c-0.432-0.771-0.808-1.568-0.904-2.309l-0.55,0.755       c0,0-0.414-0.2-0.828-0.399c-0.389-0.235-0.777-0.469-0.777-0.469s0.41-0.051,0.821-0.102c0.402-0.049,0.817-0.127,0.817-0.127       c-0.423,0.048-1.41-0.196-2.153-0.322c-1.843-0.852,0.81-2.031-1.115-2.25c0.048-0.106,0.098-0.205,0.155-0.288       c-0.416,0.042-0.753-0.219-1.115-0.606c-0.363-0.387-0.765-0.886-1.21-1.417l1.244-0.25c0,0,0.044,0.229,0.131,0.432       c0.078,0.209,0.157,0.419,0.157,0.419c0.645-1.006-0.944-1.077-1.342-1.851c-0.814-0.552-1.426,0.315-1.989,0.067       c-0.143-0.304-0.689-0.585-0.493-0.993c-0.029-0.904,1.214-0.714,1.763-0.74c-1.377-0.044-1.341-0.333-2.471-1.53       c0.493-0.305,0.776-0.305,0.968-0.17c-0.273-0.229-0.646-0.373-1.176-0.335l0.454-0.754c0.164-0.997-0.498-1.192-1.264-1.448       c-0.382-0.126-0.789-0.263-1.126-0.507c-0.313-0.251-0.534-0.619-0.583-1.176c0.782,0.402-0.654-1.798-0.008-2.613       c0.298,0.692,1.663-0.681,2.435-0.384c0.19-1.664-1.483-0.381-1.965-1.691l1.557,0.322c-0.836-1.164-0.837-0.187-1.502-1.446       c0.471,0.316,0.332-0.618,0.902,0.103c0.021-1.703-0.056-1.259,0.029-2.752l-1.439-0.092c-0.19-0.518,0.425-0.719,0.705-0.859       c0.005,0.21-0.002,0.538,0.174,0.507c1.195-0.58-0.667-0.977,0.486-1.63c-0.461,0.147-1.103,0.327-1.156-0.317       c0.867,0.239,0.859-0.92,1.229-0.936c-0.311,0.174-0.364-0.163-0.459-0.57c-0.114-0.408-0.155-0.873-0.636-0.976       c0.765-0.646,0.652,0.314,1.121,0.401c-1.013-0.721,0.213-2.51-0.316-3.164c0.089,0.006,0.158-0.01,0.213,0.003       c-0.45-0.885-0.358-2.183-0.815-4.014c0,0,0.149,0.192,0.298,0.385c0.145,0.189,0.311,0.382,0.311,0.382       c0.864-1.383-1.314-1.46-0.829-2.764c0.498,0.344,0.669-0.195,0.841-0.69c0.171-0.497,0.424-0.912,0.879-0.383       c-0.265-0.99-0.16-1.905-0.822-2.863c0.921-0.4,0.789,2.062,1.553,1.241l-0.051-1.32l0.658,0.125       c-0.394-0.266,0.099-1.151-0.248-1.295c0.752,0.227,1.443,0.117,1.908,0.461c0.178-0.724,1.259-1.176,1.091-2.001l0.335,0.173       c-0.736-1.368,1.045-1.878,0.119-3.077l0.905,0.171c0.625-0.895-0.621-1.73-0.523-2.359c0.267-0.377,0.53-0.912,0.949-1.182       c-0.17,0.887,0.168,0.937,0.604,0.8c0.432-0.144,1.041-0.408,1.324-0.325c0.442-0.355,1.561-1.587,1.487-2.425       c-0.069,1.005,0.66,1.211-0.197,2.062c0.714,0.32,0.972-0.051,1.235-0.582c0.28-0.504,0.553-1.194,1.157-1.522l0.382,0.544       c1.238-1.52,0.734-2.415,0.861-3.873c0.637,0.573,0.567,0.866,0.539,1.854c0.684-0.129,1.378-0.569,2.074-1.07       c0.729-0.434,1.473-0.91,2.148-1.187c0.653,0.332,0.515,0.775,0.205,1.208c0.26-0.301,0.581-0.534,0.917-0.741       c0.342-0.192,0.715-0.318,1.054-0.484c0.684-0.322,1.264-0.72,1.485-1.578c-0.17,0.674,0.681,0.143,1.3,0.306       c-0.083-0.289-0.086-0.687-0.01-0.664c0.366-0.399,1.024-0.862,1.746-1.199c0.714-0.367,1.528-0.418,2.107-0.268l-0.321,0.481       c0.629-0.035,1.142-0.227,1.617-0.486c0.237-0.128,0.463-0.28,0.689-0.424l0.681-0.388c0.911-0.49,1.928-0.963,3.344-0.418       c0.496,0.336-0.524,1.172,0.486,1.186c0.502-0.509,0.388-1.631,1.7-1.256l-0.155,0.948l0.97-0.914       c-0.39-0.811-1.935-0.612-0.812-1.439c1.144,0.947,1.172-0.852,2.535,0.424c-0.357,0.045-0.887,0.703-1.16,1.05       c1.424,0.798,2.476,0.687,3.568,0.676c1.064,0.055,2.2,0.083,3.482,1.092c1.655-0.187,3.618,0.304,4.868,0.209       c-0.481,0.828-0.838,1.595-1.757,1.984c1.057,0.646,2.588-1.009,2.76,0.627c1.164-0.857,3.508,1.123,4.806-0.193       c-0.159,0.343,1.167,0.886-0.553,0.877c1.837,0.62,0.965,2.71,1.596,3.171c0.39,0.247,0.338-1.246,1.158-0.577       c0.046,0.147-0.052,0.308-0.005,0.455l0.581-0.05c0.033,0.596-0.936,0.373-1.27,0.713c0.404,0.629,1.012,0.824,1.707,1.013       c0.345,0.096,0.719,0.181,1.077,0.328c0.344,0.161,0.687,0.371,1.004,0.676l-0.434-0.003l1.141,1.353l-0.147-0.005       c0,0,0.363,0.16,0.726,0.319c0.366,0.161,0.696,0.361,0.696,0.361l-0.396,0.262c0.302,0.181,0.581,0.06,0.906,0.4l-0.553,0.237       c0.494-0.096,1.098,0.128,1.648,0.468c0.558,0.334,1.04,0.794,1.249,1.168l-0.136,0.281c0,0,0.512,0.272,1.024,0.544       c0.52,0.286,1.039,0.572,1.039,0.572c0.012,1.233-1.918-0.48-0.434,1.119l-1.323,0.122c1.147,1.045,0.603,1.574,1.425,2.283       c0.351-0.668-0.037-1.277,0.669-1.037c-0.356,0.835-0.08,1.206,0.422,1.493c0.515,0.279,1.212,0.49,1.663,0.941       c-0.223-0.547-0.356-0.933-1.176-1.008c-0.246-0.564,0.484-0.459,0.366-0.827l-0.99-0.507l0.627-0.587l-1.239-1.063       c0.89-0.377-0.614-1.251,0.573-1.241c-0.904-0.71-0.649-1.607-1.965-1.91c0.101-0.941,1.184,0.596,0.862-0.118       c-3.019-3.173-5.82-6.469-9.152-9.492l0.615-0.076c-0.619,0.072-1.287,0.008-1.734,0.078c-0.081-0.511-0.526-1.477-1.271-2.104       c-0.734-0.638-1.662-1.066-2.455-0.703c-0.082-0.143,0.213-0.213,0.36-0.251c-0.663-0.342-1.502-0.97-2.434-1.651       c-0.464-0.342-0.952-0.694-1.45-1.01c-0.507-0.295-1.044-0.509-1.561-0.666c-0.696,0.555-1.355,0.061-2.052-0.371       c-0.696-0.416-1.457-0.674-2.105,0.217l0.535-0.303c0.531,0.73-1.365,1.132-1.742,1.561c-0.247-1.454,0.211-1.012-0.2-2.398       l0.711,0.666l0.079-1.127c-1.647,1.002-2.773,0.579-3.846-0.032c-0.532-0.292-1.039-0.618-1.536-0.729       c-0.498-0.081-0.983,0.022-1.437,0.519c0.11-0.103,0.095-0.286,0.214-0.385c-1.102-0.687-1.961,0.686-2.754,1.027       c-0.094-0.56,0.487-0.883,0.935-1.29c-0.994-0.318-2.342,0.088-3.677,0.353c-1.346,0.229-2.658,0.651-3.813,0.369       c-0.631,0.857,0.444,0.947-0.232,1.625c-0.675-0.107-1.269-0.624-0.525-1.125c-0.531-0.288-1.171-0.263-1.87-0.073       c-0.701,0.178-1.463,0.495-2.244,0.823c-0.784,0.319-1.543,0.791-2.331,1.074c-0.775,0.321-1.592,0.447-2.361,0.499       c-1.022,1.413-0.032,1.339-1.809,2.81c0.235-0.707-1.354-1.37-0.125-2.037l-0.112-0.596c-1.114,0.424-2.335,1.091-3.328,1.863       c-0.492,0.39-0.941,0.783-1.238,1.252c-0.291,0.478-0.466,0.978-0.473,1.5c-0.78-0.939-0.472,0.058-1.574,0.065       c-0.204,0.323,0.14,0.126,0.304,0.103c-0.035,1.33-1.063,0.726-1.406,1.28l0.023-0.309l-0.731,1.684       c-0.309,0.068-0.775,0.177-1.077-0.052l0.593,0.609c-0.631,0.615-1.107-0.522-1.71,0.463l0.613,0.271       c-0.761,0.249-0.864,1.677-1.651,1.166c-0.157-0.1-0.005-0.152,0.143-0.358c-0.849-0.017-1.282,0.592-1.621,1.293       c-0.311,0.73-0.558,1.523-1.212,1.899l1.315,0.538c-0.424,1.295-0.707,0.474-1.068,0.154c-0.261,0.359-0.512,0.513-0.803,0.688       c-0.272,0.187-0.575,0.4-0.949,0.866c-0.008,0.685,0.272,0.528,0.513,0.897l-0.903,0.847l-0.245-1.043       c0.186,0.658,0.125,1.216-0.063,1.725c-0.175,0.515-0.425,1.008-0.699,1.471c-0.524,0.933-1.085,1.799-0.447,2.713       c-0.602,0.499-0.548-0.897-0.906-0.601c-0.79,0.86-0.915,2.152-1.015,3.344c-0.057,1.215-0.006,2.363-0.737,3.119       c-0.207,0.33-0.402,0.674-0.547,1.036c-0.127,0.366-0.233,0.744-0.322,1.13c-0.179,0.773-0.294,1.579-0.398,2.394       c-0.088,0.817-0.063,1.652-0.137,2.481c-0.037,0.831-0.216,1.661-0.315,2.494l0.367-0.064l-0.18,2.363       c0.44,0.288,0.546,0.833,0.752,1.411c0.215,0.576,0.455,1.192,1.004,1.596c-0.302-0.035-0.716,0.238-0.96,0.048       c0.282,0.97,0.785,1.952,0.482,2.619l-0.392-0.257c0.162,1.099,0.434,2.408,0.789,3.551c0.441,1.116,0.978,2.057,1.499,2.471       c0.339,0.671-0.282,0.904-0.625,1.269c0.485,1.208,1.228,1.818,2.202,2.493c-0.018,0.32-0.032,0.648-0.193,1.095l1.038-0.016       c0.163,0.516-0.583,0.468-0.566,0.949c0.996,0.589,1.551,1.497,2.03,2.389c0.518,0.862,0.901,1.748,1.351,2.293l0.233-0.437       c0.613,0.244,0.816,1.529,0.041,1.273c0.714,1.235,1.708,1.773,2.757,2.351c1.08,0.559,2.323,1.049,3.605,2.377       c-0.316,0.787,0.443,1.209,1.178,1.638c0.741,0.427,1.446,0.88,1.177,1.787c1.616,0.444,2.138,1.616,3.61,1.253       c-0.058,0.175,0.024,0.313-0.211,0.217c0.239,0.878,2.401,1.383,4.021,1.577l-0.126,0.542c0.996-0.919,3.408,0.384,4.296-0.645       c0.09,0.29-0.431,0.422-0.702,0.551c0.46,1.31,1.529-0.158,2.45,0.347c-0.148,0.265,0.072,0.672-0.193,0.827       c0.388,0.266,0.817,0.486,1.279,0.67c0.465,0.165,0.97,0.25,1.491,0.331c0.523,0.076,1.067,0.125,1.623,0.158       c0.556,0.038,1.124,0.061,1.704,0.002c1.158-0.081,2.336-0.155,3.505-0.187c1.17-0.115,2.333-0.144,3.496,0.015       c1.265-0.066-0.565-1.172,1.052-1.305c0.547,0.532-0.658,1.338,0.42,1.436c0.665-0.857,0.948-0.743,1.972-0.829       c-0.115,0.421,0.103,0.655-0.576,1.036c0.338,0.2,0.937-0.131,1.603-0.417c0.657-0.346,1.378-0.647,2.085-0.315       c-0.151-0.342,0.007-0.604,0.164-0.864c0.352-0.362,0.778-0.54,1.229-0.616c0.444-0.097,0.904-0.124,1.333-0.105       c0.855,0.031,1.569,0.171,1.54-0.129c0,0,0.514-0.365-0.03-0.3c0.613-0.186,1.534-0.377,1.615,0.212       c0.181-0.443,0.239-1.032,0.668-1.302l0.043,0.748c0.206-0.263,0.323-0.804,0.541-1.004l-0.587-0.185       c0.915,0.199,1.549-1.651,2.132-0.465l-0.209,0.136c0,0,0.386-0.003,0.748-0.062c0.37-0.049,0.74-0.098,0.74-0.098       c0.212-0.753,0.398-1.492,1.271-1.813c1.086,1.012,2.105-1.095,3.113-1.676l0.251,0.409c0.376-1.028,2.264-2.413,1.802-2.3       c0.651-0.6,1.778-1.179,1.748-0.572c0.373-0.671,1.387-1.858,1.06-2.657c0,0,0.461-0.079,0.921-0.158       c0.467-0.087,0.934-0.175,0.934-0.175c-0.352-0.874,0.175-1.37,0.676-1.789c0.492-0.422,0.921-0.783,0.211-1.341       c0.708-0.486,0.938-0.1,1.522-0.393c-0.138-1.468,0.579-2.36,1.319-3.304l0.181,0.064c0.683-0.986,0.46-2.646,1.053-4.136       l1.392,0.2c0.127-0.904-0.797-1.472-0.248-2.136c0.264-0.108,0.271,0.085,0.266,0.317c0.015-0.85,0.742-1.748,1.189-2.266       c-0.643-1.479-0.042-2.309-0.842-3.575c0.66-0.349,0.758,0.026,0.795,0.419c0.031,0.388,0.046,0.801,0.703,0.517       c0.548-0.798,0.618-1.724,0.616-2.663c-0.028-0.946-0.164-1.917-0.449-2.909c0.269-0.147,0.471,0.086,0.758,0.192       c0,0-0.771-1.072-1.718-1.968C87.7,51.382,86.57,50.666,85.906,51c-0.915-0.46-1.41-0.907-2.219,0.523       c0.51,0.463,1.088,1.868,0.074,2.042l0.946,0.157c0.184,0.995-0.335,0.986-0.887,1.015c-0.553,0.031-1.167,0.098-1.323,1.188       l0.382-0.418c-0.007,0.419,0.545,0.855,0.166,1.278c-0.282,0.096-0.367-0.229-0.553-0.442c0,0,0.249,0.514,0.498,1.028       c0.126,0.262,0.251,0.527,0.315,0.722c0.074,0.198,0.123,0.33,0.123,0.33c-0.563-0.042-0.831-0.179-1.156-0.621       c-0.386,1.65,1.79,0.035,0.892,2.012c-0.501,0.266-0.531-0.285-0.772-0.628c-1.049,0.719-0.398,1.541-0.299,2.65       c-0.809-0.263-0.492-0.832-1.289-0.251c0.477-0.004,1.22,0.129,1.078,0.76c-0.705-0.575-0.597,0.299-1.01,0.797       c0.318-0.008,0.678,0.18,0.732,0.468c0.008,0.336-0.36,0.469-0.511,0.868c0,0,0.283-0.086,0.549-0.184       c0.261-0.103,0.523-0.206,0.523-0.206c0.345,1.352-1.133,1.403-1.788,1.975c-0.112-0.131-0.148-0.305-0.123-0.473       c-0.686,0.631-1.633,1.069-1.581,2.332l-0.044-0.132c-0.345,2.19,1.568,0.162,0.958,2.694c-0.588,0.585-2.068-1.833-2.32,0.179       c1.121-0.275,0.717,1.984,0.297,3.086c0,0-0.153-0.484-0.306-0.967c-0.162-0.474-0.323-0.948-0.323-0.948       c-0.265,0.321-0.33,1.214-0.637,1.263l0.321,0.2c1.123,0.85-1.074,0.886-0.963,2.036c-0.753-2.023-0.466-1.79-1.777-3.186       c0.159,0.599,0.273,1.218,0.215,1.798c-0.029,0.29-0.101,0.569-0.23,0.83c-0.14,0.25-0.355,0.462-0.633,0.651       c0,0-0.055-0.445-0.11-0.891c-0.051-0.434-0.145-0.891-0.145-0.891c-0.71,0.486-1.089,1.401-1.327,2.521       c-0.214,1.142-0.469,2.277-0.696,3.252c-0.329-1.115-1.04-1.068-1.101-2.192l-1.2,1.184l-0.31-1.262       c0.187,1.435-0.956,1.081,0.013,2.367c0.043-0.275-0.079-0.417,0.229-0.546c0.233,0.419,0.516,1.395-0.306,1.811       c-0.726-0.019-0.015-0.709-0.399-1c-0.153,0.844-0.716-0.024-0.984,0.676l0.799,0.311c0.091,0.996-0.826,0.572-1.137,1.244       c0.454-0.684-0.029-1.046-0.508-1.388l0.089,0.085c-0.346,0.236-0.572,1.05-1.074,0.708l-0.252-1.292l-0.139,1.102       c-0.283-0.038-0.621-0.375-0.377-0.76c-1.012,0.057-0.713,0.672-0.511,1.277c0.102,0.302,0.182,0.602,0.059,0.831       c-0.119,0.236-0.451,0.394-1.174,0.331c-0.138-0.474,0.013-0.826,0.75-0.853c-0.212-0.769-0.527-1.055-1.259-1.11       c-0.033-0.049-0.038-0.088-0.057-0.131C60.905,81.211,59.391,81.766,58.777,82.732z"></path><path d="M62.108,80.811c0.647-0.198,1.132-0.517,1.305-0.764C63.194,79.891,61.794,80.122,62.108,80.811z"></path><path d="M35.815,20.634c-0.065,0.073-0.125,0.147-0.179,0.227C35.698,20.783,35.757,20.708,35.815,20.634z"></path><path d="M40.936,18.335c-0.094-0.114-0.223-0.168-0.365-0.197C40.639,18.376,40.761,18.543,40.936,18.335z"></path><path d="M19.78,64.492l-0.02-0.017L19.78,64.492z"></path><path d="M21.685,34.566c-0.104-0.613-0.299-0.949-0.565-1.142C21.046,33.743,21.161,34.109,21.685,34.566z"></path><path d="M17.437,44.16c0.044,0.078,0.078,0.159,0.143,0.232C17.536,44.226,17.502,44.175,17.437,44.16z"></path><path d="M21.057,65.693c-0.567-0.225-0.824-0.822-1.277-1.201C20.184,64.803,20.197,65.776,21.057,65.693z"></path><polygon points="47.606,15.8 47.073,16.468 47.647,15.982      "></polygon><path d="M42.275,16.99c-0.274-0.093-1.096,0.539-0.745,0.801C41.725,17.41,42.005,17.199,42.275,16.99z"></path><polygon points="24.104,26.779 24.453,27.423 24.388,26.7      "></polygon></g></g></g></g></g></svg>