<svg fill="#00FFDC" xmlns="http://www.w3.org/2000/svg" xmlns:xlink="http://www.w3.org/1999/xlink" version="1.1" x="0px" y="0px" viewBox="0 0 100 100" enable-background="new 0 0 100 100" xml:space="preserve"><path fill="#00FFDC" d="M90.359,49.436h-6.566C83.738,35.803,75.283,23,61.736,18.098c-3.096-1.121-6.332-1.775-9.621-1.947  l-1.659-6.639c-0.003-0.012-0.012-0.016-0.018-0.023c-0.018-0.029-0.043-0.053-0.08-0.053s-0.062,0.023-0.08,0.053  c-0.006,0.008-0.015,0.012-0.018,0.023l-1.659,6.639c-17.778,0.934-31.633,15.676-31.675,33.285h-6.568c-0.055,0-0.1,0.045-0.1,0.1  s0.045,0.1,0.1,0.1h6.569c0.002,0.525,0.013,1.053,0.04,1.582c0.56,11.131,6.588,21.199,16.129,26.949l-2.836,11.346  c-0.01,0.043,0.01,0.088,0.049,0.111c0.038,0.021,0.088,0.014,0.119-0.018l8.613-8.611c3.656,1.316,7.441,1.975,11.217,1.99v6.551  c0,0.055,0.045,0.1,0.1,0.1s0.1-0.045,0.1-0.1v-6.551c3.797-0.01,7.581-0.684,11.211-1.996l8.619,8.617  c0.02,0.02,0.045,0.029,0.07,0.029c0.018,0,0.033-0.004,0.049-0.012c0.039-0.023,0.059-0.068,0.049-0.111l-2.836-11.344  c6.562-3.939,11.535-9.959,14.176-17.254c1.348-3.723,1.986-7.531,1.992-11.279h6.57c0.055,0,0.1-0.045,0.1-0.1  S90.414,49.436,90.359,49.436z M61.668,18.285c13.467,4.875,21.871,17.598,21.926,31.15h-0.637  C82.904,32.168,69.357,18.021,52.328,17l-0.16-0.646C55.414,16.531,58.611,17.18,61.668,18.285z M33.361,77.115  c-4.678-2.883-8.568-6.934-11.258-11.725c-2.695-4.803-4.125-10.248-4.143-15.756h2.307c0.004,0.807,0.029,1.617,0.099,2.436  c0.777,9.191,5.854,17.668,13.583,22.695L33.361,77.115z M47.751,19.551c-15.617,1.357-27.445,14.482-27.486,29.885h-0.638  c0.024-7.74,2.933-15.123,8.198-20.801c5.258-5.668,12.387-9.117,20.088-9.732L47.751,19.551z M34,74.559  c-7.645-4.998-12.664-13.398-13.435-22.506c-0.069-0.811-0.095-1.617-0.098-2.418H40.23L34,74.559z M20.465,49.436  c0.04-15.277,11.755-28.297,27.235-29.678l-7.42,29.678H20.465z M50.259,10.348v39.088h-9.772L50.259,10.348z M80.26,49.436H60.438  l-7.42-29.678c2.033,0.18,4.057,0.57,6.021,1.164C71.895,24.822,80.209,36.652,80.26,49.436z M50.458,69.777l8.424,8.424  c-2.742,0.822-5.574,1.24-8.424,1.246V69.777z M60.488,49.635h19.768c-0.008,2.842-0.418,5.727-1.285,8.58  C76.91,65.012,72.6,70.727,66.719,74.559L60.488,49.635z M50.259,79.447c-2.816-0.014-5.645-0.43-8.416-1.254l8.416-8.416V79.447z   M41.68,78.355c2.824,0.852,5.708,1.277,8.579,1.291v2.287c-3.549-0.012-7.049-0.602-10.406-1.752L41.68,78.355z M50.458,79.648  c2.903-0.006,5.788-0.445,8.581-1.291l0.508,0.508c-2.873,0.9-5.924,1.391-9.088,1.4V79.648z M66.77,74.762  c5.951-3.855,10.311-9.625,12.393-16.49c0.873-2.873,1.285-5.777,1.293-8.637h0.635c-0.035,10.807-5.678,20.311-14.162,25.764  L66.77,74.762z M80.459,49.436c-0.051-12.869-8.42-24.777-21.363-28.705c-1.998-0.605-4.061-1-6.129-1.18l-0.588-2.346  c16.895,1.045,30.326,15.09,30.377,32.23H80.459z M48.55,16.355l-0.585,2.342c-7.777,0.604-14.979,4.082-20.286,9.801  c-5.3,5.715-8.227,13.146-8.252,20.938h-2.301C17.169,31.951,30.91,17.314,48.55,16.355z M17.167,51.207  c-0.025-0.525-0.037-1.049-0.039-1.572h0.632c0.017,5.541,1.456,11.021,4.169,15.854c2.715,4.84,6.65,8.93,11.381,11.832  l-0.162,0.643C23.695,72.24,17.723,62.25,17.167,51.207z M40.437,49.635h9.822v19.859L30.543,89.209L40.437,49.635z M39.201,80.836  l0.494-0.496c3.406,1.18,6.96,1.783,10.564,1.793v0.652C46.537,82.771,42.807,82.121,39.201,80.836z M50.458,82.781v-2.314  c3.221-0.012,6.327-0.518,9.247-1.445l1.816,1.816C57.936,82.125,54.203,82.773,50.458,82.781z M81.609,60.846  c-2.617,7.232-7.543,13.201-14.039,17.119l-0.59-2.361c8.57-5.484,14.273-15.068,14.309-25.969h2.301  C83.582,53.361,82.947,57.146,81.609,60.846z"></path></svg>