<svg fill="#00DCFF" xmlns="http://www.w3.org/2000/svg" xmlns:xlink="http://www.w3.org/1999/xlink" version="1.1" x="0px" y="0px" viewBox="0 0 128 128" enable-background="new 0 0 128 128" xml:space="preserve"><g><path d="M120.6,16.6c0.4,0,0.8-0.3,0.8-0.8V5.7c0-0.4-0.3-0.8-0.8-0.8c-0.4,0-0.8,0.3-0.8,0.8v10.2   C119.8,16.3,120.1,16.6,120.6,16.6z"></path><path d="M120.6,23.2c0.4,0,0.8-0.3,0.8-0.8v-3.3c0-0.4-0.3-0.8-0.8-0.8c-0.4,0-0.8,0.3-0.8,0.8v3.3   C119.8,22.9,120.1,23.2,120.6,23.2z"></path><path d="M104.9,5.7c0.1,0.1,0.3,0.2,0.5,0.2c0.2,0,0.4-0.1,0.5-0.2c0.3-0.3,0.3-0.8,0-1.1L104.4,3c-0.3-0.3-0.8-0.3-1.1,0   c-0.3,0.3-0.3,0.8,0,1.1L104.9,5.7z"></path><path d="M109.9,10.7c0.1,0.1,0.3,0.2,0.5,0.2c0.2,0,0.4-0.1,0.5-0.2c0.3-0.3,0.3-0.8,0-1.1l-1.5-1.5c-0.3-0.3-0.8-0.3-1.1,0   c-0.3,0.3-0.3,0.8,0,1.1L109.9,10.7z"></path><path d="M103.9,10.9c0.2,0,0.4-0.1,0.5-0.2l1.5-1.5c0.3-0.3,0.3-0.8,0-1.1c-0.3-0.3-0.8-0.3-1.1,0l-1.5,1.5c-0.3,0.3-0.3,0.8,0,1.1   C103.5,10.8,103.7,10.9,103.9,10.9z"></path><path d="M108.9,5.9c0.2,0,0.4-0.1,0.5-0.2l1.5-1.5c0.3-0.3,0.3-0.8,0-1.1c-0.3-0.3-0.8-0.3-1.1,0l-1.5,1.5c-0.3,0.3-0.3,0.8,0,1.1   C108.5,5.8,108.7,5.9,108.9,5.9z"></path><path d="M122.3,103.6l-1.5-1.5c-0.3-0.3-0.8-0.3-1.1,0c-0.3,0.3-0.3,0.8,0,1.1l1.5,1.5c0.1,0.1,0.3,0.2,0.5,0.2   c0.2,0,0.4-0.1,0.5-0.2C122.6,104.3,122.6,103.9,122.3,103.6z"></path><path d="M125.7,107c-0.3-0.3-0.8-0.3-1.1,0c-0.3,0.3-0.3,0.8,0,1.1l1.5,1.5c0.1,0.1,0.3,0.2,0.5,0.2c0.2,0,0.4-0.1,0.5-0.2   c0.3-0.3,0.3-0.8,0-1.1L125.7,107z"></path><path d="M121.2,107l-1.5,1.5c-0.3,0.3-0.3,0.8,0,1.1c0.1,0.1,0.3,0.2,0.5,0.2c0.2,0,0.4-0.1,0.5-0.2l1.5-1.5c0.3-0.3,0.3-0.8,0-1.1   C122,106.7,121.5,106.7,121.2,107z"></path><path d="M124.7,104.6c0.1,0.1,0.3,0.2,0.5,0.2c0.2,0,0.4-0.1,0.5-0.2l1.5-1.5c0.3-0.3,0.3-0.8,0-1.1c-0.3-0.3-0.8-0.3-1.1,0   l-1.5,1.5C124.4,103.9,124.4,104.3,124.7,104.6z"></path><path d="M1.8,100.3c-0.3-0.3-0.8-0.3-1.1,0c-0.3,0.3-0.3,0.8,0,1.1l1.5,1.5c0.1,0.1,0.3,0.2,0.5,0.2c0.2,0,0.4-0.1,0.5-0.2   c0.3-0.3,0.3-0.8,0-1.1L1.8,100.3z"></path><path d="M6.8,105.3c-0.3-0.3-0.8-0.3-1.1,0c-0.3,0.3-0.3,0.8,0,1.1l1.5,1.5c0.1,0.1,0.3,0.2,0.5,0.2s0.4-0.1,0.5-0.2   c0.3-0.3,0.3-0.8,0-1.1L6.8,105.3z"></path><path d="M2.3,105.3l-1.5,1.5c-0.3,0.3-0.3,0.8,0,1.1c0.1,0.1,0.3,0.2,0.5,0.2c0.2,0,0.4-0.1,0.5-0.2l1.5-1.5c0.3-0.3,0.3-0.8,0-1.1   C3,105,2.6,105,2.3,105.3z"></path><path d="M7.3,100.3l-1.5,1.5c-0.3,0.3-0.3,0.8,0,1.1c0.1,0.1,0.3,0.2,0.5,0.2s0.4-0.1,0.5-0.2l1.5-1.5c0.3-0.3,0.3-0.8,0-1.1   C8.1,100,7.6,100,7.3,100.3z"></path><path d="M11.7,25c0-2.2-1.8-4-4-4s-4,1.8-4,4c0,2.2,1.8,4,4,4S11.7,27.2,11.7,25z M5.3,25c0-1.4,1.1-2.5,2.5-2.5   c1.4,0,2.5,1.1,2.5,2.5c0,1.4-1.1,2.5-2.5,2.5C6.4,27.4,5.3,26.3,5.3,25z"></path><path d="M22.4,115.7c-2.2,0-4,1.8-4,4c0,2.2,1.8,4,4,4s4-1.8,4-4C26.4,117.4,24.6,115.7,22.4,115.7z M22.4,122.1   c-1.4,0-2.5-1.1-2.5-2.5c0-1.4,1.1-2.5,2.5-2.5c1.4,0,2.5,1.1,2.5,2.5C24.9,121,23.8,122.1,22.4,122.1z"></path><path d="M16.5,4.3c0.4,0,0.8-0.3,0.8-0.8s-0.3-0.8-0.8-0.8H4.2c-0.4,0-0.8,0.3-0.8,0.8s0.3,0.8,0.8,0.8H16.5z"></path><path d="M20.5,4.3h4c0.4,0,0.8-0.3,0.8-0.8s-0.3-0.8-0.8-0.8h-4c-0.4,0-0.8,0.3-0.8,0.8S20.1,4.3,20.5,4.3z"></path><path d="M25.2,7.8c0-0.4-0.3-0.8-0.8-0.8h-8.5c-0.4,0-0.8,0.3-0.8,0.8c0,0.4,0.3,0.8,0.8,0.8h8.5C24.8,8.5,25.2,8.2,25.2,7.8z"></path><path d="M13,7.8C13,7.4,12.7,7,12.2,7H9.5C9.1,7,8.7,7.4,8.7,7.8c0,0.4,0.3,0.8,0.8,0.8h2.8C12.7,8.5,13,8.2,13,7.8z"></path><path d="M117.6,117.5c0-0.4-0.3-0.8-0.8-0.8h-12.2c-0.4,0-0.8,0.3-0.8,0.8c0,0.4,0.3,0.8,0.8,0.8h12.2   C117.3,118.3,117.6,117.9,117.6,117.5z"></path><path d="M124.8,116.8h-4c-0.4,0-0.8,0.3-0.8,0.8c0,0.4,0.3,0.8,0.8,0.8h4c0.4,0,0.8-0.3,0.8-0.8   C125.6,117.1,125.2,116.8,124.8,116.8z"></path><path d="M124.8,121h-8.5c-0.4,0-0.8,0.3-0.8,0.8c0,0.4,0.3,0.8,0.8,0.8h8.5c0.4,0,0.8-0.3,0.8-0.8C125.6,121.3,125.2,121,124.8,121   z"></path><path d="M112.6,121h-2.8c-0.4,0-0.8,0.3-0.8,0.8c0,0.4,0.3,0.8,0.8,0.8h2.8c0.4,0,0.8-0.3,0.8-0.8C113.4,121.3,113.1,121,112.6,121   z"></path><path d="M84,75.6c4.4-3.1,8.3-6.2,11.7-9.4c0.9,0.9,1.7,1.7,2.5,2.6c0,0-0.1,0.1-0.1,0.1c0,0.1-0.1,0.1-0.1,0.2   c-0.2,0.3-0.4,0.5-0.6,0.8c-1.6,2.8-0.7,6.4,2.1,8c0.2,0.1,0.5,0.2,0.7,0.3c0.1,0,0.2,0.1,0.3,0.1c0.2,0.1,0.3,0.1,0.5,0.2   c0.1,0,0.2,0,0.3,0.1c0.1,0,0.3,0.1,0.4,0.1c0.1,0,0.3,0,0.4,0c0.1,0,0.2,0,0.3,0c0,0,0,0,0,0c0.2,0,0.4,0,0.6,0c0.1,0,0.1,0,0.2,0   c0.2,0,0.5-0.1,0.7-0.2c0,0,0,0,0,0c0.5-0.1,1-0.4,1.5-0.6c0,0,0,0,0,0c0,0,0,0,0,0c0.8-0.5,1.5-1.2,2-2.1c1.6-2.8,0.7-6.4-2.1-8   c-1.9-1.1-4.2-1-6,0.1c-0.8-0.9-1.7-1.8-2.6-2.7c9.3-9.2,13.6-18.2,10.3-23.9c-2.6-4.4-9.3-6-18.9-4.5c-2.3,0.4-4.7,0.9-7.2,1.6   c-0.1-0.1-0.3-0.1-0.5,0c-0.2,0-0.3,0.2-0.4,0.3c-4.6,1.3-9.4,3.2-14.3,5.4c-4.9-2.3-9.6-4.1-14-5.3c0.3-1.2,0.7-2.4,1-3.5   c0.1,0,0.1,0,0.2,0c0.1,0,0.1,0,0.2,0c0.3,0.1,0.7,0.1,1,0.1c3.2,0,5.8-2.6,5.8-5.8c0-2.1-1.2-4.1-3.1-5.2c0,0,0,0,0,0c0,0,0,0,0,0   c-0.9-0.4-1.8-0.7-2.8-0.7c-3.2,0-5.8,2.6-5.8,5.8c0,2.2,1.2,4.1,3.1,5.1c-0.4,1.2-0.7,2.4-1.1,3.6c-12.5-3.4-22.3-2.5-25.6,3.1   c-2.6,4.4-0.6,11.1,5.6,18.6c4.3,5.3,10.2,10.6,17.2,15.5c0.5,5.3,1.3,10.3,2.3,14.7c-1.1,0.3-2.2,0.6-3.3,0.8c0-0.1,0-0.1-0.1-0.2   c0-0.1,0-0.1-0.1-0.2c-0.1-0.3-0.2-0.6-0.4-0.9c-0.8-1.4-2-2.3-3.6-2.7c-1.5-0.4-3.1-0.2-4.4,0.6c-1.9,1.1-3,3.1-2.9,5.2   c0,0,0,0,0,0c0,0,0,0,0,0c0,1,0.3,1.9,0.8,2.7c0.8,1.4,2,2.3,3.6,2.7c0.5,0.1,1,0.2,1.5,0.2c1,0,2-0.3,2.9-0.8   c1.9-1.1,3-3.1,2.9-5.2c1.1-0.2,2.3-0.5,3.4-0.8c3.3,12.6,9,20.7,15.5,20.7c6.6,0,12.2-8.2,15.6-20.8c0.1-0.1,0.3-0.2,0.3-0.4   c0.1-0.2,0-0.4-0.1-0.6C82.7,86.1,83.5,81,84,75.6z M104.5,69.1c2.1,1.2,2.8,3.9,1.6,5.9c-0.4,0.6-0.9,1.1-1.5,1.5   c-0.5,0.3-1,0.5-1.5,0.6c0,0-0.1,0-0.1,0c-0.1,0-0.2,0-0.3,0c-0.1,0-0.2,0-0.3,0c-0.1,0-0.1,0-0.2,0c-0.1,0-0.3,0-0.4,0   c0,0,0,0-0.1,0c-0.6-0.1-1.1-0.3-1.6-0.5c-2.1-1.2-2.8-3.9-1.6-5.9c0.3-0.5,0.6-0.9,1.1-1.2C101.1,68.3,103,68.2,104.5,69.1z    M49.9,29.5c0-2.4,1.9-4.3,4.3-4.3c0.7,0,1.4,0.2,2.1,0.5c1.4,0.8,2.3,2.2,2.3,3.8c0,2.4-1.9,4.3-4.3,4.3c-0.6,0-1.1-0.1-1.6-0.3   C51,32.9,49.9,31.3,49.9,29.5z M43.2,96.5c-2.1,1.2-4.7,0.5-5.9-1.6c-0.4-0.6-0.6-1.3-0.6-2c0-1.6,0.8-3.1,2.2-3.9   c1-0.6,2.2-0.7,3.3-0.4c1.1,0.3,2.1,1,2.6,2c0.3,0.5,0.5,1,0.5,1.5C45.6,93.8,44.7,95.6,43.2,96.5z M80.2,89.9   c-4.1-1.2-8.3-2.8-12.6-4.7c2.6-1.3,5.2-2.6,7.8-4.1c2.4-1.4,4.8-2.9,7-4.4C81.9,81.5,81.2,85.9,80.2,89.9z M48.6,65   c0-3.3,0.1-6.5,0.4-9.6c2.7-1.9,5.5-3.7,8.4-5.3c2.8-1.6,5.5-3.1,8.3-4.4c2.9,1.3,5.7,2.8,8.6,4.5c2.8,1.6,5.6,3.4,8.2,5.2   c0.3,3.2,0.4,6.4,0.4,9.7c0,3.3-0.1,6.6-0.4,9.7c-2.5,1.7-5.2,3.4-7.9,5c-2.9,1.7-5.9,3.2-8.9,4.6c-2.9-1.4-5.7-2.8-8.5-4.5   c-2.8-1.6-5.6-3.4-8.2-5.2C48.8,71.6,48.6,68.4,48.6,65z M84.2,73.6c0.2-2.8,0.3-5.6,0.3-8.6c0-2.9-0.1-5.8-0.3-8.6   c3.8,2.8,7.4,5.7,10.4,8.6C91.5,67.9,88,70.8,84.2,73.6z M88.4,38.2c8.9-1.4,15.2,0,17.4,3.8c2.9,4.9-1.4,13.4-10.1,22   c-3.4-3.2-7.3-6.4-11.6-9.5c-0.5-5.3-1.3-10.3-2.4-14.9C83.9,39,86.2,38.5,88.4,38.2z M80.1,40.1c1,4.1,1.8,8.6,2.2,13.3   c-2.3-1.6-4.7-3.1-7.2-4.5c-2.5-1.5-5.1-2.8-7.6-4C71.8,42.9,76.1,41.3,80.1,40.1z M64,44.9c-2.4,1.2-4.9,2.5-7.3,3.9   c-2.6,1.5-5.1,3.1-7.5,4.7c0.5-4.7,1.2-9.2,2.2-13.2C55.4,41.4,59.6,42.9,64,44.9z M26.1,42.1c2.8-4.9,12.2-5.4,23.9-2.3   c-1.1,4.5-1.9,9.5-2.4,14.8c-4.3,3-8.2,6.2-11.5,9.5c-1.7-1.7-3.2-3.3-4.5-5C25.8,52.1,23.9,45.9,26.1,42.1z M37.1,65.1   c3-2.9,6.5-5.8,10.3-8.6c-0.2,2.8-0.3,5.6-0.3,8.5c0,2.9,0.1,5.8,0.3,8.6C43.6,70.9,40.1,68,37.1,65.1z M49.2,76.7   c2.3,1.6,4.7,3.1,7.2,4.5c2.5,1.4,5,2.8,7.5,4c-4.3,1.9-8.5,3.5-12.5,4.6C50.5,85.8,49.7,81.4,49.2,76.7z M65.8,110.9   c-5.7,0-10.8-7.8-14-19.6c4.5-1.3,9.2-3.1,13.9-5.2c4.8,2.2,9.5,4,14.1,5.3C76.7,103.2,71.6,110.9,65.8,110.9z"></path><path d="M58.6,23.1c0.2,0,0.4-0.1,0.6-0.3c0.2-0.2,0.4-0.5,0.7-0.7c0.3-0.3,0.3-0.8,0-1.1c-0.3-0.3-0.8-0.3-1.1,0   c-0.2,0.2-0.5,0.5-0.7,0.8c-0.3,0.3-0.2,0.8,0.1,1.1C58.2,23,58.4,23.1,58.6,23.1z"></path><path d="M69.6,19.4c-0.2,0.3-0.1,0.8,0.2,1c0.5,0.3,0.9,0.7,1.4,1.1c0.1,0.1,0.3,0.2,0.5,0.2c0.2,0,0.4-0.1,0.6-0.2   c0.3-0.3,0.3-0.8-0.1-1.1c-0.5-0.5-1-0.9-1.6-1.2C70.3,19,69.8,19.1,69.6,19.4z"></path><path d="M78.1,33.2c0.1,0.3,0.4,0.5,0.7,0.5c0.1,0,0.2,0,0.3,0c0.4-0.1,0.6-0.6,0.4-1c-0.2-0.6-0.4-1.2-0.7-1.8   c-0.2-0.4-0.6-0.6-1-0.4c-0.4,0.2-0.6,0.6-0.4,1C77.6,32,77.8,32.6,78.1,33.2z"></path><path d="M62.8,18.3c-0.6,0.2-1.2,0.5-1.8,0.9c-0.3,0.2-0.4,0.7-0.2,1c0.1,0.2,0.4,0.3,0.6,0.3c0.1,0,0.3,0,0.4-0.1   c0.5-0.3,1-0.6,1.5-0.8c0.4-0.2,0.6-0.6,0.4-1C63.6,18.3,63.2,18.1,62.8,18.3z"></path><path d="M76.3,28.9c0.1,0.3,0.4,0.4,0.7,0.4c0.1,0,0.2,0,0.3-0.1c0.4-0.2,0.5-0.6,0.4-1c-0.3-0.6-0.6-1.2-0.9-1.7   c-0.2-0.4-0.7-0.5-1-0.3c-0.4,0.2-0.5,0.7-0.3,1C75.7,27.8,76,28.4,76.3,28.9z"></path><path d="M65.8,19.2c0.5,0,1.1,0.1,1.6,0.2c0.1,0,0.1,0,0.2,0c0.3,0,0.6-0.2,0.7-0.6c0.1-0.4-0.1-0.8-0.5-0.9   c-0.7-0.2-1.4-0.3-2-0.3c0,0,0,0,0,0c-0.4,0-0.8,0.3-0.8,0.7C65.1,18.9,65.4,19.2,65.8,19.2z"></path><path d="M74.2,22.6c-0.3-0.3-0.7-0.4-1.1-0.1c-0.3,0.3-0.4,0.7-0.1,1.1c0.4,0.5,0.7,0.9,1.1,1.5c0.1,0.2,0.4,0.3,0.6,0.3   c0.1,0,0.3,0,0.4-0.1c0.3-0.2,0.4-0.7,0.2-1C74.9,23.6,74.5,23.1,74.2,22.6z"></path><path d="M79.2,36.8c0.1,0.3,0.4,0.5,0.7,0.5c0.1,0,0.1,0,0.2,0c0.4-0.1,0.6-0.5,0.5-0.9c-0.1-0.3-0.2-0.7-0.3-1   c-0.1-0.4-0.5-0.6-0.9-0.5c-0.4,0.1-0.6,0.5-0.5,0.9C79,36.1,79.1,36.4,79.2,36.8z"></path><path d="M107.1,79.9c-0.1-0.4-0.6-0.6-1-0.5c-0.4,0.1-0.6,0.6-0.5,1c0.1,0.3,0.2,0.6,0.3,0.9c0.1,0.3,0.4,0.6,0.7,0.6   c0.1,0,0.1,0,0.2,0c0.4-0.1,0.6-0.5,0.5-0.9C107.3,80.6,107.2,80.3,107.1,79.9z"></path><path d="M93.6,93.8C93.6,93.8,93.6,93.8,93.6,93.8c0.4,0,0.8-0.3,0.8-0.7c0-0.4-0.3-0.8-0.7-0.8c-0.6,0-1.2,0-1.8-0.1   c-0.4,0-0.8,0.3-0.8,0.7c0,0.4,0.3,0.8,0.7,0.8C92.3,93.7,93,93.8,93.6,93.8z"></path><path d="M89.1,91.9c-0.6-0.1-1.2-0.2-1.8-0.3c-0.4-0.1-0.8,0.2-0.9,0.6c-0.1,0.4,0.2,0.8,0.6,0.9c0.6,0.1,1.3,0.2,1.9,0.3   c0,0,0.1,0,0.1,0c0.4,0,0.7-0.3,0.7-0.6C89.8,92.3,89.5,92,89.1,91.9z"></path><path d="M102.4,90.8c-0.5,0.2-1,0.5-1.6,0.7c-0.4,0.1-0.6,0.6-0.5,0.9c0.1,0.3,0.4,0.5,0.7,0.5c0.1,0,0.2,0,0.2,0   c0.7-0.2,1.3-0.5,1.8-0.7c0.4-0.2,0.5-0.6,0.3-1C103.2,90.7,102.8,90.6,102.4,90.8z"></path><path d="M104.5,89.3c-0.3,0.3-0.3,0.8,0,1.1c0.1,0.1,0.3,0.2,0.5,0.2c0.2,0,0.4-0.1,0.5-0.2c0.5-0.5,0.9-1,1.3-1.6   c0.2-0.4,0.1-0.8-0.3-1c-0.4-0.2-0.8-0.1-1,0.3C105.2,88.5,104.9,88.9,104.5,89.3z"></path><path d="M98.2,92c-0.6,0.1-1.2,0.1-1.8,0.2c-0.4,0-0.7,0.4-0.7,0.8c0,0.4,0.4,0.7,0.8,0.7c0,0,0,0,0.1,0c0.7,0,1.3-0.1,1.9-0.2   c0.4-0.1,0.7-0.4,0.6-0.9C98.9,92.3,98.6,92,98.2,92z"></path><path d="M106.9,86.5c0,0,0.1,0,0.1,0c0.4,0,0.7-0.3,0.7-0.6c0.1-0.5,0.1-0.9,0.1-1.4c0-0.2,0-0.4,0-0.6c0-0.4-0.4-0.7-0.8-0.7   c-0.4,0-0.7,0.4-0.7,0.8c0,0.2,0,0.3,0,0.5c0,0.4,0,0.8-0.1,1.2C106.2,86.1,106.5,86.4,106.9,86.5z"></path><path d="M84.4,92.6c0.3,0,0.7-0.2,0.7-0.6c0.1-0.4-0.2-0.8-0.6-0.9c-0.3-0.1-0.6-0.1-1-0.2c-0.4-0.1-0.8,0.2-0.9,0.6   c-0.1,0.4,0.2,0.8,0.6,0.9c0.3,0.1,0.7,0.2,1,0.2C84.3,92.6,84.3,92.6,84.4,92.6z"></path><path d="M31.9,91.5c-0.4-0.1-0.8,0.1-0.9,0.5c-0.1,0.4,0.1,0.8,0.5,0.9c0.3,0.1,0.7,0.2,1,0.2c0,0,0.1,0,0.1,0   c0.4,0,0.7-0.2,0.7-0.6c0.1-0.4-0.2-0.8-0.6-0.9C32.5,91.7,32.2,91.6,31.9,91.5z"></path><path d="M28.3,73c-0.4,0.5-0.7,1.1-1,1.6c-0.2,0.4-0.1,0.8,0.2,1c0.1,0.1,0.3,0.1,0.4,0.1c0.3,0,0.5-0.1,0.6-0.4   c0.3-0.5,0.6-1,1-1.5c0.2-0.3,0.1-0.8-0.2-1C29,72.6,28.5,72.7,28.3,73z"></path><path d="M27.9,89.7c-0.3-0.3-0.8-0.2-1.1,0.1c-0.3,0.3-0.2,0.8,0.1,1.1c0.5,0.4,1.1,0.8,1.7,1.1C28.8,92,28.9,92,29,92   c0.3,0,0.5-0.2,0.7-0.4c0.2-0.4,0-0.8-0.3-1C28.9,90.4,28.4,90,27.9,89.7z"></path><path d="M26.9,76.8c-0.4-0.2-0.8,0-1,0.3c-0.3,0.6-0.6,1.2-0.8,1.8c-0.2,0.4,0,0.8,0.4,1c0.1,0,0.2,0.1,0.3,0.1   c0.3,0,0.6-0.2,0.7-0.5c0.2-0.5,0.5-1.1,0.7-1.7C27.4,77.4,27.2,77,26.9,76.8z"></path><path d="M25.7,86.3c-0.1-0.4-0.5-0.6-0.9-0.5c-0.4,0.1-0.6,0.5-0.5,0.9c0.2,0.7,0.4,1.3,0.8,1.9c0.1,0.2,0.4,0.4,0.7,0.4   c0.1,0,0.3,0,0.4-0.1c0.4-0.2,0.5-0.7,0.3-1C26,87.3,25.8,86.8,25.7,86.3z"></path><path d="M24.2,81.7c-0.1,0.7-0.2,1.3-0.3,2c0,0.4,0.3,0.8,0.7,0.8c0,0,0,0,0,0c0.4,0,0.7-0.3,0.8-0.7c0-0.6,0.1-1.1,0.2-1.7   c0.1-0.4-0.2-0.8-0.6-0.9C24.7,81,24.3,81.3,24.2,81.7z"></path><path d="M31.1,69.2c-0.4,0.5-0.8,1-1.2,1.5c-0.3,0.3-0.2,0.8,0.1,1.1c0.1,0.1,0.3,0.2,0.5,0.2c0.2,0,0.4-0.1,0.6-0.3   c0.4-0.5,0.8-1,1.2-1.4c0.3-0.3,0.2-0.8-0.1-1.1C31.9,68.9,31.4,68.9,31.1,69.2z"></path><path d="M34.1,68.1c0.2-0.2,0.4-0.5,0.7-0.7c0.3-0.3,0.3-0.8,0-1.1c-0.3-0.3-0.8-0.3-1.1,0c-0.2,0.2-0.5,0.5-0.7,0.7   c-0.3,0.3-0.3,0.8,0,1.1c0.1,0.1,0.3,0.2,0.5,0.2C33.8,68.4,34,68.3,34.1,68.1z"></path><path d="M68.9,6.4c30.3,1.5,54.2,25.4,55.7,55.7c0,0.4,0.4,0.7,0.8,0.7c0,0,0,0,0,0c0.4,0,0.7-0.4,0.7-0.8   C124.6,31,100,6.4,68.9,4.9c-0.4,0-0.8,0.3-0.8,0.7C68.1,6.1,68.4,6.4,68.9,6.4z"></path><path d="M63,123.7C32.8,122.2,8.8,98.2,7.3,68c0-0.4-0.4-0.7-0.8-0.7c-0.4,0-0.7,0.4-0.7,0.8c1.5,31.1,26.1,55.6,57.1,57.1   c0,0,0,0,0,0c0.4,0,0.7-0.3,0.8-0.7C63.8,124,63.5,123.7,63,123.7z"></path><path d="M61,6.6C61,6.6,61,6.6,61,6.6c0.7-0.1,1.4-0.1,2-0.1c0.4,0,0.7-0.4,0.7-0.8c0-0.4-0.4-0.7-0.8-0.7c-0.7,0-1.4,0.1-2,0.1   c-0.4,0-0.7,0.4-0.7,0.8C60.3,6.3,60.6,6.6,61,6.6z"></path><path d="M22,23.9c-0.3,0.3-0.3,0.8,0,1.1c0.1,0.1,0.3,0.2,0.5,0.2c0.2,0,0.4-0.1,0.5-0.2c0.9-0.9,1.8-1.8,2.7-2.7   c0.3-0.3,0.3-0.8,0-1.1c-0.3-0.3-0.8-0.3-1.1,0C23.8,22,22.9,22.9,22,23.9z"></path><path d="M52.4,7.9c0.1,0,0.1,0,0.2,0c1.2-0.3,2.5-0.5,3.8-0.7c0.4-0.1,0.7-0.5,0.6-0.9c-0.1-0.4-0.5-0.7-0.9-0.6   c-1.3,0.2-2.6,0.5-3.9,0.8c-0.4,0.1-0.7,0.5-0.6,0.9C51.7,7.7,52,7.9,52.4,7.9z"></path><path d="M44,10.5c0.1,0,0.2,0,0.3-0.1c1.2-0.5,2.4-0.9,3.6-1.3c0.4-0.1,0.6-0.6,0.5-0.9c-0.1-0.4-0.6-0.6-0.9-0.5   c-1.2,0.4-2.5,0.8-3.7,1.3c-0.4,0.2-0.6,0.6-0.4,1C43.5,10.3,43.7,10.5,44,10.5z"></path><path d="M18.8,27.6c-0.8,1-1.6,2.1-2.3,3.2c-0.2,0.3-0.2,0.8,0.2,1c0.1,0.1,0.3,0.1,0.4,0.1c0.2,0,0.5-0.1,0.6-0.3   c0.7-1,1.5-2.1,2.3-3.1c0.3-0.3,0.2-0.8-0.1-1.1C19.5,27.2,19.1,27.3,18.8,27.6z"></path><path d="M36.2,14.3c0.1,0,0.3,0,0.4-0.1c1.1-0.6,2.2-1.2,3.4-1.8c0.4-0.2,0.5-0.6,0.3-1c-0.2-0.4-0.6-0.5-1-0.3   c-1.2,0.6-2.3,1.2-3.5,1.9c-0.4,0.2-0.5,0.7-0.3,1C35.7,14.2,35.9,14.3,36.2,14.3z"></path><path d="M8,55.4c0.2-1.3,0.5-2.5,0.8-3.8c0.1-0.4-0.2-0.8-0.6-0.9c-0.4-0.1-0.8,0.2-0.9,0.6c-0.3,1.3-0.6,2.6-0.8,3.9   c-0.1,0.4,0.2,0.8,0.6,0.9c0,0,0.1,0,0.1,0C7.7,56,8,55.7,8,55.4z"></path><path d="M29,19.2c0.2,0,0.3-0.1,0.5-0.2c1-0.8,2-1.6,3.1-2.3c0.3-0.2,0.4-0.7,0.2-1c-0.2-0.3-0.7-0.4-1-0.2   c-1.1,0.7-2.1,1.5-3.2,2.3c-0.3,0.3-0.4,0.7-0.1,1.1C28.5,19.1,28.8,19.2,29,19.2z"></path><path d="M12.3,39.4c0.1,0.1,0.2,0.1,0.3,0.1c0.3,0,0.5-0.2,0.7-0.4c0.6-1.1,1.2-2.3,1.8-3.4c0.2-0.4,0.1-0.8-0.3-1   c-0.4-0.2-0.8-0.1-1,0.3c-0.7,1.1-1.3,2.3-1.9,3.5C11.8,38.7,11.9,39.2,12.3,39.4z"></path><path d="M9.1,47.5c0.1,0,0.2,0,0.2,0c0.3,0,0.6-0.2,0.7-0.5c0.4-1.2,0.8-2.4,1.3-3.6c0.2-0.4,0-0.8-0.4-1c-0.4-0.2-0.8,0-1,0.4   c-0.5,1.2-0.9,2.5-1.3,3.7C8.5,46.9,8.7,47.4,9.1,47.5z"></path><path d="M6.8,59.3C6.4,59.3,6,59.6,6,60c-0.1,0.7-0.1,1.4-0.1,2c0,0.4,0.3,0.8,0.7,0.8c0,0,0,0,0,0c0.4,0,0.7-0.3,0.8-0.7   c0-0.7,0.1-1.3,0.1-2C7.5,59.7,7.2,59.4,6.8,59.3z"></path><path d="M70.8,123.5c-0.7,0.1-1.3,0.1-2,0.1c-0.4,0-0.7,0.4-0.7,0.8c0,0.4,0.4,0.7,0.8,0.7c0,0,0,0,0,0c0.7,0,1.4-0.1,2-0.1   c0.4,0,0.7-0.4,0.7-0.8C71.6,123.8,71.2,123.5,70.8,123.5z"></path><path d="M114.2,98.5c-0.7,1-1.5,2.1-2.3,3.1c-0.3,0.3-0.2,0.8,0.1,1.1c0.1,0.1,0.3,0.2,0.5,0.2c0.2,0,0.4-0.1,0.6-0.3   c0.8-1,1.6-2.1,2.3-3.2c0.2-0.3,0.2-0.8-0.2-1C114.9,98.1,114.4,98.1,114.2,98.5z"></path><path d="M119.6,90.7c-0.4-0.2-0.8,0-1,0.3c-0.6,1.1-1.2,2.3-1.8,3.4c-0.2,0.4-0.1,0.8,0.3,1c0.1,0.1,0.2,0.1,0.4,0.1   c0.3,0,0.5-0.1,0.7-0.4c0.7-1.1,1.3-2.3,1.9-3.5C120.1,91.4,120,90.9,119.6,90.7z"></path><path d="M102.4,111c-1,0.8-2,1.6-3.1,2.3c-0.3,0.2-0.4,0.7-0.2,1c0.1,0.2,0.4,0.3,0.6,0.3c0.1,0,0.3,0,0.4-0.1   c1.1-0.7,2.1-1.5,3.2-2.3c0.3-0.3,0.4-0.7,0.1-1.1C103.2,110.8,102.8,110.8,102.4,111z"></path><path d="M95.3,115.9c-1.1,0.6-2.2,1.2-3.4,1.8c-0.4,0.2-0.5,0.6-0.3,1c0.1,0.3,0.4,0.4,0.7,0.4c0.1,0,0.2,0,0.3-0.1   c1.2-0.6,2.3-1.2,3.5-1.9c0.4-0.2,0.5-0.7,0.3-1C96.1,115.8,95.7,115.7,95.3,115.9z"></path><path d="M122.8,82.6c-0.4-0.1-0.8,0.1-0.9,0.5c-0.4,1.2-0.8,2.4-1.3,3.6c-0.2,0.4,0,0.8,0.4,1c0.1,0,0.2,0.1,0.3,0.1   c0.3,0,0.6-0.2,0.7-0.5c0.5-1.2,0.9-2.5,1.3-3.7C123.4,83.2,123.2,82.7,122.8,82.6z"></path><path d="M87.6,119.6c-1.2,0.5-2.4,0.9-3.6,1.3c-0.4,0.1-0.6,0.6-0.5,0.9c0.1,0.3,0.4,0.5,0.7,0.5c0.1,0,0.2,0,0.2,0   c1.2-0.4,2.5-0.8,3.7-1.3c0.4-0.2,0.6-0.6,0.4-1C88.4,119.7,88,119.5,87.6,119.6z"></path><path d="M79.3,122.2c-1.2,0.3-2.5,0.5-3.8,0.7c-0.4,0.1-0.7,0.5-0.6,0.9c0.1,0.4,0.4,0.6,0.7,0.6c0,0,0.1,0,0.1,0   c1.3-0.2,2.6-0.5,3.9-0.8c0.4-0.1,0.7-0.5,0.6-0.9C80.2,122.4,79.8,122.1,79.3,122.2z"></path><path d="M106.6,109.2c0.2,0,0.4-0.1,0.5-0.2c1-0.9,1.9-1.8,2.8-2.8c0.3-0.3,0.3-0.8,0-1.1c-0.3-0.3-0.8-0.3-1.1,0   c-0.9,0.9-1.8,1.8-2.7,2.7c-0.3,0.3-0.3,0.8,0,1.1C106.2,109.1,106.4,109.2,106.6,109.2z"></path><path d="M123.7,79.4c0.1,0,0.1,0,0.2,0c0.3,0,0.7-0.2,0.7-0.6c0.3-1.3,0.6-2.6,0.8-3.9c0.1-0.4-0.2-0.8-0.6-0.9   c-0.4-0.1-0.8,0.2-0.9,0.6c-0.2,1.3-0.5,2.5-0.8,3.8C123,78.9,123.3,79.3,123.7,79.4z"></path><path d="M125.2,70.8c0.4,0,0.7-0.3,0.7-0.7c0.1-0.7,0.1-1.3,0.1-2c0-0.4-0.3-0.8-0.7-0.8c-0.4,0-0.8,0.3-0.8,0.7   c0,0.7-0.1,1.3-0.1,2C124.4,70.4,124.7,70.7,125.2,70.8C125.2,70.7,125.2,70.8,125.2,70.8z"></path><path d="M65.9,73.6c4.7,0,8.6-3.9,8.6-8.6c0-4.7-3.9-8.6-8.6-8.6c-4.7,0-8.6,3.9-8.6,8.6C57.4,69.8,61.2,73.6,65.9,73.6z M65.9,58   c3.9,0,7.1,3.2,7.1,7.1c0,3.9-3.2,7.1-7.1,7.1c-3.9,0-7.1-3.2-7.1-7.1C58.9,61.1,62,58,65.9,58z"></path></g></svg>