<svg fill="#00DCFF" xmlns:dc="http://purl.org/dc/elements/1.1/" xmlns:cc="http://creativecommons.org/ns#" xmlns:rdf="http://www.w3.org/1999/02/22-rdf-syntax-ns#" xmlns:svg="http://www.w3.org/2000/svg" xmlns="http://www.w3.org/2000/svg" xmlns:sodipodi="http://sodipodi.sourceforge.net/DTD/sodipodi-0.dtd" xmlns:inkscape="http://www.inkscape.org/namespaces/inkscape" viewBox="0 0 99.999997 99.999997" version="1.1" x="0px" y="0px"><g transform="translate(0,-952.36223)"><path style="opacity:1;fill:#00DCFF;fill-opacity:1" d="M 46.023438 15.082031 L 45.142578 15.318359 L 38.980469 16.96875 L 39.537109 19.046875 L 38.539062 18.46875 L 38.115234 19.201172 L 37.048828 17.351562 L 36.257812 17.806641 L 30.734375 20.996094 L 31.8125 22.861328 L 30.695312 22.5625 L 30.478516 23.375 L 28.96875 21.865234 L 28.322266 22.509766 L 23.8125 27.019531 L 25.333984 28.541016 L 24.179688 28.541016 L 24.179688 29.384766 L 22.330078 28.318359 L 21.875 29.107422 L 18.685547 34.630859 L 20.546875 35.707031 L 19.433594 36.003906 L 19.652344 36.820312 L 17.589844 36.267578 L 17.353516 37.146484 L 15.703125 43.308594 L 17.779297 43.865234 L 16.78125 44.441406 L 17.201172 45.171875 L 15.066406 45.171875 L 15.066406 46.083984 L 15.066406 52.462891 L 17.21875 52.462891 L 16.402344 53.279297 L 16.998047 53.875 L 14.935547 54.427734 L 15.171875 55.308594 L 16.822266 61.470703 L 18.900391 60.914062 L 18.322266 61.912109 L 19.052734 62.335938 L 17.203125 63.402344 L 17.660156 64.191406 L 20.849609 69.716797 L 22.712891 68.638672 L 22.414062 69.755859 L 23.228516 69.972656 L 21.71875 71.482422 L 22.363281 72.126953 L 26.873047 76.638672 L 28.394531 75.117188 L 28.394531 76.271484 L 29.238281 76.271484 L 28.169922 78.121094 L 28.960938 78.576172 L 34.484375 81.765625 L 35.558594 79.904297 L 35.857422 81.017578 L 36.673828 80.798828 L 36.121094 82.861328 L 37 83.097656 L 43.162109 84.748047 L 43.71875 82.669922 L 44.294922 83.669922 L 45.025391 83.248047 L 45.025391 85.384766 L 45.935547 85.384766 L 52.316406 85.384766 L 52.316406 83.232422 L 53.132812 84.048828 L 53.728516 83.453125 L 54.28125 85.515625 L 55.162109 85.279297 L 61.324219 83.628906 L 60.767578 81.550781 L 61.765625 82.128906 L 62.1875 81.396484 L 63.255859 83.246094 L 64.044922 82.791016 L 69.568359 79.601562 L 68.492188 77.738281 L 69.607422 78.035156 L 69.826172 77.222656 L 71.335938 78.732422 L 71.980469 78.087891 L 76.492188 73.578125 L 74.970703 72.056641 L 76.125 72.056641 L 76.125 71.212891 L 77.974609 72.28125 L 78.429688 71.490234 L 81.619141 65.966797 L 79.755859 64.892578 L 80.869141 64.591797 L 80.652344 63.777344 L 82.714844 64.330078 L 82.951172 63.451172 L 84.601562 57.289062 L 82.523438 56.732422 L 83.523438 56.15625 L 83.101562 55.425781 L 85.236328 55.425781 L 85.236328 54.513672 L 85.236328 48.134766 L 83.085938 48.134766 L 83.902344 47.318359 L 83.306641 46.722656 L 85.369141 46.169922 L 85.132812 45.289062 L 83.482422 39.126953 L 81.404297 39.683594 L 81.980469 38.685547 L 81.25 38.263672 L 83.099609 37.195312 L 82.644531 36.40625 L 79.455078 30.880859 L 77.589844 31.958984 L 77.888672 30.841797 L 77.074219 30.625 L 78.585938 29.115234 L 77.941406 28.470703 L 73.429688 23.958984 L 71.908203 25.480469 L 71.908203 24.326172 L 71.066406 24.326172 L 72.132812 22.476562 L 71.34375 22.021484 L 65.820312 18.832031 L 64.744141 20.693359 L 64.447266 19.580078 L 63.630859 19.798828 L 64.183594 17.736328 L 63.302734 17.5 L 57.142578 15.849609 L 56.585938 17.927734 L 56.007812 16.927734 L 55.277344 17.349609 L 55.277344 15.212891 L 54.367188 15.212891 L 47.988281 15.212891 L 47.988281 17.365234 L 47.171875 16.548828 L 46.576172 17.144531 L 46.023438 15.082031 z M 45.888672 17.830078 L 42.792969 20.927734 L 40.111328 19.378906 L 45.888672 17.830078 z M 48.455078 17.835938 L 54.439453 17.835938 L 50.646484 20.027344 L 48.455078 17.835938 z M 56.917969 18.503906 L 62.695312 20.052734 L 58.464844 21.1875 L 56.917969 18.503906 z M 47.978516 19.451172 L 48.621094 20.095703 L 49.318359 20.792969 L 49.201172 20.859375 L 50.511719 23.128906 L 52.701172 21.865234 L 52.142578 23.947266 L 49.171875 23.150391 L 47.697266 28.652344 L 51.878906 29.771484 L 54.060547 21.630859 L 53.408203 21.455078 L 56.035156 19.939453 L 56.492188 20.728516 L 56.986328 21.583984 L 56.853516 21.617188 L 57.53125 24.148438 L 59.972656 23.494141 L 58.894531 25.361328 L 56.232422 23.822266 L 53.384766 28.755859 L 57.132812 30.917969 L 61.347656 23.619141 L 60.763672 23.28125 L 63.693359 22.498047 L 63.929688 23.376953 L 64.183594 24.330078 L 64.048828 24.330078 L 64.048828 26.949219 L 66.576172 26.949219 L 65.052734 28.472656 L 62.878906 26.298828 L 58.851562 30.326172 L 61.912109 33.386719 L 67.871094 27.425781 L 67.396484 26.949219 L 70.427734 26.949219 L 70.427734 27.861328 L 70.427734 28.845703 L 70.296875 28.8125 L 69.621094 31.341797 L 72.060547 31.996094 L 70.195312 33.074219 L 68.658203 30.408203 L 63.726562 33.257812 L 65.888672 37.005859 L 73.191406 32.791016 L 72.853516 32.208984 L 75.78125 32.994141 L 75.544922 33.873047 L 75.291016 34.824219 L 75.173828 34.757812 L 73.863281 37.025391 L 76.052734 38.289062 L 73.970703 38.847656 L 73.175781 35.876953 L 67.673828 37.351562 L 68.794922 41.533203 L 76.935547 39.349609 L 76.761719 38.699219 L 79.386719 40.214844 L 78.931641 41.005859 L 78.439453 41.859375 L 78.34375 41.763672 L 76.492188 43.617188 L 78.279297 45.402344 L 76.125 45.402344 L 76.125 42.328125 L 70.427734 42.328125 L 70.427734 46.65625 L 78.857422 46.65625 L 78.857422 45.982422 L 81.001953 48.126953 L 80.357422 48.771484 L 79.660156 49.466797 L 79.591797 49.351562 L 77.324219 50.660156 L 78.589844 52.849609 L 76.507812 52.292969 L 77.304688 49.322266 L 71.800781 47.847656 L 70.681641 52.027344 L 78.822266 54.210938 L 78.998047 53.558594 L 80.515625 56.185547 L 79.724609 56.642578 L 78.871094 57.134766 L 78.835938 57.003906 L 76.304688 57.681641 L 76.958984 60.123047 L 75.09375 59.044922 L 76.630859 56.380859 L 71.699219 53.533203 L 69.535156 57.283203 L 76.835938 61.498047 L 77.171875 60.914062 L 77.957031 63.841797 L 77.076172 64.078125 L 76.125 64.333984 L 76.125 64.199219 L 73.503906 64.199219 L 73.503906 66.728516 L 71.980469 65.203125 L 74.154297 63.029297 L 70.126953 59 L 67.066406 62.060547 L 73.027344 68.023438 L 73.503906 67.546875 L 73.503906 70.578125 L 72.59375 70.578125 L 71.607422 70.578125 L 71.642578 70.447266 L 69.111328 69.769531 L 68.457031 72.210938 L 67.380859 70.345703 L 70.042969 68.806641 L 67.197266 63.875 L 63.447266 66.039062 L 67.662109 73.339844 L 68.244141 73.003906 L 67.460938 75.931641 L 66.580078 75.695312 L 65.628906 75.441406 L 65.695312 75.322266 L 63.425781 74.013672 L 62.164062 76.203125 L 61.605469 74.121094 L 64.576172 73.324219 L 63.103516 67.824219 L 58.921875 68.945312 L 61.101562 77.085938 L 61.753906 76.912109 L 60.238281 79.539062 L 59.447266 79.083984 L 58.59375 78.587891 L 58.689453 78.492188 L 56.837891 76.640625 L 55.050781 78.427734 L 55.050781 76.273438 L 58.125 76.273438 L 58.125 70.578125 L 53.796875 70.578125 L 53.796875 79.007812 L 54.470703 79.007812 L 52.326172 81.152344 L 51.683594 80.507812 L 50.984375 79.810547 L 51.101562 79.742188 L 49.792969 77.474609 L 47.603516 78.738281 L 48.162109 76.65625 L 51.130859 77.453125 L 52.607422 71.951172 L 48.425781 70.832031 L 46.244141 78.972656 L 46.894531 79.148438 L 44.267578 80.664062 L 43.8125 79.875 L 43.318359 79.019531 L 43.449219 78.984375 L 42.773438 76.455078 L 40.332031 77.107422 L 41.408203 75.242188 L 44.072266 76.78125 L 46.919922 71.847656 L 43.169922 69.685547 L 38.955078 76.984375 L 39.539062 77.322266 L 36.609375 78.105469 L 36.373047 77.224609 L 36.119141 76.273438 L 36.255859 76.273438 L 36.255859 73.654297 L 33.726562 73.654297 L 35.25 72.128906 L 37.423828 74.304688 L 41.451172 70.277344 L 38.392578 67.214844 L 32.431641 73.177734 L 32.908203 73.654297 L 29.876953 73.654297 L 29.876953 72.742188 L 29.876953 71.757812 L 30.005859 71.792969 L 30.683594 69.259766 L 28.242188 68.607422 L 30.109375 67.529297 L 31.646484 70.193359 L 36.578125 67.345703 L 34.414062 63.597656 L 27.113281 67.810547 L 27.451172 68.394531 L 24.523438 67.609375 L 24.759766 66.730469 L 25.011719 65.777344 L 25.128906 65.845703 L 26.441406 63.578125 L 24.251953 62.314453 L 26.332031 61.755859 L 27.128906 64.726562 L 32.628906 63.251953 L 31.509766 59.070312 L 23.367188 61.253906 L 23.542969 61.904297 L 20.916016 60.388672 L 21.371094 59.597656 L 21.863281 58.744141 L 21.958984 58.839844 L 23.8125 56.986328 L 22.025391 55.199219 L 24.179688 55.199219 L 24.179688 58.275391 L 29.876953 58.275391 L 29.876953 53.947266 L 21.445312 53.947266 L 21.445312 54.621094 L 19.302734 52.476562 L 19.945312 51.832031 L 20.644531 51.136719 L 20.710938 51.251953 L 22.980469 49.943359 L 21.714844 47.753906 L 23.796875 48.310547 L 23 51.28125 L 28.501953 52.755859 L 29.623047 48.574219 L 21.480469 46.392578 L 21.306641 47.044922 L 19.789062 44.417969 L 20.578125 43.960938 L 21.433594 43.46875 L 21.46875 43.599609 L 23.998047 42.921875 L 23.34375 40.480469 L 25.210938 41.558594 L 23.671875 44.222656 L 28.603516 47.070312 L 30.769531 43.320312 L 23.46875 39.105469 L 23.132812 39.689453 L 22.347656 36.761719 L 23.226562 36.525391 L 24.179688 36.269531 L 24.179688 36.404297 L 26.800781 36.404297 L 26.800781 33.875 L 28.322266 35.400391 L 26.148438 37.574219 L 30.177734 41.603516 L 33.236328 38.542969 L 27.275391 32.580078 L 26.800781 33.056641 L 26.800781 30.025391 L 27.710938 30.025391 L 28.697266 30.025391 L 28.660156 30.15625 L 31.191406 30.833984 L 31.847656 28.392578 L 32.923828 30.257812 L 30.259766 31.796875 L 33.107422 36.728516 L 36.857422 34.564453 L 32.642578 27.263672 L 32.058594 27.599609 L 32.84375 24.671875 L 33.722656 24.908203 L 34.675781 25.162109 L 34.607422 25.279297 L 36.876953 26.589844 L 38.140625 24.400391 L 38.699219 26.482422 L 35.728516 27.279297 L 37.201172 32.779297 L 41.382812 31.658203 L 39.201172 23.517578 L 38.550781 23.691406 L 40.066406 21.064453 L 40.855469 21.519531 L 41.710938 22.013672 L 41.613281 22.111328 L 43.466797 23.960938 L 45.253906 22.173828 L 45.253906 24.330078 L 42.177734 24.330078 L 42.177734 30.025391 L 46.507812 30.025391 L 46.507812 21.595703 L 45.832031 21.595703 L 47.978516 19.451172 z M 37.632812 20.041016 L 35.441406 23.833984 L 32.451172 23.033203 L 37.632812 20.041016 z M 64.916016 21.337891 L 70.097656 24.330078 L 65.71875 24.330078 L 64.916016 21.337891 z M 30.226562 24.314453 L 29.09375 28.542969 L 25.996094 28.542969 L 30.226562 24.314453 z M 71.908203 26.146484 L 76.138672 30.376953 L 71.908203 29.242188 L 71.908203 26.146484 z M 24.179688 30.355469 L 24.179688 34.736328 L 21.1875 35.537109 L 24.179688 30.355469 z M 51.888672 31.572266 L 51.888672 31.574219 L 50.521484 33.941406 L 50.421875 33.884766 L 48.222656 37.695312 L 49.623047 32.470703 L 46.982422 31.761719 L 46.275391 34.404297 L 46.166016 34.375 L 45.025391 38.625 L 45.025391 33.214844 L 42.291016 33.214844 L 42.291016 35.949219 L 42.177734 35.949219 L 42.177734 40.349609 L 40.779297 35.123047 L 38.136719 35.830078 L 38.84375 38.472656 L 38.734375 38.501953 L 39.873047 42.748047 L 37.169922 38.066406 L 34.800781 39.433594 L 36.167969 41.800781 L 36.070312 41.857422 L 38.267578 45.666016 L 34.445312 41.84375 L 32.511719 43.777344 L 34.445312 45.708984 L 34.363281 45.789062 L 37.474609 48.900391 L 32.791016 46.195312 L 31.423828 48.564453 L 33.792969 49.931641 L 33.736328 50.03125 L 37.542969 52.228516 L 32.320312 50.830078 L 31.613281 53.472656 L 34.253906 54.179688 L 34.224609 54.289062 L 38.474609 55.427734 L 33.066406 55.427734 L 33.066406 58.162109 L 35.798828 58.162109 L 35.798828 58.275391 L 40.199219 58.275391 L 34.972656 59.675781 L 35.681641 62.316406 L 38.322266 61.607422 L 38.351562 61.71875 L 42.599609 60.580078 L 37.917969 63.285156 L 39.283203 65.652344 L 41.652344 64.285156 L 41.708984 64.384766 L 45.517578 62.185547 L 41.695312 66.007812 L 43.628906 67.941406 L 45.560547 66.007812 L 45.640625 66.087891 L 48.751953 62.976562 L 46.046875 67.662109 L 48.416016 69.029297 L 49.783203 66.662109 L 49.880859 66.71875 L 52.080078 62.908203 L 50.681641 68.132812 L 53.322266 68.839844 L 54.029297 66.199219 L 54.138672 66.228516 L 55.277344 61.978516 L 55.277344 67.388672 L 58.011719 67.388672 L 58.011719 64.654297 L 58.125 64.654297 L 58.125 60.253906 L 59.525391 65.478516 L 62.166016 64.771484 L 61.458984 62.130859 L 61.568359 62.099609 L 60.429688 57.855469 L 63.132812 62.535156 L 65.501953 61.169922 L 64.134766 58.800781 L 64.234375 58.744141 L 62.035156 54.9375 L 65.857422 58.759766 L 67.792969 56.824219 L 65.857422 54.892578 L 65.939453 54.8125 L 62.828125 51.701172 L 67.511719 54.40625 L 68.880859 52.037109 L 66.511719 50.669922 L 66.568359 50.572266 L 62.759766 48.373047 L 67.984375 49.771484 L 68.691406 47.130859 L 66.050781 46.421875 L 66.080078 46.314453 L 61.830078 45.175781 L 67.238281 45.175781 L 67.238281 42.441406 L 64.503906 42.441406 L 64.503906 42.328125 L 60.105469 42.328125 L 65.330078 40.927734 L 64.621094 38.287109 L 61.982422 38.994141 L 61.951172 38.884766 L 57.705078 40.021484 L 62.386719 37.318359 L 61.021484 34.951172 L 58.652344 36.316406 L 58.595703 36.21875 L 54.787109 38.417969 L 58.609375 34.59375 L 56.675781 32.660156 L 54.742188 34.59375 L 54.662109 34.513672 L 51.550781 37.625 L 54.255859 32.941406 L 51.888672 31.572266 z M 77.419922 32.599609 L 80.412109 37.78125 L 76.617188 35.591797 L 77.419922 32.599609 z M 19.902344 37.757812 L 21.035156 41.988281 L 18.353516 43.537109 L 19.902344 37.757812 z M 48.931641 39.888672 L 49.095703 40.496094 L 49.271484 40.320312 L 49.511719 40.5625 L 49.511719 39.925781 L 51.398438 39.925781 L 51.666016 39.925781 L 51.666016 40.558594 L 51.882812 40.433594 L 52.054688 40.728516 L 52.21875 40.115234 L 54.039062 40.603516 L 54.300781 40.671875 L 54.134766 41.283203 L 54.378906 41.216797 L 54.466797 41.546875 L 54.783203 40.996094 L 56.416016 41.939453 L 56.650391 42.072266 L 56.333984 42.621094 L 56.583984 42.621094 L 56.583984 42.960938 L 57.033203 42.511719 L 58.367188 43.845703 L 58.556641 44.035156 L 58.111328 44.482422 L 58.351562 44.546875 L 58.261719 44.876953 L 58.814453 44.558594 L 59.757812 46.191406 L 59.892578 46.423828 L 59.345703 46.740234 L 59.560547 46.865234 L 59.390625 47.160156 L 60.003906 46.994141 L 60.492188 48.816406 L 60.5625 49.076172 L 59.953125 49.240234 L 60.128906 49.416016 L 59.886719 49.658203 L 60.523438 49.658203 L 60.523438 51.544922 L 60.523438 51.8125 L 59.892578 51.8125 L 60.017578 52.029297 L 59.720703 52.199219 L 60.335938 52.363281 L 59.847656 54.185547 L 59.777344 54.445312 L 59.167969 54.28125 L 59.232422 54.523438 L 58.902344 54.611328 L 59.453125 54.929688 L 58.511719 56.5625 L 58.376953 56.796875 L 57.830078 56.480469 L 57.830078 56.730469 L 57.488281 56.730469 L 57.939453 57.179688 L 56.605469 58.511719 L 56.414062 58.703125 L 55.966797 58.257812 L 55.904297 58.498047 L 55.574219 58.408203 L 55.892578 58.958984 L 54.259766 59.902344 L 54.025391 60.037109 L 53.708984 59.490234 L 53.583984 59.705078 L 53.289062 59.537109 L 53.455078 60.150391 L 51.632812 60.638672 L 51.373047 60.707031 L 51.208984 60.097656 L 51.033203 60.275391 L 50.791016 60.033203 L 50.791016 60.667969 L 48.90625 60.667969 L 48.636719 60.667969 L 48.636719 60.037109 L 48.419922 60.162109 L 48.25 59.867188 L 48.085938 60.482422 L 46.265625 59.994141 L 46.003906 59.923828 L 46.167969 59.314453 L 45.925781 59.378906 L 45.837891 59.048828 L 45.519531 59.599609 L 43.886719 58.65625 L 43.654297 58.521484 L 43.970703 57.974609 L 43.720703 57.974609 L 43.720703 57.632812 L 43.269531 58.083984 L 41.9375 56.75 L 41.746094 56.560547 L 42.193359 56.113281 L 41.953125 56.048828 L 42.041016 55.71875 L 41.490234 56.039062 L 40.546875 54.404297 L 40.412109 54.171875 L 40.958984 53.855469 L 40.742188 53.732422 L 40.914062 53.435547 L 40.300781 53.599609 L 39.810547 51.779297 L 39.742188 51.519531 L 40.351562 51.355469 L 40.175781 51.179688 L 40.416016 50.9375 L 39.779297 50.9375 L 39.779297 49.052734 L 39.779297 48.783203 L 40.412109 48.783203 L 40.287109 48.568359 L 40.583984 48.396484 L 39.96875 48.232422 L 40.457031 46.410156 L 40.527344 46.150391 L 41.136719 46.3125 L 41.072266 46.072266 L 41.402344 45.984375 L 40.849609 45.666016 L 41.792969 44.035156 L 41.927734 43.800781 L 42.474609 44.115234 L 42.474609 43.867188 L 42.814453 43.867188 L 42.365234 43.416016 L 43.699219 42.083984 L 43.890625 41.894531 L 44.335938 42.339844 L 44.400391 42.099609 L 44.728516 42.1875 L 44.412109 41.636719 L 46.044922 40.693359 L 46.277344 40.558594 L 46.59375 41.105469 L 46.71875 40.888672 L 47.015625 41.058594 L 46.849609 40.445312 L 48.669922 39.958984 L 48.931641 39.888672 z M 81.072266 40.261719 L 82.621094 46.041016 L 79.523438 42.943359 L 81.072266 40.261719 z M 48.892578 40.699219 L 47.183594 41.158203 L 47.978516 41.615234 L 48.892578 40.699219 z M 49.652344 40.703125 L 50.298828 41.349609 L 51.419922 40.703125 L 49.652344 40.703125 z M 52.150391 40.900391 L 52.609375 41.693359 L 53.859375 41.357422 L 52.150391 40.900391 z M 49.507812 41.181641 L 48.875 41.8125 L 49.074219 41.8125 L 49.074219 44.304688 L 47.794922 44.304688 L 47.794922 42.621094 L 48.705078 42.621094 L 48.705078 41.984375 L 48.175781 42.511719 L 47.628906 41.964844 L 47.658203 41.9375 L 47.404297 41.791016 L 47.171875 41.65625 L 46.722656 42.433594 L 46.916016 42.380859 L 47.560547 44.787109 L 46.324219 45.119141 L 45.886719 43.494141 L 46.765625 43.257812 L 46.601562 42.642578 L 46.226562 43.289062 L 45.556641 42.900391 L 45.576172 42.867188 L 45.294922 42.792969 L 45.035156 42.722656 L 44.804688 43.587891 L 44.976562 43.488281 L 46.222656 45.646484 L 45.113281 46.285156 L 44.271484 44.828125 L 45.060547 44.373047 L 44.740234 43.822266 L 44.546875 44.544922 L 43.798828 44.34375 L 43.808594 44.304688 L 43.517578 44.304688 L 43.25 44.304688 L 43.25 45.201172 L 43.388672 45.060547 L 45.152344 46.822266 L 44.246094 47.726562 L 43.056641 46.537109 L 43.699219 45.894531 L 43.25 45.443359 L 43.25 46.189453 L 42.474609 46.189453 L 42.474609 46.150391 L 42.193359 46.226562 L 41.933594 46.294922 L 42.164062 47.162109 L 42.263672 46.988281 L 44.421875 48.234375 L 43.783203 49.341797 L 42.324219 48.501953 L 42.779297 47.714844 L 42.228516 47.394531 L 42.421875 48.117188 L 41.673828 48.318359 L 41.662109 48.279297 L 41.410156 48.425781 L 41.177734 48.560547 L 41.625 49.335938 L 41.675781 49.144531 L 44.083984 49.787109 L 43.751953 51.023438 L 42.125 50.587891 L 42.361328 49.710938 L 41.746094 49.544922 L 42.119141 50.193359 L 41.449219 50.580078 L 41.429688 50.546875 L 41.222656 50.751953 L 41.033203 50.943359 L 41.666016 51.576172 L 41.666016 51.376953 L 44.158203 51.376953 L 44.158203 52.65625 L 42.474609 52.65625 L 42.474609 51.746094 L 41.837891 51.746094 L 42.365234 52.275391 L 41.818359 52.822266 L 41.791016 52.794922 L 41.644531 53.046875 L 41.509766 53.279297 L 42.287109 53.728516 L 42.234375 53.537109 L 44.642578 52.890625 L 44.972656 54.126953 L 43.345703 54.5625 L 43.111328 53.685547 L 42.496094 53.849609 L 43.142578 54.222656 L 42.755859 54.892578 L 42.720703 54.875 L 42.646484 55.15625 L 42.576172 55.416016 L 43.441406 55.646484 L 43.341797 55.476562 L 45.5 54.230469 L 46.140625 55.337891 L 44.681641 56.179688 L 44.226562 55.390625 L 43.675781 55.710938 L 44.398438 55.904297 L 44.195312 56.652344 L 44.158203 56.642578 L 44.158203 56.933594 L 44.158203 57.203125 L 45.054688 57.203125 L 44.914062 57.0625 L 46.675781 55.300781 L 47.580078 56.205078 L 46.390625 57.394531 L 45.748047 56.751953 L 45.296875 57.203125 L 46.042969 57.203125 L 46.042969 57.978516 L 46.003906 57.978516 L 46.080078 58.259766 L 46.150391 58.519531 L 47.015625 58.287109 L 46.841797 58.1875 L 48.087891 56.029297 L 49.195312 56.667969 L 48.355469 58.126953 L 47.568359 57.671875 L 47.25 58.224609 L 47.970703 58.03125 L 48.171875 58.777344 L 48.132812 58.789062 L 48.279297 59.041016 L 48.412109 59.273438 L 49.189453 58.826172 L 48.996094 58.775391 L 49.642578 56.367188 L 50.876953 56.699219 L 50.441406 58.326172 L 49.564453 58.089844 L 49.398438 58.705078 L 50.044922 58.332031 L 50.431641 59.001953 L 50.398438 59.021484 L 50.605469 59.228516 L 50.794922 59.417969 L 51.429688 58.783203 L 51.228516 58.783203 L 51.228516 56.292969 L 52.509766 56.292969 L 52.509766 57.974609 L 51.599609 57.974609 L 51.599609 58.613281 L 52.128906 58.083984 L 52.675781 58.632812 L 52.648438 58.660156 L 52.900391 58.806641 L 53.134766 58.941406 L 53.582031 58.164062 L 53.388672 58.216797 L 52.744141 55.808594 L 53.980469 55.478516 L 54.416016 57.105469 L 53.537109 57.339844 L 53.703125 57.955078 L 54.076172 57.308594 L 54.748047 57.695312 L 54.726562 57.730469 L 55.007812 57.804688 L 55.267578 57.875 L 55.5 57.009766 L 55.328125 57.109375 L 54.082031 54.951172 L 55.189453 54.310547 L 56.033203 55.769531 L 55.244141 56.224609 L 55.564453 56.775391 L 55.755859 56.052734 L 56.503906 56.253906 L 56.494141 56.292969 L 56.785156 56.292969 L 57.054688 56.292969 L 57.054688 55.398438 L 56.914062 55.537109 L 55.152344 53.775391 L 56.056641 52.871094 L 57.248047 54.0625 L 56.605469 54.705078 L 57.054688 55.154297 L 57.054688 54.40625 L 57.830078 54.40625 L 57.830078 54.447266 L 58.111328 54.371094 L 58.371094 54.302734 L 58.138672 53.4375 L 58.039062 53.609375 L 55.880859 52.363281 L 56.521484 51.255859 L 57.978516 52.095703 L 57.525391 52.882812 L 58.076172 53.203125 L 57.882812 52.480469 L 58.630859 52.279297 L 58.640625 52.318359 L 58.892578 52.173828 L 59.126953 52.039062 L 58.677734 51.263672 L 58.626953 51.455078 L 56.220703 50.810547 L 56.550781 49.576172 L 58.177734 50.011719 L 57.941406 50.888672 L 58.558594 51.054688 L 58.183594 50.40625 L 58.853516 50.019531 L 58.875 50.052734 L 59.080078 49.847656 L 59.271484 49.65625 L 58.638672 49.023438 L 58.638672 49.222656 L 56.146484 49.222656 L 56.146484 47.941406 L 57.830078 47.941406 L 57.830078 48.851562 L 58.464844 48.851562 L 57.939453 48.322266 L 58.484375 47.775391 L 58.513672 47.804688 L 58.658203 47.552734 L 58.794922 47.318359 L 58.017578 46.871094 L 58.070312 47.0625 L 55.662109 47.708984 L 55.332031 46.472656 L 56.957031 46.035156 L 57.193359 46.914062 L 57.808594 46.748047 L 57.160156 46.375 L 57.548828 45.705078 L 57.583984 45.724609 L 57.658203 45.443359 L 57.728516 45.183594 L 56.863281 44.951172 L 56.962891 45.123047 L 54.804688 46.369141 L 54.164062 45.261719 L 55.623047 44.419922 L 56.076172 45.207031 L 56.626953 44.888672 L 55.90625 44.695312 L 56.107422 43.947266 L 56.146484 43.957031 L 56.146484 43.666016 L 56.146484 43.398438 L 55.25 43.398438 L 55.390625 43.537109 L 53.628906 45.298828 L 52.724609 44.394531 L 53.914062 43.205078 L 54.556641 43.847656 L 55.007812 43.398438 L 54.259766 43.398438 L 54.259766 42.623047 L 54.300781 42.623047 L 54.224609 42.339844 L 54.15625 42.080078 L 53.289062 42.3125 L 53.462891 42.412109 L 52.216797 44.570312 L 51.107422 43.931641 L 51.949219 42.472656 L 52.736328 42.927734 L 53.056641 42.375 L 52.333984 42.568359 L 52.132812 41.822266 L 52.171875 41.810547 L 52.025391 41.558594 L 51.890625 41.324219 L 51.115234 41.773438 L 51.306641 41.824219 L 50.664062 44.230469 L 49.427734 43.900391 L 49.863281 42.273438 L 50.740234 42.509766 L 50.90625 41.892578 L 50.257812 42.267578 L 49.871094 41.597656 L 49.904297 41.578125 L 49.701172 41.371094 L 49.507812 41.181641 z M 46.451172 41.353516 L 44.919922 42.238281 L 45.802734 42.474609 L 46.451172 41.353516 z M 54.515625 41.738281 L 54.753906 42.621094 L 56.048828 42.621094 L 54.515625 41.738281 z M 44.261719 42.619141 L 43.011719 43.867188 L 43.927734 43.867188 L 44.261719 42.619141 z M 56.583984 43.158203 L 56.583984 44.074219 L 57.833984 44.408203 L 56.583984 43.158203 z M 42.474609 44.404297 L 41.589844 45.935547 L 42.474609 45.697266 L 42.474609 44.404297 z M 50.664062 44.761719 L 51.365234 45.166016 L 50.566406 46.550781 L 51.486328 45.632812 L 51.509766 45.654297 L 52.080078 45.083984 L 52.652344 45.654297 L 51.521484 46.785156 L 52.646484 46.136719 L 52.666016 46.164062 L 53.365234 45.761719 L 53.767578 46.460938 L 52.384766 47.259766 L 53.638672 46.923828 L 53.650391 46.957031 L 54.429688 46.746094 L 54.638672 47.527344 L 53.095703 47.941406 L 54.394531 47.941406 L 54.394531 47.974609 L 55.203125 47.974609 L 55.203125 48.783203 L 53.603516 48.783203 L 54.859375 49.119141 L 54.851562 49.152344 L 55.632812 49.361328 L 55.423828 50.142578 L 53.878906 49.728516 L 55.003906 50.378906 L 54.988281 50.408203 L 55.6875 50.810547 L 55.283203 51.511719 L 53.900391 50.710938 L 54.818359 51.632812 L 54.794922 51.65625 L 55.367188 52.226562 L 54.794922 52.798828 L 53.666016 51.667969 L 54.314453 52.794922 L 54.285156 52.810547 L 54.691406 53.509766 L 53.990234 53.916016 L 53.191406 52.53125 L 53.527344 53.787109 L 53.494141 53.796875 L 53.703125 54.578125 L 52.921875 54.787109 L 52.509766 53.242188 L 52.509766 54.542969 L 52.474609 54.542969 L 52.474609 55.349609 L 51.666016 55.349609 L 51.666016 53.751953 L 51.330078 55.007812 L 51.296875 54.998047 L 51.089844 55.779297 L 50.308594 55.570312 L 50.722656 54.025391 L 50.072266 55.152344 L 50.042969 55.134766 L 49.638672 55.833984 L 48.939453 55.431641 L 49.738281 54.044922 L 48.818359 54.966797 L 48.794922 54.941406 L 48.222656 55.513672 L 47.652344 54.941406 L 48.78125 53.8125 L 47.65625 54.462891 L 47.638672 54.433594 L 46.939453 54.835938 L 46.535156 54.136719 L 47.919922 53.337891 L 46.664062 53.673828 L 46.65625 53.640625 L 45.875 53.851562 L 45.664062 53.070312 L 47.210938 52.65625 L 45.908203 52.65625 L 45.908203 52.623047 L 45.099609 52.623047 L 45.099609 51.814453 L 46.701172 51.814453 L 45.443359 51.478516 L 45.451172 51.445312 L 44.671875 51.238281 L 44.880859 50.457031 L 46.423828 50.869141 L 45.298828 50.220703 L 45.316406 50.191406 L 44.615234 49.787109 L 45.021484 49.087891 L 46.404297 49.886719 L 45.486328 48.966797 L 45.507812 48.943359 L 44.9375 48.373047 L 45.507812 47.798828 L 46.638672 48.929688 L 45.988281 47.804688 L 46.017578 47.789062 L 45.615234 47.087891 L 46.314453 46.683594 L 47.113281 48.068359 L 46.777344 46.8125 L 46.810547 46.802734 L 46.599609 46.023438 L 47.380859 45.814453 L 47.794922 47.359375 L 47.794922 46.058594 L 47.828125 46.058594 L 47.828125 45.25 L 48.636719 45.25 L 48.636719 46.847656 L 48.972656 45.591797 L 49.005859 45.599609 L 49.214844 44.820312 L 49.996094 45.029297 L 49.582031 46.572266 L 50.232422 45.447266 L 50.261719 45.464844 L 50.664062 44.763672 L 50.664062 44.761719 z M 58.210938 45.066406 L 57.976562 45.951172 L 59.095703 46.597656 L 58.210938 45.066406 z M 17.6875 46.013672 L 19.876953 49.806641 L 17.6875 51.996094 L 17.6875 46.013672 z M 41.208984 46.591797 L 40.751953 48.298828 L 41.544922 47.841797 L 41.208984 46.591797 z M 59.291016 47.332031 L 58.833984 48.125 L 59.75 49.039062 L 59.291016 47.332031 z M 82.617188 48.607422 L 82.617188 54.589844 L 80.427734 50.796875 L 82.617188 48.607422 z M 40.556641 49.03125 L 40.556641 50.800781 L 41.203125 50.154297 L 40.556641 49.03125 z M 59.748047 49.796875 L 59.101562 50.445312 L 59.748047 51.568359 L 59.748047 49.796875 z M 40.554688 51.558594 L 41.011719 53.267578 L 41.470703 52.474609 L 40.554688 51.558594 z M 59.552734 52.298828 L 58.757812 52.755859 L 59.09375 54.007812 L 59.552734 52.298828 z M 41.207031 54 L 42.091797 55.533203 L 42.328125 54.648438 L 41.207031 54 z M 17.683594 54.5625 L 20.78125 57.660156 L 19.232422 60.341797 L 17.683594 54.5625 z M 58.714844 54.664062 L 57.830078 54.900391 L 57.830078 56.195312 L 58.714844 54.664062 z M 42.470703 56.189453 L 43.720703 57.441406 L 43.720703 56.525391 L 42.470703 56.189453 z M 56.376953 56.732422 L 56.042969 57.980469 L 57.292969 56.732422 L 56.376953 56.732422 z M 81.949219 57.066406 L 80.400391 62.845703 L 79.267578 58.615234 L 81.949219 57.066406 z M 44.255859 57.978516 L 45.789062 58.861328 L 45.550781 57.978516 L 44.255859 57.978516 z M 54.5 58.123047 L 53.853516 59.244141 L 55.384766 58.359375 L 54.5 58.123047 z M 47.695312 58.90625 L 46.443359 59.242188 L 48.152344 59.699219 L 47.695312 58.90625 z M 52.326172 58.980469 L 51.412109 59.896484 L 53.119141 59.439453 L 52.326172 58.980469 z M 50.005859 59.25 L 48.882812 59.896484 L 50.652344 59.896484 L 50.005859 59.25 z M 19.892578 62.822266 L 23.685547 65.011719 L 22.882812 68.003906 L 19.892578 62.822266 z M 79.115234 65.066406 L 76.125 70.248047 L 76.125 65.867188 L 79.115234 65.066406 z M 24.166016 70.226562 L 28.394531 71.361328 L 28.394531 74.457031 L 24.166016 70.226562 z M 71.210938 72.060547 L 74.308594 72.060547 L 70.078125 76.289062 L 71.210938 72.060547 z M 30.207031 76.275391 L 34.585938 76.275391 L 35.388672 79.265625 L 30.207031 76.275391 z M 64.861328 76.767578 L 67.853516 77.570312 L 62.671875 80.5625 L 64.861328 76.767578 z M 41.837891 79.417969 L 43.386719 82.099609 L 37.609375 80.550781 L 41.837891 79.417969 z M 57.511719 79.673828 L 60.193359 81.222656 L 54.414062 82.771484 L 57.511719 79.673828 z M 49.658203 80.576172 L 51.847656 82.767578 L 45.865234 82.767578 L 49.658203 80.576172 z " transform="translate(0,952.36223)"></path></g></svg>