<svg fill="#00DCFF" xmlns="http://www.w3.org/2000/svg" xmlns:xlink="http://www.w3.org/1999/xlink" version="1.1" x="0px" y="0px" viewBox="0 0 96 96" enable-background="new 0 0 96 96" xml:space="preserve"><path d="M71.988,56.69l-3.469-3.469l-4.107-4.109l-5.137-5.137l-5.451-5.453l-5.822-5.82L48,32.737v-0.03v-0.005l-5.821,5.82  l-5.451,5.453l-5.137,5.137l-4.109,4.109l-3.467,3.469l-3.221,3.219l-3.396,3.391c2.444-1.895,5.071-3.57,7.846-4.995  c0.546-0.28,1.098-0.55,1.656-0.813c0.006-0.002,0.009-0.002,0.011-0.002c2.006-0.938,4.079-1.738,6.215-2.406  c1.322-0.412,2.668-0.771,4.033-1.074c1.491-0.329,3.01-0.596,4.551-0.787c1.262-0.16,2.536-0.268,3.826-0.33  c0.502-0.029,1.011-0.045,1.52-0.056c0.313-0.005,0.628-0.005,0.944-0.005c0.002,0,0.002,0,0.002,0c0.316,0,0.633,0,0.945,0.005  c0.509,0.011,1.017,0.026,1.52,0.056c1.29,0.063,2.564,0.17,3.826,0.33c1.541,0.191,3.06,0.458,4.551,0.787  c1.365,0.303,2.71,0.662,4.032,1.074c2.136,0.668,4.21,1.469,6.216,2.406c0.002,0,0.005,0,0.011,0.002  c0.557,0.264,1.11,0.533,1.656,0.813c2.773,1.425,5.399,3.101,7.844,4.995l-3.395-3.391L71.988,56.69z"></path></svg>