<svg fill="#00DCFF" xmlns="http://www.w3.org/2000/svg" xmlns:xlink="http://www.w3.org/1999/xlink" version="1.1" x="0px" y="0px" viewBox="0 0 100 100" enable-background="new 0 0 100 100" xml:space="preserve"><path fill="#00DCFF" d="M75.444,61.341c0.225-0.506,0.436-1.021,0.631-1.542l0.529,0.191c-0.201,0.54-0.42,1.066-0.652,1.589  L75.444,61.341z M74.856,63.764c0.28-0.5,0.543-1.01,0.791-1.525l-0.508-0.236c-0.242,0.501-0.498,0.996-0.769,1.48L74.856,63.764z   M69.588,69.745c-0.397,0.391-0.81,0.767-1.229,1.131l1.084,1.29c0.459-0.396,0.906-0.807,1.336-1.229L69.588,69.745z   M23.083,50.448h-0.562c0.006,0.573,0.027,1.144,0.068,1.709l0.559-0.048C23.108,51.559,23.088,51.006,23.083,50.448z   M71.224,67.999c-0.363,0.421-0.736,0.833-1.125,1.231l1.19,1.189c0.421-0.436,0.832-0.883,1.224-1.342L71.224,67.999z   M23.086,49.722c0.011-0.534,0.034-1.072,0.075-1.612c0-0.016,0.002-0.032,0.004-0.047l-0.559-0.049  c-0.002,0.018-0.004,0.037-0.006,0.053c-0.041,0.555-0.066,1.106-0.074,1.655H23.086z M72.704,66.115  c-0.325,0.453-0.664,0.896-1.014,1.328l1.287,1.078c0.379-0.471,0.748-0.953,1.098-1.443L72.704,66.115z M23.206,52.83l-0.559,0.051  c0.053,0.569,0.125,1.137,0.213,1.698l0.556-0.099C23.331,53.938,23.259,53.386,23.206,52.83z M26.604,36.747l-0.485-0.281  c-0.278,0.496-0.543,0.999-0.793,1.511l0.508,0.236C26.075,37.715,26.335,37.227,26.604,36.747z M27.864,34.725l-0.459-0.321  c-0.322,0.467-0.627,0.946-0.922,1.436l0.485,0.28C27.255,35.646,27.553,35.18,27.864,34.725z M25.522,38.87l-0.506-0.236  c-0.234,0.516-0.453,1.042-0.658,1.575l0.527,0.192C25.084,39.882,25.296,39.372,25.522,38.87z M23.453,45.697l-0.554-0.099  c-0.092,0.56-0.168,1.125-0.229,1.694l0.56,0.049C23.287,46.787,23.362,46.239,23.453,45.697z M23.942,43.362l-0.541-0.145  c-0.142,0.549-0.268,1.105-0.375,1.667l0.555,0.098C23.687,44.437,23.806,43.896,23.942,43.362z M24.637,41.082l-0.528-0.192  c-0.188,0.535-0.359,1.077-0.52,1.628l0.543,0.145C24.284,42.128,24.452,41.601,24.637,41.082z M63.853,74.045  c-0.486,0.273-0.979,0.532-1.479,0.777l0.235,0.506c0.518-0.25,1.024-0.516,1.524-0.799L63.853,74.045z M24.077,57.521l-0.543,0.146  c0.154,0.552,0.324,1.1,0.509,1.637l0.528-0.19C24.39,58.589,24.226,58.059,24.077,57.521z M74.491,66.482  c0.136-0.2,0.27-0.4,0.396-0.604l-0.935-0.601c0.188-0.293,0.365-0.588,0.543-0.889l-0.484-0.277  c-0.283,0.479-0.58,0.949-0.892,1.408L74.491,66.482z M23.537,55.195l-0.552,0.097c0.104,0.563,0.225,1.123,0.363,1.675l0.543-0.146  C23.757,56.285,23.64,55.743,23.537,55.195z M52.616,79.156l-0.147-1.678c-0.547,0.041-1.099,0.065-1.653,0.072v0.297h-0.017v0.262  c0.541-0.004,1.083-0.025,1.619-0.062l0.079,1.118C52.537,79.162,52.575,79.16,52.616,79.156z M26.881,64.102l-0.485,0.281  c0.291,0.492,0.596,0.977,0.918,1.448l0.459-0.319C27.461,65.05,27.164,64.58,26.881,64.102z M25.755,61.994l-0.51,0.236  c0.248,0.517,0.51,1.024,0.787,1.522l0.486-0.28C26.251,62.988,25.994,62.495,25.755,61.994z M24.815,59.794l-0.524,0.192  c0.2,0.537,0.417,1.064,0.649,1.586l0.508-0.237C25.224,60.83,25.012,60.316,24.815,59.794z M65.888,72.78  c-0.46,0.313-0.929,0.614-1.408,0.899l0.281,0.487c0.493-0.295,0.977-0.604,1.448-0.927L65.888,72.78z M61.61,75.79  c0.115-0.05,0.226-0.103,0.342-0.155l-0.238-0.506c-0.508,0.229-1.021,0.446-1.542,0.645l0.571,1.572  c0.443-0.169,0.882-0.346,1.314-0.535L61.61,75.79z M29.296,32.823l-0.43-0.359c-0.361,0.438-0.709,0.887-1.043,1.349l0.459,0.32  C28.608,33.686,28.946,33.249,29.296,32.823z M54.849,77.201c-0.548,0.088-1.1,0.158-1.658,0.215l0.147,1.677  c0.604-0.061,1.207-0.141,1.802-0.237L54.849,77.201z M68.888,72.634l-1.085-1.29c-0.431,0.354-0.87,0.693-1.321,1.02l0.321,0.461  c0.255-0.186,0.509-0.372,0.755-0.564l0.688,0.887C68.462,72.979,68.677,72.809,68.888,72.634z M59.489,76.021  c-0.522,0.185-1.057,0.353-1.594,0.504l0.435,1.621c0.583-0.168,1.161-0.35,1.731-0.551L59.489,76.021z M57.194,76.715  c-0.537,0.137-1.08,0.255-1.633,0.359l0.293,1.652c0.597-0.112,1.188-0.244,1.773-0.395L57.194,76.715z M50.873,25.969l-0.425,0.738  l-0.428-0.738l-0.426-0.737h0.854h0.851L50.873,25.969z M50.635,25.972l0.19-0.329h-0.381h-0.379l0.188,0.329l0.19,0.329  L50.635,25.972z M77.541,56.967c0.138-0.551,0.259-1.111,0.362-1.677l-0.553-0.097c-0.102,0.55-0.218,1.093-0.35,1.629  L77.541,56.967z M35.644,25.196c-0.516,0.308-1.021,0.631-1.519,0.967l0.964,1.376c0.455-0.309,0.922-0.605,1.396-0.888  L35.644,25.196z M68.254,29.408c0.419,0.359,0.828,0.731,1.224,1.115l0.397-0.395c-0.409-0.396-0.83-0.78-1.261-1.15L68.254,29.408z   M71.584,32.806c0.351,0.427,0.688,0.866,1.013,1.313l0.459-0.321c-0.335-0.459-0.682-0.911-1.044-1.35L71.584,32.806z   M33.178,28.959c0.429-0.349,0.868-0.683,1.317-1.005l-0.321-0.458c-0.463,0.331-0.912,0.678-1.354,1.036L33.178,28.959z   M76.004,40.39l1.578-0.574c-0.218-0.563-0.451-1.119-0.701-1.666l-1.519,0.708C75.59,39.361,75.806,39.872,76.004,40.39z   M40.192,23.01c-0.564,0.212-1.119,0.442-1.662,0.689l0.707,1.52c0.5-0.226,1.012-0.436,1.527-0.631L40.192,23.01z M37.87,24.003  c-0.542,0.261-1.075,0.539-1.598,0.831l0.84,1.456c0.479-0.269,0.97-0.525,1.469-0.765L37.87,24.003z M77.444,45.688  c0.091,0.543,0.166,1.095,0.225,1.647l0.557-0.047c-0.059-0.57-0.136-1.136-0.229-1.697L77.444,45.688z M88.868,50.089h1.764  c0-16.037-9.393-29.881-22.975-36.329l-0.754,1.594C79.888,21.52,88.868,34.754,88.868,50.089z M30.888,31.052l-0.396-0.395  c-0.396,0.405-0.784,0.823-1.155,1.252l0.429,0.36C30.126,31.852,30.501,31.446,30.888,31.052z M42.88,23.301  c-0.047,0.013-0.091,0.024-0.137,0.038l-0.309-1.075c-0.527,0.151-1.048,0.318-1.562,0.498l0.574,1.578  c0.519-0.182,1.045-0.349,1.576-0.499L42.88,23.301z M78.303,52.152c0.041-0.572,0.063-1.145,0.07-1.71h-0.562  c-0.006,0.55-0.029,1.104-0.065,1.662L78.303,52.152z M78.882,44.238c-0.092-0.443-0.197-0.883-0.311-1.319l-1.618,0.433  c0.139,0.536,0.258,1.076,0.362,1.622l0.551-0.097c-0.026-0.137-0.051-0.275-0.078-0.411L78.882,44.238z M73.015,34.711  c0.314,0.457,0.614,0.92,0.901,1.396l1.45-0.838c-0.037-0.061-0.072-0.123-0.109-0.184l-0.955,0.581  c-0.264-0.432-0.54-0.856-0.828-1.274L73.015,34.711z M76.256,41.07c0.185,0.521,0.354,1.047,0.505,1.583l1.62-0.435  c-0.166-0.58-0.349-1.155-0.55-1.723L76.256,41.07z M75.051,38.203l1.521-0.709c-0.264-0.542-0.545-1.075-0.842-1.598l-1.449,0.837  C74.551,37.214,74.81,37.704,75.051,38.203z M77.81,49.717h0.559c-0.008-0.573-0.036-1.143-0.078-1.708l-0.555,0.049  C77.776,48.606,77.801,49.161,77.81,49.717z M67.696,28.942l0.361-0.428c-0.443-0.359-0.895-0.705-1.354-1.037l-0.319,0.458  C66.831,28.258,67.269,28.594,67.696,28.942z M78.024,54.577c0.088-0.562,0.162-1.128,0.215-1.7l-0.557-0.049  c-0.052,0.556-0.123,1.105-0.209,1.65L78.024,54.577z M53.218,22.401l-0.049,0.557c0.552,0.055,1.1,0.127,1.641,0.214l0.096-0.551  C54.349,22.531,53.786,22.458,53.218,22.401z M63.759,26.272l0.281-0.484c-0.497-0.277-0.999-0.539-1.514-0.785l-0.237,0.507  C62.79,25.75,63.278,26.005,63.759,26.272z M66.108,27.064c-0.472-0.32-0.951-0.625-1.439-0.916l-0.279,0.485  c0.477,0.282,0.941,0.578,1.398,0.886L66.108,27.064z M20.084,17.645l-1.267-1.358c-1.899,1.791-3.649,3.739-5.221,5.827  l1.452,1.103C16.567,21.219,18.255,19.356,20.084,17.645z M32.623,29.425l-0.358-0.428c-0.431,0.369-0.852,0.753-1.261,1.149  l0.397,0.395C31.797,30.157,32.204,29.784,32.623,29.425z M50.437,11.657V9.894c-22.197,0-40.192,17.995-40.192,40.195h1.764  C12.007,28.863,29.21,11.657,50.437,11.657z M76.851,59.309c0.184-0.539,0.354-1.086,0.508-1.641l-0.543-0.145  c-0.146,0.537-0.312,1.069-0.494,1.592L76.851,59.309z M50.792,22.264v0.562c0.548,0.008,1.1,0.031,1.652,0.071l0.051-0.559  C51.926,22.295,51.356,22.271,50.792,22.264z M47.646,22.398c-0.566,0.057-1.129,0.131-1.688,0.222l0.096,0.552  c0.543-0.087,1.09-0.162,1.641-0.216L47.646,22.398z M48.366,22.336l0.049,0.559c0.547-0.04,1.098-0.062,1.654-0.07v-0.562  C49.498,22.27,48.933,22.295,48.366,22.336z M61.632,25.205l0.238-0.507c-0.52-0.231-1.043-0.448-1.576-0.648l-0.191,0.526  C60.621,24.771,61.131,24.98,61.632,25.205z M45.243,22.747c-0.561,0.105-1.115,0.229-1.663,0.368l0.144,0.539  c0.535-0.134,1.073-0.252,1.616-0.355L45.243,22.747z M59.419,24.33l0.193-0.527c-0.535-0.185-1.078-0.354-1.629-0.508l-0.145,0.541  C58.373,23.984,58.901,24.149,59.419,24.33z M57.284,23.109c-0.549-0.137-1.104-0.258-1.665-0.363l-0.097,0.55  c0.545,0.103,1.084,0.22,1.617,0.354L57.284,23.109z M69.989,31.036c0.39,0.395,0.766,0.801,1.125,1.218l0.429-0.359  c-0.372-0.43-0.756-0.848-1.155-1.256L69.989,31.036z M65.03,35.144l-1.34,1.338l0.36,0.36l1.341-1.338L65.03,35.144z   M63.672,33.929l-1.214,1.449l0.389,0.329l1.217-1.449L63.672,33.929z M66.278,36.473l-0.297,0.247l-1.153,0.969l0.114,0.146  l0.213,0.244l1.449-1.217L66.278,36.473z M62.213,32.838l-1.082,1.549l0.414,0.293l1.086-1.549L62.213,32.838z M60.664,31.878  l-0.946,1.639l0.442,0.253l0.944-1.638L60.664,31.878z M57.349,30.38L56.7,32.158l0.48,0.174l0.646-1.778L57.349,30.38z   M74.894,49.711l-0.328,0.19l-0.33,0.191l0.33,0.189l0.328,0.19v-0.38V49.711z M59.039,31.056l-0.8,1.714l0.461,0.216l0.8-1.715  L59.039,31.056z M67.405,37.905l-1.551,1.084l0.293,0.418l1.549-1.085L67.405,37.905z M34.737,39.407l0.293-0.418l-1.549-1.084  l-0.293,0.416L34.737,39.407z M39.339,34.68l0.42-0.293l-1.085-1.549l-0.419,0.293L39.339,34.68z M42.187,32.986l0.461-0.217  l-0.801-1.713l-0.461,0.215L42.187,32.986z M40.726,33.771l0.441-0.255l-0.947-1.638l-0.439,0.254L40.726,33.771z M35.729,38.079  l0.328-0.392l-1.449-1.216l-0.328,0.391L35.729,38.079z M38.038,35.707l0.39-0.329l-1.214-1.45l-0.389,0.329L38.038,35.707z   M36.833,36.842l0.361-0.361l-1.338-1.337l-0.36,0.361L36.833,36.842z M52.009,29.265l-0.164,1.883l0.508,0.046l0.166-1.885  L52.009,29.265z M47.621,77.709l0.026-0.299c-0.541-0.055-1.076-0.129-1.607-0.215l-0.053,0.299l-0.019-0.003l-0.237,1.36  c0.601,0.097,1.201,0.176,1.803,0.235l0.119-1.375L47.621,77.709z M42.864,76.801l0.078-0.291c-0.525-0.148-1.045-0.314-1.56-0.494  l-0.192,0.526c0.06,0.019,0.114,0.04,0.172,0.062l-0.361,1.058c0.509,0.174,1.023,0.335,1.539,0.479l0.359-1.328L42.864,76.801z   M45.224,77.357l0.053-0.297c-0.532-0.103-1.061-0.219-1.582-0.351l-0.078,0.291l-0.018-0.006l-0.354,1.332  c0.588,0.151,1.18,0.282,1.774,0.396l0.239-1.357L45.224,77.357z M39.16,75.124l-0.238,0.507c0.521,0.237,1.052,0.457,1.589,0.662  l0.189-0.525C40.179,75.568,39.665,75.354,39.16,75.124z M50.042,77.85v-0.299c-0.539-0.009-1.08-0.031-1.621-0.072l-0.027,0.297  l-0.017-0.002l-0.12,1.379c0.604,0.046,1.209,0.07,1.816,0.078V77.85H50.042z M50.387,98.57c-26.737,0-48.407-21.672-48.407-48.405  c0-26.734,21.67-48.406,48.407-48.406c26.732,0,48.404,21.672,48.404,48.406C98.791,76.898,77.119,98.57,50.387,98.57z   M65.028,5.958c-0.019,0.052-0.026,0.105-0.026,0.158c0,0.203,0.128,0.392,0.329,0.461c4.081,1.399,7.947,3.37,11.49,5.858  c0.221,0.154,0.524,0.101,0.68-0.119c0.152-0.221,0.1-0.524-0.12-0.679c-3.616-2.54-7.565-4.553-11.733-5.981  C65.394,5.568,65.114,5.704,65.028,5.958z M30.508,8.596c1.304-0.624,2.649-1.192,4.005-1.689c0.252-0.092,0.383-0.372,0.287-0.625  c-0.092-0.252-0.371-0.382-0.625-0.29c-1.381,0.507-2.757,1.087-4.086,1.725c-0.176,0.084-0.277,0.258-0.277,0.439  c0,0.071,0.015,0.143,0.049,0.21C29.976,8.608,30.265,8.711,30.508,8.596z M37.083,92.221c4.195,1.331,8.664,2.055,13.304,2.055  c11.671,0,22.279-4.539,30.165-11.942l-0.781-0.837c1.756-1.643,3.387-3.438,4.859-5.387l0.908,0.691  c0.849-1.113,1.643-2.273,2.382-3.468l0.526,0.326c0.644-1.04,1.238-2.111,1.797-3.207l1.269,0.647  c1.175-2.334,2.148-4.763,2.911-7.263l-1.318-0.409c1.303-4.191,2.01-8.644,2.01-13.264h-0.618c0-3.434-0.397-6.774-1.142-9.981  l2.021-0.468c-0.604-2.542-1.414-5.027-2.438-7.432l-1.889,0.793c-0.596-1.413-1.259-2.793-1.992-4.127  c0.34-0.186,0.68-0.374,1.018-0.558c-0.553-1.004-1.145-1.98-1.766-2.935l-2.259,1.468c-1.313-2.023-2.789-3.929-4.418-5.695  l2.644-2.445c1.156,1.238,2.234,2.545,3.246,3.902l0.717-0.531c-2.131-2.873-4.584-5.489-7.299-7.807l-1.178,1.379  c-4.672-3.989-10.171-7.032-16.197-8.859l0.297-0.969c-2.502-0.749-5.062-1.289-7.655-1.606L56.08,5.279  c-1.847-0.229-3.724-0.357-5.634-0.357c-0.826,0-1.646,0.027-2.465,0.071l0.062,1.179c-2.52,0.136-4.98,0.495-7.372,1.038  L40.41,6.045c-4.026,0.914-7.847,2.364-11.384,4.273l-0.748-1.403c-9.357,5.001-16.816,13.084-21.021,22.896l0.551,0.235  c0.418-0.995,0.859-1.979,1.344-2.944l3.002,1.527c-1.086,2.145-2.006,4.388-2.725,6.722l-2.13-0.662  c-0.687,2.216-1.208,4.505-1.549,6.852l-2.403-0.353c-0.33,2.258-0.506,4.563-0.506,6.911c0,7.817,1.895,15.188,5.234,21.696  l2.158-1.104c0.715,1.391,1.51,2.732,2.36,4.035l0.929-0.604c1.36,2.085,2.888,4.051,4.569,5.87l-1.448,1.337  c1.312,1.413,2.709,2.746,4.188,3.985l0.545-0.646c4.478,3.769,9.69,6.688,15.401,8.499L37.083,92.221z M60.687,95.576  c0.062,0.263,0.325,0.426,0.588,0.361c6.553-1.554,12.586-4.444,17.931-8.593c0.129-0.101,0.187-0.254,0.18-0.405  c3.856-3.051,7.257-6.707,9.978-10.78c0.09-0.134,0.057-0.315-0.078-0.405c-0.137-0.091-0.316-0.054-0.405,0.081  c-2.69,4.028-6.054,7.642-9.867,10.656c-0.138-0.029-0.282-0.009-0.401,0.085c-5.232,4.062-11.143,6.894-17.562,8.415  c-0.224,0.053-0.374,0.254-0.374,0.473C60.673,95.502,60.678,95.54,60.687,95.576z M50.387,97.205c2.479,0,4.97-0.194,7.401-0.578  c0.265-0.044,0.449-0.298,0.404-0.559c-0.041-0.268-0.291-0.445-0.558-0.405c-2.382,0.378-4.821,0.567-7.249,0.567  c-0.271,0-0.486,0.219-0.486,0.486C49.899,96.986,50.116,97.205,50.387,97.205z M37.022,74.041l-0.278,0.482  c0.497,0.283,1.006,0.55,1.522,0.803l0.234-0.508C38,74.573,37.506,74.314,37.022,74.041z M86.864,67.076l-1.596-0.748  c-8.974,19.236-31.836,27.559-51.074,18.587c-1.541-0.72-3.014-1.524-4.412-2.414l-0.947,1.485c1.463,0.929,3.002,1.775,4.615,2.527  C53.571,95.896,77.481,87.191,86.864,67.076z M29.663,67.986l-0.432,0.361c0.373,0.436,0.758,0.858,1.156,1.271l0.396-0.396  C30.399,68.82,30.024,68.41,29.663,67.986z M50.188,29.207v1.892h0.508v-1.892H50.188z M34.989,72.773l-0.321,0.459  c0.474,0.324,0.954,0.635,1.446,0.93l0.279-0.486C35.917,73.389,35.446,73.089,34.989,72.773z M28.188,66.104l-0.459,0.322  c0.332,0.465,0.678,0.92,1.041,1.364l0.428-0.36C28.849,67,28.51,66.557,28.188,66.104z M43.709,32.332l0.476-0.174l-0.643-1.779  l-0.48,0.173L43.709,32.332z M53.819,29.48l-0.328,1.862l0.5,0.089l0.328-1.864L53.819,29.48z M33.077,71.335l-0.361,0.429  c0.443,0.365,0.898,0.715,1.36,1.051l0.319-0.459C33.946,72.027,33.507,71.688,33.077,71.335z M31.298,69.734l-0.396,0.396  c0.408,0.4,0.826,0.787,1.262,1.164l0.361-0.431C32.103,70.5,31.694,70.125,31.298,69.734z M55.604,29.852l-0.488,1.828l0.49,0.133  l0.489-1.829L55.604,29.852z M52.356,68.992l-0.508,0.047l0.166,1.885l0.506-0.046L52.356,68.992z M45.286,70.334l0.488-1.828  l-0.492-0.13l-0.49,1.826L45.286,70.334z M71.053,46.717l-0.089-0.503l-1.863,0.327l0.09,0.503L71.053,46.717z M70.683,44.933  l-0.136-0.494l-1.823,0.491l0.131,0.49L70.683,44.933z M45.282,31.812l0.492-0.133l-0.488-1.828l-0.494,0.132L45.282,31.812z   M47.069,70.708l0.328-1.865l-0.5-0.088l-0.33,1.864L47.069,70.708z M50.7,70.979v-1.891h-0.51l0.002,1.891H50.7z M48.882,70.924  l0.162-1.885l-0.508-0.047l-0.164,1.886L48.882,70.924z M71.271,48.525l-0.047-0.51l-1.884,0.167l0.044,0.508L71.271,48.525z   M26.653,50.091l-0.33-0.19l-0.328-0.19v0.381v0.379l0.328-0.189L26.653,50.091z M32.905,67.092l0.268,0.27l0.27,0.269l0.101-0.366  l0.099-0.365l-0.367,0.099L32.905,67.092z M29.71,66.57l0.781-0.622c-3.459-4.349-5.531-9.854-5.531-15.843  c0-2.911,0.504-5.701,1.402-8.306l-0.961-0.331c4.758-13.828,19.83-21.178,33.656-16.417l-0.379,1.099  c-6.16-2.121-12.578-1.726-18.137,0.636l0.324,0.775c-2.707,1.154-5.166,2.78-7.271,4.776l0.111,0.411l0.217,0.822l-0.817-0.22  l-0.412-0.11c-2.383,2.504-4.238,5.51-5.391,8.845l1.477,0.513c-0.813,2.351-1.252,4.879-1.252,7.507h2.026v-0.267l1.896-0.001  v0.509h-1.866c0.004,0.44,0.024,0.878,0.055,1.312l1.86-0.164l0.046,0.508l-1.862,0.162c0.043,0.438,0.102,0.869,0.17,1.301  l1.842-0.324l0.088,0.502l-1.842,0.324c0.082,0.432,0.176,0.857,0.283,1.282l1.807-0.488l0.134,0.494l-1.812,0.484  c0.121,0.424,0.252,0.84,0.394,1.251l1.763-0.641l0.176,0.479l-1.766,0.641c0.154,0.41,0.324,0.814,0.504,1.212l1.698-0.791  l0.214,0.461l-1.695,0.791c0.189,0.396,0.391,0.783,0.604,1.164l1.623-0.938l0.256,0.441l-1.621,0.938  c0.221,0.374,0.455,0.745,0.703,1.106l1.533-1.076l0.293,0.416l-1.533,1.074c0.256,0.356,0.521,0.705,0.797,1.041l1.436-1.203  l0.328,0.391l-1.436,1.204c0.285,0.33,0.58,0.653,0.884,0.966l1.327-1.325l0.361,0.362l-1.324,1.322  c0.312,0.308,0.633,0.604,0.965,0.889l1.203-1.438l0.393,0.328l-1.203,1.438c0.336,0.275,0.684,0.542,1.037,0.8l1.074-1.538  l0.42,0.292l-1.074,1.536c0.359,0.247,0.729,0.482,1.104,0.708l0.938-1.628l0.441,0.256l-0.938,1.627  c0.381,0.214,0.768,0.417,1.161,0.608l0.796-1.707l0.461,0.216l-0.795,1.706c0.273,0.124,0.551,0.239,0.828,0.351l-1.322,3.301  c2.633,1.055,5.492,1.666,8.485,1.738l0.172-0.298l0.427-0.737l0.424,0.737l0.173,0.298c6.29-0.152,11.991-2.681,16.235-6.724  l-0.094-0.359l-0.222-0.819l0.823,0.221l0.355,0.094c0.178-0.184,0.352-0.374,0.523-0.566l-2.651-2.363  c0.085-0.098,0.172-0.195,0.259-0.293l-1.436-1.201l0.328-0.393l1.435,1.203c0.274-0.339,0.542-0.686,0.798-1.039l-1.535-1.074  l0.295-0.418l1.533,1.072c0.244-0.359,0.479-0.729,0.705-1.104l-1.623-0.937l0.258-0.44l1.619,0.937  c0.213-0.383,0.414-0.771,0.605-1.164l-1.696-0.791l0.216-0.463l1.695,0.791c0.18-0.396,0.346-0.801,0.501-1.21l-1.758-0.641  l0.174-0.479l1.761,0.639c0.143-0.41,0.272-0.827,0.391-1.248l-1.805-0.484l0.129-0.495l1.809,0.485  c0.107-0.424,0.201-0.852,0.279-1.281l-1.836-0.32l0.086-0.506l1.838,0.323c0.07-0.427,0.127-0.86,0.168-1.299l-1.854-0.162  l0.043-0.509l1.854,0.162c0.03-0.434,0.05-0.868,0.055-1.31h-1.86v-0.511h1.894v0.273h2.028c0-5.82-2.17-11.132-5.741-15.163  c-0.316-0.356-0.644-0.716-0.982-1.054l0.329-0.327l0.219-0.81l0.109-0.411c-1.49-1.413-3.158-2.642-4.965-3.647l0.486-0.872  c1.988,1.107,3.805,2.483,5.42,4.062l0.718-0.731c7.077,6.931,9.96,17.567,6.519,27.557l-0.932-0.32  c-1.223,3.559-3.208,6.76-5.766,9.409l0.709,0.687c-10.16,10.519-26.924,10.812-37.444,0.652  C31.198,68.323,30.423,67.466,29.71,66.57z M67.25,33.286l0.366-0.098l0.369-0.1l-0.271-0.267l-0.271-0.271l-0.096,0.368  L67.25,33.286z M75.306,50.943v-0.852v-0.851l-0.736,0.425l-0.739,0.426l0.739,0.428L75.306,50.943z M67.444,67.628l0.27-0.271  l0.271-0.269l-0.369-0.098l-0.367-0.101l0.102,0.367L67.444,67.628z M50.078,74.516c0.12,0.002,0.243,0.002,0.366,0.002l0.363-0.002  l-0.176-0.305l-0.189-0.329l-0.188,0.329L50.078,74.516z M33.924,66.607l-0.821,0.221l-0.822,0.221l0.604,0.602l0.601,0.6l0.22-0.82  L33.924,66.607z M33.272,33.188l0.369,0.097l-0.1-0.367l-0.1-0.367l-0.269,0.27l-0.271,0.269L33.272,33.188z M25.585,50.939  l0.738-0.426l0.736-0.426l-0.736-0.426l-0.738-0.428v0.854V50.939z M70.153,43.188l-0.174-0.478l-1.775,0.646l0.172,0.479  L70.153,43.188z M67.765,42.295l1.713-0.799l-0.215-0.463l-1.714,0.8L67.765,42.295z M63.272,41.613  c1.541,2.345,2.355,4.954,2.504,7.566c-0.322,0.038-0.562,0.337-0.543,0.665v0.031c0.06,4.589-1.983,8.753-5.273,11.525  c-0.133,0.117-0.208,0.297-0.195,0.488c0.004,0.116,0.045,0.226,0.104,0.313c-0.325,0.256-0.665,0.498-1.019,0.729  c-7.107,4.666-16.652,2.687-21.318-4.423c-2.067-3.149-2.829-6.778-2.422-10.25c0.326,0.019,0.611-0.234,0.648-0.56l0.008-0.032  c0.736-4.528,3.475-8.276,7.193-10.436c0.148-0.094,0.256-0.257,0.279-0.446c0.014-0.117-0.004-0.229-0.053-0.328  C50.13,32.767,58.871,34.907,63.272,41.613z M59.515,59.956c-0.215,0.196-0.434,0.386-0.662,0.569l0.43,0.548  c0.244-0.197,0.48-0.401,0.709-0.611L59.515,59.956z M60.862,59.588l-0.521-0.462c-0.194,0.214-0.399,0.422-0.61,0.626l0.478,0.507  C60.435,60.041,60.653,59.816,60.862,59.588z M61.653,58.641l-0.559-0.414c-0.175,0.23-0.359,0.455-0.552,0.676l0.519,0.464  C61.267,59.131,61.464,58.889,61.653,58.641z M62.356,57.629l-0.59-0.367c-0.156,0.245-0.32,0.486-0.492,0.725l0.557,0.416  C62.019,58.148,62.192,57.889,62.356,57.629z M62.969,56.555l-0.62-0.312c-0.134,0.259-0.273,0.513-0.425,0.764l0.591,0.366  C62.676,57.104,62.827,56.832,62.969,56.555z M62.842,55.178c-0.11,0.271-0.229,0.537-0.356,0.799l0.619,0.312  c0.137-0.28,0.265-0.564,0.383-0.854L62.842,55.178z M63.239,54.073c-0.086,0.278-0.184,0.556-0.287,0.827l0.646,0.257  c0.111-0.292,0.215-0.585,0.309-0.884L63.239,54.073z M63.539,52.939c-0.063,0.283-0.134,0.565-0.216,0.849l0.668,0.198  c0.086-0.299,0.162-0.603,0.229-0.906L63.539,52.939z M63.739,51.783c-0.036,0.289-0.086,0.576-0.141,0.863l0.682,0.141  c0.062-0.307,0.111-0.613,0.149-0.922L63.739,51.783z M63.841,50.615c-0.014,0.291-0.035,0.582-0.064,0.871l0.689,0.082  c0.035-0.312,0.057-0.619,0.07-0.934L63.841,50.615z M64.532,49.401l-0.693,0.04c0.014,0.292,0.018,0.583,0.012,0.874l0.694,0.021  C64.552,50.024,64.547,49.714,64.532,49.401z M60.664,43.325c-0.356-0.545-0.75-1.053-1.175-1.522l0.48-0.438  c-1.943-2.137-4.588-3.61-7.543-4.076l-0.104,0.648c-2.911-0.463-6,0.117-8.661,1.862c-1.74,1.144-3.097,2.655-4.03,4.364  l-1.572,0.848c-1.339,3.279-1.354,7.046,0.137,10.421l-0.06,1.676c0.138,0.244,0.287,0.48,0.438,0.718  c2.822,4.297,7.582,6.554,12.367,6.373c2.49-0.093,4.987-0.845,7.221-2.31c0.305-0.203,0.598-0.412,0.883-0.631l-0.43-0.545  c-0.268,0.206-0.547,0.403-0.834,0.592c-5.459,3.586-12.565,2.684-16.973-1.81l0.344-0.337c2.664,2.717,6.355,4.072,10.035,3.85  l-0.037-0.689c2.067-0.123,4.131-0.772,5.986-1.993C62.808,56.604,64.386,48.993,60.664,43.325z M50.618,36.189l0.008-0.467  c-0.346-0.004-0.693,0.003-1.044,0.023c-3.808,0.219-7.185,1.904-9.608,4.476l0.1,0.095c-2.586,2.742-4.08,6.5-3.848,10.561  c0.1,1.77,0.521,3.443,1.201,4.971c0.032,0.07,0.139,0.023,0.105-0.048c-0.678-1.515-1.094-3.176-1.193-4.932  c-0.23-4.025,1.252-7.753,3.818-10.473l0.373,0.356c2.297-2.434,5.492-4.029,9.098-4.236c0.33-0.019,0.66-0.026,0.986-0.021  l0.004-0.188c4.68,0.069,8.848,2.5,11.287,6.206l-0.26,0.171c1.314,2.003,2.025,4.229,2.174,6.462l0.697-0.04  c-0.158-2.351-0.906-4.693-2.291-6.803l-0.225,0.148C59.542,38.709,55.338,36.258,50.618,36.189z M68.657,39.87l-0.256-0.44  l-1.639,0.946l0.256,0.441L68.657,39.87z M43.709,67.855l-0.647,1.777l0.48,0.174l0.646-1.777L43.709,67.855z M31.405,41.497  l1.716,0.799l0.214-0.461l-1.713-0.8L31.405,41.497z M30.728,43.188l1.781,0.648l0.176-0.48l-1.779-0.646L30.728,43.188z   M30.204,44.933l1.826,0.489l0.134-0.492l-1.829-0.49L30.204,44.933z M29.831,46.718l1.863,0.327l0.088-0.503l-1.863-0.327  L29.831,46.718z M32.228,39.87l1.639,0.947l0.257-0.441l-1.64-0.946L32.228,39.87z M48.878,29.265l-0.508,0.044l0.164,1.885  l0.508-0.046L48.878,29.265z M29.655,48.018l-0.043,0.508l1.888,0.165l0.046-0.508L29.655,48.018z M46.894,31.432l0.502-0.089  l-0.328-1.863l-0.502,0.088L46.894,31.432z M62.854,64.479l-0.394,0.328l1.217,1.451l0.394-0.331L62.854,64.479z M57.185,67.854  l-0.479,0.177l0.646,1.776l0.479-0.175L57.185,67.854z M58.705,67.199l-0.464,0.216l0.803,1.714l0.462-0.214L58.705,67.199z   M55.608,68.374l-0.492,0.13l0.49,1.829l0.494-0.131L55.608,68.374z M61.55,65.504l-0.414,0.295l1.084,1.551l0.416-0.295  L61.55,65.504z M53.997,68.755l-0.503,0.088l0.327,1.864l0.506-0.091L53.997,68.755z M64.062,63.342l-0.363,0.361l1.34,1.337  l0.359-0.358L64.062,63.342z M60.163,66.413l-0.439,0.257l0.946,1.639l0.442-0.254L60.163,66.413z"></path></svg>