<svg fill="#FFFFFF" xmlns="http://www.w3.org/2000/svg" xmlns:xlink="http://www.w3.org/1999/xlink" version="1.1" x="0px" y="0px" viewBox="0 0 100 100" enable-background="new 0 0 100 100" xml:space="preserve"><path d="M83.141,36.307c-2.097,0-3.798,1.62-3.969,3.673c-1.55,1.127-3.304,1.829-5.257,2.048c0.38-0.289,0.741-0.596,1.091-0.917  c1.556-0.197,2.765-1.51,2.765-3.12c0-1.745-1.415-3.159-3.159-3.159c-1.745,0-3.16,1.414-3.16,3.159  c0,0.812,0.315,1.543,0.817,2.103c-2.87,2.129-6.321,2.724-9.955,3.337c-0.657,0.111-1.318,0.225-1.979,0.347  c7.343-4.088,13.015-13.167,13.015-13.167c-9.251,3.55-13.935,7.407-16.309,10.333c0.717-1.805,1.256-3.646,1.602-5.514  c0.147-0.057,0.283-0.144,0.404-0.257c3.208-2.988,6.459-6.304,8.565-10.319c0.038-0.009,0.075-0.021,0.112-0.034  c4.559-1.617,9.237-3.887,9.554-8.441c1.089-0.433,1.861-1.492,1.861-2.734c0-1.627-1.32-2.947-2.947-2.947  c-1.626,0-2.946,1.32-2.946,2.947c0,1.106,0.616,2.058,1.518,2.562c-0.154,2.633-2.953,4.29-5.789,5.449  c0.623-1.882,0.933-3.806,0.974-5.814c1.548-0.553,2.663-2.017,2.663-3.755c0-2.209-1.793-4.001-4.002-4.001  s-4.002,1.792-4.002,4.001c0,1.795,1.19,3.296,2.818,3.804c-0.188,6.814-4.053,11.57-8.336,15.751  c0.071-1.232,0.048-2.453-0.028-3.683c1.404-0.621,2.388-2.022,2.388-3.656c0-2.21-1.793-4.001-4.002-4.001  s-4.002,1.792-4.002,4.001c0,1.896,1.324,3.476,3.095,3.889c0.427,7.032-1.438,13.446-5.604,19.065  c-0.966,1.304-2.093,2.61-3.421,3.968c-0.137-2.59-0.29-5.237-0.554-7.838c0.2-0.102,1.246-1.674,1.623-2.273  c2.041-3.243,4.141-6.584,4.771-10.511c0.641-0.562,1.055-1.378,1.055-2.298c0-1.696-1.376-3.07-3.071-3.07  c-1.694,0-3.07,1.374-3.07,3.07c0,1.453,1.012,2.662,2.367,2.981c-0.735,3.03-2.448,5.756-4.131,8.405  c-0.002,0.003-0.005,0.008-0.007,0.012c-0.362-2.38-0.83-4.493-1.42-6.491c1.392-0.626,2.366-2.019,2.366-3.645  c0-2.209-1.793-4.001-4.002-4.001s-4.002,1.792-4.002,4.001c0,1.882,1.306,3.45,3.056,3.877c1.867,6.043,2.202,12.179,2.536,18.658  l0.076,1.445c-2.888,2.612-6.064,4.989-9.137,7.29l-0.564,0.422c-0.162,0.121-0.331,0.25-0.494,0.372  c3.347-4.471,4.872-10.613,4.872-10.613c-4.02,3.259-6.365,6.095-7.727,8.378c0.163-0.734,0.296-1.471,0.38-2.205  c0.016-0.668,0.164-5.559,1.05-6.651c0.003-0.005,0.01-0.007,0.014-0.012c0.901-3.019,2.684-5.681,4.553-8.451  c0.235-0.348,0.465-0.7,0.699-1.049c1.75-0.427,3.056-1.995,3.056-3.877c0-2.209-1.793-4.001-4.002-4.001s-4.002,1.792-4.002,4.001  c0,1.54,0.88,2.86,2.154,3.53c-1.824,2.732-3.689,5.544-4.735,8.715c-0.455-0.904-1.046-1.746-1.725-2.542  c0.576-0.693,0.936-1.571,0.936-2.542c0-2.209-1.793-4.001-4.002-4.001c-2.209,0-4.002,1.792-4.002,4.001  c0,2.21,1.793,4.002,4.002,4.002c0.317,0,0.621-0.046,0.917-0.116c0,0,0.001,0,0.001,0c5.415,5.88,1.603,13.917-1.461,20.376  l-0.176,0.37c-0.549,0.486-1.049,0.947-1.53,1.397c-0.12,0.127-0.245,0.26-0.374,0.397c0.971-8.82-4.977-19.722-4.977-19.722  c-2.011,13.613,0.816,19.849,2.627,22.324c-1.376,1.557-2.652,3.043-3.064,3.523c-3.11,4.362-4.868,8.902-5.297,13.791  c-0.031,0.347,0.073,0.67,0.291,0.908c0.224,0.245,0.557,0.385,0.915,0.385c0.703,0,1.256-0.497,1.317-1.183  c0.524-5.961,3.1-11.211,8.093-16.499c7.779,5.335,22.31,2.857,22.31,2.857c-7.278-3.766-12.633-5.055-16.399-5.293  c1.923-0.484,3.903-0.8,5.852-1.107c2.915-0.461,5.927-0.936,8.712-1.969c3.785-0.193,7.602,0.071,11.479,0.773  c0.637,1.368,2.013,2.32,3.619,2.32c2.209,0,4.003-1.792,4.003-4.002s-1.794-4.002-4.003-4.002c-1.887,0-3.461,1.312-3.882,3.071  c-2.19-0.365-4.365-0.607-6.495-0.707c0.146-0.111,0.279-0.227,0.42-0.341c0.305,0.107,0.629,0.178,0.971,0.178  c1.622,0,2.938-1.315,2.938-2.938c0-1.622-1.316-2.938-2.938-2.938c-1.622,0-2.938,1.315-2.938,2.938  c0,0.337,0.068,0.657,0.173,0.958c-0.564,0.448-1.976,1.337-1.976,1.337c-0.008,0.005-1.73,0.843-1.73,0.843  c-0.594,0.23-4.453,1.354-4.453,1.354c-1.58,0.342-3.198,0.6-4.787,0.844c-1.881,0.288-3.805,0.583-5.684,1.031  c2.557-2.142,10.595-8.143,11.896-9.147c3.887-2.998,10.654-10.039,10.671-10.06c0.002,0,1.13-1.13,1.778-1.576l1.51-0.641  c0.041-0.003,0.083-0.017,0.123-0.017c0.006,0,0.012,0.002,0.019,0.002c2.425-1.279,13.132-3.014,14.751-3.636  c0.961,0.152,1.906,0.229,2.81,0.229c0.001,0,0.001,0,0.001,0c2.71,0,5.18-0.699,7.376-2.057c0.723,1.05,1.93,1.74,3.299,1.74  c2.209,0,4.002-1.792,4.002-4.001C87.143,38.099,85.35,36.307,83.141,36.307z"></path></svg>