<svg fill="#FFFFFF" xmlns="http://www.w3.org/2000/svg" xmlns:xlink="http://www.w3.org/1999/xlink" version="1.1" x="0px" y="0px" viewBox="144.445 0 566.929 566.929" enable-background="new 144.445 0 566.929 566.929" xml:space="preserve"><path fill-rule="evenodd" clip-rule="evenodd" d="M553.013,266.5c-7.969-0.058-14.766,5.461-16.594,12.826h-80.309  c-0.651-4.593-2.427-9.038-5.323-12.879l56.808-56.808c6.564,3.928,15.031,3.092,20.682-2.543  c6.658-6.639,6.669-17.401,0.023-24.036c-6.598-6.59-17.263-6.609-23.925-0.044c-5.676,5.594-6.579,14.303-2.663,20.803  l-56.781,56.78c-3.711-2.792-8.114-4.685-12.884-5.353v-80.339c7.419-1.864,12.814-8.442,12.826-16.422  c0.014-9.402-7.59-17.021-16.979-17.014c-9.326,0.007-16.88,7.534-16.949,16.887c-0.058,7.97,5.462,14.767,12.827,16.594v80.318  c-0.047,0.006-0.093,0.015-0.139,0.021c-0.053,0.008-0.106,0.017-0.159,0.025c-4.491,0.683-8.831,2.44-12.591,5.277l-56.808-56.809  c3.927-6.564,3.091-15.03-2.542-20.682c-6.639-6.658-17.402-6.668-24.037-0.023c-6.589,6.599-6.609,17.264-0.044,23.925  c5.595,5.676,14.304,6.579,20.803,2.664l56.783,56.782c-2.788,3.709-4.677,8.107-5.344,12.873h-80.339  c-1.865-7.42-8.443-12.814-16.422-12.826c-9.402-0.014-17.02,7.59-17.013,16.98c0.007,9.325,7.534,16.878,16.887,16.947  c7.969,0.059,14.766-5.461,16.593-12.826h80.307c0.649,4.601,2.425,9.053,5.326,12.898l-56.809,56.809  c-6.564-3.928-15.031-3.092-20.682,2.543c-6.658,6.639-6.668,17.402-0.023,24.037c6.599,6.588,17.263,6.607,23.924,0.043  c5.676-5.594,6.58-14.303,2.664-20.803l56.792-56.793c0.052,0.039,0.105,0.076,0.158,0.115c0.006,0.006,0.013,0.01,0.02,0.016  c3.672,2.715,8.005,4.557,12.695,5.215v80.338c-7.419,1.865-12.815,8.443-12.827,16.422c-0.014,9.402,7.59,17.02,16.98,17.014  c9.325-0.008,16.88-7.533,16.948-16.887c0.058-7.969-5.462-14.766-12.826-16.594v-80.297c4.597-0.65,9.044-2.426,12.889-5.326  l56.808,56.809c-3.928,6.564-3.091,15.031,2.543,20.682c6.639,6.658,17.401,6.668,24.036,0.023  c6.59-6.598,6.609-17.262,0.044-23.924c-5.595-5.676-14.303-6.58-20.803-2.664l-56.79-56.791c2.792-3.711,4.685-8.115,5.353-12.884  h80.339c1.864,7.419,8.441,12.814,16.422,12.826c9.401,0.014,17.02-7.589,17.013-16.979  C569.893,274.123,562.366,266.569,553.013,266.5z M302.922,294.803c-6.228,0.008-11.297-5.053-11.304-11.283  c-0.006-6.343,5.064-11.433,11.353-11.395c6.229,0.037,11.235,5.105,11.224,11.364C314.183,289.751,309.156,294.796,302.922,294.803  z M433.719,301.506c-0.039,0.012-0.077,0.025-0.116,0.037c-1.77,0.551-3.651,0.848-5.6,0.85c-3.622,0.004-7-0.98-9.877-2.695  c-0.146-0.088-0.291-0.178-0.434-0.27c-0.052-0.033-0.106-0.066-0.158-0.102c-1.041-0.688-2.027-1.487-2.943-2.401  c-2.307-2.302-3.905-5.03-4.803-7.918c-0.521-1.727-0.806-3.556-0.807-5.449c-0.003-2.989,0.667-5.812,1.864-8.326  c0.005-0.013,0.012-0.024,0.018-0.036c0.096-0.2,0.198-0.396,0.301-0.592c0.854-1.599,1.951-3.101,3.295-4.448  c2.564-2.569,5.656-4.263,8.911-5.084c0.13-0.031,0.259-0.062,0.391-0.091c0.099-0.023,0.198-0.045,0.298-0.066  c1.216-0.247,2.472-0.378,3.758-0.379c2.947-0.003,5.73,0.649,8.217,1.814c0.159,0.076,0.318,0.154,0.476,0.235  c0.058,0.028,0.115,0.058,0.173,0.088c1.636,0.861,3.172,1.978,4.547,3.351c2.345,2.339,3.961,5.119,4.85,8.062  c0.015,0.051,0.029,0.101,0.043,0.151c0.051,0.173,0.097,0.347,0.143,0.52c0.372,1.478,0.574,3.022,0.575,4.615  c0.004,3.585-0.962,6.929-2.646,9.788c-0.777,1.294-1.72,2.518-2.833,3.633c-2.078,2.083-4.503,3.588-7.08,4.522  C434.094,301.379,433.907,301.445,433.719,301.506z M508.271,187.076c4.397-4.409,11.562-4.415,15.972-0.014  c4.489,4.479,4.503,11.664,0.029,16.084c-4.431,4.379-11.555,4.335-15.973-0.099C503.88,198.612,503.867,191.49,508.271,187.076z   M416.571,158.477c-0.008-6.228,5.053-11.298,11.283-11.304c6.343-0.007,11.432,5.063,11.396,11.353  c-0.038,6.229-5.106,11.235-11.365,11.224C421.622,169.738,416.577,164.711,416.571,158.477z M331.511,203.113  c-4.409-4.398-4.415-11.562-0.014-15.972c4.48-4.489,11.664-4.503,16.085-0.03c4.378,4.432,4.334,11.556-0.1,15.973  C343.047,207.502,335.926,207.516,331.511,203.113z M347.548,379.871c-4.398,4.41-11.562,4.416-15.972,0.016  c-4.489-4.482-4.502-11.666-0.029-16.086c4.431-4.379,11.555-4.334,15.972,0.1C351.938,368.338,351.951,375.457,347.548,379.871z   M439.247,408.451c0.009,6.229-5.053,11.297-11.282,11.305c-6.343,0.006-11.433-5.064-11.396-11.354  c0.038-6.229,5.105-11.234,11.365-11.223C434.197,397.191,439.241,402.217,439.247,408.451z M524.307,363.836  c4.409,4.398,4.414,11.562,0.014,15.971c-4.48,4.49-11.665,4.504-16.085,0.031c-4.378-4.432-4.334-11.555,0.1-15.973  C512.772,359.445,519.894,359.431,524.307,363.836z M552.848,294.804c-6.229-0.038-11.235-5.106-11.224-11.364  c0.012-6.263,5.037-11.308,11.272-11.314c6.228-0.008,11.297,5.054,11.304,11.283C564.206,289.751,559.137,294.841,552.848,294.804z  "></path></svg>