<svg fill="#00DCFF" xmlns:dc="http://purl.org/dc/elements/1.1/" xmlns:cc="http://creativecommons.org/ns#" xmlns:rdf="http://www.w3.org/1999/02/22-rdf-syntax-ns#" xmlns:svg="http://www.w3.org/2000/svg" xmlns="http://www.w3.org/2000/svg" xmlns:sodipodi="http://sodipodi.sourceforge.net/DTD/sodipodi-0.dtd" xmlns:inkscape="http://www.inkscape.org/namespaces/inkscape" version="1.1" x="0px" y="0px" viewBox="0 0 100 100"><g transform="translate(0,-952.36218)"><path style="text-indent:0;text-transform:none;direction:ltr;block-progression:tb;baseline-shift:baseline;color:#000000;enable-background:accumulate;" d="m 90.954439,960.31592 a 1.0001,1.0001 0 0 0 -0.6875,0.3125 c -10.973104,11.48077 -35.033704,37.4576 -46.343704,49.31258 l -16.2813,-14.37508 a 1.0001,1.0001 0 1 0 -1.3125,1.5 l 17,15.00008 a 1.0001,1.0001 0 0 0 1.375,-0.062 c 11.1274,-11.6419 35.9051,-38.36062 47.000004,-49.96883 a 1.0001,1.0001 0 0 0 -0.75,-1.71875 z m -43.531204,0.0312 c -4.795,-0.0554 -9.6029,0.78528 -14.2188,2.53125 -20.1303,7.61437 -30.3017992,30.11966 -22.6875,50.25003 7.6144,20.1303 30.1198,30.3019 50.25,22.6875 20.1304,-7.6144 30.301904,-30.1197 22.6875,-50.25003 a 1.00327,1.0032703 0 1 0 -1.875,0.6875 c 7.232,19.11933 -2.3806,40.45553 -21.5,47.68753 -19.1194,7.232 -40.4556,-2.3806 -47.6875,-21.5 -7.2318992,-19.11939 2.3807,-40.45557 21.5,-47.68753 11.68,-4.41795 24.8174,-2.67138 34.9063,4.6875 a 1.0020588,1.0020592 0 0 0 1.1875,-1.59375 c -6.6452,-4.84705 -14.571,-7.40767 -22.5625,-7.5 z" fill="#00DCFF" fill-opacity="1" stroke="none" marker="none" visibility="visible" display="inline" overflow="visible"></path></g></svg>