<svg fill="#00DCFF" xmlns="http://www.w3.org/2000/svg" xmlns:xlink="http://www.w3.org/1999/xlink" version="1.1" x="0px" y="0px" viewBox="0 0 100 100" enable-background="new 0 0 100 100" xml:space="preserve"><g><path d="M91.16,50.253c0,0-0.064,0.885-0.185,2.545c-0.042,0.436-0.037,0.832-0.128,1.435c-0.098,0.608-0.206,1.272-0.321,1.989   c-0.129,0.708-0.235,1.503-0.421,2.281c-0.209,0.756-0.431,1.56-0.665,2.409c-1.021,3.353-2.604,7.382-5.404,11.384   c-2.753,4.004-6.585,8.06-11.598,11.278c-5.01,3.191-11.186,5.499-17.912,6.161c-0.836,0.112-1.689,0.081-2.54,0.125l-1.282,0.037   l-0.644,0.017l-0.268-0.005l-0.073-0.005l-0.146-0.011l-0.293-0.021c-1.588-0.137-3.04-0.142-4.962-0.523   c-0.899-0.167-1.847-0.28-2.711-0.509c-0.857-0.238-1.719-0.478-2.584-0.718c-0.875-0.208-1.7-0.583-2.548-0.899   c-0.833-0.352-1.712-0.604-2.51-1.051c-3.321-1.518-6.393-3.624-9.242-6.016c-2.803-2.464-5.242-5.361-7.319-8.518   c-2.023-3.201-3.546-6.717-4.63-10.362c-1.018-3.675-1.434-7.487-1.44-11.277l0.196-2.782c0.046-0.454,0.034-0.859,0.127-1.354   l0.242-1.445l0.249-1.44l0.127-0.718l0.187-0.683l0.761-2.72c1.22-3.556,2.858-6.94,4.959-9.981   c2.155-2.997,4.636-5.706,7.436-7.97c2.845-2.193,5.869-4.088,9.093-5.403c3.221-1.281,6.518-2.268,9.833-2.598   c1.641-0.287,3.292-0.243,4.908-0.308l0.303-0.008l0.151-0.004l0.076-0.002l0.137,0.005l0.583,0.042l1.16,0.084   c0.778,0.074,1.522,0.07,2.313,0.208c6.35,0.889,11.869,3.254,16.353,6.358c4.462,3.132,7.774,6.958,10.102,10.658   c2.373,3.699,3.622,7.355,4.407,10.364c0.178,0.76,0.346,1.479,0.504,2.156c0.134,0.681,0.186,1.333,0.274,1.932   c0.078,0.6,0.15,1.155,0.216,1.663c0.063,0.508,0.041,0.977,0.064,1.393C86.141,49.112,86.167,50,86.167,50L91.16,50.253z    M86.167,50c0,0-0.064-0.885-0.185-2.544c-0.041-0.413-0.039-0.879-0.125-1.382c-0.088-0.503-0.184-1.051-0.288-1.644   c-0.114-0.59-0.193-1.232-0.356-1.901c-0.186-0.663-0.384-1.367-0.593-2.111c-0.906-2.937-2.293-6.47-4.764-9.972   c-2.426-3.505-5.798-7.058-10.2-9.866c-2.235-1.335-4.629-2.632-7.289-3.504c-0.663-0.221-1.324-0.461-2-0.673   c-0.69-0.161-1.386-0.322-2.088-0.486l-1.053-0.247c-0.352-0.078-0.709-0.099-1.064-0.153c-0.71-0.093-1.425-0.187-2.145-0.281   c-0.716-0.1-1.517-0.065-2.28-0.105L50.575,15.1l-0.584-0.017l-0.504,0.038c-1.507,0.132-3.039,0.15-4.55,0.489   c-3.056,0.435-6.05,1.49-8.944,2.786c-0.708,0.361-1.419,0.724-2.133,1.088c-0.709,0.371-1.361,0.85-2.047,1.27l-1.02,0.65   l-0.958,0.746c-0.629,0.51-1.294,0.979-1.899,1.523c-2.442,2.161-4.56,4.702-6.37,7.456c-1.756,2.799-3.066,5.868-4.008,9.041   l-0.561,2.421l-0.14,0.604l-0.074,0.596l-0.153,1.189l-0.16,1.185c-0.068,0.38-0.04,0.869-0.065,1.298L16.333,50   c0.162,3.307,0.663,6.58,1.674,9.693c1.077,3.084,2.503,6.021,4.336,8.66c1.888,2.595,4.048,4.947,6.486,6.908   c0.604,0.494,1.266,0.912,1.888,1.371l0.946,0.669l1.003,0.573c0.674,0.368,1.311,0.796,2.001,1.115   c0.693,0.313,1.383,0.624,2.07,0.935c0.669,0.35,1.414,0.508,2.109,0.772c0.709,0.227,1.394,0.519,2.124,0.647   c0.717,0.166,1.431,0.332,2.142,0.497c0.707,0.158,1.371,0.185,2.049,0.291c1.23,0.245,2.961,0.214,4.496,0.274l0.293,0.008   l0.146,0.004l0.073,0.002c0.067,0.003-0.314-0.011-0.122-0.008l0.523-0.042l1.041-0.08c0.689-0.07,1.381-0.061,2.052-0.188   c5.405-0.787,10.226-2.847,14.079-5.54c3.85-2.723,6.703-6.046,8.703-9.247c2.044-3.199,3.097-6.359,3.768-8.951   c0.152-0.655,0.296-1.275,0.432-1.858c0.11-0.571,0.136-1.07,0.209-1.551c0.066-0.475,0.127-0.915,0.183-1.318   c0.057-0.408,0.04-0.947,0.061-1.34c0.047-1.664,0.073-2.551,0.073-2.551L86.167,50z"></path></g></svg>