<svg fill="#D1B794" xmlns="http://www.w3.org/2000/svg" xmlns:xlink="http://www.w3.org/1999/xlink" version="1.1" x="0px" y="0px" viewBox="0 0 500 500" enable-background="new 0 0 500 500" xml:space="preserve"><g><path d="M250,15.32C120.39,15.32,15.32,120.39,15.32,250c0,129.609,105.07,234.68,234.68,234.68   c129.609,0,234.68-105.07,234.68-234.68C484.68,120.39,379.609,15.32,250,15.32z M250,470.6   c-121.833,0-220.599-98.767-220.599-220.6c0-121.833,98.767-220.599,220.599-220.599c121.833,0,220.6,98.767,220.6,220.599   C470.6,371.833,371.833,470.6,250,470.6z"></path></g><g><path d="M250,38.788C133.351,38.788,38.788,133.351,38.788,250c0,116.648,94.563,211.211,211.212,211.211   c116.648,0,211.211-94.563,211.211-211.211C461.211,133.351,366.648,38.788,250,38.788z M250,448.539   c-109.649,0-198.539-88.89-198.539-198.539S140.351,51.461,250,51.461S448.539,140.351,448.539,250S359.649,448.539,250,448.539z"></path></g><g><path d="M250,59.91C145.016,59.91,59.91,145.016,59.91,250C59.91,354.983,145.016,440.09,250,440.09   c104.983,0,190.089-85.106,190.089-190.089C440.09,145.016,354.983,59.91,250,59.91z M250,428.686   c-98.685,0-178.685-80-178.685-178.685c0-98.685,80-178.685,178.685-178.685c98.685,0,178.685,80,178.685,178.685   C428.686,348.686,348.686,428.686,250,428.686z"></path></g><g><path d="M250,78.919c-94.485,0-171.081,76.596-171.081,171.081c0,94.484,76.596,171.08,171.081,171.08   c94.484,0,171.08-76.596,171.08-171.08C421.08,155.515,344.484,78.919,250,78.919z M250,410.816   c-88.815,0-160.816-72-160.816-160.816c0-88.815,72.001-160.816,160.816-160.816c88.816,0,160.816,72.001,160.816,160.816   C410.816,338.816,338.816,410.816,250,410.816z"></path></g><g><path d="M250,96.027c-85.037,0-153.973,68.936-153.973,153.973c0,85.035,68.936,153.972,153.973,153.972   c85.035,0,153.972-68.938,153.972-153.972C403.973,164.963,335.035,96.027,250,96.027z M250,394.734   c-79.934,0-144.735-64.8-144.735-144.734S170.066,105.266,250,105.266S394.734,170.066,394.734,250S329.935,394.734,250,394.734z"></path></g><g><path d="M250,111.424c-76.533,0-138.576,62.042-138.576,138.576c0,76.531,62.042,138.575,138.576,138.575   c76.531,0,138.575-62.044,138.575-138.575C388.575,173.467,326.531,111.424,250,111.424z M250,380.261   c-71.94,0-130.261-58.319-130.261-130.261c0-71.94,58.321-130.261,130.261-130.261c71.941,0,130.261,58.321,130.261,130.261   C380.261,321.941,321.941,380.261,250,380.261z"></path></g><g><path d="M250,125.282c-68.88,0-124.718,55.838-124.718,124.718c0,68.878,55.838,124.718,124.718,124.718   c68.878,0,124.718-55.84,124.718-124.718C374.718,181.12,318.878,125.282,250,125.282z M250,367.234   c-64.747,0-117.235-52.487-117.235-117.234c0-64.747,52.488-117.235,117.235-117.235c64.747,0,117.234,52.488,117.234,117.235   C367.234,314.747,314.747,367.234,250,367.234z"></path></g><g><path d="M250,137.754c-61.992,0-112.246,50.254-112.246,112.246c0,61.99,50.254,112.246,112.246,112.246   c61.99,0,112.246-50.256,112.246-112.246C362.246,188.008,311.99,137.754,250,137.754z M250,355.511   c-58.272,0-105.511-47.238-105.511-105.511c0-58.272,47.239-105.511,105.511-105.511c58.272,0,105.511,47.239,105.511,105.511   C355.511,308.272,308.272,355.511,250,355.511z"></path></g><g><path d="M250,148.979c-55.793,0-101.021,45.229-101.021,101.021c0,55.791,45.229,101.021,101.021,101.021   c55.791,0,101.021-45.23,101.021-101.021C351.021,194.207,305.791,148.979,250,148.979z M250,344.959   c-52.445,0-94.96-42.514-94.96-94.959c0-52.445,42.515-94.96,94.96-94.96c52.445,0,94.959,42.515,94.959,94.96   C344.959,302.445,302.445,344.959,250,344.959z"></path></g><g><path d="M250,159.081c-50.214,0-90.919,40.706-90.919,90.919c0,50.212,40.706,90.92,90.919,90.92   c50.212,0,90.92-40.708,90.92-90.92C340.92,199.786,300.212,159.081,250,159.081z M250,335.463   c-47.2,0-85.464-38.262-85.464-85.463c0-47.2,38.264-85.464,85.464-85.464c47.201,0,85.463,38.264,85.463,85.464   C335.463,297.201,297.201,335.463,250,335.463z"></path></g><g><path d="M250,168.172c-45.192,0-81.828,36.636-81.828,81.828c0,45.19,36.636,81.828,81.828,81.828   c45.19,0,81.828-36.638,81.828-81.828C331.828,204.808,295.19,168.172,250,168.172z M250,326.916   c-42.48,0-76.917-34.436-76.917-76.916S207.52,173.083,250,173.083S326.916,207.52,326.916,250S292.48,326.916,250,326.916z"></path></g><g><path d="M250,176.354c-40.673,0-73.646,32.972-73.646,73.646c0,40.672,32.972,73.645,73.646,73.645   c40.672,0,73.645-32.973,73.645-73.645C323.645,209.327,290.672,176.354,250,176.354z M250,319.225   c-38.232,0-69.226-30.992-69.226-69.225s30.993-69.226,69.226-69.226s69.225,30.993,69.225,69.226S288.232,319.225,250,319.225z"></path></g><g><path d="M250,183.719c-36.606,0-66.281,29.675-66.281,66.281c0,36.604,29.675,66.279,66.281,66.279   c36.604,0,66.279-29.675,66.279-66.279C316.279,213.395,286.604,183.719,250,183.719z M250,312.303   c-34.409,0-62.303-27.894-62.303-62.302c0-34.409,27.894-62.303,62.303-62.303c34.409,0,62.302,27.894,62.302,62.303   C312.303,284.409,284.409,312.303,250,312.303z"></path></g><g><path d="M250.001,190.348c-32.945,0-59.653,26.708-59.653,59.653c0,32.944,26.708,59.651,59.653,59.651   c32.944,0,59.651-26.707,59.651-59.651C309.652,217.056,282.945,190.348,250.001,190.348z M250.001,306.073   c-30.968,0-56.073-25.104-56.073-56.072c0-30.968,25.104-56.073,56.073-56.073c30.968,0,56.072,25.104,56.072,56.073   C306.073,280.969,280.969,306.073,250.001,306.073z"></path></g><g><path d="M250.001,196.313c-29.651,0-53.688,24.037-53.688,53.688c0,29.649,24.037,53.687,53.688,53.687   c29.649,0,53.687-24.037,53.687-53.687C303.688,220.35,279.65,196.313,250.001,196.313z M250.001,300.466   c-27.872,0-50.466-22.595-50.466-50.465c0-27.872,22.594-50.466,50.466-50.466c27.87,0,50.465,22.594,50.465,50.466   C300.466,277.871,277.871,300.466,250.001,300.466z"></path></g><g><path d="M250.001,201.681c-26.687,0-48.32,21.633-48.32,48.32c0,26.685,21.633,48.317,48.32,48.317   c26.685,0,48.317-21.633,48.317-48.317C298.318,223.314,276.686,201.681,250.001,201.681z M250.001,295.419   c-25.085,0-45.419-20.335-45.419-45.418c0-25.085,20.334-45.419,45.419-45.419c25.083,0,45.418,20.334,45.418,45.419   C295.419,275.084,275.084,295.419,250.001,295.419z"></path></g><g><path d="M250.001,206.513c-24.018,0-43.488,19.47-43.488,43.488c0,24.017,19.47,43.485,43.488,43.485   c24.017,0,43.485-19.469,43.485-43.485C293.486,225.983,274.018,206.513,250.001,206.513z M250.001,290.877   c-22.577,0-40.877-18.301-40.877-40.876c0-22.577,18.301-40.877,40.877-40.877c22.575,0,40.876,18.301,40.876,40.877   C290.877,272.576,272.576,290.877,250.001,290.877z"></path></g><g><path d="M250.001,210.862c-21.616,0-39.139,17.522-39.139,39.139c0,21.614,17.522,39.137,39.139,39.137   c21.614,0,39.137-17.522,39.137-39.137C289.138,228.385,271.615,210.862,250.001,210.862z M250.001,286.789   c-20.319,0-36.79-16.471-36.79-36.788c0-20.319,16.471-36.79,36.79-36.79c20.317,0,36.788,16.471,36.788,36.79   C286.789,270.318,270.318,286.789,250.001,286.789z"></path></g><g><path d="M250.001,214.776c-19.455,0-35.225,15.771-35.225,35.225c0,19.452,15.771,35.223,35.225,35.223   c19.452,0,35.223-15.771,35.223-35.223C285.224,230.546,269.453,214.776,250.001,214.776z M250.001,283.109   c-18.287,0-33.111-14.822-33.111-33.108c0-18.287,14.824-33.111,33.111-33.111c18.286,0,33.108,14.824,33.108,33.111   C283.109,268.287,268.287,283.109,250.001,283.109z"></path></g><g><path d="M250.001,218.299c-17.509,0-31.702,14.193-31.702,31.702c0,17.507,14.193,31.7,31.702,31.7c17.507,0,31.7-14.193,31.7-31.7   C281.701,232.492,267.508,218.299,250.001,218.299z M250.001,279.799c-16.458,0-29.799-13.34-29.799-29.798   c0-16.458,13.341-29.799,29.799-29.799c16.458,0,29.798,13.341,29.798,29.799C279.799,266.459,266.459,279.799,250.001,279.799z"></path></g><g><path d="M250.001,221.469c-15.758,0-28.532,12.774-28.532,28.532c0,15.756,12.774,28.53,28.532,28.53   c15.756,0,28.53-12.774,28.53-28.53C278.531,234.243,265.757,221.469,250.001,221.469z M250.001,276.818   c-14.813,0-26.819-12.006-26.819-26.817c0-14.813,12.006-26.819,26.819-26.819c14.812,0,26.817,12.006,26.817,26.819   C276.818,264.813,264.813,276.818,250.001,276.818z"></path></g><g><path d="M250.001,224.322c-14.183,0-25.679,11.497-25.679,25.679c0,14.181,11.497,25.677,25.679,25.677   c14.181,0,25.677-11.496,25.677-25.677C275.678,235.818,264.182,224.322,250.001,224.322z M250.001,274.137   c-13.332,0-24.138-10.806-24.138-24.136c0-13.332,10.806-24.138,24.138-24.138c13.33,0,24.136,10.806,24.136,24.138   C274.137,263.331,263.331,274.137,250.001,274.137z"></path></g><g><path d="M250.001,226.89c-12.765,0-23.111,10.346-23.111,23.111c0,12.763,10.346,23.108,23.111,23.108   c12.763,0,23.108-10.346,23.108-23.108C273.109,237.236,262.764,226.89,250.001,226.89z M250.001,271.723   c-11.999,0-21.724-9.725-21.724-21.722c0-11.999,9.725-21.724,21.724-21.724c11.997,0,21.722,9.725,21.722,21.724   C271.723,261.998,261.998,271.723,250.001,271.723z"></path></g><g><path d="M250.001,229.202c-11.488,0-20.799,9.311-20.799,20.799c0,11.486,9.311,20.798,20.799,20.798   c11.486,0,20.798-9.312,20.798-20.798C270.799,238.513,261.487,229.202,250.001,229.202z M250.001,269.551   c-10.799,0-19.551-8.752-19.551-19.55c0-10.799,8.752-19.551,19.551-19.551c10.798,0,19.55,8.752,19.55,19.551   C269.551,260.799,260.799,269.551,250.001,269.551z"></path></g><g><path d="M250.001,231.281c-10.34,0-18.72,8.38-18.72,18.72c0,10.337,8.38,18.718,18.72,18.718c10.337,0,18.718-8.381,18.718-18.718   C268.719,239.661,260.338,231.281,250.001,231.281z M250.001,267.596c-9.72,0-17.597-7.877-17.597-17.595   c0-9.72,7.876-17.597,17.597-17.597c9.718,0,17.595,7.876,17.595,17.597C267.596,259.719,259.719,267.596,250.001,267.596z"></path></g><g><path d="M250.001,233.153c-9.306,0-16.848,7.542-16.848,16.848c0,9.304,7.542,16.846,16.848,16.846   c9.304,0,16.846-7.542,16.846-16.846C266.847,240.695,259.305,233.153,250.001,233.153z M250.001,265.836   c-8.748,0-15.837-7.09-15.837-15.835c0-8.748,7.089-15.837,15.837-15.837c8.745,0,15.835,7.089,15.835,15.837   C265.836,258.746,258.746,265.836,250.001,265.836z"></path></g><g><path d="M250.001,234.838c-8.375,0-15.163,6.788-15.163,15.163c0,8.373,6.788,15.161,15.163,15.161   c8.373,0,15.161-6.788,15.161-15.161C265.162,241.625,258.374,234.838,250.001,234.838z M250.001,264.252   c-7.874,0-14.253-6.381-14.253-14.251c0-7.874,6.38-14.253,14.253-14.253c7.87,0,14.251,6.38,14.251,14.253   C264.252,257.871,257.871,264.252,250.001,264.252z"></path></g><g><path d="M250.001,236.354c-7.538,0-13.647,6.109-13.647,13.647c0,7.536,6.109,13.646,13.647,13.646   c7.536,0,13.646-6.109,13.646-13.646C263.646,242.463,257.537,236.354,250.001,236.354z M250.001,262.826   c-7.087,0-12.828-5.742-12.828-12.825c0-7.087,5.741-12.828,12.828-12.828c7.083,0,12.825,5.741,12.825,12.828   C262.826,257.084,257.084,262.826,250.001,262.826z"></path></g><g><path d="M250.001,237.718c-6.785,0-12.283,5.498-12.283,12.283c0,6.782,5.498,12.28,12.283,12.28c6.782,0,12.28-5.498,12.28-12.28   C262.281,243.216,256.783,237.718,250.001,237.718z M250.001,261.543c-6.378,0-11.545-5.168-11.545-11.542   c0-6.378,5.167-11.545,11.545-11.545c6.374,0,11.542,5.167,11.542,11.545C261.543,256.375,256.375,261.543,250.001,261.543z"></path></g><g><path d="M250.001,238.947c-6.106,0-11.054,4.948-11.054,11.054c0,6.104,4.948,11.052,11.054,11.052   c6.104,0,11.052-4.947,11.052-11.052C261.053,243.895,256.105,238.947,250.001,238.947z M250.001,260.389   c-5.74,0-10.391-4.651-10.391-10.388c0-5.74,4.65-10.391,10.391-10.391c5.736,0,10.388,4.65,10.388,10.391   C260.389,255.737,255.737,260.389,250.001,260.389z"></path></g><g><path d="M250.001,240.052c-5.496,0-9.949,4.453-9.949,9.949c0,5.493,4.453,9.946,9.949,9.946c5.493,0,9.946-4.453,9.946-9.946   C259.947,244.505,255.494,240.052,250.001,240.052z M250.001,259.35c-5.167,0-9.352-4.186-9.352-9.349   c0-5.167,4.185-9.352,9.352-9.352c5.163,0,9.349,4.185,9.349,9.352C259.35,255.164,255.164,259.35,250.001,259.35z"></path></g><g><path d="M250.001,241.047c-4.947,0-8.954,4.007-8.954,8.954c0,4.944,4.007,8.952,8.954,8.952c4.944,0,8.952-4.008,8.952-8.952   C258.953,245.054,254.945,241.047,250.001,241.047z M250.001,258.414c-4.65,0-8.417-3.767-8.417-8.413   c0-4.65,3.766-8.417,8.417-8.417c4.646,0,8.413,3.766,8.413,8.417C258.414,254.647,254.647,258.414,250.001,258.414z"></path></g><g><path d="M250.001,241.942c-4.452,0-8.059,3.607-8.059,8.059c0,4.45,3.607,8.057,8.059,8.057c4.45,0,8.057-3.606,8.057-8.057   C258.058,245.549,254.451,241.942,250.001,241.942z M250.001,257.572c-4.186,0-7.576-3.39-7.576-7.571   c0-4.186,3.39-7.576,7.576-7.576c4.182,0,7.571,3.39,7.571,7.576C257.572,254.183,254.183,257.572,250.001,257.572z"></path></g><g><path d="M250.001,242.748c-4.007,0-7.253,3.246-7.253,7.253c0,4.005,3.246,7.251,7.253,7.251c4.005,0,7.251-3.246,7.251-7.251   C257.252,245.994,254.006,242.748,250.001,242.748z M250.001,256.814c-3.767,0-6.818-3.051-6.818-6.813   c0-3.767,3.051-6.818,6.818-6.818c3.763,0,6.813,3.051,6.813,6.818C256.814,253.764,253.764,256.814,250.001,256.814z"></path></g><g><path d="M250.001,243.473c-3.606,0-6.528,2.921-6.528,6.528c0,3.604,2.921,6.526,6.528,6.526c3.604,0,6.526-2.922,6.526-6.526   C256.527,246.395,253.605,243.473,250.001,243.473z M250.001,256.133c-3.39,0-6.136-2.746-6.136-6.132   c0-3.39,2.746-6.136,6.136-6.136c3.386,0,6.132,2.746,6.132,6.136C256.133,253.387,253.387,256.133,250.001,256.133z"></path></g><g><path d="M250.001,244.125c-3.246,0-5.875,2.629-5.875,5.875c0,3.243,2.629,5.874,5.875,5.874c3.243,0,5.874-2.631,5.874-5.874   C255.875,246.755,253.244,244.125,250.001,244.125z M250.001,255.52c-3.051,0-5.522-2.472-5.522-5.519   c0-3.051,2.472-5.522,5.522-5.522c3.047,0,5.519,2.472,5.519,5.522C255.52,253.048,253.048,255.52,250.001,255.52z"></path></g><g><path d="M250.001,244.712c-2.922,0-5.289,2.367-5.289,5.289c0,2.919,2.367,5.286,5.289,5.286c2.919,0,5.286-2.367,5.286-5.286   C255.287,247.079,252.92,244.712,250.001,244.712z M250.001,254.967c-2.746,0-4.97-2.224-4.97-4.966c0-2.746,2.224-4.97,4.97-4.97   c2.742,0,4.966,2.224,4.966,4.97C254.967,252.743,252.743,254.967,250.001,254.967z"></path></g></svg>