<svg fill="#D1B794" xmlns="http://www.w3.org/2000/svg" xmlns:xlink="http://www.w3.org/1999/xlink" version="1.1" x="0px" y="0px" viewBox="0 0 300 300" enable-background="new 0 0 300 300" xml:space="preserve"><g><path d="M150,5.392L5.392,150L150,294.608L294.608,150L150,5.392z M149.999,285.301L14.7,150L149.999,14.7L285.301,150   L149.999,285.301z"></path></g><g><path d="M150,18.407L18.407,150L150,281.594L281.594,150L150,18.407z M149.999,273.124L26.877,150L149.999,26.877L273.124,150   L149.999,273.124z"></path></g><g><path d="M150,30.25L30.25,150L150,269.75L269.75,150L150,30.25z M149.999,262.043L37.958,150L149.999,37.958L262.043,150   L149.999,262.043z"></path></g><g><path d="M150,41.028L41.028,150L150,258.973L258.973,150L150,41.028z M149.999,251.959L48.042,150L149.999,48.042L251.959,150   L149.999,251.959z"></path></g><g><path d="M150,50.836L50.835,150L150,249.165L249.165,150L150,50.836z M149.999,242.783L57.218,150l92.781-92.781L242.783,150   L149.999,242.783z"></path></g><g><path d="M150,50.836L50.835,150L150,249.165L249.165,150L150,50.836z M149.999,242.783L57.218,150l92.781-92.781L242.783,150   L149.999,242.783z"></path></g><g><path d="M150,59.761L59.76,150L150,240.24L240.24,150L150,59.761z M149.999,234.434L65.569,150l84.43-84.431L234.434,150   L149.999,234.434z"></path></g><g><path d="M150,67.882L67.881,150L150,232.119L232.119,150L150,67.882z M149.999,226.835L73.168,150l76.831-76.832L226.835,150   L149.999,226.835z"></path></g><g><path d="M150,75.273L75.272,150L150,224.729L224.729,150L150,75.273z M149.999,219.92L80.083,150l69.916-69.917L219.92,150   L149.999,219.92z"></path></g><g><path d="M150,81.999L81.997,150L150,218.003L218.003,150L150,81.999z M149.999,213.627L86.375,150l63.624-63.624L213.627,150   L149.999,213.627z"></path></g><g><path d="M150,88.119L88.118,150L150,211.883L211.883,150L150,88.119z M149.999,207.9L92.102,150l57.897-57.898L207.9,150   L149.999,207.9z"></path></g><g><path d="M150,93.688L93.687,150L150,206.313L206.313,150L150,93.688z M149.999,202.689L97.313,150l52.687-52.687L202.689,150   L149.999,202.689z"></path></g><g><path d="M150,98.756L98.755,150L150,201.246L201.246,150L150,98.756z M149.999,197.947L102.055,150l47.944-47.945L197.947,150   L149.999,197.947z"></path></g><g><path d="M150,103.369L103.367,150L150,196.635L196.635,150L150,103.369z M149.999,193.633L106.37,150l43.629-43.629L193.633,150   L149.999,193.633z"></path></g><g><path d="M149.999,107.565L107.563,150l42.436,42.438L192.438,150L149.999,107.565z M149.999,189.706L110.296,150l39.703-39.703   L189.705,150L149.999,189.706z"></path></g><g><path d="M149.999,111.385L111.382,150l38.617,38.618L188.618,150L149.999,111.385z M149.998,186.133L113.869,150l36.129-36.129   L186.132,150L149.998,186.133z"></path></g><g><path d="M149.999,114.86L114.857,150l35.142,35.143L185.143,150L149.999,114.86z M149.999,182.881L117.121,150l32.877-32.877   L182.881,150L149.999,182.881z"></path></g><g><path d="M149.999,118.023L118.021,150l31.979,31.98L181.98,150L149.999,118.023z M149.999,179.922L120.081,150l29.918-29.918   L179.922,150L149.999,179.922z"></path></g><g><path d="M149.999,120.901L120.898,150l29.101,29.103L179.103,150L149.999,120.901z M149.998,177.229L122.773,150l27.225-27.226   L177.229,150L149.998,177.229z"></path></g><g><path d="M149.999,123.52L123.517,150l26.482,26.483L176.482,150L149.999,123.52z M149.998,174.778L125.223,150l24.775-24.775   L174.778,150L149.998,174.778z"></path></g><g><path d="M149.999,125.903L125.901,150l24.098,24.1L174.1,150L149.999,125.903z M149.999,172.549L127.454,150l22.545-22.545   L172.549,150L149.999,172.549z"></path></g><g><path d="M149.999,128.072L128.07,150l21.929,21.931L171.931,150L149.999,128.072z M149.998,170.52L129.482,150l20.516-20.516   L170.52,150L149.998,170.52z"></path></g><g><path d="M149.999,130.046L130.043,150l19.956,19.957L169.957,150L149.999,130.046z M149.999,168.673L131.329,150l18.669-18.669   L168.673,150L149.999,168.673z"></path></g><g><path d="M149.999,131.842L131.839,150l18.16,18.161L168.161,150L149.999,131.842z M149.999,166.992L133.01,150l16.989-16.989   L166.992,150L149.999,166.992z"></path></g><g><path d="M149.999,133.476L133.474,150l16.525,16.527L166.527,150L149.999,133.476z M149.999,165.463L134.539,150l15.459-15.459   L165.463,150L149.999,165.463z"></path></g><g><path d="M149.999,134.963L134.961,150l15.038,15.04L165.04,150L149.999,134.963z M149.998,164.071L135.93,150l14.068-14.068   L164.071,150L149.998,164.071z"></path></g><g><path d="M149.999,136.317L136.314,150l13.685,13.687L163.686,150L149.999,136.317z M149.998,162.805L137.196,150l12.802-12.802   L162.805,150L149.998,162.805z"></path></g><g><path d="M149.999,137.547l-12.453,12.451l12.453,12.455l12.455-12.455L149.999,137.547z M149.999,161.65l-11.65-11.652l11.65-11.65   l11.654,11.65L149.999,161.65z"></path></g><g><path d="M149.999,138.668l-11.332,11.331l11.332,11.333l11.335-11.333L149.999,138.668z M149.999,160.602l-10.601-10.603   l10.601-10.601l10.605,10.601L149.999,160.602z"></path></g><g><path d="M149.999,139.688l-10.313,10.311l10.313,10.313l10.315-10.313L149.999,139.688z M149.999,159.647l-9.647-9.648l9.647-9.647   l9.651,9.647L149.999,159.647z"></path></g><g><path d="M149.999,140.616l-9.385,9.383l9.385,9.386l9.388-9.386L149.999,140.616z M149.999,158.779l-8.779-8.78l8.779-8.779   l8.782,8.779L149.999,158.779z"></path></g><g><path d="M149.999,141.46l-8.541,8.539l8.541,8.542l8.543-8.542L149.999,141.46z M149.999,157.989l-7.989-7.99l7.989-7.989   l7.991,7.989L149.999,157.989z"></path></g><g><path d="M149.999,142.229l-7.772,7.771l7.772,7.773l7.774-7.773L149.999,142.229z M149.999,157.27l-7.27-7.271l7.27-7.27   l7.272,7.27L149.999,157.27z"></path></g><g><path d="M149.999,142.928l-7.073,7.071l7.073,7.073l7.075-7.073L149.999,142.928z M149.999,156.615l-6.615-6.616l6.615-6.616   l6.618,6.616L149.999,156.615z"></path></g><g><path d="M149.999,143.564l-6.437,6.435l6.437,6.437l6.438-6.437L149.999,143.564z M149.999,156.02l-6.02-6.021l6.02-6.02   l6.023,6.02L149.999,156.02z"></path></g><g><path d="M149.999,144.144l-5.857,5.855l5.857,5.857l5.859-5.857L149.999,144.144z M149.999,155.479l-5.479-5.479l5.479-5.478   l5.48,5.478L149.999,155.479z"></path></g><g><path d="M149.999,144.671l-5.33,5.328l5.33,5.331l5.333-5.331L149.999,144.671z M149.999,154.986l-4.985-4.987l4.985-4.985   l4.987,4.985L149.999,154.986z"></path></g><g><path d="M149.999,145.15l-4.851,4.849l4.851,4.852l4.854-4.852L149.999,145.15z M149.999,154.537l-4.537-4.538l4.537-4.537   l4.538,4.537L149.999,154.537z"></path></g><g><path d="M149.999,145.586l-4.414,4.413l4.414,4.414l4.416-4.414L149.999,145.586z M149.999,154.129l-4.129-4.13l4.129-4.129   l4.13,4.129L149.999,154.129z"></path></g><g><path d="M149.999,145.984l-4.017,4.015l4.017,4.017l4.019-4.017L149.999,145.984z M149.999,153.758l-3.757-3.759l3.757-3.757   l3.759,3.757L149.999,153.758z"></path></g><g><path d="M149.999,146.346l-3.655,3.653l3.655,3.655l3.657-3.655L149.999,146.346z M149.999,153.42l-3.418-3.421l3.418-3.418   l3.421,3.418L149.999,153.42z"></path></g><g><path d="M149.999,146.675l-3.326,3.324l3.326,3.327l3.328-3.327L149.999,146.675z M149.999,153.112l-3.111-3.113l3.111-3.11   l3.113,3.11L149.999,153.112z"></path></g><g><path d="M149.999,146.974l-3.026,3.025l3.026,3.028l3.028-3.028L149.999,146.974z M149.999,152.832l-2.831-2.833l2.831-2.831   l2.833,2.831L149.999,152.832z"></path></g></svg>