<svg fill="#0F131C" xmlns="http://www.w3.org/2000/svg" xmlns:xlink="http://www.w3.org/1999/xlink" version="1.1" x="0px" y="0px" viewBox="0 0 128 128" enable-background="new 0 0 128 128" xml:space="preserve"><g><path fill="#0F131C" d="M59.1,75.5l-6.7-4C52,71.3,51.5,71,51,70.7l-0.2-0.1c-0.7-0.4-1.3-0.8-1.9-1.2   c-19.7,14-31.3,34.6-31.3,56.4v1.3h12.3v-1.3C29.9,106.2,40.7,87.6,59.1,75.5z"></path><path fill="#0F131C" d="M98.1,1v5.8c0,19.5-10.9,38.1-29.2,50.2l6.7,4c0.5,0.3,1,0.6,1.5,0.9l0.1,0.1c0.7,0.4,1.3,0.8,1.9,1.2   c19.7-14,31.3-34.6,31.3-56.4V1H98.1z"></path><path fill="#0F131C" d="M74.5,66.3c-0.5-0.3-1-0.6-1.5-0.9L64,60l-1.8-1.1C42,46.9,29.9,27.4,29.9,6.8V1H17.6v5.8   c0,23.4,13.4,45.4,35.9,59.4c0.5,0.3,1,0.6,1.5,0.9l9,5.3l1.8,1.1c20.3,12,32.3,31.5,32.3,52.1v1.3h12.3v-1.3   C110.4,102.3,97,80.2,74.5,66.3z"></path><g><path fill="#0F131C" d="M84,8.1H44.1c-1.3,0-2.6,1-2.7,2.3c-0.1,1.5,1.1,2.8,2.5,2.8h39.9c1.3,0,2.6-1,2.7-2.3    C86.7,9.4,85.5,8.1,84,8.1z"></path><path fill="#0F131C" d="M79.9,24.3H48.1c-1.5,0-2.7,1.3-2.5,2.8c0.1,1.3,1.4,2.3,2.7,2.3h31.5c1.3,0,2.6-1,2.7-2.3    C82.6,25.6,81.4,24.3,79.9,24.3z"></path></g><g><path fill="#0F131C" d="M48.3,103.7h31.5c1.3,0,2.6-1,2.7-2.3c0.1-1.5-1.1-2.8-2.5-2.8H48.1c-1.5,0-2.7,1.3-2.5,2.8    C45.7,102.7,46.9,103.7,48.3,103.7z"></path><path fill="#0F131C" d="M84,114.8H44.1c-1.3,0-2.6,1-2.7,2.3c-0.1,1.5,1.1,2.8,2.5,2.8h39.9c1.3,0,2.6-1,2.7-2.3    C86.7,116,85.5,114.8,84,114.8z"></path></g></g></svg>