<svg fill="#0F131C" xmlns="http://www.w3.org/2000/svg" xmlns:xlink="http://www.w3.org/1999/xlink" version="1.1" x="0px" y="0px" viewBox="0 0 128 128" enable-background="new 0 0 128 128" xml:space="preserve"><g><path d="M123.1,25.3c-0.4,0-0.8,0.3-0.8,0.8v11.3c0,0.4,0.3,0.8,0.8,0.8c0.4,0,0.8-0.3,0.8-0.8V26   C123.9,25.6,123.5,25.3,123.1,25.3z"></path><path d="M123.1,40.3c-0.4,0-0.8,0.3-0.8,0.8v3.7c0,0.4,0.3,0.8,0.8,0.8c0.4,0,0.8-0.3,0.8-0.8v-3.7   C123.9,40.7,123.5,40.3,123.1,40.3z"></path><path d="M11.3,81.1c0.4,0,0.8-0.3,0.8-0.8V69.1c0-0.4-0.3-0.8-0.8-0.8c-0.4,0-0.8,0.3-0.8,0.8v11.3C10.6,80.8,10.9,81.1,11.3,81.1z   "></path><path d="M11.3,88.5c0.4,0,0.8-0.3,0.8-0.8v-3.7c0-0.4-0.3-0.8-0.8-0.8c-0.4,0-0.8,0.3-0.8,0.8v3.7C10.6,88.2,10.9,88.5,11.3,88.5z"></path><path d="M38.6,22.9l1.7,1.7c0.1,0.1,0.3,0.2,0.5,0.2c0.2,0,0.4-0.1,0.5-0.2c0.3-0.3,0.3-0.8,0-1.1l-1.7-1.7c-0.3-0.3-0.8-0.3-1.1,0   C38.3,22.1,38.3,22.6,38.6,22.9z"></path><path d="M45.9,30.2c0.1,0.1,0.3,0.2,0.5,0.2c0.2,0,0.4-0.1,0.5-0.2c0.3-0.3,0.3-0.8,0-1.1l-1.7-1.7c-0.3-0.3-0.8-0.3-1.1,0   c-0.3,0.3-0.3,0.8,0,1.1L45.9,30.2z"></path><path d="M40.3,27.4l-1.7,1.7c-0.3,0.3-0.3,0.8,0,1.1c0.1,0.1,0.3,0.2,0.5,0.2s0.4-0.1,0.5-0.2l1.7-1.7c0.3-0.3,0.3-0.8,0-1.1   C41.1,27.1,40.6,27.1,40.3,27.4z"></path><path d="M44.7,24.8c0.2,0,0.4-0.1,0.5-0.2l1.7-1.7c0.3-0.3,0.3-0.8,0-1.1c-0.3-0.3-0.8-0.3-1.1,0l-1.7,1.7c-0.3,0.3-0.3,0.8,0,1.1   C44.3,24.8,44.5,24.8,44.7,24.8z"></path><path d="M90.8,3.5c0.1,0.1,0.3,0.2,0.5,0.2c0.2,0,0.4-0.1,0.5-0.2c0.3-0.3,0.3-0.8,0-1.1l-1.7-1.7c-0.3-0.3-0.8-0.3-1.1,0   c-0.3,0.3-0.3,0.8,0,1.1L90.8,3.5z"></path><path d="M96.4,9.1c0.1,0.1,0.3,0.2,0.5,0.2c0.2,0,0.4-0.1,0.5-0.2c0.3-0.3,0.3-0.8,0-1.1l-1.7-1.7c-0.3-0.3-0.8-0.3-1.1,0   c-0.3,0.3-0.3,0.8,0,1.1L96.4,9.1z"></path><path d="M89.6,9.3c0.2,0,0.4-0.1,0.5-0.2l1.7-1.7c0.3-0.3,0.3-0.8,0-1.1c-0.3-0.3-0.8-0.3-1.1,0L89.1,8c-0.3,0.3-0.3,0.8,0,1.1   C89.2,9.2,89.4,9.3,89.6,9.3z"></path><path d="M95.2,3.7c0.2,0,0.4-0.1,0.5-0.2l1.7-1.7c0.3-0.3,0.3-0.8,0-1.1c-0.3-0.3-0.8-0.3-1.1,0l-1.7,1.7c-0.3,0.3-0.3,0.8,0,1.1   C94.8,3.7,95,3.7,95.2,3.7z"></path><path d="M5.4,110.2c-0.3-0.3-0.8-0.3-1.1,0c-0.3,0.3-0.3,0.8,0,1.1l1.7,1.7c0.1,0.1,0.3,0.2,0.5,0.2c0.2,0,0.4-0.1,0.5-0.2   c0.3-0.3,0.3-0.8,0-1.1L5.4,110.2z"></path><path d="M11,115.7c-0.3-0.3-0.8-0.3-1.1,0s-0.3,0.8,0,1.1l1.7,1.7c0.1,0.1,0.3,0.2,0.5,0.2c0.2,0,0.4-0.1,0.5-0.2   c0.3-0.3,0.3-0.8,0-1.1L11,115.7z"></path><path d="M6.1,115.7l-1.7,1.7c-0.3,0.3-0.3,0.8,0,1.1c0.1,0.1,0.3,0.2,0.5,0.2c0.2,0,0.4-0.1,0.5-0.2l1.7-1.7c0.3-0.3,0.3-0.8,0-1.1   C6.9,115.4,6.4,115.4,6.1,115.7z"></path><path d="M11.7,110.2l-1.7,1.7c-0.3,0.3-0.3,0.8,0,1.1c0.1,0.1,0.3,0.2,0.5,0.2c0.2,0,0.4-0.1,0.5-0.2l1.7-1.7   c0.3-0.3,0.3-0.8,0-1.1C12.4,109.9,12,109.9,11.7,110.2z"></path><path d="M116.6,92.3c-2.3,0-4.3,1.9-4.3,4.3c0,2.3,1.9,4.3,4.3,4.3c2.3,0,4.3-1.9,4.3-4.3C120.9,94.3,119,92.3,116.6,92.3z    M116.6,99.3c-1.5,0-2.7-1.2-2.7-2.7c0-1.5,1.2-2.7,2.7-2.7s2.7,1.2,2.7,2.7C119.4,98.1,118.1,99.3,116.6,99.3z"></path><path d="M23.1,41.1c0-2.3-1.9-4.3-4.3-4.3c-2.3,0-4.3,1.9-4.3,4.3c0,2.3,1.9,4.3,4.3,4.3C21.2,45.3,23.1,43.4,23.1,41.1z    M16.1,41.1c0-1.5,1.2-2.7,2.7-2.7s2.7,1.2,2.7,2.7c0,1.5-1.2,2.7-2.7,2.7S16.1,42.6,16.1,41.1z"></path><path d="M23.9,8.1c0,0.4,0.3,0.8,0.8,0.8h13.6c0.4,0,0.8-0.3,0.8-0.8c0-0.4-0.3-0.8-0.8-0.8H24.6C24.2,7.3,23.9,7.7,23.9,8.1z"></path><path d="M15.8,8.8h4.4c0.4,0,0.8-0.3,0.8-0.8c0-0.4-0.3-0.8-0.8-0.8h-4.4c-0.4,0-0.8,0.3-0.8,0.8C15,8.5,15.4,8.8,15.8,8.8z"></path><path d="M15.8,4.2h9.5c0.4,0,0.8-0.3,0.8-0.8s-0.3-0.8-0.8-0.8h-9.5C15.4,2.7,15,3,15,3.4S15.4,4.2,15.8,4.2z"></path><path d="M29.3,4.2h3.1c0.4,0,0.8-0.3,0.8-0.8s-0.3-0.8-0.8-0.8h-3.1c-0.4,0-0.8,0.3-0.8,0.8S28.9,4.2,29.3,4.2z"></path><path d="M100.8,126H87.2c-0.4,0-0.8,0.3-0.8,0.8c0,0.4,0.3,0.8,0.8,0.8h13.6c0.4,0,0.8-0.3,0.8-0.8   C101.6,126.3,101.2,126,100.8,126z"></path><path d="M82.8,126h-4.4c-0.4,0-0.8,0.3-0.8,0.8c0,0.4,0.3,0.8,0.8,0.8h4.4c0.4,0,0.8-0.3,0.8-0.8C83.5,126.3,83.2,126,82.8,126z"></path><path d="M78.4,122.8h9.5c0.4,0,0.8-0.3,0.8-0.8c0-0.4-0.3-0.8-0.8-0.8h-9.5c-0.4,0-0.8,0.3-0.8,0.8   C77.6,122.5,77.9,122.8,78.4,122.8z"></path><path d="M95,122.8c0.4,0,0.8-0.3,0.8-0.8c0-0.4-0.3-0.8-0.8-0.8h-3.1c-0.4,0-0.8,0.3-0.8,0.8c0,0.4,0.3,0.8,0.8,0.8H95z"></path><path d="M91.1,93.4c10.7-6.3,21.3-13.1,21.3-26.1c0-3.2-0.6-6-1.8-8.5c0,0,0-0.1,0-0.1c-1.4-3.2-3.6-5.9-6.3-8.3   c-0.1-0.1-0.2-0.2-0.3-0.2c-3.8-3.4-8.4-6.2-13-8.9c10.7-6.3,21.3-13.1,21.3-26.1c0-0.4-0.3-0.8-0.8-0.8c-0.4,0-0.8,0.3-0.8,0.8   c0,1.7-0.2,3.2-0.5,4.7c-0.1-0.2-0.3-0.3-0.6-0.3H69.4c-0.2,0-0.4,0.1-0.5,0.2c-0.3-1.4-0.5-3-0.5-4.6c0-0.4-0.3-0.8-0.8-0.8   c-0.4,0-0.8,0.3-0.8,0.8c0,13,10.7,19.8,21.3,26.1c-4.6,2.7-9.2,5.5-13,8.9c-0.2,0.1-0.3,0.2-0.4,0.3c-2.6,2.4-4.8,5.1-6.2,8.3   c0,0,0,0.1,0,0.1c-1.1,2.5-1.8,5.3-1.8,8.5c0,13,10.7,19.8,21.3,26.1c-10.7,6.3-21.3,13.1-21.3,26.1c0,0.4,0.3,0.8,0.8,0.8   c0.4,0,0.8-0.3,0.8-0.8c0-1.6,0.2-3.2,0.5-4.6c0.1,0.1,0.3,0.2,0.5,0.2h40.5c0.2,0,0.4-0.1,0.6-0.3c0.3,1.5,0.5,3,0.5,4.7   c0,0.4,0.3,0.8,0.8,0.8c0.4,0,0.8-0.3,0.8-0.8C112.5,106.5,101.8,99.7,91.1,93.4z M89.6,92.5c-4.3-2.6-8.6-5.1-12.1-8h24.2   C98.2,87.4,94,90,89.6,92.5z M68.4,68.1h42.6c-0.1,2.5-0.6,4.7-1.4,6.7H69.8C68.9,72.8,68.4,70.6,68.4,68.1z M69.8,59.8h39.8   c0.8,2,1.3,4.3,1.4,6.7H68.4C68.4,64.1,68.9,61.9,69.8,59.8z M101.8,50.1H77.5c3.5-2.9,7.8-5.4,12.1-8   C94,44.7,98.2,47.2,101.8,50.1z M69.4,21.1h40.5c0.1,0,0.2,0,0.3-0.1c-0.8,2.5-2.1,4.8-3.7,6.8c-0.1,0-0.1,0-0.2,0H73   c0,0-0.1,0-0.1,0c-1.6-2-2.9-4.3-3.7-6.8C69.2,21,69.3,21.1,69.4,21.1z M74.2,29.3h30.9c-4,4.3-9.6,7.6-15.5,11.1   C83.8,36.9,78.2,33.6,74.2,29.3z M75.8,51.6h27.7c2.2,2,4,4.2,5.3,6.7H70.5C71.8,55.8,73.6,53.6,75.8,51.6z M70.5,76.3h38.4   c-1.3,2.5-3.1,4.7-5.3,6.7H75.8C73.6,81,71.8,78.8,70.5,76.3z M89.6,94.3c5.8,3.4,11.5,6.8,15.5,11.1H74.2   C78.2,101.1,83.8,97.7,89.6,94.3z M109.8,113.6H69.4c-0.1,0-0.1,0-0.2,0c0.8-2.5,2-4.8,3.7-6.8c0,0,0.1,0,0.1,0h33.2   c0.1,0,0.1,0,0.2,0c1.7,2,2.9,4.3,3.7,6.8C110,113.6,109.9,113.6,109.8,113.6z"></path><path d="M55.6,64c0-3.3-1.1-6-2.8-8.3c-0.1-0.2-0.2-0.3-0.3-0.4c-3.5-4.4-9.2-7.4-14.2-10c-0.9-0.5-2-0.5-2.9,0   c-0.7,0.3-1.3,0.7-2,1c-4.7,2.5-9.3,5.2-12.2,8.9c-0.1,0.1-0.2,0.2-0.2,0.3c-1.7,2.3-2.8,5.1-2.8,8.4c0,9.3,8.5,14.1,17.1,18.6   c-8.6,4.5-17.1,9.3-17.1,18.6v0l0,0v0c0,3.3,1.1,6,2.8,8.4c0.1,0.1,0.1,0.2,0.2,0.3c2.9,3.7,7.5,6.5,12.2,8.9c0.7,0.4,1.3,0.7,2,1   c0.5,0.2,1,0.4,1.5,0.4c0.5,0,1-0.1,1.5-0.4c5-2.6,10.7-5.6,14.2-10c0.1-0.1,0.2-0.2,0.3-0.4c1.7-2.3,2.8-5.1,2.8-8.3   c0-9.3-8.5-14.1-17.1-18.6C47.1,78.1,55.6,73.3,55.6,64z M19.6,64.8H54c-0.1,2.5-1,4.7-2.4,6.6H22C20.6,69.5,19.8,67.3,19.6,64.8z    M22.1,56.7h29.6c1.4,1.9,2.2,4.1,2.4,6.6H19.6C19.8,60.7,20.7,58.6,22.1,56.7z M34.1,47.7c0.7-0.3,1.3-0.7,2-1   c0.2-0.1,0.5-0.2,0.8-0.2c0.3,0,0.5,0.1,0.8,0.2c5.3,2.7,9.8,5.3,12.8,8.5H23.3C26.1,52.2,30,49.9,34.1,47.7z M54,100.5H19.6   c0.1-2.5,1-4.7,2.4-6.6h29.6C53,95.8,53.9,97.9,54,100.5z M51.6,108.6H22.1c-1.4-1.9-2.3-4.1-2.4-6.6H54   C53.9,104.5,53,106.6,51.6,108.6z M37.6,118.6c-0.5,0.2-1.1,0.2-1.5,0c-0.7-0.3-1.3-0.7-2-1c-4-2.1-8-4.5-10.8-7.4h27.1   C47.4,113.3,42.9,115.8,37.6,118.6z M50.4,92.3H23.3c3.3-3.5,8.3-6.2,13.6-8.9C42.1,86.2,47.1,88.8,50.4,92.3z M36.8,81.8   c-5.3-2.7-10.3-5.4-13.6-8.9h27.1C47.1,76.4,42.1,79,36.8,81.8z"></path></g></svg>