<svg fill="#0F131C" xmlns="http://www.w3.org/2000/svg" xmlns:xlink="http://www.w3.org/1999/xlink" version="1.1" x="0px" y="0px" viewBox="0 0 100 100" style="enable-background:new 0 0 100 100;" xml:space="preserve"><path d="M61.1,1.6c0,1.1-0.2,2.2-0.4,3.2H49.9v4.1h9.5c-0.4,0.8-0.8,1.6-1.3,2.4h-11v4.1h8.1c-1.9,2.3-3.9,4.1-5.3,5.3  c-3.7-3.1-11-10.3-11.3-19.1h-7.8c0,0,0,0,0,0c0.2,11.1,8,19.7,12.9,24c-4.8,4.3-12.6,12.9-12.9,24c-0.2,8.5,4.1,16.6,12.8,24.1  C38.8,78,31,86.6,30.8,97.7c0,0,0,0,0,0l7.9,0c0-1.1,0.2-2.2,0.4-3.2h8.7v-4.1h-7.3c0.4-0.8,0.8-1.6,1.3-2.4l8.8,0V84l-5.9,0  c1.9-2.3,3.9-4.1,5.3-5.3c3.7,3.1,11,10.3,11.2,19.1l7.8,0c0,0,0-0.1,0-0.1c-0.2-11-8-19.6-12.8-23.9c8.7-7.5,13-15.6,12.8-24.1  c-0.2-11-8-19.6-12.8-23.9C61,21.4,68.8,12.7,69,1.7c0,0,0-0.1,0-0.1H61.1z M61.1,49.7c0,1.6-0.2,3.1-0.6,4.7l-8.5,0v4.1l6.8,0  c-0.3,0.6-0.6,1.1-1,1.7h-9v4.1h5.8c-1.4,1.5-3,3-4.8,4.5c-5.5-4.5-9-9-10.4-13.6h9.8V51H38.6c0-0.4,0-0.8,0-1.2  c0-0.4,0-0.8,0.1-1.2l13.2,0v-4.1l-12.4,0c0.3-1,0.7-1.9,1.2-2.8h8.4v-4.1h-5.9c2.3-3.1,4.9-5.6,6.7-7.1C53.6,33.7,61,41,61.1,49.7z  "></path></svg>