<svg fill="#0F131C" xmlns="http://www.w3.org/2000/svg" xmlns:xlink="http://www.w3.org/1999/xlink" version="1.1" x="0px" y="0px" viewBox="0 0 50 50" enable-background="new 0 0 50 50" xml:space="preserve"><path d="M30.8,36.3c-0.9,0.4-2.3,1-3.4,1.4c2.4,1.2,4.6,2.4,6.1,3.9h-4c-0.5-0.6-1.2-1-2-1c-0.8,0-1.6,0.4-2.1,1h-7.2  c1.7-1.6,4.2-2.9,6.9-4.3c0.2-0.1,3-1.5,3.9-2c0.5-0.3,1-0.6,1.5-0.8c4-2.3,7.3-5.1,7.3-9.7c0-4.8-3.5-7.6-7.7-10  c-0.4-0.2-0.8-0.4-1.1-0.6c-1-0.5-4-2-4.3-2.1c-2.8-1.4-5.3-2.8-7-4.5H26c0.5,0.9,1.5,1.6,2.6,1.6c1.1,0,2.1-0.6,2.6-1.6h2.9  c-1.3,1.4-3.3,2.7-5.8,3.9c-0.3,0.2-0.7,0.3-1,0.5c0.5,0.2,3,1.3,3.4,1.5c4.3-2.3,8.1-5.3,8.1-10.2h-2.8c0,0.5-0.1,1-0.2,1.4h-4.5  c-0.5-0.9-1.5-1.5-2.6-1.5c-1.1,0-2.1,0.6-2.6,1.5h-9.8C16.1,4.2,16,3.8,16,3.2h-2.8c0,4.9,3.6,7.7,7.9,10.1  c0.6,0.3,5.3,2.7,5.6,2.8c1.3,0.6,2.5,1.3,3.6,2h-8.7c0.9-0.5,1.8-1,2.8-1.5l-2.8-1.7c-4.2,2.3-7.7,5.2-7.7,9.9  c0,4.7,3.4,7.6,7.6,9.9l2.8-1.7c-1.1-0.6-2.1-1.1-3.1-1.7h9.3c-1.2,0.8-2.5,1.5-3.9,2.2c-0.2,0.1-0.5,0.2-0.8,0.4  c-0.3,0.2-2.5,1.2-3.2,1.6c-0.6,0.3-1.1,0.6-1.6,0.9c-4.4,2.4-8,5.2-8,10.1H16c0-0.7,0.1-1.4,0.4-2c0.1,0,0.3,0.1,0.5,0.1h8.5  c0.4,0.8,1.3,1.3,2.3,1.3c1,0,1.8-0.5,2.3-1.3h5.4c0.1,0,0.2,0,0.3,0c0.2,0.6,0.3,1.2,0.3,1.9h2.8C38.8,41.5,35.2,38.6,30.8,36.3z   M28.6,7.6c-0.8,0-1.5-0.6-1.5-1.5c0-0.8,0.7-1.5,1.5-1.5c0.8,0,1.5,0.7,1.5,1.5C30,6.9,29.4,7.6,28.6,7.6z M18.2,20.9  c0.1,0,15,0,15.5,0c0.7,0.8,1,1.5,1.3,2.4h-9.5c-0.5-0.9-1.5-1.6-2.6-1.6c-1.1,0-2.1,0.6-2.6,1.6h-3.3  C17.2,22.5,17.6,21.7,18.2,20.9z M24.3,24.8c0,0.8-0.7,1.5-1.5,1.5c-0.8,0-1.5-0.7-1.5-1.5c0-0.8,0.6-1.5,1.5-1.5  C23.7,23.3,24.3,24,24.3,24.8z M18,28.4c-0.5-0.7-0.9-1.4-1.1-2.2h3.3c0.5,0.9,1.5,1.6,2.6,1.6c1.1,0,2.1-0.6,2.6-1.6H35  c-0.2,0.8-0.6,1.5-1.1,2.2H18z M27.6,44.3c-0.6,0-1.1-0.5-1.1-1.1c0-0.6,0.5-1.1,1.1-1.1c0.6,0,1.1,0.5,1.1,1.1  C28.7,43.8,28.2,44.3,27.6,44.3z"></path></svg>