<svg fill="#D1B794" xmlns="http://www.w3.org/2000/svg" xmlns:xlink="http://www.w3.org/1999/xlink" version="1.2" baseProfile="tiny" x="0px" y="0px" viewBox="0 0 128 128" xml:space="preserve"><g><circle fill="none" stroke="#D1B794" stroke-width="4" stroke-linecap="square" stroke-miterlimit="10" cx="65" cy="64" r="62"></circle><path fill="none" stroke="#D1B794" stroke-width="4" stroke-linecap="round" stroke-linejoin="round" stroke-miterlimit="10" d="   M89.2,94.9c-1.7,1.2-3.5,2.3-5.4,3.2"></path><path fill="none" stroke="#D1B794" stroke-width="4" stroke-linecap="round" stroke-linejoin="round" stroke-miterlimit="10" d="   M98.3,83.9c-0.9,1.9-2,3.7-3.3,5.3"></path><path fill="none" stroke="#D1B794" stroke-width="4" stroke-linecap="round" stroke-linejoin="round" stroke-miterlimit="10" d="   M102.5,68.8c-0.3,2.6-0.8,5.1-1.5,7.5"></path><path fill="none" stroke="#D1B794" stroke-width="4" stroke-linecap="round" stroke-linejoin="round" stroke-miterlimit="10" d="   M102.7,52.9c0.2,2.5,0.3,5.1,0.3,7.7"></path><path fill="none" stroke="#D1B794" stroke-width="4" stroke-linecap="round" stroke-linejoin="round" stroke-miterlimit="10" d="   M84,26.6c5.7,1.3,10.2,3.2,12.2,5.2c2.2,2.2,4.3,7.5,5.6,14.1"></path><path fill="none" stroke="#D1B794" stroke-width="4" stroke-linecap="round" stroke-linejoin="round" stroke-miterlimit="10" d="   M67.4,24.9c3,0,6,0.1,8.8,0.4"></path><path fill="none" stroke="#D1B794" stroke-width="4" stroke-linecap="round" stroke-linejoin="round" stroke-miterlimit="10" d="   M51.7,26.9c2.4-0.7,4.9-1.1,7.5-1.5"></path><path fill="none" stroke="#D1B794" stroke-width="4" stroke-linecap="round" stroke-linejoin="round" stroke-miterlimit="10" d="   M38.8,33c1.6-1.2,3.4-2.3,5.3-3.2"></path><path fill="none" stroke="#D1B794" stroke-width="4" stroke-linecap="round" stroke-linejoin="round" stroke-miterlimit="10" d="   M30,44.2c0.9-1.9,1.9-3.7,3.1-5.3"></path><path fill="none" stroke="#D1B794" stroke-width="4" stroke-linecap="round" stroke-linejoin="round" stroke-miterlimit="10" d="   M25.7,59.2c0.4-2.5,0.9-5.1,1.5-7.5"></path><path fill="none" stroke="#D1B794" stroke-width="4" stroke-linecap="round" stroke-linejoin="round" stroke-miterlimit="10" d="   M25.3,76c-0.3-2.7-0.4-5.6-0.3-8.5"></path><path fill="none" stroke="#D1B794" stroke-width="4" stroke-linecap="round" stroke-linejoin="round" stroke-miterlimit="10" d="   M45.4,101.7c-6.3-1.2-11.3-3.2-13.6-5.6c-2.1-2.1-4-6.5-5.2-12"></path><path fill="none" stroke="#D1B794" stroke-width="4" stroke-linecap="round" stroke-linejoin="round" stroke-miterlimit="10" d="   M60.3,103c-2.4,0-4.8,0-7.1-0.2"></path><path fill="none" stroke="#D1B794" stroke-width="4" stroke-linecap="round" stroke-linejoin="round" stroke-miterlimit="10" d="   M76.2,100.8c-2.4,0.6-4.8,1.1-7.3,1.5"></path><g><ellipse transform="matrix(0.7071 -0.7071 0.7071 0.7071 -14.7939 35.7157)" fill="none" stroke="#D1B794" stroke-width="4" stroke-linecap="round" stroke-linejoin="round" stroke-miterlimit="10" cx="35.7" cy="35.7" rx="4" ry="4"></ellipse><ellipse transform="matrix(0.7071 -0.7071 0.7071 0.7071 -38.2254 92.2843)" fill="none" stroke="#D1B794" stroke-width="4" stroke-linecap="round" stroke-linejoin="round" stroke-miterlimit="10" cx="92.3" cy="92.3" rx="4" ry="4"></ellipse><line fill="none" stroke="#D1B794" stroke-width="4" stroke-linecap="round" stroke-linejoin="round" stroke-miterlimit="10" x1="39.3" y1="39.3" x2="88.7" y2="88.7"></line></g><ellipse transform="matrix(0.7071 -0.7071 0.7071 0.7071 -25.5721 33.7365)" fill="none" stroke="#D1B794" stroke-width="4" stroke-linecap="round" stroke-linejoin="round" stroke-miterlimit="10" cx="27.9" cy="47.7" rx="4" ry="4"></ellipse><ellipse transform="matrix(0.7071 -0.7071 0.7071 0.7071 -47.2462 86.0624)" fill="none" stroke="#D1B794" stroke-width="4" stroke-linecap="round" stroke-linejoin="round" stroke-miterlimit="10" cx="80.3" cy="100.1" rx="4" ry="4"></ellipse><line fill="none" stroke="#D1B794" stroke-width="4" stroke-linecap="round" stroke-linejoin="round" stroke-miterlimit="10" x1="31.5" y1="51.3" x2="76.7" y2="96.5"></line><ellipse transform="matrix(0.7071 -0.7071 0.7071 0.7071 -5.7731 41.9376)" fill="none" stroke="#D1B794" stroke-width="4" stroke-linecap="round" stroke-linejoin="round" stroke-miterlimit="10" cx="47.7" cy="27.9" rx="4" ry="4"></ellipse><ellipse transform="matrix(0.7071 -0.7071 0.7071 0.7071 -27.4472 94.2635)" fill="none" stroke="#D1B794" stroke-width="4" stroke-linecap="round" stroke-linejoin="round" stroke-miterlimit="10" cx="100.1" cy="80.3" rx="4" ry="4"></ellipse><line fill="none" stroke="#D1B794" stroke-width="4" stroke-linecap="round" stroke-linejoin="round" stroke-miterlimit="10" x1="51.3" y1="31.5" x2="96.5" y2="76.7"></line><ellipse transform="matrix(0.7071 -0.7071 0.7071 0.7071 0.7832 52.1091)" fill="none" stroke="#D1B794" stroke-width="4" stroke-linecap="round" stroke-linejoin="round" stroke-miterlimit="10" cx="63.3" cy="25.1" rx="4" ry="4"></ellipse><ellipse transform="matrix(0.7071 -0.7071 0.7071 0.7071 -15.6188 91.7071)" fill="none" stroke="#D1B794" stroke-width="4" stroke-linecap="round" stroke-linejoin="round" stroke-miterlimit="10" cx="102.9" cy="64.7" rx="4" ry="4"></ellipse><line fill="none" stroke="#D1B794" stroke-width="4" stroke-linecap="round" stroke-linejoin="round" stroke-miterlimit="10" x1="66.1" y1="27.9" x2="100.1" y2="61.9"></line><ellipse transform="matrix(0.7071 -0.7071 0.7071 0.7071 -37.4005 36.2929)" fill="none" stroke="#D1B794" stroke-width="4" stroke-linecap="round" stroke-linejoin="round" stroke-miterlimit="10" cx="25.1" cy="63.3" rx="4" ry="4"></ellipse><ellipse transform="matrix(0.7071 -0.7071 0.7071 0.7071 -53.8026 75.8909)" fill="none" stroke="#D1B794" stroke-width="4" stroke-linecap="round" stroke-linejoin="round" stroke-miterlimit="10" cx="64.7" cy="102.9" rx="4" ry="4"></ellipse><line fill="none" stroke="#D1B794" stroke-width="4" stroke-linecap="round" stroke-linejoin="round" stroke-miterlimit="10" x1="27.9" y1="66.1" x2="61.9" y2="100.1"></line><ellipse transform="matrix(0.7071 -0.7071 0.7071 0.7071 -49.4005 41.2635)" fill="none" stroke="#D1B794" stroke-width="4" stroke-linecap="round" stroke-linejoin="round" stroke-miterlimit="10" cx="25.1" cy="80.3" rx="4" ry="4"></ellipse><ellipse transform="matrix(0.7071 -0.7071 0.7071 0.7071 -59.3589 65.3051)" fill="none" stroke="#D1B794" stroke-width="4" stroke-linecap="round" stroke-linejoin="round" stroke-miterlimit="10" cx="49.2" cy="104.3" rx="4" ry="4"></ellipse><line fill="none" stroke="#D1B794" stroke-width="4" stroke-linecap="round" stroke-linejoin="round" stroke-miterlimit="10" x1="27.9" y1="83.1" x2="44.9" y2="100.1"></line><ellipse transform="matrix(0.7071 -0.7071 0.7071 0.7071 5.7538 64.1091)" fill="none" stroke="#D1B794" stroke-width="4" stroke-linecap="round" stroke-linejoin="round" stroke-miterlimit="10" cx="80.3" cy="25.1" rx="4" ry="4"></ellipse><ellipse transform="matrix(0.7071 -0.7071 0.7071 0.7071 -4.2046 88.1508)" fill="none" stroke="#D1B794" stroke-width="4" stroke-linecap="round" stroke-linejoin="round" stroke-miterlimit="10" cx="104.3" cy="49.2" rx="4" ry="4"></ellipse><line fill="none" stroke="#D1B794" stroke-width="4" stroke-linecap="round" stroke-linejoin="round" stroke-miterlimit="10" x1="83.1" y1="27.9" x2="100.1" y2="44.9"></line><path fill="none" stroke="#D1B794" stroke-width="4" stroke-linecap="round" stroke-linejoin="round" stroke-miterlimit="10" d="   M112.3,35.3C106,34,101.1,32,98.7,29.7c-2.1-2.1-4-6.5-5.2-12"></path><ellipse transform="matrix(0.7071 -0.7071 0.7071 0.7071 17.1913 69.0944)" fill="none" stroke="#D1B794" stroke-width="4" stroke-linecap="round" stroke-linejoin="round" stroke-miterlimit="10" cx="92" cy="13.8" rx="4" ry="4"></ellipse><ellipse transform="matrix(0.7071 -0.7071 0.7071 0.7071 7.233 93.136)" fill="none" stroke="#D1B794" stroke-width="4" stroke-linecap="round" stroke-linejoin="round" stroke-miterlimit="10" cx="116" cy="37.8" rx="4" ry="4"></ellipse><line fill="none" stroke="#D1B794" stroke-width="4" stroke-linecap="round" stroke-linejoin="round" stroke-miterlimit="10" x1="94.8" y1="16.6" x2="111.8" y2="33.6"></line><g><path fill="none" stroke="#D1B794" stroke-width="4" stroke-linecap="round" stroke-linejoin="round" stroke-miterlimit="10" d="    M16.8,92.9c6.3,1.2,11.3,3.2,13.6,5.6c2.1,2.1,4,6.5,5.2,12"></path><ellipse transform="matrix(0.7071 -0.7071 0.7071 0.7071 -69.9718 59.7427)" fill="none" stroke="#D1B794" stroke-width="4" stroke-linecap="round" stroke-linejoin="round" stroke-miterlimit="10" cx="37.1" cy="114.3" rx="4" ry="4"></ellipse><path fill="none" stroke="#D1B794" stroke-width="4" stroke-linecap="round" stroke-linejoin="round" stroke-miterlimit="10" d="    M9.1,90.7c-0.1-1.1,0.3-2.3,1.2-3.2c1.6-1.6,4.1-1.6,5.7,0s1.6,4.1,0,5.7c-1.1,1.1-2.6,1.4-3.9,1c-0.6-0.2-1.2-0.5-1.7-1"></path><line fill="none" stroke="#D1B794" stroke-width="4" stroke-linecap="round" stroke-linejoin="round" stroke-miterlimit="10" x1="34.3" y1="111.5" x2="17.3" y2="94.5"></line></g></g></svg>