<svg fill="#0F131C" xmlns="http://www.w3.org/2000/svg" xmlns:xlink="http://www.w3.org/1999/xlink" version="1.1" x="0px" y="0px" viewBox="0 0 100 100" enable-background="new 0 0 100 100" xml:space="preserve"><path d="M87.091,46.576l6.492-9.066l-19.141-5.933L69.073,5.162L52.872,18.684l-2.833-2.145l-5.231,6.101l-27.245-8.502  l5.995,29.494l-8.487,7.373l2.021,2.359L6.417,64.985l23.301,6.621l4.858,23.232l13.457-10.616l4.776,4.696l7.822-9.473  l24.222,6.739l-4.808-25.528l12.621-9.43L87.091,46.576z M69.339,66.271l-8.368-9.6l26.539-3.977L69.339,66.271z M46.346,29.936  l0.034-0.087l12.059,6.149l-14.12-0.452L46.346,29.936z M42.203,35.777l-5.465,2.773l6.813-6.502L42.203,35.777z M41.762,38.144  l-2.809,18.075l-6.305-13.453L41.762,38.144z M43.592,38.708l13.732,16.62l-16.76,2.958L43.592,38.708z M45.053,37.476L61.44,37.96  l-2.904,15.834L45.053,37.476z M47.502,28.276l19.44-18.585L61.886,35.61L47.502,28.276z M31.691,40.724L20.825,17.553  l23.384,11.226L31.691,40.724z M31.088,43.941l6.924,14.776l-26.957,4.34L31.088,43.941z M57.891,57.169l-5.524,27.335  L40.817,60.182L57.891,57.169z M63.293,38.457l24.684,12.234l-27.689,4.15L63.293,38.457z M66.96,38.141l7.332,0.247l10.005,8.346  L66.96,38.141z M63.725,36.167l4.75-24.352l5.013,24.665L63.725,36.167z M46.18,25.07l-0.827,2.138L31.088,20.36L46.18,25.07z   M30.156,41.953l-4.427,2.621l-0.19-0.793L21.35,23.174L30.156,41.953z M38.328,60.602L37.1,71.716l-24.524-6.968L38.328,60.602z   M39.995,62.907l9.562,20.133l-10.63-10.452L39.995,62.907z M59.659,58.073l8.306,9.53l-13.538,16.36L59.659,58.073z M77.401,38.493  l12.817,0.432l-4.599,6.423L77.401,38.493z M84.995,36.849l-9.544-0.306l-0.575-2.831L84.995,36.849z M49.806,21.243l0.782-1.891  l0.778,0.589L49.806,21.243z M47.007,23.011l-0.115,0.279l-0.098-0.03L47.007,23.011z M17.887,51.353l2.256-1.311l-1.749,1.904  L17.887,51.353z M36.868,73.638l-1.874,13.858l-3.199-15.3L36.868,73.638z M36.459,90.918l2.158-15.954l8.042,7.907L36.459,90.918z   M69.204,69.062L80.93,83.108l-18.966-5.276L69.204,69.062z M82.011,81.422L70.58,67.728l7.761-5.798L82.011,81.422z"></path></svg>