<svg fill="#D1B794" xmlns="http://www.w3.org/2000/svg" xmlns:xlink="http://www.w3.org/1999/xlink" version="1.1" x="0px" y="0px" viewBox="0 0 100 100" enable-background="new 0 0 100 100" xml:space="preserve"><path fill="#D1B794" d="M83.698,40.209c-0.052-0.126-0.123-0.242-0.214-0.343l-7.969-9c-0.08-0.091-0.174-0.17-0.278-0.232  l-12.75-7.688c-0.144-0.087-0.304-0.142-0.47-0.163L45.63,20.721c-0.171-0.022-0.346-0.005-0.512,0.047l-15.881,5.024  c-0.155,0.05-0.298,0.129-0.421,0.234l-11.512,9.9c-0.123,0.105-0.225,0.235-0.296,0.381l-7.35,14.981  c-0.1,0.202-0.14,0.428-0.116,0.651l0.994,9.638c0.025,0.249,0.128,0.483,0.293,0.671l6.882,7.8c0.106,0.122,0.238,0.221,0.385,0.29  l12.938,6.15c0.105,0.051,0.22,0.085,0.336,0.103l16.182,2.438c0.059,0.009,0.119,0.014,0.179,0.014  c0.036,0,0.072-0.002,0.108-0.005l15-1.369c0.105-0.01,0.208-0.033,0.308-0.069l14.1-5.213c0.144-0.053,0.275-0.133,0.39-0.235  l9-8.138c0.169-0.152,0.291-0.352,0.352-0.571l2.382-8.663c0.069-0.255,0.054-0.525-0.046-0.771L83.698,40.209z M86.946,54.536  l-1.144,4.162l-0.822-7.123l1.393,1.554L86.946,54.536z M85.048,61.446l-5.642-6.713l4.547-3.681l1.169,10.122L85.048,61.446z   M62.463,75.293l-0.101,0.01l-6.788-7.959l10.069-4.676l-3.109,12.599L62.463,75.293z M47.766,76.635l-0.01-0.001l-4.851-11.917  l11.118,2.759l-6.056,9.141L47.766,76.635z M31.903,74.245l-0.256-0.122l-4.413-13.96l13.991,4.104l-9.264,9.987L31.903,74.245z   M12.727,59.422l2.616-10.587l1.741,7.222l-4.309,3.829L12.727,59.422z M11.965,52.037l0.888-1.808l1.582-1.717L12.436,56.6  L11.965,52.037z M19.056,37.586l1.639-1.409l3.229-1.472l-7.453,9.831l1.049-3.819L19.056,37.586z M30.195,28.007l3.682-1.165  l3.714-0.504l-10.742,5.839l1.798-2.839L30.195,28.007z M68.638,29.457l-6.482,1.938l-5.517-6.25l10.852,3.621L68.638,29.457z   M51.601,37.388l-1.718-7.75l10.82,2.498L51.601,37.388z M61.722,32.657l3.774,11.917l-13.202-6.478L61.722,32.657z M50.63,37.44  l-11.493-3.38l9.771-4.383L50.63,37.44z M50.232,38.324L38.76,47.123l-0.498-12.318L50.232,38.324z M37.813,47.489L25.558,45.28  l11.758-10.113L37.813,47.489z M50.917,39.01l2.087,14.38l-13.723-5.455L50.917,39.01z M51.88,38.962l13.461,6.604l-11.377,7.747  L51.88,38.962z M62.841,33.01l12.827,7.723l-9.081,4.106L62.841,33.01z M60.649,31.139l-10.351-2.39l4.749-3.958L60.649,31.139z   M38.486,33.302l1.955-7.153l7.556,2.887L38.486,33.302z M25.053,44.448l0.844-10.463l10.642,0.584L25.053,44.448z M37.309,48.374  L26.846,58.455l-1.794-12.29L37.309,48.374z M52.685,54.296L42.39,63.146l-3.392-14.292L52.685,54.296z M65.815,46.404l0.051,14.557  l-11.378-6.844L65.815,46.404z M76.315,41.493l1.768,12.105l-10.847-8L76.315,41.493z M63.178,32.092l6.571-1.964l1.227,0.738  l4.507,8.634L63.178,32.092z M58.531,24.764l2.935,0.369l2.266,1.366L58.531,24.764z M49.157,28.45l-6.94-2.651l11.388-1.055  L49.157,28.45z M37.395,33.655l-10.223-0.562l12.187-6.623L37.395,33.655z M24.032,45.15l-7.603,1.03l8.415-11.1L24.032,45.15z   M23.513,46.189l-5.691,8.832l-1.881-7.806L23.513,46.189z M24.19,46.911l1.724,11.813l-7.566-2.746L24.19,46.911z M38.045,48.997  l3.402,14.334l-14.014-4.11L38.045,48.997z M53.206,55.113l1.053,11.432l-11.136-2.763L53.206,55.113z M54.164,55.043l11.163,6.714  l-10.112,4.695L54.164,55.043z M66.776,46.452l11.073,8.166l-11.023,6.363L66.776,46.452z M77.425,42.438l6.229,7.622l-4.576,3.704  L77.425,42.438z M77.692,41.251l3.739-0.084l0.121,0.137l1.211,2.972l0.756,4.105L77.692,41.251z M80.598,40.226l-3.611,0.081  l-4.431-8.487l0.186,0.112l3.303,3.151L80.598,40.226z M45.592,23.135l6.35,0.8l-9.991,0.925l1.613-1.083L45.592,23.135z   M39.943,25.051l-0.711,0.097l1.073-0.34L39.943,25.051z M25.127,33.102l-1.822,0.83l2.848-2.448L25.127,33.102z M14.917,46.572  L14.339,47.2l0.921-1.878L14.917,46.572z M17.213,57.226l0.72,9.447l-4.987-5.654L17.213,57.226z M18.153,56.929l7.557,2.742  l-6.657,8.271l-0.065-0.074L18.153,56.929z M26.317,60.447l4.146,13.113l-10.632-5.055L26.317,60.447z M41.944,64.903l4.707,11.563  l-13.54-2.04L41.944,64.903z M54.847,67.971l6.345,7.438l-11.999,1.096L54.847,67.971z M66.623,62.704l8.692,7.838l-11.694,4.323  L66.623,62.704z M76.292,70.13l-9.132-8.232L78.14,55.56l-1.643,14.385L76.292,70.13z M79.074,55.831l5.628,6.696l-7.127,6.443  L79.074,55.831z M84.778,49.91l-0.233-1.265l0.752,1.844L84.778,49.91z"></path></svg>