<svg fill="#FFFFFF" xmlns="http://www.w3.org/2000/svg" xmlns:xlink="http://www.w3.org/1999/xlink" version="1.1" x="0px" y="0px" viewBox="0 0 100 100" enable-background="new 0 0 100 100" xml:space="preserve"><path fill="#FFFFFF" d="M69.822,44.141c-0.215,0-0.418,0.042-0.604,0.114l-8.64-15.591c0.406-0.292,0.674-0.76,0.674-1.292  c0-0.896-0.729-1.625-1.623-1.625c-0.488,0-0.914,0.215-1.205,0.553L45.44,17.489c0.113-0.221,0.183-0.467,0.183-0.732  c0-0.896-0.729-1.625-1.624-1.625c-0.271,0-0.522,0.075-0.747,0.196l-4.34-6.25c0.143-0.158,0.235-0.363,0.235-0.593  c0-0.492-0.398-0.89-0.891-0.89c-0.49,0-0.89,0.398-0.89,0.89c0,0.493,0.399,0.89,0.89,0.89c0.116,0,0.227-0.025,0.329-0.066  l4.34,6.25c-0.322,0.297-0.528,0.722-0.528,1.197c0,0.896,0.719,1.625,1.602,1.625c0.487,0,0.92-0.22,1.218-0.562l12.985,8.812  c-0.109,0.222-0.177,0.47-0.177,0.739c0,0.882,0.72,1.601,1.604,1.601c0.212,0,0.413-0.043,0.599-0.116l8.639,15.589  c-0.406,0.289-0.669,0.756-0.669,1.297c0,0.774,0.518,1.401,1.232,1.573l-0.817,7.564c-0.438,0.056-0.783,0.414-0.783,0.868  c0,0.074,0.025,0.14,0.042,0.209l-4.506,2.299c-0.289-0.429-0.773-0.711-1.323-0.711c-0.896,0-1.625,0.729-1.625,1.625  c0,0.213,0.044,0.416,0.121,0.602l-7.242,4.095c-0.162-0.177-0.392-0.292-0.651-0.292c-0.44,0-0.787,0.325-0.859,0.744  l-11.651,0.736c-0.142-0.739-0.791-1.301-1.572-1.301c-0.911,0-1.624,0.703-1.624,1.602c0,0.3,0.083,0.574,0.22,0.812l-3.744,2.781  c-0.155-0.132-0.349-0.22-0.568-0.22c-0.491,0-0.89,0.398-0.89,0.891c0,0.351,0.207,0.646,0.501,0.792l-1.059,4.56  c-0.057-0.006-0.112-0.017-0.17-0.017c-0.883,0-1.601,0.718-1.601,1.601c0,0.778,0.541,1.429,1.262,1.587l-0.316,3.241  c-0.414,0.062-0.751,0.417-0.751,0.866c0,0.492,0.399,0.89,0.868,0.89c0.283,0,0.525-0.142,0.688-0.348l15.233,7.116  c-0.011,0.057-0.033,0.108-0.033,0.168c0,0.469,0.396,0.867,0.866,0.867c0.491,0,0.891-0.398,0.891-0.867  c0-0.114-0.025-0.222-0.065-0.322l3.823-2.613c0.158,0.146,0.367,0.24,0.601,0.24c0.491,0,0.891-0.397,0.891-0.891  c0-0.061-0.023-0.115-0.035-0.174l4.74-2.182c0.278,0.464,0.778,0.771,1.364,0.771c0.284,0,0.545-0.076,0.775-0.2l3.607,5.048  c-0.321,0.297-0.526,0.719-0.526,1.189c0,0.883,0.729,1.602,1.627,1.602c0.882,0,1.6-0.719,1.6-1.602  c0-0.574-0.296-1.076-0.739-1.365l2.108-4.367c0.165,0.056,0.339,0.093,0.522,0.093c0.895,0,1.623-0.729,1.623-1.624  c0-0.884-0.729-1.602-1.623-1.602c-0.491,0-0.926,0.219-1.225,0.559l-1.698-1.148c0.037-0.099,0.063-0.204,0.063-0.316  c0-0.492-0.398-0.891-0.889-0.891c-0.494,0-0.893,0.398-0.893,0.891c0,0.047,0.02,0.088,0.026,0.133l-2.95,1.187  c-0.275-0.485-0.795-0.812-1.41-0.812c-0.792,0-1.446,0.578-1.575,1.332l-18.962-0.854c-0.077-0.403-0.41-0.711-0.832-0.723  l-0.343-1.704c0.636-0.212,1.099-0.806,1.099-1.512c0-0.669-0.401-1.245-0.972-1.493l2.142-7.584  c0.015,0.001,0.026,0.009,0.041,0.009c0.491,0,0.891-0.398,0.891-0.89c0-0.021-0.011-0.039-0.012-0.061l10.76-3.295  c0.154,0.264,0.428,0.449,0.756,0.449c0.493,0,0.892-0.398,0.892-0.891c0-0.094-0.026-0.18-0.054-0.265l7.257-4.083  c0.296,0.395,0.768,0.653,1.303,0.653c0.883,0,1.602-0.718,1.602-1.601c0-0.195-0.04-0.381-0.103-0.555l4.507-2.3  c0.164,0.193,0.399,0.323,0.672,0.323c0.491,0,0.89-0.398,0.89-0.891c0-0.389-0.252-0.71-0.599-0.832l0.816-7.55  c0.896-0.003,1.595-0.715,1.595-1.624C71.422,44.859,70.704,44.141,69.822,44.141z M43.999,17.382c-0.326,0-0.602-0.287-0.602-0.625  c0-0.338,0.275-0.625,0.602-0.625c0.344,0,0.624,0.28,0.624,0.625C44.623,17.101,44.343,17.382,43.999,17.382z M59.025,27.372  c0-0.351,0.265-0.625,0.604-0.625c0.344,0,0.623,0.28,0.623,0.625c0,0.326-0.285,0.601-0.623,0.601  C59.296,27.972,59.025,27.703,59.025,27.372z M38.562,64.754c0.332,0,0.603,0.27,0.603,0.602c0,0.35-0.265,0.624-0.603,0.624  c-0.355,0-0.624-0.269-0.624-0.624C37.938,65.018,38.212,64.754,38.562,64.754z M30.627,76.556c0-0.331,0.27-0.601,0.601-0.601  c0.351,0,0.626,0.264,0.626,0.601c0,0.356-0.27,0.625-0.626,0.625C30.891,77.181,30.627,76.906,30.627,76.556z M65.136,91.545  c-0.34,0-0.627-0.275-0.627-0.602c0-0.345,0.281-0.625,0.627-0.625c0.336,0,0.6,0.274,0.6,0.625  C65.735,91.275,65.467,91.545,65.136,91.545z M68.627,83.078c0.338,0,0.623,0.275,0.623,0.602c0,0.344-0.279,0.624-0.623,0.624  c-0.346,0-0.627-0.28-0.627-0.624C68,83.354,68.287,83.078,68.627,83.078z M64.162,81.676c0.161,0.229,0.415,0.387,0.717,0.387  c0.233,0,0.442-0.094,0.602-0.242l1.697,1.146C67.067,83.183,67,83.422,67,83.68c0,0.57,0.297,1.07,0.744,1.36l-2.108,4.368  c-0.158-0.054-0.324-0.09-0.5-0.09c-0.281,0-0.542,0.078-0.773,0.204l-3.607-5.046c0.319-0.295,0.521-0.717,0.521-1.195  c0-0.147-0.025-0.286-0.062-0.42L64.162,81.676z M59.652,82.68c0.35,0,0.623,0.264,0.623,0.602c0,0.355-0.268,0.625-0.623,0.625  c-0.338,0-0.603-0.275-0.603-0.625C59.05,82.949,59.32,82.68,59.652,82.68z M37.438,78.82c-0.338,0-0.624-0.275-0.624-0.601  c0-0.345,0.28-0.625,0.624-0.625c0.337,0,0.602,0.274,0.602,0.625C38.039,78.551,37.77,78.82,37.438,78.82z M40.25,67.371  c-0.47,0-0.866,0.398-0.866,0.891c0,0.328,0.186,0.604,0.444,0.758l-2.146,7.6c-0.08-0.012-0.16-0.024-0.244-0.024  c-0.896,0-1.624,0.729-1.624,1.625c0,0.882,0.729,1.601,1.624,1.601c0.038,0,0.073-0.009,0.11-0.012l0.343,1.705  c-0.307,0.14-0.523,0.445-0.523,0.807c0,0.492,0.399,0.89,0.89,0.89c0.407,0,0.736-0.278,0.843-0.651l18.963,0.854  c0.01,0.123,0.031,0.242,0.065,0.355l-4.743,2.187c-0.163-0.21-0.406-0.354-0.692-0.354c-0.493,0-0.89,0.399-0.89,0.89  c0,0.115,0.025,0.222,0.064,0.322l-3.825,2.613c-0.159-0.146-0.366-0.24-0.599-0.24c-0.274,0-0.513,0.145-0.672,0.355l-15.229-7.113  c0.013-0.06,0.036-0.115,0.036-0.178c0-0.393-0.257-0.715-0.607-0.834l0.316-3.241c0.882-0.031,1.565-0.729,1.565-1.619  c0-0.688-0.445-1.271-1.066-1.497l1.056-4.549c0.001,0,0.001,0.001,0.002,0.001c0.492,0,0.891-0.399,0.891-0.891  c0-0.127-0.028-0.247-0.076-0.356l3.734-2.772c0.293,0.302,0.704,0.488,1.168,0.488c0.864,0,1.543-0.663,1.593-1.524l10.805-0.684  l-9.952,3.049C40.853,67.557,40.577,67.371,40.25,67.371z M62.042,59.771c-0.351,0-0.625-0.264-0.625-0.601  c0-0.345,0.28-0.625,0.625-0.625c0.326,0,0.602,0.286,0.602,0.625C62.644,59.501,62.374,59.771,62.042,59.771z M69.822,46.367  c-0.356,0-0.625-0.269-0.625-0.625c0-0.337,0.274-0.601,0.625-0.601c0.331,0,0.6,0.27,0.6,0.601  C70.422,46.092,70.158,46.367,69.822,46.367z"></path></svg>