<svg fill="#0F131C" xmlns="http://www.w3.org/2000/svg" xmlns:xlink="http://www.w3.org/1999/xlink" version="1.1" x="0px" y="0px" viewBox="0 0 100 100" enable-background="new 0 0 100 100" xml:space="preserve"><g><path d="M27.535,27.526l-0.82,1.006l0.129-0.924l-0.352-0.276l0.643-0.884c0,0,0.497,0.23-0.109,0.993   C27.051,27.417,27.535,27.526,27.535,27.526z M91.615,59.264c-4.221,18.811-21.02,32.863-41.103,32.863   C27.245,92.127,8.384,73.268,8.384,50c0-7.463,1.943-14.472,5.349-20.552c-1.349,2.533-1.785,4.203-1.785,4.203   s-0.953,5.932-0.969,6.513c0.016,0.017,1.179-5.67,1.68-5.832c0.017,0.016-1.244,5.718-1.227,7.593   c0.016,0.017-1.147,2.326,0.388,6.026c0.016,0.032,0.339,2.424,1.227,1.292c0.017,0.017,0.76,0.437,0.776,2.117   c0.017,0.016,0.129,1.453,2.02,2.311c0,0-0.049,1.324,0.614,2.148l0.113,1.373c0,0,0.905,0.324,0.888,1.391   c0,0,1.583,1.26,1.972,2.164c0,0,0.759-2.391,1.599-0.096c0.033,0.031-0.372,0.193,0.42,1.113c-0.017,0.049-0.614,1.277,0.274,1.6   c0.017,0.016-0.582,1.34,0.162,1.455c0,0.031,0.339,0.613-0.275,1.389c-0.033,0-0.194-1.066-0.792,0   c0,0.049-0.744-0.049-0.695,1.164c0.017,0.016-0.597,0.355-0.031,0.775c0,0.031-0.065,0.871-0.065,0.871s-0.825,0.711,0.177,1.082   c0,0.018,1.018,0.486,1.567,2.619c0,0,2.505,5.428,6.721,7.834c0.016,0.033,1.6,0.631,2.327,2.957   c0.016,0.031,0.63,2.084,2.311,3.393c0.016,0.016,0.177,0.855,0.177,0.855l0.28,0.557c0,0,1.821,1.301,3.972,1.52   c1.162,0.117,3.666,0,3.666,0s2.617,0.801,0.775-0.186c-0.017,0,1.566,0.098,1.566,0.098s0.501,0.953,1.115-0.049   c0.017,0,1.47-0.064,2.521-0.807c0.033,0.047,0.517,0.209,0.388-1.148c0.011-0.012,1.706-0.578,2.988-0.826l1.174-1.208   l2.229-0.647c0.156-0.303,1.074-2,1.234-0.855c0.017,0.031,0.307,1.291,0.646-2.295c0.017,0.016,0.001-0.484,0.904-0.436   c0,0.006,0.377-0.4,0.825-0.887l0.409-1.568l1.679-0.842c0.179-0.387,0.419-1.137-0.085-1.777c0,0.018-1.275-0.111-1.275-0.111   l-2.909-1.342c0,0-0.921-0.484-1.987,0.016c0,0.033-1.534-0.791-2.52,0c0,0.018,0.452-1.453-1.18-1.18   c0,0.033-1.632-1.938-3.408,0.307c-0.033-0.047-0.55-0.16-0.55-0.16s2.973-1.486,0.242-1.389l-1.179-0.018   c0,0,1.624-1.479-0.324-2.277c-0.014-0.006-0.273-1.213-0.273-1.213s-1.81-1.6-3.361-1.986c0.017,0.018-2.552-0.258-2.552-0.258   s-2.279-2.828-3.312-2.812c0-0.016-0.21-0.953-0.21-0.953s-0.937-0.727-1.454-0.775c0,0.016-0.209-0.775-0.209-0.775l-1.438-0.064   l-0.194,0.307l-0.743-0.031l-0.711-0.662l-1.551-0.146c0,0-0.017-1.082-0.954-1.146l-0.452-0.873l-0.243,0.016l-0.032,0.711   l-1.018,0.113l-0.258-0.613c0,0,1.761-1.051-0.242-0.646c0.033,0.031-0.437,0.469-1.131,0.533c0.016-0.033-1.697-0.598-1.422,0.904   c0.017,0.049-0.225,0.533-1,0.809c-0.017,0-1.261-2.859-2.408-1.439c0.016,0-0.646,0.566-1.583-1.969   c-0.032-0.018,0.113-2.715,0.113-2.715l0.533-0.389l0.016-0.598l-0.146-0.322l-0.549-0.211l0.016-0.84c0,0-2.246-0.549-2.229-1.469   c0,0.031,0.049-1.858,0.049-1.858s0.372-1.843,1.357-1.31c0,0,1.486-0.92-0.146-1.162c0.016,0-1.276-1.002-2.036,1.744   c0.016,0.017-1.777,0.323-1.712-1.777c0.016,0.033-0.308-4.006,1.163-5.541c-0.017,0.016,0.662-4.491,3.248-1.857   c-0.017,0,1.307,1.389,0.516-0.582c0,0.016,0.048-0.889,2.262,1.131c0.016,0.064,0.355,0.469,0.534-0.146   c0.016,0.017,0.792,0.954,0.161,2.181c-0.016,0-0.21,2.311,0.469,2.973c0,0.032,0.84,0.372,0.985-5.121   c0-0.016,0.841-2.649,5.865-3.667c-0.016,0.016,1.761-2.068,1.114-3.037c0,0.016,0.194-2.149,2.908-1.972   c0.033,0.017-0.129-1.857,2.925-2.181c0,0.049,1.13-1.083,2.375-0.582c0.016,0.033-2.117,0.533-1.665,1.293   c0.032,0.032,0.339,0.759,1.292-0.469c0.016,0,2.084-0.242,2.084-0.759c0.016,0,0.954-0.193,0.954-0.193l-0.033-1.019l-1.018,0.904   c0,0-2.117,0.323-1.777-1.26c0.017,0,0.637-0.351-0.354-0.609c0.148,0.019,1.188-0.064,1.323-0.684   c0.017-0.016-0.484-0.679-1.938,0c0.014,0-1.231,0.235-2.02,0.898c0.503-0.513,1.521-1.476,2.23-1.464   c0-0.016,0.355,0.081,0.856-0.613c0.017,0.032,1.696,0,1.696,0s1.681,1.163,3.151-0.533c-0.016-0.017,0.889,0,0.889,0l-1.681,2.375   l-0.452,0.129l0.048,0.518l2.666-0.081c0,0-0.889,0.501-0.711,0.759c0.016,0.032,0.566,0.032,1.147-0.581   c0.032,0.016,0.323,1.712,1.098,0.129c0.017-0.032-0.436-0.017-0.565-1.503c0,0.049-0.469-0.403-1.245-0.258   c-0.016,0,0.76-1.115-0.5-0.178c0,0.016,1.825-1.728,0.517-1.316c0-0.009-1.422-0.93-0.306-1.802   c0.015,0.016,0.904-0.792-0.404-0.728c0.016-0.016-1.018-0.662-1.115-1.082c0.017,0.032,0.679-0.533,0.048-1.163   c0,0.016-0.227-1.276-0.227-1.276l-1.357,1.002c0,0-1.648,0.339-0.937-0.921c0.048,0.048,1.098-0.372-0.113-0.809   c0-0.016,0.274-0.791-0.646-0.678c0.032,0.016-1.164-0.011-1.164-0.011s-0.565,0.512-0.775,1.174c0.016,0-1.102,0.775-1.102,0.775   l0.229,0.501l-0.646,1.228l-1.956,0.727l-0.452,1.293l-1.099,0.953h-0.339l-0.016-1.519l1.05-1.147l-0.792-0.146l-0.679-1.663   l-0.371,0.178l0.468-1.261c0,0,1.713-1.971,4.298-1.825c0-0.017,2.036-2.828,0.63,0.112c-0.016,0.017,0.614-0.598,1.131-0.193   c0.017,0,1.002,0.549,0.372-0.307c-0.016,0-0.275-1.374,1.519-1.18c0.032,0,0.468-0.113,0.42-0.55   c0.016,0.032,1.857-0.84-0.178-0.452c0.033,0.017-1.389,0.76-1.389,0.76l1.777-2.375l-3.328,1.906c0,0-2.359,0.21-0.372-0.501   c0.016,0,5.056-2.455,1.583-1.745c0,0.017-6.612,2.379-6.612,2.379c-6.068,3.303-10.244,7.142-13.089,10.603   c7.72-9.652,19.594-15.836,32.916-15.836c8.185,0,15.824,2.337,22.291,6.377c-0.035-0.016-0.072-0.033-0.106-0.048l-0.29,0.5   l-1.471-1.341l-0.484,0.484l2.342,1.697V14.96c0,0,0.889,0.113,0.728,1.018c-0.032-0.048,0.952,0.518,0.952,0.518h0.664v0.371   h-0.421l1.47,1.39v0.259h-0.598l-0.177,0.5l-0.356,0.162l-1.211-0.662l-0.162,0.097l1.131,1.114c0,0-0.792,0.146-0.227,0.695   c0,0.016,0.502,1.228,0.13,2.472c0.017,0-0.711,0-0.711,0l0.421,0.614l-0.97,0.178c0,0-0.809,1.179,1.372,0.872   c0-0.017,2.376,1.115,2.15,2.682c0.016,0-0.227,0.792-2.666,0.565c-0.018,0-1.195,0.097,1.131,2.359   c0,0.031-0.307,2.213,0.84,2.326c0,0.017-0.275,1.486,0.953,0.662c-0.017,0,0.711,0,0.711,0s0.371,1.777,1.002-0.016   c0.016,0.016,2.327-1.034,0.404-2.73l0.16-1.681c0,0,0.518-0.792-0.388-1.502c-0.032,0.032-0.565-0.889,0.728-0.34   c0-0.032,0.264-1.211,0.264-1.211s2.871,1.809,4.228,3.117c0-0.016,0.259,0.711-0.259,0.841c0.018-0.032-0.727,0.42,0.793,0.855   c0.031-0.064,0.16-0.613-0.242-1.761c0-0.032-0.825-1.033-0.825-1.033s-3.329-2.634-3.392-3.264c-0.018,0,3.521,1.906,5.347,4.862   c0.032,0.032,0.421,0,0.421,0s-1.602-2.067-1.584-2.601c0.016,0.048,0.129-0.162,0.129-0.162l1.6,2.068L86.195,27.6   c1.099,1.748,2.072,3.581,2.91,5.489c-0.158-0.351-0.318-0.703-0.488-1.056c0,0-0.158,0.763-0.242,0.763c0,0.013-0.521,0-0.521,0   L87.6,32.417c0,0-0.219,0.428,0.629,2.27c0.014,0.024-0.92,0.376-1.283-0.8c-0.012,0.012-0.533-0.17-0.8,0.23   c0-0.013-0.532-0.412-0.532-0.412h-0.475l-0.084-1.248l-0.715-0.69v-0.545l-0.643-0.085l-0.764,0.714l-0.096,0.352l-1.516,0.849   v1.49l-0.617,0.581l-0.559-0.351l-0.92-0.037l-0.643-0.507v2.095c0,0-1.162,1.018-0.46,2.06c-0.013,0.013-0.323,0.86,0.36,1.648   c0.004,0,0.015,1.659-1.354,2.581c0,0.012-0.121,1.32-0.121,1.32l-0.533,0.412v1.708l-0.533,0.86v1.685   c0,0-1.176,1.103,0.558,1.841c0,0-0.716,1.417,0.339,1.466l-0.073,2.957c0,0-1.611,0.908,0.013,1.756   c-0.037-0.012,0.061,1.467,0.061,1.467s0.363,0.557,0.824,0.23c0,0.021,0.123,0.867,1.086,1.279l4.668,1.677l3.937-0.146l1.69-1.75   l1.747-0.771L91.615,59.264z M44.135,13.943c0.012,0.012-0.424-0.533-0.424-0.533h-0.509l-0.69-0.764l0.169-0.521l0.061-0.437   l0.158-0.34h-2.218c0,0-0.784,0.706-1.43,0.752c0.012,0.024-0.339,0.497,2.084,0.388v0.787c0,0-3.523,0.448,0.165,0.291   c-0.006,0.012-1.388,0.97-1.388,0.97s-4.132,0.388-0.17,0.436c0,0-0.303,1.333,0.399,1.019c-0.012,0,1.115,0.472,1.115,0.472   l0.231-0.218l-0.533-0.581l0.388-0.049c0,0,1.139,1.369,0.751,0.267c-0.024,0,0.836-0.509-0.109-1.078c-0.012,0,0.218-1.467,0.97,0   c-0.012-0.013,0.158,0.594,0.436-0.255C43.602,14.573,45.844,14.403,44.135,13.943z M22.967,52.086   c-0.299-0.758-1.325-0.717-1.325-0.717C22.837,53.104,22.976,52.096,22.967,52.086z M24.384,50.197l-1.829-2.157   c0,0-1.66-1.793-2.254-1.89h-1.502c0,0-0.812,0.206,0,0.763c0,0,1.466-1.103,1.405,0.146c0.013,0.013,1.588,1.163,1.588,1.163   l0.182,0.849l0.775,0.363v0.388l-0.739,0.376h1.527C23.537,50.197,25.197,50.935,24.384,50.197z M28.137,52.467   c-0.865-1.649-2.053-1.229-2.044-1.213c-1.47-1.034-0.839-0.111-0.888-0.121c0.71,0.371,0.564,1.195,0.564,1.195   c-0.743,0.025-1.462-0.299-1.462-0.299c0.307,0.953,1.583,0.533,1.583,0.533l0.542,0.801l0.323-0.59l1.454,0.193   c0.516,0.598,0.67,0.064,0.679,0.064C28.953,52.312,28.137,52.475,28.137,52.467z M56.198,12.004c0,0,0.696-1.697-0.741-1.245   c-0.018,0-1.195-0.985-1.195-0.985l-0.033-0.436h-0.743l-0.162,0.307l-0.452-0.42l-2.083,0.129c0,0-1.923-0.226-4.395,0.614   c0.016,0-1.778-0.259,1.341,1.212c0.016,0.032,0.113,0.484-0.193,1.034c0.016,0-0.178,0.29,0.839,0.08   c0,0.017-0.048,1.196-0.048,1.196s-2.1,0.259-0.727,1.729c0,0,0.775,2.358,2.133,1.954c-0.032,0,1.034,2.182,1.616-0.097   c0,0.032-0.534-2.31,2.809-2.665c0.019,0,0.648-0.388,1.277-1.293c0.018-0.016,1.52-0.097,1.52-0.097S57.055,12.133,56.198,12.004z    M70.34,15.263c0.023,0.036,0.072,0.363,0.072,0.363l-0.922-0.424c0,0-0.351,0.569,1.432,0.969   c0.012,0.024,1.174,0.981,1.174,0.981l0.521,0.751c0,0,1.321,1.03,0.521-0.46c0-0.012-0.498-0.824-0.498-0.824l-0.533-0.072   l-0.593-0.897l-0.934-0.678C70.581,14.972,64.244,11.858,70.34,15.263z M61.644,14.864c-0.921-1.858-2.617-0.243-2.617-0.243   l-0.679-0.354v0.662c0,0,0.646,0.129,0.631,0.129C60.803,16.205,61.644,14.879,61.644,14.864z M72.542,22.498   c2.296-0.23,0.892-0.691,0.88-0.679c-0.037-1.551-1.03-1.103-1.03-1.103s-1.176-0.775-1.188-0.775   c-0.981-0.376-1.587-0.703-1.587-0.703c-0.438-1.817-1.128-0.933-1.128-0.933c-0.278,0.012-0.399-0.654-0.399-0.654   c-0.764,0.121-0.193,0.884-0.193,0.884l1.345,1.515c-1.89-0.581-0.588,0.302-0.588,0.302s-0.442,0.438-0.442,0.413   c0.037,0.521,1.2,0.934,1.2,0.934h1.054c0,0-0.461-0.764-0.436-0.775c-0.679-0.909,0.363-0.764,0.363-0.788   c1.066-0.085,0.568,0.667,0.582,0.691c-1.031,0.036,0.399,0.774,0.387,0.774c-0.969,0.739,0.559,0.449,0.545,0.425   c1.031-0.279,0.086,0.242,0.086,0.267C71.592,23.866,72.549,22.509,72.542,22.498z M25.783,29.852c0,0,1.255,0.182,1.861-0.715   C27.608,29.125,25.414,28.895,25.783,29.852z M83.844,25.251l0.355,0.032V24.75c0.02,0.007,0.041,0.021,0.062,0.03   c-0.591-0.788-1.208-1.555-1.851-2.3c-0.146,0.021-0.527,0.072-0.555,0.072C82.504,23.023,83.844,25.251,83.844,25.251z    M25.984,25.514c-0.008-0.008-0.012-0.015-0.02-0.022c-0.001-0.001-0.005-0.001-0.005-0.002L25.984,25.514z M23.948,29.283   c0.388-0.073,1.163-1.454,1.163-1.454l0.097-0.569c0,0,0.618-0.315,0.63-0.327c1.732-0.703,0.291-0.679,0.279-0.679   c-0.764-0.909-0.691,0.399-0.691,0.399s-0.667,0.679-0.703,0.703C23.222,29.216,23.924,29.294,23.948,29.283z M27.002,23.939   c0,0-1.114,0.23-2.096,0.715c0.048-0.012,0.545,0.193,0.545,0.193s0.545-0.521,1.261-0.072   C26.711,24.775,28.19,24.315,27.002,23.939z M28.383,28.713c0,0,0.061-0.618,0.934,0.157c-0.061-0.036,1.539-0.751,0.23-0.654   c0-0.012-1.164-0.009-1.164-0.009S27.049,28.81,28.383,28.713z M26.566,25.066c0,0.012-1.229-0.271-0.602,0.426   C26.026,25.515,27.102,25.525,26.566,25.066z"></path></g></svg>