<svg fill="#00DCFF" xmlns="http://www.w3.org/2000/svg" xmlns:xlink="http://www.w3.org/1999/xlink" version="1.1" x="0px" y="0px" viewBox="0 0 100 100" enable-background="new 0 0 100 100" xml:space="preserve"><path d="M50,23.1c-17.2,0-32.9,9.4-44.4,24.8c-0.9,1.3-0.9,3,0,4.3C17.1,67.5,32.8,76.9,50,76.9s32.9-9.4,44.4-24.8  c0.9-1.3,0.9-3,0-4.3C82.9,32.5,67.2,23.1,50,23.1z M51.2,68.9c-11.4,0.7-20.9-8.7-20.2-20.2c0.6-9.4,8.3-17.1,17.7-17.7  c11.4-0.7,20.9,8.7,20.2,20.2C68.3,60.7,60.7,68.3,51.2,68.9z M50.7,60.2c-6.2,0.4-11.2-4.7-10.9-10.9c0.3-5.1,4.4-9.2,9.5-9.5  c6.2-0.4,11.2,4.7,10.9,10.9C59.9,55.7,55.7,59.9,50.7,60.2z"></path></svg>