<svg fill="#00DCFF" xmlns="http://www.w3.org/2000/svg" xmlns:xlink="http://www.w3.org/1999/xlink" version="1.1" x="0px" y="0px" viewBox="0 0 90.074 45.309" style="enable-background:new 0 0 90.074 45.309;" xml:space="preserve"><g><path d="M56.567,19.259l0.006-0.002l0.003-0.002c-0.043-0.13-0.102-0.252-0.149-0.38c-0.083-0.222-0.164-0.444-0.259-0.66   c-0.072-0.164-0.154-0.322-0.232-0.482c-0.101-0.205-0.203-0.41-0.315-0.608c-0.089-0.157-0.186-0.31-0.281-0.463   c-0.119-0.19-0.24-0.379-0.37-0.562c-0.105-0.149-0.215-0.293-0.327-0.437c-0.136-0.176-0.275-0.348-0.42-0.516   c-0.12-0.138-0.242-0.272-0.367-0.404c-0.153-0.161-0.31-0.317-0.47-0.47c-0.132-0.125-0.266-0.247-0.403-0.366   c-0.168-0.146-0.342-0.285-0.518-0.421c-0.144-0.111-0.287-0.221-0.435-0.325c-0.184-0.13-0.374-0.251-0.565-0.371   c-0.152-0.095-0.303-0.191-0.459-0.279c-0.201-0.114-0.408-0.216-0.615-0.318c-0.116-0.057-0.226-0.124-0.344-0.178l-0.002,0.003   l-0.002,0.007c-1.527-0.692-3.218-1.086-5.003-1.086c-6.714,0-12.158,5.444-12.158,12.16c0,6.715,5.444,12.159,12.158,12.159   c6.715-0.001,12.159-5.445,12.159-12.159C57.196,21.756,56.969,20.467,56.567,19.259z M45.037,28.359c-2.9,0-5.259-2.36-5.259-5.26   c0-2.9,2.359-5.26,5.259-5.26c0.881,0,1.754,0.223,2.524,0.645l0.812,0.444l0.316-0.869l1.797-4.936   c2.272,1.244,4.063,3.238,5.054,5.628l-5.031,1.6l-0.778,0.248l0.269,0.771c0.198,0.566,0.298,1.148,0.298,1.729   C50.297,25.999,47.937,28.358,45.037,28.359z"></path><path d="M90.047,23.098c0.024,1.002-0.109,2-0.363,2.97C89.987,25.099,90.127,24.083,90.047,23.098z"></path><path d="M7.049,33.711c0.543,0.356,1.096,0.693,1.655,1.021c4.506,1.894,9.938,3.433,16.014,4.507   c-0.066-0.083-0.132-0.167-0.197-0.25C10.653,36.167,0.958,30.575,0.092,24.051c0.16,1.442,0.616,2.834,1.279,4.117   c0.228,0.375,0.47,0.737,0.733,1.086C3.466,31.038,5.221,32.461,7.049,33.711z"></path><path d="M0.027,23.098c0.006,0.299,0.026,0.599,0.057,0.896C0.048,23.697,0.027,23.399,0.027,23.098z"></path><path d="M0.405,26.127c-0.264-0.988-0.404-2.006-0.378-3.029C-0.067,24.105,0.087,25.14,0.405,26.127z"></path><path d="M65.551,38.989c-0.064,0.083-0.129,0.167-0.195,0.25c6.059-1.072,11.479-2.605,15.979-4.492   c0.569-0.332,1.135-0.674,1.688-1.037c1.827-1.25,3.583-2.674,4.944-4.459c0.272-0.359,0.522-0.735,0.756-1.123   c0.654-1.271,1.101-2.652,1.259-4.08C89.118,30.572,79.422,36.165,65.551,38.989z"></path><path d="M90.047,23.098c0,0.302-0.021,0.601-0.059,0.896C90.021,23.699,90.041,23.399,90.047,23.098z"></path><path d="M19.823,36.434c-2.057-0.486-4.082-1.087-6.075-1.768c-1.697-0.58-3.357-1.258-4.957-2.053   c3.872,2.145,8.982,3.946,14.895,5.239c-0.158-0.228-0.31-0.458-0.46-0.69C22.088,36.937,20.953,36.696,19.823,36.434z"></path><path d="M66.842,37.168c-0.148,0.23-0.299,0.459-0.455,0.686c5.869-1.283,10.945-3.069,14.808-5.191   c-3.457,1.697-7.183,2.85-10.942,3.776C69.12,36.702,67.983,36.941,66.842,37.168z"></path><path d="M65.355,39.239c0.066-0.083,0.131-0.167,0.195-0.25c-6.152,1.252-13.123,1.964-20.515,1.964   C52.275,40.953,59.146,40.338,65.355,39.239z"></path><path d="M24.521,38.989c0.065,0.083,0.131,0.167,0.197,0.25c6.209,1.1,13.081,1.713,20.319,1.713   C37.645,40.953,30.675,40.241,24.521,38.989z"></path><path d="M57.735,38.519c-4.21,0.44-8.465,0.667-12.689,0.635c-4.261,0.026-8.49-0.192-12.707-0.639   c-3.061-0.292-6.102-0.757-9.112-1.353c0.15,0.232,0.302,0.465,0.46,0.691c6.37,1.393,13.666,2.199,21.35,2.199   s14.979-0.807,21.35-2.199c0.156-0.227,0.308-0.455,0.457-0.686C63.834,37.762,60.795,38.225,57.735,38.519z"></path><path d="M83.375,34.226c-3.549,2.731-7.66,4.651-11.884,6.112c-3.159,1.074-6.392,1.916-9.667,2.547   c-0.431,0.367-0.872,0.722-1.326,1.06c3.813-0.683,7.584-1.62,11.225-2.958c4.244-1.557,8.375-3.568,11.924-6.417   c0.738-0.606,1.441-1.263,2.105-1.953c-0.393,0.22-0.797,0.435-1.211,0.646C84.159,33.594,83.772,33.918,83.375,34.226z"></path><path d="M89.684,26.068c-0.029,0.091-0.051,0.185-0.084,0.272c-0.229,0.623-0.53,1.218-0.877,1.789   c-0.225,0.438-0.469,0.865-0.738,1.275c-0.952,1.449-2.141,2.723-3.445,3.858c0.416-0.212,0.818-0.427,1.211-0.646   c0.911-0.946,1.745-1.964,2.435-3.085C88.852,28.461,89.362,27.288,89.684,26.068z"></path><path d="M2.09,29.405c-0.261-0.396-0.499-0.813-0.718-1.236c-0.355-0.58-0.667-1.189-0.902-1.828   c-0.024-0.069-0.041-0.143-0.064-0.213c0.32,1.197,0.827,2.352,1.482,3.404c0.688,1.12,1.521,2.139,2.433,3.084   c0.395,0.221,0.8,0.438,1.217,0.65C4.23,32.129,3.042,30.855,2.09,29.405z"></path><path d="M45.041,44.41c-5.625,0.009-11.27-0.46-16.792-1.524c0.432,0.367,0.872,0.722,1.328,1.061   c0.645,0.116,1.291,0.227,1.937,0.329c4.473,0.69,9.002,1.021,13.521,1.034c4.53-0.016,9.052-0.346,13.528-1.036   c0.646-0.103,1.292-0.212,1.936-0.328c0.455-0.338,0.896-0.692,1.326-1.06C56.301,43.951,50.657,44.42,45.041,44.41z"></path><path d="M89.982,24.049c-0.158,1.427-0.605,2.808-1.258,4.08c0.346-0.57,0.648-1.166,0.877-1.789   c0.033-0.088,0.053-0.183,0.083-0.272c0.254-0.97,0.389-1.968,0.362-2.97c-0.006,0.3-0.024,0.601-0.058,0.896   C89.986,24.013,89.984,24.03,89.982,24.049z"></path><path d="M0.084,23.994c-0.031-0.297-0.051-0.596-0.057-0.896c-0.026,1.023,0.114,2.041,0.378,3.029   c0.023,0.071,0.04,0.145,0.064,0.213c0.235,0.639,0.546,1.248,0.902,1.828c-0.663-1.283-1.12-2.675-1.279-4.117   C0.09,24.032,0.087,24.013,0.084,23.994z"></path><path d="M0.092,24.051c-0.002-0.02-0.006-0.039-0.008-0.058C0.087,24.013,0.09,24.032,0.092,24.051z"></path><path d="M89.982,24.049c0.002-0.02,0.004-0.036,0.006-0.053C89.986,24.013,89.984,24.03,89.982,24.049z"></path><path d="M87.967,16.944c-1.36-1.785-3.116-3.209-4.942-4.459c-3.715-2.443-7.833-4.142-12.031-5.429   c-2.333-0.738-4.708-1.306-7.101-1.781c0.584,0.617,1.138,1.262,1.658,1.934c14.541,2.961,24.496,8.961,24.496,15.889   c-0.026-1.456-0.346-2.885-0.877-4.227C88.832,18.194,88.426,17.547,87.967,16.944z"></path><path d="M89.818,20.573c0.168,0.832,0.249,1.678,0.229,2.525C90.125,22.262,90.033,21.406,89.818,20.573z"></path><path d="M0.027,23.098c-0.02-0.84,0.06-1.678,0.225-2.502C0.043,21.422-0.04,22.271,0.027,23.098z"></path><path d="M24.521,7.209c0.521-0.671,1.074-1.315,1.656-1.932c-2.388,0.484-4.757,1.066-7.096,1.782   c-4.197,1.288-8.315,2.988-12.028,5.429c-1.829,1.25-3.584,2.672-4.946,4.456c-0.465,0.613-0.877,1.27-1.217,1.958   c-0.524,1.333-0.837,2.75-0.863,4.196C0.027,16.17,9.982,10.17,24.521,7.209z"></path><path d="M70.25,9.765c2.057,0.486,4.082,1.086,6.075,1.766c1.704,0.583,3.372,1.263,4.976,2.062   c-3.873-2.149-8.99-3.953-14.914-5.248c0.158,0.227,0.312,0.459,0.461,0.692C67.985,9.262,69.12,9.503,70.25,9.765z"></path><path d="M23.23,9.03c0.15-0.23,0.301-0.459,0.458-0.685c-5.874,1.283-10.955,3.071-14.816,5.195c3.459-1.7,7.189-2.854,10.951-3.78   C20.953,9.496,22.09,9.256,23.23,9.03z"></path><path d="M45.037,3.446c-6.313,0.04-12.653,0.573-18.86,1.831c-0.583,0.617-1.136,1.261-1.656,1.932   c6.154-1.252,13.124-1.963,20.516-1.963c7.393,0,14.361,0.711,20.516,1.963c-0.521-0.672-1.075-1.317-1.659-1.934   c-1.911-0.379-3.832-0.703-5.757-0.978C53.789,3.732,49.412,3.478,45.037,3.446z"></path><path d="M23.688,8.345C23.53,8.571,23.379,8.8,23.229,9.03c3.009-0.595,6.049-1.058,9.108-1.351   c4.214-0.439,8.456-0.666,12.699-0.634c4.243-0.027,8.484,0.193,12.697,0.639c3.062,0.292,6.103,0.756,9.112,1.353   c-0.149-0.232-0.303-0.465-0.459-0.692c-6.371-1.394-13.666-2.199-21.351-2.199C37.353,6.146,30.057,6.951,23.688,8.345z"></path><path d="M27.851,1.757c-2.88,0.603-5.727,1.375-8.499,2.368c2.893-0.689,5.977-1.262,9.212-1.71   C28.319,2.2,28.083,1.98,27.851,1.757z"></path><path d="M29.578,2.251c0.535-0.397,1.088-0.771,1.653-1.126c-0.783,0.131-1.565,0.274-2.345,0.427   c0.131,0.248,0.252,0.503,0.375,0.757C29.367,2.288,29.472,2.27,29.578,2.251z"></path><path d="M60.66,2.281c0.125-0.255,0.248-0.51,0.379-0.759c-0.73-0.141-1.465-0.275-2.199-0.397c0.566,0.356,1.121,0.73,1.656,1.127   C60.551,2.261,60.606,2.271,60.66,2.281z"></path><path d="M70.736,4.129c-2.818-1.011-5.714-1.793-8.646-2.401c-0.235,0.227-0.475,0.45-0.721,0.668   C64.661,2.847,67.799,3.428,70.736,4.129z"></path><path d="M83.564,11.672c1.742,1.427,3.326,3.08,4.507,5.008c0.427,0.693,0.796,1.429,1.099,2.191c0.16,0.32,0.31,0.646,0.433,0.982   c0.083,0.234,0.153,0.477,0.215,0.718c-0.284-1.405-0.817-2.769-1.541-4.014c-1.142-1.994-2.702-3.722-4.431-5.225   c-1.305-1.114-2.7-2.108-4.156-3.003c-0.172,0.11-0.342,0.222-0.52,0.325C80.711,9.548,82.187,10.543,83.564,11.672z"></path><path d="M0.89,18.902c0.305-0.772,0.677-1.519,1.111-2.222c1.182-1.93,2.765-3.582,4.508-5.009c1.354-1.11,2.803-2.092,4.313-2.972   c-0.177-0.1-0.348-0.207-0.519-0.315c-1.428,0.881-2.796,1.857-4.078,2.951c-1.729,1.502-3.289,3.23-4.43,5.223   c-0.726,1.251-1.262,2.623-1.545,4.036c0.063-0.25,0.135-0.497,0.221-0.74C0.592,19.53,0.736,19.213,0.89,18.902z"></path><path d="M11.108,7.91c0.095,0.155,0.183,0.316,0.271,0.479c2.23-1.25,4.584-2.289,6.982-3.166c3.33-1.196,6.749-2.112,10.218-2.793   c-0.005-0.005-0.012-0.01-0.017-0.015c-3.235,0.448-6.319,1.021-9.212,1.71c-0.412,0.148-0.822,0.295-1.23,0.453   C15.711,5.51,13.346,6.604,11.108,7.91z"></path><path d="M61.358,2.406c3.517,0.684,6.981,1.605,10.354,2.819c2.353,0.861,4.662,1.877,6.855,3.095   c0.09-0.163,0.184-0.323,0.279-0.48c-2.202-1.275-4.525-2.347-6.893-3.264c-0.404-0.156-0.811-0.301-1.218-0.447   c-2.938-0.701-6.076-1.282-9.367-1.733C61.366,2.4,61.362,2.403,61.358,2.406z"></path><path d="M45.491,0.011c-0.041,0.297-0.088,0.596-0.137,0.894c5.069,0.009,10.151,0.438,15.142,1.347   c-0.535-0.397-1.09-0.771-1.656-1.127c-0.049-0.008-0.096-0.017-0.143-0.025C54.332,0.389,49.912,0.046,45.491,0.011z"></path><path d="M44.719,0.904c-0.049-0.297-0.097-0.596-0.138-0.893C40.16,0.047,35.74,0.39,31.375,1.099   c-0.048,0.008-0.096,0.017-0.145,0.025c-0.565,0.356-1.118,0.729-1.653,1.126C34.568,1.34,39.65,0.912,44.719,0.904z"></path><path d="M89.17,18.872c0.532,1.342,0.851,2.771,0.877,4.228c0.021-0.849-0.061-1.694-0.229-2.525   c-0.063-0.241-0.132-0.481-0.215-0.718C89.479,19.519,89.33,19.192,89.17,18.872z"></path><path d="M0.473,19.856c-0.086,0.243-0.158,0.491-0.221,0.741c-0.165,0.823-0.245,1.661-0.225,2.501   c0.026-1.446,0.339-2.863,0.863-4.196C0.736,19.213,0.592,19.53,0.473,19.856z"></path><path d="M23.039,9.33c-13.212,3-21.21,8.508-21.21,13.768c0,5.259,7.999,10.769,21.21,13.77c-2.504-3.992-3.958-8.709-3.958-13.769   S20.534,13.321,23.039,9.33z"></path><path d="M67.035,36.868c13.21-3.001,21.21-8.511,21.21-13.77c0-5.26-8-10.768-21.21-13.768c2.504,3.991,3.957,8.709,3.957,13.769   S69.541,32.877,67.035,36.868z"></path><path d="M45.037,7.797c-8.452,0-15.304,6.851-15.304,15.302c0,8.45,6.852,15.302,15.304,15.302c8.451,0,15.303-6.852,15.303-15.302   C60.34,14.647,53.488,7.797,45.037,7.797z M45.037,37.163c-7.768,0-14.065-6.297-14.065-14.063c0-7.767,6.298-14.064,14.065-14.064   c7.767,0,14.064,6.296,14.064,14.064C59.102,30.866,52.804,37.163,45.037,37.163z"></path><path d="M45.354,0.904c0.049-0.297,0.097-0.596,0.137-0.894c-0.152,0-0.303-0.009-0.455-0.01c-0.152,0.001-0.303,0.01-0.456,0.011   c0.041,0.297,0.089,0.596,0.138,0.893c0.105,0,0.212-0.004,0.318-0.004C45.143,0.9,45.25,0.904,45.354,0.904z"></path><path d="M29.261,2.308c-0.103,0.019-0.208,0.036-0.311,0.056c0.106-0.015,0.211-0.029,0.317-0.042   C29.266,2.316,29.264,2.312,29.261,2.308z"></path><path d="M28.951,2.363c0.103-0.02,0.208-0.037,0.311-0.056c-0.123-0.254-0.244-0.509-0.375-0.757   c-0.346,0.068-0.691,0.134-1.037,0.207c0.233,0.222,0.47,0.442,0.713,0.657C28.692,2.397,28.822,2.38,28.951,2.363z"></path><path d="M28.563,2.415c0.005,0.005,0.012,0.01,0.017,0.015c0.123-0.024,0.249-0.043,0.371-0.066   C28.822,2.38,28.692,2.397,28.563,2.415z"></path><path d="M61.105,2.36c-0.146-0.028-0.296-0.052-0.445-0.08c-0.002,0.007-0.005,0.013-0.008,0.019   C60.805,2.32,60.955,2.34,61.105,2.36z"></path><path d="M61.105,2.36c0.089,0.012,0.177,0.023,0.265,0.036c0.247-0.218,0.485-0.442,0.722-0.668   c-0.351-0.072-0.701-0.138-1.053-0.206c-0.131,0.249-0.253,0.504-0.379,0.759C60.81,2.308,60.959,2.333,61.105,2.36z"></path><path d="M61.37,2.396c-0.087-0.012-0.176-0.023-0.265-0.036c0.083,0.017,0.169,0.028,0.252,0.045   C61.362,2.403,61.366,2.4,61.37,2.396z"></path><path d="M78.567,8.319c0.201,0.111,0.403,0.222,0.603,0.337c0.18-0.103,0.349-0.214,0.521-0.325   c-0.276-0.17-0.562-0.329-0.843-0.492C78.75,7.996,78.657,8.157,78.567,8.319z"></path><path d="M11.38,8.389c-0.088-0.162-0.177-0.323-0.271-0.479c-0.269,0.157-0.539,0.311-0.804,0.475   c0.17,0.108,0.341,0.215,0.519,0.315C11.006,8.593,11.194,8.493,11.38,8.389z"></path><polygon points="18.114,24.322 23.018,22.633 23.369,22.512 23.562,22.709 26.272,25.496 26.059,25.521 27.09,24.354    26.296,25.694 26.223,25.818 26.082,25.719 22.897,23.489 23.441,23.565 18.94,26.144  "></polygon><polygon points="21.223,11.259 27.338,14.835 27.656,15.021 27.663,15.28 27.773,19.246 27.581,19.115 29.354,18.828    27.657,19.418 27.508,19.47 27.464,19.288 26.517,15.436 26.841,15.88 20.207,13.396  "></polygon><polygon points="21.457,34.86 26.288,33.286 25.998,33.708 26.542,30.127 26.563,29.988 26.684,30.002 29.944,30.4 26.663,30.266    26.805,30.141 26.974,33.758 26.986,34.008 26.683,34.18 22.265,36.69  "></polygon><polygon points="71.252,23.738 66.768,19.261 67.555,19.109 65.683,21.903 65.631,21.981 65.562,21.982 62.299,22.029    65.544,21.689 65.423,21.768 66.646,18.635 66.867,18.069 67.434,18.482 72.552,22.218  "></polygon><polygon points="70.103,35.239 65.355,34.634 64.83,34.567 64.79,34.175 64.375,30.167 64.485,30.285 60.879,29.108 64.57,29.984    64.648,30.002 64.681,30.102 65.921,33.936 65.355,33.477 70.103,32.873  "></polygon><polygon points="68.338,11.688 63.507,13.262 63.223,13.354 63.062,13.236 60.273,11.18 60.472,11.079 59.851,16.147    60.208,11.054 60.221,10.868 60.407,10.953 63.558,12.393 63.112,12.367 67.531,9.857  "></polygon></g></svg>