<svg fill="#00DCFF" xmlns="http://www.w3.org/2000/svg" xmlns:xlink="http://www.w3.org/1999/xlink" version="1.1" x="0px" y="0px" viewBox="0 0 100 100" enable-background="new 0 0 100 100" xml:space="preserve"><path d="M28.256,45.773L10.184,43.66c-0.18-0.02-0.347,0.107-0.371,0.289c-0.024,0.181,0.102,0.349,0.284,0.375l17.515,2.564  L28.256,45.773z"></path><path d="M24.646,52.025l-14.55,2.13c-0.181,0.026-0.308,0.194-0.284,0.375c0.024,0.181,0.192,0.311,0.371,0.289l13.779-1.611  L24.646,52.025z"></path><path d="M33.855,36.075L18.309,24.499c-0.147-0.109-0.355-0.079-0.466,0.065c-0.112,0.146-0.086,0.353,0.058,0.467l15.332,12.122  L33.855,36.075z"></path><path d="M45.646,78.576L44.42,89.055c-0.021,0.182,0.108,0.347,0.289,0.372c0.182,0.02,0.349-0.103,0.375-0.284l1.547-10.567H45.646  z"></path><path d="M37.356,78.576l-3.051,7.678c-0.068,0.17,0.014,0.363,0.183,0.434c0.168,0.069,0.363-0.009,0.436-0.177l3.422-7.934H37.356z  "></path><path d="M36.77,31.026L25.791,17.14c-0.113-0.144-0.321-0.168-0.467-0.058c-0.145,0.111-0.174,0.319-0.065,0.466l10.866,14.593  L36.77,31.026z"></path><path d="M27.014,78.576l-1.754,2.355c-0.109,0.147-0.081,0.354,0.065,0.466c0.146,0.111,0.353,0.085,0.467-0.058l2.184-2.763H27.014  z"></path><path d="M19.149,61.545l-6.421,2.769c-0.168,0.073-0.247,0.267-0.177,0.436c0.07,0.17,0.265,0.249,0.434,0.183l5.461-2.17  L19.149,61.545z"></path><path d="M31.149,40.762l-18.164-7.217c-0.169-0.067-0.363,0.014-0.434,0.183c-0.07,0.169,0.009,0.363,0.177,0.436l17.798,7.676  L31.149,40.762z"></path><path d="M69.473,41.84l17.798-7.676c0.168-0.072,0.247-0.267,0.177-0.436c-0.07-0.169-0.263-0.252-0.434-0.183l-18.163,7.217  L69.473,41.84z"></path><path d="M66.767,37.152l15.332-12.122c0.144-0.113,0.169-0.321,0.058-0.467c-0.113-0.144-0.321-0.173-0.466-0.065L66.145,36.075  L66.767,37.152z"></path><path d="M63.874,32.141L74.74,17.548c0.109-0.147,0.08-0.355-0.065-0.466c-0.146-0.111-0.353-0.087-0.467,0.058L63.23,31.026  L63.874,32.141z"></path><path d="M72.388,46.888l17.515-2.565c0.181-0.027,0.307-0.194,0.284-0.375c-0.024-0.181-0.168-0.306-0.372-0.289l-18.071,2.113  L72.388,46.888z"></path><path d="M40.418,24.707l-5.494-12.739c-0.072-0.168-0.266-0.245-0.436-0.177c-0.169,0.07-0.251,0.263-0.183,0.434l5.43,13.665  L40.418,24.707z"></path><path d="M45.936,15.15l-0.851-5.814c-0.026-0.181-0.191-0.311-0.375-0.284c-0.181,0.024-0.311,0.189-0.289,0.371l0.812,6.945  L45.936,15.15z"></path><path d="M54.768,16.368l0.812-6.945c0.022-0.182-0.107-0.347-0.289-0.371c-0.187-0.028-0.348,0.103-0.375,0.284l-0.851,5.814  L54.768,16.368z"></path><path d="M60.265,25.89l5.43-13.665c0.067-0.171-0.014-0.363-0.183-0.434c-0.169-0.07-0.364,0.009-0.436,0.177l-5.494,12.739  L60.265,25.89z"></path><path d="M61.654,78.576l3.422,7.934c0.072,0.167,0.267,0.248,0.436,0.177c0.169-0.071,0.25-0.263,0.183-0.434l-3.051-7.678H61.654z"></path><path d="M72.025,78.576l2.184,2.763c0.113,0.145,0.322,0.169,0.467,0.058c0.145-0.112,0.174-0.319,0.065-0.466l-1.754-2.355H72.025z  "></path><path d="M53.368,78.576l1.547,10.567c0.024,0.166,0.167,0.286,0.331,0.286c0.014,0,0.029-0.001,0.044-0.003  c0.181-0.024,0.311-0.189,0.289-0.372l-1.225-10.479H53.368z"></path><path d="M76.037,53.208l13.779,1.611c0.204,0.027,0.347-0.108,0.372-0.289c0.024-0.181-0.103-0.349-0.284-0.375l-14.55-2.131  L76.037,53.208z"></path><path d="M81.554,62.764l5.46,2.17c0.171,0.065,0.364-0.014,0.434-0.183c0.07-0.169-0.009-0.363-0.177-0.436l-6.42-2.769  L81.554,62.764z"></path><path d="M94.67,48.904l-21.296-0.309l0.737,1.277l20.559-0.298c0.182-0.003,0.33-0.152,0.33-0.335S94.853,48.907,94.67,48.904z"></path><path d="M49.443,78.576l0.222,15.333c0.003,0.182,0.152,0.33,0.335,0.33s0.332-0.147,0.335-0.33l0.222-15.333H49.443z"></path><path d="M70.912,44.331l22.323-6.329c0.176-0.05,0.279-0.232,0.232-0.409c-0.047-0.176-0.223-0.282-0.406-0.238l-22.847,5.768  L70.912,44.331z"></path><path d="M78.79,78.576l2.559,2.486c0.132,0.128,0.341,0.125,0.471-0.003c0.129-0.13,0.131-0.339,0.003-0.471l-1.955-2.012H78.79z"></path><path d="M26.626,48.596L5.33,48.904C5.147,48.907,5,49.056,5,49.239s0.147,0.332,0.33,0.335l20.559,0.298L26.626,48.596z"></path><path d="M29.786,43.123L6.939,37.354c-0.174-0.044-0.358,0.061-0.406,0.238c-0.047,0.177,0.056,0.359,0.232,0.409l22.323,6.329  L29.786,43.123z"></path><path d="M66.365,78.576l5.68,9.516c0.094,0.157,0.299,0.208,0.455,0.119c0.159-0.092,0.215-0.294,0.125-0.454L67.5,78.576H66.365z"></path><path d="M35.293,33.583L18.65,17.416c-0.131-0.128-0.341-0.126-0.47,0.003c-0.13,0.13-0.131,0.339-0.003,0.47l16.419,16.902  L35.293,33.583z"></path><path d="M32.533,38.365L11.482,26.614c-0.16-0.089-0.362-0.033-0.453,0.125c-0.092,0.159-0.039,0.361,0.118,0.455L31.849,39.55  L32.533,38.365z"></path><path d="M22.311,56.07L6.766,60.478c-0.176,0.05-0.28,0.232-0.232,0.408c0.048,0.178,0.231,0.281,0.406,0.238l14.579-3.681  L22.311,56.07z"></path><path d="M85.995,70.455l2.524,1.409c0.159,0.088,0.362,0.035,0.454-0.125c0.092-0.159,0.038-0.361-0.119-0.455l-3.632-2.168  L85.995,70.455z"></path><path d="M14.778,69.117l-3.631,2.167c-0.157,0.094-0.21,0.297-0.118,0.455c0.092,0.158,0.293,0.215,0.453,0.125l2.523-1.408  L14.778,69.117z"></path><path d="M32.5,78.576l-5.125,9.181c-0.089,0.16-0.034,0.362,0.125,0.454c0.16,0.091,0.362,0.038,0.455-0.119l5.68-9.516H32.5z"></path><path d="M41.58,78.576L38.115,92.3c-0.044,0.178,0.062,0.359,0.238,0.406c0.181,0.049,0.359-0.056,0.409-0.232l3.94-13.897H41.58z"></path><path d="M20.132,78.576l-1.955,2.012c-0.127,0.132-0.126,0.341,0.003,0.471c0.13,0.127,0.339,0.131,0.47,0.003l2.559-2.486H20.132z"></path><path d="M57.298,78.576l3.941,13.897c0.049,0.176,0.233,0.28,0.408,0.232c0.177-0.047,0.284-0.228,0.238-0.406L58.42,78.576H57.298z  "></path><path d="M38.492,28.042L27.955,10.386c-0.093-0.156-0.295-0.209-0.455-0.118c-0.159,0.092-0.214,0.294-0.125,0.453l10.381,18.597  L38.492,28.042z"></path><path d="M42.864,20.471L38.762,6.005c-0.05-0.176-0.228-0.28-0.409-0.232c-0.177,0.048-0.283,0.228-0.238,0.406l3.956,15.667  L42.864,20.471z"></path><path d="M62.244,29.319l10.38-18.597c0.09-0.16,0.034-0.362-0.125-0.453c-0.156-0.091-0.361-0.04-0.455,0.118L61.507,28.042  L62.244,29.319z"></path><path d="M57.929,21.845l3.956-15.667c0.045-0.178-0.061-0.358-0.238-0.406c-0.174-0.048-0.359,0.056-0.408,0.232l-4.102,14.467  L57.929,21.845z"></path><path d="M65.404,34.791L81.823,17.89c0.128-0.131,0.126-0.341-0.003-0.47c-0.13-0.13-0.339-0.132-0.471-0.003L64.707,33.583  L65.404,34.791z"></path><path d="M78.482,57.443l14.579,3.681c0.181,0.046,0.359-0.06,0.406-0.238c0.047-0.176-0.056-0.359-0.232-0.408L77.689,56.07  L78.482,57.443z"></path><path d="M68.151,39.55l20.702-12.355c0.157-0.094,0.21-0.296,0.119-0.455c-0.092-0.159-0.295-0.212-0.454-0.125L67.467,38.365  L68.151,39.55z"></path><path d="M50,11.148L11.947,77.057h76.105L50,11.148z M83.412,74.377h-1.496c0.34-0.272,0.673-0.56,1.01-0.841L83.412,74.377z   M81.186,74.377H77.03c1.498-1.046,2.972-2.186,4.417-3.403l1.253,2.17C82.197,73.563,81.695,73.977,81.186,74.377z M75.979,74.377  h-4.415c2.885-1.657,5.699-3.654,8.402-5.969l1.179,2.041C79.46,71.874,77.733,73.191,75.979,74.377z M79.624,67.817  c-3.022,2.599-6.183,4.8-9.428,6.56h-4.588c4.5-1.99,8.814-4.845,12.882-8.524L79.624,67.817z M17.006,73.656  c0.287,0.24,0.571,0.488,0.86,0.722h-1.277L17.006,73.656z M18.59,74.377c-0.456-0.362-0.906-0.736-1.358-1.114l1.259-2.18  c1.388,1.175,2.802,2.281,4.237,3.295H18.59z M23.785,74.377c-1.692-1.157-3.361-2.435-4.991-3.82l1.186-2.054  c2.64,2.273,5.385,4.239,8.201,5.874H23.785z M29.536,74.377c-3.171-1.739-6.259-3.91-9.214-6.466l1.142-1.977  c3.991,3.632,8.214,6.469,12.623,8.443H29.536z M36.42,74.377c-5.086-1.957-9.946-5.062-14.499-9.235l0.988-1.711  c6.353,5.935,13.474,9.651,20.923,10.946H36.42z M78.033,65.062c-4.63,4.216-9.583,7.345-14.762,9.315h-7.419  c7.546-1.303,14.766-5.048,21.2-11.016L78.033,65.062z M49.997,73.784c-0.065,0-0.128,0.001-0.192,0.001  c-11.672,0-20.627-5.968-26.326-11.342l0.863-1.496c5.516,5.332,14.132,11.147,25.481,11.147c0.06,0,0.12-0.001,0.18-0.001  c11.415-0.062,20.081-5.888,25.62-11.204l0.857,1.485C70.754,67.735,61.743,73.719,49.997,73.784z M49.842,69.077  c0.053,0,0.109,0,0.162,0c10.825-0.058,18.887-5.736,24.022-10.956l0.907,1.571c-5.345,5.202-13.792,11.002-24.936,11.062  c-0.058,0-0.114,0.001-0.172,0.001c-11.073,0-19.469-5.789-24.789-11.006l0.914-1.584C31.062,63.405,39.079,69.077,49.842,69.077z   M73.213,56.714c-4.902,5.083-12.71,10.744-23.217,10.8c-0.051,0-0.102,0-0.153,0c-10.441,0-18.202-5.656-23.081-10.757l0.983-1.703  c4.055,4.559,11.543,10.82,22.122,10.82c0.046,0,0.092,0,0.138,0c10.634-0.055,18.163-6.312,22.234-10.849L73.213,56.714z   M71.299,53.399c-3.753,4.315-11.006,10.636-21.304,10.689c-0.043,0-0.085,0-0.128,0c-10.237,0-17.446-6.328-21.182-10.663  l1.127-1.952c2.475,3.307,9.233,10.719,20.08,10.719c0.038,0,0.076,0,0.114,0c10.901-0.052,17.692-7.44,20.176-10.727L71.299,53.399  z M37.935,37.404c3.765-1.993,7.798-3.014,12.011-3.014c0.017,0,0.035,0,0.052,0c4.243,0.009,8.303,1.045,12.092,3.057l2.006,3.475  c-3.435-2.488-8.117-4.625-14.093-4.636c-0.016,0-0.03,0-0.046,0c-5.944,0-10.606,2.12-14.031,4.599L37.935,37.404z M49.999,18.792  c0.445,0.001,0.891,0.013,1.336,0.027l1.134,1.964c-0.82-0.052-1.645-0.081-2.468-0.083c-0.824,0.003-1.648,0.033-2.468,0.08  l1.137-1.969C49.116,18.798,49.562,18.79,49.999,18.792z M49.059,18.138L50,16.508l0.943,1.634  c-0.314-0.007-0.629-0.019-0.942-0.019C49.688,18.124,49.373,18.132,49.059,18.138z M45.084,25.022  c1.625-0.218,3.282-0.327,4.914-0.328c1.654,0.004,3.305,0.12,4.927,0.346l1.097,1.9c-1.977-0.354-3.99-0.551-6.021-0.555  c-2.027-0.003-4.036,0.177-6.006,0.523L45.084,25.022z M46.992,21.718c0.995-0.073,1.996-0.123,3.007-0.124  c1.008,0.002,2.014,0.057,3.016,0.137l1.215,2.105c-1.398-0.162-2.812-0.255-4.229-0.258c-1.431-0.011-2.833,0.078-4.219,0.236  L46.992,21.718z M43.103,28.454c2.26-0.477,4.598-0.728,6.896-0.729c2.339,0.005,4.655,0.265,6.912,0.752l1.157,2.004  c-2.618-0.707-5.318-1.074-8.066-1.079c-0.022,0-0.043,0-0.064,0c-2.718,0-5.393,0.352-7.984,1.043L43.103,28.454z M40.817,32.412  c2.935-0.959,5.996-1.448,9.12-1.448c0.02,0,0.041,0,0.061,0c3.154,0.006,6.242,0.508,9.206,1.484l1.308,2.265  c-3.343-1.393-6.864-2.103-10.51-2.11c-0.019,0-0.037,0-0.055,0c-3.621,0-7.117,0.7-10.439,2.077L40.817,32.412z M59.531,57.094  c1.852-2.121,2.975-4.861,2.975-7.855c0-3.061-1.178-5.854-3.106-7.993c4.958,2.516,8.014,6.415,9.093,7.98  C67.399,50.765,64.348,54.568,59.531,57.094z M31.503,49.227c1.08-1.573,4.15-5.507,9.134-8.021  c-1.949,2.145-3.143,4.953-3.143,8.034c0,3.045,1.165,5.824,3.074,7.96C35.704,54.673,32.603,50.782,31.503,49.227z M60.72,49.239  c0,4.927-3.57,9.054-8.337,10.106c-0.774,0.095-1.564,0.163-2.389,0.167c-0.694,0.006-1.367-0.03-2.025-0.092  c-4.942-0.922-8.688-5.133-8.688-10.181c0-4.996,3.67-9.178,8.538-10.156c0.694-0.071,1.404-0.117,2.14-0.117  c0.013,0,0.026,0,0.039,0c0.782,0.001,1.532,0.057,2.266,0.138C57.09,40.113,60.72,44.271,60.72,49.239z"></path><path d="M50,42.961c-3.653,0-6.625,2.816-6.625,6.278c0,3.462,2.972,6.278,6.625,6.278c3.653,0,6.625-2.817,6.625-6.278  C56.625,45.778,53.653,42.961,50,42.961z M44.492,49.239c0-2.846,2.471-5.161,5.508-5.161c3.038,0,5.508,2.315,5.508,5.161  c0,2.847-2.471,5.162-5.508,5.162C46.963,54.401,44.492,52.086,44.492,49.239z"></path><path d="M51.733,51.456C51.832,50.984,50,49.685,50,49.239c0-0.485,1.795-1.931,1.733-2.226c-0.127-0.6-0.982-1.241-1.733-1.241  c-1.627,0-2.947,1.839-2.947,3.467c0,1.627,1.319,3.467,2.947,3.467C50.708,52.706,51.627,51.966,51.733,51.456z"></path></svg>