<svg fill="#00DCFF" xmlns="http://www.w3.org/2000/svg" xmlns:xlink="http://www.w3.org/1999/xlink" version="1.1" x="0px" y="0px" viewBox="0 0 100 100" style="enable-background:new 0 0 100 100;" xml:space="preserve"><g><path d="M62.1466675,18.1571045c0.1052856,0.0403442,0.213623,0.0587158,0.3201904,0.0587158   c0.3614502,0,0.7026978-0.2201538,0.8391113-0.578064l1.0294189-2.6975098   c0.1771851-0.4631958-0.0552979-0.9824829-0.5189209-1.159729c-0.4631348-0.1780396-0.9833374,0.0561523-1.1592407,0.5193481   l-1.0294189,2.6975098C61.4505615,17.4605713,61.6830444,17.9798584,62.1466675,18.1571045z"></path><path d="M37.8533325,81.8427734c-0.463623-0.1771851-0.9829712,0.0552979-1.1593018,0.5193481l-1.0294189,2.6975098   c-0.1771851,0.4631958,0.0552979,0.9824829,0.5189209,1.159729c0.1052246,0.0403442,0.213562,0.0587769,0.3201904,0.0587769   c0.3613892,0,0.7026367-0.2202148,0.8390503-0.578125l1.0294189-2.6975098   C38.5494385,82.5393066,38.3169556,82.0200195,37.8533325,81.8427734z"></path><path d="M85.7005005,62.6567383l-2.697937-1.0289917c-0.4627686-0.1789551-0.9829712,0.0560913-1.159729,0.5192871   s0.0557251,0.9825439,0.5193481,1.159729l2.697937,1.0289917c0.1052856,0.0403442,0.213623,0.0587769,0.3201904,0.0587769   c0.3614502,0,0.7026978-0.2202148,0.8395386-0.578125C86.3966064,63.3532715,86.1641235,62.8339233,85.7005005,62.6567383z"></path><path d="M17.317627,38.4309082c0.3618774,0,0.7026367-0.2201538,0.8395386-0.578064   c0.1767578-0.4631958-0.0557251-0.9825439-0.5193481-1.159729l-2.697937-1.0289917   c-0.4631958-0.1771851-0.9825439,0.0552368-1.159729,0.5192871c-0.1767578,0.4631958,0.0557251,0.9825439,0.5193481,1.159729   l2.697937,1.0289917C17.1027222,38.4124756,17.2110596,38.4309082,17.317627,38.4309082z"></path><path d="M82.2924194,36.5255737l2.6356812-1.1798706c0.4526367-0.2026978,0.6552734-0.7342529,0.4526367-1.1869507   c-0.203064-0.4534912-0.7355347-0.6535034-1.1868896-0.4534912l-2.6356812,1.1798706   c-0.4526367,0.2026367-0.6552734,0.7342529-0.4526367,1.1868896c0.1491699,0.3342285,0.4768066,0.5316162,0.8202515,0.5316162   C82.048584,36.6036377,82.1731567,36.578186,82.2924194,36.5255737z"></path><path d="M17.7075806,63.4743042l-2.6356812,1.1798706c-0.4526367,0.2026367-0.6552734,0.7342529-0.4526367,1.1869507   c0.1491089,0.3341675,0.4767456,0.5315552,0.8201904,0.5315552c0.1228027,0,0.2473755-0.0253906,0.3666992-0.078064   l2.6356812-1.1798706c0.4526367-0.2026367,0.6552734-0.7342529,0.4526367-1.1868896   C18.6918335,63.4734497,18.1593628,63.2734375,17.7075806,63.4743042z"></path><path d="M65.1139526,81.5576782c-0.2035522-0.4526367-0.7342529-0.6535034-1.1869507-0.4526367   c-0.4526367,0.2034912-0.6552734,0.7342529-0.4526367,1.1877441l1.1803589,2.6352539   c0.1495361,0.333374,0.4771729,0.5307007,0.8201904,0.5307007c0.1228027,0,0.2473755-0.0253906,0.3666992-0.078064   c0.4526367-0.2034912,0.6552734-0.7342529,0.4526367-1.1877441L65.1139526,81.5576782z"></path><path d="M34.8860474,18.4421997c0.1495972,0.333313,0.4772339,0.5307007,0.8202515,0.5307007   c0.1228027,0,0.2473755-0.0254517,0.3666992-0.078064c0.4526367-0.2035522,0.6552734-0.7342529,0.4526367-1.1878052   l-1.1803589-2.6351929c-0.203064-0.4526367-0.7346802-0.6526489-1.1868896-0.4526367   c-0.4526367,0.2034912-0.6552734,0.7341919-0.4526367,1.1877441L34.8860474,18.4421997z"></path><circle cx="49.9999542" cy="49.9998169" r="2.7922516"></circle><path d="M79.3858032,45.1033325c-4.3175659-5.972229-13.3109741-14.5467529-29.3858643-14.5467529   c-16.0738525,0-25.0670776,8.5734863-29.385376,14.5465698c6.6303711-3.2346802,17.8471069-7.6855469,29.385376-7.6855469   C61.5385132,37.4176025,72.7555542,41.8687134,79.3858032,45.1033325z"></path><path d="M20.6138916,54.8963623c4.3175049,5.972229,13.3109741,14.5470581,29.3860474,14.5470581   c16.0741577,0,25.0673828-8.5737915,29.3855591-14.546875c-6.6303711,3.2344971-17.847168,7.6851807-29.3855591,7.6851807   C38.4613037,62.5817261,27.2441406,58.1307983,20.6138916,54.8963623z"></path><path d="M67.7034302,50c0,2.015625-0.3713379,4.0084839-1.0369263,5.895752   c5.9474487-1.901062,10.9418945-4.3222656,13.8884277-5.8947754c-2.9477539-1.5714111-7.9434204-3.9910278-13.8873901-5.892395   C67.3320923,45.9946899,67.7034302,47.9856567,67.7034302,50z"></path><path d="M32.2965088,50c0-2.0144653,0.3685303-4.0083008,1.0332031-5.8950806   c-5.9456787,1.9011841-10.9387817,4.3215332-13.8846436,5.8938599c2.9429932,1.5689087,7.9273682,3.9829102,13.8585205,5.8827515   C32.6398315,54.0025024,32.2965088,52.0336304,32.2965088,50z"></path><path d="M36.4781494,43.177002C35.4163208,45.2797852,34.8390503,47.6246338,34.8390503,50   c0,2.3823853,0.5362549,4.6635742,1.5952759,6.7790527c0.0050049,0.0099487,0.0036621,0.020813,0.0083618,0.0308228   c4.281189,1.1566162,8.9190063,1.9580078,13.557251,1.9580078c4.6274414,0,9.2495728-0.7952881,13.5170898-1.9442139   C64.5802612,54.7183228,65.1608887,52.3759155,65.1608887,50c0-2.3753052-0.579895-4.7164307-1.6425781-6.8205566   c-4.2705078-1.151001-8.894043-1.9480591-13.5183716-1.9480591C45.3707886,41.2313843,40.7470093,42.0274048,36.4781494,43.177002z    M56.605835,50c0,3.6424561-2.9633789,6.605835-6.605896,6.605835c-3.6424561,0-6.605896-2.9633789-6.605896-6.605835   c0-3.6431885,2.9634399-6.6065674,6.605896-6.6065674C53.6424561,43.3934326,56.605835,46.3568115,56.605835,50z"></path></g></svg>