<svg fill="#00DCFF" xmlns="http://www.w3.org/2000/svg" xmlns:xlink="http://www.w3.org/1999/xlink" version="1.1" x="0px" y="0px" viewBox="0 0 100 100" style="enable-background:new 0 0 100 100;" xml:space="preserve"><path d="M99.6,9.6H90L82.9,22H77l4.3-12.4h-8.8L68.2,22h-6.5l1.4-12.4h-8.4L53.4,22h-6.7L45.2,9.6h-8.4L38.3,22h-6.5L27.5,9.6h-8.8  L23,22h-5.9L10,9.6H0.4L35,69.6l0,0l10.5,18.2c0.9,1.6,2.6,2.6,4.5,2.6c1.9,0,3.6-1,4.5-2.6L65,69.6l0,0L99.6,9.6z M58.7,32.4h15.8  l-7.9,13.7C66.4,40.3,63.3,35.3,58.7,32.4z M56.2,46.5c0,3.4-2.8,6.2-6.2,6.2c-3.4,0-6.2-2.8-6.2-6.2c0-3.4,2.8-6.2,6.2-6.2  C53.4,40.3,56.2,43.1,56.2,46.5z M33.4,46.1l-7.9-13.7h15.8C36.7,35.3,33.6,40.3,33.4,46.1z M50,74.8l-7.9-13.7c2.3,1.3,5,2,7.9,2  c2.9,0,5.5-0.7,7.9-2L50,74.8z"></path></svg>