<svg fill="#00DCFF" xmlns="http://www.w3.org/2000/svg" xmlns:xlink="http://www.w3.org/1999/xlink" version="1.1" x="0px" y="0px" viewBox="0 0 100 100" enable-background="new 0 0 100 100" xml:space="preserve"><g><path d="M92.3,63.2l-6-2.2c1.4-3.8,2.1-7.9,2.1-12c0-4.4-0.8-8.7-2.4-12.7l6-2.3c1.8,4.8,2.8,9.9,2.8,15   C94.8,53.9,93.9,58.6,92.3,63.2z"></path></g><g><path d="M17.1,36.7l-6-2.2C17.1,18.1,32.9,7.1,50.3,7.1c17.2,0,32.9,10.8,39.1,26.8l-6,2.3c-5.2-13.6-18.5-22.7-33.1-22.7   C35.6,13.5,22.2,22.8,17.1,36.7z"></path></g><g><path d="M8.3,63.2C6.7,58.6,5.9,53.9,5.9,49c0-5,0.9-9.9,2.6-14.6l6,2.2c-1.5,3.9-2.2,8.1-2.2,12.3c0,4.1,0.7,8.2,2.1,12L8.3,63.2z   "></path></g><g><path d="M50.3,90.9c-17.6,0-33.4-11.1-39.4-27.7l6-2.2c5,14,18.5,23.4,33.4,23.4c14.9,0,28.3-9.4,33.4-23.4l6,2.2   C83.8,79.7,67.9,90.9,50.3,90.9z"></path></g><g><path d="M22.9,65.4c-3.4-4.8-5.1-10.5-5.1-16.4c0-6.3,2-12.4,5.9-17.4l9.2,7c-2.3,3-3.5,6.6-3.5,10.4c0,3.5,1.1,6.9,3.1,9.8   L22.9,65.4z"></path></g><g><path d="M50.3,77.7c-9.4,0-18.2-4.6-23.6-12.3l9.5-6.6c3.2,4.6,8.5,7.4,14.1,7.4c5.6,0,10.9-2.8,14.1-7.4l9.5,6.6   C68.5,73.1,59.7,77.7,50.3,77.7z"></path></g><g><path d="M77.7,65.4l-9.5-6.6c2-2.9,3.1-6.3,3.1-9.8c0-3.8-1.2-7.4-3.5-10.4l9.2-7c3.8,5,5.9,11.1,5.9,17.4   C82.9,54.9,81.1,60.6,77.7,65.4z"></path></g><g><path d="M36.7,38.6l-9.2-7c5.5-7.2,13.8-11.3,22.9-11.3c9,0,17.4,4.1,22.9,11.3l-9.2,7c-3.3-4.3-8.3-6.8-13.7-6.8   C44.9,31.8,39.9,34.3,36.7,38.6z"></path></g></svg>