<svg fill="#FF7F7F" xmlns="http://www.w3.org/2000/svg" xmlns:xlink="http://www.w3.org/1999/xlink" viewBox="0 0 100 100" version="1.1" x="0px" y="0px"><title>Flag s5.2</title><desc>Created with Sketch.</desc><g stroke="none" stroke-width="1" fill="none" fill-rule="evenodd"><g fill-rule="nonzero" fill="#FF7F7F"><path d="M41.9973309,65.4150207 C41.9686236,65.6896668 41.722707,65.8890396 41.4480608,65.8603322 C41.1734147,65.8316248 40.9740419,65.5857083 41.0027493,65.3110621 L43.8006009,38.5437384 C43.8106051,38.4480272 43.8480168,38.3572363 43.9083461,38.2822623 C43.9865227,38.1851086 44.1292217,38.0267636 44.334287,37.8276489 C44.6707121,37.5009863 45.0647587,37.1753437 45.5145759,36.8714786 C47.4791518,35.5443481 49.8177387,35.0466672 52.439668,35.8716918 C55.2616907,36.7596784 56.9415809,36.5596697 58.6487793,35.1190933 C58.9866468,34.8339924 59.5011259,35.0954555 59.4699899,35.5364402 L58.8908883,43.7383445 L58.8514707,43.9006288 C57.9357897,46.0303032 54.4938166,47.4734117 51.3916828,46.5507902 C48.6428851,45.7332563 44.9405127,46.4627407 43.8189737,48.8339084 C43.7925679,48.8897358 43.7571587,48.9384119 43.7153018,48.9790224 L41.9973309,65.4150207 Z"></path></g></g></svg>