<svg fill="#00FFDC" xmlns="http://www.w3.org/2000/svg" xmlns:xlink="http://www.w3.org/1999/xlink" version="1.1" x="0px" y="0px" viewBox="0 0 100 100" enable-background="new 0 0 100 100" xml:space="preserve"><path fill="#00FFDC" d="M96.908,47.982l-3.543,0.276C91.553,24.644,71.818,6.048,47.74,6.048V2.495  c-7.416,0-14.447,1.639-20.758,4.571l1.504,3.221C12.834,17.558,1.979,33.415,1.979,51.811c0,25.272,20.488,45.762,45.762,45.762  c16.938,0,31.725-9.203,39.637-22.879l3.072,1.774C95.627,67.498,97.664,57.58,96.908,47.982z M89.174,44.853  c0.377,2.264,0.578,4.587,0.578,6.958c0,17.301-10.461,32.158-25.402,38.597l0.77,1.786c-10.191,4.375-21.926,4.865-32.754,0.81  l0.686-1.828c-1.715-0.643-3.377-1.387-4.979-2.235l-0.912,1.725C10.178,81.693,1.012,62.615,4.506,43.824l1.92,0.354  C10.014,24.619,27.146,9.8,47.74,9.8c1.963,0,3.893,0.138,5.785,0.397l0.268-1.937c19.027,2.62,34.166,17.412,37.311,36.268  L89.174,44.853z M40.174,30.363l1.711,4.697c-0.143,0.049-0.283,0.101-0.424,0.153l-1.709-4.696L40.174,30.363z M36.564,32.003  l2.502,4.331c-0.133,0.072-0.264,0.146-0.391,0.225l-2.5-4.33L36.564,32.003z M44.014,29.375l0.869,4.924  c-0.15,0.024-0.297,0.051-0.443,0.08l-0.869-4.926L44.014,29.375z M33.295,34.244l3.215,3.83c-0.115,0.096-0.229,0.195-0.342,0.293  l-3.219-3.833L33.295,34.244z M47.516,29.068h0.451v5.004c-0.076,0-0.15-0.006-0.229-0.006c-0.076,0-0.148,0.006-0.225,0.006v-5.004  H47.516z M25.385,47.64l4.926,0.868c-0.027,0.147-0.057,0.295-0.08,0.443l-4.924-0.867L25.385,47.64z M30.992,45.953l-4.697-1.709  l0.152-0.424l4.697,1.71C31.092,45.67,31.041,45.812,30.992,45.953z M34.006,40.58l-3.83-3.215l0.289-0.346l3.832,3.217  C34.201,40.35,34.102,40.463,34.006,40.58z M25,51.586h5.004c0,0.074-0.006,0.148-0.006,0.225c0,0.074,0.006,0.15,0.006,0.226H25  V51.586z M32.264,43.135l-4.33-2.5l0.227-0.391l4.328,2.5C32.412,42.873,32.338,43.003,32.264,43.135z M65.018,37.019l0.289,0.345  l-3.832,3.215c-0.094-0.115-0.193-0.229-0.291-0.342L65.018,37.019z M69.035,43.818l0.152,0.424l-4.697,1.711  c-0.051-0.143-0.102-0.283-0.154-0.424L69.035,43.818z M51.467,29.374l0.445,0.078l-0.869,4.927  c-0.148-0.029-0.295-0.056-0.443-0.08L51.467,29.374z M70.098,47.639l0.078,0.443l-4.924,0.867c-0.025-0.148-0.055-0.295-0.08-0.442  L70.098,47.639z M67.324,40.242l0.225,0.391l-4.332,2.502c-0.074-0.132-0.146-0.262-0.225-0.391L67.324,40.242z M55.307,30.361  l0.424,0.154l-1.709,4.698c-0.141-0.053-0.281-0.104-0.426-0.153L55.307,30.361z M58.918,32.002l0.389,0.225l-2.5,4.332  c-0.129-0.078-0.26-0.152-0.391-0.225L58.918,32.002z M62.188,34.242l0.344,0.291l-3.217,3.834  c-0.113-0.098-0.227-0.197-0.344-0.293L62.188,34.242z M70.484,52.033h-5.006c0-0.074,0.004-0.148,0.004-0.223  c0-0.076-0.004-0.15-0.004-0.228h5.006V52.033z M65.018,66.598l-3.834-3.215c0.098-0.115,0.197-0.227,0.291-0.344l3.832,3.215  L65.018,66.598z M50.602,69.318c0.148-0.023,0.295-0.051,0.443-0.078l0.869,4.926l-0.445,0.078L50.602,69.318z M62.188,69.375  l-3.215-3.83c0.115-0.096,0.229-0.195,0.342-0.293l3.217,3.832L62.188,69.375z M55.309,73.256l-1.711-4.699  c0.143-0.049,0.283-0.1,0.424-0.151l1.711,4.696L55.309,73.256z M58.918,71.615l-2.502-4.33c0.131-0.074,0.262-0.146,0.391-0.225  l2.5,4.33L58.918,71.615z M67.324,63.375l-4.332-2.5c0.078-0.129,0.15-0.26,0.225-0.393l4.332,2.502L67.324,63.375z M70.098,55.979  l-4.926-0.869c0.025-0.146,0.055-0.293,0.08-0.44l4.924,0.867L70.098,55.979z M69.035,59.799l-4.699-1.711  c0.053-0.139,0.104-0.281,0.154-0.422l4.697,1.709L69.035,59.799z M30.467,66.6l-0.291-0.344l3.832-3.215  c0.094,0.117,0.193,0.229,0.291,0.342L30.467,66.6z M25.385,55.98l-0.078-0.441l4.924-0.869c0.023,0.148,0.053,0.295,0.08,0.443  L25.385,55.98z M28.16,63.375l-0.227-0.391l4.332-2.5c0.072,0.131,0.146,0.264,0.225,0.391L28.16,63.375z M26.449,59.799  l-0.154-0.424l4.697-1.707c0.049,0.141,0.1,0.283,0.152,0.422L26.449,59.799z M33.297,69.375l-0.346-0.289l3.217-3.834  c0.113,0.098,0.227,0.197,0.342,0.293L33.297,69.375z M41.461,68.406c0.141,0.053,0.281,0.104,0.426,0.152l-1.711,4.696  l-0.422-0.153L41.461,68.406z M36.566,71.615l-0.389-0.225l2.498-4.33c0.129,0.078,0.26,0.151,0.391,0.227L36.566,71.615z   M43.572,74.166l0.867-4.926c0.146,0.029,0.295,0.057,0.443,0.08l-0.867,4.924L43.572,74.166z M47.74,69.553  c0.076,0,0.15-0.004,0.227-0.006l0.002,5.004h-0.451l-0.002-5.004C47.592,69.549,47.666,69.553,47.74,69.553z M34.881,33.053  l1.436,2.049c-0.125,0.085-0.246,0.174-0.367,0.262l-1.438-2.053L34.881,33.053z M38.334,31.104l1.057,2.268  c-0.137,0.062-0.275,0.12-0.408,0.186l-1.057-2.263L38.334,31.104z M33.273,37.66l-1.771-1.771l0.316-0.318l1.773,1.771  C33.484,37.447,33.377,37.553,33.273,37.66z M42.072,29.785l0.646,2.412c-0.146,0.037-0.289,0.081-0.436,0.121l-0.646-2.416  L42.072,29.785z M45.982,29.135l0.219,2.498c-0.148,0.012-0.299,0.02-0.449,0.033l-0.219-2.491L45.982,29.135z M31.033,40.386  l-2.051-1.435l0.26-0.369l2.053,1.438C31.207,40.141,31.117,40.262,31.033,40.386z M25.834,45.707l2.416,0.646  c-0.041,0.146-0.084,0.289-0.121,0.436l-2.412-0.646L25.834,45.707z M29.303,43.461l-2.268-1.057l0.189-0.408l2.264,1.055  C29.424,43.186,29.365,43.324,29.303,43.461z M49.498,29.135l0.449,0.039l-0.219,2.492c-0.148-0.014-0.299-0.021-0.449-0.033  L49.498,29.135z M69.65,45.705l0.117,0.436l-2.414,0.646c-0.039-0.146-0.08-0.289-0.123-0.434L69.65,45.705z M68.258,41.994  l0.189,0.408l-2.27,1.059c-0.062-0.137-0.119-0.276-0.188-0.412L68.258,41.994z M66.24,38.58l0.26,0.369l-2.051,1.437  c-0.086-0.124-0.174-0.245-0.262-0.368L66.24,38.58z M25.105,49.604l2.492,0.218c-0.014,0.149-0.021,0.3-0.033,0.45l-2.498-0.219  L25.105,49.604z M70.377,49.604l0.039,0.448l-2.498,0.218c-0.012-0.15-0.02-0.301-0.035-0.448L70.377,49.604z M63.662,35.569  l0.318,0.318l-1.771,1.771c-0.105-0.106-0.213-0.213-0.318-0.317L63.662,35.569z M53.408,29.784l0.436,0.116l-0.648,2.418  c-0.143-0.04-0.287-0.084-0.434-0.121L53.408,29.784z M57.148,31.104l0.406,0.189L56.5,33.558c-0.137-0.065-0.273-0.124-0.41-0.186  L57.148,31.104z M60.602,33.051l0.367,0.259l-1.439,2.053c-0.119-0.087-0.24-0.177-0.365-0.261L60.602,33.051z M25.107,54.016  l-0.041-0.447l2.498-0.219c0.012,0.15,0.02,0.301,0.033,0.449L25.107,54.016z M60.602,70.566l-1.436-2.051  c0.123-0.084,0.244-0.173,0.363-0.261l1.439,2.052L60.602,70.566z M66.24,65.037L64.188,63.6c0.088-0.123,0.176-0.244,0.262-0.367  l2.049,1.436L66.24,65.037z M63.662,68.047l-1.771-1.77c0.107-0.107,0.213-0.213,0.318-0.32l1.771,1.773L63.662,68.047z   M56.092,70.246c0.135-0.062,0.275-0.121,0.41-0.186l1.055,2.264l-0.408,0.189L56.092,70.246z M53.197,71.299l0.648,2.418  l-0.436,0.117l-0.646-2.414C52.91,71.383,53.053,71.34,53.197,71.299z M70.377,54.016l-2.494-0.219  c0.016-0.148,0.023-0.299,0.035-0.447l2.498,0.217L70.377,54.016z M68.258,61.623l-2.266-1.055c0.066-0.135,0.125-0.273,0.186-0.41  l2.27,1.057L68.258,61.623z M69.65,57.912l-2.42-0.646c0.043-0.146,0.084-0.289,0.123-0.436l2.412,0.646L69.65,57.912z   M42.074,73.834l-0.436-0.117l0.648-2.416c0.145,0.039,0.285,0.082,0.434,0.119L42.074,73.834z M34.883,70.566l-0.369-0.258  l1.438-2.054c0.121,0.088,0.242,0.177,0.367,0.263L34.883,70.566z M31.82,68.049l-0.318-0.318l1.773-1.771  c0.104,0.106,0.211,0.213,0.316,0.317L31.82,68.049z M29.242,65.037l-0.258-0.367l2.049-1.438c0.086,0.125,0.174,0.246,0.262,0.369  L29.242,65.037z M49.281,71.986c0.15-0.014,0.301-0.021,0.449-0.035l0.219,2.492L49.5,74.484L49.281,71.986z M27.227,61.625  l-0.189-0.408l2.268-1.057c0.061,0.137,0.119,0.273,0.186,0.41L27.227,61.625z M38.336,72.516l-0.408-0.19l1.055-2.265  c0.135,0.066,0.273,0.123,0.41,0.187L38.336,72.516z M45.535,74.443l0.219-2.492c0.148,0.016,0.299,0.023,0.449,0.035l-0.219,2.498  L45.535,74.443z M25.834,57.914l-0.117-0.436l2.412-0.646c0.037,0.146,0.082,0.289,0.121,0.434L25.834,57.914z M47.74,12.021  c-21.938,0-39.787,17.848-39.787,39.788c0,21.938,17.85,39.789,39.787,39.789c21.939,0,39.789-17.851,39.789-39.789  C87.529,29.869,69.68,12.021,47.74,12.021z M81.426,35.873l1.855,0.158c2.148,4.824,3.348,10.164,3.348,15.777  c0,5.604-1.195,10.938-3.34,15.758l-1.852,0.158l-3.053,5.289l0.783,1.672c-6.312,8.646-16.105,14.604-27.297,15.791l-1.064-1.527  h-6.107l-1.068,1.529c-11.193-1.181-20.986-7.131-27.303-15.775l0.781-1.668l-3.055-5.291l-1.854-0.158  c-2.15-4.824-3.35-10.162-3.35-15.777c0-5.604,1.195-10.938,3.338-15.757l1.854-0.157l3.053-5.29l-0.781-1.671  c6.312-8.648,16.102-14.605,27.295-15.793l1.064,1.527h6.109l1.064-1.529c11.193,1.181,20.986,7.131,27.305,15.776l-0.779,1.669  L81.426,35.873z M76.982,51.811c0,3.25-0.531,6.377-1.512,9.299l-2.863-0.975c0.875-2.617,1.357-5.414,1.357-8.324  c0-14.482-11.74-26.225-26.227-26.225c-4.797,0-9.289,1.295-13.156,3.545l-1.52-2.617c4.314-2.508,9.326-3.945,14.676-3.945  C63.891,22.568,76.982,35.66,76.982,51.811z M71.359,63.215l2.713,1.324C69.34,74.312,59.328,81.051,47.74,81.051  c-16.15,0-29.242-13.092-29.242-29.24c0-6.41,2.064-12.335,5.562-17.154l2.447,1.771c-3.137,4.322-4.992,9.634-4.992,15.383  c0,14.482,11.742,26.224,26.225,26.224C58.135,78.033,67.117,71.984,71.359,63.215z"></path></svg>