<svg fill="#00FFDC" xmlns="http://www.w3.org/2000/svg" xmlns:xlink="http://www.w3.org/1999/xlink" version="1.1" x="0px" y="0px" viewBox="0 0 100 100" enable-background="new 0 0 100 100" xml:space="preserve"><path fill="#00FFDC" d="M94.354,50.062c0-24.877-20.166-45.044-45.041-45.044C24.436,5.018,4.27,25.185,4.27,50.062  c0,24.875,20.166,45.042,45.043,45.042C74.188,95.104,94.354,74.938,94.354,50.062z M92.545,43.172  c0.355,2.263,0.539,4.582,0.539,6.89c0,0.25-0.205,0.454-0.455,0.454c-0.248,0-0.453-0.204-0.453-0.454  c0-2.262-0.176-4.532-0.525-6.749c-0.039-0.247,0.129-0.478,0.375-0.517C92.27,42.755,92.506,42.926,92.545,43.172z M73.121,13.868  c0.084-0.126,0.256-0.158,0.379-0.076c3.791,2.534,7.193,5.698,10.031,9.286c0.141-0.005,0.283,0.047,0.377,0.167  c3.861,4.974,6.551,10.587,7.996,16.686c0.061,0.243-0.092,0.489-0.336,0.545c-0.035,0.01-0.07,0.014-0.105,0.014  c-0.203,0-0.391-0.141-0.438-0.349c-1.416-5.973-4.051-11.47-7.832-16.339c-0.086-0.111-0.105-0.248-0.078-0.375  c-2.807-3.549-6.168-6.677-9.918-9.181C73.072,14.161,73.039,13.992,73.121,13.868z M7.896,35.859  c1.33-3.879,3.201-7.552,5.564-10.919c0.145-0.205,0.426-0.254,0.633-0.11c0.203,0.144,0.252,0.426,0.107,0.631  c-2.312,3.296-4.146,6.895-5.451,10.693c-0.062,0.187-0.238,0.306-0.426,0.306c-0.049,0-0.1-0.009-0.146-0.026  C7.941,36.354,7.814,36.097,7.896,35.859z M10.418,69.16c-0.062,0.033-0.131,0.045-0.193,0.045c-0.17,0-0.332-0.094-0.41-0.258  c-0.594-1.236-1.133-2.518-1.605-3.803c-0.086-0.234,0.035-0.496,0.271-0.582c0.234-0.088,0.494,0.035,0.58,0.27  c0.463,1.258,0.99,2.512,1.57,3.725C10.738,68.781,10.645,69.053,10.418,69.16z M78.314,81.457l-1.244-1.35  c-1.693,1.567-3.521,2.99-5.465,4.254l0.564,0.863c-1.213,0.793-2.459,1.532-3.756,2.198l1.027,2.007  c-6.055,3.108-12.914,4.872-20.189,4.872c-2.184,0-4.328-0.163-6.43-0.471l0.328-2.236c-2.186-0.317-4.312-0.803-6.377-1.442  l0.615-1.982c-2.17-0.668-4.26-1.521-6.254-2.533l-1.424,2.793c0.898,0.449,1.816,0.861,2.742,1.25l-0.219,0.512  c-9.131-3.909-16.652-10.854-21.307-19.559l1.305-0.697c-1.775-3.291-3.125-6.846-3.975-10.592L9.34,59.1  c-0.506-2.225-0.838-4.516-0.965-6.86l-1.098,0.059c-0.041-0.76-0.064-1.522-0.064-2.293c0-1.777,0.117-3.523,0.33-5.241  l-0.916-0.117c0.293-2.412,0.799-4.796,1.494-7.124l0.9,0.275c1.701-5.608,4.533-10.724,8.244-15.073l-1.283-1.094  c2.158-2.528,4.592-4.809,7.266-6.792l0.494,0.667c-1.264,0.941-2.479,1.943-3.631,3.021l2.271,2.458  c1.645-1.515,3.418-2.889,5.301-4.11l-1.365-2.1c0.889-0.58,1.797-1.131,2.73-1.643c0.172,0.312,0.346,0.629,0.52,0.945  c1.24-0.683,2.523-1.299,3.84-1.854l-0.738-1.758c2.236-0.953,4.553-1.709,6.916-2.269l0.438,1.881  c2.982-0.693,6.09-1.063,9.285-1.063V8.44c4.301,0,8.443,0.659,12.344,1.872l0.381-1.229c2.326,0.708,4.586,1.618,6.756,2.708  l-0.6,1.181c1.016,0.519,2.016,1.074,2.98,1.672l-0.301,0.489c1.111,0.688,2.188,1.428,3.227,2.215l-0.646,0.846  c1.814,1.37,3.482,2.89,5.012,4.522l0.781-0.728c6.887,7.34,11.111,17.21,11.111,28.073c0,4.312-0.674,8.473-1.91,12.375  l0.883,0.283c-1.684,5.314-4.4,10.166-7.908,14.33l0.602,0.51C80.867,78.936,79.631,80.236,78.314,81.457z M24.236,82.941  l-1.025,1.35c-1.943-1.461-3.756-3.088-5.422-4.855l1.262-1.18C20.645,79.959,22.377,81.527,24.236,82.941z M71.461,89.945  l0.469,0.812c-0.832,0.466-1.684,0.902-2.543,1.316l-0.398-0.851C69.826,90.824,70.65,90.396,71.461,89.945z M64.174,93.201  l0.324,0.881c-0.9,0.311-1.812,0.596-2.734,0.852l-0.244-0.904C62.414,93.779,63.301,93.502,64.174,93.201z M67.889,91.732  l0.396,0.85c-0.869,0.391-1.752,0.752-2.646,1.09l-0.322-0.879C66.186,92.465,67.043,92.109,67.889,91.732z M60.348,94.336  l0.244,0.906c-0.924,0.232-1.854,0.436-2.799,0.609l-0.162-0.925C58.547,94.758,59.451,94.561,60.348,94.336z M81.064,82.82  l0.662,0.662c-0.688,0.664-1.395,1.311-2.121,1.93l-0.604-0.719C79.709,84.09,80.396,83.463,81.064,82.82z M12.121,76.625  c0.539,0.748,1.098,1.48,1.682,2.195l-0.715,0.602c-0.6-0.736-1.18-1.488-1.73-2.26L12.121,76.625z M56.438,95.131l0.166,0.928  c-0.939,0.146-1.887,0.269-2.84,0.357l-0.082-0.934C54.609,95.395,55.529,95.277,56.438,95.131z M11.428,75.631L9.129,77.24  c-0.561-0.828-1.1-1.674-1.613-2.537l2.43-1.404C10.418,74.092,10.91,74.871,11.428,75.631z M74.863,87.854l0.537,0.769  c-0.791,0.532-1.6,1.045-2.422,1.532l-0.469-0.812C73.312,88.869,74.096,88.373,74.863,87.854z M78.072,85.471l0.602,0.719  c-0.742,0.604-1.502,1.183-2.277,1.736l-0.537-0.766C76.613,86.621,77.352,86.057,78.072,85.471z M6.082,65.008l-2.635,0.959  c-0.299-0.857-0.58-1.727-0.83-2.609l1.793-0.514c-0.021-0.076-0.041-0.154-0.062-0.229l0.9-0.242  C5.5,63.264,5.779,64.139,6.082,65.008z M52.477,95.58l0.082,0.938c-0.947,0.064-1.896,0.101-2.855,0.111v-0.939  C50.633,95.682,51.557,95.645,52.477,95.58z M2.738,53.447c-0.068-0.941-0.111-1.889-0.125-2.844h0.941  c0.012,0.928,0.049,1.848,0.113,2.764L2.738,53.447z M3.555,49.395H2.615c0.012-0.943,0.053-1.892,0.123-2.844l0.932,0.083  C3.605,47.559,3.568,48.478,3.555,49.395z M7.553,68.701l-2.541,1.184c-0.41-0.912-0.797-1.836-1.15-2.779l2.637-0.959  C6.822,67.01,7.174,67.861,7.553,68.701z M94.395,42.621l2.766-0.489c0.162,0.997,0.293,2.001,0.396,3.013l-2.803,0.245  C94.66,44.458,94.541,43.535,94.395,42.621z M3.775,45.425l-0.93-0.081c0.094-0.949,0.217-1.89,0.365-2.819l0.92,0.161  C3.988,43.59,3.867,44.504,3.775,45.425z M94.859,46.596l2.803-0.247c0.004,0.067,0.01,0.133,0.016,0.197l-1.869,0.133  c0.062,0.896,0.098,1.798,0.105,2.707h-0.438v-0.033H94.98C94.967,48.43,94.924,47.51,94.859,46.596z M93.582,38.699l2.703-0.725  c0.25,0.979,0.473,1.968,0.662,2.964l-2.766,0.488C94.008,40.508,93.811,39.598,93.582,38.699z M9.344,72.248L6.91,73.652  c-0.49-0.875-0.955-1.762-1.389-2.67l2.543-1.185C8.465,70.631,8.893,71.445,9.344,72.248z M41.766,95.068  c0.902,0.149,1.82,0.274,2.746,0.373l-0.082,0.934c-0.953-0.098-1.896-0.227-2.828-0.381L41.766,95.068z M45.793,95.559  c0.9,0.066,1.799,0.109,2.693,0.123v0.939c-0.916-0.018-1.838-0.059-2.766-0.129c-0.027-0.002-0.059-0.006-0.086-0.006l0.08-0.935  C45.742,95.553,45.771,95.557,45.793,95.559z M37.863,94.252c0.891,0.227,1.793,0.428,2.705,0.605l-0.162,0.926  c-0.941-0.182-1.869-0.393-2.785-0.627L37.863,94.252z M97.785,50.6c-0.012,1.01-0.057,2.023-0.131,3.033l-2.303-0.203l0.004-0.029  l-0.498-0.041c0.066-0.907,0.105-1.811,0.119-2.704h0.498V50.6H97.785z M34.053,93.094c0.867,0.305,1.75,0.588,2.643,0.842  l-0.244,0.904c-0.918-0.262-1.824-0.553-2.719-0.867L34.053,93.094z M26.812,89.803c0.801,0.453,1.617,0.887,2.451,1.289  l-0.396,0.85c-0.859-0.418-1.699-0.858-2.523-1.325L26.812,89.803z M83.812,79.916l0.719,0.604  c-0.629,0.726-1.277,1.429-1.947,2.109l-0.662-0.664C82.57,81.305,83.201,80.619,83.812,79.916z M95.248,54.639l2.299,0.201  c-0.1,1.008-0.23,2.01-0.395,3.01l-2.273-0.397l0.004-0.029l-0.494-0.086c0.145-0.889,0.264-1.78,0.354-2.687l0.5,0.043  L95.248,54.639z M30.357,91.609c0.84,0.381,1.691,0.735,2.559,1.063L32.6,93.555c-0.896-0.339-1.771-0.707-2.635-1.101  L30.357,91.609z M23.434,87.699c0.76,0.521,1.537,1.02,2.332,1.496l-0.469,0.811c-0.816-0.492-1.619-1.002-2.398-1.539  L23.434,87.699z M90.41,69.928l0.848,0.396c-0.416,0.864-0.863,1.713-1.33,2.547l-0.812-0.47  C89.572,71.592,90.004,70.768,90.41,69.928z M14.576,79.752c0.602,0.699,1.227,1.379,1.865,2.041l-0.66,0.66  c-0.662-0.682-1.301-1.385-1.916-2.104L14.576,79.752z M88.504,73.447l0.814,0.471c-0.494,0.822-1.012,1.627-1.551,2.418  l-0.77-0.539C87.525,75.031,88.027,74.248,88.504,73.447z M86.303,76.787l0.766,0.537c-0.562,0.775-1.146,1.531-1.756,2.27  l-0.717-0.6C85.186,78.275,85.754,77.539,86.303,76.787z M94.668,58.643l2.271,0.4c-0.189,0.992-0.408,1.982-0.658,2.965  l-2.225-0.592l0.006-0.029l-0.484-0.131c0.219-0.871,0.414-1.754,0.586-2.645l0.494,0.088L94.668,58.643z M20.256,85.309  c0.711,0.586,1.441,1.15,2.189,1.691l-0.539,0.768c-0.77-0.557-1.52-1.139-2.254-1.742L20.256,85.309z M93.742,62.584l2.221,0.594  c-0.244,0.865-0.51,1.723-0.805,2.576l-1.766-0.605c-0.031,0.097-0.066,0.191-0.102,0.285l-0.879-0.317  c0.301-0.859,0.578-1.726,0.828-2.607l0.482,0.134L93.742,62.584z M92,66.254l0.875,0.32c-0.34,0.896-0.709,1.781-1.102,2.652  l-0.85-0.396C91.311,67.986,91.668,67.125,92,66.254z M17.297,82.65c0.658,0.645,1.336,1.272,2.031,1.877l-0.6,0.717  c-0.719-0.623-1.414-1.268-2.092-1.932L17.297,82.65z M81.941,17.997l1.988-1.99c0.705,0.72,1.391,1.465,2.055,2.233l-2.156,1.811  C83.219,19.349,82.59,18.662,81.941,17.997z M56.438,4.82c-0.912-0.144-1.832-0.262-2.762-0.351l0.082-0.929  c0.957,0.092,1.902,0.212,2.84,0.361L56.438,4.82z M52.467,4.369c-0.93-0.065-1.854-0.102-2.775-0.11V3.322  c0.947,0.008,1.898,0.047,2.857,0.114L52.467,4.369z M45.709,4.387L45.627,3.46c0.943-0.073,1.895-0.116,2.854-0.132v0.933  C47.551,4.276,46.625,4.317,45.709,4.387z M60.35,5.611c-0.895-0.223-1.803-0.416-2.721-0.586l0.164-0.92  c0.943,0.175,1.877,0.376,2.799,0.606L60.35,5.611z M64.182,6.747c-0.873-0.301-1.764-0.578-2.66-0.826l0.242-0.903  c0.926,0.257,1.84,0.539,2.738,0.849L64.182,6.747z M37.846,5.692l-0.725-2.706c0.729-0.188,1.463-0.361,2.205-0.516l0.383,1.827  c0.227-0.046,0.457-0.086,0.688-0.13l0.16,0.917C39.645,5.261,38.74,5.461,37.846,5.692z M34.033,6.858l-0.961-2.633  c0.949-0.336,1.908-0.643,2.879-0.92l0.727,2.706C35.783,6.266,34.904,6.549,34.033,6.858z M87.012,24.18l0.77-0.538  c0.541,0.789,1.057,1.597,1.547,2.419l-0.811,0.47C88.037,25.731,87.535,24.948,87.012,24.18z M30.336,8.35l-1.184-2.539  c0.914-0.418,1.844-0.807,2.785-1.167l0.961,2.631C32.031,7.609,31.178,7.968,30.336,8.35z M84.609,20.978l2.156-1.811  c0.289,0.353,0.574,0.708,0.855,1.068l-1.482,1.15c0.32,0.416,0.637,0.838,0.941,1.264l-0.768,0.539  C85.766,22.434,85.199,21.697,84.609,20.978z M79.021,15.263l1.805-2.152c0.768,0.656,1.518,1.338,2.242,2.043l-1.984,1.99  C80.414,16.496,79.729,15.869,79.021,15.263z M75.875,12.791l1.607-2.294c0.82,0.587,1.625,1.2,2.412,1.837l-1.803,2.151  C77.371,13.898,76.633,13.334,75.875,12.791z M90.934,31.149l0.848-0.396c0.084,0.189,0.172,0.377,0.256,0.567l1.707-0.745  c0.318,0.723,0.613,1.455,0.895,2.194l-2.629,0.957C91.678,32.855,91.316,31.996,90.934,31.149z M74.883,12.098  c-0.77-0.521-1.557-1.017-2.355-1.492l0.469-0.81c0.498,0.295,0.992,0.596,1.48,0.909L75.48,9.14c0.34,0.217,0.674,0.44,1.008,0.666  L74.883,12.098z M71.477,10.002c-0.811-0.451-1.637-0.878-2.475-1.279l0.393-0.85c0.867,0.414,1.715,0.853,2.549,1.317  L71.477,10.002z M92.422,34.866l2.633-0.958c0.334,0.954,0.639,1.919,0.916,2.896l-2.705,0.725  C93.012,36.631,92.73,35.742,92.422,34.866z M67.9,8.214c-0.846-0.377-1.705-0.731-2.578-1.059l0.32-0.881  c0.9,0.337,1.785,0.701,2.654,1.089L67.9,8.214z M41.748,4.87l-0.162-0.921c0.938-0.156,1.883-0.285,2.832-0.384l0.084,0.933  C43.574,4.592,42.658,4.719,41.748,4.87z M14.549,20.225l-0.717-0.602c0.617-0.721,1.262-1.422,1.922-2.103l0.658,0.659  C15.773,18.842,15.152,19.524,14.549,20.225z M8.039,30.188l-0.848-0.395c0.412-0.859,0.852-1.7,1.312-2.527l0.809,0.467  C8.863,28.536,8.439,29.354,8.039,30.188z M9.918,26.682l-0.812-0.468c0.486-0.818,0.996-1.62,1.527-2.404l0.766,0.537  C10.881,25.107,10.391,25.888,9.918,26.682z M12.09,23.352l-0.764-0.535c0.555-0.773,1.131-1.528,1.73-2.263l0.717,0.601  C13.191,21.87,12.629,22.601,12.09,23.352z M6.479,33.842L5.6,33.524c0.336-0.892,0.695-1.769,1.084-2.632l0.848,0.396  C7.154,32.125,6.805,32.978,6.479,33.842z M3.771,54.57c0.096,0.922,0.217,1.834,0.361,2.742l-0.922,0.16  c-0.148-0.933-0.275-1.871-0.369-2.82L3.771,54.57z M26.789,10.158l-1.4-2.425c0.875-0.496,1.766-0.964,2.672-1.405l1.184,2.54  C28.41,9.274,27.59,9.704,26.789,10.158z M4.34,41.494l-0.92-0.162c0.178-0.94,0.377-1.865,0.607-2.781l0.902,0.243  C4.707,39.682,4.512,40.583,4.34,41.494z M5.24,37.623l-0.902-0.242c0.258-0.917,0.543-1.824,0.852-2.717l0.877,0.321  C5.766,35.851,5.49,36.73,5.24,37.623z M20.23,14.661l-0.602-0.714c0.732-0.604,1.486-1.185,2.258-1.743l0.533,0.765  C21.674,13.511,20.943,14.074,20.23,14.661z M22.873,11.502c0.699-0.479,1.406-0.941,2.131-1.382l-0.971-1.594  c0.102-0.063,0.205-0.121,0.311-0.184l1.398,2.424c-0.793,0.477-1.568,0.979-2.33,1.502L22.873,11.502z M17.27,17.32l-0.66-0.66  c0.68-0.667,1.379-1.309,2.096-1.932l0.6,0.716C18.609,16.049,17.93,16.674,17.27,17.32z M89.123,27.578l0.811-0.466  c0.469,0.832,0.916,1.682,1.332,2.544l-0.848,0.396C90.012,29.212,89.578,28.388,89.123,27.578z M4.037,61.443  c-0.232-0.916-0.439-1.84-0.617-2.777l0.926-0.162c0.17,0.908,0.365,1.809,0.594,2.699L4.037,61.443z M36.016,25.145l-4.082-0.352  c-0.793,0.546-1.562,1.127-2.299,1.741l-2.051-2.446l-0.994-1.183c0.748-0.624,1.521-1.218,2.318-1.78l0.881,1.259  c0.062,0.088,0.197-0.005,0.135-0.094l-0.883-1.257c0.797-0.558,1.621-1.083,2.463-1.574l0.771,1.332  c0.055,0.095,0.195,0.014,0.141-0.08l-0.77-1.333c0.844-0.486,1.707-0.937,2.59-1.353l0.654,1.397  c0.043,0.098,0.191,0.029,0.145-0.068l-0.65-1.397c0.881-0.41,1.781-0.783,2.701-1.12l2.449,6.731  C38.32,24.016,37.146,24.543,36.016,25.145z M49.174,21.85c-3.328,0.01-6.525,0.595-9.486,1.665l-1.922-5.279l-0.529-1.452  c0.912-0.331,1.844-0.623,2.789-0.879l0.398,1.491c0.027,0.103,0.184,0.061,0.154-0.042l-0.396-1.49  c0.938-0.249,1.889-0.46,2.854-0.63l0.27,1.516c0.016,0.106,0.176,0.078,0.156-0.027l-0.266-1.516  c0.951-0.165,1.92-0.291,2.896-0.377l0.135,1.529c0.01,0.107,0.168,0.093,0.16-0.014l-0.135-1.53  c0.963-0.081,1.938-0.123,2.922-0.124V21.85L49.174,21.85z M60.898,18.294l0.529-1.456c0.92,0.337,1.818,0.711,2.699,1.121  l-0.654,1.404c-0.043,0.098,0.102,0.165,0.146,0.068l0.654-1.404c0.883,0.417,1.75,0.868,2.594,1.354l-0.773,1.339  c-0.055,0.092,0.088,0.173,0.141,0.08l0.771-1.338c0.844,0.491,1.666,1.015,2.465,1.573l-0.887,1.263  c-0.061,0.088,0.07,0.181,0.133,0.093l0.887-1.263c0.797,0.561,1.566,1.154,2.312,1.778l-2.221,2.646  c-2.789-2.329-5.98-4.191-9.453-5.467l0.641-1.764C60.891,18.314,60.895,18.305,60.898,18.294z M21.6,30.576l-1.26-0.881  c0.562-0.798,1.156-1.571,1.779-2.318l1.176,0.986c0.084,0.07,0.188-0.055,0.105-0.123l-1.176-0.987  c0.629-0.745,1.289-1.463,1.977-2.153l1.084,1.083c0.076,0.076,0.191-0.038,0.115-0.114l-1.084-1.084  c0.688-0.687,1.406-1.348,2.15-1.976l3.047,3.629c-2.68,2.261-4.965,4.974-6.736,8.021l-2.76-1.594l-1.344-0.774  c0.488-0.845,1.018-1.667,1.572-2.464l1.26,0.882C21.596,30.771,21.688,30.638,21.6,30.576z M39.688,76.564  c2.963,1.069,6.158,1.655,9.486,1.666v2.69c-3.652-0.008-7.156-0.653-10.408-1.828L39.688,76.564z M18.641,64.404  c0.098-0.047,0.027-0.193-0.068-0.146l-1.4,0.652c-0.406-0.883-0.781-1.783-1.117-2.701l1.451-0.529  c0.102-0.035,0.045-0.188-0.057-0.147l-1.451,0.526c-0.33-0.914-0.623-1.842-0.879-2.789l1.492-0.399  c0.104-0.027,0.062-0.185-0.041-0.156l-1.49,0.397c-0.248-0.934-0.461-1.887-0.631-2.852l2.832-0.5  c0.664,3.744,1.971,7.268,3.803,10.451l-1.141,0.66c-0.004,0.002-0.012,0.004-0.014,0.006l-1.34,0.771  c-0.48-0.842-0.934-1.707-1.35-2.592L18.641,64.404z M30.174,72.906c1.332,1.111,2.764,2.109,4.277,2.979l0.799-1.375  c1.363,0.781,2.795,1.453,4.285,2l-0.922,2.529c-3.361-1.234-6.451-3.035-9.148-5.289L30.174,72.906z M35.035,80.721  c0.047-0.096-0.102-0.166-0.146-0.065l-0.652,1.397c-0.885-0.416-1.748-0.867-2.592-1.352l0.77-1.336  c0.057-0.092-0.086-0.174-0.139-0.082l-0.771,1.338c-0.844-0.492-1.666-1.016-2.463-1.574l0.883-1.262  c0.062-0.09-0.068-0.178-0.135-0.092l-0.881,1.262c-0.797-0.562-1.57-1.158-2.316-1.781l1.85-2.203  c1.27,1.062,2.623,2.027,4.045,2.887c1.76,1.064,3.627,1.966,5.582,2.683l-0.447,1.229c-0.004,0.008-0.006,0.013-0.01,0.021  l-0.527,1.451c-0.918-0.336-1.82-0.711-2.699-1.119L35.035,80.721z M46.25,85.268l0.139-1.533c0.008-0.106-0.152-0.12-0.162-0.016  l-0.133,1.533c-0.98-0.088-1.945-0.213-2.9-0.377l0.27-1.52c0.018-0.107-0.143-0.136-0.16-0.027l-0.27,1.518  c-0.965-0.17-1.914-0.381-2.854-0.631l0.4-1.492c0.027-0.104-0.127-0.145-0.156-0.041l-0.398,1.494  c-0.945-0.256-1.875-0.549-2.785-0.881l0.982-2.701c3.422,1.234,7.107,1.912,10.953,1.922v1.32c0,0.006-0.002,0.012-0.002,0.02  v1.535C48.189,85.391,47.215,85.348,46.25,85.268z M25.4,74.008c0.076-0.076-0.037-0.189-0.113-0.113l-1.088,1.086  c-0.686-0.69-1.346-1.41-1.975-2.153l1.178-0.988c0.082-0.067-0.023-0.192-0.105-0.125l-1.178,0.988  c-0.623-0.746-1.219-1.521-1.781-2.316l1.262-0.883c0.09-0.062-0.004-0.192-0.094-0.133l-1.262,0.885  c-0.557-0.799-1.082-1.619-1.57-2.465l2.49-1.438c1.883,3.236,4.311,6.115,7.154,8.519l-0.852,1.01  c-0.004,0.006-0.01,0.009-0.012,0.013l-0.988,1.178c-0.746-0.627-1.465-1.287-2.154-1.976L25.4,74.008z M81.895,58.871l1.496,0.4  c-0.258,0.944-0.549,1.875-0.881,2.787l-1.451-0.525c-0.102-0.039-0.158,0.111-0.057,0.148l1.455,0.528  c-0.338,0.92-0.713,1.817-1.121,2.701l-1.398-0.654c-0.1-0.045-0.168,0.103-0.072,0.148l1.402,0.649  c-0.414,0.887-0.863,1.75-1.35,2.59l-2.492-1.436c1.832-3.186,3.139-6.707,3.807-10.453l1.285,0.229  c0.006,0.002,0.016,0.007,0.023,0.009l1.521,0.268c-0.176,0.966-0.385,1.916-0.631,2.854l-1.496-0.4  C81.834,58.688,81.791,58.844,81.895,58.871z M68.367,27.132c-2.604-2.176-5.586-3.915-8.832-5.107l0.539-1.483  c3.424,1.255,6.562,3.089,9.311,5.381L68.367,27.132z M68.492,27.236l1.016-1.21c2.75,2.32,5.098,5.105,6.914,8.233l-1.369,0.79  C73.326,32.081,71.1,29.44,68.492,27.236z M59.898,79.039l-0.922-2.529c3.064-1.127,5.879-2.77,8.338-4.824l1.729,2.062  C66.348,76.002,63.258,77.805,59.898,79.039z M69.168,73.643l-1.73-2.062c2.463-2.078,4.562-4.572,6.195-7.377l2.328,1.351  C74.174,68.625,71.869,71.361,69.168,73.643z M20.041,55.848c0.639,3.223,1.793,6.258,3.377,9.014l-0.953,0.554  c-1.645-2.863-2.846-6.013-3.506-9.356L20.041,55.848z M76.043,65.412l-2.33-1.348c1.584-2.756,2.717-5.808,3.295-9.051l2.65,0.467  C79.025,59.039,77.781,62.385,76.043,65.412z M60.09,20.028c-3.357-1.211-6.979-1.876-10.756-1.886v-1.894  c0.002-0.007,0.004-0.014,0.004-0.021v-1.539c0.984,0.001,1.957,0.043,2.92,0.125l-0.135,1.536c-0.008,0.107,0.152,0.121,0.16,0.013  l0.135-1.536c0.979,0.087,1.945,0.212,2.898,0.377l-0.268,1.522c-0.02,0.106,0.141,0.134,0.158,0.028l0.268-1.523  c0.969,0.172,1.918,0.383,2.854,0.631l-0.396,1.495c-0.029,0.106,0.127,0.147,0.154,0.043l0.4-1.497  c0.943,0.255,1.871,0.548,2.783,0.877L60.09,20.028z M59.383,21.97c-3.139-1.133-6.521-1.754-10.049-1.764v-1.58  c3.717,0.008,7.283,0.664,10.59,1.858L59.383,21.97z M79.867,35.679c-0.096,0.044-0.029,0.192,0.068,0.146l1.4-0.655  c0.41,0.881,0.783,1.782,1.121,2.702l-1.455,0.529c-0.104,0.037-0.047,0.188,0.057,0.151l1.451-0.529  c0.334,0.913,0.627,1.842,0.881,2.789l-1.496,0.4c-0.104,0.027-0.062,0.184,0.041,0.155l1.496-0.401  c0.248,0.937,0.459,1.887,0.631,2.852l-5.438,0.958c-0.613-3.435-1.811-6.668-3.492-9.587l1.369-0.791  c0.674,1.169,1.273,2.386,1.793,3.645l0.447-0.185c-0.525-1.277-1.137-2.513-1.818-3.702l1.631-0.943  c0.008-0.002,0.016-0.005,0.023-0.01l1.338-0.771c0.486,0.842,0.938,1.707,1.354,2.591L79.867,35.679z M49.336,78.23  c3.328-0.011,6.525-0.599,9.488-1.666l0.92,2.528c-3.25,1.175-6.754,1.82-10.408,1.828V78.23z M82.947,47.175l1.533-0.135  c0.082,0.963,0.125,1.938,0.127,2.92h-1.541c-0.107,0-0.107,0.162,0,0.162h1.541c-0.002,0.981-0.045,1.957-0.127,2.92l-1.533-0.135  c-0.107-0.011-0.123,0.149-0.016,0.159l1.535,0.136c-0.088,0.978-0.213,1.942-0.377,2.896L81.256,55.6  c0.312-1.805,0.477-3.664,0.477-5.561h-1.596c0,1.801-0.154,3.566-0.449,5.283l-2.652-0.467c0.271-1.568,0.41-3.174,0.41-4.816  h1.643c0-1.74-0.146-3.444-0.434-5.103l3.893-0.686c0.006,0,0.016,0,0.023-0.001l1.521-0.267c0.164,0.952,0.289,1.92,0.377,2.899  l-1.535,0.135C82.824,47.023,82.84,47.185,82.947,47.175z M73.109,26.074c-0.076,0.077,0.039,0.191,0.115,0.115l1.088-1.089  c0.688,0.691,1.346,1.41,1.975,2.155l-1.182,0.99c-0.08,0.069,0.023,0.193,0.105,0.123l1.18-0.99  c0.625,0.747,1.219,1.521,1.779,2.319l-1.262,0.884c-0.09,0.062,0.002,0.193,0.092,0.131l1.266-0.883  c0.555,0.795,1.082,1.617,1.568,2.459l-2.99,1.729c-1.85-3.177-4.232-6.005-7.025-8.363l1.213-1.445  c0.01-0.004,0.016-0.012,0.023-0.019l0.988-1.18c0.744,0.628,1.461,1.288,2.154,1.975L73.109,26.074z M30.053,72.801l-0.711,0.846  c-2.701-2.28-5.006-5.02-6.795-8.094l0.953-0.551C25.227,67.965,27.445,70.602,30.053,72.801z M79.834,67.789  c-0.488,0.846-1.018,1.666-1.57,2.465l-1.266-0.883c-0.088-0.062-0.18,0.07-0.092,0.131l1.262,0.885  c-0.561,0.795-1.154,1.57-1.779,2.316l-1.178-0.99c-0.084-0.064-0.186,0.057-0.105,0.125l1.178,0.99  c-0.627,0.744-1.287,1.465-1.975,2.154l-1.086-1.088c-0.076-0.076-0.189,0.037-0.113,0.112l1.088,1.088  c-0.691,0.687-1.41,1.347-2.154,1.974l-1.85-2.203c2.846-2.398,5.27-5.281,7.152-8.516l1.133,0.653  c0.008,0.004,0.012,0.011,0.02,0.015L79.834,67.789z M70.93,75.996l0.986,1.178c-0.748,0.625-1.52,1.221-2.316,1.781l-0.885-1.262  c-0.062-0.086-0.191,0.002-0.133,0.092l0.885,1.264c-0.797,0.557-1.619,1.08-2.465,1.572l-0.771-1.338  c-0.055-0.09-0.193-0.01-0.139,0.082l0.771,1.336c-0.842,0.486-1.707,0.936-2.592,1.352l-0.652-1.397  c-0.047-0.101-0.191-0.029-0.146,0.065l0.652,1.402c-0.881,0.408-1.777,0.781-2.697,1.117l-0.984-2.703  c3.541-1.297,6.791-3.193,9.629-5.566l0.844,1.006C70.916,75.982,70.922,75.992,70.93,75.996z M60.742,81.844l0.529,1.451  c-0.912,0.332-1.844,0.625-2.787,0.881l-0.402-1.494c-0.025-0.104-0.184-0.062-0.156,0.041l0.4,1.494  c-0.936,0.248-1.887,0.459-2.854,0.631l-0.268-1.52c-0.018-0.107-0.178-0.08-0.16,0.027l0.27,1.52  c-0.953,0.164-1.922,0.289-2.898,0.377l-0.133-1.533c-0.01-0.104-0.172-0.092-0.164,0.016l0.135,1.533  c-0.961,0.08-1.936,0.123-2.916,0.123v-2.875c3.846-0.01,7.533-0.688,10.953-1.922l0.447,1.23  C60.738,81.828,60.738,81.836,60.742,81.844z M15.438,49.957h-1.535c0.002-0.982,0.045-1.957,0.125-2.919l1.531,0.135  c0.107,0.01,0.123-0.151,0.016-0.162l-1.531-0.133c0.086-0.977,0.213-1.945,0.379-2.898l4.664,0.825l-0.025,0.16l-2.227,3.148  c-0.041,0.639-0.055,1.281-0.055,1.927c0,1.896,0.162,3.756,0.473,5.562l-1.299,0.229c-0.004,0-0.01,0-0.016,0l-1.52,0.271  c-0.164-0.955-0.291-1.922-0.377-2.899l1.531-0.136c0.109-0.008,0.094-0.17-0.016-0.159l-1.531,0.133  c-0.08-0.961-0.123-1.938-0.125-2.918h1.535C15.543,50.121,15.543,49.957,15.438,49.957z M14.447,43.821L14.447,43.821  L14.447,43.821L14.447,43.821z M15.965,44.087l-1.518-0.266c0.17-0.968,0.383-1.919,0.631-2.856l1.49,0.401  c0.104,0.027,0.145-0.129,0.043-0.158l-1.492-0.399c0.254-0.945,0.547-1.875,0.877-2.789l1.451,0.529  c0.102,0.037,0.158-0.114,0.057-0.152l-1.451-0.528c0.338-0.919,0.711-1.819,1.121-2.702l1.396,0.653  c0.098,0.046,0.166-0.101,0.068-0.146l-1.398-0.652c0.416-0.885,0.867-1.748,1.35-2.591l4.105,2.368  c-1.725,2.998-2.955,6.318-3.582,9.844l-3.135-0.553C15.977,44.089,15.969,44.087,15.965,44.087z M30.014,66.59  c0.332,0.391,0.682,0.768,1.039,1.137l-0.369,0.369c-0.367-0.381-0.727-0.771-1.068-1.174L30.014,66.59z M28.645,64.848  c0.301,0.418,0.609,0.824,0.936,1.223l-0.396,0.337c-0.334-0.41-0.656-0.83-0.965-1.261L28.645,64.848z M49.57,24.541v-0.522  c0.527,0.006,1.057,0.027,1.592,0.064l-0.047,0.52C50.598,24.566,50.08,24.546,49.57,24.541z M32.66,69.25l-0.336,0.398  c-0.398-0.349-0.787-0.705-1.166-1.076l0.369-0.367C31.895,68.564,32.271,68.914,32.66,69.25z M27.434,62.994  c0.262,0.443,0.537,0.877,0.824,1.301l-1.279,0.896c-0.312-0.461-0.613-0.935-0.9-1.414L27.434,62.994z M24.312,54.756  c0.096,0.506,0.205,1.008,0.332,1.502l-0.504,0.135c-0.129-0.51-0.242-1.024-0.342-1.547L24.312,54.756z M26.383,61.045  c0.227,0.465,0.465,0.918,0.713,1.367l-1.354,0.781c-0.273-0.488-0.533-0.984-0.771-1.486L26.383,61.045z M25.512,59.012  c0.182,0.48,0.377,0.955,0.588,1.424l-1.416,0.658c-0.229-0.506-0.441-1.023-0.641-1.547L25.512,59.012z M34.395,70.627  l-0.297,0.428c-0.432-0.311-0.85-0.635-1.258-0.971l0.334-0.4C33.57,70.012,33.979,70.324,34.395,70.627z M44.49,75.004  l-0.094,0.514c-0.523-0.1-1.037-0.219-1.549-0.348l0.135-0.504C43.48,74.793,43.98,74.904,44.49,75.004z M47.354,24.613  l-0.047-0.516c0.525-0.041,1.055-0.066,1.59-0.074v0.52C48.377,24.551,47.863,24.573,47.354,24.613z M46.686,75.328l-0.047,0.52  c-0.531-0.053-1.055-0.125-1.576-0.213l0.092-0.514C45.658,75.207,46.168,75.273,46.686,75.328z M42.33,74.49l-0.135,0.504  c-0.512-0.146-1.016-0.307-1.514-0.482l0.178-0.49C41.344,74.191,41.832,74.35,42.33,74.49z M45.057,24.37  c0.52-0.087,1.049-0.16,1.576-0.216l0.047,0.52c-0.518,0.054-1.025,0.124-1.533,0.207L45.057,24.37z M35.982,72.301  c-0.453-0.273-0.898-0.559-1.336-0.857l0.301-0.428c0.422,0.291,0.855,0.566,1.295,0.832L35.982,72.301z M38.803,73.195  c0.467,0.211,0.939,0.408,1.424,0.592l-0.18,0.492c-0.496-0.191-0.982-0.396-1.467-0.613L38.803,73.195z M38.191,72.908  l-0.221,0.469c-0.479-0.23-0.945-0.477-1.406-0.738l0.262-0.449C37.273,72.439,37.727,72.682,38.191,72.908z M23.684,54.18  c-0.086-0.518-0.154-1.041-0.207-1.57l0.518-0.045c0.053,0.513,0.121,1.021,0.201,1.525L23.684,54.18z M29.598,33.1  c0.346-0.404,0.701-0.793,1.07-1.173l0.365,0.369c-0.354,0.368-0.701,0.748-1.035,1.138L29.598,33.1z M38.789,26.82l-0.658-1.414  c0.51-0.234,1.025-0.451,1.553-0.651l0.531,1.466C39.734,26.408,39.256,26.607,38.789,26.82z M36.814,27.827l-0.779-1.351  c0.486-0.274,0.982-0.536,1.488-0.782l0.658,1.414C37.719,27.334,37.262,27.574,36.814,27.827z M31.143,31.448  c0.381-0.372,0.77-0.729,1.17-1.075l0.336,0.398c-0.391,0.336-0.771,0.686-1.135,1.046L31.143,31.448z M32.824,29.936  c0.41-0.334,0.83-0.659,1.258-0.97l0.299,0.427c-0.416,0.302-0.824,0.616-1.223,0.942L32.824,29.936z M40.314,24.521  c0.527-0.186,1.062-0.356,1.604-0.51l0.406,1.508c-0.498,0.141-0.99,0.299-1.475,0.47L40.314,24.521z M24.818,56.912  c0.141,0.494,0.295,0.982,0.463,1.463l-1.467,0.537c-0.166-0.479-0.322-0.961-0.463-1.453l0.998-0.287  c-0.012-0.041-0.023-0.084-0.033-0.129L24.818,56.912z M73.828,56.986l0.27,0.072l0.008-0.031l1.238,0.332  c-0.137,0.479-0.285,0.959-0.447,1.434l-0.984-0.336c-0.018,0.053-0.037,0.105-0.057,0.16l-0.49-0.182  C73.533,57.959,73.688,57.477,73.828,56.986z M34.633,28.576c0.389-0.267,0.785-0.524,1.188-0.77l-0.541-0.887  c0.057-0.036,0.115-0.069,0.172-0.103l0.781,1.349c-0.441,0.266-0.875,0.546-1.299,0.837L34.633,28.576z M28.625,35.175  l-0.424-0.297c0.311-0.431,0.631-0.851,0.963-1.261l0.4,0.335C29.24,34.351,28.926,34.758,28.625,35.175z M23.684,45.855  l0.512,0.089c-0.08,0.505-0.146,1.012-0.197,1.524l-0.52-0.043C23.529,46.897,23.6,46.373,23.684,45.855z M24.641,43.777  c-0.125,0.494-0.236,0.997-0.328,1.504l-0.516-0.09c0.1-0.522,0.211-1.04,0.34-1.55L24.641,43.777z M23.873,49.68H23.35  c0.008-0.523,0.029-1.05,0.068-1.582l0.52,0.045C23.902,48.659,23.879,49.17,23.873,49.68z M24.812,43.124l-0.5-0.134  c0.141-0.511,0.297-1.016,0.473-1.514l0.486,0.177C25.105,42.137,24.951,42.628,24.812,43.124z M23.35,50.355h0.523  c0.004,0.516,0.025,1.027,0.062,1.538l-0.52,0.047C23.379,51.414,23.355,50.885,23.35,50.355z M28.24,35.729  c-0.287,0.423-0.561,0.858-0.824,1.301l-0.453-0.261c0.273-0.457,0.557-0.902,0.855-1.339L28.24,35.729z M25.5,41.019l-0.488-0.178  c0.186-0.496,0.389-0.984,0.604-1.465l0.475,0.22C25.877,40.063,25.684,40.538,25.5,41.019z M26.369,38.984l-0.473-0.221  c0.23-0.478,0.475-0.947,0.73-1.408l0.451,0.261C26.83,38.064,26.594,38.519,26.369,38.984z M61.957,72.719  c-0.465,0.26-0.938,0.504-1.418,0.734l-0.221-0.473c0.467-0.226,0.926-0.461,1.377-0.711L61.957,72.719z M71.189,63.078l0.453,0.262  c-0.275,0.459-0.562,0.906-0.863,1.346l-0.428-0.299C70.645,63.961,70.922,63.523,71.189,63.078z M72.25,61.117l0.475,0.221  c-0.236,0.48-0.482,0.953-0.744,1.418l-0.449-0.26C71.781,62.045,72.025,61.586,72.25,61.117z M71.195,36.947  c-0.266-0.446-0.547-0.883-0.84-1.312l0.43-0.301c0.301,0.44,0.588,0.89,0.863,1.35L71.195,36.947z M73.135,59.072l0.488,0.176  c-0.189,0.5-0.396,0.994-0.615,1.479l-0.473-0.221C72.752,60.035,72.951,59.557,73.135,59.072z M60.326,27.028l0.219-0.473  c0.48,0.23,0.953,0.475,1.418,0.734l-0.258,0.453C61.252,27.489,60.791,27.252,60.326,27.028z M72.256,38.908  c-0.229-0.467-0.469-0.926-0.723-1.378l0.451-0.26c0.262,0.464,0.508,0.938,0.742,1.418L72.256,38.908z M75.523,43.32  c0.141,0.544,0.26,1.096,0.367,1.653l-1.539,0.271c-0.098-0.512-0.205-1.02-0.336-1.522L75.523,43.32z M73.84,43.074  c-0.139-0.501-0.299-0.998-0.469-1.485l1.465-0.535c0.188,0.533,0.357,1.071,0.514,1.614L73.84,43.074z M76.285,52.041l-1.283-0.111  l0.002-0.018l-0.275-0.023c0.037-0.506,0.059-1.008,0.066-1.508h0.275v-0.027h1.287C76.352,50.914,76.328,51.479,76.285,52.041z   M48.9,75.986c-0.51-0.01-1.023-0.033-1.541-0.072c-0.018,0-0.031-0.004-0.047-0.006l0.045-0.52  c0.014,0.004,0.029,0.004,0.041,0.006c0.504,0.037,1.004,0.059,1.502,0.067V75.986z M44.008,24.562  c0.129-0.026,0.258-0.047,0.385-0.072l0.09,0.511c-0.506,0.099-1.012,0.21-1.51,0.338l-0.402-1.507  c0.404-0.104,0.814-0.201,1.227-0.287L44.008,24.562z M63.602,28.906c-0.43-0.289-0.865-0.565-1.312-0.831l0.26-0.451  c0.279,0.166,0.555,0.333,0.826,0.507l0.559-0.871c0.189,0.121,0.377,0.244,0.562,0.371L63.602,28.906z M74.738,54.168l0.002-0.016  l-0.277-0.049c0.082-0.494,0.148-0.99,0.199-1.496l0.277,0.024l0.006-0.028l1.279,0.108c-0.057,0.562-0.129,1.121-0.221,1.679  L74.738,54.168z M51.121,75.406l0.043,0.52c-0.523,0.037-1.055,0.061-1.588,0.064v-0.523C50.096,75.463,50.609,75.443,51.121,75.406  z M76.008,45.636c0.092,0.555,0.164,1.115,0.223,1.678L74.67,47.45c-0.053-0.519-0.117-1.031-0.201-1.542L76.008,45.636z   M76.299,48.094l-1.043,0.075c0.037,0.499,0.055,1,0.061,1.506h-0.244V49.66h-0.275c-0.01-0.516-0.029-1.028-0.068-1.537  l1.562-0.137C76.291,48.022,76.293,48.059,76.299,48.094z M69.967,35.084c-0.303-0.42-0.619-0.83-0.949-1.231l1.203-1.008  c0.16,0.196,0.32,0.396,0.477,0.597l-0.826,0.64c0.18,0.231,0.354,0.466,0.525,0.703L69.967,35.084z M74.283,56.359l-0.27-0.07  c0.123-0.488,0.229-0.977,0.326-1.475l0.275,0.049l0.006-0.031l1.266,0.223c-0.105,0.553-0.229,1.105-0.367,1.652l-1.24-0.332  L74.283,56.359z M55.643,75.219c-0.516,0.127-1.033,0.24-1.559,0.338l-0.09-0.514c0.508-0.096,1.014-0.205,1.51-0.328L55.643,75.219  z M51.789,24.659l0.047-0.519c0.529,0.052,1.061,0.12,1.58,0.202l-0.09,0.512C52.82,24.774,52.309,24.708,51.789,24.659z   M53.418,75.672c-0.52,0.082-1.051,0.15-1.58,0.201l-0.045-0.523c0.518-0.049,1.027-0.113,1.533-0.192L53.418,75.672z M57.816,74.57  c-0.502,0.176-1.008,0.332-1.523,0.477l-0.135-0.506c0.5-0.139,0.994-0.291,1.48-0.461L57.816,74.57z M59.928,73.736  c-0.486,0.215-0.979,0.42-1.479,0.604l-0.176-0.489c0.482-0.183,0.963-0.377,1.434-0.588L59.928,73.736z M58.455,25.664  c0.5,0.188,0.99,0.39,1.479,0.607l-0.221,0.475c-0.471-0.211-0.949-0.408-1.438-0.59L58.455,25.664z M56.16,25.466l0.135-0.504  c0.516,0.144,1.023,0.302,1.525,0.474l-0.18,0.491C57.154,25.759,56.66,25.605,56.16,25.466z M53.99,24.969l0.092-0.513  c0.527,0.098,1.045,0.21,1.561,0.337l-0.137,0.502C55.008,25.171,54.502,25.062,53.99,24.969z M67.055,31.718  c-0.373-0.361-0.756-0.71-1.146-1.048l1.004-1.199c0.426,0.366,0.844,0.745,1.25,1.139L67.055,31.718z M67.412,68.666  c-0.381,0.371-0.775,0.73-1.182,1.076l-0.336-0.4c0.393-0.336,0.775-0.684,1.146-1.043L67.412,68.666z M68.977,67.018  c-0.352,0.404-0.711,0.793-1.086,1.174l-0.367-0.366c0.361-0.371,0.713-0.75,1.051-1.144L68.977,67.018z M65.713,70.174  c-0.414,0.336-0.836,0.658-1.27,0.971l-0.299-0.428c0.418-0.301,0.832-0.617,1.23-0.941L65.713,70.174z M69.961,64.938l0.428,0.299  c-0.312,0.433-0.641,0.854-0.979,1.267l-0.398-0.334C69.34,65.768,69.656,65.359,69.961,64.938z M73.141,40.955  c-0.186-0.485-0.387-0.962-0.6-1.436l0.471-0.221c0.049,0.106,0.1,0.21,0.145,0.316l0.951-0.414  c0.176,0.402,0.342,0.809,0.498,1.221L73.141,40.955z M65.389,30.236c-0.4-0.325-0.812-0.64-1.234-0.942l0.895-1.277  c0.459,0.327,0.908,0.668,1.346,1.023L65.389,30.236z M68.584,33.337c-0.34-0.39-0.689-0.774-1.053-1.146l1.107-1.106  c0.396,0.401,0.775,0.816,1.146,1.244L68.584,33.337z M63.891,71.527c-0.441,0.299-0.891,0.584-1.35,0.854l-0.262-0.448  c0.445-0.265,0.883-0.541,1.312-0.832L63.891,71.527z M64.578,69.301c0.832-0.664,1.629-1.389,2.389-2.172  c9.451-9.789,9.182-25.388-0.607-34.84l-0.637,0.659c-2.469-2.381-5.447-4.229-8.76-5.367l0.299-0.866  c-9.293-3.201-19.191-0.519-25.643,6.064l0.684,0.667c-1.471,1.506-2.752,3.195-3.779,5.046l0.811,0.451  c0.938-1.682,2.08-3.232,3.395-4.619l0.383,0.104l0.754,0.202l0.303,0.306c0.314-0.316,0.648-0.62,0.982-0.916  c3.75-3.323,8.691-5.342,14.105-5.342v1.888h-0.25v1.761h0.473v-1.73c0.41,0.003,0.816,0.02,1.219,0.05l-0.148,1.726l0.473,0.041  l0.146-1.726c0.41,0.038,0.812,0.09,1.211,0.156l-0.301,1.709l0.469,0.083l0.301-1.71c0.4,0.074,0.799,0.163,1.191,0.262  l-0.451,1.679l0.459,0.123l0.451-1.68c0.393,0.11,0.779,0.231,1.164,0.365l-0.596,1.636l0.445,0.163l0.596-1.636  c0.381,0.145,0.758,0.299,1.129,0.465L56.5,33.882l0.43,0.2l0.734-1.58c0.367,0.178,0.729,0.366,1.082,0.564l-0.867,1.508  l0.408,0.238l0.871-1.508c0.35,0.21,0.693,0.427,1.027,0.655l-0.998,1.428l0.391,0.272l0.998-1.429  c0.328,0.238,0.652,0.487,0.967,0.743l-1.119,1.333l0.365,0.306l1.117-1.336c0.092,0.081,0.186,0.162,0.273,0.242l2.199-2.467  c0.18,0.159,0.355,0.321,0.527,0.485l-0.088,0.333l-0.205,0.764l0.762-0.203l0.336-0.089c3.762,3.95,6.115,9.256,6.256,15.109  l-0.277,0.16l-0.684,0.395l0.684,0.396l0.277,0.16c-0.066,2.783-0.637,5.445-1.617,7.894l-3.07-1.228  c-0.102,0.258-0.211,0.515-0.326,0.771l-1.586-0.742l-0.203,0.431l1.588,0.739c-0.176,0.369-0.365,0.729-0.566,1.084l-1.512-0.873  l-0.238,0.41l1.514,0.873c-0.209,0.351-0.426,0.69-0.658,1.026l-1.43-1l-0.27,0.39l1.43,1c-0.238,0.332-0.486,0.656-0.744,0.967  l-1.336-1.12l-0.305,0.364l1.336,1.119c-0.266,0.312-0.543,0.606-0.824,0.897l-1.236-1.229l-0.334,0.334l1.232,1.233  c-0.289,0.283-0.59,0.562-0.898,0.822l-1.119-1.334l-0.367,0.305l1.123,1.337c-0.314,0.256-0.637,0.504-0.971,0.743l-0.996-1.43  l-0.389,0.273l1,1.426c-0.336,0.23-0.682,0.449-1.031,0.656l-0.871-1.508l-0.41,0.235l0.871,1.511  c-0.354,0.198-0.715,0.389-1.08,0.562l-0.738-1.58l-0.428,0.201l0.734,1.58c-0.369,0.166-0.744,0.321-1.129,0.469l-0.594-1.642  l-0.445,0.162l0.596,1.642c-0.385,0.133-0.771,0.254-1.164,0.365l-0.451-1.688l-0.459,0.125l0.451,1.682  c-0.393,0.103-0.789,0.188-1.191,0.265l-0.301-1.713l-0.469,0.082l0.305,1.715c-0.402,0.062-0.805,0.114-1.211,0.155l-0.152-1.729  l-0.473,0.041l0.152,1.729c-0.404,0.029-0.811,0.047-1.221,0.053V67.68h-0.473v1.764h0.248v1.888c-2.445,0-4.797-0.408-6.984-1.166  l-0.479,1.375c-3.104-1.072-5.9-2.801-8.23-5.019l0.104-0.383l0.203-0.764l-0.764,0.203l-0.385,0.104  c-1.855-1.957-3.369-4.246-4.441-6.766l-0.723,0.305c-2.199-5.174-2.566-11.145-0.592-16.877l-1.021-0.352  c-4.432,12.865,2.408,26.889,15.273,31.318l0.311-0.896c2.424,0.836,5.021,1.305,7.729,1.305c5.576,0,10.695-1.928,14.744-5.146  L64.578,69.301z M33.266,34.277l-0.342-0.091l0.25-0.251l0.248-0.249l0.096,0.341l0.088,0.342L33.266,34.277z M49.643,27.56  l-0.396,0.687L48.85,27.56l-0.395-0.687h0.791h0.791L49.643,27.56z M65.219,34.277l-0.342,0.092l0.092-0.341l0.096-0.342l0.248,0.25  l0.248,0.251L65.219,34.277z M71.688,50.182l-0.309-0.174l0.309-0.178l0.283-0.162l0.002,0.338c0,0.115,0,0.229-0.004,0.342  L71.688,50.182z M65.375,65.584l0.766,0.203l-0.559,0.559l-0.561,0.562l-0.205-0.766l-0.205-0.765L65.375,65.584z M33.422,66.326  l-0.25-0.25l-0.248-0.25l0.342-0.094l0.34-0.092l-0.09,0.344L33.422,66.326z M49.24,73.139h-0.793l0.396-0.688l0.396-0.686  l0.396,0.686l0.396,0.688H49.24z M16.918,34.691l-1.48-0.702C21.436,21.35,34.32,12.612,49.242,12.612v1.64  C34.973,14.252,22.658,22.609,16.918,34.691z M49.24,85.773v1.639c-20.656,0-37.402-16.744-37.402-37.4h1.643  C13.48,69.764,29.49,85.773,49.24,85.773z M83.137,65.82c-0.699,1.5-1.488,2.932-2.354,4.293L79.4,69.23  c0.828-1.299,1.578-2.668,2.248-4.105c8.348-17.9,0.604-39.175-17.297-47.522l0.695-1.486C83.768,24.846,91.865,47.099,83.137,65.82  z M38.291,33.953l1.012,1.439l-0.391,0.274l-1.01-1.442L38.291,33.953z M36.934,65.045l-0.363-0.303l1.131-1.35l0.365,0.305  L36.934,65.045z M38.291,66.062l-0.389-0.271l1.01-1.443l0.391,0.273L38.291,66.062z M34.512,62.68l-0.309-0.363l1.352-1.129  l0.305,0.361L34.512,62.68z M35.67,63.916l-0.336-0.336l1.244-1.244l0.338,0.334L35.67,63.916z M33.461,61.348l-0.271-0.391  l1.439-1.008l0.273,0.389L33.461,61.348z M33.461,38.667l1.441,1.009l-0.273,0.388l-1.439-1.01L33.461,38.667z M34.512,37.334  l1.348,1.133l-0.305,0.36l-1.352-1.128L34.512,37.334z M35.67,36.099l1.246,1.245l-0.338,0.335l-1.244-1.247L35.67,36.099z   M49.42,72.451l0.178,0.305h-0.355h-0.352l0.178-0.305l0.174-0.309L49.42,72.451z M36.934,34.969l1.133,1.348l-0.229,0.199  l-0.135,0.107l-0.902-1.075l-0.229-0.274L36.934,34.969z M32.531,59.93l-0.238-0.41l1.525-0.881l0.236,0.41L32.531,59.93z   M26.111,49.211v0.793v0.793l0.686-0.398l0.689-0.395l-0.689-0.396L26.111,49.211z M27.107,50.006l-0.307,0.176l-0.307,0.178v-0.354  v-0.354l0.307,0.176L27.107,50.006z M32.531,40.084l1.523,0.881l-0.234,0.411l-1.525-0.88L32.531,40.084z M49.244,27.255H49.6  l-0.18,0.308l-0.176,0.307l-0.178-0.307l-0.178-0.308H49.244z M64.973,65.984l-0.092-0.344l0.342,0.092l0.34,0.094l-0.25,0.25  l-0.248,0.25L64.973,65.984z M30.146,53.615l-0.082-0.467l1.732-0.308l0.082,0.47L30.146,53.615z M31.615,51.311l0.043,0.474  l-1.754,0.153l-0.041-0.473L31.615,51.311z M31.064,56.875l-0.162-0.445l1.654-0.602l0.16,0.445L31.064,56.875z M31.73,58.434  l-0.199-0.428l1.596-0.746l0.201,0.43L31.73,58.434z M30.531,55.266l-0.121-0.459l1.701-0.457l0.121,0.461L30.531,55.266z   M30.531,44.749l1.701,0.455l-0.121,0.458l-1.701-0.456L30.531,44.749z M68.682,50.238l-1.76,0.002v-0.473h1.76V50.238z   M68.342,46.395l0.084,0.468l-1.734,0.305l-0.08-0.466L68.342,46.395z M68.586,48.075l0.041,0.473L66.873,48.7l-0.043-0.473  L68.586,48.075z M68.586,51.934L66.83,51.78l0.043-0.47l1.754,0.148L68.586,51.934z M67.957,55.266l-1.701-0.455l0.123-0.461  l1.701,0.457L67.957,55.266z M65.936,55.828l1.654,0.602l-0.162,0.445l-1.654-0.602L65.936,55.828z M68.344,53.613l-1.732-0.307  l0.08-0.468l1.736,0.308L68.344,53.613z M67.428,43.132l0.162,0.447l-1.654,0.603l-0.164-0.447L67.428,43.132z M63.98,37.328  l0.307,0.363l-1.352,1.132l-0.305-0.362L63.98,37.328z M65.029,38.661l0.273,0.388l-1.443,1.01l-0.273-0.387L65.029,38.661z   M62.82,36.092l0.336,0.334l-1.246,1.247l-0.336-0.337L62.82,36.092z M67.957,44.743l0.123,0.459l-1.703,0.457l-0.123-0.458  L67.957,44.743z M31.73,41.579l1.598,0.744l-0.199,0.431l-1.598-0.745L31.73,41.579z M47.314,69.348l0.154-1.754l0.473,0.041  l-0.154,1.754L47.314,69.348z M66.76,41.574l0.197,0.43l-1.594,0.744l-0.201-0.428L66.76,41.574z M65.957,40.08l0.238,0.412  l-1.525,0.88l-0.238-0.411L65.957,40.08z M40.818,67.52l0.742-1.596l0.43,0.201l-0.744,1.596L40.818,67.52z M40.201,34.821  l-0.881-1.525l0.412-0.237l0.879,1.524L40.201,34.821z M47.939,32.382l-0.475,0.042l-0.15-1.754l0.471-0.042L47.939,32.382z   M39.32,66.717l0.881-1.521l0.41,0.236l-0.879,1.525L39.32,66.717z M29.904,48.076l1.754,0.155l-0.043,0.472l-1.752-0.154  L29.904,48.076z M31.064,43.137l1.652,0.602l-0.16,0.447l-1.654-0.604L31.064,43.137z M30.146,46.4l1.732,0.304l-0.082,0.467  l-1.732-0.305L30.146,46.4z M29.811,49.77h1.762v0.475h-1.762V49.77z M46.406,32.563l-0.467,0.082l-0.305-1.734l0.469-0.081  L46.406,32.563z M41.99,33.891l-0.432,0.201l-0.742-1.597l0.428-0.199L41.99,33.891z M43.986,68.719l0.453-1.705l0.461,0.125  l-0.457,1.701L43.986,68.719z M45.637,69.105l0.307-1.734l0.467,0.082l-0.305,1.734L45.637,69.105z M42.375,68.186l0.602-1.651  l0.445,0.161l-0.604,1.656L42.375,68.186z M44.9,32.875l-0.461,0.122l-0.455-1.698l0.459-0.125L44.9,32.875z M43.422,33.319  l-0.445,0.163l-0.602-1.653l0.443-0.163L43.422,33.319z M34.213,58.002c0.109-0.049,0.232-0.07,0.363-0.057  c0.209,0.024,0.387,0.145,0.488,0.309c2.385,4.104,6.516,7.121,11.514,7.934l0.033,0.008c0.359,0.041,0.639,0.357,0.617,0.718  c3.83,0.451,7.834-0.392,11.309-2.672c7.84-5.146,10.023-15.673,4.877-23.515c-0.256-0.39-0.523-0.762-0.805-1.122  c-0.098,0.069-0.219,0.112-0.346,0.118c-0.213,0.012-0.41-0.073-0.541-0.218c-3.059-3.627-7.652-5.883-12.713-5.815h-0.033  c-0.361,0.02-0.693-0.244-0.734-0.601c-2.881,0.164-5.76,1.063-8.346,2.761C32.5,40.704,30.141,50.344,34.213,58.002z   M60.688,39.469c0.232,0.252,0.459,0.513,0.674,0.782l-0.604,0.475c-0.201-0.252-0.41-0.496-0.629-0.731L60.688,39.469z   M60.463,39.228l-0.559,0.525c-0.225-0.232-0.457-0.457-0.691-0.673l0.512-0.572C59.977,38.739,60.223,38.98,60.463,39.228z   M59.477,38.289l-0.508,0.571c-0.244-0.212-0.492-0.416-0.746-0.61l0.455-0.615C58.949,37.844,59.219,38.062,59.477,38.289z   M58.414,37.438l-0.459,0.614c-0.26-0.19-0.525-0.372-0.799-0.542l0.404-0.652C57.848,37.042,58.135,37.236,58.414,37.438z   M57.279,36.686l-0.404,0.651c-0.273-0.166-0.557-0.322-0.842-0.47l0.344-0.686C56.686,36.34,56.984,36.506,57.279,36.686z   M55.145,35.612c0.316,0.13,0.631,0.271,0.938,0.423l-0.344,0.684c-0.287-0.14-0.584-0.273-0.881-0.395L55.145,35.612z   M53.863,35.152c0.328,0.1,0.652,0.213,0.975,0.338l-0.283,0.712c-0.303-0.115-0.605-0.221-0.91-0.317L53.863,35.152z   M52.545,34.804c0.336,0.073,0.67,0.157,1,0.253l-0.219,0.734c-0.309-0.089-0.623-0.167-0.934-0.237L52.545,34.804z M51.205,34.573  c0.342,0.043,0.682,0.099,1.018,0.164l-0.154,0.751c-0.316-0.062-0.635-0.113-0.953-0.155L51.205,34.573z M49.85,34.457  c0.346,0.013,0.686,0.038,1.027,0.076l-0.092,0.761c-0.316-0.034-0.639-0.057-0.961-0.072L49.85,34.457z M49.521,34.446  l-0.025,0.767c-0.32-0.006-0.643-0.002-0.963,0.012l-0.045-0.765C48.834,34.442,49.178,34.438,49.521,34.446z M60.535,42.613  c1.346,2.047,2.062,4.324,2.199,6.606l0.762-0.043c0.246,4.059-1.25,8.131-4.248,11.07l0.371,0.377  c4.955-4.859,5.951-12.698,1.998-18.719c-0.205-0.316-0.428-0.624-0.654-0.92l0.604-0.475c0.24,0.314,0.473,0.638,0.691,0.974  c1.617,2.465,2.447,5.219,2.551,7.963c0.197,5.279-2.291,10.529-7.031,13.643c-0.26,0.17-0.521,0.334-0.787,0.484l-1.854-0.062  c-3.721,1.644-7.875,1.628-11.492,0.146l-0.936-1.732c-1.887-1.028-3.553-2.524-4.812-4.444c-1.926-2.937-2.564-6.342-2.057-9.554  l-0.715-0.113c0.516-3.26,2.141-6.175,4.498-8.322l0.484,0.533c0.514-0.468,1.076-0.903,1.676-1.298  C48.037,34.621,56.432,36.361,60.535,42.613z M40.818,37.25l-0.162-0.247c2.326-1.527,4.91-2.352,7.502-2.525l0.047,0.767  c-2.463,0.166-4.918,0.949-7.129,2.399l-0.189-0.288c-4.088,2.693-6.771,7.29-6.846,12.453l0.209,0.002  c-0.006,0.361,0.002,0.725,0.025,1.091c0.225,3.974,1.986,7.498,4.67,10.029l-0.391,0.414c2.998,2.83,7.109,4.465,11.553,4.211  c1.934-0.108,3.768-0.567,5.438-1.315c0.076-0.033,0.129,0.079,0.053,0.114c-1.686,0.756-3.535,1.218-5.482,1.328  c-4.479,0.258-8.625-1.393-11.646-4.244l-0.107,0.111c-2.836-2.676-4.695-6.4-4.936-10.602c-0.021-0.385-0.031-0.77-0.025-1.152  l0.516,0.01C33.99,44.6,36.695,39.965,40.818,37.25z"></path></svg>