<svg fill="#00DCFF" xmlns:dc="http://purl.org/dc/elements/1.1/" xmlns:cc="http://creativecommons.org/ns#" xmlns:rdf="http://www.w3.org/1999/02/22-rdf-syntax-ns#" xmlns:svg="http://www.w3.org/2000/svg" xmlns="http://www.w3.org/2000/svg" xmlns:sodipodi="http://sodipodi.sourceforge.net/DTD/sodipodi-0.dtd" xmlns:inkscape="http://www.inkscape.org/namespaces/inkscape" version="1.1" x="0px" y="0px" viewBox="0 0 100 100"><g transform="translate(0,-952.36218)"><path style="font-size:medium;font-style:normal;font-variant:normal;font-weight:normal;font-stretch:normal;text-indent:0;text-align:start;text-decoration:none;line-height:normal;letter-spacing:normal;word-spacing:normal;text-transform:none;direction:ltr;block-progression:tb;writing-mode:lr-tb;text-anchor:start;baseline-shift:baseline;opacity:1;color:#000000;fill:#00DCFF;fill-opacity:1;stroke:none;stroke-width:2;marker:none;visibility:visible;display:inline;overflow:visible;enable-background:accumulate;font-family:Sans;-inkscape-font-specification:Sans" d="M 43.90625 7 A 1.0001 1.0001 0 0 0 43.0625 7.6875 L 39.78125 17.625 C 37.908577 18.21316 36.101158 18.95013 34.375 19.84375 L 24.96875 15.15625 A 1.0001 1.0001 0 0 0 23.8125 15.34375 L 22.40625 16.75 L 16.75 22.40625 L 15.34375 23.8125 A 1.0001 1.0001 0 0 0 15.15625 24.96875 L 19.84375 34.375 C 18.950132 36.10116 18.21316 37.90858 17.625 39.78125 L 7.6875 43.0625 A 1.0001 1.0001 0 0 0 7 44 L 7 46 L 7 54 L 7 56 A 1.0001 1.0001 0 0 0 7.6875 56.9375 L 17.625 60.21875 C 18.21316 62.09145 18.950132 63.8988 19.84375 65.625 L 15.15625 75.03125 A 1.0001 1.0001 0 0 0 15.34375 76.1875 L 16.75 77.59375 L 22.40625 83.25 L 23.8125 84.65625 A 1.0001 1.0001 0 0 0 24.96875 84.84375 L 34.375 80.15625 C 36.101158 81.04985 37.908577 81.7868 39.78125 82.375 L 43.0625 92.3125 A 1.0001 1.0001 0 0 0 44 93 L 46 93 L 54 93 L 56 93 A 1.0001 1.0001 0 0 0 56.9375 92.3125 L 60.25 82.375 C 62.113621 81.7866 63.909714 81.04555 65.625 80.15625 L 75.03125 84.84375 A 1.0001 1.0001 0 0 0 76.1875 84.65625 L 77.59375 83.25 L 83.25 77.59375 L 84.65625 76.1875 A 1.0001 1.0001 0 0 0 84.84375 75.03125 L 80.15625 65.625 C 81.045508 63.9097 81.786662 62.1136 82.375 60.25 L 92.3125 56.9375 A 1.0001 1.0001 0 0 0 93 56 L 93 54 L 93 46 L 93 44 A 1.0001 1.0001 0 0 0 92.3125 43.0625 L 82.375 39.78125 C 81.78684 37.90858 81.049868 36.10116 80.15625 34.375 L 84.84375 24.96875 A 1.0001 1.0001 0 0 0 84.65625 23.8125 L 83.25 22.40625 L 77.59375 16.75 L 76.1875 15.34375 A 1.0001 1.0001 0 0 0 75.03125 15.15625 L 65.625 19.84375 C 63.898842 18.95013 62.091423 18.21316 60.21875 17.625 L 56.9375 7.6875 A 1.0001 1.0001 0 0 0 56 7 L 54 7 L 46 7 L 44 7 A 1.0001 1.0001 0 0 0 43.90625 7 z M 44.71875 9 L 46 9 L 54 9 L 55.28125 9 L 58.5 18.6875 A 1.0001 1.0001 0 0 0 59.15625 19.34375 C 61.284131 19.97812 63.314652 20.78131 65.21875 21.8125 A 1.0001 1.0001 0 0 0 66.125 21.84375 L 75.25 17.28125 L 76.15625 18.1875 L 81.8125 23.84375 L 82.71875 24.75 L 78.15625 33.875 A 1.0001 1.0001 0 0 0 78.1875 34.78125 C 79.218687 36.68535 80.021884 38.71587 80.65625 40.84375 A 1.0001 1.0001 0 0 0 81.3125 41.5 L 91 44.71875 L 91 46 L 91 54 L 91 55.28125 L 81.3125 58.53125 A 1.0001 1.0001 0 0 0 80.65625 59.1875 C 80.023527 61.3027 79.215353 63.32085 78.1875 65.21875 A 1.0001 1.0001 0 0 0 78.15625 66.125 L 82.71875 75.25 L 81.8125 76.15625 L 76.15625 81.8125 L 75.25 82.71875 L 66.125 78.15625 A 1.0001 1.0001 0 0 0 65.21875 78.1875 C 63.320808 79.2153 61.302754 80.02355 59.1875 80.65625 A 1.0001 1.0001 0 0 0 58.53125 81.3125 L 55.28125 91 L 54 91 L 46 91 L 44.71875 91 L 41.5 81.3125 A 1.0001 1.0001 0 0 0 40.84375 80.65625 C 38.715869 80.02195 36.685348 79.2187 34.78125 78.1875 A 1.0001 1.0001 0 0 0 33.875 78.15625 L 24.75 82.71875 L 23.84375 81.8125 L 18.1875 76.15625 L 17.28125 75.25 L 21.84375 66.125 A 1.0001 1.0001 0 0 0 21.8125 65.21875 C 20.781313 63.31465 19.978116 61.28415 19.34375 59.15625 A 1.0001 1.0001 0 0 0 18.6875 58.5 L 9 55.28125 L 9 54 L 9 46 L 9 44.71875 L 18.6875 41.5 A 1.0001 1.0001 0 0 0 19.34375 40.84375 C 19.978116 38.71587 20.781313 36.68535 21.8125 34.78125 A 1.0001 1.0001 0 0 0 21.84375 33.875 L 17.28125 24.75 L 18.1875 23.84375 L 23.84375 18.1875 L 24.75 17.28125 L 33.875 21.84375 A 1.0001 1.0001 0 0 0 34.78125 21.8125 C 36.685348 20.78131 38.715869 19.97812 40.84375 19.34375 A 1.0001 1.0001 0 0 0 41.5 18.6875 L 44.71875 9 z M 50 30 C 38.96615 30 30 38.96613 30 50 C 30 61.0338 38.96615 70 50 70 C 61.033851 70 70 61.0338 70 50 C 70 38.96613 61.033851 30 50 30 z M 50 32 C 59.95297 32 68 40.04701 68 50 C 68 59.9529 59.95297 68 50 68 C 40.047031 68 32 59.9529 32 50 C 32 40.04701 40.047031 32 50 32 z " transform="translate(0,952.36218)"></path></g></svg>