<svg fill="#0F131C" xmlns="http://www.w3.org/2000/svg" xmlns:xlink="http://www.w3.org/1999/xlink" version="1.1" x="0px" y="0px" viewBox="0 0 100 100" enable-background="new 0 0 100 100" xml:space="preserve"><polygon fill="#0F131C" points="85.889,66.227 85.889,63.502 83.855,68.014 "></polygon><polygon fill="#0F131C" points="86.849,63.423 88.028,59.804 86.849,61.425 "></polygon><polygon fill="#0F131C" points="80.763,74.454 81.401,72.091 78.695,75.659 "></polygon><polygon fill="#0F131C" points="89.179,53.758 89.411,50.46 88.8,52.061 "></polygon><polygon fill="#0F131C" points="77.938,71.144 81.942,69.548 80.997,65.649 "></polygon><polygon fill="#0F131C" points="82.483,71.765 84.233,68.96 82.932,70.103 "></polygon><polygon fill="#0F131C" points="88.73,49.554 89.601,47.276 88.641,45.098 "></polygon><polygon fill="#0F131C" points="85.439,45.55 87.493,42.741 85.036,40.044 "></polygon><polygon fill="#0F131C" points="86.016,33.737 85.336,32.312 85.502,33.086 "></polygon><polygon fill="#0F131C" points="85.372,48.288 84.628,54.521 87.672,51.93 "></polygon><polygon fill="#0F131C" points="88.625,41.818 88.597,42.614 88.898,43.3 "></polygon><polygon fill="#0F131C" points="87.813,37.577 86.345,35.71 87.729,39.972 "></polygon><polygon fill="#0F131C" points="88.909,56.963 88.315,54.3 87.296,59.18 "></polygon><polygon fill="#0F131C" points="87.661,44.138 85.637,46.908 87.785,50.312 "></polygon><polygon fill="#0F131C" points="85.287,35.56 84.957,38.531 86.97,40.739 "></polygon><polygon fill="#0F131C" points="55.561,88.252 57.897,86.871 52.967,87.414 "></polygon><polygon fill="#0F131C" points="52.157,86.537 58.611,85.827 55.294,83.801 "></polygon><polygon fill="#0F131C" points="58.691,87.519 61.889,86.726 60.184,86.637 "></polygon><polygon fill="#0F131C" points="46.099,83.8 42.767,85.828 49.225,86.538 "></polygon><polygon fill="#0F131C" points="48.813,88.295 52.57,88.295 50.688,87.687 "></polygon><polygon fill="#0F131C" points="64.972,85.923 66.763,84.321 62.532,85.798 "></polygon><polygon fill="#0F131C" points="77.343,72.413 77.343,75.854 81.082,70.922 "></polygon><polygon fill="#0F131C" points="45.831,88.252 48.413,87.414 43.486,86.872 "></polygon><polygon fill="#0F131C" points="76.383,76.891 76.383,73.399 72.816,77.622 "></polygon><polygon fill="#0F131C" points="73.637,81.237 74.967,79.251 71.335,81.885 "></polygon><polygon fill="#0F131C" points="76.748,78.316 77.867,77.251 77.2,77.641 "></polygon><polygon fill="#0F131C" points="61.538,85.128 67.367,83.093 64.105,82.038 "></polygon><polygon fill="#0F131C" points="68.514,84.042 69.924,83.278 69.111,83.507 "></polygon><polygon fill="#0F131C" points="71.866,78.796 70.394,81.381 74.781,78.198 "></polygon><polygon fill="#0F131C" points="65.341,81.429 68.651,82.499 70.45,79.34 "></polygon><polygon fill="#0F131C" points="50.688,10.63 48.474,11.438 52.912,11.438 "></polygon><polygon fill="#0F131C" points="35.835,15.732 30.196,18.966 34.348,19.341 "></polygon><polygon fill="#0F131C" points="29.521,17.267 26.425,19.518 28.341,18.897 "></polygon><polygon fill="#0F131C" points="24.06,21.291 22.972,23.793 26.659,20.45 "></polygon><polygon fill="#0F131C" points="31.937,15.563 30.333,17.782 34.649,15.308 "></polygon><polygon fill="#0F131C" points="40.936,11.91 39.028,13.45 43.321,12.153 "></polygon><polygon fill="#0F131C" points="44.528,12.791 38.604,14.581 42.504,15.574 "></polygon><polygon fill="#0F131C" points="37.959,13.078 34.898,14.318 36.624,14.155 "></polygon><polygon fill="#0F131C" points="26.098,25.771 22.098,26.09 21.831,30.369 "></polygon><polygon fill="#0F131C" points="46.44,11.157 44.94,11.354 45.693,11.431 "></polygon><polygon fill="#0F131C" points="16.021,48.282 13.704,51.931 16.767,54.526 "></polygon><polygon fill="#0F131C" points="13.59,50.319 15.756,46.908 13.714,44.132 "></polygon><polygon fill="#0F131C" points="16.342,40.04 13.883,42.739 15.951,45.552 "></polygon><polygon fill="#0F131C" points="20.167,32.547 16.856,33.63 17.246,37.255 "></polygon><polygon fill="#0F131C" points="21.956,23.723 19.828,26.248 21.262,25.319 "></polygon><polygon fill="#0F131C" points="17.815,28.696 17.31,31.052 19.863,27.369 "></polygon><polygon fill="#0F131C" points="84.133,37.258 84.536,33.63 81.223,32.546 "></polygon><polygon fill="#0F131C" points="67.027,19.341 71.179,18.966 65.54,15.732 "></polygon><polygon fill="#0F131C" points="74.95,19.518 71.854,17.267 73.034,18.897 "></polygon><polygon fill="#0F131C" points="79.559,30.368 79.279,26.09 75.279,25.771 "></polygon><polygon fill="#0F131C" points="78.403,23.793 77.315,21.291 74.716,20.45 "></polygon><polygon fill="#0F131C" points="87.543,53.301 84.586,55.819 86.213,59.667 "></polygon><polygon fill="#0F131C" points="81.566,26.257 79.412,23.707 80.113,25.319 "></polygon><polygon fill="#0F131C" points="84.086,31.061 83.578,28.696 81.513,27.363 "></polygon><polygon fill="#0F131C" points="56.449,11.354 54.953,11.16 55.699,11.431 "></polygon><polygon fill="#0F131C" points="53.404,12.399 47.982,12.399 50.688,13.624 "></polygon><polygon fill="#0F131C" points="62.774,14.579 56.859,12.79 58.873,15.573 "></polygon><polygon fill="#0F131C" points="39.491,86.725 42.688,87.517 41.193,86.637 "></polygon><polygon fill="#0F131C" points="66.488,14.319 63.414,13.071 64.752,14.155 "></polygon><polygon fill="#0F131C" points="69.438,15.563 66.726,15.308 71.042,17.782 "></polygon><polygon fill="#0F131C" points="60.457,11.91 58.069,12.153 62.359,13.451 "></polygon><polygon fill="#0F131C" points="34.499,34.134 40.943,29.448 34.499,27.355 "></polygon><polygon fill="#0F131C" points="51.167,49.002 57.633,46.893 51.167,42.187 "></polygon><polygon fill="#0F131C" points="51.167,40.539 58.184,37.767 51.167,33.645 "></polygon><polygon fill="#0F131C" points="43.166,29.241 50.208,32.095 50.208,25.812 "></polygon><polygon fill="#0F131C" points="58.718,21.192 58.259,16.759 52.147,18.738 "></polygon><polygon fill="#0F131C" points="51.167,24.357 57.888,21.908 51.167,19.398 "></polygon><polygon fill="#0F131C" points="51.167,32.095 58.209,29.241 51.167,25.812 "></polygon><polygon fill="#0F131C" points="58.896,28.509 58.806,22.595 51.914,25.107 "></polygon><polygon fill="#0F131C" points="46.699,55.97 54.693,55.97 50.688,50.479 "></polygon><polygon fill="#0F131C" points="42.586,37.019 49.605,32.887 42.479,29.999 "></polygon><polygon fill="#0F131C" points="43.504,21.908 50.208,24.357 50.208,19.399 "></polygon><polygon fill="#0F131C" points="45.029,55.769 42.513,48.034 37.666,53.886 "></polygon><polygon fill="#0F131C" points="42.481,28.507 49.462,25.107 42.586,22.595 "></polygon><polygon fill="#0F131C" points="50.208,18.046 50.208,14.764 44.452,16.183 "></polygon><polygon fill="#0F131C" points="43.862,15.339 49.227,14.016 45.914,12.517 "></polygon><polygon fill="#0F131C" points="42.674,21.192 49.229,18.739 43.118,16.759 "></polygon><polygon fill="#0F131C" points="51.676,41.37 58.253,46.157 58.747,38.576 "></polygon><polygon fill="#0F131C" points="73.21,41.815 67.762,36.186 67.246,43.773 "></polygon><polygon fill="#0F131C" points="60.491,22.075 66.791,25.802 66.294,20.467 "></polygon><polygon fill="#0F131C" points="66.876,34.134 66.876,27.355 60.432,29.448 "></polygon><polygon fill="#0F131C" points="65.211,53.46 71.906,51.387 66.977,45.505 "></polygon><polygon fill="#0F131C" points="72.363,19.822 68.038,20.214 73.334,24.054 "></polygon><polygon fill="#0F131C" points="73.896,31.815 73.634,25.787 68.381,26.958 "></polygon><polygon fill="#0F131C" points="67.784,26.107 72.942,24.958 67.295,20.862 "></polygon><polygon fill="#0F131C" points="58.807,37.019 58.898,29.999 51.771,32.887 "></polygon><polygon fill="#0F131C" points="55.478,12.517 52.151,14.017 57.519,15.34 "></polygon><polygon fill="#0F131C" points="51.167,18.046 56.923,16.183 51.167,14.764 "></polygon><polygon fill="#0F131C" points="59.694,21.299 65.331,19.737 59.24,16.911 "></polygon><polygon fill="#0F131C" points="35.604,44.253 42.176,46.382 41.701,38.86 "></polygon><polygon fill="#0F131C" points="56.361,55.769 63.71,53.887 58.862,48.035 "></polygon><polygon fill="#0F131C" points="64.277,15.188 60.102,16.252 65.807,18.897 "></polygon><polygon fill="#0F131C" points="65.772,44.253 59.689,38.859 59.2,46.382 "></polygon><polygon fill="#0F131C" points="17.709,54.323 20.93,49.441 16.914,47.667 "></polygon><polygon fill="#0F131C" points="23.016,58.644 18.172,56.546 20.328,63.186 "></polygon><polygon fill="#0F131C" points="23.642,59.473 20.906,64.095 26.566,66.2 "></polygon><polygon fill="#0F131C" points="41.698,21.299 42.139,16.909 36.045,19.735 "></polygon><polygon fill="#0F131C" points="26.754,67.295 21.253,65.249 24.522,71.119 "></polygon><polygon fill="#0F131C" points="16.936,45.249 20.491,40.354 17.354,39.34 "></polygon><polygon fill="#0F131C" points="19.352,63.285 17.327,57.05 15.612,61.071 "></polygon><polygon fill="#0F131C" points="36.403,85.923 38.843,85.798 34.612,84.321 "></polygon><polygon fill="#0F131C" points="36.034,81.429 30.925,79.34 32.724,82.499 "></polygon><polygon fill="#0F131C" points="31.472,83.284 32.849,84.03 32.264,83.507 "></polygon><polygon fill="#0F131C" points="37.27,82.038 34.008,83.093 39.837,85.128 "></polygon><polygon fill="#0F131C" points="20.789,39.44 20.789,33.366 17.65,38.426 "></polygon><polygon fill="#0F131C" points="24.992,73.399 24.992,76.891 28.559,77.622 "></polygon><polygon fill="#0F131C" points="23.527,77.263 24.618,78.298 24.176,77.642 "></polygon><polygon fill="#0F131C" points="26.594,78.198 30.981,81.381 29.509,78.796 "></polygon><polygon fill="#0F131C" points="27.756,81.237 30.034,81.88 26.427,79.264 "></polygon><polygon fill="#0F131C" points="19.65,64.576 16.066,62.454 18.731,68.366 "></polygon><polygon fill="#0F131C" points="28.041,24.054 33.337,20.214 29.012,19.822 "></polygon><polygon fill="#0F131C" points="28.165,41.815 34.129,43.773 33.613,36.186 "></polygon><polygon fill="#0F131C" points="33.591,26.107 34.08,20.862 28.433,24.958 "></polygon><polygon fill="#0F131C" points="29.469,51.387 36.164,53.46 34.398,45.505 "></polygon><polygon fill="#0F131C" points="21.132,48.48 20.846,41.5 17.076,46.688 "></polygon><polygon fill="#0F131C" points="34.584,25.804 40.9,22.075 35.081,20.466 "></polygon><polygon fill="#0F131C" points="16.418,38.53 16.1,35.569 14.413,40.731 "></polygon><polygon fill="#0F131C" points="35.568,18.897 41.273,16.252 37.098,15.188 "></polygon><polygon fill="#0F131C" points="18.104,55.469 23.031,57.604 21.423,50.438 "></polygon><polygon fill="#0F131C" points="27.479,31.815 32.994,26.958 27.741,25.787 "></polygon><polygon fill="#0F131C" points="20.81,31.327 21.058,27.331 17.545,32.395 "></polygon><polygon fill="#0F131C" points="21.749,38.722 26.097,33.224 21.749,32.277 "></polygon><polygon fill="#0F131C" points="26.898,24.744 27.828,20.688 23.01,25.054 "></polygon><polygon fill="#0F131C" points="26.495,32.33 26.751,26.479 22.192,31.393 "></polygon><polygon fill="#0F131C" points="16.063,32.282 15.356,33.761 15.892,33.083 "></polygon><polygon fill="#0F131C" points="73.547,20.688 74.477,24.744 78.365,25.054 "></polygon><polygon fill="#0F131C" points="11.964,50.46 12.196,53.758 12.575,52.061 "></polygon><polygon fill="#0F131C" points="13.06,54.3 12.466,56.963 14.079,59.18 "></polygon><polygon fill="#0F131C" points="14.526,63.423 14.526,61.425 13.347,59.804 "></polygon><polygon fill="#0F131C" points="13.831,53.295 15.163,59.675 16.807,55.819 "></polygon><polygon fill="#0F131C" points="15.046,35.701 13.562,37.579 13.646,39.985 "></polygon><polygon fill="#0F131C" points="12.734,45.098 11.774,47.276 12.645,49.554 "></polygon><polygon fill="#0F131C" points="12.75,41.818 12.477,43.3 12.778,42.614 "></polygon><polygon fill="#0F131C" points="15.486,63.502 15.486,66.227 17.52,68.014 "></polygon><polygon fill="#0F131C" points="20.612,74.454 22.68,75.659 19.974,72.091 "></polygon><polygon fill="#0F131C" points="17.142,68.96 18.892,71.765 18.443,70.103 "></polygon><polygon fill="#0F131C" points="20.378,65.649 19.433,69.548 23.437,71.144 "></polygon><polygon fill="#0F131C" points="69.529,59.979 71.996,52.363 65.355,54.42 "></polygon><polygon fill="#0F131C" points="61.435,62.591 68.883,60.718 64.675,55.112 "></polygon><polygon fill="#0F131C" points="72.412,50.497 73.505,42.728 67.542,44.685 "></polygon><polygon fill="#0F131C" points="73.321,50.924 78.938,48.997 74.405,43.217 "></polygon><polygon fill="#0F131C" points="79.075,49.964 73.508,51.874 77.434,57.278 "></polygon><polygon fill="#0F131C" points="79.616,40.768 74.892,42.279 79.309,47.913 "></polygon><polygon fill="#0F131C" points="59.496,47.296 64.307,53.102 66.067,45.167 "></polygon><polygon fill="#0F131C" points="74.593,41.366 79.317,39.855 74.856,34.236 "></polygon><polygon fill="#0F131C" points="40.892,62.332 44.952,56.741 37.644,54.871 "></polygon><polygon fill="#0F131C" points="49.758,63.661 45.729,57.305 41.671,62.896 "></polygon><polygon fill="#0F131C" points="60.5,62.331 63.732,54.872 56.441,56.74 "></polygon><polygon fill="#0F131C" points="39.958,62.591 36.702,55.11 32.492,60.718 "></polygon><polygon fill="#0F131C" points="51.619,63.661 59.724,62.896 55.663,57.304 "></polygon><polygon fill="#0F131C" points="37.071,69.218 44.794,70.583 40.758,64.151 "></polygon><polygon fill="#0F131C" points="51.465,49.914 55.471,55.407 57.929,47.805 "></polygon><polygon fill="#0F131C" points="28.235,66.768 35.275,68.783 31.62,61.925 "></polygon><polygon fill="#0F131C" points="54.676,71.725 46.717,71.725 50.688,77.196 "></polygon><polygon fill="#0F131C" points="45.767,72.051 42.216,76.734 49.675,77.436 "></polygon><polygon fill="#0F131C" points="36.216,70.395 33.296,74.417 40.192,76.324 "></polygon><polygon fill="#0F131C" points="44.918,71.579 37.257,70.225 41.337,76.306 "></polygon><polygon fill="#0F131C" points="36.295,68.654 39.981,63.586 32.607,61.735 "></polygon><polygon fill="#0F131C" points="35.439,69.83 28.57,67.863 32.519,73.852 "></polygon><polygon fill="#0F131C" points="72.903,52.677 70.446,60.259 76.892,58.166 "></polygon><polygon fill="#0F131C" points="35.308,45.167 37.068,53.102 41.879,47.296 "></polygon><polygon fill="#0F131C" points="69.756,61.922 66.1,68.784 73.157,66.768 "></polygon><polygon fill="#0F131C" points="72.82,67.862 65.936,69.83 68.856,73.852 "></polygon><polygon fill="#0F131C" points="76.806,59.204 70.467,61.264 73.837,66.065 "></polygon><polygon fill="#0F131C" points="65.159,70.395 61.183,76.324 68.079,74.417 "></polygon><polygon fill="#0F131C" points="55.625,72.051 51.702,77.436 59.161,76.734 "></polygon><polygon fill="#0F131C" points="64.117,70.226 56.474,71.579 60.04,76.305 "></polygon><polygon fill="#0F131C" points="50.688,63.337 54.764,56.931 46.629,56.931 "></polygon><polygon fill="#0F131C" points="77.735,59.476 74.826,66.2 80.47,64.095 "></polygon><polygon fill="#0F131C" points="83.22,56.544 78.359,58.645 81.049,63.187 "></polygon><polygon fill="#0F131C" points="84.063,57.052 82.027,63.282 85.763,61.071 "></polygon><polygon fill="#0F131C" points="82.644,68.366 85.309,62.454 81.725,64.576 "></polygon><polygon fill="#0F131C" points="75.407,73.067 69.652,74.945 71.584,77.594 "></polygon><polygon fill="#0F131C" points="73.91,67.955 70.034,73.812 76.15,71.816 "></polygon><polygon fill="#0F131C" points="80.121,65.25 74.638,67.295 76.854,71.116 "></polygon><polygon fill="#0F131C" points="84.022,39.34 80.902,40.354 84.454,45.243 "></polygon><polygon fill="#0F131C" points="78.343,57.604 83.289,55.469 79.953,50.436 "></polygon><polygon fill="#0F131C" points="84.318,46.688 80.545,41.496 80.244,48.481 "></polygon><polygon fill="#0F131C" points="79.646,38.724 79.646,32.277 75.28,33.224 "></polygon><polygon fill="#0F131C" points="68.876,75.51 65.324,80.399 70.808,78.157 "></polygon><polygon fill="#0F131C" points="80.322,27.333 80.583,31.327 83.845,32.394 "></polygon><polygon fill="#0F131C" points="80.604,39.439 83.727,38.426 80.604,33.372 "></polygon><polygon fill="#0F131C" points="83.685,54.328 84.48,47.666 80.446,49.441 "></polygon><polygon fill="#0F131C" points="67.679,75.522 60.935,77.389 63.905,80.718 "></polygon><polygon fill="#0F131C" points="26.519,34.237 22.074,39.855 26.782,41.366 "></polygon><polygon fill="#0F131C" points="30.91,61.264 24.571,59.206 27.554,66.065 "></polygon><polygon fill="#0F131C" points="28.472,52.677 24.483,58.166 30.929,60.259 "></polygon><polygon fill="#0F131C" points="27.867,51.874 22.3,49.964 23.941,57.278 "></polygon><polygon fill="#0F131C" points="22.07,47.909 26.484,42.278 21.776,40.768 "></polygon><polygon fill="#0F131C" points="22.438,48.997 28.054,50.924 26.97,43.217 "></polygon><polygon fill="#0F131C" points="33.833,44.685 27.87,42.728 28.963,50.497 "></polygon><polygon fill="#0F131C" points="58.986,77.716 51.668,78.403 55.225,82.458 "></polygon><polygon fill="#0F131C" points="49.71,78.403 42.391,77.716 46.168,82.458 "></polygon><polygon fill="#0F131C" points="31.846,59.979 36.02,54.42 29.379,52.363 "></polygon><polygon fill="#0F131C" points="40.44,77.389 33.696,75.522 37.47,80.718 "></polygon><polygon fill="#0F131C" points="31.723,74.945 25.968,73.067 29.791,77.594 "></polygon><polygon fill="#0F131C" points="31.344,73.813 27.481,67.954 25.227,71.816 "></polygon><polygon fill="#0F131C" points="32.499,75.51 30.567,78.157 36.051,80.399 "></polygon><polygon fill="#0F131C" points="33.539,27.756 27.912,32.711 33.539,34.428 "></polygon><polygon fill="#0F131C" points="74.88,32.33 79.199,31.393 74.624,26.476 "></polygon><polygon fill="#0F131C" points="45.797,70.376 49.821,64.633 41.712,63.864 "></polygon><polygon fill="#0F131C" points="66.196,26.565 59.768,22.763 59.857,28.624 "></polygon><polygon fill="#0F131C" points="49.911,49.914 43.448,47.806 45.922,55.406 "></polygon><polygon fill="#0F131C" points="66.328,34.921 59.855,30.215 59.764,37.176 "></polygon><polygon fill="#0F131C" points="50.208,49.002 50.208,42.187 43.742,46.893 "></polygon><polygon fill="#0F131C" points="35.068,43.445 41.183,38.037 34.547,35.764 "></polygon><polygon fill="#0F131C" points="43.124,46.154 49.699,41.37 42.646,38.576 "></polygon><polygon fill="#0F131C" points="50.208,33.646 43.209,37.767 50.208,40.538 "></polygon><polygon fill="#0F131C" points="55.596,70.377 59.682,63.864 51.556,64.633 "></polygon><polygon fill="#0F131C" points="66.828,35.764 60.208,38.037 66.307,43.444 "></polygon><polygon fill="#0F131C" points="46.698,70.764 54.694,70.764 50.688,65.067 "></polygon><polygon fill="#0F131C" points="68.768,61.735 61.41,63.587 65.081,68.653 "></polygon><polygon fill="#0F131C" points="35.18,26.566 41.52,28.624 41.624,22.763 "></polygon><polygon fill="#0F131C" points="73.92,33.575 68.247,35.306 73.649,40.888 "></polygon><polygon fill="#0F131C" points="56.601,70.583 64.306,69.218 60.636,64.152 "></polygon><polygon fill="#0F131C" points="67.836,34.428 73.463,32.711 67.836,27.756 "></polygon><polygon fill="#0F131C" points="62.709,82.217 56.545,83.438 59.959,85.524 "></polygon><polygon fill="#0F131C" points="60.084,77.877 56.432,82.481 63.026,81.175 "></polygon><polygon fill="#0F131C" points="41.628,37.176 41.521,30.214 35.047,34.921 "></polygon><polygon fill="#0F131C" points="24.032,72.413 20.293,70.922 24.032,75.854 "></polygon><polygon fill="#0F131C" points="27.726,40.888 33.128,35.306 27.455,33.575 "></polygon><polygon fill="#0F131C" points="50.688,78.742 47.206,82.727 54.184,82.727 "></polygon><polygon fill="#0F131C" points="44.846,83.438 38.666,82.216 41.417,85.524 "></polygon><polygon fill="#0F131C" points="41.292,77.876 38.35,81.174 44.959,82.481 "></polygon><polygon fill="#0F131C" points="53.962,83.688 47.427,83.688 50.688,86.544 "></polygon></svg>