<svg fill="#0F131C" xmlns="http://www.w3.org/2000/svg" xmlns:xlink="http://www.w3.org/1999/xlink" version="1.1" x="0px" y="0px" viewBox="0 0 100 100" enable-background="new 0 0 100 100" xml:space="preserve"><polygon fill="#0F131C" points="31.705,17.047 28.698,17.882 28.748,19.37 "></polygon><polygon fill="#0F131C" points="24.119,29.063 23.471,26.706 21.309,30.047 "></polygon><polygon fill="#0F131C" points="23.775,20.521 23.689,21.159 25.169,19.749 "></polygon><polygon fill="#0F131C" points="27.762,18.605 25.177,21.07 27.809,20.012 "></polygon><polygon fill="#0F131C" points="14.051,38.354 13.761,37.979 13.556,39.383 "></polygon><polygon fill="#0F131C" points="29.854,27.894 28.902,24.894 25.89,28.653 "></polygon><polygon fill="#0F131C" points="28.522,23.563 28.034,21.352 25.146,24.588 "></polygon><polygon fill="#0F131C" points="26.576,21.542 23.581,22.747 23.933,24.506 "></polygon><polygon fill="#0F131C" points="17.533,29.876 16.168,31.038 16.438,32.044 "></polygon><polygon fill="#0F131C" points="15.554,32.457 14.854,34.365 15.771,33.266 "></polygon><polygon fill="#0F131C" points="15.002,35.686 14.066,36.805 14.447,37.298 "></polygon><polygon fill="#0F131C" points="19.559,30.764 18.97,29.164 17.51,32.053 "></polygon><polygon fill="#0F131C" points="20.933,24.528 19.332,25.665 19.41,26.631 "></polygon><polygon fill="#0F131C" points="18.477,26.979 17.492,28.647 18.539,27.757 "></polygon><polygon fill="#0F131C" points="22.64,21.755 21.782,22.748 22.584,22.18 "></polygon><polygon fill="#0F131C" points="23.108,25.286 22.775,23.621 20.627,26.587 "></polygon><polygon fill="#0F131C" points="40.25,13.333 40.18,14.774 43.113,13.464 "></polygon><polygon fill="#0F131C" points="40.966,22.605 39.666,19.865 36.463,22.593 "></polygon><polygon fill="#0F131C" points="43.52,16.405 40.169,16.066 40.273,18.284 "></polygon><polygon fill="#0F131C" points="40.579,11.742 40.477,12.13 41.969,11.69 "></polygon><polygon fill="#0F131C" points="45.053,11.783 42.678,12.482 44.807,12.58 "></polygon><polygon fill="#0F131C" points="41.396,18.741 45.357,19.066 44.744,16.804 "></polygon><polygon fill="#0F131C" points="45.613,13.689 45.548,15.427 48.706,14.492 "></polygon><polygon fill="#0F131C" points="30.138,19.5 33.604,18.851 33.471,16.882 "></polygon><polygon fill="#0F131C" points="28.875,20.713 29.376,22.974 32.564,20.022 "></polygon><polygon fill="#0F131C" points="29.268,16.201 29.23,16.292 29.551,16.086 "></polygon><polygon fill="#0F131C" points="33.566,14.651 31.141,16.208 33.451,15.567 "></polygon><polygon fill="#0F131C" points="34.555,22.667 33.859,20.133 30.53,23.214 "></polygon><polygon fill="#0F131C" points="39.497,12.076 38.223,12.587 39.41,12.405 "></polygon><polygon fill="#0F131C" points="34.6,14.114 34.477,15.091 37.042,13.739 "></polygon><polygon fill="#0F131C" points="37.891,16.14 34.399,16.39 34.535,18.384 "></polygon><polygon fill="#0F131C" points="44.583,15.546 44.647,13.829 41.502,15.235 "></polygon><polygon fill="#0F131C" points="11.188,51.095 11.003,52.843 11.496,53.026 "></polygon><polygon fill="#0F131C" points="11.18,53.933 11.645,55.749 11.624,54.099 "></polygon><polygon fill="#0F131C" points="11.728,42.406 11.681,43.863 12.061,42.623 "></polygon><polygon fill="#0F131C" points="13.562,35.098 13.387,35.376 13.424,35.469 "></polygon><polygon fill="#0F131C" points="12.489,40.042 11.883,41.362 12.26,41.607 "></polygon><polygon fill="#0F131C" points="14.29,40.069 13.381,41.958 14.461,41.983 "></polygon><polygon fill="#0F131C" points="13.199,50.346 12.671,53.3 14.048,53.34 "></polygon><polygon fill="#0F131C" points="14.329,42.939 13.146,42.911 13.381,45.812 "></polygon><polygon fill="#0F131C" points="11.678,47.157 12.555,47.492 12.35,44.962 "></polygon><polygon fill="#0F131C" points="12.617,56.643 12.649,59.326 13.605,59.419 "></polygon><polygon fill="#0F131C" points="12.126,50.896 12.551,48.519 11.692,48.189 "></polygon><polygon fill="#0F131C" points="83.793,32.994 82.883,30.48 82.346,31.196 "></polygon><polygon fill="#0F131C" points="77.979,71.06 79.896,71.214 80.624,67.906 "></polygon><polygon fill="#0F131C" points="72.861,79.829 73.868,78.114 71.675,79.657 "></polygon><polygon fill="#0F131C" points="76.45,74.766 79.181,72.119 77.353,71.972 "></polygon><polygon fill="#0F131C" points="77.738,75.92 78.688,73.933 76.611,75.944 "></polygon><polygon fill="#0F131C" points="71.483,78.617 74.237,76.682 72.445,76.277 "></polygon><polygon fill="#0F131C" points="82.198,70.792 82.854,68.94 81.4,70.976 "></polygon><polygon fill="#0F131C" points="74.844,78.348 76.641,76.905 75.678,76.925 "></polygon><polygon fill="#0F131C" points="80.001,73.413 81.232,71.999 80.609,72.142 "></polygon><polygon fill="#0F131C" points="85.707,64.755 85.916,63.804 85.422,64.892 "></polygon><polygon fill="#0F131C" points="86.568,54.317 85.034,54.546 85.346,57.77 "></polygon><polygon fill="#0F131C" points="81.248,69.536 83.455,66.445 81.904,66.556 "></polygon><polygon fill="#0F131C" points="85.233,62.984 86.527,60.141 85.516,60.364 "></polygon><polygon fill="#0F131C" points="84.709,66.562 84.925,66.194 84.823,66.242 "></polygon><polygon fill="#0F131C" points="84.004,65.443 84.356,62.161 82.383,65.558 "></polygon><polygon fill="#0F131C" points="82.424,59.619 84.549,59.515 84.201,55.905 "></polygon><polygon fill="#0F131C" points="60.438,79.003 56.712,78.177 56.775,81.216 "></polygon><polygon fill="#0F131C" points="58.516,87.649 58.797,87.538 58.459,87.595 "></polygon><polygon fill="#0F131C" points="57.601,86.663 59.76,85.597 57.045,85.753 "></polygon><polygon fill="#0F131C" points="69.541,81.741 71.615,80.616 70.609,80.47 "></polygon><polygon fill="#0F131C" points="62.15,82.997 62.402,84.167 64.187,82.897 "></polygon><polygon fill="#0F131C" points="85.816,59.313 86.877,59.079 86.842,56.42 "></polygon><polygon fill="#0F131C" points="57.254,87.832 57.295,87.827 57.289,87.821 "></polygon><polygon fill="#0F131C" points="56.776,82.582 56.722,84.517 59.891,82.871 "></polygon><polygon fill="#0F131C" points="60.605,86.249 62.324,85.951 61.977,85.571 "></polygon><polygon fill="#0F131C" points="63.343,85.646 64.73,84.702 62.959,85.226 "></polygon><polygon fill="#0F131C" points="67.396,84.05 67.725,83.914 67.632,83.89 "></polygon><polygon fill="#0F131C" points="69.087,83.288 69.693,82.751 68.828,83.22 "></polygon><polygon fill="#0F131C" points="67.438,82.748 68.5,81.483 66.791,82.366 "></polygon><polygon fill="#0F131C" points="64.705,83.707 66.35,83.222 65.824,82.911 "></polygon><polygon fill="#0F131C" points="67.054,79.965 66.606,81.382 68.855,80.221 "></polygon><polygon fill="#0F131C" points="79.134,24.176 77.896,23.126 78.906,24.479 "></polygon><polygon fill="#0F131C" points="79.745,24.96 79.537,25.239 80.512,26.232 "></polygon><polygon fill="#0F131C" points="70.32,16.585 70.014,16.825 71.508,17.626 "></polygon><polygon fill="#0F131C" points="64.479,14.121 63.794,14.728 66.475,15.565 "></polygon><polygon fill="#0F131C" points="63.413,13.782 60.913,13.267 62.779,14.344 "></polygon><polygon fill="#0F131C" points="73.488,20.953 74.215,20.162 71.381,18.646 "></polygon><polygon fill="#0F131C" points="46.107,11.615 45.842,12.481 48.559,12.053 "></polygon><polygon fill="#0F131C" points="74.949,20.783 74.221,21.575 76.854,23.334 "></polygon><polygon fill="#0F131C" points="69.396,16.09 68.077,15.54 69.127,16.3 "></polygon><polygon fill="#0F131C" points="52.68,11.036 52.316,11.615 54.7,11.656 "></polygon><polygon fill="#0F131C" points="59.37,11.761 59.17,11.926 60.231,12.146 "></polygon><polygon fill="#0F131C" points="51.548,11.034 49.394,11.227 51.222,11.552 "></polygon><polygon fill="#0F131C" points="54.477,13.778 51.725,12.702 51.226,13.945 "></polygon><polygon fill="#0F131C" points="60.521,14.15 58.233,12.829 57.573,13.771 "></polygon><polygon fill="#0F131C" points="56.549,13.561 57.181,12.659 54.114,12.608 "></polygon><polygon fill="#0F131C" points="58.112,11.557 57.406,11.48 57.988,11.66 "></polygon><polygon fill="#0F131C" points="85.559,34.297 84.935,33.325 85.375,34.542 "></polygon><polygon fill="#0F131C" points="82.399,29.522 80.581,27.671 81.829,30.283 "></polygon><polygon fill="#0F131C" points="87.226,40.751 86.218,38.677 86.623,41.192 "></polygon><polygon fill="#0F131C" points="86.688,47.668 87.602,47.302 86.723,44.785 "></polygon><polygon fill="#0F131C" points="87.215,50.964 87.607,48.334 86.75,48.679 "></polygon><polygon fill="#0F131C" points="88.163,51.116 87.879,53.011 88.376,52.837 "></polygon><polygon fill="#0F131C" points="85.926,35.405 85.785,35.593 86.186,36.418 "></polygon><polygon fill="#0F131C" points="88.224,53.907 87.772,54.065 87.794,55.672 "></polygon><polygon fill="#0F131C" points="87.536,44.198 87.401,41.812 86.846,42.222 "></polygon><polygon fill="#0F131C" points="83.648,36.231 84.556,35.473 82.834,33.334 "></polygon><polygon fill="#0F131C" points="56.422,72.891 56.651,76.755 60.719,74.31 "></polygon><polygon fill="#0F131C" points="85.745,46.149 85.785,42.838 84.57,43.465 "></polygon><polygon fill="#0F131C" points="85.389,39.564 84.887,36.447 84.006,37.185 "></polygon><polygon fill="#0F131C" points="88.681,46.584 88.615,46.307 88.634,46.623 "></polygon><polygon fill="#0F131C" points="84.363,42.491 85.607,41.849 84.062,39.192 "></polygon><polygon fill="#0F131C" points="53.047,19.764 57.302,20.206 54.866,17.685 "></polygon><polygon fill="#0F131C" points="70.207,45.764 71.355,50.438 73.989,47.062 "></polygon><polygon fill="#0F131C" points="59.365,20.487 63.504,21.298 60.861,18.269 "></polygon><polygon fill="#0F131C" points="78.711,43.411 79.591,46.929 80.704,44.579 "></polygon><polygon fill="#0F131C" points="77.114,36.085 80.001,38.152 79.107,34.373 "></polygon><polygon fill="#0F131C" points="79.251,49.594 77.295,52.793 80.215,53.695 "></polygon><polygon fill="#0F131C" points="74.578,47.866 71.941,51.247 75.864,52.37 "></polygon><polygon fill="#0F131C" points="75.49,47.562 76.723,51.884 78.723,48.612 "></polygon><polygon fill="#0F131C" points="44.358,59.54 47.912,57.406 44.564,56.036 "></polygon><polygon fill="#0F131C" points="65.586,21.806 69.826,23.27 67.212,19.767 "></polygon><polygon fill="#0F131C" points="68.353,26.681 70.312,24.452 65.943,22.945 "></polygon><polygon fill="#0F131C" points="64.771,21.289 66.377,19.276 62.153,18.288 "></polygon><polygon fill="#0F131C" points="69.082,27.306 73.17,29.149 71.042,25.074 "></polygon><polygon fill="#0F131C" points="74.999,30.077 78.403,32.281 76.832,28.257 "></polygon><polygon fill="#0F131C" points="74.361,29.356 76.216,27.516 72.295,25.399 "></polygon><polygon fill="#0F131C" points="76.557,35.298 78.594,33.548 75.157,31.324 "></polygon><polygon fill="#0F131C" points="78.209,41.429 80.049,39.366 77.135,37.279 "></polygon><polygon fill="#0F131C" points="48.176,52.058 49.258,56.439 52.891,53.223 "></polygon><polygon fill="#0F131C" points="49.449,74.601 49.295,70.23 44.619,72.241 "></polygon><polygon fill="#0F131C" points="70.845,52.53 67.326,56.373 71.886,57.598 "></polygon><polygon fill="#0F131C" points="53.746,59.636 49.527,58.044 49.942,62.706 "></polygon><polygon fill="#0F131C" points="48.984,62.778 48.571,58.132 44.779,60.406 "></polygon><polygon fill="#0F131C" points="49.089,64.361 44.688,66.243 49.241,68.694 "></polygon><polygon fill="#0F131C" points="44.092,65.454 48.461,63.585 44.271,61.222 "></polygon><polygon fill="#0F131C" points="54.338,66.194 50.05,64.379 50.201,68.683 "></polygon><polygon fill="#0F131C" points="65.66,50.58 66.715,55.617 70.233,51.775 "></polygon><polygon fill="#0F131C" points="61.961,61.438 66.816,62.896 66.087,57.611 "></polygon><polygon fill="#0F131C" points="64.739,50.871 60.952,54.545 65.804,55.95 "></polygon><polygon fill="#0F131C" points="54.98,66.928 50.792,69.446 55.355,71.449 "></polygon><polygon fill="#0F131C" points="59.07,48.961 60.289,53.851 64.074,50.18 "></polygon><polygon fill="#0F131C" points="54.46,53.642 55.063,58.52 59.056,54.991 "></polygon><polygon fill="#0F131C" points="59.677,55.724 55.634,59.297 60.432,60.948 "></polygon><polygon fill="#0F131C" points="78.718,42.302 80.744,43.49 80.404,40.412 "></polygon><polygon fill="#0F131C" points="17.962,53.906 15.403,54.23 17.3,58.262 "></polygon><polygon fill="#0F131C" points="17.855,52.953 16.32,49.114 15.316,53.274 "></polygon><polygon fill="#0F131C" points="14.823,59.479 16.79,59.433 15.052,55.741 "></polygon><polygon fill="#0F131C" points="19.387,41.056 22.389,40.432 21.079,36.856 "></polygon><polygon fill="#0F131C" points="18.691,40.212 20.255,36.331 17.856,37.19 "></polygon><polygon fill="#0F131C" points="16.326,45.985 17.815,42.365 15.57,42.844 "></polygon><polygon fill="#0F131C" points="19.881,46.513 18.584,43.024 16.972,46.94 "></polygon><polygon fill="#0F131C" points="17.067,60.386 15.128,60.43 17.146,63.972 "></polygon><polygon fill="#0F131C" points="19.854,47.486 16.878,47.925 18.475,51.917 "></polygon><polygon fill="#0F131C" points="22.978,53.274 19.316,53.735 21.906,58.115 "></polygon><polygon fill="#0F131C" points="22.497,60.665 22.147,65.233 25.762,64.79 "></polygon><polygon fill="#0F131C" points="18.393,60.286 21.25,64.4 21.59,59.944 "></polygon><polygon fill="#0F131C" points="21.181,66.271 18.666,66.318 21.443,69.716 "></polygon><polygon fill="#0F131C" points="21.319,59.009 18.803,54.755 18.105,59.352 "></polygon><polygon fill="#0F131C" points="20.719,65.317 18.053,61.479 18.139,65.367 "></polygon><polygon fill="#0F131C" points="34.693,39.208 32.594,34.682 29.656,39.521 "></polygon><polygon fill="#0F131C" points="49.791,28.21 48.014,24.708 45.022,27.767 "></polygon><polygon fill="#0F131C" points="48.278,23.098 50.976,20.527 46.813,20.155 "></polygon><polygon fill="#0F131C" points="23.103,39.587 25.405,35.048 21.74,35.868 "></polygon><polygon fill="#0F131C" points="45.67,33.383 43.844,29.071 40.572,33.088 "></polygon><polygon fill="#0F131C" points="47.404,19.244 50.992,19.565 49.575,17.804 "></polygon><polygon fill="#0F131C" points="52.09,19.397 53.757,17.495 50.648,17.607 "></polygon><polygon fill="#0F131C" points="44.126,27.311 47.119,24.249 42.508,23.669 "></polygon><polygon fill="#0F131C" points="28.84,39.015 31.734,34.245 26.993,34.764 "></polygon><polygon fill="#0F131C" points="58.496,20.059 59.957,17.891 56.085,17.562 "></polygon><polygon fill="#0F131C" points="39.732,32.597 42.999,28.588 37.896,28.364 "></polygon><polygon fill="#0F131C" points="23.868,40.197 28.074,39.662 26.26,35.484 "></polygon><polygon fill="#0F131C" points="32.782,32.707 36.121,28.396 31.169,28.701 "></polygon><polygon fill="#0F131C" points="33.646,33.161 38.881,33.048 37.033,28.787 "></polygon><polygon fill="#0F131C" points="26.609,45.796 31.077,45.447 28.795,41.133 "></polygon><polygon fill="#0F131C" points="73.551,39.229 75.618,36.306 72.011,34.567 "></polygon><polygon fill="#0F131C" points="71.976,33.485 75.5,35.183 74.06,31.093 "></polygon><polygon fill="#0F131C" points="65.672,31.195 70.276,32.812 68.172,28.344 "></polygon><polygon fill="#0F131C" points="71.322,32.773 73.451,30.328 69.283,28.448 "></polygon><polygon fill="#0F131C" points="73.133,41.364 70.339,44.796 74.136,46.098 "></polygon><polygon fill="#0F131C" points="77.24,42.608 74.062,41.124 75.026,45.668 "></polygon><polygon fill="#0F131C" points="48.289,56.524 47.275,52.418 44.923,55.146 "></polygon><polygon fill="#0F131C" points="74.117,40.091 77.248,41.554 76.131,37.242 "></polygon><polygon fill="#0F131C" points="49.269,23.48 53.868,23.753 51.989,20.889 "></polygon><polygon fill="#0F131C" points="50.729,27.94 53.747,24.708 48.943,24.423 "></polygon><polygon fill="#0F131C" points="64.942,30.571 67.44,27.721 62.688,26.294 "></polygon><polygon fill="#0F131C" points="54.885,23.552 57.456,21.187 53.03,20.726 "></polygon><polygon fill="#0F131C" points="55.832,23.983 60.701,24.839 58.477,21.55 "></polygon><polygon fill="#0F131C" points="62.587,25.262 67.186,26.643 64.728,22.831 "></polygon><polygon fill="#0F131C" points="61.78,24.724 63.875,22.349 59.61,21.515 "></polygon><polygon fill="#0F131C" points="52.297,47.384 54.075,52.098 57.478,48.583 "></polygon><polygon fill="#0F131C" points="54.832,65.361 54.314,60.41 50.469,63.515 "></polygon><polygon fill="#0F131C" points="52.54,34.203 50.494,29.673 47.331,33.54 "></polygon><polygon fill="#0F131C" points="68.25,38.92 69.736,44.013 72.595,40.502 "></polygon><polygon fill="#0F131C" points="51.368,47.642 48.39,51.12 53.123,52.29 "></polygon><polygon fill="#0F131C" points="55.259,40.883 53.19,35.726 49.857,39.849 "></polygon><polygon fill="#0F131C" points="50.76,46.058 48.843,41.138 45.869,45.014 "></polygon><polygon fill="#0F131C" points="49.117,39.236 52.417,35.155 47.17,34.487 "></polygon><polygon fill="#0F131C" points="50.642,47.015 45.814,45.985 47.665,50.492 "></polygon><polygon fill="#0F131C" points="62.908,44.159 59.319,48.034 64.347,49.259 "></polygon><polygon fill="#0F131C" points="68.65,45.274 63.832,43.904 65.26,48.962 "></polygon><polygon fill="#0F131C" points="49.896,57.158 54.127,58.753 53.53,53.94 "></polygon><polygon fill="#0F131C" points="69.278,46.01 65.924,49.657 70.467,50.845 "></polygon><polygon fill="#0F131C" points="56.776,42.189 58.603,47.396 62.227,43.484 "></polygon><polygon fill="#0F131C" points="58.156,49.262 54.79,52.739 59.357,54.079 "></polygon><polygon fill="#0F131C" points="77.753,43.536 75.557,46.572 78.775,47.619 "></polygon><polygon fill="#0F131C" points="37.415,63.193 33.339,64.253 37.021,67.418 "></polygon><polygon fill="#0F131C" points="38.547,57.023 34.457,57.872 37.672,61.511 "></polygon><polygon fill="#0F131C" points="36.753,74.798 32.783,75.579 36.925,78.463 "></polygon><polygon fill="#0F131C" points="32.95,58.161 28.576,58.928 32.045,62.953 "></polygon><polygon fill="#0F131C" points="31.783,64.619 27.656,65.452 31.305,68.991 "></polygon><polygon fill="#0F131C" points="27.981,59.704 27.245,64.558 31.434,63.711 "></polygon><polygon fill="#0F131C" points="32.139,70.975 32.072,74.739 36.063,73.954 "></polygon><polygon fill="#0F131C" points="37.961,67.684 42.503,66.067 38.36,63.39 "></polygon><polygon fill="#0F131C" points="39.949,55.746 43.373,55.01 41.537,51.909 "></polygon><polygon fill="#0F131C" points="43.608,55.939 40.201,56.673 43.403,59.423 "></polygon><polygon fill="#0F131C" points="44.929,46.358 42.296,50.433 46.773,50.849 "></polygon><polygon fill="#0F131C" points="37.862,69.24 37.71,73.554 42.344,72.07 "></polygon><polygon fill="#0F131C" points="43.001,72.867 38.387,74.345 43.084,77.053 "></polygon><polygon fill="#0F131C" points="43.315,61.115 39.027,62.678 43.137,65.337 "></polygon><polygon fill="#0F131C" points="38.504,68.51 43.005,71.352 43.088,66.879 "></polygon><polygon fill="#0F131C" points="25.81,45.24 27.964,40.643 23.765,41.179 "></polygon><polygon fill="#0F131C" points="37.711,45.073 35.404,40.643 32.7,45.343 "></polygon><polygon fill="#0F131C" points="26.173,65.708 22.625,66.143 26.055,69.784 "></polygon><polygon fill="#0F131C" points="31.861,44.876 34.563,40.179 29.541,40.49 "></polygon><polygon fill="#0F131C" points="35.505,38.675 38.684,34.014 33.396,34.127 "></polygon><polygon fill="#0F131C" points="48.237,39.62 46.297,34.888 43.207,39.167 "></polygon><polygon fill="#0F131C" points="36.34,39.153 41.587,39.097 39.52,34.493 "></polygon><polygon fill="#0F131C" points="42.422,38.614 45.512,34.336 40.369,34.038 "></polygon><polygon fill="#0F131C" points="21.285,46.339 25.084,45.935 23.077,41.946 "></polygon><polygon fill="#0F131C" points="25.121,46.896 21.292,47.303 23.505,51.512 "></polygon><polygon fill="#0F131C" points="22.846,52.324 20.651,48.149 19.211,52.782 "></polygon><polygon fill="#0F131C" points="26.828,58.237 23.824,53.892 22.731,58.833 "></polygon><polygon fill="#0F131C" points="46.545,32.988 49.67,29.164 44.729,28.704 "></polygon><polygon fill="#0F131C" points="20.559,45.579 22.246,41.44 19.251,42.063 "></polygon><polygon fill="#0F131C" points="28.71,52.547 24.438,53.089 27.457,57.46 "></polygon><polygon fill="#0F131C" points="14.65,51.945 15.561,48.169 13.695,48.574 "></polygon><polygon fill="#0F131C" points="25.678,34.003 24.57,30.54 22.071,34.811 "></polygon><polygon fill="#0F131C" points="21.314,34.203 23.627,30.254 20.7,31.277 "></polygon><polygon fill="#0F131C" points="25.441,70.534 22.206,67.099 22.48,70.695 "></polygon><polygon fill="#0F131C" points="27.743,24.804 24.236,25.868 24.913,28.335 "></polygon><polygon fill="#0F131C" points="36.448,27.412 35.01,23.953 31.619,27.711 "></polygon><polygon fill="#0F131C" points="77.084,26.601 78.18,25.374 75.044,23.279 "></polygon><polygon fill="#0F131C" points="31.968,33.255 30.365,29.273 27.281,33.767 "></polygon><polygon fill="#0F131C" points="16.251,35 15.46,37.304 16.709,36.645 "></polygon><polygon fill="#0F131C" points="37.312,26.989 40.602,23.565 35.882,23.552 "></polygon><polygon fill="#0F131C" points="13.812,47.566 15.625,47.174 14.915,44.226 "></polygon><polygon fill="#0F131C" points="15.29,40.471 16.33,37.93 15.119,38.568 "></polygon><polygon fill="#0F131C" points="17.396,35.533 18.981,32.262 16.859,33.598 "></polygon><polygon fill="#0F131C" points="22.253,26.819 19.634,28.192 20.262,29.896 "></polygon><polygon fill="#0F131C" points="18.008,41.344 17.186,38.37 15.775,41.817 "></polygon><polygon fill="#0F131C" points="20.545,35.208 19.963,32.438 18.22,36.04 "></polygon><polygon fill="#0F131C" points="41.896,22.33 44.774,19.981 40.621,19.641 "></polygon><polygon fill="#0F131C" points="61.66,17.187 65.561,18.1 62.893,15.636 "></polygon><polygon fill="#0F131C" points="55.697,16.565 59.308,16.872 56.833,14.853 "></polygon><polygon fill="#0F131C" points="67.197,18.302 68.271,17.133 64.731,16.026 "></polygon><polygon fill="#0F131C" points="60.738,16.802 61.933,15.299 58.329,14.835 "></polygon><polygon fill="#0F131C" points="71.912,24.102 75.668,26.13 73.412,22.458 "></polygon><polygon fill="#0F131C" points="68.038,18.808 71.637,20.349 69.138,17.61 "></polygon><polygon fill="#0F131C" points="43.223,27.638 41.577,23.936 38.23,27.418 "></polygon><polygon fill="#0F131C" points="71.18,23.479 72.677,21.839 68.678,20.127 "></polygon><polygon fill="#0F131C" points="47.308,23.308 45.837,20.353 42.896,22.752 "></polygon><polygon fill="#0F131C" points="46.288,18.834 48.485,17.378 45.718,16.728 "></polygon><polygon fill="#0F131C" points="53.602,86.753 56.557,86.795 56.012,85.901 "></polygon><polygon fill="#0F131C" points="54.699,16.333 55.799,14.672 52.146,14.859 "></polygon><polygon fill="#0F131C" points="50.331,16.659 53.165,16.558 50.782,15.182 "></polygon><polygon fill="#0F131C" points="49.347,16.593 49.779,15.177 46.919,16.022 "></polygon><polygon fill="#0F131C" points="50.212,13.893 50.695,12.688 47.508,13.19 "></polygon><polygon fill="#0F131C" points="30.679,27.321 33.928,23.722 29.718,24.293 "></polygon><polygon fill="#0F131C" points="38.061,80.246 38.454,82.865 42.302,82.324 "></polygon><polygon fill="#0F131C" points="37.27,86.312 38.349,86.774 38.25,86.491 "></polygon><polygon fill="#0F131C" points="38.704,84.177 38.999,85.577 42.046,85.479 "></polygon><polygon fill="#0F131C" points="32.888,80.883 33.427,82.735 36.181,82.849 "></polygon><polygon fill="#0F131C" points="39.507,87.188 40.936,87.287 39.374,86.807 "></polygon><polygon fill="#0F131C" points="28.713,81.504 30.584,82.02 28.521,80.546 "></polygon><polygon fill="#0F131C" points="27.747,76.862 28.207,79.005 30.59,79.225 "></polygon><polygon fill="#0F131C" points="31.134,83.167 32.639,84.151 32.604,83.572 "></polygon><polygon fill="#0F131C" points="50.988,85.098 51.275,86.557 54.186,85.529 "></polygon><polygon fill="#0F131C" points="41.495,86.456 44.343,87.334 44.054,86.373 "></polygon><polygon fill="#0F131C" points="52.111,88.248 54.034,87.72 51.772,87.688 "></polygon><polygon fill="#0F131C" points="12.788,54.263 13.977,57.597 14.178,54.304 "></polygon><polygon fill="#0F131C" points="45.402,87.521 48.12,87.122 45.098,86.511 "></polygon><polygon fill="#0F131C" points="44.115,78.629 44.354,81.937 48.759,80.508 "></polygon><polygon fill="#0F131C" points="44.504,83.259 44.805,85.3 48.503,84.465 "></polygon><polygon fill="#0F131C" points="48.823,87.987 50.974,88.224 50.666,87.716 "></polygon><polygon fill="#0F131C" points="17.258,70.57 17.854,70.476 16.629,68.779 "></polygon><polygon fill="#0F131C" points="17.881,71.442 19.043,72.739 18.414,71.356 "></polygon><polygon fill="#0F131C" points="17.277,66.331 16.03,66.313 17.774,68.725 "></polygon><polygon fill="#0F131C" points="15.107,62.333 15.503,65.345 16.836,65.364 "></polygon><polygon fill="#0F131C" points="13.954,65.168 14.259,65.212 13.676,63.999 "></polygon><polygon fill="#0F131C" points="18.536,67.676 19.1,70.388 20.921,70.593 "></polygon><polygon fill="#0F131C" points="14.508,66.219 14.99,67.007 14.725,66.252 "></polygon><polygon fill="#0F131C" points="26.598,76.072 24.504,75.99 27.046,78.164 "></polygon><polygon fill="#0F131C" points="22.898,72.61 23.519,74.991 25.669,75.075 "></polygon><polygon fill="#0F131C" points="26.425,79.569 27.547,80.571 27.4,79.835 "></polygon><polygon fill="#0F131C" points="21.656,71.642 19.966,71.451 22.217,73.796 "></polygon><polygon fill="#0F131C" points="24.93,78.165 25.874,78.423 24.507,77.255 "></polygon><polygon fill="#0F131C" points="22.146,75.913 23.253,76.834 22.833,75.929 "></polygon><polygon fill="#0F131C" points="21.094,74.929 21.99,74.949 20.305,73.191 "></polygon><polygon fill="#0F131C" points="26.452,33.276 29.418,28.954 25.322,29.738 "></polygon><polygon fill="#0F131C" points="50.302,86.581 50.013,85.109 46.705,85.854 "></polygon><polygon fill="#0F131C" points="54.802,72.255 50.256,70.26 50.408,74.597 "></polygon><polygon fill="#0F131C" points="55.696,76.884 55.465,72.989 51.148,75.29 "></polygon><polygon fill="#0F131C" points="49.869,83.874 49.719,81.206 45.526,82.565 "></polygon><polygon fill="#0F131C" points="48.767,75.335 43.965,72.99 44.048,77.194 "></polygon><polygon fill="#0F131C" points="49.504,76.075 44.876,77.9 49.654,79.833 "></polygon><polygon fill="#0F131C" points="54.98,77.65 50.464,76.068 50.612,79.801 "></polygon><polygon fill="#0F131C" points="61.207,69.229 56.981,72.065 61.358,73.511 "></polygon><polygon fill="#0F131C" points="60.598,68.483 55.934,66.821 56.311,71.36 "></polygon><polygon fill="#0F131C" points="55.812,82.786 52.205,84.293 55.755,84.772 "></polygon><polygon fill="#0F131C" points="61.106,67.646 60.625,62.583 56.37,65.958 "></polygon><polygon fill="#0F131C" points="44.047,66.99 43.963,71.479 48.647,69.465 "></polygon><polygon fill="#0F131C" points="50.828,83.827 54.779,82.178 50.678,81.177 "></polygon><polygon fill="#0F131C" points="55.754,78.339 51.56,80.403 55.819,81.442 "></polygon><polygon fill="#0F131C" points="55.256,60.181 55.78,65.199 60.034,61.825 "></polygon><polygon fill="#0F131C" points="27.116,66.266 26.997,70.379 30.671,69.714 "></polygon><polygon fill="#0F131C" points="30.371,74.919 27.104,72.108 27.416,75.1 "></polygon><polygon fill="#0F131C" points="31.154,75.833 28.227,76.013 31.479,78.714 "></polygon><polygon fill="#0F131C" points="32.217,82.007 31.719,80.292 29.535,80.092 "></polygon><polygon fill="#0F131C" points="31.118,74.294 31.184,70.596 27.577,71.25 "></polygon><polygon fill="#0F131C" points="26.071,71.461 23.226,71.616 26.382,74.425 "></polygon><polygon fill="#0F131C" points="23.006,59.762 26.359,63.999 27.091,59.168 "></polygon><polygon fill="#0F131C" points="61.5,84.534 61.227,83.261 58.433,84.711 "></polygon><polygon fill="#0F131C" points="43.811,85.134 43.514,83.124 39.939,83.627 "></polygon><polygon fill="#0F131C" points="43.143,78.498 38.846,79.562 43.38,81.782 "></polygon><polygon fill="#0F131C" points="36.078,79.043 32.177,76.325 32.513,79.329 "></polygon><polygon fill="#0F131C" points="37.727,75.073 37.902,78.806 42.309,77.715 "></polygon><polygon fill="#0F131C" points="46.549,51.793 42.355,51.403 44.199,54.518 "></polygon><polygon fill="#0F131C" points="37.042,79.928 33.623,80.202 37.424,82.474 "></polygon><polygon fill="#0F131C" points="37.933,85.178 37.657,83.871 35.208,83.769 "></polygon><polygon fill="#0F131C" points="77.707,27.343 80.393,29.507 78.783,26.14 "></polygon><polygon fill="#0F131C" points="77.09,67.209 73.965,70.567 76.6,70.923 "></polygon><polygon fill="#0F131C" points="77.149,60.87 74.043,64.646 77.267,65.209 "></polygon><polygon fill="#0F131C" points="61.104,82.02 61.198,79.667 57.811,81.714 "></polygon><polygon fill="#0F131C" points="73.376,71.457 72.859,74.466 75.902,71.798 "></polygon><polygon fill="#0F131C" points="75.747,53.335 71.754,52.192 72.772,57.148 "></polygon><polygon fill="#0F131C" points="78.179,66.299 77.704,69.893 80.551,66.5 "></polygon><polygon fill="#0F131C" points="76.02,72.972 73.183,75.458 75.078,75.886 "></polygon><polygon fill="#0F131C" points="80.078,48.919 80.998,52.825 82.45,49.257 "></polygon><polygon fill="#0F131C" points="81.051,38.417 82.656,37.063 80.213,34.874 "></polygon><polygon fill="#0F131C" points="80.096,33.479 82.479,35.616 81.495,32.115 "></polygon><polygon fill="#0F131C" points="79.578,32.645 81.016,31.242 78.116,28.906 "></polygon><polygon fill="#0F131C" points="81.431,39.353 83.328,41.707 82.992,38.035 "></polygon><polygon fill="#0F131C" points="72.638,66.105 68.752,69.71 72.518,70.354 "></polygon><polygon fill="#0F131C" points="82.908,47.042 83.35,44.03 81.945,44.643 "></polygon><polygon fill="#0F131C" points="81.128,61.734 78.625,65.374 81.044,65.579 "></polygon><polygon fill="#0F131C" points="80.133,54.674 77.158,53.755 77.869,58.244 "></polygon><polygon fill="#0F131C" points="66.125,75.594 62.323,74.772 62.22,77.932 "></polygon><polygon fill="#0F131C" points="62.171,79.336 62.077,81.673 65.289,79.733 "></polygon><polygon fill="#0F131C" points="62.159,68.987 62.311,73.274 66.611,70.214 "></polygon><polygon fill="#0F131C" points="61.355,75.047 57.496,77.367 61.252,78.2 "></polygon><polygon fill="#0F131C" points="66.4,63.772 61.564,62.321 62.048,67.399 "></polygon><polygon fill="#0F131C" points="65.877,80.502 63.439,81.973 65.442,81.875 "></polygon><polygon fill="#0F131C" points="60.606,55.443 61.363,60.683 65.489,56.856 "></polygon><polygon fill="#0F131C" points="66.764,76.33 63.148,78.493 66.322,78.897 "></polygon><polygon fill="#0F131C" points="67.812,75.892 67.383,78.397 70.746,76.102 "></polygon><polygon fill="#0F131C" points="72.293,72.087 68.67,74.989 71.757,75.21 "></polygon><polygon fill="#0F131C" points="71.602,58.517 67.012,57.283 67.734,62.525 "></polygon><polygon fill="#0F131C" points="71.102,77.021 68.012,79.131 70.11,79.429 "></polygon><polygon fill="#0F131C" points="67.177,70.989 63.026,73.942 66.965,74.795 "></polygon><polygon fill="#0F131C" points="66.963,64.554 62.669,68.132 67.2,69.381 "></polygon><polygon fill="#0F131C" points="53.46,33.908 56.791,30.083 51.406,29.36 "></polygon><polygon fill="#0F131C" points="33.632,84.671 35.534,85.019 33.592,84.015 "></polygon><polygon fill="#0F131C" points="51.597,28.417 56.867,29.124 54.689,25.103 "></polygon><polygon fill="#0F131C" points="76.262,54.236 73.341,57.98 77.004,58.928 "></polygon><polygon fill="#0F131C" points="81.419,54.844 81.905,58.477 83.723,54.677 "></polygon><polygon fill="#0F131C" points="82.115,60.595 82.034,64.248 84.216,60.492 "></polygon><polygon fill="#0F131C" points="80.162,47.962 82.37,48.277 81.289,45.585 "></polygon><polygon fill="#0F131C" points="86.115,50.374 85.184,53.554 86.717,53.325 "></polygon><polygon fill="#0F131C" points="81.42,40.869 81.73,43.688 83.182,43.055 "></polygon><polygon fill="#0F131C" points="83.694,48.293 85.511,48.005 84.182,44.97 "></polygon><polygon fill="#0F131C" points="84.537,52.348 85.526,48.975 83.724,49.261 "></polygon><polygon fill="#0F131C" points="36.094,51.687 39.028,55.461 40.723,51.37 "></polygon><polygon fill="#0F131C" points="67.904,64.188 68.142,68.967 72.169,65.229 "></polygon><polygon fill="#0F131C" points="71.847,71.212 68.161,70.583 67.951,74.334 "></polygon><polygon fill="#0F131C" points="72.133,59.349 68.319,63.301 72.608,64.349 "></polygon><polygon fill="#0F131C" points="73.055,58.899 73.518,63.773 76.745,59.853 "></polygon><polygon fill="#0F131C" points="78.202,64.297 80.809,60.507 78.088,60.129 "></polygon><polygon fill="#0F131C" points="80.574,55.771 78.398,59.203 81.084,59.575 "></polygon><polygon fill="#0F131C" points="76.809,66.102 73.614,65.544 73.497,69.661 "></polygon><polygon fill="#0F131C" points="81.609,53.866 83.9,53.701 83.027,50.382 "></polygon><polygon fill="#0F131C" points="39.328,18.628 39.223,16.402 35.757,18.722 "></polygon><polygon fill="#0F131C" points="36.135,15.302 39.204,15.083 39.273,13.648 "></polygon><polygon fill="#0F131C" points="13.887,60.411 12.976,60.323 14.214,62.903 "></polygon><polygon fill="#0F131C" points="35.425,22.214 38.484,19.608 34.737,19.707 "></polygon><polygon fill="#0F131C" points="57.605,30.609 54.239,34.477 59.812,35.565 "></polygon><polygon fill="#0F131C" points="54.104,35.428 56.184,40.61 59.719,36.524 "></polygon><polygon fill="#0F131C" points="51.689,45.797 55.123,41.833 49.744,40.804 "></polygon><polygon fill="#0F131C" points="67.67,37.209 70.396,33.87 65.681,32.215 "></polygon><polygon fill="#0F131C" points="55.852,42.46 52.416,46.425 57.67,47.643 "></polygon><polygon fill="#0F131C" points="71.019,34.625 68.324,37.924 72.627,39.492 "></polygon><polygon fill="#0F131C" points="60.759,35.334 63.955,31.696 58.57,30.417 "></polygon><polygon fill="#0F131C" points="58.658,29.45 63.926,30.702 61.619,26.323 "></polygon><polygon fill="#0F131C" points="48.069,40.569 43.115,40.122 45.125,44.407 "></polygon><polygon fill="#0F131C" points="57.844,28.915 60.77,25.824 55.688,24.933 "></polygon><polygon fill="#0F131C" points="61.488,35.958 66.72,37.421 64.687,32.319 "></polygon><polygon fill="#0F131C" points="60.451,37.147 56.912,41.234 62.387,42.534 "></polygon><polygon fill="#0F131C" points="66.666,38.402 61.391,36.926 63.311,42.272 "></polygon><polygon fill="#0F131C" points="67.311,39.124 63.994,42.951 68.828,44.326 "></polygon><polygon fill="#0F131C" points="37.08,62.29 33.84,58.622 32.943,63.365 "></polygon><polygon fill="#0F131C" points="40.674,50.41 38.476,46.484 36.028,50.728 "></polygon><polygon fill="#0F131C" points="36.211,40.116 38.525,44.561 41.437,40.06 "></polygon><polygon fill="#0F131C" points="24.304,52.139 28.546,51.6 25.948,47.44 "></polygon><polygon fill="#0F131C" points="36.91,69.03 32.73,70.219 36.76,73.277 "></polygon><polygon fill="#0F131C" points="31.105,46.408 26.651,46.755 29.26,50.932 "></polygon><polygon fill="#0F131C" points="32.229,69.363 36.422,68.17 32.709,64.978 "></polygon><polygon fill="#0F131C" points="35.148,50.331 37.623,46.04 32.675,46.306 "></polygon><polygon fill="#0F131C" points="34.522,51.832 30.232,52.358 33.332,56.481 "></polygon><polygon fill="#0F131C" points="35.385,52.337 34.206,56.943 38.306,56.093 "></polygon><polygon fill="#0F131C" points="44.127,45.831 39.286,45.97 41.492,49.909 "></polygon><polygon fill="#0F131C" points="42.89,60.249 39.469,57.31 38.59,61.815 "></polygon><polygon fill="#0F131C" points="30.104,51.405 34.362,50.884 31.931,46.927 "></polygon><polygon fill="#0F131C" points="32.697,57.231 29.568,53.069 28.311,58.001 "></polygon><polygon fill="#0F131C" points="42.258,40.558 39.379,45.008 44.279,44.867 "></polygon></svg>