<svg fill="#0F131C" xmlns="http://www.w3.org/2000/svg" xmlns:xlink="http://www.w3.org/1999/xlink" version="1.1" x="0px" y="0px" viewBox="0 0 100 100" enable-background="new 0 0 100 100" xml:space="preserve"><polygon fill="#0F131C" points="50.176,73.321 50.176,50.83 28.806,57.796 "></polygon><polygon fill="#0F131C" points="51.137,73.322 72.543,57.796 51.137,50.83 "></polygon><polygon fill="#0F131C" points="14.068,38.792 14.068,55.532 16.374,39.533 "></polygon><polygon fill="#0F131C" points="83.363,38.214 73.521,19.536 65.572,30.468 "></polygon><polygon fill="#0F131C" points="64.795,29.904 72.746,18.974 51.923,15.364 "></polygon><polygon fill="#0F131C" points="64.665,31.714 51.432,49.917 72.84,56.884 "></polygon><polygon fill="#0F131C" points="83.736,39.425 65.619,31.536 73.715,56.468 "></polygon><polygon fill="#0F131C" points="73.008,58.646 51.801,74.026 71.117,78.326 "></polygon><polygon fill="#0F131C" points="63.765,30.188 50.656,15.381 37.565,30.188 "></polygon><polygon fill="#0F131C" points="50.176,11.868 34.35,17.001 50.176,14.253 "></polygon><polygon fill="#0F131C" points="36.666,31.715 28.51,56.884 49.881,49.917 "></polygon><polygon fill="#0F131C" points="24.211,24.334 14.365,37.878 16.671,38.62 "></polygon><polygon fill="#0F131C" points="35.761,30.467 27.827,19.538 17.971,38.213 "></polygon><polygon fill="#0F131C" points="49.391,15.364 28.604,18.974 36.536,29.903 "></polygon><polygon fill="#0F131C" points="49.514,74.026 28.342,58.646 30.214,78.326 "></polygon><polygon fill="#0F131C" points="17.596,39.425 27.635,56.468 35.715,31.535 "></polygon><polygon fill="#0F131C" points="51.137,11.868 51.137,14.253 66.991,17.001 "></polygon><polygon fill="#0F131C" points="86.984,37.878 77.121,24.308 84.662,38.62 "></polygon><polygon fill="#0F131C" points="27.341,58.272 14.469,62.444 29.181,77.599 "></polygon><polygon fill="#0F131C" points="17.187,40.621 14.172,61.532 27.045,57.36 "></polygon><polygon fill="#0F131C" points="51.137,74.862 51.137,88.398 70.104,79.084 "></polygon><polygon fill="#0F131C" points="37.442,31.149 50.656,49.353 63.889,31.149 "></polygon><polygon fill="#0F131C" points="50.176,88.398 50.176,74.862 31.227,79.084 "></polygon><polygon fill="#0F131C" points="17.942,67.4 27.762,80.907 29.164,78.959 "></polygon><polygon fill="#0F131C" points="28.536,81.472 44.397,86.629 29.938,79.522 "></polygon><polygon fill="#0F131C" points="56.908,86.635 72.811,81.473 71.394,79.522 "></polygon><polygon fill="#0F131C" points="74.305,57.36 87.178,61.53 84.146,40.622 "></polygon><polygon fill="#0F131C" points="87.282,55.567 87.282,38.789 84.958,39.533 "></polygon><polygon fill="#0F131C" points="72.153,77.599 86.88,62.444 74.008,58.272 "></polygon><polygon fill="#0F131C" points="73.588,80.91 83.424,67.378 72.17,78.958 "></polygon></svg>