<svg fill="#FFFFFF" xmlns="http://www.w3.org/2000/svg" xmlns:xlink="http://www.w3.org/1999/xlink" version="1.1" x="0px" y="0px" viewBox="0 0 100 100" enable-background="new 0 0 100 100" xml:space="preserve"><path fill="#FFFFFF" d="M89.432,90.619c-0.74,0-1.363,0.482-1.594,1.15l-9.242-2.051c0.006-0.057,0.018-0.112,0.018-0.17  c0-0.941-0.771-1.707-1.719-1.707c-0.283,0-0.546,0.076-0.781,0.201l-3.448-5.154c0.367-0.312,0.605-0.774,0.605-1.295  c0-0.941-0.761-1.708-1.695-1.708c-0.422,0-0.804,0.157-1.103,0.409l-5.816-5.512c0.213-0.284,0.343-0.634,0.343-1.017  c0-0.87-0.653-1.583-1.491-1.686l0.082-8.499c0.439-0.092,0.77-0.462,0.77-0.922c0-0.303-0.148-0.563-0.369-0.74l5.249-10.531  c0.175,0.061,0.359,0.102,0.555,0.102c0.948,0,1.72-0.766,1.72-1.706c0-0.726-0.46-1.342-1.104-1.589l9.397-37.485  c0.067,0.008,0.134,0.021,0.203,0.021c0.947,0,1.719-0.766,1.719-1.707c0-0.536-0.255-1.008-0.645-1.321l0.924-1.483  c0.102,0.036,0.208,0.063,0.323,0.063c0.538,0,0.96-0.422,0.96-0.962c0-0.526-0.422-0.96-0.96-0.96c-0.541,0-0.961,0.434-0.961,0.96  c0,0.277,0.112,0.52,0.293,0.694l-0.918,1.474c-0.224-0.106-0.471-0.171-0.735-0.171c-0.935,0-1.694,0.766-1.694,1.707  c0,0.73,0.46,1.351,1.102,1.593L70.021,48.1c-0.075-0.01-0.149-0.023-0.227-0.023c-0.156,0-0.304,0.028-0.447,0.068l-5.649-13.471  c0.522-0.293,0.88-0.843,0.88-1.48c0-0.941-0.771-1.707-1.719-1.707c-0.345,0-0.665,0.105-0.933,0.284L48.943,16.546  c0.122-0.161,0.207-0.354,0.207-0.575c0-0.527-0.422-0.949-0.96-0.949c-0.516,0-0.961,0.421-0.961,0.949  c0,0.538,0.445,0.96,0.961,0.96c0.167,0,0.315-0.051,0.45-0.124l12.982,15.226c-0.282,0.305-0.459,0.711-0.459,1.16  c0,0.941,0.76,1.707,1.694,1.707c0.164,0,0.319-0.03,0.47-0.073l5.648,13.471c-0.521,0.292-0.877,0.845-0.877,1.486  c0,0.601,0.312,1.127,0.779,1.432l-5.248,10.529c-0.076-0.02-0.149-0.047-0.232-0.047c-0.33,0-0.618,0.188-0.792,0.455  l-13.055-4.835c0.03-0.129,0.052-0.262,0.052-0.4c0-0.941-0.76-1.706-1.694-1.706c-0.947,0-1.719,0.765-1.719,1.706  c0,0.688,0.413,1.277,1.004,1.548l-2.746,8.481c-0.101-0.019-0.205-0.031-0.312-0.031c-0.79,0-1.451,0.536-1.65,1.259l-17.529-2.69  c-0.017-0.252-0.127-0.477-0.303-0.639l4.512-7.588c0.096,0.031,0.194,0.059,0.303,0.059c0.515,0,0.96-0.422,0.96-0.96  c0-0.413-0.275-0.759-0.641-0.894l1.404-9.477c0.509-0.033,0.9-0.442,0.9-0.948c0-0.527-0.422-0.961-0.963-0.961  c-0.145,0-0.279,0.041-0.405,0.102l-4.639-6.075c0.146-0.169,0.242-0.383,0.242-0.623c0-0.526-0.423-0.96-0.961-0.96  c-0.226,0-0.431,0.094-0.598,0.231l-9.374-7.426c0.063-0.129,0.106-0.268,0.106-0.421c0-0.527-0.422-0.961-0.96-0.961  c-0.54,0-0.962,0.434-0.962,0.961c0,0.527,0.422,0.961,0.962,0.961c0.234,0,0.438-0.093,0.603-0.229l9.375,7.419  c-0.067,0.13-0.114,0.271-0.114,0.424c0,0.528,0.447,0.96,0.962,0.96c0.147,0,0.283-0.038,0.407-0.096l4.638,6.081  c-0.145,0.168-0.242,0.377-0.242,0.612c0,0.407,0.269,0.753,0.627,0.892l-1.392,9.479c-0.508,0.034-0.899,0.442-0.899,0.947  c0,0.283,0.121,0.529,0.312,0.704l-4.509,7.582c-0.096-0.033-0.195-0.062-0.301-0.062c-0.367,0-0.669,0.21-0.831,0.506l-12.33-3.656  c0.002-0.024,0.015-0.046,0.015-0.071c0-0.539-0.444-0.961-0.96-0.961c-0.538,0-0.96,0.422-0.96,0.961  c0,0.527,0.422,0.961,0.96,0.961c0.353,0,0.66-0.211,0.827-0.508l12.334,3.657c-0.002,0.024-0.015,0.046-0.015,0.071  c0,0.528,0.422,0.961,0.96,0.961c0.398,0,0.749-0.26,0.891-0.621l17.525,2.689c-0.001,0.018-0.006,0.035-0.006,0.053  c0,0.941,0.771,1.706,1.719,1.706c0.711,0,1.318-0.444,1.57-1.069l15.903,4.27c-0.012,0.078-0.024,0.156-0.024,0.237  c0,0.94,0.771,1.706,1.717,1.706c0.411,0,0.784-0.153,1.078-0.399l5.815,5.512c-0.21,0.283-0.339,0.63-0.339,1.009  c0,0.94,0.771,1.705,1.718,1.705c0.273,0,0.528-0.071,0.758-0.188l3.451,5.158c-0.354,0.312-0.584,0.768-0.584,1.279  c0,0.94,0.76,1.706,1.694,1.706c0.748,0,1.381-0.481,1.615-1.146l9.244,2.051c-0.006,0.055-0.017,0.108-0.017,0.165  c0,0.94,0.76,1.706,1.694,1.706s1.694-0.766,1.694-1.706S90.366,90.619,89.432,90.619z M80.011,8.316  c0.403,0,0.719,0.311,0.719,0.707c0,0.396-0.315,0.707-0.719,0.707c-0.383,0-0.694-0.317-0.694-0.707S79.628,8.316,80.011,8.316z   M62.164,33.193c0-0.39,0.312-0.707,0.694-0.707c0.403,0,0.719,0.311,0.719,0.707c0,0.39-0.322,0.707-0.719,0.707  C62.482,33.9,62.164,33.576,62.164,33.193z M70.514,49.784c0,0.396-0.316,0.706-0.72,0.706c-0.383,0-0.694-0.316-0.694-0.706  c0-0.39,0.312-0.708,0.694-0.708C70.197,49.077,70.514,49.387,70.514,49.784z M47.909,56.212c0.383,0,0.694,0.317,0.694,0.706  c0,0.391-0.312,0.707-0.694,0.707c-0.403,0-0.719-0.311-0.719-0.707S47.506,56.212,47.909,56.212z M44.137,69.329  c-0.403,0-0.719-0.31-0.719-0.706s0.315-0.707,0.719-0.707c0.384,0,0.695,0.317,0.695,0.707S44.521,69.329,44.137,69.329z   M45.807,68.872c0.013-0.082,0.025-0.163,0.025-0.249c0-0.691-0.413-1.286-1.002-1.555l2.744-8.477  c0.108,0.021,0.221,0.033,0.335,0.033c0.656,0,1.22-0.381,1.501-0.932l13.054,4.834c-0.007,0.045-0.027,0.086-0.027,0.133  c0,0.452,0.334,0.816,0.753,0.917l-0.082,8.503c-0.638,0.072-1.17,0.488-1.398,1.062L45.807,68.872z M63.303,74.473  c-0.402,0-0.717-0.311-0.717-0.706c0-0.39,0.321-0.706,0.717-0.706c0.377,0,0.696,0.323,0.696,0.706  C63.999,74.156,63.687,74.473,63.303,74.473z M70.857,81.594c0-0.391,0.322-0.708,0.718-0.708c0.377,0,0.695,0.324,0.695,0.708  c0,0.389-0.312,0.705-0.695,0.705C71.173,82.299,70.857,81.989,70.857,81.594z M76.895,90.255c-0.383,0-0.694-0.317-0.694-0.706  c0-0.391,0.312-0.707,0.694-0.707c0.39,0,0.719,0.323,0.719,0.707C77.613,89.932,77.284,90.255,76.895,90.255z M89.432,93.031  c-0.383,0-0.694-0.316-0.694-0.706s0.312-0.706,0.694-0.706s0.694,0.316,0.694,0.706S89.814,93.031,89.432,93.031z"></path></svg>