<svg fill="#0F131C" xmlns="http://www.w3.org/2000/svg" xmlns:xlink="http://www.w3.org/1999/xlink" version="1.1" x="0px" y="0px" viewBox="0 0 95 95" enable-background="new 0 0 95 95" xml:space="preserve"><g><path d="M89.311,17.967c-0.204-0.786-1.06-1.292-1.852-1.085l-0.758,0.199c-0.054-0.26-0.025-0.443,0.013-0.694   c0.038-0.229,0.078-0.49,0.065-0.863c-0.024-0.625-0.067-1.602-0.817-1.506c-0.147,0.02-0.262,0.081-0.339,0.182   c-0.142,0.188-0.107,0.428-0.054,0.792c0.025,0.191,0.062,0.43,0.078,0.722c0.037,0.57-0.113,0.89-0.315,1.333   c-0.106,0.229-0.226,0.49-0.334,0.817c-0.347,1.057,0.224,1.929,0.249,1.965l0.171,0.258l0.02-0.016l0.047,0.181   c0.167,0.644,0.751,1.11,1.415,1.134c0.146,0.004,0.293-0.012,0.437-0.049l1.206-0.314c0.81-0.21,1.295-1.042,1.084-1.851   L89.311,17.967z"></path><path d="M89.109,16.695c0.173,0.006,0.344-0.069,0.454-0.218l1.704-2.309c0.179-0.241,0.128-0.579-0.113-0.757   c-0.241-0.177-0.576-0.126-0.755,0.115l-1.706,2.308c-0.177,0.24-0.126,0.58,0.115,0.757   C88.899,16.657,89.004,16.692,89.109,16.695z"></path><path d="M93.103,15.858c0.25-0.163,0.323-0.497,0.16-0.747c-0.161-0.251-0.498-0.325-0.748-0.162l-2.733,1.765   c-0.25,0.161-0.323,0.496-0.161,0.747c0.1,0.155,0.266,0.241,0.437,0.247c0.107,0.004,0.214-0.023,0.311-0.086L93.103,15.858z"></path><path d="M90.72,18.873c0.055,0.002,0.11-0.006,0.166-0.021l2.812-0.793c0.289-0.082,0.455-0.381,0.374-0.668   s-0.381-0.454-0.667-0.374l-2.813,0.794c-0.288,0.08-0.456,0.38-0.372,0.667C90.283,18.71,90.49,18.864,90.72,18.873z"></path><path d="M93.547,19.441l-2.731-0.267c-0.302-0.026-0.562,0.187-0.592,0.485c-0.03,0.297,0.189,0.562,0.487,0.591l2.731,0.267   c0.014,0.001,0.024,0.001,0.034,0.002c0.285,0.011,0.53-0.202,0.557-0.488C94.063,19.735,93.844,19.47,93.547,19.441z"></path><path d="M6.092,37.456c0.292,0.76,1.199,1.166,1.961,0.87l0.731-0.281c0.084,0.251,0.076,0.437,0.065,0.69   c-0.009,0.233-0.021,0.495,0.033,0.865c0.094,0.619,0.246,1.584,0.98,1.405c0.146-0.036,0.251-0.11,0.317-0.22   c0.12-0.203,0.059-0.437-0.034-0.793c-0.048-0.186-0.11-0.421-0.161-0.708c-0.099-0.562,0.011-0.896,0.164-1.36   c0.081-0.24,0.169-0.512,0.24-0.852c0.227-1.087-0.438-1.891-0.466-1.924L9.721,34.91l-0.016,0.019l-0.068-0.175   c-0.24-0.621-0.871-1.018-1.533-0.966c-0.147,0.012-0.291,0.043-0.428,0.097l-1.163,0.449c-0.782,0.299-1.17,1.18-0.87,1.96   L6.092,37.456z"></path><path d="M5.86,39.05l-1.637,2.357c-0.17,0.245-0.109,0.582,0.137,0.753c0.088,0.061,0.188,0.092,0.288,0.096   c0.178,0.006,0.356-0.075,0.464-0.232l1.636-2.358c0.17-0.245,0.11-0.581-0.137-0.751C6.366,38.745,6.031,38.804,5.86,39.05z"></path><path d="M2.562,39.978c-0.231,0.189-0.266,0.53-0.077,0.761c0.104,0.125,0.25,0.193,0.4,0.198c0.128,0.004,0.256-0.036,0.362-0.123   l2.519-2.061c0.231-0.188,0.266-0.531,0.077-0.762c-0.189-0.23-0.53-0.265-0.762-0.076L2.562,39.978z"></path><path d="M4.494,36.709L1.876,38.01c-0.268,0.132-0.377,0.457-0.244,0.725c0.085,0.173,0.252,0.279,0.432,0.297   c0.098,0.01,0.198-0.007,0.292-0.054l2.619-1.3c0.268-0.133,0.376-0.458,0.244-0.725C5.086,36.687,4.762,36.576,4.494,36.709z"></path><path d="M1.806,37.198c0.059,0.002,0.121-0.007,0.181-0.026l2.621-0.818c0.285-0.089,0.444-0.393,0.355-0.677   c-0.09-0.286-0.393-0.446-0.678-0.355l-2.62,0.819c-0.286,0.088-0.444,0.392-0.355,0.678C1.38,37.043,1.583,37.19,1.806,37.198z"></path><path d="M84.239,20.402c-1.358,0.432-8.634,2.395-10.521,3.078c-4.009,1.451-4.453,1.938-4.453,1.938s-4.602-1.786-7.605-2.906   c-3.005-1.12-7.972-3.199-9.239-3.716c-1.268-0.519-3.474,0.013-3.474,0.013l1.096-5.554c0,0,1.119,2.035,1.604,2.281   c0.487,0.246,1.033,0.352,1.479-0.213c0.444-0.565,1.201-1.619,1.201-1.619l2.196,0.561l0.971-7.695l1.813-1.185   c0,0-0.647-0.71-2.479-2.103C54.996,1.886,52.59,1.2,50.928,1.762c-1.663,0.56-4.632,5.137-4.632,5.137l2.013,3.508   c0,0-0.209,1.696-1.808,3.535c-1.947,2.242-4.23,2.942-4.23,2.942s-0.646-1.379-2.68-1.379c-2.074,0-3.279,2.496-3.279,2.496   l-12.562,4.189c0,0-1.438-1.126-3.807,0.544c-1.87,1.319-8.645,9.442-9.516,10.289c-0.47,0.456-0.552,0.832-0.313,1.184   c0.24,0.354,0.743,0.389,1.197,0.06c2.495-1.799,10.667-7.695,11.841-8.512c1.387-0.966,1.474-1.503,1.474-1.503l12.969-1.375   c0,0-0.046,1.31-0.234,4.752c-0.188,3.445,0.888,8.705,0.888,8.705l-1.61,4.235c0,0-2.59-1.376-5.062,1.582   c-2.471,2.958-0.448,7.02-0.448,7.02s-2.005,5.072-2.765,7.48c-0.761,2.41-3.294,9.085-3.777,9.34   c-0.482,0.254-2.337-1.365-8.025,3.447c-3.458,2.926-8.38,9.104-8.38,9.104l-3.96,2.973c0,0-1.577-1.34-2.332-1.028   s-1.189,1.107-0.884,2.067c0.305,0.956,1.583,3.098,2.022,4.062c0.44,0.963,0.722,4.49,0.722,4.49s0.862,1.192,1.295,1.669   c0.516,0.568,1.191,0.785,1.4,0.59c0.384-0.358-1.191-2.681-1.191-2.681s0.263-1.525,0.307-3.496   c0.046-2.091,0.02-3.933,0.02-3.933s4.738-3.962,9.396-7.521c4.657-3.559,9.463-5.554,9.463-5.554s-0.062-0.205,0.333,0.146   s1.064,0.511,1.841-0.409c0.689-0.818,9.998-13.481,12.081-16.314c-1.739-0.561-3.871-1.754-4.67-4.297   c-1.155-3.676,2.109-5.735,2.142-5.755c0.134-0.083,0.31-0.041,0.393,0.093c0.083,0.134,0.041,0.31-0.093,0.393   c-0.12,0.074-2.918,1.853-1.897,5.099c0.755,2.403,3.383,3.66,4.542,3.898c1.16,0.239,20.325,1.653,20.325,1.653   s0.987,3.06,2.047,5.602c1.078,2.586,4.841,7.769,4.841,7.769l2.835,7.612c0,0-0.496,0.66-0.857,1.323   c-0.362,0.664-0.465,1.676,0.59,2.456c1.055,0.781,2.661-0.335,4.17-0.262C74.725,79.269,77.25,81,77.25,81   s1.152-0.096,1.903-0.272c0.75-0.177,1.154-0.743,1.028-1.018c-0.127-0.277-0.391-0.421-1.005-0.307   c-0.611,0.115-1.36,0.223-1.36,0.223s-2.049-1.357-3.638-2.36s-3.554-1.891-3.554-1.891s-5.147-19.275-5.375-20.5   c-0.229-1.228-0.415-2.227-0.945-2.516c-0.531-0.289-4.318-2.315-9.794-4.333c-5.477-2.019-11.163-3.908-11.163-3.908   s2.585-4.241,4.492-8.503c1.91-4.263,4.214-10.204,4.214-10.204s5.416,0.491,9.529,0.838c4.116,0.347,7.555,0.887,7.555,0.887   s0.632,0.738,2.049,0.738c0.9,0,2.564-0.508,3.938-1.312c1.786-1.046,8.208-4.405,9.517-5.293c0.207-0.14,0.183-0.516,0.094-0.678   C84.65,20.43,84.462,20.333,84.239,20.402z M54.852,8.619c0.323-0.018,0.6,0.231,0.616,0.554c0.017,0.324-0.231,0.6-0.555,0.617   c-0.324,0.017-0.601-0.233-0.617-0.556C54.279,8.912,54.526,8.636,54.852,8.619z"></path></g></svg>