<svg fill="#FFFFFF" xmlns="http://www.w3.org/2000/svg" xmlns:xlink="http://www.w3.org/1999/xlink" version="1.1" x="0px" y="0px" viewBox="0 0 100 100" enable-background="new 0 0 100 100" xml:space="preserve"><path fill="#FFFFFF" d="M87.201,46.09c-0.61,0-1.078,0.468-1.078,1.054c0,0.024,0.012,0.045,0.014,0.069l-5.946,1.538  c-0.268-0.684-0.93-1.171-1.708-1.171s-1.427,0.462-1.698,1.132L55.85,42.517c0.018-0.104,0.031-0.208,0.031-0.318  c0-1.012-0.824-1.835-1.837-1.835c-0.628,0-1.192,0.334-1.524,0.831l-13.301-6.852c0.03-0.096,0.062-0.192,0.062-0.298  c0-0.609-0.491-1.078-1.077-1.078c-0.132,0-0.255,0.031-0.371,0.075l-4.097-6.805c0.221-0.199,0.368-0.479,0.368-0.792  c0-0.585-0.493-1.055-1.078-1.055c-0.115,0-0.22,0.031-0.323,0.065l-4.098-7.338c0.465-0.333,0.771-0.876,0.771-1.491  c0-0.356-0.102-0.683-0.271-0.961l9.175-7.102c0.186,0.171,0.426,0.285,0.697,0.285c0.607,0,1.077-0.492,1.077-1.077  c0-0.586-0.47-1.056-1.077-1.056c-0.587,0-1.055,0.469-1.055,1.056c0,0.17,0.049,0.327,0.119,0.472l-9.178,7.104  c-0.331-0.343-0.797-0.555-1.322-0.555c-1.012,0-1.834,0.823-1.834,1.835c0,0.995,0.84,1.836,1.834,1.836  c0.254,0,0.496-0.052,0.716-0.146l4.095,7.332c-0.229,0.193-0.382,0.472-0.382,0.796c0,0.586,0.47,1.079,1.056,1.079  c0.13,0,0.253-0.032,0.37-0.077l4.098,6.806c-0.21,0.195-0.345,0.471-0.345,0.792c0,0.452,0.282,0.829,0.68,0.979l-2.503,14.278  c-0.041-0.002-0.08-0.012-0.121-0.012c-0.792,0-1.479,0.535-1.729,1.253l-18.97-4.366c0.001-0.015,0.009-0.026,0.009-0.041  c0-0.609-0.492-1.079-1.078-1.079s-1.056,0.469-1.056,1.079c0,0.584,0.47,1.053,1.056,1.053c0.431,0,0.807-0.256,0.979-0.622  l18.974,4.368c-0.008,0.063-0.021,0.126-0.021,0.191c0,0.518,0.211,0.985,0.549,1.322l-10.88,13.702  c-0.146-0.072-0.307-0.122-0.485-0.122c-0.587,0-1.056,0.469-1.056,1.055c0,0.61,0.469,1.08,1.056,1.08  c0.608,0,1.077-0.47,1.077-1.08c0-0.269-0.107-0.507-0.273-0.692l10.874-13.695c0.284,0.181,0.616,0.29,0.976,0.29  c0.858,0,1.575-0.603,1.775-1.411l11.827,1.559c0.035,0.555,0.502,0.993,1.065,0.993c0.086,0,0.161-0.029,0.24-0.048l7.114,15.562  c-0.534,0.32-0.896,0.899-0.896,1.566c0,0.332,0.1,0.643,0.262,0.915l-5.723,4.217c-0.192-0.17-0.441-0.279-0.716-0.279  c-0.587,0-1.056,0.468-1.056,1.054c0,0.104,0.031,0.199,0.059,0.295l-6.518,3.406c-0.199-0.249-0.491-0.42-0.828-0.42  c-0.586,0-1.054,0.491-1.054,1.077c0,0.061,0.024,0.113,0.034,0.172l-4.645,1.758c-0.191-0.306-0.517-0.524-0.896-0.524  c-0.586,0-1.055,0.492-1.055,1.078c0,0.294,0.119,0.559,0.311,0.749l-1.752,2.603c-0.257-0.136-0.545-0.221-0.855-0.221  c-0.995,0-1.836,0.841-1.836,1.836c0,1.013,0.823,1.837,1.836,1.837c1.029,0,1.836-0.807,1.836-1.837c0-0.559-0.256-1.054-0.65-1.39  l1.754-2.605c0.126,0.053,0.266,0.082,0.412,0.082c0.585,0,1.076-0.468,1.076-1.054c0-0.063-0.026-0.119-0.037-0.18l4.641-1.758  c0.186,0.3,0.5,0.509,0.881,0.509c0.587,0,1.078-0.471,1.078-1.055c0-0.107-0.032-0.206-0.062-0.305l6.509-3.403  c0.192,0.252,0.479,0.427,0.818,0.427c0.585,0,1.077-0.492,1.077-1.077c0-0.167-0.048-0.318-0.118-0.458l5.717-4.212  c0.338,0.365,0.814,0.601,1.337,0.601c0.457,0,0.871-0.174,1.192-0.452l18.562,17.455c-0.237,0.308-0.383,0.688-0.383,1.103  c0,1.012,0.834,1.835,1.858,1.835c1.012,0,1.834-0.823,1.834-1.835s-0.822-1.835-1.834-1.835c-0.459,0-0.874,0.172-1.199,0.445  L59.634,72.302c0.229-0.307,0.37-0.683,0.37-1.094c0-1.028-0.807-1.834-1.836-1.834c-0.203,0-0.395,0.041-0.577,0.102l-7.113-15.561  c0.267-0.19,0.45-0.487,0.45-0.843c0-0.376-0.204-0.697-0.497-0.891l3.163-8.208c0.146,0.037,0.294,0.062,0.45,0.062  c0.779,0,1.429-0.462,1.7-1.132l20.935,6.194c-0.018,0.104-0.031,0.209-0.031,0.319c0,1.013,0.823,1.837,1.835,1.837  c0.996,0,1.838-0.841,1.838-1.837c0-0.096-0.014-0.188-0.028-0.279l5.94-1.537c0.171,0.361,0.529,0.62,0.969,0.62  c0.586,0,1.054-0.49,1.054-1.077C88.255,46.558,87.787,46.09,87.201,46.09z M26.708,15.626c0-0.46,0.374-0.835,0.834-0.835  c0.476,0,0.835,0.359,0.835,0.835c0,0.461-0.375,0.836-0.835,0.836C27.09,16.462,26.708,16.08,26.708,15.626z M31.9,89.76  c-0.461,0-0.836-0.375-0.836-0.837c0-0.453,0.383-0.836,0.836-0.836c0.461,0,0.836,0.375,0.836,0.836  C32.736,89.4,32.377,89.76,31.9,89.76z M79.398,90.315c0.46,0,0.834,0.375,0.834,0.835s-0.374,0.835-0.834,0.835  c-0.481,0-0.858-0.367-0.858-0.835S78.917,90.315,79.398,90.315z M59.004,71.208c0,0.462-0.375,0.837-0.836,0.837  c-0.453,0-0.836-0.383-0.836-0.837c0-0.46,0.375-0.834,0.836-0.834C58.645,70.374,59.004,70.732,59.004,71.208z M35.205,51.986  c-0.454,0-0.837-0.394-0.837-0.859c0-0.453,0.383-0.836,0.837-0.836c0.46,0,0.835,0.375,0.835,0.836  C36.04,51.608,35.673,51.986,35.205,51.986z M50.06,52.033c-0.063-0.012-0.12-0.039-0.187-0.039c-0.467,0-0.863,0.318-1.009,0.744  l-11.829-1.56c0-0.018,0.005-0.034,0.005-0.052c0-0.833-0.56-1.529-1.32-1.753l2.504-14.278c0.327-0.006,0.611-0.164,0.806-0.4  l13.308,6.855c-0.079,0.203-0.128,0.421-0.128,0.648c0,0.715,0.414,1.329,1.012,1.632L50.06,52.033z M54.044,43.036  c-0.46,0-0.835-0.375-0.835-0.836c0-0.453,0.383-0.835,0.835-0.835c0.462,0,0.837,0.375,0.837,0.835  C54.881,42.676,54.521,43.036,54.044,43.036z M78.482,50.254c-0.46,0-0.835-0.375-0.835-0.837c0-0.478,0.359-0.837,0.835-0.837  c0.462,0,0.838,0.375,0.838,0.837C79.32,49.863,78.929,50.254,78.482,50.254z"></path></svg>