<svg fill="#0F131C" xmlns="http://www.w3.org/2000/svg" xmlns:xlink="http://www.w3.org/1999/xlink" version="1.1" x="0px" y="0px" viewBox="0 0 100 100" enable-background="new 0 0 100 100" xml:space="preserve"><path fill="#0F131C" d="M5.926,93.749c-0.231-0.153-0.541-0.092-0.693,0.139c-0.153,0.229-0.091,0.54,0.139,0.693l0.141,0.094  c0.085,0.057,0.182,0.084,0.277,0.084c0.162,0,0.32-0.078,0.417-0.223c0.153-0.229,0.091-0.54-0.139-0.693L5.926,93.749z"></path><path fill="#0F131C" d="M94.264,93.812l-0.094,0.094c-0.195,0.195-0.195,0.512,0,0.707c0.098,0.098,0.226,0.146,0.354,0.146  s0.256-0.049,0.354-0.146l0.094-0.094c0.195-0.195,0.195-0.512,0-0.707S94.459,93.616,94.264,93.812z"></path><path fill="#0F131C" d="M90.08,93.822l-2.088-1.169v-4.854l4.187-2.386l2.188,1.263c0.079,0.046,0.164,0.067,0.25,0.067  c0.172,0,0.34-0.09,0.434-0.25c0.138-0.239,0.056-0.545-0.184-0.683l-2.188-1.262v-4.861l2.188-1.262  c0.239-0.138,0.321-0.443,0.184-0.683c-0.14-0.24-0.445-0.324-0.684-0.183l-2.19,1.264l-4.185-2.343v-4.854l4.187-2.386l2.188,1.263  c0.079,0.046,0.164,0.067,0.25,0.067c0.172,0,0.34-0.09,0.434-0.25c0.138-0.239,0.056-0.545-0.184-0.683l-2.188-1.262v-4.861  l2.188-1.262c0.239-0.138,0.321-0.443,0.184-0.683c-0.14-0.239-0.445-0.323-0.684-0.183l-2.187,1.262l-4.188-2.43v-4.77l4.182-2.468  l2.182,1.342c0.082,0.051,0.172,0.074,0.262,0.074c0.168,0,0.332-0.085,0.426-0.238c0.145-0.234,0.071-0.543-0.164-0.688  L92.68,52.12v-4.776l2.188-1.262c0.239-0.138,0.321-0.443,0.184-0.683c-0.14-0.239-0.445-0.322-0.684-0.183l-2.187,1.262  l-4.188-2.43v-4.768l4.188-2.43l2.187,1.262c0.079,0.046,0.164,0.067,0.25,0.067c0.172,0,0.34-0.09,0.434-0.25  c0.138-0.239,0.056-0.545-0.184-0.683l-2.188-1.262v-4.814l2.188-1.262c0.239-0.138,0.321-0.443,0.184-0.683  c-0.14-0.24-0.445-0.322-0.684-0.183l-2.187,1.262l-4.188-2.43v-4.77l4.19-2.473l2.185,1.26c0.079,0.046,0.164,0.067,0.25,0.067  c0.172,0,0.34-0.09,0.434-0.25c0.138-0.239,0.056-0.545-0.184-0.683l-2.188-1.262V15l2.188-1.262  c0.239-0.138,0.321-0.443,0.184-0.683c-0.14-0.239-0.445-0.324-0.684-0.183l-2.187,1.262l-4.188-2.43V6.933l2.102-1.261  c0.236-0.142,0.312-0.449,0.171-0.686c-0.142-0.237-0.448-0.314-0.687-0.172l-2.083,1.25l-2.038-1.248  c-0.236-0.144-0.544-0.069-0.688,0.166c-0.145,0.235-0.07,0.543,0.164,0.688l2.059,1.26v4.776l-4.141,2.426l-4.141-2.426V6.93  l2.059-1.26c0.234-0.145,0.309-0.452,0.164-0.688c-0.143-0.235-0.451-0.31-0.688-0.166l-2.041,1.25l-2.131-1.254  c-0.239-0.14-0.545-0.061-0.686,0.177c-0.139,0.238-0.061,0.545,0.178,0.685l2.145,1.262v4.768l-4.231,2.431l-4.144-2.428V6.933  l2.102-1.261c0.236-0.142,0.312-0.449,0.171-0.686c-0.142-0.237-0.449-0.314-0.687-0.172l-2.086,1.252L66.75,4.814  c-0.236-0.143-0.545-0.065-0.687,0.172c-0.142,0.236-0.065,0.544,0.171,0.686l2.102,1.261v4.773l-4.144,2.428l-4.231-2.431V6.936  l2.145-1.262c0.238-0.14,0.316-0.446,0.178-0.685c-0.141-0.237-0.446-0.316-0.686-0.177l-2.131,1.254l-2.041-1.25  c-0.237-0.144-0.544-0.069-0.688,0.166c-0.145,0.235-0.07,0.543,0.164,0.688l2.059,1.26v4.776l-4.141,2.426l-4.141-2.426V6.93  l2.059-1.26c0.234-0.145,0.309-0.452,0.164-0.688c-0.143-0.235-0.451-0.31-0.688-0.166l-2.038,1.248l-2.083-1.25  c-0.237-0.143-0.544-0.065-0.686,0.172c-0.142,0.236-0.065,0.544,0.171,0.686l2.101,1.261v4.772l-4.188,2.429l-4.188-2.429V6.933  l2.101-1.261c0.237-0.142,0.313-0.449,0.171-0.686c-0.143-0.237-0.449-0.314-0.686-0.172l-2.086,1.252l-2.086-1.252  c-0.238-0.143-0.544-0.065-0.686,0.172c-0.142,0.236-0.065,0.544,0.171,0.686l2.101,1.261v4.773l-4.142,2.427l-4.186-2.428V6.933  l2.101-1.261c0.237-0.142,0.313-0.449,0.171-0.686c-0.142-0.237-0.449-0.314-0.686-0.172l-2.086,1.252L29.39,4.814  c-0.237-0.143-0.544-0.065-0.686,0.172c-0.142,0.236-0.065,0.544,0.171,0.686l2.101,1.261v4.772l-4.188,2.429l-4.188-2.429V6.933  l2.101-1.261c0.237-0.142,0.313-0.449,0.171-0.686c-0.142-0.237-0.449-0.314-0.686-0.172l-2.083,1.25l-2.039-1.248  c-0.236-0.144-0.544-0.069-0.688,0.166c-0.145,0.235-0.07,0.543,0.165,0.688l2.058,1.26v4.776l-4.142,2.427l-4.186-2.428V6.933  l2.101-1.261c0.237-0.142,0.313-0.449,0.171-0.686c-0.142-0.237-0.449-0.314-0.686-0.172l-2.086,1.252l-2.086-1.252  c-0.238-0.143-0.544-0.065-0.686,0.172C9.859,5.223,9.936,5.53,10.172,5.672l2.101,1.261v4.772l-4.188,2.43l-2.187-1.262  c-0.24-0.142-0.545-0.057-0.683,0.183s-0.056,0.545,0.183,0.683L7.586,15v4.768l-2.188,1.262c-0.239,0.138-0.321,0.443-0.183,0.683  c0.093,0.16,0.261,0.25,0.434,0.25c0.085,0,0.171-0.021,0.25-0.067l2.185-1.26l4.19,2.473v4.77l-4.188,2.43l-2.187-1.262  c-0.24-0.14-0.545-0.058-0.683,0.183c-0.138,0.239-0.056,0.545,0.183,0.683l2.188,1.262v4.814l-2.188,1.262  c-0.239,0.138-0.321,0.443-0.183,0.683c0.093,0.16,0.261,0.25,0.434,0.25c0.085,0,0.171-0.021,0.25-0.067l2.187-1.262l4.188,2.43  v4.768l-4.188,2.43l-2.187-1.262c-0.24-0.14-0.545-0.057-0.683,0.183s-0.056,0.545,0.183,0.683l2.188,1.262v4.776l-2.2,1.354  c-0.235,0.145-0.308,0.453-0.164,0.688c0.094,0.153,0.258,0.238,0.426,0.238c0.089,0,0.18-0.023,0.262-0.074l2.181-1.342  l4.182,2.468v4.77l-4.188,2.43l-2.187-1.262c-0.24-0.141-0.545-0.057-0.683,0.183s-0.056,0.545,0.183,0.683l2.188,1.262v4.861  l-2.188,1.262c-0.239,0.138-0.321,0.443-0.183,0.683c0.093,0.16,0.261,0.25,0.434,0.25c0.085,0,0.171-0.021,0.25-0.067l2.188-1.263  l4.187,2.386v4.854l-4.185,2.343l-2.19-1.264c-0.24-0.142-0.545-0.058-0.683,0.183c-0.138,0.239-0.056,0.545,0.183,0.683  l2.188,1.262v4.861l-2.188,1.262c-0.239,0.138-0.321,0.443-0.183,0.683c0.093,0.16,0.261,0.25,0.434,0.25  c0.085,0,0.171-0.021,0.25-0.067l2.188-1.263l4.187,2.386v4.854l-2.088,1.169c-0.241,0.135-0.327,0.439-0.192,0.681  c0.091,0.164,0.261,0.256,0.437,0.256c0.083,0,0.167-0.021,0.244-0.063l2.1-1.176l2.1,1.176c0.077,0.043,0.161,0.063,0.244,0.063  c0.175,0,0.345-0.092,0.437-0.256c0.135-0.241,0.049-0.546-0.192-0.681l-2.088-1.169v-4.854l4.186-2.385l4.142,2.385v4.857  l-2.045,1.168c-0.24,0.138-0.323,0.443-0.186,0.683c0.092,0.161,0.261,0.252,0.435,0.252c0.084,0,0.169-0.021,0.248-0.065  l2.052-1.172l2.097,1.174c0.077,0.043,0.161,0.063,0.244,0.063c0.175,0,0.345-0.092,0.437-0.256  c0.135-0.241,0.049-0.546-0.192-0.681l-2.088-1.169v-4.854l4.188-2.387l4.188,2.387v4.854l-2.088,1.169  c-0.241,0.135-0.327,0.439-0.192,0.681c0.091,0.164,0.261,0.256,0.437,0.256c0.083,0,0.167-0.021,0.244-0.063l2.1-1.176l2.1,1.176  c0.077,0.043,0.161,0.063,0.244,0.063c0.175,0,0.345-0.092,0.437-0.256c0.135-0.241,0.049-0.546-0.192-0.681l-2.088-1.169v-4.854  l4.186-2.385l4.142,2.385v4.854l-2.088,1.169c-0.241,0.135-0.327,0.439-0.192,0.681c0.091,0.164,0.261,0.256,0.437,0.256  c0.083,0,0.167-0.021,0.244-0.063l2.1-1.176l2.1,1.176c0.077,0.043,0.161,0.063,0.244,0.063c0.175,0,0.345-0.092,0.437-0.256  c0.135-0.241,0.049-0.546-0.192-0.681l-2.088-1.169v-4.854l4.188-2.387l4.188,2.387v4.854l-2.088,1.169  c-0.241,0.135-0.327,0.439-0.192,0.681c0.091,0.164,0.261,0.256,0.437,0.256c0.083,0,0.167-0.021,0.244-0.063l2.097-1.174  l2.052,1.172c0.078,0.044,0.164,0.065,0.248,0.065c0.174,0,0.342-0.091,0.434-0.252c0.138-0.239,0.055-0.545-0.186-0.683  l-2.045-1.168v-4.857l4.141-2.385l4.141,2.385v4.857l-2.045,1.168c-0.24,0.138-0.323,0.443-0.186,0.683  c0.092,0.161,0.26,0.252,0.434,0.252c0.084,0,0.17-0.021,0.248-0.065l2.054-1.174l2.146,1.178c0.076,0.042,0.158,0.062,0.24,0.062  c0.176,0,0.348-0.094,0.438-0.26c0.133-0.241,0.044-0.546-0.198-0.679l-2.131-1.17v-4.85l4.231-2.389l4.144,2.387v4.854  l-2.088,1.169c-0.241,0.135-0.327,0.439-0.191,0.681c0.091,0.164,0.261,0.256,0.436,0.256c0.083,0,0.167-0.021,0.244-0.063  l2.1-1.176l2.1,1.176c0.077,0.043,0.161,0.063,0.244,0.063c0.175,0,0.345-0.092,0.436-0.256c0.136-0.241,0.05-0.546-0.191-0.681  l-2.088-1.169v-4.854l4.144-2.387l4.231,2.389v4.85l-2.131,1.17c-0.242,0.133-0.331,0.438-0.198,0.679  c0.091,0.166,0.263,0.26,0.438,0.26c0.082,0,0.164-0.02,0.24-0.062l2.146-1.178l2.054,1.174c0.078,0.044,0.164,0.065,0.248,0.065  c0.174,0,0.342-0.091,0.434-0.252c0.138-0.239,0.055-0.545-0.186-0.683l-2.045-1.168v-4.857l4.141-2.385l4.141,2.385v4.857  l-2.045,1.168c-0.24,0.138-0.323,0.443-0.186,0.683c0.092,0.161,0.26,0.252,0.434,0.252c0.084,0,0.17-0.021,0.248-0.065l2.052-1.172  l2.097,1.174c0.077,0.043,0.161,0.063,0.244,0.063c0.175,0,0.345-0.092,0.436-0.256C90.407,94.262,90.321,93.957,90.08,93.822z   M78.208,86.934l-4.231-2.389v-4.851l4.232-2.347l4.143,2.344v4.855L78.208,86.934z M68.836,86.932l-4.141-2.385v-4.855l4.141-2.342  l4.141,2.342v4.855L68.836,86.932z M59.464,86.934l-4.144-2.387v-4.855l4.143-2.344l4.232,2.347v4.851L59.464,86.934z   M50.178,86.932l-4.186-2.385v-4.854l4.186-2.344l4.142,2.343v4.855L50.178,86.932z M40.806,86.932l-4.142-2.385v-4.855l4.142-2.343  l4.186,2.344v4.854L40.806,86.932z M31.477,86.934l-4.188-2.387v-4.854l4.188-2.345l4.188,2.345v4.854L31.477,86.934z   M22.103,86.932l-4.142-2.385v-4.855l4.142-2.343l4.186,2.344v4.854L22.103,86.932z M12.773,86.934l-4.188-2.387v-4.854l4.188-2.345  l4.188,2.345v4.854L12.773,86.934z M8.586,63.516l4.188-2.429l4.188,2.429v4.859l-4.188,2.387l-4.188-2.387V63.516z M8.586,47.344  l4.188-2.429l4.188,2.429v4.77l-4.188,2.471l-4.188-2.471V47.344z M8.586,31.172l4.188-2.429l4.188,2.429v4.814l-4.188,2.429  l-4.188-2.429V31.172z M8.586,15l4.188-2.429L16.961,15v4.77l-4.188,2.471L8.586,19.77V15z M22.103,12.572L26.289,15v4.77  l-4.186,2.471l-4.142-2.469v-4.772L22.103,12.572z M31.477,12.571L35.664,15v4.77l-4.188,2.471l-4.188-2.471V15L31.477,12.571z   M40.806,12.572L44.992,15v4.77l-4.186,2.471l-4.142-2.469v-4.772L40.806,12.572z M50.178,12.572l4.142,2.427v4.772l-4.142,2.469  l-4.186-2.471V15L50.178,12.572z M59.464,12.571l4.231,2.431v4.767l-4.231,2.472l-4.144-2.469v-4.772L59.464,12.571z M68.836,12.573  l4.141,2.426v4.772l-4.141,2.468l-4.141-2.468v-4.772L68.836,12.573z M78.208,12.571l4.144,2.428v4.772l-4.143,2.469l-4.232-2.472  v-4.767L78.208,12.571z M87.494,12.572L91.68,15v4.77l-4.186,2.471l-4.143-2.469v-4.772L87.494,12.572z M91.68,35.986l-4.186,2.428  l-4.143-2.427v-4.816l4.143-2.427l4.186,2.428V35.986z M91.68,52.113l-4.186,2.471l-4.143-2.469v-4.772l4.143-2.427l4.186,2.428  V52.113z M91.68,68.375l-4.186,2.385l-4.143-2.385v-4.86l4.143-2.427l4.186,2.428V68.375z M82.852,78.824l-4.141-2.342v-4.855  l4.141-2.385l4.141,2.385v4.855L82.852,78.824z M73.479,78.826l-4.143-2.344v-4.855l4.144-2.387l4.231,2.389v4.851L73.479,78.826z   M64.193,78.826l-4.232-2.347v-4.851l4.231-2.389l4.144,2.387v4.855L64.193,78.826z M54.82,78.824l-4.141-2.342v-4.855l4.141-2.385  l4.141,2.385v4.855L54.82,78.824z M45.492,78.826l-4.188-2.345v-4.854l4.188-2.387l4.188,2.387v4.854L45.492,78.826z M36.163,78.825  l-4.186-2.344v-4.854l4.186-2.385l4.142,2.385v4.855L36.163,78.825z M26.789,78.826l-4.188-2.345v-4.854l4.188-2.387l4.188,2.387  v4.854L26.789,78.826z M17.459,78.825l-4.186-2.344v-4.854l4.186-2.385l4.142,2.385v4.855L17.459,78.825z M13.273,55.451  l4.186-2.471l4.142,2.469v4.772l-4.142,2.427l-4.186-2.428V55.451z M13.273,39.281l4.186-2.428l4.142,2.427v4.77l-4.142,2.427  l-4.186-2.428V39.281z M13.273,23.107l4.186-2.471l4.142,2.469v4.772l-4.142,2.427l-4.186-2.428V23.107z M26.789,20.637l4.188,2.471  v4.77l-4.188,2.429l-4.188-2.429v-4.77L26.789,20.637z M36.163,20.637l4.142,2.469v4.772l-4.142,2.427l-4.186-2.428v-4.77  L36.163,20.637z M45.492,20.637l4.188,2.471v4.77l-4.188,2.429l-4.188-2.429v-4.77L45.492,20.637z M54.82,20.638l4.141,2.468v4.772  l-4.141,2.426l-4.141-2.426v-4.772L54.82,20.638z M64.192,20.637l4.144,2.469v4.772l-4.144,2.428l-4.231-2.431v-4.767L64.192,20.637  z M73.479,20.637l4.231,2.472v4.767l-4.231,2.431l-4.144-2.428v-4.772L73.479,20.637z M82.852,20.638l4.141,2.468v4.772  l-4.141,2.426l-4.141-2.426v-4.772L82.852,20.638z M86.992,44.05l-4.141,2.426l-4.141-2.426v-4.77l4.141-2.426l4.141,2.426V44.05z   M86.992,60.222l-4.141,2.426l-4.141-2.426v-4.772l4.141-2.468l4.141,2.468V60.222z M78.208,70.762l-4.231-2.389v-4.855l4.231-2.431  l4.144,2.428v4.86L78.208,70.762z M68.836,70.76l-4.141-2.385v-4.86l4.141-2.426l4.141,2.426v4.86L68.836,70.76z M59.464,70.762  l-4.144-2.387v-4.86l4.144-2.428l4.231,2.431v4.855L59.464,70.762z M50.178,70.76l-4.186-2.385v-4.859l4.186-2.428l4.142,2.427v4.86  L50.178,70.76z M40.806,70.76l-4.142-2.385v-4.86l4.142-2.427l4.186,2.428v4.859L40.806,70.76z M31.477,70.762l-4.188-2.387v-4.859  l4.188-2.429l4.188,2.429v4.859L31.477,70.762z M22.103,70.76l-4.142-2.385v-4.86l4.142-2.427l4.186,2.428v4.859L22.103,70.76z   M17.961,47.343l4.142-2.427l4.186,2.428v4.77l-4.186,2.471l-4.142-2.469V47.343z M17.961,31.171l4.142-2.427l4.186,2.428v4.814  l-4.186,2.428l-4.142-2.427V31.171z M31.477,28.743l4.188,2.429v4.814l-4.188,2.429l-4.188-2.429v-4.814L31.477,28.743z   M40.806,28.744l4.186,2.428v4.814l-4.186,2.428l-4.142-2.427v-4.816L40.806,28.744z M50.178,28.744l4.142,2.427v4.816l-4.142,2.427  l-4.186-2.428v-4.814L50.178,28.744z M59.464,28.743l4.231,2.431v4.811l-4.231,2.431l-4.144-2.428v-4.816L59.464,28.743z   M68.836,28.745l4.141,2.426v4.816l-4.141,2.426l-4.141-2.426v-4.816L68.836,28.745z M78.208,28.743l4.144,2.428v4.816l-4.144,2.428  l-4.231-2.431v-4.811L78.208,28.743z M82.352,52.115l-4.143,2.469l-4.232-2.472v-4.767l4.231-2.431l4.144,2.428V52.115z   M73.479,62.649l-4.144-2.428v-4.772l4.144-2.469l4.231,2.472v4.767L73.479,62.649z M64.192,62.649l-4.231-2.431v-4.767l4.231-2.472  l4.144,2.469v4.772L64.192,62.649z M54.82,62.647l-4.141-2.426v-4.772l4.141-2.468l4.141,2.468v4.772L54.82,62.647z M45.492,62.649  l-4.188-2.429v-4.77l4.188-2.471l4.188,2.471v4.77L45.492,62.649z M36.163,62.648l-4.186-2.428v-4.77l4.186-2.471l4.142,2.469v4.772  L36.163,62.648z M26.789,62.649l-4.188-2.429v-4.77l4.188-2.471l4.188,2.471v4.77L26.789,62.649z M22.602,39.281l4.188-2.429  l4.188,2.429v4.768l-4.188,2.429l-4.188-2.429V39.281z M36.163,36.854l4.142,2.427v4.77l-4.142,2.427l-4.186-2.428v-4.768  L36.163,36.854z M45.492,36.853l4.188,2.429v4.768l-4.188,2.429l-4.188-2.429v-4.768L45.492,36.853z M54.82,36.854l4.141,2.426v4.77  l-4.141,2.426L50.68,44.05v-4.77L54.82,36.854z M64.192,36.853l4.144,2.428v4.77l-4.144,2.428l-4.231-2.431v-4.764L64.192,36.853z   M73.479,36.853l4.231,2.431v4.764l-4.231,2.431l-4.144-2.428v-4.77L73.479,36.853z M68.836,54.583l-4.141-2.468v-4.772l4.141-2.426  l4.141,2.426v4.772L68.836,54.583z M59.464,54.584l-4.144-2.469v-4.772l4.144-2.428l4.231,2.431v4.767L59.464,54.584z   M50.178,54.584l-4.186-2.471v-4.77l4.186-2.428l4.142,2.427v4.772L50.178,54.584z M40.806,54.584l-4.142-2.469v-4.772l4.142-2.427  l4.186,2.428v4.77L40.806,54.584z M31.477,54.584l-4.188-2.471v-4.77l4.188-2.429l4.188,2.429v4.77L31.477,54.584z M83.352,79.691  l4.143-2.343l4.186,2.344v4.854l-4.186,2.385l-4.143-2.385V79.691z"></path><path fill="#0F131C" d="M5.649,5.837c0.095,0,0.191-0.027,0.277-0.084l0.141-0.094c0.23-0.153,0.292-0.464,0.139-0.693  C6.052,4.736,5.742,4.673,5.512,4.827L5.371,4.921c-0.23,0.153-0.292,0.464-0.139,0.693C5.329,5.759,5.487,5.837,5.649,5.837z"></path><path fill="#0F131C" d="M94.877,4.89c-0.195-0.195-0.512-0.195-0.707,0s-0.195,0.512,0,0.707l0.094,0.094  c0.098,0.098,0.226,0.146,0.354,0.146s0.256-0.049,0.354-0.146c0.195-0.195,0.195-0.512,0-0.707L94.877,4.89z"></path></svg>