<svg fill="#FFFFFF" xmlns="http://www.w3.org/2000/svg" xmlns:xlink="http://www.w3.org/1999/xlink" version="1.1" x="0px" y="0px" viewBox="0 0 100 100" enable-background="new 0 0 100 100" xml:space="preserve"><path fill="#FFFFFF" d="M8.211,44.346c0.743,0,1.346-0.586,1.394-1.323l4.387-0.353c0.104,0.274,0.366,0.474,0.675,0.474  c0.314,0,0.578-0.207,0.678-0.49l22.294,1.215c0.076,0.325,0.352,0.563,0.694,0.563c0.144,0,0.27-0.052,0.383-0.123l9.906,8.7  c-0.146,0.223-0.232,0.487-0.232,0.773c0,0.313,0.106,0.601,0.28,0.836L36.957,66.243c-0.104-0.059-0.219-0.101-0.346-0.101  c-0.398,0-0.727,0.328-0.727,0.727s0.329,0.727,0.727,0.727c0.04,0,0.074-0.017,0.112-0.023l1.392,2.939  c-0.151,0.133-0.25,0.322-0.25,0.54c0,0.397,0.316,0.726,0.727,0.726c0.164,0,0.307-0.065,0.426-0.158l6.508,5.164  c-0.037,0.086-0.057,0.18-0.057,0.278c0,0.399,0.329,0.727,0.726,0.727c0.197,0,0.376-0.081,0.508-0.21l1.542,0.868  c-0.063,0.16-0.101,0.332-0.101,0.514c0,0.779,0.639,1.413,1.425,1.413c0.637,0,1.17-0.439,1.333-1.035l2.578,0.34  c0.056,0.346,0.345,0.617,0.705,0.617c0.279,0,0.518-0.166,0.64-0.4l10.973,2.097c0.035,0.375,0.339,0.659,0.714,0.659  c0.396,0,0.726-0.316,0.726-0.727c0-0.398-0.329-0.715-0.726-0.715c-0.279,0-0.517,0.16-0.639,0.39l-10.975-2.097  c-0.035-0.365-0.338-0.659-0.713-0.659c-0.295,0-0.551,0.182-0.664,0.438l-2.564-0.339c-0.01-0.771-0.628-1.396-1.389-1.396  c-0.459,0-0.864,0.221-1.125,0.556l-1.556-0.876c0.013-0.054,0.033-0.105,0.033-0.163c0-0.397-0.329-0.727-0.727-0.727  c-0.156,0-0.293,0.062-0.412,0.146l-6.53-5.162c0.032-0.083,0.053-0.173,0.053-0.268c0-0.399-0.316-0.727-0.714-0.727  c-0.04,0-0.074,0.017-0.112,0.022l-1.393-2.941c0.151-0.133,0.251-0.322,0.251-0.537c0-0.126-0.041-0.239-0.099-0.343l11.712-11.624  c0.238,0.182,0.531,0.293,0.853,0.293c0.78,0,1.414-0.634,1.414-1.413c0-0.056-0.011-0.108-0.017-0.163l12.039-3.2  c0.215,0.507,0.718,0.864,1.303,0.864c0.779,0,1.414-0.635,1.414-1.414c0-0.7-0.514-1.278-1.182-1.39l0.217-12.353  c0.688-0.094,1.223-0.675,1.223-1.383c0-0.1-0.012-0.197-0.031-0.291l5.258-1.912c0.133,0.182,0.336,0.305,0.576,0.305  c0.214,0,0.402-0.097,0.537-0.246l10.711,5.188c-0.007,0.04-0.023,0.076-0.023,0.118c0,0.399,0.327,0.727,0.727,0.727  c0.041,0,0.075-0.017,0.113-0.022l6.229,13.048c-0.14,0.133-0.228,0.319-0.228,0.53c0,0.398,0.305,0.727,0.703,0.727  c0.422,0,0.727-0.328,0.727-0.727s-0.305-0.727-0.727-0.727c-0.041,0-0.076,0.017-0.114,0.023l-6.225-13.038  c0.15-0.134,0.246-0.323,0.246-0.541c0-0.398-0.305-0.726-0.726-0.726c-0.213,0-0.401,0.097-0.535,0.245l-9.918-4.804l10.09,2.013  c0.033,0.366,0.316,0.66,0.691,0.66c0.072,0,0.137-0.021,0.201-0.04l7.764,12.116c-0.111,0.128-0.186,0.291-0.186,0.472  c0,0.398,0.327,0.727,0.727,0.727c0.397,0,0.725-0.328,0.725-0.727s-0.327-0.727-0.725-0.727c-0.072,0-0.137,0.021-0.202,0.041  L84.84,35.045c0.112-0.128,0.183-0.293,0.183-0.478c0-0.411-0.304-0.727-0.726-0.727c-0.281,0-0.51,0.162-0.623,0.398l-10.942-2.183  c-0.034-0.367-0.339-0.652-0.714-0.652c-0.397,0-0.727,0.315-0.727,0.714c0,0.017,0.009,0.031,0.01,0.048l-5.26,1.912  c-0.239-0.443-0.703-0.749-1.24-0.749c-0.652,0-1.195,0.46-1.346,1.076l-21-2.01c-0.063-0.333-0.339-0.592-0.701-0.592  c-0.127,0-0.24,0.042-0.343,0.102l-14.85-14.782c0.053-0.102,0.091-0.213,0.091-0.339c0-0.399-0.317-0.715-0.715-0.715  c-0.41,0-0.726,0.316-0.726,0.715c0,0.172,0.065,0.321,0.161,0.443L11.945,35.882c-0.077-0.027-0.157-0.049-0.243-0.049  c-0.398,0-0.727,0.329-0.727,0.727c0,0.201,0.083,0.382,0.217,0.514l-2.494,4.549c-0.152-0.057-0.315-0.092-0.487-0.092  c-0.779,0-1.414,0.629-1.414,1.402C6.797,43.712,7.432,44.346,8.211,44.346z M49.569,78.545c0.215,0,0.391,0.186,0.391,0.415  c0,0.228-0.175,0.413-0.391,0.413c-0.234,0-0.425-0.186-0.425-0.413C49.144,78.73,49.334,78.545,49.569,78.545z M49.804,54.195  c-0.221,0-0.414-0.193-0.414-0.413c0-0.221,0.193-0.414,0.414-0.414c0.232,0,0.414,0.182,0.414,0.414  C50.218,54.014,50.036,54.195,49.804,54.195z M51.105,53.23c-0.215-0.506-0.718-0.862-1.302-0.862c-0.35,0-0.667,0.133-0.914,0.344  l-9.903-8.697c0.044-0.094,0.073-0.196,0.073-0.309c0-0.252-0.139-0.46-0.336-0.588l1.157-3.75c0.073,0.012,0.146,0.022,0.222,0.022  c0.773,0,1.403-0.634,1.403-1.414c0-0.565-0.333-1.051-0.81-1.277l1.048-3.447c0.004,0,0.007,0.002,0.011,0.002  c0.313,0,0.57-0.192,0.675-0.461l20.987,2.009c0.029,0.673,0.528,1.221,1.176,1.321l-0.217,12.348  c-0.71,0.082-1.246,0.662-1.246,1.397c0,0.055,0.01,0.107,0.016,0.161L51.105,53.23z M40.505,37.977  c0,0.232-0.177,0.414-0.403,0.414c-0.228,0-0.414-0.186-0.414-0.414s0.186-0.414,0.414-0.414  C40.328,37.562,40.505,37.744,40.505,37.977z M64.957,49.869c0,0.22-0.193,0.414-0.414,0.414c-0.232,0-0.414-0.182-0.414-0.414  c0-0.236,0.178-0.414,0.414-0.414C64.768,49.456,64.957,49.645,64.957,49.869z M64.801,34.329c0.232,0,0.414,0.182,0.414,0.414  c0,0.226-0.182,0.402-0.414,0.402c-0.212,0-0.391-0.184-0.391-0.402C64.41,34.515,64.585,34.329,64.801,34.329z M11.548,37.254  c0.051,0.012,0.1,0.031,0.154,0.031c0.398,0,0.727-0.327,0.727-0.726c0-0.167-0.067-0.316-0.164-0.439l13.431-18.659  c0.076,0.026,0.155,0.047,0.242,0.047c0.128,0,0.242-0.042,0.345-0.1l14.85,14.783c-0.054,0.102-0.092,0.213-0.092,0.337  c0,0.25,0.133,0.462,0.325,0.593l-1.053,3.462c-0.069-0.011-0.138-0.021-0.209-0.021c-0.779,0-1.414,0.634-1.414,1.414  c0,0.563,0.333,1.046,0.81,1.273l-1.155,3.743c-0.004,0-0.007-0.002-0.011-0.002c-0.313,0-0.577,0.199-0.678,0.478l-22.294-1.213  c-0.076-0.319-0.352-0.564-0.694-0.564c-0.347,0-0.627,0.253-0.697,0.581l-4.393,0.352c-0.075-0.33-0.266-0.612-0.528-0.809  L11.548,37.254z M8.211,42.53c0.222,0,0.402,0.181,0.402,0.402c0,0.224-0.184,0.414-0.402,0.414c-0.228,0-0.414-0.186-0.414-0.414  C7.797,42.707,7.979,42.53,8.211,42.53z"></path></svg>