<svg fill="#00DCFF" xmlns="http://www.w3.org/2000/svg" xmlns:xlink="http://www.w3.org/1999/xlink" version="1.1" x="0px" y="0px" viewBox="0 0 612 792" style="enable-background:new 0 0 612 792;" xml:space="preserve"><g><polygon points="280.7,245.9 259.1,352.5 306.2,352.5  "></polygon><polygon points="93.9,392.5 137.5,432 193.2,391 144.4,359.7  "></polygon><polygon points="197,359 196.5,359 155.5,359 197,385.7  "></polygon><polygon points="203.6,386.1 245.1,359 203.6,359  "></polygon><polygon points="314.7,392.5 358.2,432 413.9,391 365.2,359.7  "></polygon><polygon points="314.9,352.5 361.1,352.5 337.8,245.6  "></polygon><polygon points="367.8,352.5 416.9,352.5 344.5,246  "></polygon><polygon points="527.8,391 479.1,359.7 428.6,392.5 472.1,432  "></polygon><polygon points="354.1,439.5 314.7,439.5 336.7,535.6  "></polygon><polygon points="197,396.2 147.2,433 197,433  "></polygon><polygon points="313.9,433 349.6,433 313.9,400.7  "></polygon><polygon points="426.5,359 426.5,386.1 468.1,359  "></polygon><polygon points="246.4,439.5 206.2,439.5 270.4,541.4  "></polygon><polygon points="306.4,439.5 253.1,439.5 278.3,546.2  "></polygon><polygon points="416.7,340.5 391.4,227.7 315.1,111.1 340.8,228.8  "></polygon><polygon points="530.3,397.3 481.9,433 530.3,433  "></polygon><polygon points="91.8,386.1 133.4,359 91.8,359  "></polygon><polygon points="426,352.5 473,352.5 401.6,243.3  "></polygon><polygon points="417.3,449.7 340.1,553.2 316.9,681.2 397.5,550.7  "></polygon><polygon points="530.3,359 490.2,359 530.3,384.8  "></polygon><polygon points="573.9,361.3 539.1,390.5 539.3,390.6 538.4,391.3 574,429.8 584.8,393.7  "></polygon><polygon points="304.9,391 256.1,359.7 205.6,392.5 249.2,432  "></polygon><polygon points="420,394.6 368,433 420,433  "></polygon><polygon points="307.4,359 267.2,359 307.4,384.8  "></polygon><polygon points="203.6,399.5 203.6,433 240.5,433  "></polygon><polygon points="313.9,385.2 354.2,359 313.9,359  "></polygon><polygon points="307.4,397.3 258.9,433 307.4,433  "></polygon><polygon points="420,359 376.3,359 420,387.1  "></polygon><polygon points="473.7,439.5 414.5,535.5 525.5,439.5  "></polygon><polygon points="536.8,433 568,433 536.8,399.2  "></polygon><polygon points="567.4,352.5 478.6,265.6 534.7,352.5  "></polygon><polygon points="141.1,263.8 51.2,352.5 87.1,352.5  "></polygon><polygon points="222,225.7 290.5,116.3 160.2,244.9 104,337.2  "></polygon><polygon points="85.3,359 52.5,359 85.3,385.3  "></polygon><polygon points="85.3,433 85.3,399.8 51.3,433  "></polygon><path d="M218.8,565.1l-7.5-11.3c-3.4-4-63.3-58.7-110.4-101.4l42.5,77.2l147.5,144.2L218.8,565.1L218.8,565.1z"></path><polygon points="466.1,439.5 425.9,439.5 407.2,534.8  "></polygon><polygon points="44.4,360.9 27.6,396 44.2,430.7 83.7,392.3  "></polygon><polygon points="493.8,512.2 567.5,439.5 535.8,439.5  "></polygon><polygon points="310.5,342.1 334.4,230.2 308.2,110.3 283.8,230.7  "></polygon><polygon points="51.3,439.5 127.2,513.8 86.3,439.5  "></polygon><polygon points="403.1,554 327.7,676.1 476.3,529.5 521.1,452  "></polygon><polygon points="142.6,352.5 208.2,247.8 97.4,352.5  "></polygon><polygon points="360.7,439.5 342.7,538.8 416.7,439.5  "></polygon><polygon points="205.2,450.2 217.1,550.7 303.3,680.6 275.1,561  "></polygon><polygon points="310.4,449.9 281.5,559.7 310.2,681.6 333.7,551.9  "></polygon><polygon points="197.4,439.5 143.3,439.5 209.1,538.6  "></polygon><path d="M135.5,439.5H96.4c23.5,21.3,71.2,64.6,99,90.3L135.5,439.5z"></path><polygon points="150.3,352.5 197.9,352.5 221.1,239.4  "></polygon><polygon points="91.8,433 128.8,433 91.8,399.5  "></polygon><polygon points="252.5,352.5 273.8,247.3 206.7,352.5  "></polygon><polygon points="515.8,335.3 457.4,245 327.2,117.7 397,224.3  "></polygon><polygon points="207.2,339.5 277.4,229.5 301.4,111.3 231.1,223.5  "></polygon><polygon points="426.5,433 463.5,433 426.5,399.5  "></polygon><polygon points="412,247.3 480.8,352.5 524.7,352.5  "></polygon><polygon points="566.4,359 536.8,359 536.8,383.8  "></polygon></g></svg>