<svg fill="#00FFDC" xmlns="http://www.w3.org/2000/svg" xmlns:xlink="http://www.w3.org/1999/xlink" version="1.1" x="0px" y="0px" viewBox="0 0 612 792" style="enable-background:new 0 0 612 792;" xml:space="preserve"><g><polygon points="128.1,448.2 261.1,448.2 199.1,356.7  "></polygon><polygon points="335.3,345.9 303,46.9 204.9,345.9  "></polygon><polygon points="276.3,448.2 408.3,448.2 340,358.2  "></polygon><polygon points="333.3,353.9 206.9,353.9 268.7,445.2  "></polygon><polygon points="423.8,448.2 553.9,448.2 483.8,358.2  "></polygon><polygon points="476,345.9 311.2,48.1 343.4,345.9  "></polygon><polygon points="477.1,353.9 346.8,353.9 416.1,445.3  "></polygon><polygon points="273.1,456.2 308.3,752.3 410.7,456.2  "></polygon><polygon points="52.6,364 52.6,448.2 112.2,448.2  "></polygon><polygon points="558,440.6 558,353.9 490.6,353.9  "></polygon><polygon points="56.9,456.2 275.4,729.3 117.6,456.2  "></polygon><polygon points="553.7,345.9 333.7,72.2 485.1,345.9  "></polygon><polygon points="316.7,752.6 553.7,456.2 419.2,456.2  "></polygon><polygon points="126.8,456.2 300.8,757.4 265.1,456.2  "></polygon><polygon points="292.8,52.4 56.9,345.9 196.5,345.9  "></polygon><polygon points="191.2,353.9 55.2,353.9 120,445.5  "></polygon></g></svg>