<svg fill="#D1B794" xmlns="http://www.w3.org/2000/svg" xmlns:xlink="http://www.w3.org/1999/xlink" xml:space="preserve" style="shape-rendering:geometricPrecision;text-rendering:geometricPrecision;image-rendering:optimizeQuality;" viewBox="0 0 0.984264 0.993288" x="0px" y="0px" fill-rule="evenodd" clip-rule="evenodd"><defs><style type="text/css">
   
    .fil0 {fill:#D1B794}
   
  </style></defs><g><path class="fil0" d="M0.492132 0l0 0c0.270679,0 0.492132,0.221453 0.492132,0.492132l0 0.00902356c0,0.270679 -0.221453,0.492132 -0.492132,0.492132l0 0c-0.270679,0 -0.492132,-0.221453 -0.492132,-0.492132l0 -0.00902356c0,-0.270679 0.221453,-0.492132 0.492132,-0.492132zm-0.269383 0.756818l0 -0.0138425c0.0192075,-0.00305791 0.0340738,-0.00933754 0.0443124,-0.0188116 0.0102385,-0.0094877 0.0209958,-0.0277942 0.0322718,-0.0548239l0.177372 -0.432871 0.0139654 0 0.189031 0.435178c0.012805,0.0294597 0.023808,0.0485306 0.0330363,0.0572402 0.00922833,0.00858671 0.0254871,0.0133237 0.04879,0.0140882l0 0.0138425 -0.207474 0 0 -0.0138425c0.0236988,-0.00203405 0.0390702,-0.0060066 0.0459915,-0.0120405 0.00690759,-0.00602026 0.0102385,-0.0138288 0.0102385,-0.0233029 0,-0.0117811 -0.00576088,-0.0308658 -0.0171598,-0.0573767l-0.129483 -0.298269 -0.120118 0.294556c-0.0111532,0.0272754 -0.0167775,0.0472611 -0.0167775,0.0599432 0,0.0104979 0.0034538,0.0188252 0.0104979,0.0249684 0.00690759,0.00614312 0.0211323,0.00999281 0.0423875,0.0115218l0 0.0138425 -0.156882 0z"></path></g></svg>