<svg fill="#00DCFF" xmlns:dc="http://purl.org/dc/elements/1.1/" xmlns:cc="http://creativecommons.org/ns#" xmlns:rdf="http://www.w3.org/1999/02/22-rdf-syntax-ns#" xmlns:svg="http://www.w3.org/2000/svg" xmlns="http://www.w3.org/2000/svg" xmlns:sodipodi="http://sodipodi.sourceforge.net/DTD/sodipodi-0.dtd" xmlns:inkscape="http://www.inkscape.org/namespaces/inkscape" version="1.1" x="0px" y="0px" viewBox="0 0 100 100"><g transform="translate(0,-952.36218)"><path style="font-size:medium;font-style:normal;font-variant:normal;font-weight:normal;font-stretch:normal;text-indent:0;text-align:start;text-decoration:none;line-height:normal;letter-spacing:normal;word-spacing:normal;text-transform:none;direction:ltr;block-progression:tb;writing-mode:lr-tb;text-anchor:start;baseline-shift:baseline;opacity:1;color:#000000;fill:#00DCFF;fill-opacity:1;stroke:none;stroke-width:3.99999927999999990;marker:none;visibility:visible;display:inline;overflow:visible;enable-background:accumulate;font-family:Sans;-inkscape-font-specification:Sans" d="M 5.8125 18 A 2.0021961 2.0021961 0 1 0 6 22 L 94 22 A 2.0001996 2.0001996 0 1 0 94 18 L 6 18 A 2.0001996 2.0001996 0 0 0 5.8125 18 z M 5.8125 48 A 2.0021961 2.0021961 0 1 0 6 52 L 94 52 A 2.0001996 2.0001996 0 1 0 94 48 L 6 48 A 2.0001996 2.0001996 0 0 0 5.8125 48 z M 5.8125 78 A 2.0021961 2.0021961 0 1 0 6 82 L 94 82 A 2.0001996 2.0001996 0 1 0 94 78 L 6 78 A 2.0001996 2.0001996 0 0 0 5.8125 78 z " transform="translate(0,952.36218)"></path></g></svg>