<svg fill="#00DCFF" xmlns="http://www.w3.org/2000/svg" viewBox="0 0 100 100" x="0px" y="0px"><title>Artboard 52</title><g data-name="Layer 2"><path d="M94,16.5H26a.5.5,0,0,0,0,1H94a.5.5,0,0,0,0-1Z"></path><path d="M94,49.5H26a.5.5,0,0,0,0,1H94a.5.5,0,0,0,0-1Z"></path><path d="M94,82.5H26a.5.5,0,0,0,0,1H94a.5.5,0,0,0,0-1Z"></path><path d="M10.6,22.3a.5.5,0,0,0,.71,0l4.95-5a.5.5,0,0,0,0-.71l-4.95-5a.51.51,0,0,0-.71,0l-4.95,5a.5.5,0,0,0,0,.71Zm.35-9.55L15.19,17l-4.24,4.24L6.71,17Z"></path><path d="M10.6,55.3a.5.5,0,0,0,.71,0l4.95-5a.5.5,0,0,0,0-.71l-4.95-5a.51.51,0,0,0-.71,0l-4.95,5a.5.5,0,0,0,0,.71Zm.35-9.55L15.19,50l-4.24,4.24L6.71,50Z"></path><path d="M10.6,88.3a.5.5,0,0,0,.71,0l4.95-5a.5.5,0,0,0,0-.71l-4.95-5a.51.51,0,0,0-.71,0l-4.95,5a.5.5,0,0,0,0,.71Zm.35-9.55L15.19,83l-4.24,4.24L6.71,83Z"></path></g></svg>