<svg fill="#00DCFF" xmlns="http://www.w3.org/2000/svg" xmlns:xlink="http://www.w3.org/1999/xlink" version="1.1" x="0px" y="0px" viewBox="0 0 96 96" enable-background="new 0 0 96 96" xml:space="preserve"><path d="M48.001,8C36.33,8,26.834,17.496,26.833,29.167c0,9.527,6.341,17.566,15.017,20.203l0.601,1.944h2.403v13.84H43.57V88h8.86  V65.154h-1.285v-13.84h1.803l1.203-1.944c8.677-2.635,15.017-10.676,15.017-20.203C69.167,17.496,59.671,8,48.001,8z M50.568,86.141  H45.43V67.016h1.283V51.316h2.571v15.699h1.284V86.141z M48.001,47.173c-9.929,0-18.005-8.077-18.005-18.006  c0-9.928,8.077-18.006,18.004-18.006c9.932,0,18.005,8.078,18.007,18.006C66.005,39.096,57.932,47.173,48.001,47.173z"></path></svg>