<svg fill="#FF7F7F" xmlns="http://www.w3.org/2000/svg" xmlns:xlink="http://www.w3.org/1999/xlink" version="1.1" x="0px" y="0px" viewBox="0 0 100 100" enable-background="new 0 0 100 100" xml:space="preserve"><polygon fill="#FF7F7F" points="69.382,81.917 69.843,82.721 76.715,74.592 "></polygon><polygon fill="#FF7F7F" points="77.396,76.223 70.227,83.385 70.625,84.072 "></polygon><polygon fill="#FF7F7F" points="69.631,83.754 59.677,87.221 70.036,84.451 "></polygon><polygon fill="#FF7F7F" points="83.895,69.76 77.091,77.648 84.577,70.153 "></polygon><polygon fill="#FF7F7F" points="50.981,86.275 61.241,82.41 50.981,85.159 "></polygon><polygon fill="#FF7F7F" points="71.99,13.869 71.717,14.349 78.646,20.524 "></polygon><polygon fill="#FF7F7F" points="50.981,89.508 60.618,86.15 50.981,88.737 "></polygon><polygon fill="#FF7F7F" points="86.817,59.492 84.227,69.144 84.896,69.529 "></polygon><polygon fill="#FF7F7F" points="71.33,85.279 77.684,78.047 71.008,84.729 "></polygon><polygon fill="#FF7F7F" points="86.895,28.812 80.118,22.773 86.425,29.08 "></polygon><polygon fill="#FF7F7F" points="90.777,50.506 88.831,60.239 91.441,50.506 "></polygon><polygon fill="#FF7F7F" points="89.716,38.526 87.271,29.403 86.788,29.678 "></polygon><polygon fill="#FF7F7F" points="89.249,50.506 87.293,60.729 90.035,50.506 "></polygon><polygon fill="#FF7F7F" points="50.981,84.375 61.272,80.285 50.981,83.034 "></polygon><polygon fill="#FF7F7F" points="88.027,60.69 85.555,69.909 86.119,70.234 "></polygon><polygon fill="#FF7F7F" points="50.981,87.971 60.975,84.363 50.981,87.05 "></polygon><polygon fill="#FF7F7F" points="53.194,53.9 56.088,58.896 54.162,52.934 "></polygon><polygon fill="#FF7F7F" points="55.086,50.799 54.728,52.113 59.713,54.992 "></polygon><polygon fill="#FF7F7F" points="52.588,46.062 55.47,41.09 51.277,45.715 "></polygon><polygon fill="#FF7F7F" points="59.368,44.711 53.409,46.626 54.377,47.594 "></polygon><polygon fill="#FF7F7F" points="61.73,43.217 57.503,38.977 53.516,45.857 "></polygon><polygon fill="#FF7F7F" points="60.229,32.858 61.927,29.914 52.592,30.818 "></polygon><polygon fill="#FF7F7F" points="57.26,37.999 59.629,33.897 51.837,36.553 "></polygon><polygon fill="#FF7F7F" points="50.981,68.727 56.406,62.541 50.981,63.988 "></polygon><polygon fill="#FF7F7F" points="50.981,73.336 58.623,67.884 50.981,69.925 "></polygon><polygon fill="#FF7F7F" points="50.981,76.874 59.934,71.895 50.981,74.285 "></polygon><polygon fill="#FF7F7F" points="50.981,79.773 60.719,75.133 50.981,77.737 "></polygon><polygon fill="#FF7F7F" points="62.4,29.093 63.702,26.841 53.442,26.689 "></polygon><polygon fill="#FF7F7F" points="50.981,82.234 61.124,77.877 50.981,80.597 "></polygon><polygon fill="#FF7F7F" points="50.981,60.432 52.294,54.332 50.981,54.689 "></polygon><polygon fill="#FF7F7F" points="23.931,50.506 28.902,59.432 26.504,50.506 "></polygon><polygon fill="#FF7F7F" points="18.554,50.506 22.911,60.65 20.191,50.506 "></polygon><polygon fill="#FF7F7F" points="23.066,50.506 21.015,50.506 25.665,60.253 "></polygon><polygon fill="#FF7F7F" points="23.865,38.817 20.916,49.806 23.012,49.806 "></polygon><polygon fill="#FF7F7F" points="27.229,49.806 30.761,49.806 29.814,40.167 "></polygon><polygon fill="#FF7F7F" points="27.164,47.347 29.567,38.389 27.316,37.099 "></polygon><polygon fill="#FF7F7F" points="33.35,40.575 30.391,38.863 31.308,48.204 "></polygon><polygon fill="#FF7F7F" points="50.282,9.379 41.078,12.498 50.282,10.028 "></polygon><polygon fill="#FF7F7F" points="21.96,66.301 17.777,55.815 20.773,66.984 "></polygon><polygon fill="#FF7F7F" points="16.414,50.506 20.514,60.783 17.754,50.506 "></polygon><polygon fill="#FF7F7F" points="24.062,65.101 19.622,54.767 22.618,65.924 "></polygon><polygon fill="#FF7F7F" points="21.38,45.378 24.1,35.246 22.682,34.416 "></polygon><polygon fill="#FF7F7F" points="23.979,46.383 26.568,36.669 24.812,35.658 "></polygon><polygon fill="#FF7F7F" points="71.371,13.542 62.444,11.694 71.103,14.014 "></polygon><polygon fill="#FF7F7F" points="26.428,49.806 26.584,39.327 23.79,49.806 "></polygon><polygon fill="#FF7F7F" points="20.149,49.806 21.477,38.627 18.479,49.806 "></polygon><polygon fill="#FF7F7F" points="50.981,12.299 50.981,13.238 61.638,15.15 "></polygon><polygon fill="#FF7F7F" points="50.981,15.878 50.981,17.244 62.154,18.872 "></polygon><polygon fill="#FF7F7F" points="50.981,13.987 50.981,15.125 62.002,16.939 "></polygon><polygon fill="#FF7F7F" points="50.981,10.753 50.981,11.554 61.31,13.521 "></polygon><polygon fill="#FF7F7F" points="70.726,14.669 61.181,12.762 70.4,15.233 "></polygon><polygon fill="#FF7F7F" points="50.981,9.347 50.981,10.01 60.717,11.956 "></polygon><polygon fill="#FF7F7F" points="50.981,8.05 50.981,8.605 60.102,10.494 "></polygon><polygon fill="#FF7F7F" points="50.282,8.078 41.629,10.943 50.282,8.622 "></polygon><polygon fill="#FF7F7F" points="50.981,31.112 50.981,36.105 59.193,33.306 "></polygon><polygon fill="#FF7F7F" points="50.981,26.753 50.981,30.271 60.615,29.338 "></polygon><polygon fill="#FF7F7F" points="50.981,18.003 50.981,19.673 62.161,21.001 "></polygon><polygon fill="#FF7F7F" points="50.981,37.049 50.981,44.999 56.783,38.597 "></polygon><polygon fill="#FF7F7F" points="50.981,23.299 50.981,25.952 61.483,26.108 "></polygon><polygon fill="#FF7F7F" points="50.981,20.44 50.981,22.52 61.959,23.384 "></polygon><polygon fill="#FF7F7F" points="66.774,21.514 67.445,20.35 56.475,18.751 "></polygon><polygon fill="#FF7F7F" points="68.457,19.995 77.082,27.07 69.021,19.009 "></polygon><polygon fill="#FF7F7F" points="63.709,49.694 62.162,43.906 55.281,47.88 "></polygon><polygon fill="#FF7F7F" points="84.928,30.765 84.245,31.159 87.675,41.006 "></polygon><polygon fill="#FF7F7F" points="83.877,30.563 84.546,30.177 76.806,23.492 "></polygon><polygon fill="#FF7F7F" points="86.752,49.806 82.893,39.54 85.635,49.806 "></polygon><polygon fill="#FF7F7F" points="88.462,49.806 84.828,39.737 87.525,49.806 "></polygon><polygon fill="#FF7F7F" points="82.088,67.909 83.861,57.142 81.132,67.349 "></polygon><polygon fill="#FF7F7F" points="82.779,32.001 86.47,42.225 83.6,31.53 "></polygon><polygon fill="#FF7F7F" points="57.976,38.158 66.462,39.839 60.472,33.836 "></polygon><polygon fill="#FF7F7F" points="60.893,33.106 69.688,37.101 62.645,30.069 "></polygon><polygon fill="#FF7F7F" points="66.541,40.569 58.488,38.973 62.439,42.938 "></polygon><polygon fill="#FF7F7F" points="64.769,26.395 73.825,32.625 65.802,24.602 "></polygon><polygon fill="#FF7F7F" points="63.045,29.376 72.066,34.757 64.379,27.069 "></polygon><polygon fill="#FF7F7F" points="66.185,23.937 75.2,30.661 67.02,22.491 "></polygon><polygon fill="#FF7F7F" points="67.399,21.834 76.266,28.821 68.083,20.648 "></polygon><polygon fill="#FF7F7F" points="82.408,31.407 83.212,30.945 75.072,24.071 "></polygon><polygon fill="#FF7F7F" points="60.963,65.984 66.953,59.981 62.631,57.486 "></polygon><polygon fill="#FF7F7F" points="66.891,59.137 64.235,51.358 62.789,56.769 "></polygon><polygon fill="#FF7F7F" points="64.134,26.092 65.146,24.337 54.412,23.492 "></polygon><polygon fill="#FF7F7F" points="83.56,50.506 81.938,61.623 84.91,50.506 "></polygon><polygon fill="#FF7F7F" points="67.58,39.969 70.54,38.256 62.004,34.379 "></polygon><polygon fill="#FF7F7F" points="69.2,49.806 63.017,44.395 64.463,49.806 "></polygon><polygon fill="#FF7F7F" points="69.496,49.136 67.303,40.938 62.98,43.434 "></polygon><polygon fill="#FF7F7F" points="60.233,66.064 61.816,58.001 57.865,61.964 "></polygon><polygon fill="#FF7F7F" points="74.895,70.941 67.383,78.463 68.051,79.613 "></polygon><polygon fill="#FF7F7F" points="78.969,66.907 71.971,75.776 80.155,67.591 "></polygon><polygon fill="#FF7F7F" points="69.556,64.324 63.007,70.885 64.308,73.123 "></polygon><polygon fill="#FF7F7F" points="82.051,55.996 79.289,66.284 80.453,66.955 "></polygon><polygon fill="#FF7F7F" points="73.6,68.912 66.162,76.34 66.983,77.77 "></polygon><polygon fill="#FF7F7F" points="71.853,66.758 64.741,73.869 65.752,75.625 "></polygon><polygon fill="#FF7F7F" points="66.406,61.52 60.834,67.104 62.533,70.062 "></polygon><polygon fill="#FF7F7F" points="70.237,16.895 78.176,23.751 70.642,16.208 "></polygon><polygon fill="#FF7F7F" points="85.569,30.392 88.769,39.833 86.147,30.051 "></polygon><polygon fill="#FF7F7F" points="71.016,15.566 78.467,22.11 71.348,14.991 "></polygon><polygon fill="#FF7F7F" points="85.204,29.795 85.771,29.46 78.41,22.994 "></polygon><polygon fill="#FF7F7F" points="87.55,50.506 85.625,61.235 88.504,50.506 "></polygon><polygon fill="#FF7F7F" points="89.999,49.806 86.641,40.164 89.229,49.806 "></polygon><polygon fill="#FF7F7F" points="91.41,49.806 88.289,40.595 90.76,49.806 "></polygon><polygon fill="#FF7F7F" points="26.521,63.672 21.784,53.743 24.727,64.718 "></polygon><polygon fill="#FF7F7F" points="85.664,50.506 83.85,61.521 86.801,50.506 "></polygon><polygon fill="#FF7F7F" points="69.394,18.359 77.691,25.366 69.864,17.54 "></polygon><polygon fill="#FF7F7F" points="65.557,23.624 66.376,22.207 55.418,20.905 "></polygon><polygon fill="#FF7F7F" points="67.837,19.67 68.391,18.701 57.57,16.919 "></polygon><polygon fill="#FF7F7F" points="69.621,16.562 70.016,15.892 59.95,13.975 "></polygon><polygon fill="#FF7F7F" points="68.774,18.03 69.236,17.226 58.747,15.343 "></polygon><polygon fill="#FF7F7F" points="83.248,69.389 82.43,68.918 75.425,77.203 "></polygon><polygon fill="#FF7F7F" points="63.771,73.593 62.439,71.301 53.271,76.4 "></polygon><polygon fill="#FF7F7F" points="85.444,58.272 82.758,68.299 83.562,68.761 "></polygon><polygon fill="#FF7F7F" points="62.039,70.607 60.286,67.557 52.405,73.18 "></polygon><polygon fill="#FF7F7F" points="65.194,76.062 64.161,74.268 54.229,79.002 "></polygon><polygon fill="#FF7F7F" points="63.738,50.506 55.806,50.506 62.192,56.293 "></polygon><polygon fill="#FF7F7F" points="57.586,61.253 61.812,57.013 54.932,53.039 "></polygon><polygon fill="#FF7F7F" points="59.866,66.826 57.37,62.504 51.654,69.021 "></polygon><polygon fill="#FF7F7F" points="66.414,78.186 65.577,76.727 55.211,81.18 "></polygon><polygon fill="#FF7F7F" points="80.807,67.969 73.728,76.588 81.783,68.541 "></polygon><polygon fill="#FF7F7F" points="55.165,49.806 60.903,49.806 54.809,48.495 "></polygon><polygon fill="#FF7F7F" points="67.475,80.015 66.793,78.843 56.335,83 "></polygon><polygon fill="#FF7F7F" points="58.565,85.978 69.258,83.108 68.787,82.288 "></polygon><polygon fill="#FF7F7F" points="68.414,81.64 67.853,80.666 57.447,84.587 "></polygon><polygon fill="#FF7F7F" points="68.443,80.292 68.994,81.246 75.916,72.82 "></polygon><polygon fill="#FF7F7F" points="13.245,39.647 15.725,30.4 15.159,30.067 "></polygon><polygon fill="#FF7F7F" points="35.724,76.689 34.902,78.121 45.882,79.416 "></polygon><polygon fill="#FF7F7F" points="34.503,78.813 33.835,79.963 44.75,81.555 "></polygon><polygon fill="#FF7F7F" points="37.146,74.221 36.134,75.976 46.856,76.82 "></polygon><polygon fill="#FF7F7F" points="31.659,83.735 31.261,84.421 41.418,86.356 "></polygon><polygon fill="#FF7F7F" points="38.878,71.235 37.579,73.471 47.811,73.623 "></polygon><polygon fill="#FF7F7F" points="32.49,82.268 32.038,83.071 42.509,84.96 "></polygon><polygon fill="#FF7F7F" points="31.872,81.939 23.624,74.975 31.412,82.756 "></polygon><polygon fill="#FF7F7F" points="50.171,37.079 44.383,38.626 48.37,45.508 "></polygon><polygon fill="#FF7F7F" points="46.193,49.514 46.552,48.199 41.566,45.32 "></polygon><polygon fill="#FF7F7F" points="48.085,46.412 45.191,41.417 47.117,47.379 "></polygon><polygon fill="#FF7F7F" points="41.911,55.602 47.87,53.686 46.902,52.719 "></polygon><polygon fill="#FF7F7F" points="44.02,62.313 41.65,66.414 49.43,63.76 "></polygon><polygon fill="#FF7F7F" points="41.052,67.455 39.352,70.414 48.682,69.496 "></polygon><polygon fill="#FF7F7F" points="48.689,54.252 45.811,59.221 49.99,54.609 "></polygon><polygon fill="#FF7F7F" points="39.549,57.096 43.776,61.336 47.764,54.455 "></polygon><polygon fill="#FF7F7F" points="33.439,80.642 32.879,81.598 43.65,83.381 "></polygon><polygon fill="#FF7F7F" points="12.03,49.806 13.986,39.584 11.244,49.806 "></polygon><polygon fill="#FF7F7F" points="71.361,37.782 73.61,36.494 64.815,31.248 "></polygon><polygon fill="#FF7F7F" points="29.934,85.307 30.263,84.744 22.875,78.249 "></polygon><polygon fill="#FF7F7F" points="14.462,40.821 17.053,31.169 16.383,30.783 "></polygon><polygon fill="#FF7F7F" points="41.508,13.106 31.245,15.859 31.647,16.543 "></polygon><polygon fill="#FF7F7F" points="17.385,30.552 24.188,22.665 16.702,30.159 "></polygon><polygon fill="#FF7F7F" points="23.93,24.036 31.053,16.913 30.656,16.239 "></polygon><polygon fill="#FF7F7F" points="29.948,15.02 23.538,22.325 30.272,15.583 "></polygon><polygon fill="#FF7F7F" points="10.502,49.806 12.448,40.064 9.838,49.806 "></polygon><polygon fill="#FF7F7F" points="31.043,83.403 23.055,76.512 30.637,84.102 "></polygon><polygon fill="#FF7F7F" points="16.073,70.516 15.511,70.84 22.808,77.257 "></polygon><polygon fill="#FF7F7F" points="17.402,69.75 16.733,70.135 24.469,76.808 "></polygon><polygon fill="#FF7F7F" points="10.52,50.506 9.869,50.506 12.99,59.717 "></polygon><polygon fill="#FF7F7F" points="15.709,69.918 12.521,60.51 15.133,70.25 "></polygon><polygon fill="#FF7F7F" points="30.557,85.628 39.971,87.511 30.877,85.078 "></polygon><polygon fill="#FF7F7F" points="14.385,71.484 21.161,77.523 14.854,71.217 "></polygon><polygon fill="#FF7F7F" points="29.289,86.428 29.562,85.947 22.634,79.773 "></polygon><polygon fill="#FF7F7F" points="29.908,86.755 38.828,88.604 30.177,86.283 "></polygon><polygon fill="#FF7F7F" points="8.569,50.506 11.435,59.161 9.113,50.506 "></polygon><polygon fill="#FF7F7F" points="11.563,61.777 14.009,70.894 14.491,70.619 "></polygon><polygon fill="#FF7F7F" points="10.985,40.685 8.541,49.806 9.097,49.806 "></polygon><polygon fill="#FF7F7F" points="29.502,61.947 24.396,52.781 27.196,63.281 "></polygon><polygon fill="#FF7F7F" points="50.282,88.013 50.282,87.074 39.633,85.152 "></polygon><polygon fill="#FF7F7F" points="50.282,84.435 50.282,83.068 39.12,81.44 "></polygon><polygon fill="#FF7F7F" points="50.282,39.904 48.983,45.983 50.282,45.637 "></polygon><polygon fill="#FF7F7F" points="50.282,92.247 50.282,91.691 41.169,89.803 "></polygon><polygon fill="#FF7F7F" points="50.282,82.311 50.282,80.64 39.113,79.322 "></polygon><polygon fill="#FF7F7F" points="50.282,90.95 50.282,90.287 40.555,88.342 "></polygon><polygon fill="#FF7F7F" points="14.033,29.417 12.185,38.345 14.505,29.686 "></polygon><polygon fill="#FF7F7F" points="50.282,89.545 50.282,88.758 40.057,86.81 "></polygon><polygon fill="#FF7F7F" points="50.282,86.325 50.282,85.188 39.265,83.363 "></polygon><polygon fill="#FF7F7F" points="21.007,22.151 14.359,28.798 14.84,29.071 "></polygon><polygon fill="#FF7F7F" points="50.282,15.938 40.005,20.038 50.282,17.278 "></polygon><polygon fill="#FF7F7F" points="50.282,14.037 40.033,17.902 50.282,15.153 "></polygon><polygon fill="#FF7F7F" points="50.282,20.539 40.557,25.179 50.282,22.575 "></polygon><polygon fill="#FF7F7F" points="50.282,31.587 44.871,37.771 50.282,36.325 "></polygon><polygon fill="#FF7F7F" points="50.282,26.977 42.653,32.429 50.282,30.388 "></polygon><polygon fill="#FF7F7F" points="50.282,23.44 41.346,28.43 50.282,26.028 "></polygon><polygon fill="#FF7F7F" points="50.282,18.078 40.151,22.435 50.282,19.716 "></polygon><polygon fill="#FF7F7F" points="29.304,13.894 23.272,20.661 29.571,14.363 "></polygon><polygon fill="#FF7F7F" points="39.009,11.073 29.895,13.518 30.169,14 "></polygon><polygon fill="#FF7F7F" points="50.282,12.341 40.283,15.941 50.282,13.263 "></polygon><polygon fill="#FF7F7F" points="16.06,29.786 22.667,22.257 15.479,29.444 "></polygon><polygon fill="#FF7F7F" points="50.282,10.79 40.561,14.178 50.282,11.575 "></polygon><polygon fill="#FF7F7F" points="30.869,15.217 40.271,12.031 30.537,14.642 "></polygon><polygon fill="#FF7F7F" points="31.884,18.377 31.434,17.579 24.605,25.665 "></polygon><polygon fill="#FF7F7F" points="20.497,67.954 19.538,68.517 28.004,75.461 "></polygon><polygon fill="#FF7F7F" points="29.918,62.516 27.666,63.817 36.474,69.084 "></polygon><polygon fill="#FF7F7F" points="31.783,51.177 33.977,59.375 38.299,56.879 "></polygon><polygon fill="#FF7F7F" points="22.339,66.891 21.176,67.562 29.873,74.435 "></polygon><polygon fill="#FF7F7F" points="26.919,64.25 25.16,65.273 34.041,71.373 "></polygon><polygon fill="#FF7F7F" points="32.079,50.506 38.263,55.918 36.816,50.506 "></polygon><polygon fill="#FF7F7F" points="24.449,65.687 23.035,66.493 31.854,73.081 "></polygon><polygon fill="#FF7F7F" points="33.699,60.344 30.741,62.043 39.271,65.929 "></polygon><polygon fill="#FF7F7F" points="29.427,33.555 36.538,26.443 35.527,24.687 "></polygon><polygon fill="#FF7F7F" points="27.694,31.396 35.116,23.974 34.298,22.557 "></polygon><polygon fill="#FF7F7F" points="31.718,35.986 38.272,29.442 36.971,27.191 "></polygon><polygon fill="#FF7F7F" points="26.36,29.392 33.897,21.864 33.227,20.7 "></polygon><polygon fill="#FF7F7F" points="34.389,41.176 37.044,48.954 38.49,43.544 "></polygon><polygon fill="#FF7F7F" points="34.875,38.79 40.445,33.208 38.747,30.264 "></polygon><polygon fill="#FF7F7F" points="41.046,34.249 39.463,42.312 43.414,38.349 "></polygon><polygon fill="#FF7F7F" points="40.316,34.328 34.326,40.331 38.648,42.827 "></polygon><polygon fill="#FF7F7F" points="30.545,38.145 33.598,39.911 37.597,31.105 "></polygon><polygon fill="#FF7F7F" points="27.547,36.424 29.851,37.744 35.229,28.742 "></polygon><polygon fill="#FF7F7F" points="12.817,50.506 16.425,60.501 13.738,50.506 "></polygon><polygon fill="#FF7F7F" points="22.966,33.771 24.414,34.618 31.161,25.586 "></polygon><polygon fill="#FF7F7F" points="33.247,59.795 27.61,51.926 30.195,61.548 "></polygon><polygon fill="#FF7F7F" points="33.797,41.608 31.604,49.806 36.596,49.806 "></polygon><polygon fill="#FF7F7F" points="27.453,50.506 32.922,58.141 30.879,50.506 "></polygon><polygon fill="#FF7F7F" points="25.077,35.002 26.871,36.036 33.103,26.977 "></polygon><polygon fill="#FF7F7F" points="14.513,50.506 18.379,60.758 15.629,50.506 "></polygon><polygon fill="#FF7F7F" points="20.122,67.363 16.194,56.948 19.147,67.936 "></polygon><polygon fill="#FF7F7F" points="21.124,32.706 22.311,33.39 29.309,24.531 "></polygon><polygon fill="#FF7F7F" points="19.191,32.399 17.412,43.154 20.146,32.95 "></polygon><polygon fill="#FF7F7F" points="17.72,49.806 19.347,38.638 16.354,49.806 "></polygon><polygon fill="#FF7F7F" points="19.229,44.31 21.99,34.013 20.826,33.342 "></polygon><polygon fill="#FF7F7F" points="34.738,59.744 42.791,61.34 38.84,57.375 "></polygon><polygon fill="#FF7F7F" points="37.541,49.806 45.474,49.806 39.087,44.02 "></polygon><polygon fill="#FF7F7F" points="46.114,50.506 40.376,50.506 46.471,51.818 "></polygon><polygon fill="#FF7F7F" points="43.693,39.06 39.467,43.3 46.348,47.273 "></polygon><polygon fill="#FF7F7F" points="43.304,62.154 34.817,60.473 40.808,66.477 "></polygon><polygon fill="#FF7F7F" points="41.413,33.486 43.909,37.808 49.61,31.292 "></polygon><polygon fill="#FF7F7F" points="32.018,17.19 32.479,18.008 42.683,14.334 "></polygon><polygon fill="#FF7F7F" points="37.57,50.619 39.117,56.406 45.998,52.433 "></polygon><polygon fill="#FF7F7F" points="36.085,24.251 37.117,26.044 47.039,21.311 "></polygon><polygon fill="#FF7F7F" points="34.866,22.142 35.701,23.587 46.033,19.144 "></polygon><polygon fill="#FF7F7F" points="39.24,29.72 40.992,32.757 48.856,27.136 "></polygon><polygon fill="#FF7F7F" points="32.852,18.657 33.427,19.646 43.891,15.7 "></polygon><polygon fill="#FF7F7F" points="33.804,20.298 34.487,21.484 44.973,17.302 "></polygon><polygon fill="#FF7F7F" points="37.507,26.72 38.84,29.026 48.005,23.909 "></polygon><polygon fill="#FF7F7F" points="40.387,67.206 31.587,63.197 38.635,70.257 "></polygon><polygon fill="#FF7F7F" points="32.819,80.314 24.197,73.242 32.246,81.292 "></polygon><polygon fill="#FF7F7F" points="13.714,49.806 15.635,39.152 12.775,49.806 "></polygon><polygon fill="#FF7F7F" points="15.601,49.806 17.423,38.793 14.463,49.806 "></polygon><polygon fill="#FF7F7F" points="11.28,50.506 14.639,60.148 12.051,50.506 "></polygon><polygon fill="#FF7F7F" points="17.034,69.154 13.604,59.307 16.352,69.547 "></polygon><polygon fill="#FF7F7F" points="15.825,42.042 18.521,32.014 17.717,31.551 "></polygon><polygon fill="#FF7F7F" points="20.472,32.33 27.512,23.747 19.499,31.769 "></polygon><polygon fill="#FF7F7F" points="18.031,30.924 18.85,31.395 25.857,23.097 "></polygon><polygon fill="#FF7F7F" points="18.871,68.906 18.067,69.367 26.197,76.232 "></polygon><polygon fill="#FF7F7F" points="33.88,78.492 25.037,71.504 33.198,79.666 "></polygon><polygon fill="#FF7F7F" points="35.096,76.375 26.064,69.629 34.259,77.834 "></polygon><polygon fill="#FF7F7F" points="36.511,73.918 27.453,67.698 35.478,75.711 "></polygon><polygon fill="#FF7F7F" points="38.233,70.951 29.22,65.562 36.901,73.244 "></polygon><polygon fill="#FF7F7F" points="18.5,68.311 14.81,58.088 17.68,68.782 "></polygon><polygon fill="#FF7F7F" points="25.302,27.544 32.835,20.021 32.27,19.05 "></polygon><polygon fill="#FF7F7F" points="51.094,63.233 56.896,61.686 52.908,54.803 "></polygon><polygon fill="#FF7F7F" points="74.361,36.063 76.117,35.052 67.251,28.953 "></polygon><polygon fill="#FF7F7F" points="71.777,38.351 76.881,47.525 74.083,37.03 "></polygon><polygon fill="#FF7F7F" points="76.204,65.323 74.408,64.277 68.168,73.348 "></polygon><polygon fill="#FF7F7F" points="78.31,66.53 76.867,65.707 70.147,74.703 "></polygon><polygon fill="#FF7F7F" points="79.887,54.947 77.18,65.079 78.596,65.887 "></polygon><polygon fill="#FF7F7F" points="81.115,50.506 79.794,61.705 82.801,50.506 "></polygon><polygon fill="#FF7F7F" points="67.482,58.705 69.676,50.506 64.684,50.506 "></polygon><polygon fill="#FF7F7F" points="73.734,63.888 71.428,62.554 66.046,71.576 "></polygon><polygon fill="#FF7F7F" points="84.851,49.806 80.776,39.558 83.525,49.806 "></polygon><polygon fill="#FF7F7F" points="82.131,32.375 81.157,32.937 85.069,43.344 "></polygon><polygon fill="#FF7F7F" points="78.939,33.407 80.103,32.736 71.405,25.883 "></polygon><polygon fill="#FF7F7F" points="76.828,34.64 78.249,33.809 69.39,27.201 "></polygon><polygon fill="#FF7F7F" points="79.319,33.996 83.491,44.493 80.506,33.312 "></polygon><polygon fill="#FF7F7F" points="73.826,49.806 68.357,42.171 70.4,49.806 "></polygon><polygon fill="#FF7F7F" points="80.783,32.344 81.737,31.793 73.31,24.88 "></polygon><polygon fill="#FF7F7F" points="70.732,62.154 67.682,60.402 63.685,69.215 "></polygon><polygon fill="#FF7F7F" points="77.35,49.806 72.377,40.867 74.775,49.806 "></polygon><polygon fill="#FF7F7F" points="74.115,52.961 71.711,61.91 73.963,63.211 "></polygon><polygon fill="#FF7F7F" points="74.051,50.506 70.519,50.506 71.465,60.132 "></polygon><polygon fill="#FF7F7F" points="67.93,59.736 70.889,61.436 69.972,52.107 "></polygon><polygon fill="#FF7F7F" points="92.71,49.806 89.845,41.144 92.166,49.806 "></polygon><polygon fill="#FF7F7F" points="74.852,50.506 74.695,60.985 77.489,50.506 "></polygon><polygon fill="#FF7F7F" points="77.301,53.928 74.71,63.645 76.467,64.668 "></polygon><polygon fill="#FF7F7F" points="80.249,49.806 75.62,40.082 78.213,49.806 "></polygon><polygon fill="#FF7F7F" points="74.759,36.642 79.48,46.561 76.553,35.609 "></polygon><polygon fill="#FF7F7F" points="77.216,35.224 81.663,45.566 78.663,34.377 "></polygon><polygon fill="#FF7F7F" points="78.268,50.506 77.415,61.488 80.349,50.506 "></polygon><polygon fill="#FF7F7F" points="68.031,40.516 73.67,48.388 71.084,38.75 "></polygon><polygon fill="#FF7F7F" points="82.726,49.806 78.355,39.644 81.072,49.806 "></polygon><polygon fill="#FF7F7F" points="50.282,79.872 50.282,77.793 39.316,76.929 "></polygon><polygon fill="#FF7F7F" points="50.282,77.013 50.282,74.36 39.793,74.205 "></polygon><polygon fill="#FF7F7F" points="50.981,90.919 60.192,87.808 50.981,90.27 "></polygon><polygon fill="#FF7F7F" points="50.981,92.219 59.634,89.355 50.981,91.675 "></polygon><polygon fill="#FF7F7F" points="70.411,85.095 61.115,88.234 70.739,85.656 "></polygon><polygon fill="#FF7F7F" points="50.282,73.561 50.282,70.042 40.662,70.988 "></polygon><polygon fill="#FF7F7F" points="50.282,63.264 50.282,55.329 44.495,61.717 "></polygon><polygon fill="#FF7F7F" points="50.282,69.201 50.282,64.208 42.084,67.006 "></polygon><polygon fill="#FF7F7F" points="87.246,70.88 89.095,61.958 86.774,70.611 "></polygon><polygon fill="#FF7F7F" points="62.271,89.222 71.385,86.779 71.11,86.297 "></polygon><polygon fill="#FF7F7F" points="80.272,78.146 86.92,71.499 86.439,71.226 "></polygon><polygon fill="#FF7F7F" points="85.221,70.524 78.67,77.982 85.796,70.856 "></polygon><polygon fill="#FF7F7F" points="71.976,86.403 78.007,79.636 71.708,85.934 "></polygon><polygon fill="#FF7F7F" points="90.294,59.621 92.738,50.506 92.183,50.506 "></polygon></svg>