<svg fill="#00FFDC" xmlns="http://www.w3.org/2000/svg" xmlns:xlink="http://www.w3.org/1999/xlink" version="1.1" x="0px" y="0px" viewBox="0 0 100 100" enable-background="new 0 0 100 100" xml:space="preserve"><path fill="#00FFDC" d="M92.915,50.811c-0.001-0.022-0.003-0.044-0.008-0.066c-0.002-0.01,0.001-0.02-0.002-0.029l-5.688-21.281  c-0.003-0.011-0.011-0.018-0.014-0.028c-0.007-0.02-0.015-0.038-0.023-0.057c-0.006-0.012-0.007-0.025-0.014-0.036l0,0  c-0.001-0.001-0.002-0.002-0.003-0.003c-0.005-0.009-0.013-0.014-0.019-0.021c-0.013-0.02-0.025-0.037-0.041-0.054  c-0.007-0.008-0.009-0.018-0.017-0.025L71.494,13.631c-0.008-0.008-0.018-0.01-0.024-0.017c-0.017-0.015-0.033-0.027-0.051-0.039  c-0.011-0.007-0.018-0.019-0.028-0.024l0,0c-0.003-0.002-0.007-0.002-0.011-0.004c-0.008-0.004-0.017-0.005-0.024-0.009  c-0.02-0.009-0.038-0.017-0.058-0.023c-0.011-0.003-0.018-0.011-0.028-0.014L50.004,7.813c-0.011-0.003-0.021,0-0.033-0.002  c-0.018-0.003-0.034-0.005-0.052-0.007c-0.03-0.003-0.059-0.003-0.089,0c-0.018,0.001-0.033,0.004-0.051,0.007  c-0.012,0.002-0.021-0.001-0.033,0.002l-21.297,5.688c-0.011,0.003-0.018,0.011-0.028,0.014c-0.02,0.007-0.038,0.015-0.057,0.023  c-0.011,0.006-0.024,0.007-0.035,0.013c0,0.001-0.001,0-0.002,0.001c-0.01,0.006-0.016,0.016-0.025,0.022  c-0.019,0.013-0.036,0.025-0.052,0.04c-0.007,0.007-0.017,0.01-0.024,0.017L12.662,29.209c-0.008,0.009-0.011,0.02-0.019,0.028  c-0.013,0.015-0.024,0.029-0.035,0.046c-0.007,0.01-0.018,0.016-0.024,0.026c-0.005,0.01-0.005,0.021-0.01,0.029  c0,0.002-0.001,0.004-0.002,0.006c-0.01,0.021-0.019,0.04-0.026,0.062c-0.003,0.01-0.011,0.017-0.013,0.026L6.83,50.714  c-0.003,0.011,0,0.021-0.002,0.031c-0.004,0.021-0.007,0.041-0.008,0.062c-0.001,0.012-0.007,0.023-0.007,0.035v0.001  c0,0.012,0.006,0.022,0.007,0.034c0.001,0.022,0.004,0.043,0.008,0.064c0.002,0.011-0.001,0.021,0.002,0.031l5.703,21.281  c0.002,0.007,0.009,0.01,0.012,0.018c0.006,0.021,0.012,0.041,0.021,0.062c0.005,0.011,0.008,0.023,0.014,0.034  c0.001,0.002,0.001,0.005,0.003,0.008c0.004,0.007,0.013,0.01,0.017,0.017c0.009,0.015,0.021,0.027,0.032,0.041  c0.011,0.015,0.017,0.031,0.03,0.045l15.562,15.562c0.007,0.008,0.017,0.01,0.025,0.017c0.016,0.015,0.033,0.026,0.051,0.039  c0.01,0.007,0.015,0.017,0.025,0.022c0.005,0.003,0.012,0.002,0.017,0.005c0.011,0.006,0.02,0.011,0.031,0.016  c0.016,0.008,0.033,0.012,0.049,0.018c0.009,0.003,0.016,0.01,0.025,0.013l21.297,5.719c0.044,0.012,0.087,0.018,0.13,0.018  s0.086-0.006,0.13-0.018l21.266-5.719c0.01-0.003,0.017-0.01,0.025-0.013c0.021-0.007,0.041-0.016,0.062-0.025  c0.01-0.005,0.022-0.006,0.032-0.011c0.001-0.001,0.001-0.001,0.002-0.001c0.011-0.006,0.017-0.017,0.026-0.023  c0.019-0.013,0.035-0.024,0.051-0.039c0.008-0.007,0.018-0.009,0.025-0.017l15.594-15.562c0.016-0.016,0.022-0.037,0.036-0.055  c0.013-0.017,0.032-0.03,0.043-0.049c0,0,0.001,0,0.001-0.001c0.006-0.01,0.006-0.021,0.011-0.031  c0.011-0.023,0.02-0.047,0.027-0.071c0.002-0.007,0.01-0.01,0.012-0.018l5.688-21.281c0.003-0.01,0-0.02,0.002-0.029  c0.005-0.022,0.007-0.043,0.008-0.065c0.001-0.011,0.007-0.021,0.007-0.032c0-0.001,0-0.001,0-0.002  C92.922,50.832,92.916,50.822,92.915,50.811z M49.874,54.577l-1.882-0.495l-1.371-1.371l-0.495-1.867l0.494-1.865l1.374-1.36  l1.88-0.521l1.865,0.521l1.36,1.36l0.508,1.865L53.1,52.71l-1.359,1.373L49.874,54.577z M54.131,48.96l0.79-0.455l-0.625,1.062  L54.131,48.96z M52.623,47.088l0.441-0.778l-0.009,1.211L52.623,47.088z M50.375,46.199v-0.889l0.596,1.055L50.375,46.199z   M47.976,46.587l-0.468-0.815l1.095,0.641L47.976,46.587z M46.092,48.095l-0.774-0.449l1.214,0.014L46.092,48.095z M45.225,50.344  h-0.907l1.066-0.604L45.225,50.344z M45.591,52.728l-0.772,0.448l0.614-1.045L45.591,52.728z M47.109,54.613l-0.455,0.784  l0.009-1.23L47.109,54.613z M49.375,55.479v0.927l-0.619-1.09L49.375,55.479z M51.757,55.113l0.445,0.774l-1.044-0.616  L51.757,55.113z M53.631,53.595l0.788,0.454L53.19,54.04L53.631,53.595z M54.507,51.344h0.901l-1.064,0.602L54.507,51.344z   M54.999,50.344l1.141-1.938l0.521,1.938H54.999z M54.053,47.85l0.017-2.261l1.428,1.428L54.053,47.85z M52.001,46.156l-1.106-1.961  l1.929,0.513L52.001,46.156z M49.375,45.705l-1.943-1.138l1.943-0.513V45.705z M46.866,46.662l-2.255-0.024l1.421-1.43  L46.866,46.662z M45.167,48.714l-1.952,1.106l0.521-1.936L45.167,48.714z M44.735,51.344l-1.14,1.938l-0.521-1.938H44.735z   M45.666,53.84l-0.016,2.243l-1.414-1.414L45.666,53.84z M47.73,55.536l1.116,1.963l-1.947-0.529L47.73,55.536z M50.375,55.97  l1.933,1.142l-1.933,0.53V55.97z M52.867,55.037l2.242,0.017l-1.422,1.414L52.867,55.037z M54.557,52.973l1.964-1.107l-0.521,1.939  L54.557,52.973z M56.896,47.367l1.307-0.749l-0.837,2.497L56.896,47.367z M54.205,44.311l0.755-1.29l0.527,2.572L54.205,44.311z   M50.375,43.021v-1.486l1.727,1.945L50.375,43.021z M46.382,43.81l-0.742-1.28l2.481,0.822L46.382,43.81z M43.339,46.5l-1.295-0.747  l2.568-0.534L43.339,46.5z M42.039,50.344h-1.488l1.955-1.736L42.039,50.344z M42.839,54.322l-1.293,0.753l0.826-2.491  L42.839,54.322z M45.517,57.364l-0.745,1.301l-0.526-2.572L45.517,57.364z M49.375,58.679v1.49l-1.746-1.965L49.375,58.679z   M53.339,57.865l0.757,1.308l-2.497-0.83L53.339,57.865z M56.394,55.187l1.306,0.756l-2.589,0.521L56.394,55.187z M57.695,51.344  h1.488l-1.955,1.736L57.695,51.344z M58.007,50.344l1.03-3.072l0.813,3.072H58.007z M56.664,46.348l-0.652-3.181l2.265,2.256  L56.664,46.348z M53.494,43.543l-2.139-2.41l3.068,0.821L53.494,43.543z M49.375,42.714l-3.082-1.021l3.082-0.822V42.714z   M45.361,44.042l-3.167,0.659l2.247-2.247L45.361,44.042z M42.571,47.212l-2.423,2.151l0.823-3.073L42.571,47.212z M41.729,51.344  l-1.021,3.083l-0.823-3.083H41.729z M43.072,55.346l0.652,3.187l-2.254-2.255L43.072,55.346z M46.229,58.133l2.166,2.438  l-3.09-0.824L46.229,58.133z M50.375,58.99l3.071,1.021l-3.071,0.822V58.99z M54.359,57.634l3.205-0.645l-2.27,2.261L54.359,57.634z   M57.162,54.477l2.432-2.159l-0.816,3.094L57.162,54.477z M59.675,45.771l1.467-0.859l-0.717,3.693L59.675,45.771z M55.812,41.558  l0.855-1.483l1.241,3.571L55.812,41.558z M50.375,39.835v-1.722l2.854,2.485L50.375,39.835z M44.789,41.059l-0.855-1.483  l3.713,0.721L44.789,41.059z M40.575,44.905l-1.487-0.865l3.58-1.228L40.575,44.905z M38.851,50.344h-1.708l2.47-2.847  L38.851,50.344z M40.074,55.929l-1.484,0.847l0.721-3.707L40.074,55.929z M43.921,60.145l-0.853,1.472l-1.229-3.555L43.921,60.145z   M49.375,61.869v1.709l-2.858-2.472L49.375,61.869z M54.947,60.645l0.852,1.47l-3.69-0.71L54.947,60.645z M59.176,56.796  l1.467,0.842l-3.551,1.233L59.176,56.796z M60.885,51.344h1.725l-2.481,2.868L60.885,51.344z M61.106,50.344l0.816-4.202  l1.129,4.202H61.106z M59.366,44.792l-1.399-4.029l3.064,3.055L59.366,44.792z M55.057,40.864l-3.22-2.803l4.187,1.127  L55.057,40.864z M49.375,39.612l-4.203-0.816l4.203-1.129V39.612z M43.811,41.364l-4.033,1.383l3.067-3.058L43.811,41.364z   M39.882,45.66l-2.795,3.222l1.118-4.198L39.882,45.66z M38.628,51.344l-0.814,4.182l-1.116-4.182H38.628z M40.381,56.905  l1.39,4.018l-3.063-3.063L40.381,56.905z M44.677,60.836l3.223,2.788l-4.187-1.125L44.677,60.836z M50.375,62.09l4.182,0.805  l-4.182,1.125V62.09z M55.924,60.336l4.024-1.397l-3.061,3.061L55.924,60.336z M59.869,56.04l2.784-3.219l-1.123,4.172L59.869,56.04  z M62.426,44.164l1.583-0.912l-0.519,4.872L62.426,44.164z M57.408,38.794l0.922-1.585l1.979,4.477L57.408,38.794z M50.375,36.633  v-1.82l3.944,2.883L50.375,36.633z M43.195,38.293l-0.912-1.583l4.873,0.519L43.195,38.293z M37.809,43.297l-1.58-0.91l4.471-1.972  L37.809,43.297z M35.662,50.344h-1.835l2.892-3.966L35.662,50.344z M37.309,57.51l-1.581,0.92l0.527-4.867L37.309,57.51z   M42.329,62.896l-0.912,1.592l-1.985-4.489L42.329,62.896z M49.375,65.055v1.836l-3.966-2.901L49.375,65.055z M56.541,63.395  l0.923,1.596l-4.886-0.528L56.541,63.395z M61.925,58.376l1.585,0.923l-4.486,1.979L61.925,58.376z M64.086,51.344h1.82  l-2.883,3.944L64.086,51.344z M64.259,50.344l0.563-5.289l1.416,5.289H64.259z M62.076,43.211l-2.146-4.855l3.864,3.864  L62.076,43.211z M56.628,38.144l-4.297-3.14l5.298,1.419L56.628,38.144z M49.375,36.46l-5.289-0.563l5.289-1.416V36.46z   M42.242,38.643l-4.868,2.147l3.876-3.867L42.242,38.643z M37.158,44.077l-3.137,4.303l1.418-5.293L37.158,44.077z M35.49,51.344  l-0.574,5.303l-1.421-5.303H35.49z M37.659,58.464l2.159,4.882l-3.88-3.881L37.659,58.464z M43.109,63.546l4.312,3.154l-5.306-1.422  L43.109,63.546z M50.375,65.229l5.302,0.574l-5.302,1.42V65.229z M57.493,63.045l4.882-2.154l-3.878,3.889L57.493,63.045z   M62.575,57.597l3.14-4.297l-1.419,5.298L62.575,57.597z M65.192,42.571l1.64-0.936l-0.287,5.985L65.192,42.571z M59.015,36.026  l0.933-1.635l2.742,5.31L59.015,36.026z M50.375,33.444v-1.903l5.06,3.259L50.375,33.444z M41.599,35.527l-0.955-1.641l6.006,0.287  L41.599,35.527z M35.043,41.704l-1.623-0.931l5.302-2.739L35.043,41.704z M32.46,50.344h-1.889l3.24-5.045L32.46,50.344z   M34.543,59.119l-1.626,0.942l0.277-5.979L34.543,59.119z M40.732,65.674l-0.955,1.632l-2.745-5.331L40.732,65.674z M49.375,68.259  v1.888l-5.044-3.238L49.375,68.259z M58.148,66.177l0.934,1.626l-5.969-0.277L58.148,66.177z M64.691,59.984l1.64,0.945  l-5.325,2.751L64.691,59.984z M67.274,51.344h1.888l-3.238,5.043L67.274,51.344z M67.415,50.344l0.306-6.37l1.706,6.37H67.415z   M64.814,41.635l-2.926-5.664l4.669,4.669L64.814,41.635z M58.217,35.403l-5.375-3.462l6.372,1.717L58.217,35.403z M49.375,33.304  l-6.409-0.307l6.409-1.721V33.304z M40.663,35.906l-5.681,2.935l4.663-4.683L40.663,35.906z M34.42,42.5l-3.442,5.36l1.711-6.354  L34.42,42.5z M32.32,51.344l-0.295,6.379l-1.716-6.379H32.32z M34.921,60.056l2.915,5.662l-4.648-4.658L34.921,60.056z   M41.528,66.296l5.372,3.45l-6.387-1.715L41.528,66.296z M50.375,68.398l6.371,0.296l-6.371,1.716V68.398z M59.084,65.798  l5.654-2.92l-4.661,4.651L59.084,65.798z M65.314,59.188l3.452-5.376l-1.706,6.383L65.314,59.188z M67.957,40.99l1.679-0.977  l-0.038,7.104L67.957,40.99z M60.594,33.262l0.98-1.695l3.533,6.209L60.594,33.262z M50.375,30.242V28.31l6.12,3.581L50.375,30.242z   M39.995,32.761l-0.961-1.693l7.127,0.038L39.995,32.761z M32.292,40.125l-1.694-0.981l6.188-3.532L32.292,40.125z M29.273,50.344  h-1.932l3.58-6.118L29.273,50.344z M31.792,60.71l-1.693,0.96l0.038-7.115L31.792,60.71z M39.126,68.428l-0.955,1.673l-3.507-6.145  L39.126,68.428z M49.375,71.445v1.935l-6.144-3.584L49.375,71.445z M59.729,68.926l0.978,1.68l-7.109-0.028L59.729,68.926z   M67.458,61.576l1.674,0.955l-6.155,3.518L67.458,61.576z M70.462,51.344h1.934l-3.573,6.133L70.462,51.344z M70.581,50.344  l0.04-7.466l1.993,7.466H70.581z M67.56,40.063l-3.707-6.515l5.476,5.485L67.56,40.063z M59.788,32.658l-6.463-3.781l7.493,2.001  L59.788,32.658z M49.375,30.122l-7.466-0.04l7.466-1.993V30.122z M39.068,33.156l-6.485,3.702l5.478-5.478L39.068,33.156z   M31.689,40.931l-3.783,6.465l2.001-7.495L31.689,40.931z M29.153,51.344l-0.04,7.457l-1.994-7.457H29.153z M32.188,61.634  l3.703,6.487l-5.479-5.479L32.188,61.634z M39.934,69.029l6.458,3.768l-7.465-2.003L39.934,69.029z M50.375,71.564l7.465,0.03  l-7.465,2.003V71.564z M60.655,68.527l6.502-3.715l-5.474,5.483L60.655,68.527z M68.061,60.769l3.758-6.448l-1.993,7.455  L68.061,60.769z M70.723,39.38l1.691-0.99l0.231,8.191L70.723,39.38z M62.203,30.481l0.981-1.694l4.292,6.978L62.203,30.481z   M50.375,27.053v-1.965l7.215,3.892L50.375,27.053z M38.413,29.98l-0.98-1.691l8.179-0.23L38.413,29.98z M29.513,38.514  l-1.698-0.993l6.994-4.302L29.513,38.514z M26.085,50.344h-1.98l3.912-7.234L26.085,50.344z M29.013,62.292l-1.693,0.99l-0.23-8.184  L29.013,62.292z M37.548,71.192l-0.985,1.719l-4.317-7.021L37.548,71.192z M49.375,74.634v1.965l-7.215-3.9L49.375,74.634z   M61.336,71.692l0.986,1.721l-8.227,0.223L61.336,71.692z M70.222,63.158l1.697,0.993l-6.983,4.302L70.222,63.158z M73.649,51.344  h1.98l-3.911,7.224L73.649,51.344z M73.752,50.344l-0.242-8.583l2.308,8.583H73.752z M70.31,38.462l-4.482-7.287l6.252,6.252  L70.31,38.462z M61.389,29.892l-7.512-4.052l8.534,2.287L61.389,29.892z M49.375,26.951l-8.548,0.241l8.548-2.29V26.951z   M37.495,30.392l-7.277,4.477l6.253-6.242L37.495,30.392z M28.924,39.328l-4.066,7.52l2.299-8.554L28.924,39.328z M25.982,51.344  l0.242,8.57l-2.306-8.57H25.982z M29.424,63.21l4.493,7.308l-6.262-6.272L29.424,63.21z M38.363,71.781l7.548,4.081l-8.576-2.287  L38.363,71.781z M50.375,74.737l8.55-0.231l-8.55,2.28V74.737z M62.253,71.281l7.291-4.491l-6.264,6.284L62.253,71.281z   M70.811,62.344l4.068-7.513l-2.301,8.547L70.811,62.344z M73.474,37.775l1.742-0.989l0.499,9.33L73.474,37.775z M63.795,27.729  l0.984-1.736l5.081,7.802L63.795,27.729z M50.375,23.866v-1.988l8.294,4.21L50.375,23.866z M36.818,27.23l-1.008-1.743l9.339-0.489  L36.818,27.23z M26.761,36.908l-1.723-0.983l7.788-5.071L26.761,36.908z M22.882,50.344h-1.989l4.222-8.307L22.882,50.344z   M26.261,63.9l-1.729,1.006l-0.508-9.316L26.261,63.9z M35.951,73.971l-1.005,1.718l-5.074-7.807L35.951,73.971z M49.375,77.822  v1.989l-8.298-4.203L49.375,77.822z M62.93,74.473l0.982,1.713l-9.261,0.496L62.93,74.473z M72.974,64.766l1.744,1.01l-7.84,5.105  L72.974,64.766z M76.852,51.344h1.989l-4.223,8.3L76.852,51.344z M76.942,50.344l-0.516-9.634l2.578,9.634H76.942z M73.053,36.864  l-5.272-8.096l7.074,7.074L73.053,36.864z M62.973,27.15l-8.617-4.375l9.641,2.572L62.973,27.15z M49.375,23.775l-9.646,0.506  l9.646-2.568V23.775z M35.908,27.652l-8.118,5.286l7.073-7.093L35.908,27.652z M26.182,37.729l-4.376,8.612l2.587-9.633  L26.182,37.729z M22.792,51.344l0.525,9.645l-2.588-9.645H22.792z M26.684,64.812l5.267,8.104l-7.06-7.061L26.684,64.812z   M36.772,74.55l8.594,4.353l-9.634-2.575L36.772,74.55z M50.375,77.911l9.623-0.516l-9.623,2.577V77.911z M63.841,74.052  l8.062-5.251l-7.045,7.024L63.841,74.052z M73.551,63.945l4.395-8.637l-2.588,9.682L73.551,63.945z M76.254,36.193l1.729-1.001  l0.775,10.359L76.254,36.193z M65.377,24.951l1.015-1.734l5.874,8.623L65.377,24.951z M50.375,20.678V18.67l9.371,4.509  L50.375,20.678z M35.211,24.449l-0.991-1.728l10.354-0.766L35.211,24.449z M23.995,35.328l-1.743-1.005l8.607-5.879L23.995,35.328z   M19.695,50.344h-2.007l4.526-9.378L19.695,50.344z M23.495,65.507l-1.743,0.994l-0.778-10.39L23.495,65.507z M34.345,76.725  l-0.993,1.739l-5.857-8.589L34.345,76.725z M49.375,81.009v2.023l-9.414-4.539L49.375,81.009z M64.51,77.223l1.015,1.743  l-10.392,0.769L64.51,77.223z M75.755,66.374l1.726,0.99l-8.58,5.845L75.755,66.374z M80.04,51.344h2.009l-4.519,9.392L80.04,51.344  z M80.121,50.344l-0.803-10.709l2.873,10.709H80.121z M75.823,35.287l-6.047-8.877l7.832,7.843L75.823,35.287z M64.551,24.381  l-9.66-4.647l10.705,2.861L64.551,24.381z M49.375,20.598L38.664,21.39l10.711-2.863V20.598z M34.305,24.879l-8.85,6.045  l7.827-7.827L34.305,24.879z M23.426,36.154L18.75,45.84l2.876-10.722L23.426,36.154z M19.614,51.344l0.802,10.714l-2.874-10.714  H19.614z M23.925,66.413l6.048,8.868l-7.844-7.844L23.925,66.413z M35.172,77.294l9.688,4.671l-10.713-2.874L35.172,77.294z   M50.375,81.09l10.735-0.794l-10.735,2.88V81.09z M65.417,76.791l8.906-6.066l-7.858,7.868L65.417,76.791z M76.324,65.548  l4.649-9.665L78.106,66.57L76.324,65.548z M79.005,34.6l1.771-1.025l1.045,11.523L79.005,34.6z M66.984,22.199l1.012-1.756  l6.646,9.425L66.984,22.199z M50.375,17.491v-2.037l10.483,4.839L50.375,17.491z M33.631,21.699l-1.022-1.757L44.1,18.9  L33.631,21.699z M21.231,33.733l-1.76-1.024l9.446-6.661L21.231,33.733z M16.507,50.344h-2.022l4.827-10.457L16.507,50.344z   M20.73,67.087l-1.756,1.012l-1.052-11.48L20.73,67.087z M32.765,79.487l-1.024,1.76l-6.661-9.444L32.765,79.487z M49.375,84.212  v2.021l-10.456-4.826L49.375,84.212z M66.118,79.989l1.012,1.756l-11.478,1.052L66.118,79.989z M78.505,67.952l1.77,1.014  l-9.443,6.67L78.505,67.952z M83.228,51.344h2.037l-4.849,10.48L83.228,51.344z M83.301,50.344l-1.073-11.832l3.168,11.832H83.301z   M78.566,33.698l-6.858-9.726l8.682,8.671L78.566,33.698z M66.154,21.636l-10.759-4.967l11.799,3.161L66.154,21.636z M49.375,17.418  l-11.832,1.073l11.832-3.168V17.418z M32.728,22.137l-9.708,6.847l8.655-8.655L32.728,22.137z M20.667,34.562l-4.972,10.771  l3.165-11.822L20.667,34.562z M16.434,51.344l1.081,11.793l-3.16-11.793H16.434z M21.167,67.989l6.834,9.69l-8.64-8.649  L21.167,67.989z M33.594,80.051l10.769,4.971l-11.82-3.164L33.594,80.051z M50.375,84.284l11.791-1.08l-11.791,3.159V84.284z   M67.021,79.551l9.692-6.846l-8.651,8.651L67.021,79.551z M79.068,67.122l4.988-10.783l-3.169,11.826L79.068,67.122z M81.786,32.992  l1.751-1.005l1.334,12.528L81.786,32.992z M68.578,19.434l1.019-1.767l7.445,10.221L68.578,19.434z M50.375,14.288v-2.034  l11.535,5.124L50.375,14.288z M32.022,18.933l-1.018-1.767l12.577-1.327L32.022,18.933z M18.462,32.128l-1.776-1.008l10.225-7.441  L18.462,32.128z M13.319,50.344h-2.05l5.15-11.579L13.319,50.344z M17.965,68.682l-1.782,1.031L14.86,57.096L17.965,68.682z   M31.157,82.254l-1.018,1.767l-7.434-10.228L31.157,82.254z M49.375,87.399v2.05l-11.576-5.148L49.375,87.399z M67.711,82.755  l1.019,1.767l-12.564,1.327L67.711,82.755z M81.283,69.549l1.758,1.028l-10.225,7.438L81.283,69.549z M86.431,51.344h2.034  l-5.124,11.535L86.431,51.344z M86.496,50.344l-1.37-12.877l3.457,12.877H86.496z M81.343,32.093L73.735,21.65l9.402,9.413  L81.343,32.093z M67.744,18.876l-11.837-5.259l12.881,3.447L67.744,18.876z M49.375,14.222l-12.884,1.36l12.884-3.446V14.222z   M31.124,19.376l-10.488,7.633l9.444-9.444L31.124,19.376z M17.906,32.961L12.627,44.83l3.454-12.904L17.906,32.961z M13.253,51.344  l1.354,12.919l-3.455-12.919H13.253z M18.407,69.58l7.65,10.524l-9.478-9.467L18.407,69.58z M31.99,82.812l11.847,5.27  l-12.891-3.458L31.99,82.812z M50.375,87.466l12.908-1.364l-12.908,3.466V87.466z M68.611,82.312l10.479-7.624l-9.435,9.435  L68.611,82.312z M81.842,68.716l5.25-11.818L83.64,69.769L81.842,68.716z M84.535,31.412l1.791-1.036l1.609,13.704L84.535,31.412z   M70.172,16.668l1.022-1.775l8.225,11.033L70.172,16.668z M50.375,11.101V9.056l12.62,5.423L50.375,11.101z M30.428,16.168  l-1.033-1.775l13.671-1.605L30.428,16.168z M15.685,30.545l-1.766-1.033l11.028-8.229L15.685,30.545z M10.116,50.344H8.072  l5.422-12.62L10.116,50.344z M15.184,70.291l-1.761,1.021l-1.611-13.628L15.184,70.291z M29.561,85.018l-1.033,1.767l-8.229-11.019  L29.561,85.018z M49.375,90.603v2.045l-12.627-5.432L49.375,90.603z M69.306,85.52l1.021,1.762l-13.623,1.621L69.306,85.52z   M84.036,71.155l1.788,1.024l-11.052,8.239L84.036,71.155z M89.618,51.344h2.045l-5.432,12.628L89.618,51.344z M89.68,50.344  l-1.64-13.959l3.73,13.959H89.68z M84.088,30.517l-8.442-11.325l10.275,10.265L84.088,30.517z M69.335,16.115l-12.917-5.551  l13.964,3.734L69.335,16.115z M49.375,11.039l-13.97,1.64l13.97-3.73V11.039z M28.473,14.798l1.059,1.818l-11.294,8.427  L28.473,14.798z M13.329,30.325l1.803,1.055L9.59,44.277L13.329,30.325z M10.056,51.344l1.65,13.963L7.964,51.344H10.056z   M15.632,71.187l8.398,11.245l-10.201-10.2L15.632,71.187z M30.396,85.571l12.913,5.555l-13.969-3.751L30.396,85.571z   M50.375,90.662l13.957-1.661l-13.957,3.754V90.662z M71.247,86.875l-1.044-1.804l11.267-8.398L71.247,86.875z M86.419,71.368  l-1.831-1.049l5.574-12.958L86.419,71.368z"></path></svg>