<svg fill="#00FFDC" xmlns="http://www.w3.org/2000/svg" xmlns:xlink="http://www.w3.org/1999/xlink" version="1.1" x="0px" y="0px" viewBox="0 0 100 100" enable-background="new 0 0 100 100" xml:space="preserve"><g><path fill="#00FFDC" d="M73.591,76.292c0,0,1.62-1.656,4.391-3.54c10.074-2.534,17.554-11.665,17.554-22.514V27.024   c0-12.801-10.414-23.215-23.215-23.215H27.678c-12.801,0-23.215,10.414-23.215,23.215v23.215c0,10.849,7.481,19.98,17.554,22.514   c2.771,1.884,4.391,3.54,4.391,3.54c0.196,0.144,0.379,0.294,0.533,0.456c1.2,1.256,1.118,2.993,1.039,4.674   c-0.019,0.415-0.038,0.818-0.038,1.202c0,3.061-2.133,5.012-6.354,5.831c1.457-1.083,2.649-2.664,2.649-4.938   c0-1.563-0.491-3.026-1.406-4.299c-0.037-0.052-0.071-0.098-0.108-0.151c-0.571-0.756-1.293-1.443-2.161-2.036   c-0.297-0.203-0.624-0.384-0.951-0.564c-2.735-1.437-5.434-3.15-9.305-2.121c-3.195,0.85-5.844,4.734-5.844,8.279v3.572   c0,5.51,4.483,9.993,9.993,9.993h15.392c3.592,0,6.738-1.912,8.5-4.765c1.399,0.769,3.013,1.215,4.738,1.215h13.83   c1.724,0,3.339-0.446,4.738-1.215c1.762,2.853,4.908,4.765,8.5,4.765h15.392c5.51,0,9.993-4.483,9.993-9.993v-3.572   c0-3.544-2.649-7.429-5.844-8.279c-3.872-1.029-6.57,0.684-9.305,2.121c-0.328,0.18-0.654,0.361-0.951,0.564   c-0.869,0.593-1.591,1.28-2.161,2.036c-0.038,0.054-0.071,0.099-0.108,0.151c-0.915,1.273-1.406,2.736-1.406,4.299   c0,2.274,1.192,3.855,2.649,4.938c-4.221-0.819-6.354-2.77-6.354-5.831c0-0.384-0.018-0.786-0.038-1.202   c-0.078-1.68-0.16-3.417,1.039-4.674C73.213,76.586,73.396,76.436,73.591,76.292z M60.297,81.043   c-2.612,2.594-6.252,4.224-10.297,4.224c-4.045,0-7.685-1.63-10.297-4.224c-0.546-3.412-2.816-6.254-5.894-7.589h8.809   c0.443,3.682,3.582,6.547,7.382,6.547c3.8,0,6.938-2.865,7.382-6.547h8.81C63.113,74.789,60.843,77.631,60.297,81.043z    M44.422,73.454h11.155c-0.43,2.694-2.763,4.762-5.577,4.762C47.186,78.216,44.853,76.148,44.422,73.454z M6.249,50.239V27.024   c0-11.816,9.613-21.429,21.429-21.429h44.644c11.816,0,21.429,9.613,21.429,21.429v23.215c0,11.816-9.613,21.429-21.429,21.429   H27.678C15.862,71.668,6.249,62.054,6.249,50.239z M29.847,94.06H14.456c-4.336,0-7.865-3.529-7.865-7.865v-3.572   c0-0.899,0.159-1.76,0.438-2.566c0.764-1.631,1.775-3.389,3.591-3.858c3.618-0.935,6.832,0.813,8.962,2.267   c1.908,1.304,2.917,3.049,2.917,5.049c0,4.074-5.795,5.274-6.371,5.383c-0.443,0.041-0.79,0.413-0.79,0.867   c0,0.48,0.39,0.87,0.871,0.87c0.004,0.001,0.01,0,0.017,0c11.124,0,13.459-4.357,13.459-8.013c0-0.357,0.018-0.733,0.037-1.12   c0.086-1.854,0.194-4.161-1.519-5.957c-0.275-0.289-0.605-0.545-0.96-0.787h2.605c4.336,0,7.865,3.529,7.865,7.865v3.572   C37.712,90.531,34.183,94.06,29.847,94.06z M56.915,90.67h-13.83c-1.414,0-2.736-0.379-3.869-1.031   c0.397-1.076,0.625-2.232,0.625-3.444v-2.628c2.783,2.166,6.305,3.485,10.16,3.485c3.855,0,7.376-1.319,10.16-3.485v2.628   c0,1.212,0.228,2.368,0.625,3.444C59.651,90.291,58.329,90.67,56.915,90.67z M71.798,75.546c-1.713,1.796-1.605,4.103-1.519,5.957   c0.018,0.387,0.037,0.763,0.037,1.12c0,3.656,2.335,8.013,13.459,8.013c0.007,0,0.013,0.001,0.017,0c0.481,0,0.871-0.39,0.871-0.87   c0-0.453-0.347-0.826-0.79-0.867c-0.576-0.109-6.371-1.31-6.371-5.383c0-2,1.009-3.746,2.917-5.049   c2.13-1.454,5.344-3.202,8.962-2.267c1.816,0.469,2.827,2.227,3.591,3.858c0.279,0.806,0.438,1.666,0.438,2.566v3.572   c0,4.336-3.529,7.865-7.865,7.865H70.153c-4.336,0-7.865-3.529-7.865-7.865v-3.572c0-4.336,3.529-7.865,7.865-7.865h2.605   C72.403,75,72.073,75.257,71.798,75.546z"></path></g><g><path fill="#00FFDC" d="M84.446,23.439c-2.275-4.822-7.873-8.189-13.613-8.189H38.93c-6.746,0-11.868,1.845-15.225,5.483   c-6.201,6.721-4.311,17.235-3.905,19.133c-2.618,1.98-5.084,4.953-5.222,9.221c0.429,5.219,4.625,6.829,6.005,7.358   c0.067,0.026,0.126,0.048,0.179,0.068c0.743,1.386,2.081,2.921,4.499,4.111c5.67,3.544,11.58,4.003,14.258,4.003   c0.772,0,1.256-0.037,1.407-0.05c0.266-0.008,15.728-0.48,20.863-0.48c16.837,0,23.396-6.229,23.396-22.216   c0-1.693-0.006-5.259-2.471-8.172C85.554,30.873,86.209,27.176,84.446,23.439z M25.034,21.678c3.016-3.27,7.692-4.928,13.897-4.928   h31.903c5.067,0,10.015,2.987,12.034,7.263c1.469,3.114,0.979,6.185-1.289,8.562c-1.686-1.43-4.159-2.578-7.792-3.067   c0.36-2.636-0.274-4.847-1.918-6.572c-3.281-3.443-9.579-3.958-13.041-3.958c-2.285,0-4.629,0.222-6.427,0.608   c-2.264,0.486-4.201,0.863-6.47,1.305c-2.984,0.582-6.697,1.305-12.528,2.549c-3.828,0.817-6.466,2.453-7.842,4.861   c-1.88,3.29-0.831,7.031-0.251,8.577c-0.882,0.323-2.364,0.941-3.972,1.93C20.844,35.851,19.944,27.194,25.034,21.678z    M69.694,29.25c-0.647,0-1.268,0.021-1.875,0.053c-0.218,0.011-0.427,0.029-0.64,0.045c-0.371,0.027-0.737,0.058-1.092,0.097   c-0.257,0.028-0.51,0.058-0.759,0.091c-0.132,0.018-0.268,0.033-0.399,0.053l-0.319-0.22l2.14-3.677l5.282,3.641   c-0.005,0-0.01,0-0.014-0.001C71.281,29.282,70.514,29.25,69.694,29.25z M49.865,38.307l-0.204,0.22   c-5.007,5.405-8.244,5.208-11.016,5.147c-0.333-0.007-0.66-0.014-0.984-0.014c-0.312,0-0.674,0.007-1.062,0.035   c-1.552-0.904-2.589-2.115-2.996-3.45l-0.068-0.295c-0.04-0.171-0.067-0.325-0.088-0.473c-0.02-0.167-0.04-0.334-0.04-0.503   c0-3.409,4.011-6.183,8.94-6.183c0.51,0,1.01,0.031,1.498,0.088c0.162,0.019,0.314,0.056,0.474,0.081   c0.32,0.05,0.642,0.097,0.948,0.17c0.183,0.044,0.354,0.105,0.532,0.157c0.267,0.078,0.537,0.151,0.791,0.246   c0.181,0.068,0.347,0.151,0.52,0.227c0.232,0.101,0.466,0.2,0.683,0.315c0.167,0.089,0.319,0.192,0.477,0.289   c0.199,0.123,0.401,0.244,0.584,0.379c0.148,0.109,0.278,0.229,0.414,0.346c0.166,0.143,0.333,0.284,0.482,0.437   c0.123,0.127,0.228,0.262,0.337,0.396c0.131,0.16,0.261,0.32,0.372,0.49c0.093,0.142,0.17,0.292,0.248,0.44   c0.063,0.119,0.118,0.241,0.171,0.363c-0.313,0.332-0.619,0.661-0.912,0.977l-0.097,0.105   C49.869,38.302,49.867,38.304,49.865,38.307z M26.278,57.032c-0.032-1.325,0.094-2.77,0.592-3.786   c0.477,0.188,1.024,0.304,1.616,0.314c0.031,0,0.062,0.001,0.092,0.001c0.893,0,1.661-0.221,2.117-0.61   c1.814-1.549,3.575-2.333,4.95-2.33c0.3,0.005,0.554,0.049,0.775,0.108c-0.395,0.343-0.624,0.777-0.624,1.284   c0.007,0.369,0.067,2.303,0.481,4.342c-0.721-0.849-1.512-1.602-2.694-2.066c-1.628-0.481-3.147-0.398-4.515,0.252   C27.84,55.126,26.931,56.088,26.278,57.032z M33.464,49.488c-1.271,0.426-2.594,1.221-3.96,2.387   c-0.072,0.063-0.416,0.194-0.985,0.185c-0.393-0.007-0.754-0.086-1.032-0.211c0.009-0.197-0.024-0.367-0.076-0.505   c0.396-0.466,2.744-3.044,6.078-2.967C33.436,48.71,33.432,49.085,33.464,49.488z M41.702,52.733   c-0.225,0.208-0.403,0.444-0.502,0.723c-0.121,0.148-0.254,0.307-0.415,0.493c-0.519,0.599-1.108,1.277-1.498,2.064   c-0.114,0.23-0.202,0.461-0.296,0.691c-0.261,0.442-0.399,0.904-0.462,1.318c-0.006,0.022-0.016,0.046-0.022,0.068   c-0.739-2.019-0.975-4.863-1-6.091c0-0.324,0.723-0.578,1.646-0.578c1.062,0,2.102,0.327,2.53,0.797   C41.801,52.35,41.808,52.507,41.702,52.733z M42.988,55.091c-0.081-0.236-0.145-0.455-0.173-0.637   c-0.015-0.208,0.021-0.377,0.081-0.527c0.061-0.086,0.121-0.172,0.176-0.259c0.628-0.33,2.322-0.333,3.258-0.333   c0.402,0,0.83,0.004,1.283,0.008l0.489,0.026c1.314,0.102,2.673,0.207,3.931,0.207c2.321,0,5.495-0.326,6.393-3.129   c0.253-0.479,0.239-1.294-0.757-1.913c-0.783-0.484-1.857-0.276-3.202,0.743c-0.995,0.755-1.373,1.366-1.649,1.813   c-0.343,0.554-0.47,0.761-3.71,0.761h-0.001l-1.25-0.007c-0.84-0.064-1.675-0.124-2.479-0.154   c-0.783-0.033-1.441,0.027-2.004,0.159c-0.078-0.189-0.185-0.378-0.357-0.566c-0.914-1.002-2.595-1.359-3.864-1.359   c-0.272,0-0.53,0.018-0.776,0.048c-0.399-0.297-1.272-0.804-2.618-0.847c-0.205-0.006-0.412,0.005-0.621,0.021   c-0.014-0.878,0.294-1.457,0.556-1.79c0.199,0.085,0.397,0.165,0.583,0.234c3.907,1.679,7.175,2.495,9.99,2.495   c2.14,0,3.94-0.462,5.666-1.455c1.244-0.716,3.521-1.486,5.579-1.486c2.023,0,3.414,0.727,4.134,2.161   c0.468,0.934-0.093,2.018-0.648,2.764c-1.754,2.358-6.237,4.904-10.424,4.904c-1.214,0-2.319-0.215-3.283-0.641   C45.638,55.6,44.208,55.201,42.988,55.091z M32.989,35.312c-0.084,0.111-0.154,0.229-0.231,0.344   c-0.073,0.109-0.153,0.215-0.219,0.327c-0.073,0.124-0.13,0.253-0.194,0.379c-0.055,0.109-0.117,0.214-0.165,0.325   c-0.054,0.126-0.093,0.256-0.138,0.385c-0.042,0.117-0.091,0.232-0.125,0.351c-0.035,0.123-0.054,0.25-0.08,0.376   c-0.028,0.129-0.063,0.255-0.082,0.386c-0.018,0.124-0.018,0.251-0.027,0.376c-0.01,0.134-0.029,0.266-0.029,0.401l-4.619-2.179   c-0.355-0.85-1.444-3.852-0.5-6.667l2.856,1.969l-2.508,4.309c0.057,0.154,0.11,0.29,0.152,0.389l0.707,0.334l2.562-4.403   l3.055,2.106c-0.051,0.057-0.098,0.117-0.147,0.175C33.167,35.101,33.072,35.203,32.989,35.312z M67.277,24.785l1.359-2.336   c-0.32-0.177-0.655-0.335-0.999-0.483l-1.274,2.189l-3.699-2.55l0.485-0.833c-0.406-0.058-0.804-0.103-1.196-0.142   c3.008,0.295,6.557,1.122,8.603,3.268c1.329,1.395,1.846,3.222,1.542,5.438c0.056-0.406,0.074-0.795,0.075-1.174L67.277,24.785z    M58.394,31.507l-1.065-0.734l2.14-3.677l3.699,2.55l-0.181,0.31C61.257,30.348,59.737,30.878,58.394,31.507z M51.477,35.029   c-0.038-0.046-0.074-0.093-0.114-0.138c-0.238-0.274-0.499-0.535-0.78-0.784c-0.052-0.046-0.105-0.091-0.158-0.136   c-0.291-0.245-0.6-0.479-0.93-0.695c-0.045-0.03-0.093-0.056-0.139-0.085c0,0,0,0,0,0c0.025,0.016,0.054,0.028,0.079,0.044   l0.087-0.15l3.255,2.244c-0.221,0.204-0.439,0.408-0.648,0.612c-0.002-0.004-0.005-0.007-0.008-0.011   C51.935,35.617,51.715,35.318,51.477,35.029z M48.233,32.567c-0.385-0.184-0.79-0.345-1.207-0.492   c-0.064-0.023-0.126-0.047-0.191-0.068c-0.404-0.135-0.822-0.25-1.25-0.349c-0.08-0.018-0.16-0.036-0.241-0.053   c-0.425-0.089-0.857-0.163-1.301-0.214l0.865-1.486l3.699,2.55l-0.137,0.235c-0.066-0.034-0.129-0.07-0.197-0.102   C48.26,32.581,48.248,32.573,48.233,32.567z M41.262,31.331c-0.142,0.01-0.278,0.032-0.418,0.046   c-0.213,0.022-0.429,0.039-0.638,0.07c-0.114,0.017-0.223,0.043-0.336,0.063c-0.028,0.005-0.056,0.01-0.084,0.016c0,0,0,0,0.001,0   l-1.63-1.123l2.14-3.677l3.699,2.55l-1.182,2.03c-0.155-0.005-0.309-0.014-0.466-0.014C41.982,31.292,41.619,31.305,41.262,31.331z    M37.899,32.003c-0.209,0.07-0.42,0.137-0.621,0.216c-0.082,0.032-0.159,0.071-0.24,0.105l0.591-1.015l0.775,0.534   c-0.064,0.019-0.132,0.032-0.196,0.052C38.103,31.928,38.003,31.969,37.899,32.003z M30.877,31.807l2.14-3.677l3.699,2.55   l-1.527,2.624c0,0,0,0,0,0c0,0,0,0,0,0v0c0,0,0,0,0,0c-0.121,0.08-0.248,0.155-0.364,0.239c-0.113,0.081-0.215,0.171-0.323,0.256   c-0.114,0.09-0.234,0.177-0.342,0.271L30.877,31.807z M36.063,32.787c0.008-0.004,0.016-0.008,0.023-0.013   c-0.002,0.001-0.004,0.002-0.006,0.003C36.074,32.781,36.068,32.784,36.063,32.787z M55.888,31.051l-1.864,3.202   c-0.149,0.12-0.296,0.24-0.439,0.362l-3.536-2.438l2.14-3.677L55.888,31.051z M52.717,27.594l2.14-3.677l3.699,2.55l-2.14,3.677   L52.717,27.594z M49.136,31.548l-3.699-2.55l2.14-3.677l3.699,2.55L49.136,31.548z M56.211,32.695l0.59-1.014l0.528,0.364   C56.942,32.255,56.569,32.471,56.211,32.695z M59.997,26.189l2.14-3.677l3.699,2.55l-2.14,3.677L59.997,26.189z M61.752,20.976   l-0.6-0.414c-0.708-0.05-1.37-0.074-1.96-0.08l2.032,1.401l-2.14,3.677l-3.699-2.55l1.435-2.466   c0.663-0.039,1.335-0.065,2.008-0.065c0.881,0,1.964,0.037,3.125,0.151L61.752,20.976z M54.472,22.38l-1.875-1.292   c-0.123,0.026-0.24,0.05-0.362,0.076c0.192-0.041,0.375-0.078,0.571-0.12c0.793-0.17,1.708-0.303,2.675-0.399L54.472,22.38z    M55.482,20.645c0.436-0.043,0.884-0.075,1.337-0.101C56.365,20.57,55.917,20.602,55.482,20.645z M51.184,21.385l2.759,1.902   l-2.14,3.677l-3.699-2.55l1.586-2.725c-0.001,0-0.001,0-0.002,0C50.184,21.59,50.679,21.489,51.184,21.385z M47.192,23.784   l-1.811-1.249c0.313-0.061,0.624-0.122,0.921-0.18c0.672-0.131,1.312-0.256,1.943-0.38L47.192,23.784z M46.664,24.692l-2.14,3.677   l-3.699-2.55l1.568-2.694c-0.463,0.092-0.945,0.189-1.449,0.291l-1.032,1.774l-1.748-1.205c-0.453,0.094-0.931,0.193-1.417,0.295   l2.637,1.818l-2.14,3.677l-3.699-2.55l1.506-2.588c-0.411,0.087-0.811,0.171-1.245,0.264c-0.076,0.016-0.145,0.038-0.22,0.055   l-0.954,1.639l-1.359-0.937c-0.392,0.155-0.759,0.326-1.107,0.508l1.937,1.335l-2.14,3.677l-2.958-2.039   c0.029-0.054,0.052-0.109,0.082-0.163c1.14-1.997,3.401-3.368,6.718-4.076c5.217-1.113,8.729-1.808,11.547-2.358   c-0.452,0.088-0.917,0.179-1.409,0.276L46.664,24.692z M26.58,30.116c0.111-0.33,0.254-0.657,0.426-0.978   C26.835,29.459,26.691,29.785,26.58,30.116z M16.285,49.055c0.237-7.266,8.352-10.356,10.046-10.923l5.36,2.528l0.284,0.052   c0.413,1.297,1.298,2.481,2.561,3.462c-0.451,0.256-0.806,0.641-0.849,1.134c-0.042,0.478,0.213,0.876,0.596,1.214   c-0.091,0.116-0.182,0.238-0.27,0.384c-4.212-0.35-7.106,2.551-7.876,3.432c-0.424-0.131-0.922-0.21-1.507-0.21   c-1.448,0-3.323,0.431-4.247,1.393c-0.433,0.45-0.618,0.976-0.537,1.522c-0.005,0.208,0.005,0.756,0.17,1.489   C18.49,53.768,16.553,52.278,16.285,49.055z M22.204,55.679l0.005-0.002c-0.005-0.009-0.013-0.015-0.018-0.024   c-0.684-1.39-0.643-2.526-0.638-2.611l0.005-0.085l-0.016-0.084c-0.019-0.097-0.017-0.219,0.145-0.387   c0.463-0.481,1.754-0.859,2.94-0.859c0.812,0,1.146,0.171,1.159,0.161c0,0-0.003,0.071-0.114,0.228   c-1.231,1.737-1.194,4.629-1.016,6.452C23.396,57.575,22.65,56.576,22.204,55.679z M26.735,59.697   c0.371-0.941,1.354-2.984,3.148-3.838c0.945-0.448,1.978-0.499,3.077-0.175c1.044,0.411,1.757,1.309,2.583,2.347   c0.738,0.928,1.56,1.953,2.774,2.878l0.881,0.817c0.176,0.507,0.355,0.993,0.509,1.394C37.447,63.133,31.993,62.802,26.735,59.697z    M61.788,62.598c-4.585,0-17.319,0.373-20.3,0.462c-0.467-1.197-1.237-3.305-1.298-4.109c-0.009-0.118-0.016-0.352,0.016-0.627   c0.09-0.313,0.194-0.638,0.324-0.972c0.071-0.113,0.152-0.223,0.255-0.32c0.354-0.332,0.866-0.494,1.566-0.494   c1.067,0,2.47,0.381,4.171,1.132c1.204,0.531,2.567,0.801,4.051,0.801c4.823,0,9.816-2.839,11.855-5.585   c1.126-1.515,1.396-2.963,0.781-4.188c-1.004-2-2.974-3.056-5.698-3.056c-2.422,0-5.018,0.87-6.516,1.731   c-0.903,0.52-2.376,1.21-4.729,1.21c-2.513,0-5.621-0.788-9.281-2.359c-1.005-0.373-1.389-0.653-1.529-0.787   c0.072-0.041,0.171-0.084,0.266-0.105c0.237-0.053,0.486-0.09,0.755-0.118l0.011-0.001c0.342-0.035,0.686-0.048,1.035-0.05   c0.006,0,0.012,0,0.019,0c0.349-0.002,0.702,0.006,1.061,0.014c0.315,0.007,0.637,0.013,0.965,0.015   c2.961,0.025,6.486-0.391,11.42-5.718l0.205-0.221c0.421-0.455,0.861-0.931,1.325-1.414c0.513-0.534,1.051-1.06,1.616-1.573l0,0   c0,0,0,0,0,0c2.051-1.859,4.524-3.514,7.935-4.514c0.15-0.044,0.298-0.089,0.452-0.131c0.25-0.067,0.509-0.128,0.769-0.188   c0.225-0.052,0.451-0.102,0.684-0.148c0.234-0.047,0.472-0.09,0.714-0.131c0.283-0.048,0.573-0.09,0.867-0.13   c0.222-0.03,0.443-0.06,0.671-0.085c0.353-0.039,0.72-0.068,1.09-0.094c0.194-0.014,0.382-0.032,0.58-0.043   c0.58-0.031,1.176-0.05,1.798-0.05c0.639,0,1.233,0.025,1.815,0.057c0.3,0.017,0.598,0.04,0.894,0.066   c9.724,0.836,11.073,6.24,11.073,11.008C83.476,57.177,77.801,62.598,61.788,62.598z"></path><path fill="#00FFDC" d="M42.069,35.537c-2.12,0.067-4.105,1.218-4.423,2.565l1.673,0.305c0.138-0.585,1.423-1.327,2.811-1.371   c1.079-0.031,2.473,0.315,3.073,2.169l1.644-0.41C46.165,36.681,44.376,35.465,42.069,35.537z"></path></g></svg>