<svg fill="#00FFDC" xmlns="http://www.w3.org/2000/svg" xmlns:xlink="http://www.w3.org/1999/xlink" version="1.1" x="0px" y="0px" viewBox="0 0 100 100" enable-background="new 0 0 100 100" xml:space="preserve"><g><path fill="#00FFDC" d="M73.591,76.292c0,0,1.62-1.656,4.391-3.54c10.074-2.534,17.554-11.665,17.554-22.514V27.024   c0-12.801-10.414-23.215-23.215-23.215H27.678c-12.801,0-23.215,10.414-23.215,23.215v23.215c0,10.849,7.481,19.98,17.554,22.514   c2.771,1.884,4.391,3.54,4.391,3.54c0.196,0.144,0.379,0.294,0.533,0.456c1.2,1.256,1.118,2.993,1.039,4.674   c-0.019,0.415-0.038,0.818-0.038,1.202c0,3.061-2.133,5.012-6.354,5.831c1.457-1.083,2.649-2.664,2.649-4.938   c0-1.563-0.491-3.026-1.406-4.299c-0.037-0.052-0.071-0.098-0.108-0.151c-0.571-0.756-1.293-1.443-2.161-2.036   c-0.297-0.203-0.624-0.384-0.951-0.564c-2.735-1.437-5.434-3.15-9.305-2.121c-3.195,0.85-5.844,4.734-5.844,8.279v3.572   c0,5.51,4.483,9.993,9.993,9.993h15.392c3.592,0,6.738-1.912,8.5-4.765c1.399,0.769,3.013,1.215,4.738,1.215h13.83   c1.724,0,3.339-0.446,4.738-1.215c1.762,2.853,4.908,4.765,8.5,4.765h15.392c5.51,0,9.993-4.483,9.993-9.993v-3.572   c0-3.544-2.649-7.429-5.844-8.279c-3.872-1.029-6.57,0.684-9.305,2.121c-0.328,0.18-0.654,0.361-0.951,0.564   c-0.869,0.593-1.591,1.28-2.161,2.036c-0.038,0.054-0.071,0.099-0.108,0.151c-0.915,1.273-1.406,2.736-1.406,4.299   c0,2.274,1.192,3.855,2.649,4.938c-4.221-0.819-6.354-2.77-6.354-5.831c0-0.384-0.018-0.786-0.038-1.202   c-0.078-1.68-0.16-3.417,1.039-4.674C73.213,76.586,73.396,76.436,73.591,76.292z M60.297,81.043   c-2.612,2.594-6.252,4.224-10.297,4.224c-4.045,0-7.685-1.63-10.297-4.224c-0.546-3.412-2.816-6.254-5.894-7.589h8.809   c0.443,3.682,3.582,6.547,7.382,6.547c3.8,0,6.938-2.865,7.382-6.547h8.81C63.113,74.789,60.843,77.631,60.297,81.043z    M44.422,73.454h11.155c-0.43,2.694-2.763,4.762-5.577,4.762C47.186,78.216,44.853,76.148,44.422,73.454z M6.249,50.239V27.024   c0-11.816,9.613-21.429,21.429-21.429h44.644c11.816,0,21.429,9.613,21.429,21.429v23.215c0,11.816-9.613,21.429-21.429,21.429   H27.678C15.862,71.668,6.249,62.054,6.249,50.239z M29.847,94.06H14.456c-4.336,0-7.865-3.529-7.865-7.865v-3.572   c0-0.899,0.159-1.76,0.438-2.566c0.764-1.631,1.775-3.389,3.591-3.858c3.618-0.935,6.832,0.813,8.962,2.267   c1.908,1.304,2.917,3.049,2.917,5.049c0,4.074-5.795,5.274-6.371,5.383c-0.443,0.041-0.79,0.413-0.79,0.867   c0,0.48,0.39,0.87,0.871,0.87c0.004,0.001,0.01,0,0.017,0c11.124,0,13.459-4.357,13.459-8.013c0-0.357,0.018-0.733,0.037-1.12   c0.086-1.854,0.194-4.161-1.519-5.957c-0.275-0.289-0.605-0.545-0.96-0.787h2.605c4.336,0,7.865,3.529,7.865,7.865v3.572   C37.712,90.531,34.183,94.06,29.847,94.06z M56.915,90.67h-13.83c-1.414,0-2.736-0.379-3.869-1.031   c0.397-1.076,0.625-2.232,0.625-3.444v-2.628c2.783,2.166,6.305,3.485,10.16,3.485c3.855,0,7.376-1.319,10.16-3.485v2.628   c0,1.212,0.228,2.368,0.625,3.444C59.651,90.291,58.329,90.67,56.915,90.67z M71.798,75.546c-1.713,1.796-1.605,4.103-1.519,5.957   c0.018,0.387,0.037,0.763,0.037,1.12c0,3.656,2.335,8.013,13.459,8.013c0.007,0,0.013,0.001,0.017,0c0.481,0,0.871-0.39,0.871-0.87   c0-0.453-0.347-0.826-0.79-0.867c-0.576-0.109-6.371-1.31-6.371-5.383c0-2,1.009-3.746,2.917-5.049   c2.13-1.454,5.344-3.202,8.962-2.267c1.816,0.469,2.827,2.227,3.591,3.858c0.279,0.806,0.438,1.666,0.438,2.566v3.572   c0,4.336-3.529,7.865-7.865,7.865H70.153c-4.336,0-7.865-3.529-7.865-7.865v-3.572c0-4.336,3.529-7.865,7.865-7.865h2.605   C72.403,75,72.073,75.257,71.798,75.546z"></path></g><g><path fill="#00FFDC" d="M82.817,21.891c-2.754-5.573-7.723-8.399-14.767-8.399c-5.821,0-11.361,2.003-13.163,2.723   c-0.285-0.312-0.53-0.554-0.782-0.774c-2.559-2.234-6.08-3.081-10.291-2.504c-21.832,2.306-25.152,16.353-25.504,18.27   C16.746,33.1,15.919,35.102,15.919,37c0,2.813,1.708,4.069,2.956,4.987c0.49,0.36,1.044,0.769,1.044,1.013   c0,0.094-0.131,0.198-0.847,0.5c-1.025,0.434-2.742,1.161-2.633,3.545c0.018,0.408-0.006,1.001-0.035,1.688   c-0.165,4.006-0.508,12.344,7.278,14.238c5.561,1.353,16.492,2.751,25.158,2.751c3.703,0,6.817-0.244,9.263-0.726l0.01,0.033   l0.383-0.113c1.497-0.319,2.741-0.747,3.701-1.272c16.237-1.452,18.961-9.354,19.138-13.939c0.148-3.842-0.279-8.789-0.388-9.953   C81.953,38.157,86.149,30.687,82.817,21.891z M23.849,52.694c0.369-0.131,0.97-0.3,1.614-0.3c0.544,0,1.027,0.119,1.438,0.354   c-0.069,0.881-0.348,2.07-0.921,2.6c-0.267,0.248-0.557,0.337-0.969,0.296c-0.315-0.029-0.534-0.144-0.708-0.371   C23.784,54.603,23.809,53.276,23.849,52.694z M28.907,52.937c0.448-0.15,1.406-0.433,2.255-0.433c0.288,0,0.537,0.033,0.741,0.097   c-0.068,1.284-0.394,3.254-1.748,3.405c-0.215,0.023-0.368-0.018-0.506-0.149C29.16,55.393,28.929,54.087,28.907,52.937z    M34.039,52.349c0.367-0.287,1.059-0.757,1.665-0.762l0,0.029c0.03,1.625-0.152,2.319-0.653,2.399   C34.763,54.016,34.321,53.281,34.039,52.349z M37.959,51.744c0.916-0.225,1.823-0.318,2.311-0.239   c0.021,0.119,0.048,0.243,0.079,0.376c0.09,0.392,0.258,1.121,0.081,1.399c-0.064,0.101-0.226,0.186-0.428,0.23   c-0.612,0.095-1.075,0.001-1.397-0.285C38.18,52.849,38.02,52.166,37.959,51.744z M42.265,50.823   c0.043-0.037,0.069-0.053,0.068-0.053c0.029-0.013,0.722-0.31,1.449-0.31c0.453,0,0.815,0.116,1.08,0.343   c0.079,0.456-0.367,1.357-0.721,1.829c-0.271,0.335-0.39,0.342-0.409,0.34C43.366,52.909,42.687,51.905,42.265,50.823z    M20.941,52.348c0.081,0.029,0.187,0.06,0.331,0.063c0.036,0,0.066-0.006,0.091-0.012c0.163,0.022,0.299,0.045,0.408,0.065   c-0.133,0.86-0.575,2.74-1.884,2.764c-0.31,0-0.54-0.092-0.724-0.289c-0.587-0.627-0.679-2.025-0.687-2.708   C19.354,52.232,20.227,52.273,20.941,52.348z M19.874,57.229h0.063c0.998-0.019,1.834-0.418,2.494-1.189   c0.09,0.171,0.184,0.32,0.287,0.454c0.513,0.666,1.241,1.062,2.108,1.144c0.972,0.091,1.844-0.199,2.514-0.82   c0.11-0.103,0.215-0.214,0.314-0.333c0.176,0.324,0.381,0.6,0.614,0.821c0.563,0.537,1.305,0.781,2.104,0.688   c1.42-0.157,2.465-1.077,3.043-2.67c0.567,0.558,1.212,0.791,1.982,0.664c0.819-0.133,1.428-0.578,1.814-1.324   c0.017,0.016,0.035,0.032,0.053,0.048c0.614,0.552,1.387,0.832,2.297,0.832c0.248,0,0.51-0.021,0.793-0.065   c0.801-0.169,1.393-0.547,1.76-1.123c0.01-0.016,0.021-0.032,0.03-0.049c0.398,0.35,0.816,0.564,1.248,0.639   c0.104,0.017,0.217,0.027,0.338,0.027c0.725,0,1.391-0.371,1.984-1.107c0.18-0.237,1.709-2.331,0.938-3.997   c0.39-1.513,2.022-3.346,4.497-5.043c0.587-0.403,1.572-0.625,2.772-0.625c1.557,0,3.291,0.381,4.639,1.02   c1.15,0.544,1.896,1.231,1.943,1.792c0.096,1.121-1.654,2.259-3.064,3.176c-1.484,0.965-2.657,1.728-2.516,2.929   c0.196,1.666,0.582,2.66,2.349,4.147c0.531,0.447,1.311,1.525,2.241,3.097c0.181,0.386,0.365,0.942,0.216,1.4   c-0.179,0.545-0.819,0.973-1.889,1.268c-2.27,0.466-5.241,0.702-8.833,0.702c-9.476,0-20.239-1.581-24.854-2.703   c-2.276-0.554-3.843-1.813-4.776-3.843C19.545,57.215,19.709,57.229,19.874,57.229z M58.564,55.735   c-1.303-1.097-1.498-1.601-1.646-2.688c0.195-0.26,1.183-0.901,1.619-1.185c1.854-1.206,4.16-2.706,3.962-5.021   c-0.113-1.325-1.207-2.542-3.079-3.429c-1.622-0.768-3.681-1.226-5.507-1.226c-1.602,0-2.948,0.342-3.893,0.99   c-2.559,1.755-4.298,3.632-5.048,5.443c-0.361-0.109-0.753-0.164-1.169-0.164c-1.208,0-2.215,0.46-2.212,0.46   c-0.052,0.019-0.152,0.064-0.294,0.147l-0.488,0.383c-0.035,0.033-0.069,0.066-0.105,0.102c-0.27-0.052-0.57-0.078-0.896-0.078   c-1.027,0-2.117,0.261-2.733,0.438c-0.416-0.224-0.871-0.337-1.353-0.337c-1.23,0-2.33,0.715-2.939,1.207   c-0.464-0.187-1.008-0.281-1.618-0.281c-1.201,0-2.415,0.366-3.1,0.613c-0.751-0.479-1.621-0.722-2.585-0.722   c-0.976,0-1.845,0.246-2.433,0.47c-0.195-0.099-0.429-0.187-0.699-0.263c0.04-0.258,0.105-0.556,0.213-0.805   c2.808-1.557,4.258-3.417,4.31-5.528c0.097-3.936-4.87-6.988-5.082-7.116c-0.46-0.279-1.097-0.12-1.373,0.337   c-0.285,0.472-0.134,1.087,0.337,1.374c1.165,0.706,4.175,3.043,4.118,5.355c-0.034,1.384-1.188,2.7-3.424,3.908   c-0.043,0.023-0.085,0.049-0.124,0.079c-0.217,0.161-0.727,0.679-0.949,2.086c-0.601-0.044-1.274-0.064-2.021-0.055   c0.012-0.497,0.031-0.973,0.05-1.422c0.03-0.729,0.056-1.36,0.033-1.852c-0.041-0.917,0.312-1.145,1.416-1.612   c0.823-0.348,2.067-0.875,2.067-2.342c0-1.256-0.987-1.982-1.859-2.624c-1.101-0.811-2.141-1.576-2.141-3.376   c0-2.554,2.113-4.829,3.021-5.688c0.073-0.069,0.156-0.167,0.248-0.294c0.144,0.453,0.368,0.858,0.67,1.211   c1.381,1.614,4.063,2.086,6.149,2.19c0.729,4.086,5.772,6.935,8.304,6.935c4.964,0,7.577-1.966,8.438-6.367l0.014,0.002   c3.375,0.532,6.16,0.326,8.29-0.632l0.103-0.039c0.209-0.079,5.174-1.922,10.952-1.922c6.838,0,11.83,2.498,14.838,7.426   c0.103,1.105,0.535,6.068,0.392,9.807C79.188,53.5,76.795,60.19,62.5,61.608c-0.231-0.442-0.697-1.313-1.254-2.25   c-0.256-0.503-0.484-0.802-0.495-0.813C59.897,57.184,59.16,56.238,58.564,55.735z M36.117,28.937c0.323,0,0.651,0.019,0.974,0.057   c1.367,0.157,4.005,0.84,5.224,2.396c0.527,0.673,0.728,1.435,0.612,2.329c-0.458,3.568-1.687,5.634-6.616,5.634   c-1.997,0-6.392-2.86-6.392-5.916C29.919,30.956,32.7,28.937,36.117,28.937z M44.663,33.942c0,0.001,0,0.003-0.001,0.004l0,0   C44.663,33.944,44.663,33.943,44.663,33.942z M53.635,31.661c-1.75,1.509-4.655,1.967-8.56,1.352l-0.141-0.021   c-0.048-1.057-0.399-2.009-1.045-2.834c-1.52-1.941-4.489-2.911-6.569-3.151c-0.399-0.046-0.804-0.069-1.204-0.069   c-4.033,0-7.461,2.338-8.09,5.475c-2.265-0.133-3.953-0.67-4.649-1.484c-0.375-0.438-0.479-0.997-0.319-1.708   c1.509-6.711,8.395-11.391,21.028-14.303c3.656-0.49,6.601,0.196,8.703,2.031c2.475,2.161,3.129,5.34,3.129,6.721l0.003,0.452   C55.94,26.051,55.971,29.646,53.635,31.661z M64.11,30.412c-2.949,0-5.679,0.452-7.611,0.882c1.466-2.483,1.438-5.512,1.424-7.191   l-0.003-0.436c0-1.454-0.468-3.712-1.766-5.802c2.1-0.8,6.907-2.394,11.889-2.394c6.219,0,10.576,2.436,12.942,7.216   c2.456,6.492,0.18,12.361-1.127,14.91C76.413,32.829,71.117,30.412,64.11,30.412z"></path><path fill="#00FFDC" d="M65.34,42c1.763,0,3.197-1.57,3.197-3.5S67.103,35,65.34,35s-3.197,1.57-3.197,3.5S63.577,42,65.34,42z    M65.34,37c0.66,0,1.197,0.673,1.197,1.5S66,40,65.34,40s-1.197-0.673-1.197-1.5S64.68,37,65.34,37z"></path><path fill="#00FFDC" d="M71.847,51c-1.896,0-3.439,1.57-3.439,3.5s1.543,3.5,3.439,3.5s3.439-1.57,3.439-3.5S73.743,51,71.847,51z    M71.847,56c-0.794,0-1.439-0.673-1.439-1.5s0.646-1.5,1.439-1.5s1.439,0.673,1.439,1.5S72.641,56,71.847,56z"></path><path fill="#00FFDC" d="M64.783,46.517c-0.853,0.614-1.819,1.311-1.907,2.409c-0.051,0.628,0.203,1.228,0.757,1.781   c0.584,0.585,1.22,0.881,1.887,0.881c1.186,0,1.926-0.915,2.15-1.263c0.274-0.254,2.742-2.544,4.873-4.606   c1.823-1.766,2.677-3.174,2.688-4.433c0.006-0.753-0.28-1.424-0.849-1.993c-0.492-0.492-1.017-0.595-1.369-0.595   c-1.347,0-2.394,1.441-3.187,2.532c-0.124,0.17-0.235,0.324-0.331,0.443c-0.891,1.105-2.933,3.228-3.889,4.195   C65.409,46.066,65.091,46.295,64.783,46.517z M72.967,40.707c0.184,0.183,0.265,0.357,0.263,0.562   c-0.004,0.46-0.368,1.356-2.078,3.012c-2.236,2.164-4.889,4.62-4.938,4.668l-0.158,0.202c-0.074,0.127-0.354,0.437-0.537,0.437   c-0.111,0-0.288-0.11-0.473-0.295c-0.122-0.122-0.168-0.203-0.177-0.203c-0.001,0-0.001,0-0.001,0.001   c0.044-0.203,0.799-0.747,1.084-0.952c0.375-0.27,0.764-0.55,1.075-0.866c0.978-0.989,3.076-3.171,4.023-4.347   c0.121-0.15,0.264-0.345,0.424-0.565C72.448,41.025,72.832,40.756,72.967,40.707z"></path></g></svg>