<svg fill="#0F131C" xmlns="http://www.w3.org/2000/svg" xmlns:xlink="http://www.w3.org/1999/xlink" version="1.1" x="0px" y="0px" viewBox="0 0 100 100" enable-background="new 0 0 100 100" xml:space="preserve"><g><path d="M50.591,5.498c-24.588,0-44.592,20.004-44.592,44.592c0,24.588,20.003,44.592,44.592,44.592   c24.589,0,44.593-20.004,44.593-44.592C95.184,25.502,75.18,5.498,50.591,5.498z M50.591,92.145   c-23.188,0-42.055-18.865-42.055-42.055c0-23.189,18.867-42.055,42.055-42.055c23.189,0,42.056,18.866,42.056,42.055   C92.646,73.279,73.78,92.145,50.591,92.145z"></path><path d="M50.591,11.493c-21.282,0-38.597,17.315-38.597,38.597c0,13.891,7.519,26.772,19.622,33.618l1.153,0.65l6.604-12.935   l-1.025-0.607c-7.268-4.303-11.792-12.202-11.825-20.632h11.428c-0.023,0.822-0.184,1.977-0.801,2.948l-7.016-0.049l0.351,1.559   c1.426,6.319,5.743,11.584,11.629,14.239v5.542L36.77,86.045l2.305,1.062l5.575-12.128v-7.791l-0.795-0.32   c-2.339-0.939-4.417-2.34-6.136-4.082c3.429-2.783,8.047-4.362,12.874-4.362c4.818,0,9.434,1.577,12.862,4.353   c-3.287,3.332-7.85,5.389-12.864,5.389h-1.269v7.587l-6.664,12.163l1.775,0.284c2.021,0.324,4.093,0.487,6.157,0.487   c1.898,0,3.807-0.138,5.671-0.412l1.734-0.257l-6.137-12.241v-5.113c10.321-0.63,18.689-8.898,19.307-19.34l0.068-1.168   l-11.678-1.649v6.758l4.497,1.799l0.943-2.356l-2.903-1.16v-2.12l6.434,0.908c-0.393,3.174-1.608,6.078-3.417,8.515   c-2.556-2.085-5.688-3.576-9.078-4.351v-9.049c0.892-0.19,2.199-0.568,3.604-1.301c1.927-1.005,4.361-2.867,5.92-6.211   c0.919,1.358,1.664,2.858,2.198,4.474l2.41-0.797c-2.796-8.455-10.662-14.136-19.574-14.136c-1.796,0-3.56,0.236-5.256,0.686   l-1.093-3.298c2.061-0.562,4.19-0.845,6.35-0.845c11.053,0,20.653,7.476,23.344,18.181l2.461-0.619   c-1.818-7.234-6.491-13.134-12.64-16.628l1.803-2.933c9.017,5.197,15.097,14.936,15.097,26.068c0,4.394-0.925,8.626-2.75,12.584   l2.302,1.063c1.982-4.293,2.985-8.885,2.985-13.647c0-17.977-14.626-32.602-32.602-32.602c-3.853,0-7.624,0.666-11.208,1.978   l0.872,2.382c3.306-1.209,6.783-1.824,10.336-1.824c4.541,0,8.849,1.014,12.711,2.823l-1.816,2.957   c-3.345-1.498-7.039-2.322-10.895-2.322c-2.858,0-5.671,0.451-8.361,1.341l-1.205,0.398l1.902,5.741   c-4.028,1.619-7.512,4.49-9.86,8.271l-3.922-0.084c1.712-3.352,4.194-6.267,7.259-8.506l0.781-0.571l-3.093-8.152l-1.32,0.864   C23.516,28.837,17.99,39.045,17.99,50.09c0,9.567,4.181,18.617,11.471,24.827l1.646-1.931c-6.724-5.727-10.58-14.072-10.58-22.896   c0-9.655,4.58-18.617,12.328-24.279l1.279,3.373c-3.579,2.82-6.377,6.503-8.123,10.707l-0.712,1.715l9.208,0.198l0.374-0.656   c3.213-5.633,9.234-9.133,15.711-9.133c5.101,0,9.809,2.123,13.146,5.657c-2.343,6.8-8.791,7.411-9.067,7.435l-1.173,0.088v10.864   c-0.958-0.113-1.929-0.174-2.904-0.174c-1.003,0-2,0.062-2.981,0.185V45.217l-1.069-0.169c-3.827-0.608-5.512-2.457-6.136-3.396   c0.761-0.921,2.566-2.719,5.656-3.686c-0.16,0.471-0.248,0.975-0.248,1.499c0,2.584,2.103,4.686,4.687,4.686   c2.585,0,4.687-2.102,4.687-4.686c0-2.585-2.102-4.687-4.687-4.687c-8.778,0-12.516,5.847-12.669,6.096L37.5,41.407l0.222,0.587   c0.066,0.172,1.595,4.033,7.353,5.353v9.167c-3.364,0.78-6.471,2.268-9.01,4.34c-1.162-1.564-2.073-3.321-2.681-5.211l4.977,0.033   l0.383-0.446c2.26-2.637,1.689-6.36,1.663-6.518l-0.172-1.065H24.068l-0.056,1.21c-0.019,0.409-0.028,0.823-0.028,1.232   c0,4.705,1.246,9.332,3.602,13.377c2.085,3.578,4.993,6.638,8.455,8.902l-4.317,8.457c-10.639-6.545-17.192-18.2-17.192-30.736   c0-19.883,16.176-36.06,36.06-36.06c19.884,0,36.06,16.176,36.06,36.06c0,12.706-6.697,24.458-17.56,30.959l-1.802-2.952   c3.406-2.032,6.384-4.64,8.863-7.77l-1.988-1.575c-2.544,3.208-5.653,5.824-9.243,7.775l-1.173,0.636l4.455,7.303l1.063-0.591   C81.556,77.07,89.188,64.123,89.188,50.09C89.188,28.808,71.874,11.493,50.591,11.493z M54.135,85.978   c-2.487,0.243-5.016,0.229-7.5-0.042l3.906-7.129L54.135,85.978z M52.65,39.465c0,1.185-0.964,2.149-2.149,2.149   c-1.185,0-2.149-0.964-2.149-2.149s0.964-2.15,2.149-2.15C51.687,37.315,52.65,38.28,52.65,39.465z"></path><path d="M71.209,66.906c3.643-4.462,5.705-9.858,5.961-15.608l-2.533-0.113c-0.233,5.2-2.098,10.083-5.391,14.117   c-3.252,3.98-7.581,6.772-12.52,8.068l-1.471,0.387l6.217,13.32l2.3-1.073L58.821,75.4C63.68,73.827,67.941,70.911,71.209,66.906z"></path></g></svg>