<svg fill="#0F131C" xmlns="http://www.w3.org/2000/svg" data-name="Layer 1" viewBox="0 0 5 5" x="0px" y="0px"><title>maze</title><g><path d="M1.03723,3.56046A.75563.75563,0,0,1,.97164,2.982a.77064.77064,0,0,1,.04167-.11165l.06463-.11276a.75566.75566,0,0,1,.22387-.212l.02463.04449a.71043.71043,0,0,0-.32975.52759L1.07,3.12132a.63756.63756,0,0,1,.422-.53009l-.0206-.07046a.71547.71547,0,0,0-.081.03379L1.3846,2.544l-.03689-.06664-.0002.00011-.01742-.03131-.03128.01642a.84808.84808,0,0,0-.081.05109l.44578-.77779a.8412.8412,0,0,0-.002.11224l-.17789.31849.06393.03571L1.57566,2.152l.07052.04209.03752-.06289L1.61139,2.088l.04607-.08248.01878-.037a.83107.83107,0,0,0,.08929.244l.00273.00567.00119.00248a1.1157,1.1157,0,0,0-.128.01036.83149.83149,0,0,0-.19159.04172l-.03018.01274.03289.11092q-.028.00885-.05542.01974l.036.06465a.75235.75235,0,0,1,.26842-.04964.76413.76413,0,0,1,.21114.02992A.75632.75632,0,0,1,2.293,2.713l.05428-.04927q-.01877-.023-.0392-.04463a.83694.83694,0,0,0,.14932.02017V2.7484h.07323V2.63922L2.533,2.63913a.84041.84041,0,0,0,.15416-.02145q-.01976.02132-.038.04391l-.00465.00579-.00427.00543q-.024.03058-.04513.06341l.06325.03753a.76554.76554,0,0,1,.04932-.06813L2.716,2.6957,2.716,2.69562q.02328-.0275.049-.05267l.03351.0378a.71041.71041,0,0,0-.20685.58678l.07233-.01247A.63788.63788,0,0,1,2.9604,2.6457l-.03545-.06425a.71573.71573,0,0,0-.07164.05062L2.81981,2.5943a.762.762,0,0,1,.74111-.12179l.03556-.06517q-.02738-.01055-.05551-.01919l.03212-.1117L3.54283,2.264a.83135.83135,0,0,0-.19193-.04014,1.11566,1.11566,0,0,0-.128-.0093L3.224,2.212l.002-.00421a.82673.82673,0,0,0,.06063-.13963l-.05-.09676a.75954.75954,0,0,1-.06506.18106l-.01062.0217a.76035.76035,0,0,1-.0975.13778q-.01661.01868-.0342.036L3.004,2.37073a.757.757,0,0,1-.47081.195q-.03661.00186-.07323.00022a.76664.76664,0,0,1-.12944-.0169l-.00186-.0004L2.31608,2.5457l-.00565-.00134-.00117-.0003a.75555.75555,0,0,1-.3037-.15525l.03363-.03726a.70422.70422,0,0,0,.18414.11106l-.00006.00013a.70489.70489,0,0,0,.27075.05372l.04256-.00125a.70517.70517,0,0,0,.48887-.237l.01071-.01235-.00062-.00047a.70849.70849,0,0,0,.04452-.05815l.00063.00048a.70243.70243,0,0,0,.10752-.24731l-.00116-.00019q.00618-.02813.01008-.05692l-.073-.00656q-.00369.0261-.00944.05162a.63225.63225,0,0,1-.02017.07l-.04117-.01871a.58943.58943,0,0,0,.03122-.228.59563.59563,0,0,0-.02052-.124l-.06871.02647a.52235.52235,0,0,1,.01612.10179.51372.51372,0,0,1-.12976.37389l-.01638.01757-.03149-.039.01005-.01092a.46984.46984,0,0,0,.06954-.10271l-.06815-.02765a.39651.39651,0,0,1-.05612.0817.39131.39131,0,0,1-.26159.13076l.00068-.053a.34063.34063,0,0,0,.10449-.02727L2.59679,2.055a.26826.26826,0,0,1-.35434-.15728l-.07111.01814A.341.341,0,0,0,2.455,2.146l-.00068.05309A.394.394,0,0,1,2.124,1.67313L2.05649,1.6446a.46541.46541,0,0,0-.01788.06072l-.0484-.00944A.51325.51325,0,0,1,2.07286,1.508l-.0584-.04426q-.01651.02314-.03053.0474l-.04084-.022a.63739.63739,0,0,1,.45042-.31109L2.397,1.17755,2.40765,1.176,2.415,1.17505l.00655-.00079.0117-.00123.00181-.00017a.64208.64208,0,0,1,.16373.006l.0128-.07272A.71567.71567,0,0,0,2.45334,1.098l-.04183.00372L2.40881,1.102l-.0129.00167-.00671.001L2.38,1.10608l-.01023.00174-.00578.001L2.3505,1.1115,2.348,1.112a.70548.70548,0,0,0-.33.16788l-.02972.02851-.03738-.03323a.75959.75959,0,0,1,.57186-.22833l.00168.00006.01353.00066.0089.00056.00634.00046a.758.758,0,0,1,.47172.21334L3.07855,1.211,3.049,1.18343A.82951.82951,0,0,0,2.55855.97556L2.55233.97511,2.54169.97445,2.528.97379,2.52486.97366a.83241.83241,0,0,0-.79878.508l-.00095-.00054L1.01623,2.718a.836.836,0,0,0-.04307.87793l.01167.02036.06294-.03744Zm2.0809-1.19984a.83922.83922,0,0,0,.05672-.0713.80983.80983,0,0,1,.167.00716,1.10924,1.10924,0,0,1,.14193.02571l-.01366.0475a.82794.82794,0,0,0-.36406.00418Zm-1.59478.01676-.01392-.04693a1.10853,1.10853,0,0,1,.14171-.02688A.80863.80863,0,0,1,1.81823,2.295a.83911.83911,0,0,0,.05713.07058l.01249.01345A.82732.82732,0,0,0,1.52336,2.37738Zm.8322-.124a.4655.4655,0,0,0,.13844.021l.028-.00082a.464.464,0,0,0,.25743-.09589l.03115.03855a.51109.51109,0,0,1-.13107.07343l.0239.0693a.58742.58742,0,0,0,.233-.16044.59338.59338,0,0,0,.0886-.13126l.0412.01873a.6321.6321,0,0,1-.08917.13519.64673.64673,0,0,1-.05624.05758.63336.63336,0,0,1-.38162.16245L2.54,2.39485a.59651.59651,0,0,0,.09334-.01451l-.024-.06964a.52365.52365,0,0,1-.08375.01176.5168.5168,0,0,1-.19075-.02437Zm-.37576-.48489.04868.0095a.46765.46765,0,0,0,.259.44816l-.02053.04433a.51976.51976,0,0,1-.11523-.07774l-.01036-.00947-.05335.0503.015.01391a.58582.58582,0,0,0,.36371.14852l-.0008.04615a.63979.63979,0,0,1-.21139-.04584.633.633,0,0,1-.06618-.03136l.00007-.00015A.64171.64171,0,0,1,2.072,2.28235a.634.634,0,0,1-.13026-.16072L1.98436,2.102a.58526.58526,0,0,0,.0538.07781l.05345-.05038A.51757.51757,0,0,1,1.97979,1.76846Zm-.02846-.19169a.59349.59349,0,0,0,.0004.45967l-.04241.01949a.63829.63829,0,0,1-.04345-.1539l-.00147.00015a.63877.63877,0,0,1-.00665-.07293l.00133-.00013a.63737.63737,0,0,1,.05124-.27443Zm-.21194.142A.75489.75489,0,0,1,1.90231,1.33l.03719.03307A.70453.70453,0,0,0,1.785,1.7707q-.00167.033-.00029.06572a.712.712,0,0,0,.00668.07293.70479.70479,0,0,0,.176.37312l.01815.01926-.03409.03777-.02173-.023a.76025.76025,0,0,1-.09939-.1383l-.01-.02a.7596.7596,0,0,1-.06655-.18052l-.00045.0009a.76345.76345,0,0,1-.01815-.12616l.00058-.00115A.76873.76873,0,0,1,1.73939,1.71873Z"></path><path d="M2.42421,1.93906l-.04959.05578a.22167.22167,0,0,0,.33017-.255L2.638,1.77245a.14845.14845,0,0,1-.21379.16661Z"></path><path d="M4.09712,2.94852h0a.83633.83633,0,0,0-.04847-.12546l0,0-.00024-.00042a.82672.82672,0,0,0-.06606-.1131l-.24779-.4242L3.222,1.39825a.827.827,0,0,0-.09343-.13373l-.05379.051a.75518.75518,0,0,1,.174.39689L3.25,1.72458l-.04967.00292a.70464.70464,0,0,0-.23378-.45139.71855.71855,0,0,0-.0994-.07412l-.00027.00051a.704.704,0,0,0-.06424-.03514L2.803,1.16677a.7004.7004,0,0,0-.1198-.04493L2.67031,1.195a.6324.6324,0,0,1,.29588.18458.647.647,0,0,1,.04593.057l-.03885.023a.591.591,0,0,0-.91265-.05274l.05864.04444a.51562.51562,0,0,1,.08349-.0715l.02339.04474a.46455.46455,0,0,0-.13894.15355l.06794.0287A.39254.39254,0,0,1,2.17677,1.574l.03953.03514a.341.341,0,0,0-.06077.23517L2.22739,1.826a.2678.2678,0,0,1,.26756-.28738l.0191.00074-.01012.047a.226.226,0,0,0-.0231.00015.22173.22173,0,0,0-.1606.35932l.04974-.056a.14907.14907,0,0,1-.0077-.15091l.04968.04417a.08628.08628,0,0,0,.0829.10986L2.5,1.89281a.08637.08637,0,1,0-.0401-.165l-.04875-.04335a.1476.1476,0,0,1,.074-.02482L2.494,1.65933a.14745.14745,0,0,1,.0985.03753l.011.01091.06763-.03305a.22293.22293,0,0,0-.09564-.0731l.01016-.0472A.26824.26824,0,0,1,2.6953,1.985a.27118.27118,0,0,1-.03524.03308l.03607.06456a.34434.34434,0,0,0,.0539-.049.33905.33905,0,0,0,.08607-.23621l.05219-.00689a.394.394,0,0,1-.01568.12863l.06817.02766a.46864.46864,0,0,0-.09884-.45264l.0368-.03488a.5126.5126,0,0,1,.093.1454l.06839-.02635a.58216.58216,0,0,0-.0275-.057l.03869-.02287a.63181.63181,0,0,1,.079.32525l.07412.00666c.00032-.00992.00047-.01987.00037-.02985l.04978-.00292c.00019.01577-.00021.0315-.001.0472l.07954.15378.04668.082-.072.04375.038.06258.07017-.04267.0285.05006.06364-.03624-.1805-.317a.84112.84112,0,0,0-.003-.11227l.34651.5932.1043.18049a.84111.84111,0,0,0-.11167-.06581l-.03523.06456a.75942.75942,0,0,1,.23746.18035.77237.77237,0,0,1,.06122.0788L3.979,2.849a.75457.75457,0,0,1,.07848.34528l-.05076-.00305a.70733.70733,0,0,0-.01027-.12575L3.925,3.082a.63756.63756,0,0,1-.03841.34417l-.04146-.02124a.58624.58624,0,0,0,.0277-.09051L3.8002,3.30356a.51327.51327,0,0,1-.16067.26955.525.525,0,0,1-.05386.04181l-.02272-.0443a.47158.47158,0,0,0,.08221-.07239l-.05835-.04476a.39367.39367,0,0,1-.27589.12658l.00317-.05271a.34125.34125,0,0,0,.27411-.51947l.0423-.03242a.39355.39355,0,0,1,.00085.4199l.05836.04477A.46446.46446,0,0,0,3.764,3.2143a.46979.46979,0,0,0-.009-.12444l.04732-.01123a.51587.51587,0,0,1,.01035.13859l-.001.014.07253.01083.00162-.02043a.58747.58747,0,0,0-.10847-.37746L3.81443,2.816a.63648.63648,0,0,1,.09439.19458l.07146-.01649a.71105.71105,0,0,0-.64072-.51641l-.01632-.00078.00138.07338.01055.0005a.63445.63445,0,0,1,.43325.20821l-.03722.02825A.59487.59487,0,0,0,3.66208,2.723l-.03983.06188a.52022.52022,0,0,1,.1597.22334l-.04762.0113a.469.469,0,0,0-.32167-.28632l.011-.04823a.51314.51314,0,0,1,.13862.05778l.03964-.06159a.58665.58665,0,0,0-.27-.08422.59344.59344,0,0,0-.15794.01154l-.011-.04489a.63443.63443,0,0,1,.08837-.0124L3.25,2.47783a.70223.70223,0,0,0-.26085.06842l.03547.06428A.62885.62885,0,0,1,3.0924,2.583l.011.045a.58943.58943,0,0,0-.19849.11644.59565.59565,0,0,0-.08474.09278l.06329.03763a.52237.52237,0,0,1,.07-.07561.51327.51327,0,0,1,.34233-.13018l.03174.001.02393.002-.01114.04882-.01481-.00115a.46984.46984,0,0,0-.12372.00887l.02041.07065a.3966.3966,0,0,1,.09891-.00642.39132.39132,0,0,1,.26452.12473l-.04222.03235a.34263.34263,0,0,0-.086-.06514l-.02829.06794a.269.269,0,0,1,.13541.21194L3.51906,3.1619a.22176.22176,0,0,0-.36753-.14154.2231.2231,0,0,0-.037.04217l.06711.03238a.14852.14852,0,0,1,.11688-.05714l.009.00027a.14857.14857,0,0,1,.01826.29434l.004-.06634a.08639.08639,0,0,0,.02443-.01521h0a.08653.08653,0,1,0-.09759.01171l-.00391.06507a.14863.14863,0,0,1-.10236-.15022L3.15213,3.162l-.06785-.03274a.22377.22377,0,0,0,.00173.12039l-.04335.02118a.26675.26675,0,0,1-.01327-.1007h0a.268.268,0,0,1,.33168-.24441l.02842-.06826a.34056.34056,0,0,0-.31056.06638L3.04116,2.887a.39387.39387,0,0,1,.11078-.06721L3.13152,2.7491a.4686.4686,0,0,0-.29461.35756l-.05017-.00735a.51262.51262,0,0,1,.05676-.163l-.063-.03745a.58812.58812,0,0,0-.07327.25188h0a.5879.5879,0,0,0,.04469.264l.06488-.03481a.51431.51431,0,0,1-.03718-.20764l.05054.00741a.46558.46558,0,0,0,.1038.3l.05349-.05046a.39352.39352,0,0,1,.00267-.48965l.03779.03685a.3396.3396,0,0,0-.07165.18933h0a.342.342,0,0,0,.2847.35736l-.00317.05268a.392.392,0,0,1-.2-.09338l-.0535.05048a.46774.46774,0,0,0,.11023.07435l-.02066.046a.51606.51606,0,0,1-.1643-.124.52225.52225,0,0,1-.06048-.08349l-.06457.03464q.0129.02234.02782.04364l-.03661.02721a.63539.63539,0,0,1-.09959-.22393l-.0723.01246a.71133.71133,0,0,0,.615.552L3.21609,3.937a.76274.76274,0,0,1-.31616-.108l-.045.0641a.83055.83055,0,0,0,.0901.04909l-.88372.00851a.8402.8402,0,0,0,.09754-.055l.36409-.00753-.00151-.07322-.0576.00119L2.46449,3.734l-.07323-.00058-.00067.08422-.09916.00205-.17433.01018q-.02243.01453-.046.02764a.75511.75511,0,0,1-.542.0751l.01407-.049a.706.706,0,0,0,.53706-.09084l-.04239-.05986a.63825.63825,0,0,1-.30956.09528l.00217-.04637a.59381.59381,0,0,0,.41463-.199l.03558.02955a.63712.63712,0,0,1-.08288.07849l.04238.05985a.70573.70573,0,0,0,.23407-.32864l.04888.014a.75435.75435,0,0,1-.20364.31441l.11285-.00659a.83233.83233,0,0,0,.08707-.12117l.00421-.00626.00153-.00227a1.11422,1.11422,0,0,0,.07363.10517.83161.83161,0,0,0,.13286.1442l.02625.0196.07672-.08194q.02886.02644.06017.05018l.04467-.06365a.7599.7599,0,0,1-.18255-.1963l-.06391.04083a.84067.84067,0,0,0,.0898.11713L2.65128,3.783a1.10864,1.10864,0,0,1-.09484-.10867.80789.80789,0,0,1-.09188-.13992.836.836,0,0,0,.03205-.08489l.00445-.01468a.831.831,0,0,0,.05525.13393L2.62021,3.528a.76023.76023,0,0,1-.06015-.15891.76925.76925,0,0,1-.016-.08.75888.75888,0,0,1,.07775-.45195l-.06355-.03771a.82711.82711,0,0,0-.05955.14547.84058.84058,0,0,0-.10739-.22231l-.0548.04974a.764.764,0,0,1,.12277.34246l-.00078,0,.00227.03655a.75375.75375,0,0,1-.00924.17368l0,.00016-.00048.00262-.00789.03781-.04886-.014a.7124.7124,0,0,0,.01755-.125l-.07336.00052a.64185.64185,0,0,1-.024.14063.63393.63393,0,0,1-.08867.18689L2.19,3.525a.58627.58627,0,0,0,.04676-.0823l-.06851-.02641a.51328.51328,0,0,1-.21556.22805.525.525,0,0,1-.06168.02907l-.01246-.04794a.46544.46544,0,0,0,.09606-.05285l-.0471-.05629q-.0161.0111-.03344.02071a.39114.39114,0,0,1-.26363.04254l.01461-.05084A.34151.34151,0,0,0,2.026,3.08142l.04818-.02234a.39452.39452,0,0,1-.09051.41021l.04715.05635a.46458.46458,0,0,0,.12158-.20436.46988.46988,0,0,0,.01833-.12341l.04863-.00064a.51584.51584,0,0,1-.0201.13751l-.00407.01343.06842.02638.006-.01958a.58583.58583,0,0,0-.0233-.39216l.0424-.01942a.63116.63116,0,0,1,.0497.21062l.07334-.00052a.711.711,0,0,0-.51308-.64364l-.01576-.00432-.01465.072.01019.00274a.63229.63229,0,0,1,.37773.2975l-.04251.01947a.59633.59633,0,0,0-.05343-.07791l-.05263.052a.52021.52021,0,0,1,.10718.25278l-.04894.00065a.46882.46882,0,0,0-.25156-.34949l.02128-.04472a.51313.51313,0,0,1,.12269.08659l.05238-.05173a.592.592,0,0,0-.402-.16371l-.00094-.04635a.6345.6345,0,0,1,.08894.00713l.01464-.07192a.70246.70246,0,0,0-.26949.00993l.02059.07042a.62865.62865,0,0,1,.07214-.012l.00095.04659a.59392.59392,0,0,0-.32178.14236l.05356.05051A.517.517,0,0,1,1.845,2.695l.02292.00718-.02156.04532L1.83225,2.743a.46975.46975,0,0,0-.12268-.01831l.00452.0734a.3966.3966,0,0,1,.09793.0153.39131.39131,0,0,1,.231.17938l-.04811.02231a.34069.34069,0,0,0-.06976-.08244l-.04246.06021a.26879.26879,0,0,1,.08593.23648l-.04386-.0126a.22168.22168,0,0,0-.373-.185l.05831.04613A.14849.14849,0,1,1,1.699,3.341l.01835-.06387a.086.086,0,0,0,.02715-.00952h0a.08649.08649,0,1,0-.09779-.00982l-.018.06261a.1488.1488,0,0,1-.06717-.16889h0l.00506-.01468-.059-.0467a.222.222,0,0,0-.02451.11782l-.04717.01129a.26848.26848,0,0,1,.34109-.285.27122.27122,0,0,1,.04507.01748l.04262-.06043a.34431.34431,0,0,0-.06746-.02744.34018.34018,0,0,0-.25013.02461l-.02888-.04426A.3939.3939,0,0,1,1.641,2.80281l-.00452-.07341a.46843.46843,0,0,0-.36539.28479l-.0474-.01813a.513.513,0,0,1,.09113-.1465l-.05331-.05028a.58964.58964,0,0,0-.14021.49693l.07086-.01982a.51355.51355,0,0,1,.00867-.21067l.0477.01824a.46358.46358,0,0,0,.03575.31548l.06322-.0376a.39395.39395,0,0,1,.1095-.47741l.02886.04422a.34137.34137,0,0,0,.08877.58L1.56,3.55941a.39017.39017,0,0,1-.175-.13466l-.0632.03759a.46389.46389,0,0,0,.09139.09669L1.38336,3.599a.5201.5201,0,0,1-.174-.25132l-.07053.01973q.00774.02472.01756.04863l-.04194.0187A.63541.63541,0,0,1,1.066,3.19445L.99277,3.19086a.71133.71133,0,0,0,.47988.67274l-.014.04885a.75387.75387,0,0,1-.37067-.27227l-.06315.03756a.82752.82752,0,0,0,.44761.31574.83911.83911,0,0,0,.204.03232v.00111l.13308-.0007v.00013l.02909-.00028,1.4112-.0074q.02423.00137.04831.00141a.83508.83508,0,0,0,.79905-1.07157ZM2.4942,1.79348l.0008,0,.00869.00332.00439.009a.01313.01313,0,0,1-.02184.01059l-.00439-.009A.01315.01315,0,0,1,2.4942,1.79348ZM2.87854,1.718l-.05217.00689a.34153.34153,0,0,0-.56155-.1706l-.0394-.035a.3919.3919,0,0,1,.197-.09945l-.00658-.0732a.46759.46759,0,0,0-.12658.04062l-.02324-.04446a.518.518,0,0,1,.55967.06593l-.037.0351a.46556.46556,0,0,0-.2999-.10391l.00658.07316a.39368.39368,0,0,1,.38318.305ZM1.69,3.18844l.00626-.00786.00632-.00165.00367.00051.00786.00626a.01305.01305,0,0,1,.00113.01L1.709,3.20355a.01313.01313,0,0,1-.019-.01511Zm-.22186.13364a.27225.27225,0,0,1-.0149-.03168l.047-.01124a.22168.22168,0,0,0,.40455.00808l.04373.01257a.26824.26824,0,0,1-.48039.02228Zm-.32194.17862.04216-.0188a.58836.58836,0,0,0,.34152.2746l.01473-.0721A.5155.5155,0,0,1,1.44411,3.64l.03013-.04028a.47144.47144,0,0,0,.22963.06007.46134.46134,0,0,0,.10481-.0121l.0124.04772a.51193.51193,0,0,1-.20523.00637l-.01467.07182c.01861.00327.03727.00558.05594.00705L1.655,3.82689a.63589.63589,0,0,1-.50871-.32618Zm2.142-.32432.00872-.0033.00077,0,.009.0044.00328.00949-.00439.009a.01315.01315,0,0,1-.01854-.00112l-.00328-.00949Zm-.21312.16008.04317-.0211.01441.01806a.22031.22031,0,0,0,.15263.07425l.01361.00041A.2218.2218,0,0,0,3.515,3.235l.04542.00273a.26808.26808,0,0,1-.4853.09871Zm-.254.27223L2.858,3.58132a.58614.58614,0,0,0,.39338.19341L3.25,3.70116a.51938.51938,0,0,1-.10787-.02127l.0207-.04606a.467.467,0,0,0,.10656.01893l.02836.00085a.464.464,0,0,0,.20179-.04608l.02263.04411a.51218.51218,0,0,1-.1989.05095l.00134.07331q.02831-.0013.05614-.00528l.008.0456a.63456.63456,0,0,1-.09139.0066l-.03864-.00116A.6346.6346,0,0,1,2.82116,3.60869Zm1.20995-.22293a.76076.76076,0,0,1-.51743.52888L3.4865,3.9221,3.48535,3.9176a.7628.7628,0,0,1-.11845.0205l-.07755.00075L3.29193,3.896l.00547.00008a.70651.70651,0,0,0,.418-.13694L3.669,3.70243a.63613.63613,0,0,1-.20844.099l-.008-.04567a.594.594,0,0,0,.36129-.28463l.04122.02112a.63929.63929,0,0,1-.12926.164l.04647.05667a.70762.70762,0,0,0,.23021-.44857l.05073.00305A.76506.76506,0,0,1,4.03111,3.38576Z"></path></g></svg>