<svg fill="#0F131C" xmlns="http://www.w3.org/2000/svg" xmlns:xlink="http://www.w3.org/1999/xlink" version="1.1" x="0px" y="0px" viewBox="0 0 100 100" enable-background="new 0 0 100 100" xml:space="preserve"><path fill="#0F131C" d="M94.417,49.384l-1.821-11.492c-0.004-0.021-0.016-0.038-0.022-0.059c-0.006-0.022-0.005-0.045-0.015-0.067  L87.83,27.153c-0.009-0.021-0.026-0.034-0.038-0.053s-0.016-0.041-0.03-0.058l-7.32-9.03c-0.016-0.019-0.036-0.028-0.054-0.044  c-0.016-0.014-0.024-0.033-0.042-0.045l-9.417-6.82c-0.019-0.014-0.04-0.017-0.06-0.027c-0.02-0.011-0.034-0.027-0.055-0.035  L59.943,6.876c-0.021-0.008-0.042-0.005-0.063-0.01c-0.021-0.005-0.04-0.018-0.063-0.02L48.271,5.638  c-0.022-0.002-0.043,0.005-0.064,0.006c-0.022,0-0.044-0.006-0.066-0.002L36.681,7.466c-0.021,0.003-0.039,0.016-0.06,0.022  c-0.021,0.006-0.043,0.004-0.063,0.014l-2.779,1.226c-0.003,0.001-0.006,0.004-0.009,0.006c-0.003,0.001-0.007,0.001-0.01,0.002  C33.732,8.75,33.714,8.772,33.69,8.79c-0.027,0.02-0.058,0.037-0.08,0.062c-0.021,0.024-0.034,0.054-0.052,0.082  c-0.016,0.027-0.035,0.052-0.046,0.082c-0.011,0.029-0.012,0.061-0.017,0.092C33.49,9.14,33.481,9.17,33.482,9.204  c0.002,0.033,0.014,0.064,0.021,0.096c0.007,0.029,0.007,0.059,0.02,0.087c0.001,0.002,0.004,0.003,0.006,0.006  c0.002,0.004,0.001,0.009,0.003,0.013l1.596,3.249l-5.312,2.488c-0.003,0.001-0.004,0.004-0.007,0.005  c-0.003,0.001-0.007,0.001-0.01,0.003c-0.03,0.016-0.051,0.041-0.076,0.061c-0.024,0.019-0.052,0.034-0.071,0.057  c-0.022,0.026-0.035,0.057-0.052,0.085c-0.015,0.027-0.034,0.051-0.044,0.081c-0.011,0.03-0.011,0.062-0.015,0.095  c-0.005,0.031-0.014,0.062-0.012,0.094c0.002,0.034,0.016,0.066,0.024,0.1c0.008,0.028,0.008,0.057,0.021,0.084  c0.001,0.002,0.004,0.003,0.005,0.005c0.002,0.003,0.001,0.007,0.003,0.011l1.181,2.301c0.037,0.073,0.097,0.125,0.159,0.169  c0.011,0.008,0.017,0.024,0.028,0.031c0.078,0.046,0.167,0.071,0.258,0.071c0.077,0,0.154-0.018,0.227-0.054l0.002-0.001l0,0l0,0  l5.622-2.86l9.511-1.999l9.758,0.543c0.009,0,0.019,0.001,0.027,0.001c0.072,0,0.14-0.018,0.203-0.046  c0.018-0.008,0.032-0.021,0.05-0.032c0.044-0.027,0.083-0.058,0.117-0.096c0.008-0.008,0.02-0.012,0.026-0.021l1.73-2.25  c0.009-0.012,0.011-0.026,0.02-0.039c0.019-0.03,0.033-0.061,0.046-0.095c0.011-0.029,0.02-0.057,0.024-0.086  c0.003-0.015,0.011-0.027,0.012-0.042c0.002-0.018-0.006-0.034-0.006-0.051c-0.001-0.034-0.004-0.067-0.012-0.101  c-0.007-0.032-0.017-0.061-0.03-0.09c-0.012-0.028-0.026-0.055-0.045-0.081c-0.02-0.029-0.042-0.053-0.066-0.077  c-0.013-0.012-0.02-0.028-0.034-0.039c-0.012-0.009-0.025-0.011-0.037-0.019c-0.028-0.018-0.057-0.031-0.088-0.043  c-0.033-0.013-0.064-0.023-0.099-0.029c-0.014-0.002-0.025-0.01-0.039-0.011L47.622,9.892c-0.021-0.002-0.041,0.006-0.062,0.007  c-0.022,0.001-0.044-0.006-0.066-0.001l-7.833,1.386l-0.188-1.041l7.366-1.446l10.92,0.765l10.333,3.554l9.077,6.112l7.187,8.259  l4.812,9.828l2.066,10.738l-0.765,10.941L86.923,69.33l-6.119,9.077L72.538,85.6l-9.792,4.759L52.01,92.473l-10.927-0.76  l-10.374-3.559l-9.033-6.104l-7.19-8.267L9.67,63.936L7.562,53.196l0.599-8.19l1.636,0.104c0.012,0,0.021,0.001,0.032,0.001l0,0  h4.707l-0.744,5.112c-0.003,0.023,0.004,0.046,0.004,0.069c0,0.021-0.008,0.042-0.005,0.064l1.14,9.119  c0.003,0.024,0.016,0.045,0.021,0.068c0.005,0.019,0.003,0.038,0.011,0.057l3.408,8.457c0.005,0.013,0.019,0.018,0.024,0.03  c0.014,0.027,0.021,0.057,0.039,0.082l5.504,7.369c0.01,0.014,0.026,0.019,0.038,0.031c0.019,0.021,0.031,0.046,0.055,0.064  l7.237,5.641c0.01,0.008,0.022,0.004,0.032,0.011c0.026,0.019,0.049,0.042,0.079,0.055l8.406,3.59  c0.021,0.009,0.043,0.007,0.064,0.013c0.021,0.007,0.04,0.02,0.062,0.022l9.094,1.273c0.022,0.003,0.045,0.005,0.067,0.005h0.001  h0.001h0.001h0.001c0.02,0,0.038-0.001,0.058-0.004l9.1-1.092c0.021-0.003,0.039-0.015,0.06-0.02  c0.023-0.006,0.047-0.004,0.069-0.014l8.5-3.459c0.03-0.012,0.052-0.034,0.077-0.051c0.011-0.007,0.024-0.004,0.034-0.012  l7.326-5.498c0.021-0.017,0.034-0.039,0.052-0.059c0.014-0.014,0.031-0.02,0.043-0.034l5.639-7.229  c0.02-0.025,0.027-0.055,0.041-0.083c0.006-0.011,0.02-0.016,0.024-0.028l3.587-8.42c0.008-0.018,0.006-0.036,0.012-0.055  c0.007-0.024,0.02-0.046,0.023-0.071l1.282-9.049c0.003-0.023-0.004-0.045-0.004-0.068c0-0.021,0.008-0.04,0.005-0.062l-1.094-9.119  c-0.003-0.022-0.015-0.041-0.021-0.062c-0.005-0.022-0.003-0.043-0.012-0.065l-3.41-8.502c-0.009-0.021-0.024-0.035-0.036-0.055  c-0.011-0.02-0.015-0.042-0.029-0.062l-5.553-7.323c-0.014-0.018-0.032-0.026-0.048-0.042c-0.015-0.016-0.024-0.036-0.042-0.05  l-5.594-4.382c-0.005-0.004-0.011-0.004-0.016-0.008s-0.007-0.009-0.012-0.012c-0.024-0.017-0.052-0.021-0.077-0.033  c-0.03-0.014-0.059-0.03-0.09-0.038c-0.029-0.007-0.059-0.005-0.088-0.006c-0.035-0.002-0.069-0.006-0.104,0  c-0.027,0.004-0.052,0.016-0.078,0.025c-0.034,0.012-0.069,0.021-0.101,0.04c-0.026,0.016-0.047,0.039-0.07,0.06  c-0.022,0.02-0.049,0.033-0.067,0.058c-0.004,0.005-0.004,0.011-0.008,0.015c-0.003,0.005-0.009,0.007-0.012,0.012l-1.588,2.337  c-0.001,0.001-0.001,0.001-0.002,0.002c-0.077,0.114-0.102,0.249-0.078,0.375s0.096,0.243,0.21,0.321c0,0,0.001,0,0.001,0  l3.674,2.505l5.419,6.313l3.578,7.476l1.525,8.161l-0.627,8.29l-2.73,7.834l-4.704,6.856l-3.845,3.34l-0.907-0.622l5.165-5.126  c0.021-0.021,0.031-0.048,0.048-0.072c0.009-0.012,0.023-0.017,0.031-0.03l3.956-6.777c0.018-0.029,0.021-0.062,0.031-0.093  c0.004-0.011,0.016-0.016,0.019-0.026l2.086-7.545c0.006-0.021,0.001-0.041,0.005-0.062c0.003-0.023,0.014-0.043,0.014-0.067  l0.049-7.869c0-0.023-0.01-0.043-0.013-0.066c-0.003-0.021,0.002-0.042-0.004-0.064l-2.001-7.595  c-0.006-0.021-0.02-0.036-0.027-0.055c-0.008-0.021-0.009-0.043-0.021-0.063l-3.868-6.845c-0.012-0.021-0.031-0.034-0.046-0.053  c-0.013-0.017-0.019-0.037-0.034-0.052l-5.498-5.569c-0.016-0.016-0.037-0.023-0.055-0.037c-0.018-0.014-0.029-0.033-0.05-0.044  l-3.449-2.003l1.007-1.476l1.932-2.25c0.025-0.03,0.038-0.065,0.056-0.099c0.006-0.012,0.02-0.017,0.024-0.029  c0.003-0.008,0.002-0.016,0.005-0.023c0.013-0.034,0.017-0.069,0.022-0.104c0.004-0.029,0.011-0.058,0.01-0.086  c-0.001-0.034-0.011-0.065-0.019-0.098c-0.007-0.03-0.012-0.059-0.023-0.087c-0.013-0.029-0.033-0.053-0.051-0.08  c-0.02-0.028-0.037-0.055-0.062-0.079c-0.007-0.006-0.009-0.014-0.016-0.02c-0.021-0.018-0.045-0.024-0.067-0.038  c-0.021-0.013-0.037-0.032-0.061-0.042l-1.775-0.765c-0.016-0.007-0.033-0.005-0.049-0.01c-0.033-0.01-0.064-0.017-0.098-0.021  s-0.064-0.004-0.097-0.001c-0.03,0.002-0.059,0.008-0.088,0.016c-0.033,0.009-0.063,0.021-0.095,0.037  c-0.026,0.014-0.05,0.029-0.073,0.047c-0.028,0.021-0.052,0.045-0.075,0.072c-0.011,0.013-0.026,0.021-0.036,0.035l-2.595,3.772  l-1.099-0.65c-0.021-0.012-0.043-0.013-0.063-0.022c-0.021-0.008-0.037-0.023-0.059-0.029l-7.594-2.087  c-0.022-0.006-0.043-0.001-0.065-0.005c-0.021-0.003-0.041-0.013-0.064-0.013l-7.874-0.047c-0.001,0-0.002,0-0.003,0  c-0.011,0-0.02,0.005-0.029,0.006c-0.011,0-0.02-0.003-0.03-0.002c-0.024,0.003-0.044,0.016-0.066,0.022  c-0.032,0.009-0.063,0.016-0.093,0.031s-0.054,0.033-0.08,0.053c-0.025,0.019-0.05,0.038-0.07,0.061  c-0.021,0.024-0.037,0.051-0.054,0.078c-0.017,0.028-0.032,0.054-0.043,0.084s-0.015,0.062-0.02,0.095  c-0.004,0.023-0.015,0.044-0.015,0.069c0,0.011,0.006,0.021,0.006,0.032c0.001,0.01-0.003,0.02-0.002,0.03l0.279,2.338  c0.003,0.025,0.016,0.046,0.021,0.07c0.008,0.029,0.014,0.057,0.026,0.083c0.016,0.032,0.036,0.059,0.058,0.087  c0.017,0.021,0.029,0.043,0.049,0.062c0.028,0.027,0.062,0.046,0.097,0.066c0.02,0.011,0.036,0.026,0.057,0.035  c0.053,0.021,0.11,0.033,0.17,0.035c0.005,0,0.01,0.003,0.016,0.003l7.164,0.046l6.872,1.882l6.119,3.566l5.002,5.047l2.278,4.035  l-4.88,3.182L66.847,38.3c-0.011-0.02-0.028-0.032-0.041-0.05c-0.014-0.019-0.021-0.04-0.036-0.057  c-0.008-0.008-0.02-0.012-0.027-0.02c-0.025-0.023-0.054-0.041-0.083-0.059c-0.027-0.016-0.053-0.032-0.082-0.043  c-0.03-0.011-0.061-0.015-0.092-0.02c-0.032-0.005-0.062-0.011-0.095-0.01c-0.031,0.001-0.061,0.008-0.091,0.015  c-0.033,0.008-0.065,0.016-0.098,0.03c-0.011,0.005-0.022,0.004-0.032,0.01c-0.02,0.011-0.032,0.029-0.05,0.042  c-0.019,0.013-0.04,0.02-0.058,0.036l-1.545,1.462c-0.014,0.013-0.02,0.031-0.031,0.045c-0.021,0.025-0.041,0.051-0.057,0.08  s-0.027,0.057-0.037,0.088c-0.01,0.03-0.017,0.06-0.021,0.091c-0.004,0.033-0.005,0.063-0.002,0.096  c0.002,0.031,0.007,0.061,0.015,0.091c0.009,0.033,0.021,0.063,0.037,0.094c0.008,0.016,0.01,0.034,0.02,0.05l1.513,2.339  l1.549,4.528l0.267,4.832l-0.976,4.684l-2.13,4.299l-3.173,3.584l-2.265,1.454c-0.002,0.001-0.003,0.003-0.005,0.005  c-0.001,0-0.002,0-0.003,0.001c-0.018,0.012-0.027,0.03-0.044,0.044c-0.034,0.029-0.069,0.059-0.094,0.095  c-0.013,0.02-0.017,0.042-0.026,0.062c-0.018,0.037-0.038,0.073-0.047,0.114c-0.005,0.025,0,0.052-0.002,0.079  c-0.001,0.037-0.007,0.074,0,0.111c0.005,0.026,0.021,0.05,0.029,0.075c0.013,0.035,0.02,0.071,0.041,0.104  c0.001,0.002,0.003,0.002,0.004,0.004c0.001,0.001,0.001,0.003,0.002,0.004l1.135,1.689c0.028,0.042,0.069,0.065,0.106,0.096  c0.023,0.02,0.04,0.045,0.066,0.06c0.075,0.042,0.157,0.066,0.242,0.066c0.078,0,0.157-0.019,0.231-0.057l0.858-0.447  c0.019-0.01,0.031-0.027,0.048-0.039c0.021-0.014,0.043-0.021,0.062-0.038l4.004-3.732c0.021-0.021,0.032-0.046,0.05-0.069  c0.009-0.012,0.023-0.017,0.031-0.029l2.913-4.596c0.019-0.029,0.023-0.062,0.035-0.092c0.005-0.013,0.018-0.018,0.021-0.03  l1.592-5.227c0.007-0.021,0.003-0.042,0.006-0.063c0.004-0.022,0.015-0.042,0.016-0.065l0.183-5.438  c0.001-0.022-0.009-0.042-0.011-0.064s0.003-0.043-0.002-0.065l-1.145-4.92l5.242-2.737l1.644,6.327l-0.047,7.123l-1.868,6.831  l-3.582,6.175l-5.042,4.988l-5.553,3.186l-0.198-1.859l4.341-2.349c0.019-0.01,0.03-0.027,0.048-0.039  c0.019-0.014,0.041-0.021,0.059-0.038l4.727-4.5c0.022-0.021,0.033-0.049,0.051-0.072c0.009-0.013,0.023-0.018,0.031-0.03l3.411-5.6  c0.018-0.028,0.021-0.06,0.032-0.09c0.005-0.012,0.018-0.018,0.021-0.03l1.819-6.275c0.006-0.021,0.002-0.043,0.005-0.064  c0.004-0.022,0.015-0.042,0.015-0.064l0.142-6.54c0.001-0.022-0.009-0.042-0.012-0.063c-0.002-0.021,0.003-0.042-0.002-0.063  l-1.093-4.595c0-0.001-0.001-0.001-0.001-0.002s0,0,0-0.001c-0.012-0.05-0.038-0.093-0.063-0.136  c-0.008-0.013-0.011-0.03-0.02-0.042c-0.037-0.049-0.083-0.089-0.133-0.122c-0.004-0.002-0.006-0.006-0.01-0.009  c-0.032-0.02-0.069-0.027-0.105-0.04c-0.025-0.009-0.048-0.023-0.075-0.028c-0.029-0.005-0.061,0.003-0.091,0.004  c-0.034,0-0.068-0.005-0.104,0.004l-0.001,0c-0.001,0-0.001,0-0.002,0l-2.046,0.499c-0.11,0.027-0.197,0.094-0.264,0.176  c-0.014,0.018-0.033,0.031-0.045,0.049c-0.006,0.009-0.006,0.021-0.012,0.03c-0.054,0.104-0.077,0.225-0.048,0.348l1.028,4.254  l-0.135,5.879l-1.639,5.598l-3.074,5.024l-4.224,4.047l-3.694,2.024l-0.804-3.272c-0.002-0.007-0.007-0.012-0.009-0.019  c-0.002-0.006,0-0.013-0.002-0.019c-0.008-0.025-0.026-0.044-0.038-0.067c-0.016-0.03-0.028-0.062-0.05-0.089  c-0.021-0.024-0.045-0.042-0.068-0.062c-0.025-0.021-0.048-0.044-0.076-0.06c-0.03-0.017-0.062-0.024-0.096-0.035  c-0.027-0.009-0.054-0.02-0.083-0.023c-0.036-0.005-0.073,0.001-0.111,0.005c-0.024,0.002-0.047-0.003-0.071,0.003  c-0.007,0.002-0.011,0.007-0.018,0.009s-0.013,0-0.02,0.002l-4.615,1.515l-4.785,0.317l-4.732-0.978l-3.9-1.97l2.173-4.234  c0.004-0.008,0.004-0.018,0.007-0.025c0.014-0.029,0.019-0.061,0.026-0.092c0.008-0.034,0.017-0.067,0.018-0.102  c0-0.009,0.004-0.016,0.004-0.024l-0.082-2.832l1.377-1.421l1.489-1.197l1.099,0.854c0.01,0.008,0.021,0.004,0.031,0.011  c0.026,0.018,0.048,0.041,0.078,0.054l1.683,0.723c0.02,0.009,0.04,0.007,0.06,0.013c0.024,0.007,0.045,0.021,0.071,0.024  l1.771,0.236c0.021,0.003,0.043,0.004,0.064,0.004h0.001h0.001h0.001h0.001c0.021,0,0.041-0.001,0.062-0.004l1.825-0.236  c0.02-0.003,0.035-0.014,0.054-0.019c0.021-0.005,0.043-0.004,0.063-0.012l1.631-0.635c0.032-0.013,0.057-0.036,0.085-0.055  c0.01-0.006,0.023-0.003,0.033-0.011l1.455-1.09c0.021-0.017,0.034-0.039,0.052-0.059c0.014-0.014,0.031-0.02,0.043-0.034  l1.133-1.453c0.021-0.025,0.027-0.056,0.042-0.084c0.006-0.012,0.02-0.017,0.024-0.029l0.688-1.635  c0.008-0.019,0.006-0.038,0.012-0.057c0.006-0.022,0.019-0.041,0.021-0.064l0.271-1.822c0.003-0.022-0.004-0.043-0.003-0.065  c0-0.023,0.008-0.046,0.005-0.07l-0.224-1.766c-0.003-0.02-0.015-0.036-0.02-0.054c-0.005-0.023-0.003-0.047-0.013-0.07  l-0.683-1.687c-0.009-0.022-0.026-0.037-0.038-0.058c-0.01-0.018-0.014-0.038-0.026-0.055l-1.096-1.459  c-0.014-0.019-0.033-0.028-0.049-0.044c-0.016-0.016-0.024-0.035-0.042-0.049l-1.03-0.81l0.772-1.053l1.396,1.136l1.294,1.879  l0.819,2.131l0.211,2.274l-0.349,2.238l-0.938,2.057l-1.462,1.771l-1.844,1.329l-2.152,0.819l-2.241,0.217l-2.278-0.388  l-2.122-0.976c-0.026-0.012-0.054-0.012-0.081-0.02c-0.031-0.008-0.061-0.02-0.092-0.021c-0.033-0.002-0.063,0.004-0.095,0.008  c-0.033,0.004-0.064,0.005-0.096,0.016c-0.028,0.009-0.053,0.025-0.079,0.04c-0.03,0.016-0.061,0.03-0.087,0.053  c-0.025,0.021-0.043,0.048-0.063,0.074c-0.018,0.021-0.039,0.037-0.053,0.062l-1.091,1.957c-0.001,0.002-0.001,0.004-0.002,0.006  c-0.019,0.034-0.025,0.073-0.035,0.111c-0.008,0.027-0.021,0.053-0.022,0.08c-0.001,0.004-0.003,0.007-0.003,0.01l-0.173,2.404  l-1.091,2.184c-0.002,0.005-0.002,0.01-0.004,0.015s-0.007,0.008-0.009,0.013c-0.012,0.027-0.011,0.057-0.018,0.085  c-0.007,0.031-0.019,0.062-0.02,0.094c-0.001,0.034,0.007,0.065,0.013,0.098c0.005,0.031,0.007,0.062,0.018,0.092  c0.011,0.029,0.03,0.055,0.046,0.082c0.018,0.027,0.03,0.057,0.053,0.081c0.021,0.023,0.051,0.04,0.078,0.061  c0.022,0.017,0.04,0.039,0.066,0.052c0.004,0.002,0.009,0.001,0.014,0.003c0.005,0.003,0.008,0.008,0.014,0.01l2.772,1.182  c0.021,0.009,0.042,0.007,0.063,0.013c0.021,0.006,0.037,0.019,0.059,0.021l4.226,0.635c0.024,0.004,0.048,0.006,0.072,0.006h0.001  h0.001h0.001c0,0,0,0,0.001,0c0.019,0,0.037-0.001,0.056-0.003l4.277-0.494c0.021-0.002,0.037-0.014,0.057-0.019  c0.022-0.005,0.046-0.004,0.068-0.013l3.953-1.549c0.031-0.013,0.055-0.035,0.082-0.053c0.01-0.007,0.022-0.004,0.032-0.011  l3.458-2.549c0.022-0.017,0.034-0.04,0.053-0.059c0.014-0.014,0.032-0.02,0.044-0.035l2.642-3.369  c0.02-0.024,0.026-0.054,0.041-0.081c0.006-0.012,0.019-0.017,0.024-0.029l1.687-3.904c0.008-0.019,0.006-0.038,0.012-0.057  c0.007-0.023,0.02-0.044,0.023-0.068l0.63-4.232c0.003-0.022-0.004-0.043-0.003-0.065c0-0.022,0.008-0.043,0.005-0.066l-0.5-4.251  c-0.002-0.021-0.014-0.037-0.019-0.056c-0.005-0.022-0.003-0.045-0.012-0.067l-1.545-3.95c-0.009-0.022-0.025-0.037-0.037-0.058  c-0.011-0.019-0.014-0.04-0.027-0.058l-2.546-3.435c-0.014-0.018-0.032-0.027-0.048-0.043c-0.016-0.017-0.024-0.037-0.043-0.051  l-3.365-2.664c-0.019-0.014-0.04-0.019-0.06-0.03c-0.019-0.011-0.031-0.027-0.052-0.036l-3.914-1.703  c-0.021-0.009-0.043-0.008-0.064-0.014c-0.021-0.006-0.038-0.019-0.061-0.022l-4.232-0.639c-0.021-0.003-0.039,0.004-0.059,0.003  c-0.025,0-0.049-0.009-0.074-0.005l-4.225,0.5c-0.022,0.002-0.04,0.015-0.062,0.02c-0.021,0.005-0.043,0.003-0.063,0.011  l-3.956,1.561c-0.021,0.009-0.036,0.025-0.057,0.037c-0.019,0.011-0.04,0.014-0.058,0.027l-1.73,1.285  c-0.022,0.017-0.035,0.041-0.055,0.061c-0.018,0.019-0.04,0.031-0.056,0.052c-0.004,0.006-0.005,0.013-0.009,0.019  c-0.02,0.031-0.03,0.064-0.043,0.098c-0.01,0.028-0.023,0.054-0.028,0.082c-0.007,0.034-0.003,0.067-0.003,0.101  c0.001,0.03-0.002,0.06,0.004,0.089c0.007,0.031,0.022,0.06,0.034,0.089c0.013,0.031,0.023,0.062,0.042,0.089  c0.005,0.006,0.005,0.014,0.01,0.02c0.012,0.017,0.031,0.023,0.045,0.037c0.022,0.024,0.04,0.053,0.068,0.073l2.141,1.512  c0.01,0.007,0.021,0.004,0.03,0.01c0.08,0.049,0.166,0.082,0.258,0.082c0.096,0,0.186-0.036,0.267-0.089  c0.011-0.006,0.024-0.003,0.034-0.011l0.454-0.342l3.2-1.365l3.415-0.48l3.466,0.418l3.243,1.286l2.756,2.084l2.152,2.738  l1.354,3.206l0.481,3.432l-0.396,3.472l-1.311,3.192l-2.105,2.808l-2.719,2.152l-3.201,1.35l-3.453,0.483l-3.013-0.386l0.106-1.35  l2.419,0.371c0.025,0.004,0.05,0.006,0.074,0.006h0.001h0.001h0.001c0,0,0,0,0.001,0c0.018,0,0.034-0.001,0.052-0.003l3.005-0.324  c0.021-0.002,0.038-0.014,0.059-0.019c0.024-0.006,0.048-0.004,0.071-0.014l2.772-1.092c0.028-0.011,0.049-0.032,0.074-0.048  c0.01-0.007,0.023-0.003,0.033-0.011l2.413-1.729c0.022-0.016,0.035-0.039,0.054-0.058c0.014-0.014,0.032-0.02,0.045-0.035  l1.904-2.361c0.021-0.025,0.028-0.056,0.044-0.084c0.006-0.012,0.02-0.018,0.025-0.03l1.184-2.732  c0.007-0.017,0.006-0.034,0.011-0.051c0.007-0.021,0.02-0.041,0.023-0.064l0.503-2.953c0.004-0.026-0.003-0.05-0.002-0.075  c0-0.024,0.008-0.046,0.005-0.07l-0.368-2.979c-0.003-0.02-0.014-0.036-0.019-0.055s-0.002-0.039-0.009-0.058l-1.038-2.796  c-0.009-0.023-0.025-0.039-0.037-0.06c-0.011-0.021-0.015-0.044-0.029-0.063l-1.773-2.406c-0.013-0.018-0.032-0.027-0.047-0.042  s-0.022-0.035-0.04-0.049l-2.328-1.893c-0.019-0.015-0.041-0.02-0.062-0.032c-0.02-0.012-0.033-0.029-0.055-0.038l-2.77-1.205  c-0.021-0.009-0.042-0.007-0.062-0.014c-0.021-0.006-0.038-0.019-0.061-0.022l-2.96-0.455c-0.021-0.003-0.042,0.003-0.063,0.003  c-0.022,0-0.043-0.008-0.066-0.006l-2.952,0.319c-0.021,0.002-0.038,0.014-0.059,0.019c-0.022,0.005-0.044,0.003-0.065,0.011  l-2.816,1.069c-0.022,0.008-0.037,0.025-0.058,0.036c-0.02,0.011-0.042,0.015-0.061,0.028l-2.122,1.561l-5.258-3.698l1.135-1.29  l4.031-2.647l4.562-1.506l4.776-0.297l4.693,0.954l4.295,2.151l3.631,3.23c0.027,0.024,0.06,0.037,0.091,0.055  c0.019,0.011,0.035,0.025,0.055,0.033c0.061,0.024,0.123,0.039,0.187,0.039c0.064,0,0.128-0.015,0.189-0.04  c0.021-0.009,0.038-0.024,0.058-0.036c0.03-0.018,0.062-0.031,0.09-0.056l1.319-1.204c0,0,0.001,0,0.001-0.001  c0.033-0.03,0.053-0.068,0.075-0.104c0.013-0.02,0.032-0.036,0.041-0.056c0.003-0.005,0.002-0.01,0.004-0.015  c0.073-0.174,0.047-0.382-0.089-0.53c0,0,0,0-0.001,0v0l-2.274-2.481c-0.016-0.017-0.036-0.024-0.053-0.038  c-0.018-0.015-0.029-0.035-0.05-0.047l-4.636-2.909c-0.019-0.012-0.039-0.013-0.059-0.022c-0.021-0.01-0.037-0.026-0.06-0.033  l-4.824-1.486l0.021-1.074l5.043,1.498l5.025,3.044l4.048,4.25l0.739,1.37c0.035,0.065,0.091,0.109,0.146,0.151  c0.016,0.012,0.024,0.033,0.042,0.043c0.076,0.045,0.164,0.069,0.253,0.069c0.079,0,0.16-0.019,0.234-0.059l0.003-0.001l0,0l0,0  l1.86-0.988c0.002-0.001,0.003-0.003,0.006-0.004c0.002-0.001,0.005,0,0.007-0.002c0.032-0.018,0.054-0.046,0.08-0.069  c0.021-0.019,0.047-0.034,0.064-0.056c0.021-0.027,0.032-0.06,0.048-0.091c0.014-0.026,0.031-0.051,0.039-0.079  c0.01-0.032,0.008-0.065,0.011-0.098c0.003-0.031,0.01-0.062,0.007-0.093c-0.003-0.032-0.019-0.063-0.028-0.095  c-0.009-0.03-0.012-0.061-0.026-0.089c-0.001-0.002-0.004-0.003-0.005-0.006c-0.001-0.002-0.001-0.004-0.002-0.006l-0.957-1.687  c-0.01-0.018-0.027-0.029-0.039-0.045c-0.012-0.017-0.018-0.036-0.032-0.052l-4.493-4.757c-0.016-0.017-0.036-0.024-0.054-0.038  c-0.019-0.015-0.03-0.034-0.051-0.046l-5.596-3.389c-0.019-0.011-0.039-0.012-0.059-0.021c-0.021-0.009-0.037-0.025-0.06-0.031  l-6.278-1.84c-0.022-0.006-0.044-0.002-0.065-0.006c-0.022-0.003-0.041-0.014-0.063-0.014l-3.642-0.089  c-0.293,0.006-0.497,0.208-0.51,0.478c0,0.003-0.002,0.006-0.002,0.01v0v0l-0.048,2.093c0,0.002,0.001,0.004,0.001,0.006  s-0.001,0.003-0.001,0.005v1.541l-1.613-0.067c-0.029-0.002-0.055,0.008-0.083,0.011c-0.017,0.002-0.033-0.002-0.05,0.001  l-0.051,0.012c-0.006,0.002-0.013,0.002-0.019,0.004l-5.248,1.215c-0.022,0.005-0.039,0.02-0.061,0.027  c-0.02,0.008-0.041,0.008-0.061,0.018l-4.82,2.549c-0.02,0.01-0.031,0.027-0.049,0.04c-0.02,0.013-0.042,0.02-0.06,0.037l-3.959,3.7  c-0.018,0.016-0.025,0.038-0.04,0.056c-0.013,0.016-0.03,0.026-0.041,0.043l-2.904,4.616c-0.013,0.02-0.014,0.042-0.023,0.062  c-0.01,0.021-0.024,0.036-0.031,0.058l-1.574,5.132c-0.003,0.007-0.004,0.016-0.007,0.023l-0.016,0.05  c-0.004,0.013-0.001,0.026-0.004,0.04c-0.006,0.029-0.018,0.055-0.019,0.086l-0.229,5.44c-0.001,0.024,0.009,0.046,0.011,0.07  c0.003,0.022-0.003,0.045,0.003,0.067l0.612,2.553L27.706,55.5l-0.634-2.462l0.176-5.848l1.648-5.63l3.021-5.002l4.272-4.045  l5.113-2.828l5.76-1.392c0.021-0.005,0.038-0.02,0.059-0.027c0.033-0.013,0.065-0.025,0.095-0.044  c0.026-0.017,0.047-0.037,0.068-0.058c0.024-0.023,0.048-0.045,0.067-0.073c0.018-0.025,0.029-0.053,0.042-0.082  c0.014-0.03,0.026-0.058,0.034-0.09c0.008-0.033,0.008-0.065,0.009-0.099c0-0.023,0.009-0.044,0.006-0.067l-0.232-2.085  c-0.001-0.012-0.009-0.021-0.011-0.033c-0.002-0.011,0.002-0.021-0.001-0.031c-0.005-0.021-0.019-0.036-0.026-0.056  c-0.013-0.035-0.026-0.068-0.046-0.099c-0.016-0.023-0.034-0.042-0.054-0.062c-0.024-0.027-0.05-0.052-0.08-0.073  c-0.023-0.016-0.048-0.027-0.074-0.039c-0.031-0.015-0.062-0.028-0.096-0.036c-0.032-0.007-0.064-0.008-0.098-0.009  c-0.022,0-0.044-0.008-0.067-0.006c-0.012,0.001-0.02,0.008-0.031,0.01c-0.011,0.002-0.021-0.001-0.031,0.001l-3.565,0.87v-6.363  l4.62-0.888l8.29,0.646l5.162,1.801c0.055,0.019,0.11,0.028,0.165,0.028c0.094,0,0.184-0.032,0.264-0.083  c0.026-0.017,0.042-0.042,0.065-0.063c0.034-0.031,0.074-0.054,0.1-0.096l2.659-4.432l1.152,0.378l8.166,5.316l6.505,7.245  l4.402,8.687l1.967,9.509l-0.539,9.715l-3.007,9.24l-5.293,8.167l-7.27,6.457l-8.656,4.4l-9.515,2.021l-9.732-0.537l-9.245-3.007  l-8.121-5.338l-6.508-7.233l-4.396-8.647l-2.017-9.561l0.354-6.35l0,0l0,0v0c0.011-0.193-0.093-0.363-0.249-0.455  c-0.011-0.006-0.019-0.017-0.03-0.022c-0.02-0.01-0.044-0.01-0.065-0.018c-0.041-0.013-0.081-0.03-0.126-0.033l-2.453-0.139  c-0.015,0-0.027,0.006-0.041,0.007c-0.121,0.003-0.232,0.044-0.318,0.122c-0.014,0.012-0.022,0.028-0.034,0.042  c-0.029,0.032-0.059,0.063-0.078,0.102c-0.016,0.03-0.021,0.065-0.03,0.099c-0.007,0.028-0.021,0.053-0.024,0.083L8.653,52.41  c-0.002,0.023,0.006,0.044,0.007,0.066s-0.005,0.044-0.001,0.066l1.86,10.369c0.005,0.025,0.018,0.047,0.026,0.07  c0.006,0.018,0.005,0.036,0.013,0.054l4.459,9.504c0.006,0.013,0.02,0.018,0.026,0.029c0.015,0.027,0.023,0.057,0.044,0.081  l6.781,8.055c0.013,0.015,0.03,0.021,0.045,0.033c0.018,0.018,0.029,0.039,0.05,0.054l8.589,6.047  c0.012,0.008,0.025,0.005,0.037,0.012c0.028,0.017,0.052,0.038,0.083,0.05l9.918,3.545c0.026,0.009,0.052,0.009,0.078,0.014  c0.017,0.003,0.03,0.012,0.047,0.014l10.46,0.904c0.014,0.001,0.027,0.002,0.041,0.002c0.001,0,0.001,0,0.001,0s0,0,0.001,0h0.001  c0.001,0,0.001,0,0.002,0c0.028,0,0.056-0.002,0.083-0.008l10.366-1.818c0.025-0.005,0.046-0.02,0.069-0.027  c0.02-0.006,0.039-0.004,0.058-0.013l9.505-4.461c0.016-0.007,0.024-0.021,0.039-0.028c0.023-0.015,0.049-0.022,0.07-0.041  l8.047-6.77c0.022-0.019,0.033-0.044,0.052-0.065c0.011-0.012,0.025-0.017,0.035-0.03l6.05-8.643  c0.02-0.027,0.025-0.059,0.038-0.088c0.006-0.011,0.019-0.017,0.022-0.028l3.591-9.863c0.007-0.02,0.005-0.04,0.009-0.06  c0.006-0.023,0.018-0.044,0.02-0.068l0.916-10.508c0.002-0.022-0.006-0.043-0.007-0.065c-0.001-0.023,0.005-0.044,0.001-0.067  l-1.871-10.345c-0.004-0.021-0.017-0.038-0.023-0.058c-0.007-0.021-0.006-0.043-0.016-0.064l-4.453-9.531  c-0.01-0.02-0.026-0.033-0.038-0.051c-0.012-0.019-0.018-0.041-0.032-0.059l-6.773-8.046c-0.015-0.017-0.034-0.025-0.051-0.04  c-0.017-0.015-0.026-0.035-0.046-0.048l-8.641-6.021c-0.018-0.012-0.039-0.015-0.058-0.025c-0.02-0.01-0.035-0.027-0.057-0.035  l-6.552-2.395c-0.018-0.006-0.035-0.003-0.053-0.008c-0.033-0.008-0.065-0.014-0.099-0.015c-0.032-0.001-0.062,0-0.092,0.005  c-0.033,0.005-0.064,0.013-0.096,0.024c-0.028,0.01-0.055,0.023-0.082,0.038c-0.028,0.017-0.054,0.035-0.079,0.058  c-0.024,0.021-0.045,0.045-0.065,0.072c-0.011,0.015-0.026,0.024-0.036,0.04l-2.422,4.061l-8.717-1.247  c-0.02-0.003-0.037,0.004-0.056,0.003c-0.025,0-0.05-0.009-0.075-0.004l-9.095,1.114c-0.021,0.002-0.038,0.014-0.059,0.02  c-0.022,0.005-0.046,0.003-0.068,0.013l-8.507,3.434c-0.021,0.008-0.035,0.025-0.055,0.036c-0.018,0.01-0.038,0.014-0.056,0.026  l-1.567,1.165l-2.142-4.371c-0.01-0.019-0.026-0.031-0.037-0.048c-0.012-0.017-0.016-0.037-0.029-0.053  c-0.009-0.01-0.021-0.015-0.031-0.024c-0.024-0.025-0.051-0.044-0.079-0.063c-0.026-0.017-0.052-0.034-0.08-0.045  c-0.03-0.013-0.062-0.021-0.095-0.027c-0.029-0.005-0.058-0.011-0.087-0.012c-0.034-0.001-0.067,0.004-0.102,0.011  c-0.03,0.006-0.06,0.012-0.089,0.023c-0.014,0.005-0.027,0.004-0.04,0.011c-0.02,0.01-0.032,0.026-0.05,0.038  c-0.017,0.011-0.037,0.016-0.053,0.029l-8.047,6.774c-0.018,0.015-0.026,0.035-0.041,0.051c-0.015,0.017-0.034,0.026-0.047,0.045  l-6.008,8.619c-0.014,0.019-0.017,0.041-0.026,0.061c-0.01,0.019-0.025,0.033-0.033,0.054l-2.773,7.612  c-0.001,0.002,0,0.005-0.001,0.008c-0.001,0.003-0.004,0.005-0.005,0.008c-0.01,0.031-0.007,0.062-0.011,0.094  c-0.004,0.032-0.014,0.064-0.011,0.095c0.002,0.032,0.015,0.061,0.022,0.091c0.008,0.032,0.012,0.064,0.026,0.094  c0.014,0.028,0.036,0.051,0.056,0.076c0.02,0.026,0.035,0.054,0.06,0.076s0.056,0.035,0.085,0.052  c0.026,0.015,0.048,0.036,0.077,0.047c0.003,0.001,0.006,0,0.009,0.001s0.004,0.003,0.007,0.004l2.451,0.8c0.001,0,0.001,0,0.001,0  h0.001l0.001,0c0.052,0.017,0.104,0.025,0.155,0.025c0.105,0,0.206-0.033,0.29-0.093c0.039-0.028,0.057-0.078,0.087-0.117  c0.034-0.044,0.079-0.077,0.098-0.133v-0.001c0.001,0,0.001,0,0.001-0.001s0-0.001,0-0.001l2.027-6.124l5.292-8.145l4.541-4.076  l3.304,3.655c0.033,0.037,0.074,0.058,0.114,0.083c0.019,0.011,0.034,0.03,0.054,0.039c0.064,0.028,0.134,0.043,0.203,0.043  c0.059,0,0.116-0.011,0.173-0.031c0.02-0.007,0.036-0.022,0.055-0.032c0.032-0.017,0.067-0.031,0.097-0.056L32.03,24l6.818-3.282  v1.686l-0.408,2.475c-0.004,0.024,0.003,0.047,0.003,0.071c-0.001,0.036-0.004,0.071,0.004,0.107  c0.007,0.034,0.021,0.064,0.035,0.096c0.01,0.023,0.012,0.048,0.025,0.07l1.14,1.849l-5.271,2.889  c-0.021,0.011-0.033,0.03-0.051,0.043c-0.018,0.013-0.038,0.019-0.054,0.034l-4.728,4.507c-0.017,0.016-0.023,0.036-0.037,0.053  c-0.014,0.018-0.033,0.029-0.045,0.049l-3.407,5.593c-0.011,0.019-0.013,0.039-0.021,0.058c-0.01,0.022-0.025,0.039-0.032,0.062  l-1.828,6.274c-0.006,0.021-0.002,0.042-0.006,0.064c-0.003,0.021-0.013,0.04-0.014,0.062l-0.178,6.546  c-0.001,0.022,0.009,0.042,0.011,0.063c0.003,0.023-0.003,0.045,0.003,0.068l1.547,6.373c0.003,0.014,0.012,0.023,0.016,0.036  c0.003,0.009,0.001,0.019,0.005,0.027c0.003,0.008,0.012,0.012,0.016,0.02c0.037,0.083,0.092,0.154,0.164,0.205  c0.009,0.006,0.019,0.009,0.028,0.015c0.077,0.048,0.164,0.079,0.258,0.079c0.039,0,0.078-0.005,0.118-0.014  c0.012-0.003,0.02-0.011,0.03-0.015c0.011-0.003,0.022-0.002,0.033-0.006l1.999-0.777c0.013-0.005,0.021-0.016,0.033-0.021  c0.009-0.004,0.019-0.002,0.027-0.007l1.371-0.758l2.137,4.044l-0.763,0.736l-1.139-2.062c-0.001-0.001-0.001-0.001-0.001-0.002  c-0.006-0.011-0.017-0.017-0.023-0.027c-0.126-0.195-0.364-0.271-0.581-0.193c-0.024,0.009-0.051,0.011-0.075,0.023l-3.706,2.037  l-1.268-2.24l-1.834-6.837l0.051-7.119l1.87-6.848l3.573-6.145l5.088-5l3.13-1.805c0.019-0.011,0.029-0.028,0.046-0.041  c0.028-0.021,0.055-0.042,0.077-0.068c0.021-0.024,0.037-0.051,0.054-0.078c0.016-0.028,0.03-0.054,0.041-0.084  c0.012-0.034,0.016-0.067,0.021-0.103c0.002-0.021,0.012-0.038,0.012-0.059v-2.709c0-0.01-0.005-0.019-0.006-0.029  c-0.002-0.033-0.011-0.064-0.02-0.097c-0.009-0.034-0.017-0.066-0.032-0.096c-0.004-0.009-0.004-0.019-0.009-0.027  c-0.011-0.018-0.027-0.029-0.04-0.045c-0.021-0.029-0.042-0.056-0.069-0.08c-0.024-0.021-0.05-0.037-0.077-0.052  c-0.028-0.016-0.055-0.031-0.085-0.042c-0.034-0.012-0.067-0.017-0.103-0.021c-0.021-0.002-0.038-0.012-0.06-0.012  c-0.01,0-0.019,0.005-0.028,0.006c-0.034,0.002-0.066,0.011-0.1,0.02c-0.032,0.009-0.063,0.017-0.093,0.031  c-0.01,0.004-0.02,0.004-0.028,0.009l-4.595,2.633c-0.02,0.011-0.031,0.029-0.049,0.042c-0.017,0.013-0.037,0.019-0.053,0.035  l-5.596,5.503c-0.017,0.017-0.024,0.038-0.038,0.056c-0.014,0.018-0.031,0.029-0.043,0.049l-3.949,6.777  c-0.011,0.018-0.012,0.039-0.02,0.058c-0.01,0.021-0.025,0.038-0.031,0.061l-2.098,7.592c-0.006,0.023-0.002,0.046-0.005,0.069  c-0.003,0.021-0.013,0.04-0.013,0.062l-0.047,7.849c0,0.022,0.01,0.041,0.013,0.062c0.002,0.022-0.003,0.044,0.003,0.065  l1.957,7.598c0.003,0.012,0.015,0.017,0.019,0.028c0.011,0.032,0.015,0.065,0.032,0.096L25,69.034  c0.004,0.006,0.011,0.009,0.015,0.015c0.006,0.009,0.007,0.02,0.013,0.028c0.03,0.041,0.072,0.065,0.111,0.095  c0.021,0.017,0.036,0.039,0.06,0.051c0.073,0.04,0.153,0.062,0.235,0.062c0.085,0,0.171-0.021,0.249-0.066  c0.01-0.006,0.015-0.016,0.024-0.021c0.006-0.004,0.013-0.002,0.019-0.006l1.909-1.373c0.017-0.012,0.024-0.029,0.039-0.042  c0.012-0.011,0.027-0.016,0.038-0.027l1.456-1.596l4.13,4.334c0.015,0.016,0.035,0.022,0.052,0.035  c0.018,0.015,0.029,0.034,0.05,0.047l2.914,1.779l-1.747,4.252c-0.009,0.021-0.007,0.042-0.012,0.063  c-0.009,0.032-0.018,0.064-0.02,0.098c-0.001,0.031,0.002,0.062,0.006,0.093c0.004,0.032,0.009,0.063,0.02,0.095  c0.01,0.029,0.024,0.056,0.04,0.083c0.016,0.028,0.032,0.056,0.054,0.081c0.021,0.024,0.046,0.045,0.072,0.065  c0.018,0.014,0.028,0.031,0.048,0.043l2.68,1.584c0.013,0.008,0.028,0.005,0.041,0.011c0.021,0.011,0.038,0.027,0.061,0.034  c0.051,0.017,0.103,0.024,0.153,0.024c0.096,0,0.187-0.034,0.268-0.086c0.026-0.017,0.042-0.042,0.064-0.063  c0.034-0.031,0.074-0.054,0.099-0.096c0.015-0.024,0.017-0.051,0.026-0.076c0.004-0.01,0.016-0.015,0.019-0.025l1.397-4.35  l5.811,1.721c0.037,0.011,0.074,0.014,0.111,0.017c0.007,0,0.013,0.004,0.02,0.004l6.545,0.137c0.004,0,0.008,0,0.011,0  c0.037,0,0.075-0.004,0.113-0.013l1.546-0.359c0.001,0,0.002-0.001,0.004-0.002c0.001,0,0.001,0,0.002,0  c0.022-0.006,0.04-0.021,0.061-0.028c0.041-0.017,0.082-0.029,0.116-0.055c0.031-0.022,0.053-0.054,0.077-0.083  c0.017-0.02,0.039-0.035,0.052-0.058c0.02-0.03,0.027-0.066,0.039-0.101c0.01-0.026,0.024-0.051,0.029-0.079  c0.004-0.025-0.003-0.052-0.003-0.077c0.001-0.039,0.006-0.078-0.003-0.118c0-0.002-0.002-0.003-0.002-0.004s0-0.001,0-0.002  l-0.504-2.053c0-0.001-0.001-0.001-0.001-0.002s0-0.003,0-0.004c-0.01-0.038-0.032-0.069-0.05-0.103  c-0.013-0.024-0.02-0.052-0.035-0.073c-0.023-0.031-0.056-0.053-0.085-0.077c-0.02-0.017-0.034-0.037-0.056-0.05  c-0.047-0.028-0.1-0.045-0.154-0.057c-0.008-0.002-0.016-0.007-0.024-0.009c-0.05-0.008-0.103-0.002-0.155,0.006  c-0.015,0.003-0.029-0.002-0.044,0.002c-0.001,0-0.001,0.001-0.002,0.001s-0.002,0-0.004,0l-1.205,0.311l-5.815-0.135l-5.647-1.646  l-4.981-3.075l-2.335-2.447l2.449-2.3c0.015-0.014,0.021-0.031,0.033-0.046c0.022-0.026,0.043-0.053,0.059-0.083  c0.016-0.028,0.026-0.057,0.036-0.088c0.01-0.03,0.017-0.059,0.021-0.09c0.004-0.033,0.003-0.063,0.001-0.096  c-0.003-0.032-0.007-0.062-0.016-0.093c-0.009-0.032-0.021-0.062-0.037-0.091c-0.009-0.019-0.011-0.038-0.022-0.056l-2.691-4.034  l-1.508-4.559l-0.262-4.802l0.929-4.709l1.628-3.243l5.361,3.469l-1.052,2.354c-0.009,0.021-0.008,0.042-0.014,0.062  c-0.007,0.022-0.021,0.041-0.024,0.065l-0.459,2.955c-0.004,0.022,0.004,0.044,0.003,0.066c0,0.021-0.008,0.042-0.006,0.064  l0.317,2.955c0.002,0.015,0.01,0.026,0.012,0.04c0.003,0.013,0,0.024,0.003,0.037c0.003,0.01,0.013,0.014,0.016,0.023  c0.031,0.094,0.083,0.174,0.158,0.233c0.01,0.008,0.021,0.012,0.03,0.02c0.081,0.055,0.174,0.093,0.277,0.093h0.001l0,0h0.001  c0.018,0,0.035-0.001,0.053-0.003c0.009-0.001,0.016-0.006,0.023-0.008c0.018-0.003,0.036-0.002,0.054-0.007l2.185-0.594  c0.02-0.006,0.034-0.019,0.053-0.026c0.033-0.014,0.064-0.027,0.093-0.047c0.026-0.017,0.048-0.037,0.069-0.059  c0.023-0.023,0.045-0.047,0.063-0.074c0.018-0.025,0.03-0.053,0.043-0.081c0.013-0.03,0.024-0.06,0.031-0.093  c0.007-0.031,0.008-0.062,0.008-0.095c0.001-0.022,0.009-0.042,0.006-0.064l-0.264-2.313l0.379-2.251l0.95-2.087l1.463-1.735  l1.853-1.344l2.101-0.809l2.28-0.226l1.697,0.283l-0.46,1.216l-1.377-0.199c-0.026-0.004-0.05,0.003-0.075,0.003  c-0.021,0-0.04-0.007-0.061-0.004l-1.815,0.236c-0.021,0.003-0.039,0.015-0.06,0.021c-0.021,0.005-0.042,0.003-0.062,0.011  l-1.687,0.679c-0.023,0.009-0.04,0.028-0.061,0.04c-0.022,0.012-0.046,0.018-0.066,0.034c-0.008,0.006-0.011,0.015-0.018,0.021  c-0.025,0.022-0.043,0.049-0.062,0.075s-0.04,0.05-0.054,0.079s-0.02,0.059-0.028,0.09c-0.008,0.031-0.018,0.061-0.02,0.092  c-0.002,0.031,0.004,0.062,0.008,0.093c0.004,0.034,0.008,0.066,0.019,0.099c0.003,0.009,0.001,0.018,0.005,0.026  c0.005,0.013,0.019,0.018,0.024,0.03c0.016,0.033,0.026,0.067,0.05,0.097l1.315,1.639c0.021,0.025,0.05,0.038,0.073,0.058  c0.021,0.018,0.038,0.034,0.062,0.048c0.079,0.048,0.164,0.081,0.255,0.081c0.055,0,0.109-0.009,0.163-0.027l1.119-0.387  l1.142-0.061l1.145,0.248l1.019,0.512l0.851,0.752l0.617,0.955l0.359,1.08l0.045,1.133l-0.246,1.105l-0.484,1.023l-0.781,0.857  l-0.934,0.647l-1.098,0.329l-1.147,0.077l-1.098-0.241l-1.018-0.486l-0.853-0.771l-0.618-0.987l-0.37-1.062l-0.079-1.137  l0.243-1.113l0.563-1.079c0.006-0.011,0.005-0.023,0.01-0.035c0.003-0.007,0.011-0.01,0.014-0.017  c0.009-0.023,0.007-0.047,0.012-0.07c0.008-0.033,0.017-0.065,0.017-0.099c0.001-0.031-0.005-0.06-0.01-0.09  c-0.006-0.034-0.011-0.065-0.022-0.097c-0.011-0.028-0.027-0.053-0.043-0.079c-0.017-0.029-0.033-0.057-0.057-0.082  c-0.021-0.023-0.048-0.041-0.074-0.06c-0.021-0.015-0.034-0.035-0.058-0.047c-0.009-0.005-0.02-0.004-0.028-0.008  s-0.015-0.011-0.023-0.015l-1.946-0.751l-0.001,0h-0.001l-0.01-0.004c-0.036-0.014-0.073-0.014-0.11-0.019  c-0.026-0.004-0.052-0.014-0.077-0.014c-0.051,0.001-0.098,0.015-0.146,0.03c-0.014,0.004-0.028,0.004-0.041,0.009  c-0.041,0.018-0.076,0.046-0.111,0.074c-0.016,0.012-0.034,0.02-0.048,0.034c-0.03,0.03-0.051,0.07-0.073,0.109  c-0.011,0.019-0.026,0.032-0.035,0.053l-0.003,0.007c0,0.001-0.002,0.002-0.002,0.003s0,0.002,0,0.003l-0.68,1.65  c-0.008,0.02-0.006,0.04-0.012,0.06c-0.006,0.02-0.018,0.036-0.021,0.057l-0.269,1.801c-0.003,0.022,0.004,0.043,0.003,0.064  c0,0.025-0.008,0.048-0.005,0.073l0.228,1.775c0.003,0.024,0.016,0.044,0.021,0.067c0.005,0.019,0.003,0.038,0.011,0.057  l0.498,1.233l-1.694,0.753c-0.01,0.004-0.016,0.013-0.024,0.018s-0.02,0.004-0.028,0.01l-1.908,1.135  c-0.014,0.008-0.021,0.021-0.033,0.03c-0.012,0.008-0.024,0.011-0.035,0.02l-1.3,1.108l-1.116-2.63l-0.485-3.461l0.39-3.441  l0.388-0.958c0.045-0.11,0.04-0.226,0.008-0.331c-0.006-0.017-0.004-0.035-0.012-0.051c-0.005-0.013-0.016-0.022-0.022-0.034  c-0.023-0.044-0.048-0.089-0.084-0.125c-0.046-0.046-0.102-0.083-0.166-0.109l-2.366-0.96c-0.029-0.012-0.061-0.011-0.091-0.017  c-0.031-0.006-0.062-0.018-0.094-0.018c-0.035,0-0.068,0.01-0.103,0.017c-0.028,0.006-0.058,0.007-0.085,0.018  c-0.031,0.013-0.058,0.035-0.086,0.053c-0.025,0.017-0.053,0.029-0.075,0.05c-0.022,0.022-0.037,0.051-0.056,0.078  c-0.019,0.026-0.041,0.046-0.055,0.076l-0.41,0.909c-0.011,0.023-0.01,0.048-0.017,0.071c-0.006,0.021-0.019,0.038-0.021,0.06  l-0.635,4.229c-0.004,0.023,0.004,0.044,0.003,0.066c0,0.022-0.008,0.043-0.005,0.066l0.502,4.234  c0.003,0.023,0.015,0.044,0.021,0.066c0.005,0.02,0.003,0.04,0.011,0.06l1.592,4.002c0.005,0.013,0.019,0.019,0.025,0.031  c0.014,0.027,0.02,0.058,0.039,0.083l2.355,3.159l-0.962,1.899l-1.279,1.448c-0.018,0.02-0.023,0.044-0.037,0.064  c-0.019,0.028-0.037,0.054-0.049,0.084s-0.017,0.062-0.022,0.093c-0.006,0.032-0.013,0.062-0.012,0.094  c0,0.032,0.007,0.063,0.014,0.096c0.006,0.03,0.011,0.06,0.023,0.089c0.013,0.032,0.033,0.061,0.054,0.09  c0.013,0.019,0.019,0.041,0.035,0.059l0.914,1.002c0.014,0.015,0.032,0.021,0.048,0.034c0.02,0.018,0.033,0.039,0.057,0.054  l4.589,2.859c0.013,0.008,0.027,0.005,0.041,0.012c0.025,0.013,0.046,0.032,0.074,0.041l5.234,1.643  c0.034,0.011,0.069,0.013,0.104,0.016c0.011,0.001,0.019,0.007,0.029,0.007l5.449,0.178c0.006,0,0.012,0,0.017,0  c0.037,0,0.076-0.004,0.115-0.014l3.569-0.843l1.355,5.641l-3.596,0.948l-7.104-0.043l-4.254-1.166  c-0.02-0.006-0.04-0.001-0.06-0.004c-0.179-0.027-0.354,0.039-0.464,0.177c-0.013,0.016-0.018,0.038-0.029,0.056  c-0.022,0.038-0.048,0.074-0.061,0.119l-0.001,0.002c0,0.001,0,0.001,0,0.001v0.001l-0.638,2.27c0,0.001,0,0.002,0,0.002  c-0.001,0.002-0.002,0.003-0.002,0.004c-0.011,0.04-0.007,0.079-0.007,0.119c-0.001,0.025-0.008,0.051-0.005,0.075  c0.005,0.038,0.021,0.071,0.035,0.106c0.01,0.025,0.013,0.052,0.026,0.075c0.019,0.032,0.047,0.058,0.072,0.086  c0.018,0.02,0.031,0.042,0.052,0.059c0.033,0.026,0.074,0.041,0.114,0.059c0.021,0.01,0.037,0.024,0.061,0.031  c0.001,0,0.002,0,0.003,0c0.001,0.001,0.002,0.002,0.003,0.002l4.596,1.227c0.038,0.01,0.076,0.014,0.114,0.015  c0.003,0,0.006,0.002,0.009,0.002l7.814,0.088c0.002,0,0.004,0,0.006,0c0.042,0,0.084-0.005,0.127-0.017l7.6-1.994  c0.026-0.007,0.047-0.024,0.071-0.035c0.015-0.006,0.031-0.004,0.046-0.012l3.873-2.169l1.252,0.838l-6.751,3.281l-8.186,1.516  l-8.295-0.627l-7.831-2.778l-2.517-1.737l1.857-3.152c0.009-0.016,0.01-0.033,0.018-0.05c0.014-0.031,0.025-0.062,0.032-0.094  c0.008-0.032,0.012-0.063,0.013-0.096c0.001-0.031-0.001-0.061-0.006-0.091c-0.005-0.033-0.014-0.064-0.025-0.096  c-0.01-0.028-0.022-0.055-0.038-0.081c-0.018-0.029-0.038-0.056-0.062-0.081c-0.013-0.014-0.019-0.03-0.032-0.042l-0.454-0.398l0,0  c-0.001-0.001-0.001-0.001-0.001-0.001l-1.041-0.909l-2.896-2.896c0,0,0,0-0.001,0c0-0.001,0-0.001,0-0.001  c-0.019-0.019-0.043-0.026-0.063-0.042c-0.087-0.063-0.187-0.104-0.29-0.104s-0.202,0.041-0.29,0.105  c-0.021,0.015-0.044,0.022-0.062,0.041c0,0,0,0,0,0.001c-0.001,0-0.001,0-0.001,0l-1.634,1.643  c-0.021,0.021-0.031,0.048-0.048,0.072c-0.021,0.03-0.047,0.058-0.061,0.092c-0.01,0.024-0.01,0.052-0.016,0.078  c-0.008,0.036-0.021,0.071-0.021,0.108c-0.001,0.037,0.012,0.071,0.02,0.106c0.006,0.027,0.005,0.056,0.016,0.081  c0.014,0.034,0.04,0.063,0.062,0.094c0.016,0.023,0.025,0.051,0.046,0.071l2.157,2.196l-0.736,1.028l-0.777-0.546l-5.417-6.265  l-3.578-7.524l-1.52-8.141l0.622-8.284l2.729-7.841l4.703-6.862l1.449-1.24c0.002-0.002,0.003-0.004,0.005-0.006  c0.002-0.002,0.005-0.002,0.007-0.004c0.024-0.022,0.037-0.051,0.056-0.077c0.02-0.026,0.043-0.049,0.057-0.077  c0.015-0.03,0.019-0.062,0.026-0.095c0.008-0.03,0.021-0.059,0.022-0.09c0.002-0.033-0.007-0.064-0.012-0.096  c-0.004-0.032-0.003-0.063-0.014-0.093c-0.011-0.032-0.032-0.06-0.05-0.09c-0.015-0.025-0.023-0.054-0.043-0.077  c-0.002-0.002-0.004-0.002-0.006-0.004s-0.002-0.005-0.004-0.007l-1.998-2.196c-0.01-0.011-0.023-0.015-0.034-0.025  c-0.011-0.01-0.016-0.023-0.027-0.032c-0.016-0.012-0.034-0.016-0.051-0.025c-0.029-0.018-0.058-0.034-0.09-0.045  c-0.031-0.012-0.062-0.018-0.094-0.023c-0.029-0.004-0.059-0.007-0.089-0.006c-0.035,0.001-0.068,0.006-0.103,0.015  c-0.027,0.007-0.054,0.015-0.08,0.026c-0.033,0.014-0.062,0.033-0.091,0.054c-0.016,0.011-0.034,0.016-0.049,0.029  c-0.011,0.01-0.016,0.024-0.025,0.035s-0.022,0.016-0.031,0.027l-5.639,7.202c-0.014,0.018-0.018,0.039-0.028,0.057  c-0.012,0.02-0.029,0.034-0.038,0.055l-3.597,8.439c-0.009,0.021-0.007,0.042-0.013,0.062c-0.007,0.021-0.02,0.04-0.022,0.062  l-0.164,1.143h-2.259l-2.476-0.8c-0.003-0.001-0.005,0-0.008-0.001c-0.031-0.01-0.064-0.007-0.098-0.011  c-0.031-0.003-0.062-0.013-0.094-0.01c-0.002,0-0.004,0-0.006,0l-1.446,0.15l3.315-9.684l6.107-9.049l8.275-7.194l4.936-2.407  c0,0,0.001,0,0.001-0.001c0.001,0,0.002,0,0.003,0c0.039-0.02,0.067-0.05,0.099-0.077c0.019-0.016,0.041-0.026,0.057-0.043  c0.019-0.022,0.028-0.05,0.043-0.075c0.019-0.03,0.041-0.059,0.052-0.092c0.007-0.02,0.005-0.042,0.009-0.062  c0.009-0.042,0.02-0.084,0.018-0.128c-0.002-0.021-0.013-0.042-0.017-0.064c-0.009-0.042-0.014-0.085-0.033-0.125  c0-0.001-0.001-0.001-0.002-0.002c0,0,0-0.001,0-0.001l-0.948-1.904c-0.014-0.027-0.036-0.046-0.054-0.069  c-0.021-0.027-0.038-0.058-0.062-0.08c-0.022-0.02-0.049-0.031-0.074-0.046c-0.03-0.019-0.059-0.04-0.092-0.052  c-0.024-0.009-0.052-0.009-0.078-0.014c-0.037-0.006-0.072-0.016-0.11-0.014c-0.029,0.001-0.058,0.013-0.086,0.02  c-0.032,0.007-0.064,0.008-0.095,0.021l-3.916,1.751c-0.021,0.009-0.034,0.026-0.053,0.038c-0.02,0.012-0.041,0.016-0.059,0.031  l-9.005,7.319c-0.018,0.014-0.026,0.035-0.042,0.051c-0.015,0.016-0.034,0.025-0.048,0.044l-6.818,9.411  c-0.014,0.018-0.017,0.04-0.027,0.059c-0.01,0.019-0.026,0.033-0.034,0.054L5.637,40.087c-0.009,0.023-0.007,0.048-0.012,0.072  c-0.005,0.02-0.017,0.037-0.019,0.058L4.429,51.775c-0.002,0.021,0.006,0.04,0.006,0.061c0,0.023-0.007,0.045-0.003,0.068  L6.248,63.4c0.004,0.026,0.018,0.048,0.025,0.072c0.006,0.018,0.004,0.035,0.012,0.053l4.724,10.605  c0.006,0.013,0.02,0.018,0.025,0.03c0.015,0.026,0.022,0.057,0.043,0.081l7.325,9.037c0.012,0.015,0.029,0.021,0.043,0.034  c0.019,0.019,0.031,0.041,0.053,0.057l9.419,6.822c0.011,0.008,0.024,0.005,0.035,0.012c0.026,0.017,0.049,0.038,0.079,0.05  L38.854,94.4c0.024,0.009,0.049,0.008,0.073,0.014c0.019,0.004,0.033,0.015,0.053,0.017l11.548,1.225  c0.017,0.002,0.034,0.003,0.051,0.003h0.001h0.001h0.001h0.001c0.025,0,0.051-0.002,0.076-0.006l11.507-1.818  c0.025-0.004,0.046-0.019,0.07-0.026c0.019-0.006,0.037-0.003,0.056-0.012l10.599-4.734c0.015-0.007,0.024-0.02,0.038-0.027  c0.024-0.014,0.05-0.022,0.072-0.04l9.042-7.311c0.021-0.018,0.033-0.042,0.052-0.062c0.012-0.013,0.028-0.019,0.039-0.033  l6.824-9.42c0.02-0.027,0.026-0.059,0.04-0.088c0.005-0.011,0.018-0.016,0.021-0.027l4.139-10.867  c0.007-0.018,0.005-0.036,0.009-0.055c0.007-0.023,0.019-0.045,0.021-0.07l1.231-11.545c0.002-0.022-0.006-0.042-0.006-0.063  C94.414,49.43,94.421,49.408,94.417,49.384z M92.201,60.892L88.11,71.634l-6.748,9.314l-8.94,7.229l-10.475,4.679l-11.381,1.799  L39.15,93.443l-10.699-4.1l-9.313-6.745l-7.241-8.934L7.227,63.18L5.43,51.81l1.164-11.422l4.139-10.729l6.742-9.306l8.902-7.236  l3.418-1.528l0.51,1.023l-4.543,2.216c-0.02,0.01-0.032,0.026-0.05,0.038c-0.02,0.013-0.042,0.018-0.06,0.034l-8.373,7.278  c-0.019,0.016-0.027,0.038-0.043,0.056c-0.014,0.015-0.031,0.025-0.043,0.042l-6.182,9.16c-0.013,0.019-0.016,0.041-0.025,0.061  s-0.025,0.035-0.033,0.057L7.362,42.04c-0.001,0.002,0,0.005-0.001,0.008c-0.01,0.031-0.009,0.065-0.013,0.098  c-0.004,0.034-0.013,0.067-0.01,0.1c0,0.002-0.001,0.005-0.001,0.008c0.004,0.037,0.02,0.069,0.03,0.103  c0.008,0.023,0.01,0.047,0.021,0.069c0.029,0.056,0.066,0.107,0.112,0.148c0.003,0.002,0.007,0.003,0.01,0.006  c0.046,0.039,0.097,0.069,0.153,0.09c0.003,0.001,0.006,0.004,0.009,0.005c0.051,0.017,0.103,0.024,0.154,0.025  c0.002,0,0.004,0.001,0.007,0.001h0.001l0,0l0,0c0.018,0,0.034-0.001,0.052-0.002l2.121-0.22l2.449,0.792  c0.051,0.017,0.103,0.024,0.153,0.024h2.771l0,0h0.001c0.064,0,0.126-0.014,0.185-0.037c0.021-0.008,0.037-0.023,0.057-0.034  c0.034-0.02,0.067-0.039,0.097-0.065c0.018-0.017,0.031-0.038,0.047-0.058c0.022-0.028,0.044-0.057,0.061-0.09  c0.012-0.024,0.018-0.049,0.025-0.075c0.007-0.024,0.02-0.044,0.023-0.07l0.217-1.508l3.545-8.318l5.232-6.684l1.253,1.377  l-1.106,0.947c-0.019,0.016-0.027,0.037-0.042,0.054c-0.015,0.016-0.033,0.025-0.045,0.043l-4.78,6.975  c-0.013,0.018-0.015,0.039-0.024,0.058c-0.012,0.021-0.028,0.037-0.036,0.06l-2.772,7.963c-0.008,0.021-0.004,0.043-0.009,0.064  s-0.016,0.04-0.018,0.062l-0.632,8.413c-0.002,0.024,0.007,0.046,0.009,0.068c0.001,0.021-0.005,0.04-0.001,0.061l1.544,8.271  c0.005,0.026,0.019,0.048,0.027,0.072c0.006,0.017,0.005,0.034,0.013,0.051l3.636,7.645c0.006,0.013,0.02,0.018,0.026,0.03  c0.017,0.027,0.025,0.058,0.047,0.082l5.503,6.363c0.012,0.014,0.028,0.019,0.042,0.031c0.017,0.016,0.028,0.037,0.048,0.051  l1.23,0.865c0.088,0.062,0.188,0.091,0.288,0.091c0.078,0,0.155-0.019,0.226-0.054c0.047-0.023,0.082-0.065,0.12-0.104  c0.02-0.02,0.044-0.029,0.061-0.052l0.001-0.001c0-0.001,0.001-0.001,0.002-0.002s0.001-0.002,0.001-0.003l1.267-1.768  c0.011-0.016,0.014-0.033,0.022-0.05c0.018-0.031,0.032-0.062,0.042-0.095c0.01-0.029,0.015-0.059,0.019-0.09  s0.006-0.062,0.003-0.095s-0.009-0.062-0.018-0.094c-0.009-0.03-0.019-0.059-0.032-0.087c-0.015-0.03-0.034-0.058-0.055-0.085  c-0.012-0.015-0.018-0.033-0.031-0.047l-2.105-2.144l0.932-0.937l2.558,2.558c0.004,0.004,0.009,0.005,0.013,0.009  c0.005,0.004,0.007,0.011,0.012,0.015l1.049,0.916l0,0l0.143,0.125l-1.884,3.195c-0.015,0.025-0.018,0.053-0.027,0.079  c-0.012,0.03-0.026,0.06-0.032,0.092c-0.005,0.032-0.002,0.064-0.001,0.098c0.001,0.031-0.001,0.062,0.006,0.092  c0.007,0.032,0.022,0.061,0.035,0.091c0.013,0.028,0.022,0.058,0.04,0.084c0.02,0.027,0.046,0.05,0.071,0.073  c0.02,0.019,0.032,0.041,0.055,0.057l2.956,2.041c0.011,0.007,0.023,0.004,0.034,0.011c0.028,0.017,0.052,0.038,0.083,0.05  l7.955,2.822c0.026,0.01,0.054,0.009,0.081,0.014c0.017,0.003,0.03,0.013,0.048,0.014l8.422,0.637  c0.013,0.001,0.024,0.001,0.037,0.001l0,0l0,0c0.001,0,0.002,0,0.002,0c0.001,0,0.001,0,0.002,0  c0.029-0.001,0.059-0.003,0.088-0.009l8.32-1.541c0.027-0.005,0.048-0.021,0.073-0.029c0.018-0.007,0.037-0.004,0.055-0.013  l7.596-3.691c0.002-0.001,0.004-0.003,0.006-0.004c0.014-0.008,0.023-0.021,0.037-0.029c0.053-0.032,0.098-0.071,0.134-0.119  c0.006-0.008,0.015-0.011,0.021-0.019c0.013-0.019,0.015-0.04,0.024-0.06c0.015-0.029,0.028-0.059,0.037-0.09  c0.009-0.032,0.012-0.063,0.014-0.097c0.002-0.031,0.004-0.061,0-0.093c-0.005-0.034-0.015-0.065-0.025-0.098  c-0.007-0.021-0.006-0.041-0.016-0.061c-0.005-0.01-0.014-0.016-0.02-0.025c-0.017-0.029-0.037-0.053-0.06-0.078  s-0.044-0.051-0.07-0.071c-0.009-0.007-0.014-0.017-0.022-0.022l-2.231-1.492c-0.022-0.015-0.047-0.018-0.07-0.028  c-0.031-0.015-0.061-0.03-0.094-0.038c-0.032-0.008-0.063-0.007-0.096-0.008c-0.032-0.002-0.062-0.005-0.095,0  c-0.034,0.006-0.064,0.019-0.097,0.031c-0.023,0.009-0.049,0.01-0.071,0.022l-4.086,2.288l-7.471,1.96l-7.685-0.086l-4.047-1.08  l0.367-1.308l3.838,1.053c0.041,0.011,0.082,0.016,0.124,0.017c0.002,0,0.003,0.001,0.005,0.001l7.236,0.043  c0.001,0,0.002,0,0.003,0c0.042,0,0.085-0.005,0.128-0.017l4.121-1.087c0.001,0,0.001,0,0.001,0l0,0l0.011-0.003  c0.028-0.008,0.05-0.025,0.076-0.037c0.033-0.016,0.069-0.026,0.098-0.048c0.023-0.019,0.038-0.043,0.058-0.064  c0.024-0.025,0.052-0.049,0.069-0.078c0.015-0.024,0.02-0.053,0.029-0.08c0.013-0.033,0.03-0.064,0.035-0.101  c0.005-0.028-0.002-0.058-0.003-0.087c-0.001-0.035,0.005-0.07-0.004-0.105l-1.586-6.6c-0.006-0.023-0.021-0.041-0.028-0.062  c-0.087-0.225-0.314-0.367-0.568-0.307c-0.003,0-0.005,0-0.007,0c-0.001,0-0.001,0.001-0.002,0.001l-3.984,0.94l-5.315-0.174  l-5.108-1.603l-4.479-2.791l-0.563-0.617l1.024-1.16c0.021-0.022,0.028-0.051,0.044-0.076c0.007-0.012,0.021-0.017,0.027-0.029  l1.131-2.232c0.012-0.023,0.013-0.049,0.021-0.073c0.011-0.033,0.023-0.064,0.027-0.098c0.004-0.036-0.002-0.069-0.006-0.104  c-0.002-0.028-0.002-0.057-0.01-0.085c-0.012-0.038-0.031-0.072-0.051-0.107c-0.011-0.019-0.015-0.039-0.027-0.057l-2.5-3.354  l-1.545-3.884l-0.486-4.1l0.614-4.093l0.185-0.41l1.457,0.591l-0.226,0.559c-0.009,0.022-0.007,0.045-0.013,0.068  c-0.006,0.021-0.018,0.04-0.021,0.063l-0.404,3.57c-0.003,0.022,0.005,0.043,0.006,0.065c0,0.021-0.007,0.04-0.004,0.061l0.503,3.59  c0.004,0.026,0.017,0.048,0.024,0.072c0.005,0.018,0.003,0.036,0.011,0.054l1.409,3.318c0.005,0.013,0.019,0.018,0.024,0.029  c0.018,0.034,0.03,0.069,0.056,0.1c0.021,0.025,0.051,0.037,0.076,0.058c0.021,0.017,0.038,0.033,0.062,0.046  c0.075,0.043,0.157,0.072,0.242,0.072c0.062,0,0.125-0.014,0.184-0.038c0.004-0.001,0.008,0,0.012-0.002  c0.018-0.008,0.029-0.021,0.045-0.031c0.028-0.016,0.059-0.026,0.084-0.049l1.782-1.521l1.849-1.1l2.11-0.938  c0.027-0.012,0.046-0.033,0.069-0.05c0.029-0.02,0.062-0.035,0.086-0.061c0.021-0.022,0.034-0.05,0.051-0.075  c0.019-0.028,0.041-0.054,0.053-0.085c0.012-0.028,0.014-0.06,0.02-0.089c0.007-0.033,0.018-0.064,0.018-0.099  c0-0.03-0.012-0.061-0.018-0.092s-0.005-0.063-0.018-0.095l-0.656-1.622l-0.21-1.645l0.249-1.67l0.476-1.155l0.979,0.378  l-0.335,0.641c-0.012,0.021-0.012,0.045-0.02,0.067c-0.007,0.02-0.021,0.036-0.025,0.057l-0.273,1.252  c-0.005,0.023,0.001,0.046-0.001,0.069c-0.002,0.024-0.012,0.047-0.01,0.072l0.089,1.273c0.002,0.024,0.013,0.044,0.018,0.067  c0.005,0.021,0.002,0.041,0.009,0.062l0.41,1.178c0.004,0.012,0.017,0.017,0.021,0.028c0.01,0.024,0.013,0.05,0.027,0.073  l0.686,1.096c0.009,0.014,0.023,0.019,0.033,0.031c0.019,0.024,0.031,0.053,0.055,0.074l0.956,0.865  c0.021,0.02,0.048,0.028,0.072,0.044c0.017,0.011,0.029,0.027,0.048,0.036l1.137,0.543c0.017,0.008,0.033,0.006,0.05,0.012  c0.021,0.007,0.037,0.021,0.059,0.025l1.225,0.27c0.035,0.008,0.07,0.012,0.105,0.012h0.001h0.001l0,0l0,0  c0.012,0,0.022,0,0.034-0.001l1.271-0.086c0.012-0.001,0.021-0.008,0.033-0.009c0.025-0.004,0.051-0.004,0.076-0.012l1.232-0.369  c0.04-0.012,0.071-0.036,0.105-0.056c0.011-0.007,0.025-0.004,0.036-0.012l1.042-0.723c0.018-0.013,0.027-0.031,0.043-0.045  c0.013-0.012,0.029-0.017,0.041-0.029l0.872-0.957c0.025-0.027,0.037-0.061,0.056-0.092c0.007-0.013,0.021-0.018,0.027-0.031  l0.54-1.141c0.007-0.015,0.006-0.03,0.011-0.045c0.008-0.021,0.021-0.038,0.025-0.061l0.272-1.225  c0.005-0.021-0.001-0.042,0.001-0.062c0.002-0.022,0.012-0.042,0.011-0.065l-0.051-1.268c-0.001-0.021-0.012-0.039-0.016-0.06  c-0.005-0.026-0.001-0.052-0.01-0.078l-0.401-1.208c-0.007-0.021-0.022-0.036-0.031-0.055c-0.01-0.019-0.012-0.04-0.023-0.059  l-0.689-1.065c-0.014-0.021-0.033-0.032-0.049-0.05c-0.015-0.017-0.022-0.038-0.04-0.053l-0.951-0.842  c-0.017-0.015-0.037-0.02-0.055-0.032c-0.019-0.013-0.031-0.03-0.052-0.041L51.262,45.6c-0.02-0.01-0.042-0.01-0.062-0.017  c-0.02-0.007-0.035-0.021-0.057-0.025l-1.272-0.275c-0.025-0.006-0.05,0-0.074-0.001c-0.02-0.001-0.037-0.01-0.058-0.009  L48.46,45.34c-0.024,0.001-0.045,0.013-0.068,0.018s-0.046,0.001-0.068,0.009l-0.854,0.295l-0.673-0.839l1.003-0.404l1.684-0.219  l1.707,0.247c0.023,0.004,0.047,0.005,0.07,0.005c0.001,0,0.001,0,0.001,0l0,0h0.001c0.093,0,0.178-0.033,0.254-0.079  c0.013-0.008,0.025-0.013,0.037-0.022c0.071-0.052,0.126-0.122,0.161-0.205c0.004-0.007,0.012-0.01,0.015-0.018l0.817-2.161  c0.006-0.015,0.003-0.03,0.007-0.044c0.005-0.017,0.016-0.032,0.019-0.05c0.003-0.017-0.003-0.033-0.002-0.05  c0.003-0.035,0.002-0.068-0.004-0.103c-0.004-0.031-0.011-0.059-0.021-0.088c-0.011-0.032-0.023-0.061-0.04-0.089  c-0.016-0.027-0.033-0.051-0.053-0.074c-0.021-0.025-0.044-0.046-0.07-0.066s-0.053-0.037-0.083-0.052  c-0.016-0.008-0.027-0.021-0.044-0.027s-0.033-0.004-0.05-0.008c-0.016-0.004-0.028-0.014-0.045-0.017l-2.364-0.394  c-0.023-0.004-0.046,0.003-0.07,0.002c-0.021-0.001-0.039-0.009-0.061-0.007l-2.414,0.239c-0.023,0.002-0.042,0.015-0.064,0.02  c-0.022,0.005-0.045,0.003-0.066,0.011l-2.225,0.856c-0.021,0.008-0.036,0.024-0.055,0.035c-0.02,0.01-0.041,0.014-0.06,0.027  l-1.952,1.417c-0.019,0.013-0.027,0.032-0.044,0.047c-0.014,0.013-0.031,0.02-0.044,0.035l-1.549,1.837  c-0.016,0.018-0.021,0.04-0.032,0.059c-0.013,0.02-0.031,0.034-0.041,0.056l-1.006,2.209c-0.01,0.021-0.009,0.044-0.016,0.065  c-0.006,0.021-0.019,0.037-0.022,0.059l-0.401,2.385c-0.004,0.023,0.003,0.045,0.002,0.068c-0.001,0.024-0.009,0.047-0.006,0.071  l0.223,1.956l-1.204,0.328l-0.248-2.307l0.439-2.827l1.198-2.683c0.009-0.019,0.007-0.039,0.014-0.059  c0.01-0.033,0.019-0.065,0.022-0.099c0.003-0.032,0.001-0.062-0.002-0.094c-0.003-0.032-0.008-0.063-0.017-0.094  s-0.022-0.058-0.037-0.086s-0.029-0.055-0.05-0.081c-0.021-0.026-0.045-0.048-0.071-0.07c-0.016-0.013-0.026-0.031-0.044-0.042  l-6.189-4.004c-0.008-0.005-0.018-0.005-0.025-0.01c-0.008-0.005-0.013-0.013-0.021-0.017c-0.023-0.011-0.048-0.012-0.071-0.02  c-0.031-0.01-0.061-0.021-0.092-0.025c-0.036-0.004-0.069-0.001-0.104,0.002c-0.028,0.002-0.056,0.003-0.083,0.01  c-0.035,0.009-0.067,0.026-0.1,0.042c-0.024,0.013-0.049,0.023-0.071,0.04c-0.029,0.021-0.052,0.049-0.076,0.077  c-0.015,0.018-0.034,0.028-0.047,0.048c-0.005,0.008-0.005,0.017-0.01,0.025c-0.005,0.008-0.013,0.014-0.018,0.022l-1.907,3.8  c-0.012,0.022-0.012,0.047-0.019,0.07c-0.007,0.02-0.021,0.036-0.024,0.057l-0.955,4.84c-0.004,0.021,0.002,0.041,0,0.062  c-0.001,0.021-0.01,0.041-0.009,0.062l0.27,4.931c0.001,0.023,0.013,0.044,0.017,0.066c0.004,0.021,0.001,0.042,0.008,0.063  l1.55,4.686c0.004,0.012,0.017,0.017,0.021,0.028c0.012,0.031,0.018,0.063,0.037,0.092l2.494,3.738l-2.508,2.354l0,0  c-0.001,0.001-0.002,0.001-0.003,0.002c-0.029,0.027-0.045,0.062-0.066,0.095c-0.015,0.023-0.036,0.043-0.047,0.067  c-0.011,0.025-0.012,0.054-0.019,0.081c-0.009,0.035-0.021,0.069-0.023,0.105c-0.001,0.042,0.012,0.083,0.021,0.124  c0.005,0.021,0.003,0.043,0.011,0.063c0.021,0.057,0.055,0.109,0.098,0.156c0.003,0.004,0.004,0.008,0.007,0.012l0,0  c0.001,0.001,0.001,0.002,0.002,0.003l2.727,2.859c0.015,0.016,0.034,0.021,0.05,0.034c0.018,0.015,0.029,0.034,0.05,0.047  l5.094,3.145c0.013,0.008,0.027,0.005,0.04,0.012c0.028,0.014,0.052,0.034,0.083,0.043l5.774,1.682  c0.037,0.011,0.073,0.014,0.109,0.016c0.007,0,0.012,0.004,0.019,0.004l5.951,0.139c0.004,0,0.008,0,0.012,0  c0.041,0,0.083-0.005,0.125-0.016l0.783-0.202l0.262,1.069l-0.992,0.231l-6.415-0.135l-6.214-1.84  c-0.023-0.007-0.047-0.003-0.071-0.006c-0.174-0.025-0.345,0.035-0.453,0.167c-0.016,0.018-0.022,0.042-0.035,0.062  c-0.021,0.033-0.045,0.063-0.058,0.103l-0.004,0.011c0,0.001,0,0.001,0,0.001s0,0,0,0.001l-1.352,4.206l-1.768-1.045l1.744-4.246  c0.008-0.021,0.006-0.041,0.012-0.062c0.009-0.032,0.016-0.062,0.019-0.095c0.002-0.033-0.001-0.064-0.005-0.097  c-0.004-0.031-0.009-0.061-0.019-0.091s-0.024-0.059-0.04-0.087c-0.015-0.027-0.031-0.053-0.052-0.078  c-0.021-0.025-0.047-0.047-0.074-0.068c-0.016-0.013-0.025-0.029-0.043-0.04l-3.223-1.968l-4.454-4.675  c-0.005-0.005-0.011-0.006-0.016-0.011c-0.004-0.004-0.005-0.01-0.01-0.014c-0.021-0.02-0.047-0.027-0.07-0.042  c-0.028-0.019-0.054-0.039-0.084-0.051c-0.031-0.013-0.063-0.016-0.096-0.021c-0.031-0.005-0.061-0.014-0.093-0.014  c-0.03,0.001-0.059,0.01-0.088,0.016c-0.034,0.006-0.067,0.011-0.1,0.023c-0.027,0.012-0.05,0.031-0.075,0.048  s-0.054,0.026-0.076,0.048c-0.005,0.005-0.006,0.011-0.011,0.016c-0.004,0.004-0.01,0.006-0.014,0.01l-1.78,1.952l-1.42,1.021  l-3.605-6.28l-1.925-7.471l0.047-7.715l2.063-7.47l3.881-6.66l5.503-5.412l3.79-2.172v1.558l-2.935,1.693  c-0.02,0.011-0.031,0.029-0.048,0.042c-0.017,0.013-0.037,0.019-0.053,0.034l-5.183,5.094c-0.016,0.016-0.022,0.036-0.036,0.053  c-0.015,0.019-0.034,0.031-0.046,0.052l-3.639,6.257c-0.012,0.02-0.013,0.042-0.021,0.063c-0.008,0.02-0.022,0.035-0.028,0.056  l-1.905,6.974c-0.006,0.022-0.001,0.043-0.004,0.065c-0.004,0.021-0.014,0.041-0.014,0.063l-0.052,7.254  c0,0.022,0.01,0.041,0.012,0.062c0.003,0.023-0.002,0.047,0.005,0.071l1.867,6.961c0.003,0.012,0.016,0.018,0.02,0.028  c0.01,0.029,0.013,0.06,0.028,0.088l1.54,2.721v0.001l0,0l0.003,0.005c0.031,0.056,0.081,0.09,0.127,0.127  c0.021,0.019,0.035,0.046,0.059,0.06c0.076,0.044,0.162,0.067,0.25,0.067c0.082,0,0.164-0.02,0.241-0.062l3.702-2.035l1.215,2.2  c0.008,0.014,0.022,0.019,0.03,0.031c0.017,0.024,0.026,0.052,0.048,0.074c0.022,0.023,0.051,0.034,0.076,0.052  c0.021,0.015,0.037,0.029,0.06,0.041c0.07,0.036,0.146,0.06,0.224,0.06c0.075,0,0.147-0.022,0.216-0.056  c0.009-0.004,0.018-0.002,0.026-0.007c0.02-0.011,0.032-0.029,0.05-0.042c0.018-0.014,0.039-0.021,0.056-0.036l1.503-1.451  c0.007-0.007,0.01-0.017,0.017-0.023c0.023-0.026,0.041-0.055,0.059-0.085c0.016-0.027,0.032-0.052,0.043-0.081  c0.011-0.03,0.015-0.061,0.02-0.093c0.005-0.031,0.012-0.062,0.01-0.094c-0.001-0.03-0.009-0.061-0.016-0.091  c-0.008-0.033-0.015-0.065-0.028-0.098c-0.005-0.009-0.004-0.02-0.009-0.028l-2.551-4.826c-0.001-0.002-0.003-0.003-0.003-0.004  c-0.001-0.002-0.001-0.003-0.002-0.005c-0.017-0.031-0.043-0.052-0.065-0.077c-0.021-0.023-0.036-0.051-0.06-0.07  c-0.039-0.031-0.085-0.052-0.132-0.07c-0.012-0.005-0.022-0.014-0.035-0.018c-0.05-0.016-0.103-0.019-0.155-0.017  c-0.012,0-0.023-0.005-0.036-0.004c-0.037,0.004-0.073,0.021-0.109,0.033c-0.026,0.008-0.054,0.01-0.078,0.022  c-0.002,0.001-0.003,0.003-0.004,0.003c-0.002,0.001-0.003,0.001-0.005,0.002l-1.788,0.988l-1.435,0.558l-1.396-5.755l0.174-6.413  l1.792-6.151l3.338-5.479l4.632-4.416l5.676-3.111c0.005-0.002,0.007-0.007,0.012-0.009c0.003-0.002,0.007-0.001,0.011-0.003  c0.026-0.017,0.044-0.042,0.066-0.062c0.023-0.021,0.05-0.04,0.069-0.065c0.019-0.026,0.029-0.055,0.043-0.084  c0.015-0.029,0.031-0.057,0.04-0.088c0.008-0.03,0.006-0.061,0.008-0.091c0.003-0.033,0.009-0.065,0.005-0.099  c-0.005-0.033-0.02-0.063-0.03-0.095c-0.009-0.027-0.011-0.056-0.025-0.083c-0.002-0.004-0.006-0.006-0.008-0.01  c-0.003-0.004-0.003-0.008-0.005-0.012l-1.318-2.138l0.385-2.331c0.002-0.014-0.003-0.026-0.002-0.041  c0.002-0.014,0.009-0.026,0.009-0.041v-2.522c0-0.004-0.002-0.008-0.002-0.012c-0.001-0.032-0.013-0.062-0.02-0.093  c-0.008-0.035-0.011-0.07-0.025-0.102c-0.002-0.003-0.001-0.007-0.003-0.01c-0.01-0.021-0.028-0.035-0.041-0.055  c-0.021-0.032-0.041-0.065-0.068-0.091c-0.023-0.022-0.052-0.035-0.078-0.052c-0.027-0.018-0.053-0.037-0.084-0.049  c-0.031-0.012-0.065-0.015-0.099-0.02c-0.027-0.004-0.052-0.016-0.08-0.016c-0.005,0-0.009,0.002-0.013,0.002  c-0.03,0.001-0.059,0.012-0.088,0.018c-0.036,0.007-0.072,0.011-0.104,0.026c-0.004,0.001-0.008,0.001-0.012,0.003l-7.594,3.655  c-0.021,0.01-0.033,0.027-0.052,0.039c-0.019,0.012-0.039,0.017-0.056,0.031l-2.041,1.735l-3.312-3.665  c-0.024-0.026-0.055-0.041-0.083-0.061c-0.026-0.019-0.049-0.043-0.077-0.057c-0.001,0-0.003,0-0.004-0.001  c-0.176-0.08-0.39-0.055-0.541,0.083l-4.961,4.453c-0.018,0.016-0.026,0.037-0.041,0.055c-0.014,0.017-0.032,0.026-0.044,0.045  l-5.364,8.256c-0.012,0.018-0.014,0.038-0.022,0.056c-0.01,0.021-0.025,0.037-0.033,0.059l-1.892,5.714l-1.489-0.485l2.574-7.065  l5.934-8.512l7.506-6.319l2.125,4.336c0.005,0.011,0.017,0.015,0.022,0.025c0.011,0.018,0.013,0.037,0.025,0.053  c0.026,0.035,0.063,0.054,0.097,0.081c0.022,0.018,0.039,0.04,0.064,0.053c0.074,0.042,0.156,0.068,0.24,0.068  c0.074,0,0.149-0.016,0.22-0.051c0.02-0.01,0.032-0.027,0.05-0.039c0.009-0.006,0.02-0.003,0.028-0.009l1.997-1.485l8.39-3.386  l8.961-1.097l8.981,1.284c0.023,0.003,0.047,0.005,0.07,0.005l0,0l0,0h0.001c0.077,0,0.149-0.023,0.216-0.056  c0.018-0.009,0.033-0.019,0.051-0.03c0.058-0.037,0.107-0.083,0.146-0.142c0.004-0.007,0.013-0.009,0.017-0.016l2.381-3.991  l6.102,2.231l8.533,5.945l6.688,7.946l4.397,9.412l1.848,10.216l-0.904,10.375l-3.546,9.74l-5.974,8.533l-7.949,6.688l-9.384,4.404  l-10.235,1.795l-10.332-0.893l-9.79-3.5l-8.482-5.972l-6.697-7.955l-4.403-9.386L9.655,52.434l0.449-4.958l1.473,0.083l-0.33,5.919  c-0.001,0.022,0.008,0.042,0.009,0.064c0.002,0.022-0.004,0.044,0.001,0.066l2.044,9.688c0.006,0.028,0.021,0.052,0.031,0.077  c0.006,0.016,0.005,0.031,0.013,0.046l4.457,8.768c0.006,0.013,0.02,0.018,0.026,0.029c0.017,0.025,0.025,0.055,0.047,0.078  l6.595,7.33c0.014,0.016,0.032,0.021,0.048,0.034c0.018,0.016,0.029,0.036,0.05,0.05l8.23,5.41c0.012,0.008,0.026,0.005,0.038,0.012  c0.028,0.015,0.051,0.036,0.082,0.046l9.37,3.047c0.03,0.01,0.062,0.011,0.094,0.015c0.012,0.002,0.021,0.008,0.033,0.009  l9.866,0.545c0.009,0.001,0.018,0.001,0.026,0.001l0,0l0,0c0.001,0,0.001,0,0.001,0h0.001c0.034,0,0.069-0.004,0.103-0.011  l9.641-2.049c0.027-0.006,0.049-0.022,0.074-0.032c0.016-0.006,0.033-0.004,0.049-0.012l8.775-4.461  c0.017-0.009,0.027-0.023,0.042-0.033c0.021-0.014,0.044-0.021,0.063-0.038l7.367-6.543c0.022-0.021,0.034-0.047,0.053-0.07  c0.01-0.013,0.026-0.019,0.035-0.032l5.365-8.279c0.018-0.027,0.023-0.059,0.035-0.089c0.005-0.012,0.017-0.017,0.021-0.028  l3.047-9.363c0.007-0.021,0.003-0.042,0.007-0.062c0.005-0.022,0.016-0.041,0.017-0.064l0.547-9.845  c0.001-0.023-0.008-0.043-0.01-0.065c-0.001-0.021,0.005-0.042,0-0.064l-1.994-9.641c-0.004-0.02-0.017-0.035-0.023-0.054  c-0.008-0.023-0.008-0.048-0.02-0.071l-4.461-8.802c-0.011-0.021-0.029-0.034-0.042-0.053c-0.012-0.018-0.018-0.038-0.032-0.055  l-6.594-7.343c-0.016-0.018-0.036-0.025-0.054-0.04c-0.017-0.014-0.027-0.033-0.046-0.045l-8.277-5.389  c-0.018-0.012-0.038-0.014-0.057-0.022c-0.021-0.01-0.037-0.026-0.06-0.034l-1.593-0.522c-0.015-0.005-0.029-0.002-0.045-0.005  c-0.031-0.007-0.062-0.01-0.095-0.011c-0.034-0.001-0.068-0.001-0.102,0.005c-0.027,0.004-0.053,0.013-0.078,0.022  c-0.035,0.012-0.067,0.026-0.099,0.045c-0.023,0.015-0.044,0.032-0.065,0.051c-0.026,0.024-0.051,0.049-0.072,0.08  c-0.009,0.012-0.021,0.019-0.029,0.031l-2.655,4.425l-4.839-1.688c-0.021-0.007-0.042-0.004-0.062-0.008  c-0.022-0.005-0.041-0.016-0.063-0.018l-8.423-0.656c-0.023-0.002-0.044,0.007-0.067,0.008c-0.022,0.001-0.044-0.005-0.066-0.001  l-5.091,0.979c-0.019,0.003-0.032,0.015-0.049,0.02c-0.033,0.01-0.062,0.022-0.092,0.038c-0.028,0.016-0.053,0.032-0.078,0.053  c-0.024,0.021-0.047,0.042-0.067,0.067c-0.02,0.024-0.036,0.049-0.052,0.077s-0.027,0.056-0.037,0.087  c-0.011,0.032-0.017,0.064-0.02,0.098c-0.002,0.018-0.011,0.033-0.011,0.051v7.414c0,0.021,0.01,0.04,0.013,0.061  c0.002,0.02-0.003,0.038,0.002,0.058c0.004,0.015,0.013,0.026,0.018,0.04c0.008,0.025,0.019,0.048,0.03,0.071  c0.017,0.032,0.037,0.061,0.06,0.088c0.016,0.019,0.03,0.036,0.048,0.052c0.029,0.026,0.062,0.046,0.096,0.064  c0.019,0.01,0.035,0.022,0.056,0.03c0.057,0.022,0.116,0.036,0.179,0.036c0.039,0,0.079-0.004,0.118-0.014l3.632-0.886l0.12,1.082  l-5.397,1.305c-0.022,0.005-0.039,0.02-0.06,0.028c-0.021,0.008-0.045,0.009-0.065,0.021l-5.228,2.891  c-0.02,0.011-0.03,0.028-0.048,0.041c-0.018,0.013-0.038,0.019-0.054,0.034l-4.366,4.134c-0.018,0.017-0.026,0.039-0.041,0.058  c-0.014,0.017-0.031,0.028-0.043,0.047l-3.091,5.118c-0.012,0.019-0.013,0.04-0.021,0.06c-0.009,0.02-0.023,0.036-0.03,0.058  l-1.686,5.756c-0.006,0.019-0.002,0.038-0.005,0.056c-0.004,0.024-0.015,0.044-0.016,0.069l-0.18,5.981  c-0.001,0.024,0.01,0.046,0.012,0.069c0.003,0.023-0.002,0.047,0.004,0.07l0.772,3.002c0.001,0.005,0.006,0.007,0.008,0.012  c0.03,0.105,0.09,0.195,0.172,0.259c0.002,0.001,0.004,0.002,0.006,0.003c0.085,0.063,0.188,0.102,0.299,0.102  c0.036,0,0.074-0.004,0.111-0.013l0.012-0.003c0.001,0,0.001,0,0.002,0h0.001l1.986-0.456c0,0,0.001,0,0.001-0.001  c0.001,0,0.003,0,0.004,0c0.037-0.009,0.066-0.029,0.099-0.046c0.026-0.013,0.056-0.02,0.079-0.036  c0.03-0.022,0.05-0.053,0.074-0.079c0.019-0.021,0.041-0.038,0.056-0.062c0.021-0.033,0.029-0.071,0.042-0.108  c0.008-0.024,0.022-0.045,0.026-0.07c0.007-0.038,0-0.078-0.003-0.117c-0.002-0.026,0.004-0.053-0.002-0.079  c0-0.001-0.001-0.001-0.001-0.002s0-0.002,0-0.003l-0.713-2.974l0.224-5.312l1.558-5.076l2.833-4.503l3.866-3.613l4.701-2.486  l5.189-1.201l2.066,0.086c0.007,0,0.014,0,0.021,0c0.067,0,0.132-0.014,0.191-0.039c0.025-0.01,0.045-0.03,0.067-0.044  c0.031-0.019,0.063-0.035,0.09-0.061c0.02-0.019,0.031-0.044,0.048-0.067c0.021-0.029,0.045-0.056,0.06-0.089  c0.011-0.023,0.012-0.051,0.019-0.077c0.01-0.034,0.023-0.066,0.025-0.104c0-0.004-0.002-0.007-0.002-0.012  c0-0.003,0.002-0.006,0.002-0.009v-2.051l0.036-1.592l3.075,0.075l6.154,1.803l5.481,3.32l4.405,4.664l0.673,1.186l-0.97,0.516  l-0.535-0.992c-0.011-0.02-0.029-0.033-0.043-0.051c-0.013-0.019-0.02-0.04-0.035-0.057l-4.141-4.347  c-0.017-0.017-0.038-0.025-0.056-0.039c-0.018-0.014-0.028-0.032-0.048-0.044l-5.139-3.113c-0.019-0.011-0.038-0.012-0.058-0.021  c-0.021-0.009-0.036-0.024-0.059-0.031l-5.733-1.703c-0.022-0.007-0.045-0.002-0.067-0.006c-0.022-0.004-0.042-0.014-0.065-0.015  c-0.004,0-0.007,0-0.01,0c-0.01,0-0.018,0.005-0.027,0.005c-0.035,0.002-0.066,0.011-0.1,0.02c-0.03,0.008-0.06,0.014-0.087,0.027  c-0.028,0.014-0.053,0.033-0.078,0.052c-0.026,0.02-0.052,0.037-0.073,0.061c-0.021,0.022-0.035,0.048-0.051,0.074  c-0.019,0.029-0.036,0.058-0.049,0.091c-0.004,0.01-0.012,0.018-0.015,0.028c-0.007,0.022-0.002,0.044-0.006,0.066  c-0.004,0.023-0.015,0.043-0.015,0.067l-0.04,2.108c0,0.01,0.005,0.019,0.006,0.029c0.001,0.036,0.01,0.068,0.019,0.102  c0.007,0.03,0.013,0.059,0.025,0.086c0.015,0.03,0.034,0.055,0.054,0.082c0.019,0.025,0.034,0.05,0.058,0.071  c0.022,0.021,0.05,0.037,0.076,0.054c0.029,0.018,0.057,0.036,0.089,0.048c0.01,0.004,0.017,0.012,0.026,0.015l5.123,1.578  l4.521,2.838l1.89,2.062l-0.616,0.563l-3.345-2.975c-0.018-0.015-0.038-0.021-0.057-0.033c-0.019-0.013-0.031-0.03-0.052-0.041  l-4.411-2.209c-0.021-0.01-0.043-0.01-0.063-0.017c-0.021-0.007-0.038-0.021-0.061-0.025l-4.825-0.981  c-0.023-0.005-0.046,0.001-0.068,0c-0.021-0.001-0.04-0.01-0.062-0.009l-4.904,0.305c-0.021,0.001-0.04,0.012-0.062,0.017  c-0.021,0.004-0.042,0-0.063,0.008l-4.688,1.547c-0.021,0.007-0.035,0.021-0.054,0.031c-0.021,0.01-0.045,0.013-0.064,0.026  l-4.141,2.719c-0.02,0.013-0.03,0.032-0.047,0.046c-0.018,0.015-0.038,0.023-0.054,0.041l-1.549,1.76  c-0.006,0.007-0.008,0.016-0.014,0.023s-0.015,0.011-0.021,0.02c-0.015,0.021-0.019,0.045-0.029,0.068  c-0.016,0.03-0.031,0.058-0.039,0.089c-0.009,0.031-0.01,0.062-0.013,0.094c-0.002,0.032-0.006,0.063-0.002,0.095  c0.004,0.032,0.015,0.061,0.024,0.091c0.01,0.031,0.018,0.06,0.033,0.088c0.017,0.03,0.039,0.055,0.062,0.082  c0.016,0.018,0.023,0.039,0.042,0.055c0.007,0.006,0.016,0.008,0.023,0.014c0.007,0.005,0.011,0.014,0.019,0.02l6.008,4.226  c0.01,0.007,0.021,0.004,0.031,0.01c0.079,0.048,0.165,0.081,0.257,0.081c0.095,0,0.184-0.035,0.265-0.087  c0.01-0.006,0.021-0.003,0.031-0.01l2.357-1.734l2.692-1.022l2.823-0.305l2.832,0.435l2.646,1.151l2.227,1.81l1.693,2.298  l0.993,2.675l0.353,2.847l-0.481,2.822l-1.133,2.615l-1.819,2.256l-2.306,1.652l-2.652,1.044l-2.873,0.311l-2.887-0.443  c-0.007-0.001-0.013,0.002-0.02,0.001s-0.012-0.005-0.018-0.005c-0.047-0.006-0.091,0.004-0.136,0.013  c-0.01,0.002-0.021,0-0.03,0.002c-0.054,0.014-0.101,0.038-0.146,0.069c-0.009,0.006-0.02,0.01-0.028,0.017  c-0.031,0.024-0.055,0.055-0.08,0.087c-0.018,0.021-0.036,0.04-0.05,0.064c-0.016,0.027-0.021,0.057-0.032,0.086  c-0.01,0.028-0.025,0.054-0.03,0.084c-0.001,0.007,0.002,0.014,0.001,0.021c-0.001,0.006-0.004,0.011-0.005,0.017l-0.186,2.361  c-0.002,0.027,0.007,0.052,0.009,0.078c0.004,0.036,0.003,0.073,0.014,0.107c0.009,0.03,0.026,0.055,0.041,0.083  c0.016,0.028,0.027,0.06,0.049,0.085c0.019,0.023,0.045,0.04,0.067,0.06c0.026,0.022,0.049,0.046,0.079,0.062  c0.026,0.015,0.057,0.02,0.085,0.029c0.03,0.01,0.058,0.026,0.091,0.03l3.55,0.455c0.021,0.003,0.041,0.004,0.062,0.004h0.001h0.001  h0.001h0.001c0.022,0,0.045-0.002,0.067-0.005l3.586-0.502c0.022-0.003,0.039-0.016,0.061-0.021s0.043-0.004,0.064-0.013  l3.324-1.402c0.032-0.014,0.056-0.038,0.084-0.058c0.01-0.007,0.022-0.003,0.032-0.011l2.821-2.232  c0.021-0.018,0.033-0.041,0.052-0.061c0.011-0.013,0.027-0.019,0.038-0.032l2.184-2.912c0.019-0.025,0.025-0.054,0.038-0.081  c0.007-0.012,0.02-0.017,0.024-0.029l1.361-3.316c0.008-0.02,0.006-0.039,0.012-0.059c0.007-0.025,0.02-0.048,0.022-0.074  l0.41-3.602c0.003-0.022-0.005-0.043-0.006-0.065c0-0.021,0.007-0.04,0.004-0.061l-0.5-3.562c-0.003-0.021-0.015-0.037-0.021-0.057  c-0.006-0.022-0.004-0.046-0.014-0.068l-1.404-3.327c-0.009-0.021-0.025-0.034-0.036-0.053c-0.012-0.02-0.017-0.042-0.031-0.062  l-2.233-2.841c-0.015-0.018-0.034-0.027-0.05-0.042s-0.024-0.035-0.042-0.048l-2.861-2.165c-0.019-0.014-0.04-0.018-0.06-0.028  c-0.02-0.011-0.035-0.029-0.058-0.038l-3.367-1.334c-0.021-0.008-0.043-0.006-0.063-0.012c-0.021-0.005-0.039-0.017-0.062-0.02  l-3.594-0.434c-0.02-0.002-0.037,0.005-0.057,0.005c-0.024,0-0.048-0.008-0.072-0.004l-3.547,0.499  c-0.022,0.003-0.04,0.016-0.062,0.021c-0.021,0.006-0.044,0.005-0.065,0.014l-3.316,1.414c-0.02,0.008-0.033,0.024-0.051,0.035  c-0.018,0.01-0.037,0.013-0.054,0.025l-0.212,0.16l-1.279-0.904l1.122-0.833l3.837-1.514l4.092-0.484l4.103,0.619l3.793,1.65  l3.264,2.583l2.465,3.326l1.499,3.832l0.484,4.119l-0.61,4.101l-1.635,3.786l-2.561,3.265l-3.35,2.469l-3.832,1.502l-4.149,0.479  l-4.093-0.615l-2.227-0.949l0.898-1.798c0-0.001,0-0.001,0-0.002c0.028-0.057,0.047-0.119,0.052-0.186l0.172-2.393l0.811-1.455  l1.764,0.811c0.018,0.009,0.037,0.006,0.056,0.013c0.023,0.008,0.044,0.021,0.069,0.026l2.408,0.41  c0.027,0.005,0.055,0.007,0.081,0.007c0.001,0,0.002,0,0.002,0h0.001c0.001,0,0.001,0,0.001,0s0,0,0.001,0  c0.016,0,0.031-0.001,0.046-0.002l2.374-0.23c0.02-0.002,0.035-0.013,0.054-0.017c0.025-0.005,0.051-0.005,0.076-0.014l2.273-0.865  c0.031-0.012,0.055-0.035,0.082-0.052c0.011-0.007,0.022-0.004,0.032-0.011l1.954-1.408c0.02-0.015,0.03-0.035,0.048-0.052  c0.015-0.014,0.033-0.02,0.046-0.035l1.543-1.869c0.021-0.025,0.029-0.055,0.044-0.082c0.007-0.012,0.02-0.017,0.025-0.029  l0.993-2.18c0.008-0.018,0.007-0.036,0.013-0.054c0.008-0.025,0.022-0.049,0.026-0.076l0.369-2.367  c0.003-0.021-0.004-0.04-0.003-0.061c0.001-0.021,0.009-0.041,0.007-0.062l-0.223-2.404c-0.002-0.024-0.015-0.044-0.02-0.067  c-0.006-0.022-0.003-0.044-0.012-0.066l-0.866-2.253c-0.007-0.019-0.021-0.032-0.031-0.049c-0.009-0.019-0.012-0.039-0.023-0.056  l-1.367-1.984c-0.015-0.021-0.035-0.032-0.053-0.05c-0.016-0.017-0.025-0.039-0.044-0.054l-1.86-1.515  c-0.003-0.003-0.008-0.003-0.011-0.006c-0.004-0.002-0.005-0.007-0.009-0.009c-0.022-0.017-0.05-0.022-0.074-0.034  c-0.031-0.016-0.062-0.036-0.096-0.044c-0.024-0.006-0.049-0.004-0.074-0.007c-0.039-0.004-0.078-0.01-0.117-0.004  c-0.022,0.003-0.044,0.014-0.066,0.02c-0.039,0.011-0.078,0.02-0.113,0.04c-0.025,0.014-0.044,0.036-0.066,0.054  c-0.025,0.021-0.055,0.036-0.076,0.062c-0.003,0.003-0.003,0.008-0.006,0.011s-0.007,0.005-0.01,0.009l-1.37,1.866  c-0.018,0.024-0.023,0.053-0.037,0.08c-0.015,0.031-0.034,0.06-0.043,0.093c-0.008,0.031-0.005,0.063-0.007,0.095  s-0.008,0.063-0.004,0.095c0.005,0.033,0.02,0.062,0.03,0.094c0.011,0.029,0.016,0.059,0.031,0.086  c0.018,0.03,0.045,0.054,0.068,0.081c0.02,0.021,0.032,0.046,0.056,0.065l1.359,1.069l1.016,1.353l0.636,1.569l0.206,1.633  L55.6,52.365l-0.64,1.518l-1.051,1.349l-1.348,1.01l-1.509,0.587l-1.699,0.22l-1.643-0.219l-1.558-0.669l-1.36-1.057  c-0.011-0.009-0.024-0.011-0.036-0.019c-0.028-0.019-0.058-0.032-0.09-0.045c-0.031-0.013-0.062-0.022-0.094-0.028  c-0.028-0.006-0.056-0.006-0.084-0.006c-0.036-0.001-0.07,0.001-0.105,0.009c-0.027,0.006-0.053,0.016-0.08,0.026  c-0.033,0.013-0.063,0.027-0.094,0.049c-0.012,0.008-0.026,0.01-0.037,0.019l-1.82,1.463c-0.009,0.007-0.013,0.018-0.021,0.024  s-0.018,0.01-0.025,0.018l-1.546,1.596c-0.001,0.001-0.001,0.002-0.002,0.002c-0.05,0.054-0.086,0.119-0.109,0.189  c-0.018,0.055-0.029,0.11-0.028,0.166c0,0.002-0.001,0.003-0.001,0.005l0.084,2.914l-2.344,4.567c0,0.001,0,0.002-0.001,0.003l0,0  c-0.004,0.007-0.003,0.015-0.006,0.021c-0.024,0.056-0.043,0.113-0.047,0.171c0,0.006,0.003,0.012,0.003,0.018  c-0.002,0.059,0.003,0.117,0.021,0.172c0.005,0.017,0.019,0.03,0.025,0.047c0.02,0.042,0.037,0.085,0.067,0.12  c0.012,0.015,0.031,0.023,0.045,0.036c0.033,0.031,0.065,0.064,0.108,0.087c0.001,0,0.002,0,0.003,0.001l0,0l4.407,2.227  c0.017,0.009,0.035,0.006,0.053,0.013c0.024,0.009,0.045,0.024,0.071,0.03l4.867,1.006c0.033,0.008,0.065,0.01,0.099,0.011  c0,0,0.001,0,0.002,0s0.001,0,0.002,0l0,0l0,0c0.011,0,0.021,0,0.032-0.001l4.913-0.326c0.015-0.001,0.026-0.009,0.04-0.011  c0.027-0.004,0.056-0.004,0.083-0.014l4.164-1.367l0.83,3.381c0.007,0.027,0.021,0.05,0.032,0.075  c0.007,0.015,0.007,0.031,0.015,0.046c0.003,0.005,0.008,0.006,0.01,0.011c0.041,0.069,0.097,0.124,0.162,0.166  c0.014,0.009,0.027,0.016,0.043,0.022c0.069,0.035,0.144,0.061,0.224,0.061c0.039,0,0.079-0.005,0.119-0.015  c0.027-0.007,0.049-0.024,0.074-0.035c0.016-0.006,0.032-0.004,0.047-0.012l4.323-2.369c0.019-0.011,0.03-0.027,0.048-0.04  c0.019-0.014,0.04-0.021,0.058-0.037l4.317-4.137c0.021-0.021,0.031-0.046,0.048-0.068c0.01-0.013,0.024-0.019,0.033-0.032  l3.142-5.135c0.018-0.029,0.022-0.062,0.034-0.093c0.004-0.011,0.016-0.016,0.019-0.027l1.678-5.729  c0.006-0.021,0.002-0.041,0.006-0.062c0.003-0.022,0.014-0.043,0.015-0.067l0.138-6.01c0-0.022-0.009-0.041-0.012-0.062  c-0.002-0.022,0.004-0.044-0.002-0.066l-0.927-3.832l1.072-0.262l0.962,4.042l-0.139,6.41l-1.784,6.152l-3.34,5.481l-4.632,4.411  l-4.576,2.476c-0.001,0-0.001,0.001-0.002,0.001c-0.058,0.032-0.108,0.074-0.148,0.125c-0.024,0.03-0.037,0.066-0.054,0.101  c-0.012,0.024-0.028,0.044-0.036,0.069c-0.019,0.062-0.025,0.128-0.019,0.194c0,0.001,0,0.001,0,0.002l0.314,2.955  c0,0.001,0.001,0.002,0.001,0.003c0.002,0.021,0.013,0.04,0.018,0.061c0.011,0.043,0.021,0.086,0.042,0.123  c0.001,0.003,0.001,0.007,0.003,0.01c0.005,0.008,0.014,0.011,0.019,0.019c0.038,0.059,0.087,0.105,0.145,0.144  c0.017,0.011,0.032,0.021,0.05,0.03c0.067,0.034,0.141,0.059,0.22,0.059h0.001l0,0l0,0c0.018,0,0.035-0.001,0.053-0.003  c0.07-0.008,0.135-0.03,0.192-0.062c0.001-0.001,0.003,0,0.004-0.001l6.274-3.6c0.02-0.011,0.031-0.029,0.048-0.042  c0.018-0.014,0.038-0.021,0.055-0.036l5.136-5.082c0.021-0.021,0.032-0.049,0.049-0.072c0.009-0.013,0.024-0.019,0.032-0.032  l3.647-6.287c0.017-0.029,0.021-0.061,0.031-0.092c0.004-0.011,0.016-0.016,0.019-0.027l1.903-6.957  c0.006-0.022,0.001-0.043,0.004-0.065c0.004-0.021,0.014-0.041,0.014-0.063l0.047-7.255c0-0.022-0.01-0.041-0.012-0.062  c-0.003-0.022,0.002-0.045-0.004-0.067l-1.817-6.998c-0.005-0.02-0.019-0.034-0.025-0.052s-0.007-0.037-0.016-0.054  c-0.007-0.013-0.019-0.021-0.026-0.032c-0.02-0.031-0.041-0.057-0.066-0.083c-0.021-0.021-0.04-0.04-0.064-0.057  c-0.029-0.021-0.061-0.037-0.094-0.051c-0.025-0.01-0.049-0.02-0.075-0.026c-0.035-0.009-0.069-0.011-0.105-0.012  c-0.031,0-0.062,0.001-0.093,0.006c-0.015,0.003-0.029-0.001-0.045,0.003c-0.02,0.005-0.033,0.018-0.051,0.025  c-0.019,0.007-0.037,0.006-0.055,0.016l-6.144,3.207c-0.012,0.006-0.019,0.017-0.029,0.024c-0.029,0.018-0.053,0.039-0.077,0.062  c-0.023,0.022-0.046,0.043-0.064,0.07c-0.019,0.025-0.031,0.053-0.044,0.081c-0.014,0.03-0.027,0.059-0.035,0.09  c-0.007,0.03-0.008,0.06-0.01,0.091c-0.002,0.034-0.003,0.067,0.003,0.101c0.002,0.013-0.002,0.024,0.001,0.037l1.218,5.234  l-0.179,5.307l-1.553,5.1l-2.84,4.48l-3.91,3.645l-0.401,0.209l-0.601-0.894l1.892-1.215c0.023-0.016,0.038-0.038,0.059-0.057  c0.014-0.013,0.032-0.019,0.045-0.033l3.267-3.689c0.021-0.023,0.029-0.052,0.045-0.078c0.008-0.013,0.022-0.018,0.029-0.031  l2.186-4.412c0.008-0.017,0.008-0.034,0.014-0.051c0.009-0.023,0.022-0.044,0.027-0.069l1.003-4.812  c0.005-0.021-0.001-0.043,0-0.064c0.002-0.021,0.011-0.042,0.01-0.064l-0.274-4.965c-0.001-0.024-0.013-0.045-0.018-0.068  c-0.005-0.022-0.001-0.044-0.009-0.066l-1.592-4.654c-0.007-0.02-0.021-0.033-0.029-0.051c-0.01-0.019-0.012-0.04-0.023-0.059  l-1.319-2.04l0.769-0.727l1.6,2.982c0.003,0.005,0.009,0.007,0.012,0.012c0.005,0.008,0.005,0.017,0.01,0.024  c0.029,0.045,0.074,0.072,0.114,0.104c0.022,0.018,0.037,0.043,0.062,0.057c0.075,0.042,0.158,0.066,0.243,0.066  c0.08,0,0.161-0.019,0.236-0.06c0.008-0.004,0.013-0.012,0.02-0.016c0.006-0.003,0.013-0.002,0.018-0.005l5.729-3.735  c0.024-0.016,0.039-0.04,0.06-0.059c0.024-0.022,0.052-0.042,0.07-0.069c0.02-0.027,0.029-0.057,0.043-0.086  c0.014-0.029,0.029-0.056,0.037-0.087c0.007-0.03,0.006-0.062,0.007-0.093c0.002-0.033,0.007-0.064,0.002-0.097  c-0.005-0.032-0.02-0.062-0.03-0.093c-0.01-0.027-0.012-0.055-0.026-0.08l-2.542-4.503c-0.011-0.02-0.029-0.032-0.042-0.049  c-0.015-0.019-0.021-0.04-0.038-0.057l-5.096-5.141c-0.016-0.016-0.037-0.023-0.055-0.037s-0.029-0.032-0.049-0.043l-6.232-3.632  c-0.02-0.012-0.042-0.013-0.062-0.021c-0.021-0.008-0.036-0.023-0.058-0.029l-6.998-1.917c-0.021-0.005-0.041-0.001-0.062-0.003  c-0.023-0.003-0.044-0.014-0.067-0.014l-6.79-0.044l-0.159-1.338l7.242,0.043l7.465,2.052l1.443,0.854  c0.08,0.047,0.168,0.07,0.255,0.07c0.082,0,0.162-0.022,0.235-0.062c0.025-0.013,0.042-0.039,0.064-0.056  c0.039-0.031,0.083-0.056,0.112-0.099l2.627-3.819l0.773,0.333l-1.509,1.758c-0.006,0.007-0.008,0.016-0.014,0.023  c-0.006,0.008-0.015,0.012-0.021,0.021l-1.323,1.94c-0.004,0.005-0.004,0.011-0.007,0.017c-0.004,0.005-0.01,0.008-0.013,0.014  c-0.015,0.025-0.018,0.054-0.027,0.08c-0.011,0.03-0.025,0.059-0.03,0.09c-0.006,0.034-0.002,0.067-0.001,0.101  c0.002,0.03,0,0.06,0.007,0.089c0.007,0.032,0.022,0.061,0.035,0.091c0.014,0.029,0.023,0.058,0.041,0.084  c0.019,0.026,0.043,0.045,0.066,0.068c0.021,0.02,0.035,0.045,0.06,0.062c0.005,0.003,0.011,0.001,0.015,0.004  c0.007,0.004,0.01,0.011,0.017,0.015l3.856,2.24l5.402,5.472l3.806,6.734l1.968,7.467l-0.049,7.738l-2.05,7.415l-3.891,6.666  l-5.547,5.505c-0.012,0.012-0.016,0.026-0.026,0.039c-0.01,0.012-0.024,0.019-0.033,0.032c-0.011,0.016-0.013,0.033-0.021,0.049  c-0.017,0.03-0.03,0.06-0.039,0.092c-0.01,0.031-0.016,0.061-0.019,0.092c-0.003,0.032-0.004,0.063-0.001,0.096  c0.003,0.031,0.009,0.062,0.018,0.092c0.009,0.031,0.02,0.059,0.034,0.088c0.016,0.03,0.034,0.057,0.056,0.084  c0.012,0.014,0.017,0.031,0.029,0.044c0.012,0.012,0.026,0.016,0.038,0.025c0.013,0.011,0.02,0.024,0.033,0.034l1.724,1.184  c0.01,0.007,0.022,0.004,0.033,0.01c0.077,0.047,0.161,0.078,0.25,0.078c0.07,0,0.14-0.02,0.205-0.05  c0.02-0.009,0.035-0.021,0.053-0.031c0.023-0.014,0.049-0.022,0.07-0.041l4.184-3.635c0.021-0.019,0.032-0.043,0.049-0.063  c0.011-0.013,0.026-0.018,0.035-0.031l4.778-6.965c0.02-0.028,0.025-0.06,0.038-0.09c0.005-0.012,0.018-0.017,0.021-0.028  l2.775-7.963c0.007-0.019,0.004-0.037,0.008-0.056c0.006-0.024,0.018-0.046,0.02-0.071l0.637-8.415  c0.002-0.024-0.007-0.046-0.009-0.069c-0.001-0.021,0.005-0.04,0.001-0.06l-1.551-8.294c-0.004-0.021-0.017-0.037-0.022-0.056  c-0.008-0.022-0.007-0.046-0.018-0.068l-3.633-7.592c-0.011-0.021-0.028-0.036-0.041-0.055c-0.012-0.018-0.017-0.039-0.031-0.055  l-5.507-6.415c-0.015-0.018-0.035-0.026-0.052-0.041c-0.017-0.015-0.027-0.034-0.046-0.047l-3.317-2.262l1.009-1.485l5.122,4.013  l5.474,7.218l3.36,8.378l1.078,8.986l-1.265,8.92l-3.535,8.299l-5.558,7.125l-7.223,5.421l-8.377,3.408l-8.967,1.076l-8.964-1.256  l-8.285-3.537l-7.136-5.562l-5.422-7.261l-3.36-8.338l-1.123-8.985l0.817-5.619c0.002-0.013-0.003-0.024-0.002-0.037  c0.001-0.012,0.007-0.022,0.007-0.035c0-0.022-0.01-0.04-0.013-0.061c-0.004-0.034-0.009-0.067-0.02-0.099  c-0.011-0.031-0.025-0.057-0.041-0.085s-0.031-0.054-0.053-0.078c-0.021-0.024-0.045-0.044-0.07-0.064  c-0.024-0.02-0.049-0.038-0.078-0.053s-0.062-0.024-0.094-0.034c-0.021-0.005-0.038-0.018-0.06-0.021  c-0.013-0.002-0.024,0.003-0.037,0.002c-0.012-0.001-0.022-0.007-0.035-0.007H9.846L7.73,43.976c-0.012,0-0.021,0.004-0.033,0.005  c-0.055,0-0.109,0.005-0.161,0.025c-0.183,0.059-0.303,0.21-0.328,0.403c-0.002,0.01-0.008,0.019-0.009,0.029l-0.64,8.75  c-0.002,0.024,0.007,0.046,0.009,0.07c0.002,0.021-0.004,0.041,0,0.062l2.134,10.873c0.005,0.025,0.019,0.047,0.027,0.07  c0.006,0.018,0.005,0.036,0.014,0.053l4.872,9.963c0.007,0.014,0.021,0.019,0.028,0.031c0.015,0.025,0.023,0.054,0.044,0.077  l7.278,8.367c0.013,0.015,0.03,0.021,0.045,0.033c0.019,0.017,0.03,0.038,0.052,0.053l9.141,6.178  c0.012,0.008,0.025,0.005,0.037,0.012c0.027,0.016,0.05,0.036,0.081,0.047l10.502,3.602c0.026,0.01,0.054,0.009,0.081,0.014  c0.016,0.003,0.029,0.012,0.046,0.013l11.054,0.77c0.012,0.001,0.022,0.001,0.034,0.001l0,0l0,0c0.001,0,0.001,0,0.002,0  s0.001,0,0.002,0c0.031-0.001,0.062-0.003,0.094-0.01l10.867-2.141c0.025-0.005,0.046-0.021,0.069-0.029  c0.018-0.006,0.036-0.003,0.053-0.012l9.91-4.816c0.018-0.008,0.028-0.023,0.044-0.033c0.021-0.014,0.046-0.021,0.065-0.039  l8.366-7.279c0.021-0.019,0.032-0.043,0.049-0.064c0.012-0.013,0.028-0.019,0.038-0.033l6.19-9.184  c0.02-0.028,0.025-0.061,0.038-0.091c0.004-0.011,0.016-0.016,0.02-0.026l3.591-10.465c0.007-0.019,0.003-0.037,0.008-0.057  c0.005-0.023,0.017-0.045,0.019-0.07l0.773-11.07c0.002-0.022-0.007-0.042-0.009-0.064c-0.001-0.022,0.005-0.043,0.001-0.065  l-2.092-10.867c-0.004-0.022-0.019-0.04-0.025-0.061s-0.007-0.043-0.017-0.064l-4.87-9.946c-0.01-0.021-0.027-0.033-0.04-0.052  c-0.012-0.019-0.018-0.04-0.032-0.057l-7.274-8.359c-0.015-0.017-0.035-0.025-0.052-0.04s-0.027-0.034-0.046-0.047l-9.186-6.186  c-0.019-0.013-0.04-0.015-0.06-0.025s-0.035-0.026-0.057-0.033L58.022,8.595C58,8.587,57.979,8.59,57.956,8.586  c-0.021-0.004-0.039-0.016-0.062-0.017L46.84,7.794c-0.022-0.002-0.044,0.007-0.066,0.008s-0.043-0.005-0.065,0l-7.912,1.554  c-0.035,0.007-0.063,0.026-0.095,0.04c-0.028,0.012-0.06,0.018-0.084,0.035c-0.03,0.02-0.052,0.049-0.077,0.075  c-0.02,0.021-0.044,0.037-0.06,0.06c-0.019,0.027-0.026,0.059-0.039,0.089c-0.013,0.029-0.03,0.055-0.037,0.086  c-0.006,0.026,0,0.054-0.002,0.082C38.4,9.86,38.394,9.897,38.4,9.936l0.363,2.016c0.044,0.242,0.254,0.411,0.491,0.411  c0.03,0,0.06-0.002,0.09-0.008c0.001,0,0.001,0,0.002,0l8.256-1.461l9.528,0.804l-1.011,1.315l-9.562-0.532  c-0.02-0.001-0.039,0.008-0.059,0.009c-0.023,0.001-0.047-0.005-0.071,0l-9.64,2.026c-0.022,0.005-0.04,0.019-0.061,0.026  c-0.021,0.007-0.043,0.007-0.063,0.018l-5.238,2.665l-0.717-1.396l5.304-2.484c0.002,0,0.002-0.002,0.004-0.003  c0.001,0,0.003,0,0.005-0.001c0.034-0.017,0.06-0.044,0.088-0.067c0.021-0.018,0.047-0.03,0.065-0.05  c0.023-0.027,0.036-0.059,0.054-0.09c0.015-0.025,0.033-0.048,0.043-0.076c0.009-0.026,0.008-0.054,0.013-0.081  c0.007-0.037,0.018-0.072,0.016-0.109c-0.002-0.022-0.013-0.044-0.017-0.066c-0.008-0.041-0.011-0.082-0.029-0.121  c-0.001-0.002-0.003-0.003-0.004-0.005c-0.001-0.001,0-0.002-0.001-0.003l-1.591-3.237l2.244-0.99l11.33-1.804l11.413,1.195  l10.75,4.116l9.308,6.742l7.238,8.929l4.676,10.493l1.801,11.363L92.201,60.892z"></path></svg>