<svg fill="#00FFDC" xmlns="http://www.w3.org/2000/svg" xmlns:xlink="http://www.w3.org/1999/xlink" version="1.1" x="0px" y="0px" viewBox="0 0 100 100" enable-background="new 0 0 100 100" xml:space="preserve"><g><rect x="17.239" y="69.439" fill="none" stroke="#00FFDC" stroke-width="0.5" stroke-linejoin="bevel" stroke-miterlimit="10" width="66.452" height="0"></rect><circle fill="none" stroke="#00FFDC" stroke-width="0.5" stroke-linejoin="bevel" stroke-miterlimit="10" cx="50.466" cy="31.073" r="9.591"></circle><circle fill="none" stroke="#00FFDC" stroke-width="0.5" stroke-linejoin="bevel" stroke-miterlimit="10" cx="50.465" cy="50.257" r="9.592"></circle><circle fill="none" stroke="#00FFDC" stroke-width="0.5" stroke-linejoin="bevel" stroke-miterlimit="10" cx="67.08" cy="40.665" r="9.591"></circle><circle fill="none" stroke="#00FFDC" stroke-width="0.5" stroke-linejoin="bevel" stroke-miterlimit="10" cx="67.078" cy="59.847" r="9.591"></circle><circle fill="none" stroke="#00FFDC" stroke-width="0.5" stroke-linejoin="bevel" stroke-miterlimit="10" cx="50.465" cy="69.438" r="9.592"></circle><circle fill="none" stroke="#00FFDC" stroke-width="0.5" stroke-linejoin="bevel" stroke-miterlimit="10" cx="33.853" cy="59.847" r="9.592"></circle><circle fill="none" stroke="#00FFDC" stroke-width="0.5" stroke-linejoin="bevel" stroke-miterlimit="10" cx="33.853" cy="40.665" r="9.592"></circle><circle fill="none" stroke="#00FFDC" stroke-width="0.5" stroke-linejoin="bevel" stroke-miterlimit="10" cx="50.465" cy="11.89" r="9.592"></circle><circle fill="none" stroke="#00FFDC" stroke-width="0.5" stroke-linejoin="bevel" stroke-miterlimit="10" cx="17.24" cy="31.073" r="9.592"></circle><circle fill="none" stroke="#00FFDC" stroke-width="0.5" stroke-linejoin="bevel" stroke-miterlimit="10" cx="83.691" cy="31.073" r="9.592"></circle><circle fill="none" stroke="#00FFDC" stroke-width="0.5" stroke-linejoin="bevel" stroke-miterlimit="10" cx="83.691" cy="69.438" r="9.592"></circle><circle fill="none" stroke="#00FFDC" stroke-width="0.5" stroke-linejoin="bevel" stroke-miterlimit="10" cx="50.466" cy="88.623" r="9.592"></circle><circle fill="none" stroke="#00FFDC" stroke-width="0.5" stroke-linejoin="bevel" stroke-miterlimit="10" cx="17.24" cy="69.439" r="9.592"></circle><polyline fill="none" stroke="#00FFDC" stroke-width="0.5" stroke-linejoin="bevel" stroke-miterlimit="10" points="83.691,31.073    33.853,40.665 50.086,87.966 50.465,88.623 83.691,31.073 50.466,69.438 17.239,31.073 50.466,50.256 50.466,11.89 17.239,31.073    17.239,69.439 50.465,50.256 50.465,88.623 83.691,69.439 50.466,50.257 83.691,31.073 50.466,11.89 83.691,69.439 83.691,31.073    17.239,31.073 50.465,88.623 17.239,69.439 50.466,31.073 67.08,40.665 67.078,59.847 50.466,69.439 33.853,59.847 33.853,40.665    50.466,31.073 83.691,69.439 33.853,59.847 50.466,11.89 17.239,69.439 17.239,69.439 67.078,59.847 50.466,11.89 17.239,31.073    67.08,40.665 50.844,87.966  "></polyline></g></svg>