<svg fill="#D1B794" xmlns="http://www.w3.org/2000/svg" xmlns:xlink="http://www.w3.org/1999/xlink" version="1.1" x="0px" y="0px" viewBox="0 0 100 100" enable-background="new 0 0 100 100" xml:space="preserve"><path d="M49.636,10.663C17.673,7.47,8.363,20.303,5.844,25.97c-0.98,2.204-0.767,8.268-0.358,16.595  c0.14,2.851,0.272,5.543,0.272,7.435c0,1.893-0.132,4.585-0.272,7.436c-0.408,8.326-0.622,14.391,0.358,16.594  c2.247,5.055,9.893,15.812,34.195,15.812c2.947,0,6.141-0.158,9.598-0.504C83.803,85.92,94.857,61.359,94.857,50  C94.857,38.641,83.803,14.081,49.636,10.663z M92.445,53.983l-32.804-3.849c0.036-0.213,0.045-0.42,0.029-0.62l32.581-4.44  c0.408,1.813,0.606,3.484,0.606,4.926C92.857,51.188,92.719,52.534,92.445,53.983z M41.54,53.307  c-6.478-0.123-12.378-1.465-17.434-3.543c2.294-1.037,8.145-3.267,16.765-3.703c13.343-0.677,16.542,2.326,17.049,2.935  c0.138,0.166,0.429,0.614,0.147,1.199C57.684,50.991,55.365,53.571,41.54,53.307z M50.226,54.524l11.966,30.264  c-3.428,1.073-7.197,1.888-11.327,2.385l-4.7-32.391C47.638,54.736,48.992,54.65,50.226,54.524z M51,54.442  c1.062-0.128,2.018-0.292,2.887-0.484l19.412,25.886c-3.041,1.834-6.487,3.445-10.388,4.723L51,54.442z M34.109,45.294  l-5.918-31.956c3.44-0.65,6.892-0.95,10.058-1.054l1.216,32.369C37.525,44.794,35.739,45.017,34.109,45.294z M33.37,45.42  c-2.304,0.423-4.276,0.941-5.885,1.451L19.31,15.989c2.578-1.125,5.347-1.932,8.145-2.502L33.37,45.42z M26.772,47.108  c-2.692,0.908-4.232,1.735-4.468,1.867c-0.553-0.257-1.092-0.524-1.621-0.798l-8.51-27.642c1.875-1.739,4.068-3.128,6.445-4.233  L26.772,47.108z M26.767,52.323l-8.532,31.191c-2.228-1.075-4.287-2.403-6.06-4.046l9.131-29.332  C23.023,50.955,24.846,51.69,26.767,52.323z M27.481,52.555c1.879,0.587,3.845,1.076,5.89,1.446l-5.92,32.512  c-2.937-0.599-5.845-1.453-8.53-2.667L27.481,52.555z M34.112,54.124c1.852,0.307,3.761,0.523,5.729,0.623l-1.39,32.975  c-3.221-0.097-6.749-0.396-10.264-1.06L34.112,54.124z M54.664,45.613l18.871-25.316c3.29,2.01,6.099,4.279,8.464,6.68  L56.746,46.392C56.176,46.122,55.494,45.857,54.664,45.613z M53.883,45.405c-0.836-0.21-1.79-0.398-2.891-0.549l11.581-29.526  c3.862,1.238,7.287,2.798,10.314,4.582L53.883,45.405z M50.223,44.761c-1.192-0.137-2.541-0.231-4.056-0.271l4.675-31.667  c4.005,0.48,7.669,1.261,11.013,2.284L50.223,44.761z M59.096,48.068l29.627-12.105c1.607,2.918,2.7,5.781,3.355,8.379L59.502,48.78  C59.397,48.508,59.256,48.266,59.096,48.068z M59.408,50.862l32.891,3.858c-0.591,2.718-1.683,5.775-3.357,8.905L59.14,51.313  C59.244,51.167,59.333,51.017,59.408,50.862z M88.348,35.305L58.525,47.49c-0.265-0.225-0.613-0.469-1.044-0.718l25.038-19.25  C84.916,30.043,86.841,32.687,88.348,35.305z M49.437,12.653c0.225,0.022,0.437,0.056,0.66,0.08l-4.685,31.735  c-1.398-0.018-2.93,0.009-4.617,0.094c-0.2,0.01-0.386,0.028-0.583,0.04l-1.215-32.341C43.399,12.158,47.171,12.427,49.437,12.653z   M11.569,21.126l8.174,26.55c-2.861-1.571-5.349-3.377-7.396-5.299L7.955,26.214C8.899,24.267,10.125,22.581,11.569,21.126z   M7.399,72.188c-0.417-2.48-0.243-7.682-0.029-12.294l2.882-17.501c1.22,1.258,2.618,2.476,4.172,3.629L7.399,72.188z M7.491,27.368  l3.793,13.957C9.492,39.464,8.11,37.522,7.195,35.6C7.097,32.134,7.121,28.94,7.491,27.368z M7.483,42.467  c-0.057-1.157-0.117-2.4-0.172-3.663c0.659,0.976,1.427,1.945,2.294,2.898L7.673,53.44c0.052-1.29,0.085-2.464,0.085-3.44  C7.758,48.059,7.625,45.343,7.483,42.467z M7.82,73.515l7.254-27.021c1.683,1.195,3.537,2.311,5.549,3.312l-9.05,29.072  C10.059,77.354,8.781,75.58,7.82,73.515z M49.437,87.347c-2.231,0.223-5.922,0.488-10.236,0.398l1.389-32.971  c0.307,0.011,0.612,0.027,0.921,0.033c0.687,0.013,1.355,0.02,2.004,0.02c0.653,0,1.281-0.008,1.895-0.022l4.71,32.459  C49.89,87.289,49.67,87.323,49.437,87.347z M73.946,79.459l-19.265-25.69c0.791-0.208,1.486-0.447,2.091-0.715l25.526,19.662  C79.967,75.13,77.201,77.424,73.946,79.459z M82.812,72.165L57.518,52.682c0.424-0.239,0.786-0.499,1.087-0.778L88.586,64.29  C87.106,66.932,85.193,69.608,82.812,72.165z"></path></svg>