<svg fill="#0F131C" xmlns="http://www.w3.org/2000/svg" xmlns:xlink="http://www.w3.org/1999/xlink" version="1.1" x="0px" y="0px" viewBox="0 0 100 100" enable-background="new 0 0 100 100" xml:space="preserve"><g><path d="M40.778,82.513c1.446,0.122,2.702-0.96,2.826-2.371c0.126-1.434-0.938-2.702-2.371-2.828   c-0.078-0.007-0.155-0.01-0.231-0.01c-1.339,0-2.479,1.046-2.597,2.381C38.279,81.118,39.345,82.387,40.778,82.513z"></path><path d="M67.991,22.027c-0.146-0.024-0.292-0.035-0.435-0.035c-1.313,0-2.42,0.938-2.63,2.229   c-0.232,1.444,0.762,2.812,2.218,3.047c1.476,0.237,2.832-0.761,3.063-2.194c0.112-0.697-0.053-1.396-0.467-1.97   C69.322,22.524,68.7,22.142,67.991,22.027z"></path><path d="M89.744,45.698C87.534,24.704,69.972,8.872,48.893,8.872c-1.442,0-2.907,0.077-4.351,0.229   C21.99,11.474,5.572,31.751,7.945,54.302c2.208,20.994,19.771,36.826,40.851,36.826c1.443,0,2.907-0.077,4.352-0.229   C75.699,88.526,92.117,68.249,89.744,45.698z M78.863,65.187c-0.25-0.22-0.532-0.399-0.842-0.539l4.891-7.562   c0,0.15-0.006,0.295-0.02,0.42c-0.055,0.637-0.143,1.248-0.254,1.846L78.863,65.187z M81.473,63.23   c-0.466,1.13-1.044,2.221-1.68,3.308c-0.055-0.146-0.111-0.289-0.185-0.425L81.473,63.23z M74.41,70.229   c0.25,0.222,0.532,0.401,0.841,0.542l-3.522,5.444c-0.756,0.613-1.541,1.203-2.328,1.76L74.41,70.229z M67.061,79.514   c-0.643,0.393-1.271,0.746-1.875,1.059l8.101-12.522c0.045,0.446,0.177,0.87,0.382,1.251L67.061,79.514z M63.279,81.443   c-0.396,0.152-0.775,0.287-1.119,0.377c-0.131,0.033-0.246,0.053-0.361,0.072l3.424-5.295l0.896-1.385L76.297,59.48   c0.25,0.273,0.453,0.572,0.615,0.891L63.279,81.443z M34.686,62.974l-2.291,3.542c-0.416,0.086-0.846,0.133-1.285,0.143   l3.502-5.412c0.002-0.482,0.017-0.967,0.057-1.455c0.022-0.276,0.294-0.471,0.539-0.457c0.202,0.017,0.364,0.152,0.428,0.331   l1.639-2.532c0.176,0.383,0.314,0.785,0.414,1.199l-2.069,3.199c0.009,0.642,0.044,1.278,0.113,1.902l2.136-3.303   c-0.004,0.113-0.004,0.225-0.014,0.342c-0.144,1.628-0.874,3.06-1.96,4.141c0.749,4.563,2.718,8.201,2.744,8.25   c0.133,0.241,0.044,0.546-0.198,0.679c-0.076,0.042-0.158,0.062-0.24,0.062c-0.176,0-0.347-0.094-0.438-0.259   c-0.107-0.195-1.932-3.578-2.754-7.98c-0.277,0.196-0.564,0.379-0.87,0.534l0.754-1.166C34.799,64.161,34.734,63.571,34.686,62.974   z M23.703,50.69c0.199,0.288,0.425,0.556,0.671,0.804l-5.667,8.76c-0.266-0.227-0.494-0.486-0.693-0.77L23.703,50.69z    M18.819,54.322l3.917-6.055c0.071,0.447,0.191,0.878,0.357,1.289l-3.904,6.035C19.205,55.123,19.067,54.686,18.819,54.322z    M22.788,46.113l-4.835,7.475c-0.218-0.101-0.452-0.173-0.705-0.195c-0.124-0.011-0.245-0.005-0.365,0.005l16.309-25.208   c0.615-0.466,1.275-0.871,1.975-1.212L25.08,42.57C23.935,43.409,23.096,44.651,22.788,46.113z M17.995,57.438l-0.563,0.871   c-0.063-0.215-0.107-0.437-0.137-0.662C17.544,57.62,17.777,57.544,17.995,57.438z M35.225,17.213   c0.527-0.206,1.049-0.397,1.561-0.571L13.619,52.451c-0.229-0.275-0.439-0.562-0.633-0.861L35.225,17.213z M12.369,50.469   c-0.174-0.379-0.318-0.771-0.434-1.174l19.688-30.432c0.586-0.311,1.172-0.604,1.754-0.87L12.369,50.469z M38.471,16.113   c0.494-0.142,0.973-0.271,1.441-0.387L15.201,53.924c-0.273-0.197-0.531-0.412-0.779-0.639L38.471,16.113z M42.288,25.914   c0.353,0.055,0.695,0.123,1.036,0.206l-7.385,11.414c-0.287-0.173-0.589-0.322-0.918-0.423l5.246-8.11   c1.094-0.386,1.92-1.374,2.027-2.604C42.31,26.233,42.3,26.073,42.288,25.914z M37.922,40.46l8.484-13.115   c0.293,0.166,0.574,0.343,0.848,0.532L37.651,42.72c0.16-0.386,0.283-0.792,0.321-1.231C38.003,41.136,37.976,40.794,37.922,40.46z    M37.465,39.093c-0.174-0.312-0.396-0.59-0.642-0.849l7.628-11.791c0.322,0.113,0.637,0.24,0.945,0.379L37.465,39.093z    M36.829,43.992l-2.371,3.665c0.031-0.562-0.014-1.111-0.134-1.635l0.557-0.859C35.634,44.958,36.302,44.549,36.829,43.992z    M33.787,36.944c-0.456,0-0.9,0.055-1.315,0.193l5.371-8.302c0.302,0.158,0.639,0.257,0.993,0.306L33.787,36.944z M37.826,22.866   c-1.066,0.736-1.969,1.537-2.723,2.371l6.387-9.874c0.475-0.1,0.926-0.184,1.359-0.259L37.826,22.866z M36.39,27.164   c0.129,0.356,0.319,0.685,0.565,0.967l-8.606,13.303c-0.454,0.016-0.896,0.086-1.321,0.201L36.39,27.164z M27.225,53.081   c0.269,0.062,0.542,0.113,0.824,0.138c0.091,0.008,0.181,0.006,0.271,0.01l-4.882,7.547c-0.459,0.244-0.961,0.41-1.496,0.471   L27.225,53.081z M29.73,53.123c0.544-0.109,1.062-0.295,1.544-0.545L24.648,62.82c-0.184-0.367-0.336-0.746-0.451-1.145   L29.73,53.123z M48.156,28.561c0.26,0.217,0.508,0.445,0.748,0.684L25.99,64.66c-0.248-0.242-0.471-0.508-0.68-0.785L48.156,28.561   z M49.689,30.105c0.227,0.275,0.439,0.558,0.641,0.852L38.814,48.755l-0.059,0.092L27.73,65.891   c-0.299-0.152-0.594-0.312-0.865-0.504L49.689,30.105z M50.982,32.026c0.182,0.346,0.354,0.699,0.502,1.062L41.275,48.871   c-0.395,0.024-0.793,0.021-1.195,0.007L50.982,32.026z M39.174,50.279c0.066,0.437,0.092,0.885,0.051,1.344   c-0.016,0.184-0.047,0.363-0.08,0.541l-2.34,3.617l-0.162,0.248l-6.807,10.523c-0.357-0.055-0.705-0.129-1.039-0.234L39.174,50.279   z M41.364,75.819c2.257,0.198,3.933,2.195,3.734,4.453c-0.185,2.104-1.98,3.75-4.089,3.75c-0.12,0-0.24-0.005-0.362-0.016   c-2.258-0.198-3.935-2.195-3.736-4.453C37.106,77.33,39.095,75.62,41.364,75.819z M44.156,48.333   c-0.461,0.145-0.936,0.264-1.418,0.354l9.197-14.222c0.125,0.461,0.217,0.932,0.279,1.41L44.156,48.333z M52.676,37.241   c0.416-0.145,0.861-0.218,1.324-0.207l-5.971,9.23c-0.633,0.508-1.318,0.952-2.047,1.323L52.676,37.241z M80.412,43.208   c-0.502,0.356-1.07,0.618-1.688,0.767l3.58-5.531c0.09,0.435,0.143,0.883,0.102,1.348c-0.016,0.165-0.061,0.319-0.094,0.479   L80.412,43.208z M81.064,53.951l-2.031,3.141c0.434-1.51,0.611-2.666,1.59-3.031C80.781,54.002,80.924,53.971,81.064,53.951z    M77.293,44.113c-0.059-0.003-0.115,0.007-0.174,0.001c-0.312-0.027-0.607-0.099-0.896-0.186l4.975-7.691   c0.24,0.267,0.455,0.557,0.629,0.87L77.293,44.113z M73.066,46.732c-0.447,0.194-0.932,0.32-1.434,0.375l7.824-12.094   c0.311,0.132,0.605,0.292,0.879,0.481L73.066,46.732z M65.498,68.341c0.013,0.001,0.024,0.006,0.037,0.007   c0.514,0.044,0.995-0.104,1.39-0.374l-3.712,5.739c-0.236-0.283-0.426-0.602-0.584-0.938L65.498,68.341z M62.236,71.305   c-0.02-0.244-0.025-0.492-0.002-0.746c0.132-1.281,0.823-2.356,1.804-3.035c0.113,0.146,0.243,0.277,0.392,0.391L62.236,71.305z    M67.187,38.311c0.249,0.223,0.516,0.423,0.812,0.586l-3.318,5.129c-0.402,0.06-0.814,0.076-1.234,0.068L67.187,38.311z    M62.182,43.973c-0.352-0.066-0.689-0.158-1.016-0.271l4.742-7.333c0.12,0.375,0.305,0.719,0.516,1.045L62.182,43.973z    M69.076,39.307c0.22,0.054,0.439,0.107,0.672,0.127c0.149,0.013,0.293-0.004,0.439-0.006l-3.371,5.213   c-0.189-0.338-0.348-0.693-0.451-1.07c-0.02,0.008-0.041,0.013-0.061,0.021L69.076,39.307z M68.999,31.275   c-0.052-0.271,0.126-0.533,0.397-0.585c0.264-0.052,0.533,0.126,0.585,0.397c0.03,0.161,0.744,3.959,0.082,5.839   c-0.072,0.206-0.266,0.334-0.472,0.334c-0.055,0-0.111-0.009-0.166-0.028c-0.261-0.092-0.397-0.377-0.306-0.638   C69.596,35.245,69.194,32.297,68.999,31.275z M68.072,58.367l-2.92,4.514C65.418,60.953,66.529,59.336,68.072,58.367z    M67.566,65.143l4.951-7.654c0.332,0.057,0.674,0.139,1.021,0.26l-5.722,8.846c0.012-0.063,0.03-0.123,0.036-0.188   C67.894,65.947,67.783,65.512,67.566,65.143z M66.741,64.34c-0.25-0.136-0.531-0.226-0.833-0.252   c-0.066-0.006-0.13,0.002-0.195,0.003l4.213-6.513c0.424-0.105,0.859-0.168,1.309-0.184L66.741,64.34z M74.588,58.207   c0.297,0.154,0.578,0.33,0.85,0.525L64.953,74.938c-0.318-0.121-0.613-0.279-0.887-0.469L74.588,58.207z M70.314,47.067   c-0.354-0.056-0.695-0.142-1.018-0.268l7.883-12.183c0.252-0.017,0.512-0.022,0.773,0.001c0.127,0.011,0.246,0.049,0.371,0.07   L70.314,47.067z M68.299,46.268c-0.279-0.193-0.537-0.411-0.77-0.654l4.186-6.47c1.463-0.561,2.563-1.87,2.798-3.505   c0.333-0.255,0.688-0.482,1.079-0.647L68.299,46.268z M71.194,25.235c-0.286,1.778-1.808,3.069-3.616,3.069   c-0.196,0-0.395-0.016-0.594-0.048c-1.999-0.324-3.365-2.206-3.044-4.194c0.319-1.972,2.175-3.352,4.21-3.022   c0.974,0.157,1.826,0.683,2.401,1.479C71.122,23.311,71.351,24.274,71.194,25.235z M64.926,33.972   c0.083,0.014,0.162,0.04,0.248,0.047c0.225,0.02,0.443,0.01,0.658-0.019c-0.045,0.191-0.092,0.381-0.111,0.582l-5.607,8.669   c-0.297-0.156-0.586-0.325-0.855-0.517L64.926,33.972z M58.389,42c-0.248-0.241-0.48-0.498-0.691-0.771l-0.211,0.327   c-0.201,0.776-0.641,1.45-1.248,1.93l1.248-1.93c0.039-0.151,0.084-0.3,0.104-0.458c0.033,0.045,0.072,0.086,0.107,0.131   l5.395-8.34c0.211,0.266,0.468,0.488,0.757,0.67L58.389,42z M62.525,31.69L54.4,44.25c-0.268,0.034-0.537,0.046-0.814,0.022   c-0.121-0.011-0.23-0.047-0.348-0.068l9.305-14.383c0.055-0.007,0.112-0.002,0.167-0.007c-0.133,0.296-0.23,0.614-0.261,0.956   C62.421,31.088,62.458,31.395,62.525,31.69z M63.386,19.35c-0.098,0.142-0.254,0.218-0.414,0.218c-0.097,0-0.195-0.028-0.281-0.087   c-0.024-0.016-2.439-1.65-4.626-1.786c-0.275-0.017-0.485-0.254-0.468-0.53c0.018-0.274,0.238-0.482,0.53-0.468   c2.465,0.154,5.021,1.885,5.128,1.959C63.482,18.811,63.541,19.122,63.386,19.35z M61.013,23.366   c0.276,0.005,0.496,0.233,0.491,0.509c-0.005,0.276-0.201,0.51-0.509,0.491c-0.047-0.001-4.518-0.076-6.124,0.512   c-0.057,0.021-0.115,0.03-0.172,0.03c-0.204,0-0.396-0.125-0.47-0.328c-0.095-0.259,0.038-0.546,0.298-0.642   C56.309,23.288,60.823,23.363,61.013,23.366z M55.195,37.264l1.146-1.773l2.781-4.298c0.553-0.406,1.166-0.735,1.822-0.977   l-4.711,7.28c0.012,0.123,0.018,0.247,0.033,0.368c-0.059-0.047-0.125-0.085-0.188-0.13l-3.943,6.099   c-0.299-0.162-0.564-0.367-0.805-0.597L55.195,37.264z M47.354,75.682c0.115-0.029,11.613-3.073,17.196-16.395   c0.106-0.255,0.397-0.375,0.654-0.268c0.255,0.106,0.375,0.399,0.268,0.654c-5.783,13.8-17.754,16.947-17.874,16.978   c-0.041,0.01-0.082,0.015-0.122,0.015c-0.224,0-0.428-0.151-0.484-0.378C46.925,76.021,47.087,75.749,47.354,75.682z M60.326,80.25   c0.111-0.244,0.271-0.494,0.477-0.734c0.361-0.43,0.855-0.828,1.465-1.121c0.236-0.113,0.453-0.227,0.668-0.338l-2.4,3.711   C60.078,81.48,60.033,80.889,60.326,80.25z M82.162,54.328c0.244,0.258,0.418,0.615,0.537,1.014l-5.828,9.009   c-0.452-0.031-0.891,0.025-1.297,0.161L82.162,54.328z M77.166,32.749c-0.047,0.014-0.095,0.02-0.141,0.02   c-0.217,0-0.416-0.142-0.479-0.36c-0.374-1.279-2.435-3.742-3.197-4.583c-0.186-0.205-0.17-0.521,0.034-0.706   s0.521-0.17,0.706,0.034c0.118,0.13,2.901,3.212,3.416,4.974C77.583,32.394,77.431,32.671,77.166,32.749z M49.438,16.667   l-1.113,1.722c-0.447,0.324-1.035,0.64-1.791,0.93l2.393-3.701C49.246,15.921,49.43,16.281,49.438,16.667z M44.848,19.846   c-0.053,0.013-0.104,0.028-0.158,0.042c-0.445,0.111-0.875,0.231-1.291,0.358l3.543-5.476c0.373,0.057,0.715,0.146,1.02,0.264   L44.848,19.846z M45.635,14.714l-3.973,6.139c-0.588,0.231-1.145,0.479-1.67,0.742l4.354-6.729c0.279-0.04,0.547-0.077,0.793-0.107   C45.307,14.737,45.473,14.725,45.635,14.714z M11.639,46.233c0.016-0.177,0.055-0.345,0.08-0.518l3.807-5.885   c0.223-0.145,0.445-0.29,0.68-0.415c0.09-0.37,0.191-0.722,0.287-1.081l10.797-16.689c0.719-0.551,1.445-1.058,2.178-1.524   L11.639,47.68C11.598,47.207,11.596,46.724,11.639,46.233z M17.936,34.03c1.617-3.941,3.771-7.066,6.18-9.555L17.936,34.03z    M19.656,60.863l5.592-8.644c0.274,0.188,0.568,0.349,0.875,0.487l-5.48,8.471C20.297,61.109,19.965,61.008,19.656,60.863z    M21.73,67.256c0.25-0.115,0.547-0.009,0.664,0.242c3.24,6.952,11.369,10.06,11.45,10.09c0.259,0.097,0.39,0.385,0.294,0.644   c-0.075,0.201-0.267,0.325-0.469,0.325c-0.059,0-0.117-0.01-0.175-0.031c-0.35-0.131-8.591-3.275-12.007-10.605   C21.371,67.67,21.479,67.372,21.73,67.256z M35.854,84.103c0.221-0.165,0.532-0.124,0.7,0.094c0.168,0.219,0.127,0.532-0.092,0.7   c-0.059,0.045-1.05,0.774-2.705,1.232c-0.533-0.222-1.06-0.455-1.58-0.699C34.44,85.156,35.838,84.115,35.854,84.103z    M43.497,86.576c-0.146-0.234-0.073-0.543,0.161-0.688c0.236-0.146,0.543-0.072,0.688,0.161c0.017,0.027,1.312,2.067,3.266,3.052   c-0.661-0.021-1.318-0.055-1.972-0.107C44.337,87.909,43.554,86.667,43.497,86.576z M48.064,83.261   c-0.268-0.065-0.432-0.336-0.366-0.604c0.065-0.267,0.333-0.431,0.604-0.366c0.043,0.011,4.272,1.025,7.262,0.012   c0.263-0.086,0.546,0.052,0.634,0.313c0.089,0.262-0.052,0.545-0.313,0.634c-1.12,0.379-2.369,0.505-3.535,0.505   C50.114,83.754,48.186,83.291,48.064,83.261z M76.401,71.069c0.142,0.01,0.28,0.002,0.419-0.005   c-0.013,0.018-0.024,0.035-0.037,0.053c-0.484,0.678-1.09,1.383-1.766,2.092L76.401,71.069z"></path></g></svg>