<svg fill="#0F131C" xmlns="http://www.w3.org/2000/svg" xmlns:xlink="http://www.w3.org/1999/xlink" version="1.1" x="0px" y="0px" viewBox="0 0 100 100" enable-background="new 0 0 100 100" xml:space="preserve"><g><path d="M90.206,45.183C87.996,24.188,70.434,8.356,49.354,8.356c-1.443,0-2.908,0.077-4.352,0.229   c-22.552,2.373-38.969,22.649-36.596,45.2c2.208,20.994,19.771,36.826,40.851,36.826c1.443,0,2.907-0.077,4.352-0.229   C76.161,88.011,92.579,67.733,90.206,45.183z M39.88,77.031c1.115,1.586,2.328,3.041,3.619,4.349   c-0.58,0.593-1.399,0.946-2.281,0.866c-1.572-0.138-2.738-1.528-2.601-3.099C38.694,78.264,39.185,77.501,39.88,77.031z    M53.4,88.395c-1.375,0.145-2.769,0.218-4.143,0.218c-0.397,0-0.79-0.016-1.185-0.027c-1.953-0.984-3.249-3.024-3.266-3.052   c-0.146-0.234-0.453-0.307-0.688-0.161c-0.234,0.146-0.307,0.454-0.161,0.688c0.057,0.091,0.84,1.333,2.144,2.417   c-4.175-0.333-8.17-1.32-11.882-2.864c1.656-0.458,2.646-1.188,2.705-1.232c0.219-0.168,0.26-0.481,0.092-0.7   c-0.167-0.218-0.48-0.259-0.7-0.094c-0.017,0.013-1.413,1.054-3.677,1.327c-12.035-5.649-20.764-17.271-22.244-31.337   C8.139,32.123,23.757,12.832,45.212,10.574c1.375-0.145,2.769-0.218,4.143-0.218c3.929,0,7.727,0.586,11.313,1.666   c-0.224-0.009-0.448-0.026-0.671-0.026c-6.854,0-15.43,6.723-21.268,16.496c-0.147-0.048-0.291-0.104-0.426-0.174l-5.371,8.304   c0.414-0.138,0.859-0.193,1.316-0.193l1.783-2.757c-2.161,4.829-3.612,10.153-3.939,15.64c-0.086,1.437-0.086,2.877-0.023,4.314   l-6.297,9.733c0.209,0.277,0.432,0.543,0.68,0.785l5.721-8.843c0.05,0.6,0.11,1.198,0.185,1.794l-5.03,7.775   c0.271,0.191,0.566,0.352,0.865,0.504l4.373-6.761c0.087,0.545,0.186,1.086,0.292,1.626l-3.599,5.562   c0.334,0.105,0.682,0.18,1.039,0.234l2.856-4.416c0.115,0.504,0.239,1.005,0.37,1.504l-1.953,3.018   c0.439-0.01,0.869-0.057,1.285-0.143l1.025-1.585c1.266,4.298,3.133,8.321,5.447,11.801c-0.938,0.634-1.604,1.652-1.708,2.844   c-0.187,2.12,1.388,3.997,3.509,4.183c0.115,0.01,0.229,0.015,0.342,0.015c1.062,0,2.032-0.455,2.737-1.175   c3.382,3.206,7.269,5.373,11.405,6.012C54.883,88.212,54.146,88.316,53.4,88.395z"></path><path d="M24.659,61.16c0.115,0.398,0.268,0.777,0.451,1.145l6.625-10.241c-0.482,0.249-1,0.435-1.543,0.544L24.659,61.16z"></path><path d="M27.687,52.565l-5.283,8.165c0.535-0.061,1.037-0.227,1.496-0.471l4.882-7.547c-0.091-0.004-0.18-0.002-0.271-0.01   C28.228,52.679,27.954,52.627,27.687,52.565z"></path><path d="M45.58,18.777l1.113-1.722c-0.008-0.387-0.191-0.746-0.512-1.05l-2.394,3.701C44.544,19.418,45.132,19.102,45.58,18.777z"></path><path d="M25.71,51.704l-5.592,8.644c0.309,0.145,0.641,0.246,0.986,0.314l5.48-8.471C26.278,52.053,25.984,51.892,25.71,51.704z"></path><path d="M41.944,20.275c0.055-0.014,0.105-0.028,0.158-0.041l3.113-4.812c-0.305-0.118-0.646-0.207-1.02-0.264l-3.543,5.476   C41.069,20.508,41.499,20.387,41.944,20.275z"></path><path d="M24.165,50.175l-5.689,8.794c0.199,0.283,0.428,0.543,0.693,0.77l5.667-8.76C24.589,50.73,24.364,50.463,24.165,50.175z"></path><path d="M27.489,41.119c0.426-0.114,0.867-0.184,1.32-0.201l8.607-13.303c-0.246-0.283-0.437-0.61-0.565-0.967L27.489,41.119z"></path><path d="M19.281,53.807c0.248,0.363,0.386,0.801,0.37,1.269l3.904-6.035c-0.166-0.409-0.286-0.841-0.357-1.288L19.281,53.807z"></path><path d="M38.917,21.241l3.973-6.139c-0.162,0.011-0.328,0.022-0.496,0.044c-0.246,0.031-0.514,0.068-0.793,0.107l-4.354,6.729   C37.772,21.721,38.329,21.473,38.917,21.241z"></path><path d="M25.542,42.055l10.086-15.593c-0.699,0.341-1.359,0.746-1.975,1.212L17.345,52.882c0.12-0.01,0.241-0.016,0.365-0.005   c0.252,0.022,0.487,0.095,0.705,0.195l4.836-7.475C23.558,44.136,24.396,42.894,25.542,42.055z"></path><path d="M38.932,15.598L14.884,52.77c0.248,0.227,0.506,0.441,0.779,0.639l24.71-38.198C39.904,15.326,39.426,15.455,38.932,15.598   z"></path><path d="M35.687,16.697L13.448,51.074c0.193,0.299,0.404,0.586,0.633,0.861l23.166-35.809   C36.735,16.301,36.214,16.492,35.687,16.697z"></path><path d="M32.085,18.348L12.397,48.78c0.115,0.402,0.26,0.795,0.434,1.174l21.008-32.476C33.257,17.744,32.671,18.037,32.085,18.348   z"></path><path d="M27.751,21.129l-10.797,16.69c-0.096,0.358-0.197,0.71-0.287,1.08c-0.234,0.125-0.457,0.271-0.68,0.415L12.181,45.2   c-0.025,0.173-0.064,0.341-0.08,0.518c-0.043,0.49-0.041,0.974,0,1.447l17.828-27.56C29.196,20.071,28.47,20.578,27.751,21.129z"></path><path d="M18.397,33.515l6.18-9.556C22.169,26.449,20.015,29.573,18.397,33.515z"></path><path d="M34.307,77.072c-0.081-0.03-8.21-3.138-11.45-10.09c-0.117-0.251-0.414-0.361-0.664-0.242   c-0.25,0.116-0.359,0.414-0.242,0.664c3.416,7.33,11.658,10.475,12.007,10.605c0.058,0.021,0.116,0.031,0.175,0.031   c0.203,0,0.393-0.124,0.469-0.325C34.696,77.457,34.565,77.169,34.307,77.072z"></path></g></svg>