<svg fill="#D1B794" xmlns="http://www.w3.org/2000/svg" xmlns:xlink="http://www.w3.org/1999/xlink" version="1.1" x="0px" y="0px" viewBox="0 0 100 100" enable-background="new 0 0 100 100" xml:space="preserve"><path fill="#D1B794" d="M31.931,98.592h9.046h9.051h9.048h9.046h9.051h1v-1v-2.333v-0.146l-0.041-0.14l-9.04-30.428L60.054,21.99  l-0.023-0.109l-0.047-0.102L50.936,2.136l-0.908-1.972l-0.908,1.972l-9.051,19.644l-0.047,0.102l-0.023,0.109l-9.038,42.556  l-9.038,30.428l-0.042,0.14v0.146v2.333v1h1H31.931z M76.972,95.523l-1.253-4.456l1.253,4.219V95.523z M23.082,95.3l3.359-7.747  l-3.359,8.383V95.3z M49.827,65.296v28.999l-8.615-19.861L49.827,65.296z M41.177,73.89v-33.8l8.622,24.654L41.177,73.89z   M50.434,23.368l8.441,15.594v33.104L50.434,23.368z M58.765,73.771l-8.537-9.058V24.525L58.765,73.771z M49.827,63.615  l-8.633-24.687l8.633-15.941V63.615z M40.776,74.192h-8.588l8.588-33.687V74.192z M40.651,74.593l-8.521,16.882V74.593H40.651z   M40.776,75.233v21.411l-8.578-4.416L40.776,75.233z M40.248,96.822l-8.117,0.556v-4.734L40.248,96.822z M41.177,75.356  l8.567,19.753l-8.567,1.622V75.356z M50.228,66.243l8.568,30.474l-8.568-1.623V66.243z M50.439,65.521l8.436,8.95v21.051  L50.439,65.521z M59.275,41.291l8.427,49.751l-8.427-16.696V41.291z M60.088,43.689l7.833,30.727v15.52L60.088,43.689z   M68.321,74.354v-8.112l7.648,27.194L68.321,74.354z M59.275,38.889V24.525l7.773,44.854L59.275,38.889z M50.228,22.147V4.188  l8.272,33.24L50.228,22.147z M41.177,38.122V22.398h8.515L41.177,38.122z M32.131,72.797v-7.97l7.511-21.491L32.131,72.797z   M31.73,92.193l-8.464,4.356l8.464-21.12V92.193z M31.73,97.392h-8.108l8.108-4.728V97.392z M40.776,97.187v0.205H37.78  L40.776,97.187z M41.177,97.138l2.864-0.542l-2.864,0.738V97.138z M49.827,95.517v1.875h-7.274L49.827,95.517z M50.228,95.5  l7.283,1.38l-7.283,0.498V95.5z M59.275,97.187l2.996,0.205h-2.996V97.187z M59.275,75.457l8.545,21.914l-8.545-0.585V75.457z   M60.78,78.215l7.141,14.147v4.165L60.78,78.215z M68.321,92.664l8.11,4.728h-8.11V92.664z M68.321,75.456l8.456,21.674l-8.456-4.93  V75.456z M67.921,72.065l-6.835-39.438l6.835,32.185V72.065z M58.875,37.277l-8.14-32.709l8.14,17.673V37.277z M49.827,21.998  h-8.538l8.538-18.531V21.998z M40.776,38.877l-7.996,22.875l7.996-37.649V38.877z M31.73,74.352l-7.712,17.785L31.73,66.17V74.352z   M23.082,97.095l2.181-1.123l-2.181,1.271V97.095z M58.875,97.187v0.205h-2.997L58.875,97.187z"></path></svg>