<svg fill="#D1B794" xmlns="http://www.w3.org/2000/svg" xmlns:xlink="http://www.w3.org/1999/xlink" version="1.1" x="0px" y="0px" viewBox="0 0 100 100" enable-background="new 0 0 100 100" xml:space="preserve"><path fill="#D1B794" d="M69.59,57.634l-9.023-22.301l-0.062-0.157l-0.112-0.127l-9.041-10.322l-0.751-0.858l-0.752,0.858  l-9.051,10.322l-0.112,0.127l-0.063,0.157l-9.012,22.302l-9.018,15.966l-0.129,0.229v0.263v1.215v1h1h18.086h9.051h9.041h9.048h9.05  h1v-1v-1.215V73.83l-0.13-0.229L69.59,57.634z M32.712,63.166l7.77-16.03l-7.77,24.13V63.166z M59.84,45.349l8.528,17.571H59.84  V45.349z M59.439,62.779L50.885,58l8.555-12.861V62.779z M50.799,57.408V36.181l8.582,8.325L50.799,57.408z M41.348,45.752v17.287  l-8.379,8.735L41.348,45.752z M41.748,44.562l8.406-8.145l-8.406,25.459V44.562z M50.398,36.952v21l-8.5,4.743L50.398,36.952z   M50.799,58.41l8.534,4.768l-8.534,10.357V58.41z M50.398,73.911l-8.498,0.831l8.498-15.875V73.911z M68.486,63.32v8.723  l-8.377-8.723H68.486z M61.104,47.039l7.382,11.09v4.12L61.104,47.039z M51.092,35.908h8.348v8.097L51.092,35.908z M50.398,35.624  l-8.197,7.941l8.197-17.29V35.624z M41.348,44.432l-7.705,15.897l7.705-23.375V44.432z M32.312,63.053l-7.5,9.826l7.5-14.012V63.053  z M32.312,63.726v8.666l-8.327,2.547L32.312,63.726z M32.712,72.621l6.795-7.084l-6.795,9.165V72.621z M50.1,58.577L41.748,74.18  V63.237L50.1,58.577z M59.439,63.678v11.079l-8.448-0.827L59.439,63.678z M59.84,63.617l8.469,8.817l-8.469,2.281V63.617z   M68.887,63.712l8.334,10.919l-8.334-2.244V63.712z M77.537,74.386l-2.266-2.969l2.266,2.747V74.386z M68.887,63.049v-4.218  l7.559,13.381L68.887,63.049z M59.84,44.418v-7.682l7.925,19.587L59.84,44.418z M50.799,35.508v-9.59l8.399,9.59H50.799z   M41.748,43.588v-7.805l8.056-9.188L41.748,43.588z M32.712,61.874v-3.766l6.737-16.673L32.712,61.874z M23.662,74.18v-0.034  l0.347-0.614L23.662,74.18z M32.312,72.811v2.297h-7.511L32.312,72.811z M41.348,63.726v11.059l-8.427,0.308L41.348,63.726z   M50.398,74.321v0.786h-5.855L50.398,74.321z M50.799,74.313l5.852,0.572L50.799,75.1V74.313z M68.486,72.802V75.1l-7.514-0.273  L68.486,72.802z M68.887,75.107v-2.297l7.512,2.297H68.887z"></path></svg>