<svg fill="#00DCFF" xmlns:dc="http://purl.org/dc/elements/1.1/" xmlns:cc="http://creativecommons.org/ns#" xmlns:rdf="http://www.w3.org/1999/02/22-rdf-syntax-ns#" xmlns:svg="http://www.w3.org/2000/svg" xmlns="http://www.w3.org/2000/svg" xmlns:sodipodi="http://sodipodi.sourceforge.net/DTD/sodipodi-0.dtd" xmlns:inkscape="http://www.inkscape.org/namespaces/inkscape" version="1.1" x="0px" y="0px" viewBox="0 0 100 100"><g transform="translate(0,-952.36218)"><path d="m 21,958.36218 c -2.7527,0 -5,2.24732 -5,5 l 0,78.00002 c 0,2.7527 2.2473,5 5,5 l 58,0 c 2.7527,0 5,-2.2473 5,-5 l 0,-78.00002 c 0,-2.75268 -2.2473,-5 -5,-5 z m 0,2 58,0 c 1.6793,0 3,1.32073 3,3 l 0,78.00002 c 0,1.6793 -1.3207,3 -3,3 l -58,0 c -1.6793,0 -3,-1.3207 -3,-3 l 0,-78.00002 c 0,-1.67927 1.3207,-3 3,-3 z m 8,14 c -0.5523,0 -1,0.4477 -1,1 0,0.5522 0.4477,1 1,1 l 42,0 c 0.5523,0 1,-0.4478 1,-1 0,-0.5523 -0.4477,-1 -1,-1 z m 0,18 c -0.5523,0 -1,0.4477 -1,1 0,0.5522 0.4477,1 1,1 l 42,0 c 0.5523,0 1,-0.4478 1,-1 0,-0.5523 -0.4477,-1 -1,-1 z m 0,18.00002 c -0.5523,0 -1,0.4477 -1,1 0,0.5522 0.4477,1 1,1 l 42,0 c 0.5523,0 1,-0.4478 1,-1 0,-0.5523 -0.4477,-1 -1,-1 z m 0,18 c -0.5523,0 -1,0.4477 -1,1 0,0.5522 0.4477,1 1,1 l 28,0 c 0.5523,0 1,-0.4478 1,-1 0,-0.5523 -0.4477,-1 -1,-1 z" style="text-indent:0;text-transform:none;direction:ltr;block-progression:tb;baseline-shift:baseline;color:#000000;enable-background:accumulate;" fill="#00DCFF" fill-opacity="1" stroke="none" marker="none" visibility="visible" display="inline" overflow="visible"></path></g></svg>