<svg fill="#00DCFF" xmlns="http://www.w3.org/2000/svg" xmlns:xlink="http://www.w3.org/1999/xlink" version="1.1" x="0px" y="0px" viewBox="0 0 90 90" enable-background="new 0 0 90 90" xml:space="preserve"><path fill-rule="evenodd" clip-rule="evenodd" d="M82.5,21.5c0.333,0.333,0.55,0.617,0.65,0.85c0.267,0.467,0.416,1.117,0.449,1.95  c0.034,0.467,0.034,1.167,0,2.1c0,0.4,0.051,0.684,0.15,0.85c0.066,0.133,0.134,0.2,0.2,0.2c0.1-0.034,0.133-0.267,0.1-0.7  c-0.066-0.367-0.066-0.567,0-0.6c0.033-0.033,0.101,0.083,0.2,0.35c1.333,5.633,0.917,11.117-1.25,16.45  c-2.2,5.3-5.75,9.416-10.65,12.35l-0.5,0.3l-0.1,0.15l-3.9,1.8L67.15,57.8C63.517,59.033,59.8,59.483,56,59.15  c-3.733-0.334-7.233-1.417-10.5-3.25c0.033-0.034,0.1-0.067,0.2-0.101l2.55-1.8l0.8-0.7c2.8,1.233,5.75,1.9,8.851,2  c3.166,0.101,6.183-0.434,9.05-1.6l1.95-0.9l0.35-0.25l0.7-0.3L71.8,51c3.3-2.4,5.783-5.5,7.45-9.3c1.634-3.8,2.167-7.784,1.6-11.95  c0.967,1.233,1.483,2.3,1.551,3.2c-0.034,3.966-0.95,7.667-2.75,11.1c-1.834,3.5-4.367,6.316-7.601,8.45l-2.55,1.55l-2.4,1.05  c-6.5,2.467-12.916,2.2-19.25-0.8l-0.399,0.3c3.033,1.5,6.25,2.334,9.649,2.5c3.467,0.2,6.817-0.316,10.051-1.55l3.75-1.75L72.1,53  c3.334-2.2,5.95-5.066,7.851-8.6c1.899-3.566,2.866-7.383,2.899-11.45c-0.033-0.434-0.333-1.233-0.899-2.4  c-0.934-1.466-1.584-2.3-1.95-2.5c-1.2-1.4-2.066-2.367-2.6-2.9c-0.967-0.967-1.667-1.85-2.101-2.65c-0.3-0.467-0.517-1.1-0.649-1.9  c-0.101-0.733-0.2-1.15-0.301-1.25l-0.05,0.1c-0.166,0.066-0.5-0.333-1-1.2c-0.3-0.5-0.467-0.967-0.5-1.4  c-0.033-0.567,0.134-0.934,0.5-1.1L74.4,16.7c0.533,0.5,1.033,1.033,1.5,1.6c0.433,0.333,0.933,0.65,1.5,0.95  c0.633,0.3,1.116,0.567,1.449,0.8c0.367,0.3,0.851,0.817,1.45,1.55c0.467,0.6,0.733,0.867,0.8,0.8c0.101-0.066-0.066-0.517-0.5-1.35  c-0.133-0.367-0.267-1.1-0.399-2.2c-0.101-1.033-0.267-1.817-0.5-2.35c-0.3-0.6-0.667-1.217-1.101-1.85  c0.167-0.066,0.384-0.05,0.65,0.05c0.3,0.1,0.533,0.3,0.7,0.6c0.3,0.534,0.6,1.434,0.899,2.7c0.334,1.3,0.634,2.15,0.9,2.55  C81.917,20.783,82.167,21.1,82.5,21.5z M75.95,17.55c-3.334-3.966-7.5-6.517-12.5-7.65c-4.967-1.133-9.767-0.667-14.4,1.4l-1.2-1  C52.983,7.867,58.366,7.433,64,9s10.134,4.817,13.5,9.75c-0.233-0.067-0.434-0.167-0.6-0.3C76.533,18.25,76.217,17.95,75.95,17.55z   M79.7,18.2c0.233,1.1,0.25,1.716,0.05,1.85c-0.033,0.034-0.483-0.233-1.35-0.8c-3.434-5.3-8.117-8.817-14.051-10.55  C58.483,6.933,52.85,7.367,47.45,10L47.35,9.95L45.45,8.7C50.95,5.667,56.8,4.783,63,6.05c6.2,1.233,11.35,4.317,15.45,9.25  C79.017,16,79.434,16.967,79.7,18.2z M74.05,18.2c-0.1-0.333-0.149-0.667-0.149-1c0-0.2-0.051-0.383-0.15-0.55  c-0.066-0.167-0.2-0.217-0.4-0.15c-0.166,0.1,0,0.667,0.5,1.7H74.05z M75.9,21.5h0.05c0.166-0.067,0.283-0.117,0.35-0.15  c0.367,0,0.717,0.017,1.05,0.05c-0.166-0.233-0.366-0.433-0.6-0.6c-0.3-0.233-0.483-0.4-0.55-0.5l-0.15-0.5H75.9  C75.833,20.533,75.833,21.1,75.9,21.5z M77.7,22.05c-0.434,0.233-0.884,0.317-1.351,0.25c0.101,0.133,0.233,0.3,0.4,0.5  c0.434,0.4,0.884,0.934,1.35,1.6c0.101-0.066,0.017-0.316-0.25-0.75c-0.133-0.233-0.183-0.566-0.149-1  C77.733,22.417,77.733,22.217,77.7,22.05z M43.35,11.2c0.167,0.066,0.533,0.283,1.1,0.65l2.1,1.5c2.667,2.167,4.75,4.733,6.25,7.7  c1.533,2.934,2.434,6.05,2.7,9.35l-1.45-0.55c-0.333-3.067-1.233-5.934-2.7-8.6c-1.5-2.733-3.466-5.083-5.899-7.05l-2.1-1.45  l-2.65-1.4c-3.7-1.7-7.617-2.3-11.75-1.8s-7.883,2.034-11.25,4.6c0.667-1.467,1.35-2.45,2.05-2.95c3.433-1.967,7.117-3,11.05-3.1  c3.9-0.167,7.583,0.583,11.05,2.25L43.35,11.2z M44.65,8.95l4.2,3.05c2.9,2.5,5.15,5.5,6.75,9c1.601,3.4,2.434,6.95,2.5,10.65  l-2.1-1c-0.267-3.367-1.167-6.566-2.7-9.6c-1.566-3.1-3.7-5.75-6.399-7.95l-0.45-0.45l-4.25-2.6  c-3.534-1.767-7.317-2.583-11.35-2.45C26.783,7.7,23,8.767,19.5,10.8c-0.4,0.3-0.933,0.983-1.6,2.05c-0.8,1.566-1.2,2.517-1.2,2.85  l-1.25,3.75c-0.367,1.4-0.784,2.466-1.25,3.2c-0.233,0.467-0.65,0.95-1.25,1.45c-0.6,0.5-0.917,0.783-0.95,0.85L12.1,25  c0.167,0.1,0.05,0.5-0.35,1.2c-0.033,0.1-0.083,0.183-0.15,0.25c-0.767,1.267-1.5,1.683-2.2,1.25l0.25-1.45  c0.367-1.033,0.583-1.733,0.65-2.1c0.133-0.533,0.184-1.083,0.15-1.65c-0.1-0.8-0.117-1.383-0.05-1.75  c0.067-0.467,0.267-1.133,0.6-2c0.233-0.7,0.317-1.067,0.25-1.1c-0.1-0.1-0.417,0.25-0.95,1.05c-0.233,0.367-0.783,0.867-1.65,1.5  c-0.867,0.6-1.467,1.133-1.8,1.6c-0.133,0.167-0.483,0.784-1.05,1.85c-0.4-0.367-0.45-0.867-0.15-1.5  c0.333-0.5,0.983-1.217,1.95-2.15c0.9-0.9,1.467-1.567,1.7-2c0.167-0.233,0.317-0.583,0.45-1.05c0.167-0.5,0.317-0.867,0.45-1.1  c0.3-0.6,1.4-1.4,3.3-2.4c0.4-0.3,0.617-0.483,0.65-0.55c0.033-0.066,0.05-0.167,0.05-0.3c-0.067-0.033-0.267,0.066-0.6,0.3  c-0.1,0.067-0.184,0.133-0.25,0.2l-0.1-0.25c4.2-3.967,9.167-6.35,14.9-7.15c5.667-0.733,11,0.267,16,3L44.65,8.95z M42.6,13.2  c-2.833,2.3-5.033,5.083-6.6,8.35c-1.533,3.233-2.333,6.617-2.4,10.15l0.1,3.5l0.4,2.1c0.566,2.667,1.517,5.133,2.85,7.4  c1.433,2.6,3.333,4.85,5.7,6.75l-2,1.1c-2.233-1.967-4.1-4.233-5.6-6.8c-1.333-2.367-2.283-4.783-2.85-7.25l-0.15-0.7l-0.55-4.3  v-0.7c-0.067-3.933,0.667-7.7,2.2-11.3c1.633-3.7,3.933-6.85,6.9-9.45l1.75,0.85L42.6,13.2z M44.2,14.15  c-2.6,2.067-4.667,4.6-6.2,7.6c-1.5,2.9-2.35,5.967-2.55,9.2l-0.05,0.7l0.35,4.85c0.533,2.633,1.45,5.067,2.75,7.3  c1.6,2.7,3.517,4.9,5.75,6.601l-0.75,0.55L43,51.2c-2.4-1.9-4.3-4.134-5.7-6.7c-1.367-2.367-2.3-4.833-2.8-7.4L34.15,35L34,31.55  c0.133-3.533,0.967-6.867,2.5-10c1.567-3.233,3.733-5.966,6.5-8.2L44.2,14.15z M54.7,30.8l3.149,1.5c3.434,1.9,6.334,4.434,8.7,7.6  c2.367,3.233,3.934,6.8,4.7,10.7l-1.6,1.051l-0.4,0.149c-0.566-3.566-1.884-6.867-3.95-9.9c-2-2.933-4.517-5.35-7.55-7.25l-4.5-2.15  l-0.7-0.15c-2.6-0.867-5.2-1.3-7.8-1.3c-3,0-5.9,0.534-8.7,1.6l0.1-1.9c0-0.267,0.017-0.533,0.05-0.8v0.4  c2.733-0.934,5.6-1.4,8.6-1.4c2.8,0,5.384,0.367,7.75,1.1L54.7,30.8z M54.75,35.85l0.5,0.35c-0.467,2.9-1.467,5.667-3,8.3  c-1.3,2.333-2.95,4.384-4.95,6.15L42.7,53.8c-3.1,1.667-6.4,2.617-9.9,2.851c-3.566,0.267-7-0.25-10.3-1.551v-0.25l0.1-1.149  c3.066,1.233,6.267,1.767,9.6,1.6c3.3-0.166,6.417-0.967,9.35-2.399l0.6-0.4c0.8-0.366,1.45-0.733,1.95-1.1l2-1.551  c2-1.733,3.667-3.75,5-6.05c1.534-2.6,2.483-5.367,2.851-8.3L54.75,35.85z M53.2,33c0.066,0.067,0.517,0.267,1.35,0.6L55,33.75  c0.333,0.133,1.017,0.5,2.05,1.1l0.601,0.35c3,1.867,5.466,4.25,7.399,7.15c2.033,2.933,3.316,6.15,3.851,9.65l0.25-0.1l-0.4,0.25  L67.6,52.7c-0.466-3.3-1.6-6.367-3.399-9.2c-1.8-2.767-4.066-5.033-6.8-6.8L56.8,36.3c-0.3-0.2-0.95-0.566-1.95-1.1l-2.399-1  c-2.367-0.867-4.934-1.3-7.7-1.3c-3,0-5.85,0.567-8.55,1.7l-0.15-1.5c2.867-1.033,5.767-1.55,8.7-1.55c2.733,0,5.333,0.417,7.8,1.25  L53.2,33z M54.5,45.8c-1.366,2.334-2.983,4.384-4.85,6.15l-4.601,3.5c-3.367,2-7,3.217-10.9,3.649  c-3.967,0.434-7.833,0.017-11.6-1.25L22.5,55.6c3.4,1.301,6.917,1.801,10.55,1.5c3.6-0.267,6.95-1.25,10.05-2.949l4.55-3.25  c2.1-1.867,3.783-3.917,5.05-6.15c1.5-2.633,2.483-5.417,2.95-8.35l1.949,1.15C57.066,40.317,56.033,43.067,54.5,45.8z M9.9,20  c0.067,0.033,0.1,0.283,0.1,0.75c-0.033,0.2-0.067,0.467-0.1,0.8C7,27.15,6.267,32.933,7.7,38.9c1.4,5.767,4.617,10.517,9.65,14.25  c-0.067,0.5-0.117,1.216-0.15,2.149v0.05C11.867,52.083,8.183,47.45,6.15,41.45C5.617,39.917,5.233,38.367,5,36.8v-7.95  c0.267-1.8,0.733-3.6,1.4-5.4c0.333-0.867,0.983-1.717,1.95-2.55C9.15,20.133,9.667,19.833,9.9,20z M9.65,24.45  c-1.8,4.9-1.933,9.8-0.4,14.7c1.5,4.9,4.3,8.833,8.4,11.8l-0.2,1.6l-0.05-0.1c-4.667-3.233-7.717-7.667-9.15-13.3  c-1.433-5.667-0.883-11.2,1.65-16.6c0,0.067,0.017,0.284,0.05,0.65C9.95,23.633,9.85,24.05,9.65,24.45z M13.2,20.95  c0.167,0.2,0.316,0.4,0.45,0.6c0.033-0.133,0.067-0.25,0.1-0.35c0.567-1.267,0.817-1.917,0.75-1.95  c-0.133-0.033-0.333,0.15-0.6,0.55c-0.167,0.267-0.417,0.45-0.75,0.55c-0.133,0.066-0.25,0.133-0.35,0.2  C12.933,20.683,13.067,20.817,13.2,20.95z M11.95,22.9l-0.4,0.45l0.05,0.05c0.8-0.367,1.333-0.683,1.6-0.95  c-0.333-0.067-0.65-0.317-0.95-0.75c-0.033-0.034-0.05-0.067-0.05-0.1c-0.067,0.2-0.117,0.383-0.15,0.55  C12.017,22.617,11.983,22.867,11.95,22.9z M11.25,25.95l-0.15-0.1c-0.233,0.267-0.467,0.467-0.7,0.6s-0.383,0.283-0.45,0.45  c-0.067,0.067-0.1,0.133-0.1,0.2c0,0.066,0.05,0.117,0.15,0.15C10.167,27.283,10.583,26.85,11.25,25.95z M31,35.2  c-2.833,1.9-5.183,4.283-7.05,7.15c-1.9,2.9-3.117,6.034-3.65,9.4l-0.1,0.7L20,57.4c0.3,3.966,1.5,7.649,3.6,11.05  c2.133,3.467,4.95,6.217,8.45,8.25c0.534,0.267,1.383,0.399,2.55,0.399c1.533,0,2.566-0.133,3.1-0.399  c0.367-0.2,1.65-0.483,3.85-0.851c1.4-0.333,2.534-0.5,3.4-0.5c0.533,0,1.166,0.15,1.899,0.45c0.7,0.233,1.101,0.351,1.2,0.351V76  c0-0.134,0.5-0.2,1.5-0.2c0.566,0,1.05,0.101,1.45,0.3c0.467,0.2,0.684,0.5,0.65,0.9l-1.301,0.5L48.15,78  c-0.467,0.167-0.95,0.417-1.45,0.75c-0.634,0.434-1.134,0.733-1.5,0.9c-0.467,0.199-1.133,0.35-2,0.449  c-0.733,0.134-1.1,0.25-1.1,0.351c0,0.1,0.45,0.2,1.35,0.3c0.466,0.033,1.167,0.267,2.1,0.7c0.967,0.399,1.733,0.633,2.3,0.7  c0.601,0.1,1.334,0.1,2.2,0C49.917,82.717,49.5,83,48.8,83c-0.6,0-1.533-0.167-2.8-0.5c-1.267-0.4-2.15-0.6-2.65-0.6  c-0.267,0-0.65,0.066-1.15,0.199c-0.434,0.134-0.8,0.2-1.1,0.2c-0.533,0-1.184-0.184-1.95-0.55c-0.1-0.1-0.7-0.483-1.8-1.15  c-0.3-0.199-0.567-0.3-0.8-0.3l-0.3,0.05c0,0.101,0.183,0.233,0.55,0.4c0.367,0.2,0.55,0.316,0.55,0.35c0,0.101-0.133,0.101-0.4,0  c-5.6-1.633-10.133-4.733-13.6-9.3C19.817,67.267,18,62.134,17.9,56.4l0.1-3.5l0.4-2.25c0.733-3.733,2.2-7.167,4.4-10.3  c2.133-3.067,4.817-5.567,8.05-7.5L31,35.2z M25.2,43.9c-1.633,2.667-2.684,5.55-3.15,8.65L21.8,54.7l0.15,3.399  c0.4,4.067,1.833,7.75,4.3,11.051c2.5,3.333,5.683,5.816,9.55,7.449c-1.466,0.2-2.667,0.117-3.6-0.25  c-3.367-2.033-6.083-4.699-8.15-8c-2.066-3.333-3.25-6.916-3.55-10.75l-0.05-3.05l0.3-2.6c0.533-3.3,1.717-6.384,3.55-9.25  c1.767-2.767,4.017-5.083,6.75-6.95l0.25,1.5C28.8,39.05,26.767,41.267,25.2,43.9z M69.15,57.7c-0.467,5.7-2.784,10.566-6.95,14.6  C58,76.4,52.934,78.7,47,79.2c0.2-0.167,0.384-0.3,0.55-0.4c0.367-0.233,0.783-0.366,1.25-0.399c5.101-0.934,9.4-3.25,12.9-6.95  c3.467-3.733,5.467-8.117,6-13.15h0.05L69.15,57.7z M69.65,57.55l2.1-1.05c-0.134,6.233-2.283,11.733-6.45,16.5  c-4.166,4.733-9.416,7.65-15.75,8.75c-0.934,0.1-1.967-0.033-3.1-0.4c-1.134-0.366-1.7-0.666-1.7-0.899  c0-0.101,0.217-0.25,0.65-0.45c0.433-0.167,0.666-0.267,0.699-0.3c6.301-0.3,11.7-2.584,16.2-6.851c4.434-4.199,6.867-9.3,7.3-15.3  H69.65z M50.7,76.95c0.2,0,0.3-0.084,0.3-0.25c0-0.233-0.566-0.351-1.7-0.351l-0.05,0.101c0.3,0.1,0.6,0.2,0.9,0.3  C50.35,76.884,50.533,76.95,50.7,76.95z M46.9,77.25c-0.7-0.566-1.301-0.866-1.801-0.9c0.2,0.2,0.301,0.467,0.301,0.801  c0,0.199-0.017,0.366-0.051,0.5c0.334-0.101,0.65-0.233,0.95-0.4l0.55,0.1L46.9,77.25z M43.9,76.55  c-0.333,0.066-0.767,0.134-1.3,0.2l-0.75,0.1c0,0.101,0.25,0.15,0.75,0.15c0.267,0.066,0.566,0.2,0.9,0.4  c0.3,0.233,0.55,0.35,0.75,0.35c-0.067-0.167-0.067-0.417,0-0.75c0.033-0.267,0.15-0.483,0.35-0.65  C44.367,76.384,44.133,76.45,43.9,76.55z"></path></svg>