<svg fill="#FFFFFF" xmlns="http://www.w3.org/2000/svg" xmlns:xlink="http://www.w3.org/1999/xlink" version="1.1" x="0px" y="0px" viewBox="0 0 100 100" style="enable-background:new 0 0 100 100;" xml:space="preserve"><g><ellipse transform="matrix(0.4432 -0.8964 0.8964 0.4432 0.7937 75.9664)" cx="61.6" cy="37.3" rx="2" ry="2"></ellipse><ellipse transform="matrix(0.4432 -0.8964 0.8964 0.4432 0.2873 70.7195)" cx="57.1" cy="35.1" rx="2" ry="2"></ellipse><ellipse transform="matrix(0.4432 -0.8964 0.8964 0.4432 0.2526 81.3199)" cx="65.6" cy="40.5" rx="2" ry="2"></ellipse><path d="M69.8,44.5c-0.6-1.5-1.6-1.9-2.4-1.6c-0.8,0.3-1.3,1.5-0.6,3.1c1.8,4.4,1.8,9.2,0,13.4c-1.8,4.3-5.4,7.6-10,9.5   c-6.9,2.7-14.2,0.7-19.1-5.2c-5.2-6.3-4.8-15-0.4-21.3c1.3-1.8,6.3-7.1,8.8-5.3c0.6,0.4,1,1.3,1.4,2c0.2,0.3,0.3,0.6,0.5,0.9   c0.5,0.8,1.8,1.5,3.1,0.9c0.6-0.3,2.7-1.4,2.5-2.2c0-0.1-0.2-0.5-0.8-0.5c-1.3,0-1.8,0-2.2-0.5c-0.6-0.8-0.9-2.1-1.1-3.1   c-0.1-0.3-0.1-0.6-0.2-0.9c0.1,0,0.2,0,0.3,0c0.9-0.1,1.8-1.4,2.9-2.8c0.6-0.7,1.3-1.7,1.8-2.2c0,0,0,0.1,0,0.1   c-0.2,0.6-0.3,1,0,1.3l0.2,0.2l0.2,0c1.4,0,2.5-2.3,2.6-3.8c0.1-1.5-0.8-1.8-1-1.9l0,0c-0.6-0.1-5.6,1.1-9.4,3.4   c-2.1,1.3-5.3,2.8-7,4c-3,2-5.9,4.4-8.2,8.5c-5.1,9.1-4.8,20.5,2.2,27.7c4.4,4.5,10.4,6.9,16.6,6.9c3.8,0,7.5-0.9,10.9-2.8   C71,67.1,74.4,55.9,69.8,44.5z M50.4,29c0.5,0.1,0.9,0.6,0.8,1.1c-0.1,0.4-0.4,0.7-0.7,0.8c-0.1,0-0.2,0-0.4,0   c-0.5-0.1-0.9-0.6-0.8-1.1C49.3,29.3,49.8,28.9,50.4,29z"></path></g></svg>