<svg fill="#00DCFF" xmlns="http://www.w3.org/2000/svg" xmlns:xlink="http://www.w3.org/1999/xlink" version="1.1" x="0px" y="0px" viewBox="0 0 100 100" enable-background="new 0 0 100 100" xml:space="preserve"><g><path d="M80.227,80.23c-3.893,4.013-8.596,7.279-13.768,9.504C61.289,91.967,55.662,93.168,50,93.25   c-5.662,0.084-11.355-0.949-16.65-3.054c-5.298-2.096-10.181-5.27-14.286-9.261c-4.093-4.001-7.412-8.823-9.665-14.118   C7.139,61.525,5.937,55.775,5.875,50c-0.063-5.775,1.014-11.575,3.178-16.961c2.164-5.396,5.39-10.329,9.499-14.523   c4.027-4.132,8.955-7.543,14.333-9.836C38.264,6.363,44.113,5.109,50,5.025c5.884-0.042,11.795,1.055,17.263,3.298   c5.476,2.259,10.418,5.63,14.579,9.88c4.048,4.183,7.352,9.238,9.47,14.686C93.415,38.351,94.46,44.204,94.259,50   c-0.164,5.795-1.528,11.515-3.932,16.704c-2.454,5.161-5.865,9.836-10.099,13.524l-0.354-0.354   C87.266,71.587,91.108,60.673,90.741,50c-0.334-10.693-4.854-20.997-12.479-28.307C70.81,14.415,60.5,10.044,50,9.975   c-5.242-0.087-10.519,0.856-15.42,2.8c-4.91,1.953-9.396,4.866-13.236,8.604c-3.762,3.672-6.859,8.153-8.941,13.045   C10.306,39.321,9.187,44.647,9.125,50c-0.063,5.353,0.931,10.729,2.931,15.718c1.993,4.993,4.998,9.586,8.776,13.45   c3.76,3.881,8.292,7.03,13.283,9.181C39.101,90.505,44.533,91.668,50,91.75c5.467,0.084,10.965-0.911,16.076-2.939   c5.116-2.022,9.827-5.079,13.801-8.938L80.227,80.23z"></path></g><g><path d="M80.867,79.139c0,0,0.219,0.146,0.486,0.323s0.876,0.312,1.354,0.299c0.477-0.014,2.17-0.99,3.764-2.17   s2.755-2.871,2.582-3.757c-0.174-0.887-0.827-1.952-1.451-2.367c-0.625-0.414-0.941-0.625-0.704-0.467s-0.079-0.053-0.704-0.468   c-0.624-0.415-1.858-0.604-2.744-0.421c-0.885,0.184-1.993,1.91-2.463,3.836c-0.469,1.927-0.713,3.867-0.541,4.312   c0.173,0.444,0.532,0.954,0.8,1.132c0.268,0.177,0.486,0.322,0.486,0.322"></path></g></svg>