<svg fill="#00DCFF" xmlns="http://www.w3.org/2000/svg" xmlns:xlink="http://www.w3.org/1999/xlink" version="1.1" x="0px" y="0px" viewBox="0 0 100 100" enable-background="new 0 0 100 100" xml:space="preserve"><g><path fill="none" d="M56.996,30.508c0.261-0.834,0.444-1.454,0.65-2.068c0.62-1.849,0.603-3.613-0.143-5.295   c-0.197-0.445-0.375-0.902-0.528-1.37c-0.051-0.153,0.002-0.354,0.012-0.665c0.29,0.648,0.513,1.151,0.738,1.652   c0.221,0.497,0.444,0.993,0.681,1.521c0.535-1.194,0.736-3.801,0.371-4.663c-0.857,0.832-1.797,0.996-2.757,0.557   c-1.512-0.691-1.468-2.209-1.435-3.75c-0.953,1.237-1.449,2.588-1.099,4.065c0.294,1.238,0.707,2.439,1.127,3.628   c0.478,1.355,1.027,2.677,1.534,4.018C56.417,28.851,56.662,29.574,56.996,30.508z"></path><path fill="none" d="M49.821,11.361c-0.435,0.085-0.66,0.395-0.592,0.861c0.07,0.475,0.276,0.847,0.897,1.087   c0.156-0.507,0.344-0.909,0.389-1.317C50.567,11.519,50.245,11.277,49.821,11.361z"></path><path fill="none" d="M55.803,8.494c0.226,0.011,0.561-0.231,0.702-0.461c0.081-0.131-0.086-0.617-0.224-0.651   c-0.223-0.054-0.514,0.133-0.968,0.283C55.538,8.07,55.647,8.487,55.803,8.494z"></path><path fill="none" d="M48.549,13.748c-0.456,1.349,0.059,3.16,1.02,3.781c-0.045-1.014-0.09-2.015-0.138-3.103   C49.18,14.232,48.877,14,48.549,13.748z"></path><path fill="none" d="M57.318,19.278c0.551-0.1,0.763-0.417,0.936-1.373c-0.481-0.411-0.952-0.812-1.464-1.247   c-0.851,0.892-1.062,1.51-0.781,2.111C56.206,19.19,56.714,19.388,57.318,19.278z"></path><path fill="none" d="M41.929,24.249c-0.043,0.228-0.11,0.441-0.116,0.649c-0.018,0.633,0.232,1.052,0.593,1.047   c0.431-0.007,0.841-0.602,0.838-1.221c-0.001-0.18-0.011-0.36-0.013-0.436C42.686,24.272,42.324,24.261,41.929,24.249z"></path><path fill="none" d="M36.013,35.874c-0.246-0.044-0.62,0.068-0.801,0.259c-0.134,0.14-0.149,0.591-0.042,0.778   c0.169,0.295,0.486,0.485,0.739,0.719c0.027-0.032,0.054-0.065,0.082-0.097c0.132,0.096,0.251,0.237,0.4,0.279   c0.293,0.082,0.539-0.02,0.579-0.411C37.036,36.757,36.59,35.978,36.013,35.874z"></path><path fill="none" d="M49.622,30.595c-0.1,0.004-0.3,0.402-0.304,0.611c-0.009,0.51,0.116,0.987,0.603,1.366   c0.451-0.602,0.664-1.148,0.361-1.699C50.179,30.688,49.853,30.583,49.622,30.595z"></path><path fill="none" d="M46.723,21.957c-0.224,1.042-0.117,1.282,0.623,1.579c0.169-0.249,0.328-0.482,0.537-0.788   C47.685,22.306,47.428,21.813,46.723,21.957z"></path><path fill="none" d="M36.137,25.746c0.406-0.397,0.444-0.735-0.013-1.215C35.858,25.049,35.626,25.414,36.137,25.746z"></path><path fill="none" d="M74.468,40.224c0.145-0.449,0.285-0.823,0.38-1.205c0.084-0.34,0.069-0.74-0.31-0.749   c-0.237-0.006-0.572,0.213-0.743,0.435c-0.307,0.4-0.318,0.88-0.152,1.293C73.896,40.067,74.115,40.127,74.468,40.224z"></path><path fill="none" d="M70.831,34.761c-0.383-0.215-0.667-0.413-0.983-0.53c-0.099-0.037-0.392,0.129-0.412,0.227   c-0.089,0.457-0.15,0.927-0.14,1.382c0.003,0.131,0.271,0.328,0.423,0.318c0.13-0.008,0.398-0.31,0.378-0.407   C69.988,35.235,70.46,35.212,70.831,34.761z"></path><path fill="none" d="M77.36,45.866c0.493-0.232,0.833-1.317,0.662-1.841c-0.132-0.399-0.454-0.511-0.792-0.196   c-0.533,0.497-1.021,1.051-0.823,2.05C76.742,45.882,77.091,45.992,77.36,45.866z"></path><path fill="none" d="M75.147,22.097c-0.098-0.534-0.509-0.529-0.891-0.554c-0.52,0.588-0.26,1.133-0.218,1.693   C74.864,22.89,75.225,22.525,75.147,22.097z"></path><path fill="none" d="M61.454,37.417c0.354-0.088,0.352-0.449,0.164-0.696c-0.172-0.224-0.411-0.387-0.624-0.58   c-0.734,1.01-0.747,1.374-0.103,2.22C61.15,38.013,60.948,37.542,61.454,37.417z"></path><path fill="none" d="M64.688,19.575c-0.105,0.049-0.33,0.081-0.43,0.216c-0.252,0.336-0.139,0.893,0.21,0.987   c0.175,0.047,0.475-0.042,0.608-0.187C65.324,20.322,65.139,19.813,64.688,19.575z"></path><path fill="none" d="M70.123,20.117c0.262-0.278,0.082-1.154-0.24-1.229c-0.201-0.047-0.463,0.124-0.574,0.159   c-0.346,0.665-0.299,1.415,0.017,1.428C69.582,20.487,69.928,20.325,70.123,20.117z"></path><path fill="none" d="M63.482,31.24c-0.029-0.082-0.057-0.163-0.085-0.244c-0.166,0.075-0.333,0.152-0.499,0.227   c0.038,0.108,0.075,0.217,0.112,0.325C63.168,31.446,63.325,31.342,63.482,31.24z"></path><path fill="none" d="M60.633,16.574c0.164-0.079,0.363-0.368,0.363-0.547c0.004-0.495-0.468-0.831-1.193-0.869   c-0.003,0.391-0.07,0.789,0.01,1.135C59.912,16.72,60.304,16.731,60.633,16.574z"></path><path fill="none" d="M64.464,59.652c-0.241-0.395-0.635-0.404-1.008-0.024c-0.437,0.447-0.374,0.711,0.369,1.516   C64.715,60.505,64.827,60.247,64.464,59.652z"></path><path fill="none" d="M58.035,61.432c0.003-0.002-0.082-0.142-0.094-0.137c-0.15,0.081-0.293,0.177-0.438,0.269   c0.032,0.081,0.065,0.161,0.096,0.243C57.746,61.684,57.893,61.562,58.035,61.432z"></path><path fill="none" d="M68.972,62.951c0.106-0.321,0.076-0.682,0.107-1.05c-0.581-0.035-0.941,0.205-1.085,0.655   c-0.064,0.198,0.069,0.569,0.231,0.691C68.492,63.449,68.849,63.325,68.972,62.951z"></path><path fill="none" d="M67.631,73.025c0.498,0.016,0.728-1.038,1.348-0.48c0.222-0.748,0.178-1.347-0.119-1.479   c-0.116,0.164-0.236,0.334-0.38,0.539c-0.152-0.25-0.285-0.467-0.459-0.751C67.02,71.839,66.945,72.393,67.631,73.025z"></path><path fill="none" d="M69.31,78.071c0.728-0.273,0.987-0.947,0.77-1.97c-0.496,0.086-0.983,0.169-1.483,0.257   c0.085,0.314,0.096,0.793,0.039,1.026C68.488,77.989,68.767,78.276,69.31,78.071z"></path><path fill="none" d="M79.075,51.489c-0.738,0.625-0.211,1.174,0.058,1.718c0.792-0.035,1.221-0.262,1.265-0.829   c0.03-0.394-0.087-0.905-0.329-1.136C79.917,51.098,79.333,51.271,79.075,51.489z"></path><path fill="none" d="M53.932,60.667c0.384-0.441,0.153-0.785-0.291-1.261c-0.247,0.369-0.517,0.632-0.595,0.934   c-0.055,0.216,0.148,0.486,0.236,0.731C53.502,60.939,53.769,60.855,53.932,60.667z"></path><path fill="none" d="M68.184,55.542c0.214-0.178,0.46-0.32,0.643-0.527c0.163-0.185,0.26-0.437,0.396-0.678   c-0.324-0.124-0.558-0.156-0.72-0.286c-0.336-0.275-0.673-0.16-0.908,0.132c-0.21,0.26-0.403,0.646-0.408,0.959   C67.18,55.764,67.705,55.941,68.184,55.542z"></path><path fill="none" d="M33.771,92.148c-0.104-0.039-0.134-0.054-0.165-0.062c-0.424-0.111-0.848-0.206-1.189,0.291   c-0.297,0.431-0.241,0.863,0.02,1.192c0.288,0.366,0.661,0.587,1.051-0.038c0.045-0.073,0.266,0.002,0.384-0.053   c0.371-0.17,0.509-0.536,0.314-0.874C34.07,92.407,33.879,92.263,33.771,92.148z"></path><path fill="none" d="M28.722,53.149c-0.132,0.047-0.257,0.119-0.385,0.18c-0.43,0.199-0.701,0.508-0.638,1.029   c0.059,0.482,0.155,0.941,0.726,0.955c0.093,0.003,0.192-0.054,0.292-0.086c0.042-0.227,0.08-0.438,0.124-0.674   c0.21-0.003,0.404-0.006,0.614-0.007c0.081-0.172,0.197-0.333,0.228-0.504C29.836,53.197,29.48,52.873,28.722,53.149z"></path><path fill="none" d="M26.612,64.498c-0.362,0.161-0.736,0.577-0.907,0.969c-0.176,0.403,0.132,0.755,0.503,0.885   c0.481,0.166,0.984,0.274,1.49,0.41c0.417-0.907,0.148-1.47-0.162-1.927C27.369,64.588,26.861,64.388,26.612,64.498z"></path><path fill="none" d="M19.822,80.059c0.195,0.419,0.242,0.825-0.439,1.012c0.752,0.841,1.657,1.028,2.091,0.512   c-0.019-0.232-0.039-0.464-0.058-0.687c0.25-0.077,0.427-0.132,0.606-0.188C21.705,79.241,20.973,79.033,19.822,80.059z"></path><path fill="none" d="M42.919,51.657c-0.253-0.093-0.567-0.029-0.903-0.032c-0.074,0.703,0.264,0.918,0.73,0.935   c0.142,0.005,0.438-0.235,0.44-0.347C43.191,52.013,43.068,51.713,42.919,51.657z"></path><path fill="none" d="M36.484,57.173c-0.043,0.452,0.148,0.768,0.556,0.876c0.315,0.084,0.641,0.24,0.939-0.149   c0.378-0.491,0.362-0.977-0.109-1.83C36.96,56.36,36.528,56.695,36.484,57.173z"></path><path fill="none" d="M35.369,42.686c-0.602,0.8-0.656,1.077-0.346,1.503c0.275,0.377,0.903,0.572,1.261,0.373   c0.557-0.308,0.394-0.828,0.362-1.268C36.579,42.377,35.851,42.833,35.369,42.686z"></path><path fill="none" d="M44.938,84.575c0.052,0.508,0.243,0.606,0.935,0.482c0.098-0.538,0.196-1.076,0.313-1.712   C45.264,83.493,44.872,83.91,44.938,84.575z"></path><path fill="none" d="M58.843,81.926c0.092-0.073,0.115-0.254,0.184-0.417c-0.239,0.046-0.426,0.082-0.571,0.11   c-0.156-0.329-0.291-0.613-0.443-0.933c-0.6,0.412-0.71,0.865-0.635,1.42C57.89,82.279,58.377,82.293,58.843,81.926z"></path><path fill="none" d="M25.282,87.497c0.043,0.24,0.361,0.483,0.608,0.563c0.469,0.149,0.927,0.031,1.292-0.742   c-0.351-0.324-0.699-0.644-1.056-0.973C25.696,86.733,25.184,86.941,25.282,87.497z"></path><path d="M80.857,49.89c-0.106-0.177-0.465-0.259-0.702-0.228c-1.596,0.207-2.479,1.122-2.799,2.941   c-0.445,0.013-0.921,0.092-1.369,0.027c-2.551-0.365-5.109-0.71-7.638-1.171c-1.434-0.261-2.845-0.439-4.326-0.065   c-0.248,0.062-0.51,0.027-0.817,0.038c0.094-0.138,0.124-0.227,0.169-0.242c1.635-0.512,3.278-0.951,4.959-1.05   c0.714-0.041,1.431-0.107,2.143-0.208c0.681-0.098,1.343-0.229,1.996,0.057c0.248,0.108,0.6,0.038,0.895-0.03   c0.641-0.148,1.276-0.34,1.911-0.532c0.126-0.038,0.236-0.16,0.353-0.243c-0.015-0.053-0.03-0.107-0.046-0.161   c-0.636,0.091-1.273,0.18-1.909,0.27c-0.013-0.076-0.024-0.153-0.036-0.229c0.771-0.504,1.541-1.008,2.312-1.511   c0.09-0.06,0.173-0.152,0.267-0.176c0.13-0.031,0.268-0.009,0.402-0.015c1.86-0.079,2.353-0.583,2.538-2.605   c0.023-0.256,0.061-0.517,0.042-0.766c-0.066-0.845-0.923-1.739-1.611-1.519c-0.811,0.258-1.624,0.604-2.031,1.616   c-0.39,0.971-0.224,1.859-0.018,2.779c-0.263,0.202-0.48,0.4-0.72,0.55c-1.775,1.106-3.674,1.696-5.636,1.749   c-1.888,0.051-3.735,0.385-5.576,0.973c-0.246,0.078-0.496,0.131-0.744,0.195c-0.017-0.067-0.034-0.135-0.051-0.202   c3.699-1.358,7.235-3.188,10.826-4.858c-0.018-0.072-0.036-0.145-0.054-0.218c-0.612,0.131-1.225,0.262-1.875,0.401   c0.608-1.133,1.149-2.188,1.738-3.213c0.148-0.255,0.424-0.491,0.683-0.611c2.023-0.939,2.313-2.484,1.573-3.962   c-0.301-0.6-0.844-0.925-1.483-0.834c-0.61,0.087-1.258,0.389-1.518,1.078c-0.287,0.767-0.513,1.642-0.115,2.343   c0.462,0.814,0.243,1.465-0.258,2.187c-0.275,0.395-0.454,0.861-0.731,1.253c-0.295,0.419-0.612,0.849-0.995,1.167   c-0.697,0.579-1.465,1.056-2.179,1.614c-1.014,0.793-2.126,1.321-3.281,1.76c-1.444,0.55-2.915,1.029-4.314,1.706   c-1.594,0.771-3.122,1.728-4.682,2.6c-0.351,0.197-0.711,0.374-1.194,0.626c0.089-0.319,0.094-0.445,0.153-0.524   c0.154-0.206,0.326-0.401,0.501-0.588c1.652-1.754,3.534-3.138,5.514-4.411c1.624-1.045,3.242-1.944,5.113-2.051   c0.357-0.02,0.718-0.21,1.079-0.321c-0.011-0.06-0.02-0.118-0.03-0.177c-0.409-0.009-0.817-0.016-1.227-0.024   c0.38-0.432,0.778-0.669,1.145-0.955c1.97-1.537,3.631-3.305,3.953-6.011c0.105-0.874,0.193-1.732,0.531-2.585   c0.161-0.408,0.058-0.935,0.015-1.396c-0.065-0.682-0.425-1.084-1.077-1.18c-0.704-0.104-1.388-0.027-1.901,0.614   c-0.973,1.211-0.631,2.984,0.658,3.562c0.296,0.133,0.613,0.221,0.97,0.347c-0.288,1.837-0.866,3.44-2.612,4.696   c0.256-1.415,0.475-2.625,0.694-3.835c-0.62,1.464-1.115,2.935-1.585,4.413c-0.172,0.544-0.503,0.862-0.973,1.119   c-1.564,0.858-3.136,1.702-4.66,2.647c-1.644,1.018-3.323,1.997-4.726,3.439c-0.178,0.183-0.413,0.302-0.621,0.452   c0.706-1.185,1.516-2.232,2.312-3.291c1.384-1.842,2.692-3.742,3.402-5.973c0.324-1.016,0.656-2,1.106-2.982   c0.905-1.973-0.117-3.41-2.026-3.049c-0.862,0.163-1.639,1.172-1.547,2.098c0.085,0.855,0.436,1.564,1.126,2.012   c0.862,0.56,0.968,0.732,0.51,1.792c-0.532,1.226-1.171,2.408-1.793,3.592c-0.163,0.31-0.437,0.561-0.66,0.839   c-0.056-0.021-0.113-0.043-0.169-0.063c0.061-0.836,0.121-1.67,0.182-2.506c-0.157,0.133-0.183,0.27-0.211,0.405   c-0.35,1.707-0.682,3.422-1.775,4.87c-0.512,0.679-1.096,1.301-1.573,2.003c-0.795,1.165-1.527,2.375-2.292,3.562   c-0.118,0.184-0.264,0.348-0.397,0.522c0.426-2.157,0.95-4.233,1.51-6.299c0.504-1.861,1.081-3.705,1.566-5.568   c0.683-2.624,1.246-3.95,2.89-6.081c0.533-0.69,1.175-1.341,1.872-1.823c1.122-0.777,2.324-1.409,3.503-2.079   c1.859-1.056,3.828-1.272,5.802-1.277c1.115-0.003,2.215,0.17,3.327,0.222c1.243,0.056,2.444-0.215,3.709-1.021   c-1.212,0.16-2.269,0.398-3.312,0.413c-1.068,0.016-2.122-0.186-3.183-0.293c0.149-0.283,0.288-0.389,0.439-0.43   c0.87-0.236,1.744-0.461,2.616-0.683c1.66-0.42,3.299-0.876,4.526-2.406c0.129-0.161,0.425-0.198,0.649-0.243   c0.932-0.188,1.47-0.849,1.768-1.757c0.255-0.774-0.032-1.541-0.703-2.052c-0.496-0.38-1.264-0.387-1.815,0.026   c-0.633,0.473-0.775,1.14-0.683,1.869c0.027,0.214,0.05,0.438,0.13,0.627c0.188,0.433,0.047,0.833-0.283,1.082   c-0.689,0.518-1.383,1.125-2.147,1.4c-1.479,0.534-3.007,0.865-4.515,1.277c-1.07,0.293-2.146,0.553-3.211,0.878   c-0.811,0.248-1.608,0.574-2.412,0.865c0.144-0.244,0.336-0.383,0.539-0.494c2.086-1.139,4.325-1.611,6.523-2.256   c1.038-0.305,1.988-0.805,2.69-1.69c0.91-1.145,1.738-2.368,2.553-3.591c0.378-0.569,0.369-1.487-0.026-1.828   c-0.474-0.409-1.004-0.809-1.584-1.005c-0.991-0.335-1.971,0.208-2.302,1.184c-0.216,0.639-0.261,1.286-0.028,1.922   c0.292,0.8,0.861,1.279,1.607,1.635c-0.492,0.768-1.051,1.331-1.716,1.757c-1.672,1.072-3.55,1.152-5.363,1.722   c0.287-0.515,0.637-0.921,0.976-1.336c0.958-1.178,1.971-2.342,2.075-3.966c0.041-0.635,0.231-1.053,0.782-1.447   c0.741-0.53,1.18-1.346,0.989-2.306c-0.236-1.188-1.588-2.061-2.754-1.851c-0.6,0.108-1.031,0.476-1.291,1.054   c-0.372,0.829-0.452,1.676,0.058,2.378c0.39,0.536,0.893,0.974,1.45,1.565c0.165,1.418-0.816,2.519-1.749,3.61   c-0.585,0.684-1.069,1.544-2.089,1.947c0.224-0.48,0.367-0.776,0.502-1.076c0.525-1.177,0.703-2.359,0.172-3.483   c-0.324-0.685-0.374-1.257,0.124-2.001c0.51-0.764,0.434-1.662,0.014-2.386c-0.428-0.738-1.158-1.015-1.993-0.919   c-1.237,0.14-2.06,1.449-1.672,2.659c0.368,1.148,1.044,1.942,2.251,1.958c0.527,1.068,0.952,2.112,0.412,3.344   c-0.466,1.065-0.973,2.115-2.086,2.934c0.1-0.904,0.166-1.626,0.262-2.347c0.088-0.666,0.48-1.323,0.2-2.002   c-0.338,1.025-0.556,2.073-0.885,3.088c-0.315,0.971-0.695,1.933-1.147,2.849c-0.18,0.363-0.64,0.579-0.958,0.882   c-0.93,0.889-1.852,1.788-2.962,2.86c0.371-1.325,0.672-2.402,0.965-3.448c0.322,0.042,0.506,0.065,0.559,0.073   c1.185-2.159,2.312-4.208,3.511-6.392c-1.163,1.474-2.219,2.815-3.277,4.156c-0.066-0.019-0.131-0.04-0.196-0.059   c0.816-3.31,1.582-6.622,1.135-9.944c0.203-0.135,0.315-0.222,0.436-0.29c1.443-0.803,1.987-2.953,1.064-4.225   c-0.6-0.828-1.318-1.007-2.191-0.356c-0.579,0.432-1.034,1.071-1.583,1.659c-0.81-0.31-1.737-0.373-2.772-0.193   c0.74-1.145,1.48-2.29,2.22-3.435c-0.097,0.028-0.235,0.023-0.287,0.091c-1.069,1.366-2.126,2.743-3.192,4.11   c-0.102,0.13-0.255,0.216-0.584,0.488c0.13-0.576,0.16-0.938,0.293-1.26c0.626-1.511,1.29-3.007,1.919-4.517   c0.188-0.451,0.516-0.582,0.9-0.674c0.54-0.13,1.029-0.39,1.106-1.044c0.063-0.534,0.118-1.123-0.028-1.6   C57.44,6.589,57.034,5.863,56.649,5c-0.162,0.347-0.277,0.59-0.389,0.831c-0.829-0.003-1.533,0.225-1.806,1.124   c-0.307,1.009-0.275,1.968,0.482,2.693c0.165,0.157,0.308,0.339,0.501,0.554c-0.138,0.294-0.258,0.563-0.387,0.826   c-0.593,1.201-1.234,2.381-1.772,3.606c-0.803,1.828-0.856,3.715-0.643,5.597c0.06,0.535,0.248,1.051,0.124,1.858   c-0.216-0.384-0.323-0.555-0.413-0.736c-0.832-1.667-1.294-3.474-1.412-5.417c-0.049-0.809,0.037-1.577,0.345-2.373   c0.22-0.57,0.334-1.223,0.33-1.822c-0.007-0.845-0.644-1.445-1.478-1.594c-0.847-0.151-1.597,0.132-1.935,0.934   c-0.212,0.506-0.169,1.126-0.198,1.694c-0.023,0.425,0.043,0.845,0.039,1.27c-0.022,1.88,0.326,3.586,1.575,4.897   c0.25,0.264,0.504,0.561,0.643,0.904c0.595,1.476,1.456,2.75,2.384,3.97c1.113,1.462,1.761,3.202,2.33,4.982   c0.258,0.809,0.29,1.7,0.147,2.607c-0.72-1.588-1.873-2.677-3.189-3.634c-0.942-0.683-1.781-1.521-2.657-2.3   c-0.45-0.401-0.578-0.864-0.221-1.519c0.335-0.614,0.446-1.349,0.071-1.88c-0.402-0.572-0.938-1.063-1.503-1.453   c-0.473-0.327-1.171-0.069-1.588,0.431c-0.64,0.771-0.886,2.197-0.193,2.907c0.487,0.5,0.947,0.931,1.675,0.986   c0.238,0.018,0.544,0.149,0.661,0.343c0.958,1.605,2.324,2.708,3.815,3.69c1.299,0.856,2.176,2.113,2.492,3.765   c0.349,1.81,0.374,3.703-0.117,5.529c-0.531,1.982-1.377,3.893-2.092,5.832c-0.016,0.043-0.103,0.061-0.18,0.103   c-0.042-0.094-0.1-0.178-0.118-0.275c-0.431-2.205-0.895-4.401-1.27-6.622c-0.159-0.937-0.134-1.926-0.197-2.961   c1.05-0.139,1.219-0.852,1.215-1.627c-0.002-0.577-0.067-1.155-0.162-1.716c-0.163-0.958-1.035-1.681-1.955-1.699   c-0.563-0.011-0.992,0.24-1.322,0.757c-0.744,1.164-0.444,2.792,0.64,3.384c0.257,0.14,0.546,0.221,0.866,0.348   c-0.327,2.121,0.037,4.076,0.614,5.985c0.09,0.297,0.229,0.617,0.078,0.971c-0.733-0.969-1.451-1.872-2.123-2.816   c-1.165-1.638-2.558-3.085-3.46-4.943c-0.747-1.539-1.407-3.12-1.419-4.956c-0.002-0.366,0.081-0.815,0.28-1.116   c0.939-1.426,0.716-3.166-0.581-3.937c-0.656-0.39-1.37-0.312-2.045,0.13c-0.663,0.434-0.592,1.139-0.574,1.795   c0.004,0.176,0.071,0.348,0.119,0.516c0.321,1.091,1.146,1.552,2.011,1.807c0.167,1.277,0.215,2.52,0.511,3.669   c0.296,1.145,0.841,2.195,1.336,3.436c-0.463-0.12-0.774-0.2-1.082-0.28c-0.97-0.254-1.943-0.496-2.907-0.766   c-0.553-0.154-0.854-0.452-0.852-1.201c0.001-0.954-0.235-1.889-0.369-2.832c-0.046,0.007-0.091,0.012-0.137,0.018   c-0.046,0.996-0.091,1.992-0.137,2.998c-1.811-0.415-3.49-2.88-3.38-4.948c0.625-0.063,1.217-0.229,1.493-0.992   c0.373-1.026,0.333-1.975-0.306-2.75c-0.49-0.594-1.198-0.723-1.944-0.53c-0.671,0.175-0.922,0.843-1.092,1.424   c-0.249,0.853,0.113,1.539,0.607,2.15c0.246,0.303,0.475,0.651,0.607,1.029c0.23,0.661,0.373,1.364,0.564,2.045   c0.403,1.438,1.394,2.385,2.5,3.104c1.511,0.984,3.225,1.57,4.98,2.026c1.673,0.437,3.022,1.364,3.911,2.952   c0.166,0.297,0.349,0.61,0.597,0.819c1.27,1.061,2.086,2.489,2.686,4.071c0.251,0.663,0.324,1.415,0.48,2.126   c-0.327-0.168-0.476-0.423-0.678-0.619c-1.078-1.055-2.36-1.739-3.802-2.13c-0.863-0.233-1.717-0.495-2.583-0.746   c-0.055-0.649-0.095-1.187-0.146-1.722c-0.142-1.499-0.609-2.205-1.695-2.582c1.274,1.58,1.513,2.505,0.983,4.003   c-0.587-0.223-1.212-0.374-1.749-0.684c-0.887-0.512-1.729-1.109-2.567-1.704c-0.347-0.246-0.413-0.598-0.301-1.125   c0.469-2.198-0.924-3.452-2.971-2.74c-0.873,0.304-1.433,1.236-1.3,2.168c0.165,1.169,1.683,2.26,2.772,1.925   c0.53-0.163,0.871-0.101,1.255,0.295c0.797,0.821,1.651,1.615,2.731,1.997c1.757,0.622,3.548,1.158,5.333,1.705   c0.598,0.183,1.186,0.36,1.729,0.776c-0.145,0.145-0.209,0.263-0.286,0.282c-0.87,0.196-1.751,0.524-2.61,0.533   c-1.827,0.019-3.642-0.126-5.46-0.212c-0.479-0.023-0.753-0.262-0.928-0.772c-0.443-1.293-1.623-2.015-2.899-1.886   c-0.822,0.084-1.494,0.608-1.772,1.382c-0.28,0.783-0.039,1.714,0.577,2.224c1.14,0.946,2.084,0.95,3.459,0.048   c0.225-0.148,0.512-0.317,0.74-0.295c1.125,0.111,2.238,0.284,3.475,0.452c-1.632,1.325-3.578,2.089-4.472,4.177   c0.138,0.064,0.181,0.1,0.196,0.089c0.111-0.087,0.228-0.172,0.322-0.277c1.725-1.911,3.733-3.241,6.105-3.817   c1.346-0.326,2.691-0.664,4.043-0.928c0.331-0.064,0.8,0.02,1.01,0.246c1.222,1.308,2.015,2.912,1.684,4.906   c-0.453,2.727-1.08,5.436-1.625,8.153c-0.846,4.217-1.518,8.434-1.065,12.659c0.045,0.427,0.009,0.871,0.011,1.307   c-0.066,0.009-0.132,0.017-0.199,0.026c-0.188-1.049-0.445-2.083-0.543-3.149c-0.085-0.923,0.018-1.883,0.028-2.825   c0.024-2.33,0.005-4.656,0.076-6.987c0.044-1.447-0.027-2.91,0.378-4.392c-0.197,0.419-0.393,0.839-0.657,1.403   c-0.147-0.29-0.25-0.422-0.288-0.578c-0.228-0.921-0.702-1.662-1.294-2.331c-0.398-0.45-0.801-0.913-1.096-1.443   c-0.495-0.892-1.45-1.404-2.45-1.189c-0.639,0.138-1.296,0.871-1.46,1.631c-0.154,0.708,0.115,1.319,0.744,1.694   c0.71,0.423,1.422,0.281,2.128-0.197c0.317-0.213,0.622-0.449,0.973-0.704c0.727,0.93,1.39,1.77,1.649,2.927   c0.322,1.434,0.408,2.907,0.436,4.4c0.065,3.56,0.158,7.116,0.234,10.676c0.005,0.261-0.029,0.526-0.045,0.79   c-0.073,0.016-0.145,0.035-0.219,0.053c-0.203-0.589-0.482-1.154-0.596-1.77c-0.378-2.037-0.737-4.082-1.025-6.142   c-0.263-1.883-0.757-3.647-1.84-5.095c-0.521-0.698-1.136-1.384-1.857-1.81c-0.854-0.504-1.769-0.825-2.41-1.702   c-0.474-0.648-1.599-0.762-2.137-0.26c-0.704,0.654-1.479,1.384-1.471,2.471c0.002,0.431,0.223,0.921,0.495,1.231   c0.919,1.05,2.653,0.73,3.458-0.588c0.189-0.31,0.349-0.639,0.511-0.939c1.663,0.255,3.767,2.972,3.718,4.821   c-0.832-0.224-1.562-0.592-2.26-1.05c-0.71-0.463-1.41-0.976-2.333-0.958c0.338,0.259,0.723,0.43,1.069,0.661   c1.137,0.757,2.271,1.52,3.381,2.317c0.222,0.16,0.354,0.47,0.497,0.733c0.283,0.528,0.547,1.071,0.844,1.658   c-0.515,1.316,0.425,2.598,0.091,4.155c-0.499-0.367-0.931-0.618-1.287-0.959c-1.104-1.06-2.336-1.9-3.731-2.491   c-0.24-0.101-0.43-0.312-0.656-0.451c-0.421-0.26-0.825-0.577-1.284-0.744c-1.858-0.671-3.229-1.965-4.327-3.631   c-0.16-0.244-0.325-0.485-0.487-0.728c-0.056,0.037-0.111,0.075-0.166,0.113c0.413,0.782,0.827,1.564,1.304,2.469   c-2.929-0.739-4.522-3.209-4.526-6.801c0.243-0.242,0.57-0.46,0.741-0.768c0.223-0.401,0.437-0.882,0.447-1.314   c0.016-0.715-0.936-1.698-1.594-1.818c-0.8-0.146-1.753,0.341-2.242,1.145c-0.493,0.81-0.255,2.001,0.492,2.389   c0.47,0.243,0.957,0.452,1.538,0.724c-0.001,0.413-0.053,0.927,0.005,1.417c0.088,0.735,0.063,1.6,0.416,2.149   c1.287,1.996,3.022,3.419,5.277,4.12c0.801,0.248,1.516,0.747,2.271,1.131c-1.341,0.398-2.662,0.138-3.927,0.842   c0.302,0.11,0.611,0.182,0.925,0.18c0.882-0.002,1.766-0.035,2.649-0.053c1.111-0.023,2.136,0.209,3.03,0.875   c0.319,0.237,0.684,0.411,1.044,0.581c0.501,0.236,1.089,0.342,1.513,0.679c0.967,0.771,1.882,1.619,2.765,2.496   c0.333,0.331,0.518,0.83,0.771,1.253c-0.303,0.11-0.46,0.086-0.59,0.011c-2.458-1.417-5.218-1.816-8.027-1.965   c-1.7-0.09-3.355-0.299-4.899-0.945c-0.917-0.385-1.799-0.872-2.635-1.414c-0.727-0.471-0.774-0.857-0.33-1.69   c0.368-0.692,0.267-1.278-0.084-1.837c-0.62-0.989-2.132-1.436-3.252-0.975c-1.218,0.502-1.738,2.35-0.812,3.17   c0.86,0.76,1.875,1.298,3.106,0.76c1.537,2.246,3.891,3.002,6.325,3.677c-1.075,0.699-2.089,1.341-3.228,0.532   c-0.41-0.291-0.901-0.473-1.432-0.522c0.178,0.268,0.403,0.44,0.621,0.622c1.175,0.983,2.427,1.244,3.957,0.422   c1.072-0.575,2.246-0.788,3.413-0.57c0.192,0.036,0.443,0.086,0.597-0.012c0.631-0.397,1.196-0.144,1.776-0.029   c0.394,0.078,0.774,0.218,1.171,0.28c1.947,0.305,3.535,1.33,5.014,2.559c0.229,0.191,0.38,0.488,0.634,0.822   c-3.501,0.005-6.827,0.072-10.138-0.015c-1.787-0.047-3.545-0.364-5.316-0.555c-1.028-0.11-1.819-0.594-2.37-1.506   c-0.347-0.573-0.733-1.118-1.102-1.675c0.047,0.444,0.21,0.82,0.325,1.217c0.119,0.412,0.494,0.734,0.361,1.267   c-2.705-0.5-5.079-1.486-6.653-3.948c0.073,0.5,0.163,0.976,0.412,1.313c0.396,0.535,0.883,0.997,1.363,1.453   c0.285,0.269,0.613,0.498,0.953,0.684c0.506,0.276,1.041,0.497,1.564,0.741c-1.71,0.811-3.332,0.543-4.968,0.494   c0.366,0.198,0.738,0.377,1.128,0.391c1.277,0.04,2.563,0.006,3.842,0.027c1.111,0.017,2.243-0.042,3.315,0.154   c0.513,0.093,1.021,0.222,1.553,0.245c0.302,0.013,0.604,0.029,0.905,0.05c2.15,0.158,4.301,0.316,6.45,0.48   c0.266,0.02,0.527,0.077,0.79,0.116c-1.025,0.697-2.036,1.205-3.052,1.695c-0.149,0.072-0.333,0.09-0.493,0.075   c-1.134-0.102-2.263-0.221-3.397-0.324c-0.199-0.019-0.408-0.029-0.608,0.01c-1.626,0.31-3.135,0.983-4.502,2.125   c2.326-0.705,4.625-1.966,7.106-0.982c-0.207,0.179-0.326,0.328-0.474,0.402c-1.561,0.772-3.119,1.552-4.692,2.287   c-1.882,0.879-3.794,1.186-5.719,0.72c-0.332-0.08-0.639-0.246-0.981-0.382c0.108-0.346,0.16-0.56,0.242-0.762   c0.308-0.762,0.129-1.336-0.402-1.829c-1.278-1.189-3.359-0.357-4.026,1.625c-0.246,0.73-0.141,1.211,0.412,1.596   c0.819,0.569,1.738,0.725,2.689,0.18c0.467-0.267,0.809-0.217,1.238-0.054c1.832,0.699,3.756,0.732,5.686,0.015   c1.609-0.598,3.172-1.381,4.756-2.081c0.255-0.112,0.511-0.219,0.767-0.328c-0.683,0.757-1.44,1.305-2.165,1.9   c-0.36,0.296-0.727,0.634-0.975,1.031c-0.358,0.571-0.577,1.215-0.359,1.924c0.135-0.091,0.224-0.118,0.239-0.164   c0.507-1.637,1.715-2.533,3.033-3.313c0.733-0.433,1.263-1.084,1.724-1.821c0.166-0.267,0.362-0.579,0.61-0.719   c1.059-0.596,2.131-1.167,3.219-1.686c0.793-0.378,1.636-0.49,2.668-0.649c-0.35,0.671-0.584,1.164-0.858,1.634   c-1.343,2.31-3.059,4.28-5.005,6.018c-1.057,0.944-2.129,1.907-3.299,2.656c-1.353,0.866-2.81,0.904-4.203,0.443   c-0.035-0.194-0.055-0.297-0.071-0.402c-0.307-2.084-1.817-2.626-3.401-1.212c-0.19,0.169-0.379,0.353-0.528,0.562   c-0.454,0.64-0.422,1.754,0.046,2.226c0.898,0.907,2.325,0.85,3.314-0.129c0.151-0.149,0.316-0.282,0.459-0.408   c0.243,0.059,0.433,0.126,0.632,0.15c1.564,0.184,3.122,0.184,4.532-0.969c1.124-0.919,2.227-1.874,3.32-2.837   c0.608-0.536,1.179-1.121,1.764-1.683c0.054,0.044,0.108,0.088,0.162,0.131c-0.518,1.658-1.553,3.205-1.533,5.225   c0.424-1.011,0.736-1.798,1.085-2.569c0.261-0.575,0.604-1.116,0.849-1.697c0.169-0.401,0.367-0.876,0.318-1.262   c-0.079-0.634,0.211-1.031,0.535-1.494c0.827-1.186,1.683-2.358,2.401-3.611c0.509-0.887,1.121-1.208,1.971-1.112   c0.385,0.044,0.763,0.135,1.1,0.196c0.015,0.156,0.033,0.202,0.019,0.224c-0.121,0.186-0.242,0.371-0.373,0.55   c-0.906,1.248-1.592,2.597-1.914,4.116c-0.061,0.288-0.158,0.571-0.247,0.854c-0.544,1.732-1.2,3.445-1.609,5.202   c-0.503,2.166-1.7,3.781-3.292,5.122c-0.641,0.538-1.396,0.992-2.312,0.965c0.073-0.318,0.118-0.532,0.171-0.743   c0.184-0.74-0.013-1.256-0.616-1.617c-1.054-0.631-2.177-0.493-3.33-0.126c-0.12,0.038-0.283,0.157-0.317,0.268   c-0.192,0.626-0.402,1.256-0.503,1.896c-0.084,0.522,0.08,1.004,0.48,1.33c0.867,0.708,2.065,0.759,3.042,0.035   c0.404-0.3,0.786-0.415,1.241-0.454c1.36-0.118,2.522-0.778,3.474-1.897c0.524-0.616,1.008-1.272,1.52-1.901   c0.112-0.137,0.27-0.233,0.572-0.491c-0.265,1.05-0.436,1.883-0.688,2.693c-0.453,1.456-0.502,1.681-0.283,2.301   c0.137-0.533,0.249-1.07,0.414-1.593c0.467-1.488,0.94-2.976,1.444-4.453c0.212-0.619,0.341-1.226,0.148-1.821   c-0.148-0.45,0.01-0.838,0.151-1.269c0.419-1.269,0.828-2.542,1.179-3.827c0.396-1.452,0.952-2.825,1.851-4.03   c0.966-1.295,2.461-1.25,3.181,0.061c0.197,0.358,0.361,0.738,0.557,1.142c-1.575,0.738-2.034,2.186-2.844,3.319   c-0.306-0.052-0.572-0.076-0.825-0.146c-0.485-0.133-0.922,0.079-1.209,0.465c-0.463,0.625-0.817,1.336-0.836,2.14   c-0.018,0.794,0.616,1.677,1.272,1.819c0.665,0.144,1.544-0.343,1.859-1.158c0.193-0.499,0.349-1.127,0.24-1.595   c-0.176-0.747,0.093-1.27,0.497-1.82c0.517-0.705,0.953-1.509,1.919-1.85c0.143,0.375,0.304,0.713,0.402,1.076   c0.699,2.588,1.766,4.953,3.217,7.099c0.649,0.961,1.193,2.007,1.838,2.973c0.773,1.157,1.539,2.339,2.891,2.959   c-1.263-2.137-2.687-4.106-3.666-6.331c-0.976-2.221-2.088-4.425-2.434-7.025c0.473,0.16,1.06,0.287,1.242,0.666   c0.588,1.222,1.486,2.115,2.394,3.016c0.65,0.645,1.805,1.148,2.577,1.059c-1.907-0.768-3.294-2.021-4.251-3.995   c0.838,0.392,1.526,0.709,2.208,1.034c0.439,0.211,0.894,0.397,1.301,0.662c0.379,0.247,0.735,0.265,1.147,0.032   c1.202-0.681,1.555-1.758,0.994-3.054c-0.391-0.905-1.171-1.125-2-0.544c-0.683,0.479-1.155,1.097-1.01,2.181   c-0.847-0.346-1.61-0.476-2.124-1.107c-0.437-0.537-1.005-0.743-1.669-0.799c-0.303-0.025-0.68,0.097-0.973-0.369   c1.837-1.269,3.634-1.992,5.64-1.217c0.68,0.263,1.387,0.487,2.108,0.618c1.045,0.19,1.994,0.53,2.763,1.293   c1.109,1.1,2.575,1.33,4.037,1.562c0.109,0.017,0.233-0.029,0.35-0.047c-0.715-0.402-1.473-0.571-2.21-0.804   c-1.153-0.366-1.492-0.641-1.785-1.303c1.108-0.182,2.259-0.214,3.33-0.593c1.088-0.384,2.065-0.586,3.11-0.18   c0.505,0.196,1.02-0.09,1.345-0.62c0.481-0.785,0.741-1.633,0.601-2.532c-0.035-0.219-0.161-0.484-0.328-0.587   c-1.213-0.75-3.425,0.114-3.404,1.922c0.002,0.246-0.049,0.498-0.083,0.816c-1.912,0.845-3.823,1.001-5.742,0.737   c-0.695-0.096-1.381-0.241-2.063-0.393c-0.307-0.068-0.593-0.206-0.889-0.313c0.149-0.23,0.27-0.288,0.393-0.309   c1.218-0.207,2.442-0.363,3.654-0.623c1.568-0.335,3.083-0.853,4.34-2.113c0.24-0.242,0.593-0.4,0.911-0.494   c1.778-0.524,2.73-2.563,1.961-4.25c-0.241-0.53-0.707-0.824-1.214-0.681c-1.685,0.476-2.845,2.115-2.241,3.857   c0.091,0.261,0.191,0.517,0.279,0.756c-1.247,1.467-3.89,2.517-5.175,2.031c0.521-0.885,1.036-1.76,1.627-2.764   c-0.253,0.088-0.379,0.091-0.43,0.157c-0.496,0.642-1.055,1.252-1.448,1.956c-0.472,0.847-1.07,1.249-1.934,1.304   c-1.933,0.123-3.866,0.277-6.011,0.435c0.659-0.983,1.167-1.821,1.943-2.337c1.257-0.839,2.563-1.587,3.864-2.337   c0.952-0.549,1.959-0.734,2.996-0.671c1.05,0.065,2.11-0.302,2.831-0.956c-0.705,0.121-1.37,0.41-2.247,0.127   c0.843-0.37,1.489-0.62,2.112-0.933c2.373-1.188,4.235-2.86,4.796-5.767c0.06-0.308,0.274-0.6,0.435-0.888   c0.492-0.882,0.415-1.933-0.202-2.613c-0.52-0.574-1.129-0.622-1.693,0.007c-0.406,0.453-0.721,1.025-0.993,1.585   c-0.377,0.775-0.108,1.444,0.634,1.715c0.304,0.112,0.629,0.166,0.977,0.256c-0.427,1.653-1.34,2.834-2.613,3.776   c-1.599,1.186-3.415,1.706-5.163,2.434c-0.204,0.084-0.424,0.11-0.71,0.181c0.549-0.839,0.977-1.622,1.526-2.296   c0.578-0.711,1.266-1.321,1.913-1.966c0.415-0.414,0.855-0.799,1.263-1.22c0.397-0.41,0.401-0.455,0.585-1.306   c-0.694,0.986-1.552,1.494-2.512,2.051c0.705-2.267,1.613-4.273,3.296-6.07c-0.721,0.014-0.836-0.435-1.031-0.879   c-0.251-0.572-0.632-1.152-1.343-1.054c-0.845,0.116-1.451,0.707-1.843,1.536c-0.36,0.761-0.216,1.472,0.207,2.037   c0.243,0.326,0.688,0.472,1.12,0.748c-0.878,2.501-1.684,5.052-3.361,7.188c-0.073-0.022-0.146-0.046-0.22-0.068   c0.319-1.683,0.636-3.363,0.955-5.045c-0.222,0.262-0.321,0.54-0.382,0.824c-0.41,1.896-1.09,3.698-1.986,5.426   c-0.115,0.222-0.276,0.447-0.465,0.598c-0.832,0.674-1.693,1.229-2.36,2.207c-0.585,0.857-1.61,1.39-2.608,2.204   c0.36-0.858,0.64-1.528,0.919-2.198c0.098-0.237,0.249-0.473,0.28-0.715c0.179-1.454,0.295-2.913,0.498-4.365   c0.239-1.715,0.97-3.237,1.997-4.63c0.156,0.055,0.249,0.082,0.338,0.12c0.826,0.355,2.026-0.013,2.591-0.795   c0.533-0.74,0.553-2.228-0.025-2.873c-0.882-0.984-2.348-0.66-2.89,0.415c-0.278,0.551-0.492,1.106-0.374,1.693   c0.096,0.479-0.059,0.836-0.332,1.223c-1.047,1.479-1.751,3.102-2.053,4.892c-0.111,0.66-0.272,1.315-0.455,2.187   c-1.377-2.693-0.808-5.358-0.239-7.989c0.452-0.239,0.88-0.368,1.181-0.655c0.321-0.309,0.694-0.762,0.735-1.16   c0.072-0.711-0.019-1.45-0.173-2.133c-0.137-0.609-0.591-0.833-1.074-0.659c-1.381,0.496-2.606,2.694-1.416,3.87   c0.112,0.111,0.185,0.268,0.257,0.375c-0.575,1.589-0.762,3.159-0.832,4.732c-0.053,1.215,0.088,2.386,0.579,3.465   c0.243,0.535,0.396,1.127,0.566,1.704c0.068,0.232,0.16,0.514,0.094,0.734c-0.49,1.597-1.187,3.098-2.229,4.592   c-0.265-1.211-0.506-2.276-0.729-3.347c-0.404-1.935-0.373-3.947-0.429-5.942c-0.069-2.532,0.217-5.029,1.119-7.487   c0.604-1.646,1.243-3.255,2.337-4.654c0.577-0.74,1.185-1.214,2.098-1.28c1.206-0.086,2.334-0.016,3.477,0.372   c1.339,0.455,2.565,1.191,3.977,1.464c0.852,0.164,1.669,0.471,2.52,0.638c0.943,0.185,1.896-0.051,2.83-0.378   c0.729-0.255,1.288-0.764,1.684-1.48c0.43-0.775,0.352-1.937-0.158-2.434c-0.512-0.499-1.945-0.579-2.612-0.148   c-0.677,0.44-1.089,1.543-0.892,2.46c0.074,0.341,0.217,0.659,0.33,0.994c-0.999,0.265-2.774-0.084-3.602-0.694   c2.402-2.093,2.402-2.093,2.289-2.782c-0.336,0.283-0.616,0.555-0.926,0.775c-1.409,1.002-2.764,2.076-4.509,1.12   c-0.842-0.462-1.871-0.572-2.899-0.867c0.196-0.115,0.309-0.205,0.433-0.253c3.16-1.259,6.383-1.689,9.612-1.536   c1.648,0.078,3.263,0.422,4.886,0.672c0.207,0.031,0.475,0.171,0.552,0.352c0.274,0.651,0.797,0.876,1.385,1.059   c0.732,0.227,1.446,0.51,2.176,0.745c0.149,0.048,0.336-0.013,0.746-0.038c-1.041-0.555-1.863-0.993-2.685-1.431   c0.027-0.055,0.054-0.11,0.082-0.166c1.132,0.023,2.263,0.044,3.437,0.066c0.074,0.21,0.139,0.448,0.238,0.665   c0.246,0.539,0.843,0.901,1.409,0.734c1.102-0.323,1.937-1.062,2.391-2.22C81.902,51.477,81.329,50.679,80.857,49.89z    M77.231,43.829c0.338-0.315,0.66-0.203,0.792,0.196c0.171,0.524-0.169,1.609-0.662,1.841c-0.269,0.126-0.618,0.016-0.952,0.013   C76.209,44.88,76.697,44.326,77.231,43.829z M73.795,38.705c0.171-0.222,0.506-0.44,0.743-0.435   c0.379,0.009,0.394,0.409,0.31,0.749c-0.095,0.383-0.236,0.756-0.38,1.205c-0.353-0.098-0.571-0.157-0.825-0.227   C73.477,39.584,73.488,39.105,73.795,38.705z M70.097,35.752c0.02,0.097-0.248,0.399-0.378,0.407   c-0.152,0.01-0.42-0.186-0.423-0.318c-0.01-0.455,0.051-0.926,0.14-1.382c0.02-0.098,0.312-0.264,0.412-0.227   c0.316,0.117,0.6,0.315,0.983,0.53C70.46,35.212,69.988,35.235,70.097,35.752z M60.892,38.36c-0.644-0.846-0.631-1.209,0.103-2.22   c0.213,0.193,0.452,0.356,0.624,0.58c0.188,0.247,0.19,0.608-0.164,0.696C60.948,37.542,61.15,38.013,60.892,38.36z M74.038,23.236   c-0.043-0.56-0.302-1.105,0.218-1.693c0.382,0.025,0.792,0.02,0.891,0.554C75.225,22.525,74.864,22.89,74.038,23.236z    M69.308,19.047c0.112-0.035,0.373-0.207,0.574-0.159c0.322,0.075,0.502,0.951,0.24,1.229c-0.195,0.207-0.541,0.37-0.797,0.359   C69.009,20.462,68.963,19.713,69.308,19.047z M65.077,20.59c-0.133,0.144-0.433,0.234-0.608,0.187   c-0.349-0.093-0.462-0.651-0.21-0.987c0.101-0.135,0.325-0.167,0.43-0.216C65.139,19.813,65.324,20.322,65.077,20.59z    M63.397,30.996c0.028,0.081,0.056,0.162,0.085,0.244c-0.157,0.103-0.315,0.206-0.472,0.308c-0.037-0.108-0.074-0.217-0.112-0.325   C63.064,31.147,63.231,31.071,63.397,30.996z M59.804,15.157c0.725,0.039,1.196,0.374,1.193,0.869c0,0.179-0.199,0.468-0.363,0.547   c-0.329,0.158-0.721,0.146-0.819-0.281C59.734,15.946,59.801,15.548,59.804,15.157z M55.313,7.665   c0.455-0.149,0.745-0.337,0.968-0.283c0.138,0.034,0.305,0.52,0.224,0.651c-0.141,0.229-0.476,0.471-0.702,0.461   C55.647,8.487,55.538,8.07,55.313,7.665z M48.549,13.748c0.328,0.252,0.631,0.484,0.882,0.678c0.048,1.088,0.093,2.089,0.138,3.103   C48.608,16.907,48.093,15.097,48.549,13.748z M50.514,11.992c-0.045,0.408-0.233,0.811-0.389,1.317   c-0.622-0.24-0.828-0.612-0.897-1.087c-0.067-0.466,0.158-0.777,0.592-0.861C50.245,11.277,50.567,11.519,50.514,11.992z    M56.791,16.658c0.511,0.435,0.982,0.837,1.464,1.247c-0.173,0.956-0.385,1.273-0.936,1.373c-0.604,0.11-1.113-0.087-1.308-0.509   C55.729,18.167,55.94,17.55,56.791,16.658z M54.613,24.122c-0.42-1.189-0.833-2.39-1.127-3.628   c-0.35-1.477,0.147-2.828,1.099-4.065c-0.033,1.541-0.077,3.059,1.435,3.75c0.96,0.439,1.9,0.276,2.757-0.557   c0.365,0.862,0.164,3.469-0.371,4.663c-0.237-0.528-0.46-1.024-0.681-1.521c-0.225-0.502-0.448-1.004-0.738-1.652   c-0.009,0.311-0.063,0.511-0.012,0.665c0.153,0.467,0.332,0.924,0.528,1.37c0.746,1.681,0.762,3.446,0.143,5.295   c-0.206,0.614-0.389,1.235-0.65,2.068c-0.334-0.934-0.579-1.658-0.849-2.369C55.64,26.798,55.09,25.476,54.613,24.122z    M47.345,23.536c-0.74-0.297-0.847-0.536-0.623-1.579c0.705-0.145,0.962,0.348,1.159,0.791   C47.674,23.054,47.515,23.288,47.345,23.536z M49.921,32.572c-0.487-0.378-0.611-0.855-0.603-1.366   c0.004-0.209,0.204-0.607,0.304-0.611c0.231-0.012,0.558,0.093,0.66,0.278C50.585,31.423,50.372,31.97,49.921,32.572z    M42.406,25.945c-0.361,0.005-0.611-0.415-0.593-1.047c0.005-0.208,0.073-0.421,0.116-0.649c0.395,0.012,0.757,0.023,1.302,0.039   c0.002,0.077,0.012,0.256,0.013,0.436C43.247,25.344,42.837,25.938,42.406,25.945z M36.125,24.53   c0.456,0.481,0.419,0.819,0.013,1.215C35.626,25.414,35.858,25.049,36.125,24.53z M36.97,37.4c-0.04,0.391-0.286,0.493-0.579,0.411   c-0.15-0.042-0.268-0.183-0.4-0.279c-0.028,0.033-0.054,0.065-0.082,0.097c-0.254-0.234-0.57-0.424-0.739-0.719   c-0.107-0.187-0.092-0.639,0.042-0.778c0.182-0.191,0.555-0.303,0.801-0.259C36.59,35.978,37.036,36.757,36.97,37.4z    M36.283,44.562c-0.358,0.198-0.986,0.004-1.261-0.373c-0.31-0.426-0.256-0.702,0.346-1.503c0.482,0.147,1.21-0.309,1.276,0.608   C36.677,43.734,36.84,44.253,36.283,44.562z M42.747,52.56c-0.466-0.017-0.804-0.232-0.73-0.935   c0.335,0.003,0.65-0.061,0.903,0.032c0.149,0.056,0.271,0.356,0.267,0.556C43.185,52.324,42.889,52.564,42.747,52.56z M37.979,57.9   c-0.299,0.388-0.625,0.233-0.939,0.149c-0.408-0.108-0.599-0.424-0.556-0.876c0.045-0.477,0.476-0.812,1.387-1.103   C38.341,56.923,38.357,57.409,37.979,57.9z M28.84,54.553c-0.043,0.236-0.082,0.447-0.124,0.674   c-0.1,0.032-0.199,0.089-0.292,0.086c-0.571-0.015-0.668-0.473-0.726-0.955c-0.063-0.522,0.208-0.831,0.638-1.029   c0.129-0.06,0.254-0.132,0.385-0.18c0.758-0.276,1.114,0.049,0.961,0.894c-0.031,0.171-0.147,0.331-0.228,0.504   C29.244,54.548,29.05,54.55,28.84,54.553z M27.698,66.761c-0.506-0.136-1.009-0.244-1.49-0.41c-0.372-0.13-0.679-0.481-0.503-0.885   c0.171-0.393,0.545-0.808,0.907-0.969c0.249-0.11,0.757,0.09,0.924,0.337C27.846,65.292,28.116,65.854,27.698,66.761z    M21.416,80.895c0.019,0.223,0.039,0.455,0.058,0.687c-0.434,0.516-1.339,0.33-2.091-0.512c0.682-0.186,0.634-0.593,0.439-1.012   c1.15-1.026,1.883-0.817,2.2,0.648C21.843,80.763,21.666,80.818,21.416,80.895z M25.891,88.06c-0.248-0.08-0.566-0.323-0.608-0.563   c-0.098-0.556,0.414-0.764,0.844-1.152c0.357,0.329,0.705,0.648,1.056,0.973C26.817,88.091,26.36,88.209,25.891,88.06z    M33.872,93.479c-0.119,0.054-0.34-0.02-0.384,0.053c-0.39,0.625-0.763,0.404-1.051,0.038c-0.261-0.33-0.318-0.761-0.02-1.192   c0.341-0.497,0.765-0.402,1.189-0.291c0.031,0.009,0.061,0.023,0.165,0.062c0.108,0.115,0.299,0.258,0.415,0.457   C34.381,92.943,34.242,93.31,33.872,93.479z M45.873,85.058c-0.691,0.124-0.882,0.026-0.935-0.482   c-0.066-0.666,0.326-1.082,1.247-1.23C46.068,83.982,45.971,84.52,45.873,85.058z M58.013,80.686   c0.151,0.32,0.287,0.605,0.443,0.933c0.145-0.028,0.332-0.064,0.571-0.11c-0.069,0.164-0.092,0.345-0.184,0.417   c-0.466,0.367-0.952,0.353-1.464,0.18C57.303,81.551,57.413,81.098,58.013,80.686z M68.598,76.358   c0.499-0.087,0.986-0.171,1.483-0.257c0.217,1.024-0.042,1.697-0.77,1.97c-0.543,0.205-0.822-0.082-0.674-0.688   C68.694,77.151,68.683,76.671,68.598,76.358z M68.02,70.853c0.174,0.284,0.307,0.502,0.459,0.751   c0.144-0.205,0.264-0.375,0.38-0.539c0.297,0.132,0.341,0.732,0.119,1.479c-0.62-0.557-0.85,0.496-1.348,0.48   C66.945,72.393,67.02,71.839,68.02,70.853z M68.225,63.247c-0.162-0.122-0.295-0.493-0.231-0.691   c0.144-0.449,0.504-0.69,1.085-0.655c-0.032,0.368-0.001,0.73-0.107,1.05C68.849,63.325,68.492,63.449,68.225,63.247z    M63.456,59.628c0.373-0.38,0.766-0.371,1.008,0.024c0.363,0.595,0.251,0.853-0.639,1.493   C63.083,60.339,63.019,60.076,63.456,59.628z M57.941,61.295c0.012-0.006,0.097,0.135,0.094,0.137   c-0.141,0.13-0.289,0.252-0.436,0.375c-0.031-0.082-0.064-0.162-0.096-0.243C57.648,61.472,57.791,61.376,57.941,61.295z    M53.047,60.339c0.078-0.302,0.348-0.565,0.595-0.934c0.444,0.476,0.675,0.82,0.291,1.261c-0.164,0.188-0.43,0.273-0.65,0.403   C53.194,60.825,52.992,60.555,53.047,60.339z M67.596,54.183c0.236-0.293,0.572-0.408,0.908-0.132   c0.161,0.13,0.396,0.162,0.72,0.286c-0.136,0.241-0.233,0.493-0.396,0.678c-0.183,0.207-0.429,0.349-0.643,0.527   c-0.479,0.399-1.005,0.222-0.996-0.4C67.193,54.829,67.386,54.443,67.596,54.183z M80.398,52.377   c-0.044,0.567-0.472,0.794-1.265,0.829c-0.269-0.544-0.796-1.093-0.058-1.718c0.258-0.218,0.842-0.391,0.993-0.248   C80.31,51.472,80.428,51.984,80.398,52.377z"></path><polygon points="57.559,11.783 57.555,11.789 57.556,11.789  "></polygon></g></svg>