<svg fill="#00DCFF" xmlns="http://www.w3.org/2000/svg" xmlns:xlink="http://www.w3.org/1999/xlink" version="1.0" x="0px" y="0px" viewBox="0 0 100 100" enable-background="new 0 0 100 100" xml:space="preserve"><path d="M53.3085861,49.5628281c-19.3611069,8.0378265-39.3016396,28.0336609-21.316864,45.2003708  C19.4013691,64.0222702,68.07724,54.7190208,82.196106,29.3690071  C73.5170593,38.3291016,63.7428207,44.6213379,53.3085861,49.5628281z"></path><path d="M85.4303894,6.3635068c2.9480743,8.2407665-2.2831268,16.3354435-8.7798538,21.1192837  C72.9155579,18.1197014,81.7487488,13.7025375,85.4303894,6.3635068L85.4303894,6.3635068z"></path><path d="M64.6676712,36.0621758c4.9602661-8.8972626,9.1980133-20.4709454,6.6559219-30.7066727  C69.4636841,12.9035635,52.3181229,29.5841236,64.6676712,36.0621758z"></path><path d="M49.6239548,43.9986877c4.4191246-10.4876823,9.3964157-24.3098221,6.7656975-36.1419525  C54.5348015,15.9342823,35.9454308,38.1754761,49.6239548,43.9986877z"></path><path d="M35.6653137,52.9749794c3.2563591-10.6473923,6.329483-22.6327381,5.1132736-33.8256073  C37.9837227,27.078764,25.2511978,46.0410042,35.6653137,52.9749794z"></path><path d="M26.1710911,40.7603836c0,0,2.4292183,13.793354-3.4608479,29.2422333  C22.7102432,70.0026169,12.4703856,59.2288361,26.1710911,40.7603836z"></path></svg>