<svg fill="#00DCFF" xmlns="http://www.w3.org/2000/svg" xmlns:xlink="http://www.w3.org/1999/xlink" version="1.1" x="0px" y="0px" viewBox="0 0 100 100" enable-background="new 0 0 100 100" xml:space="preserve"><g><g><g><path d="M50,92.666c-0.763,0-1.381-0.836-1.381-1.865V17.036c0-1.03,0.618-1.864,1.381-1.864c0.762,0,1.38,0.834,1.38,1.864     v73.765C51.38,91.83,50.762,92.666,50,92.666z"></path></g></g><g><polygon points="49.693,39.207 39.056,28.569 41.007,26.618 49.693,35.305 58.687,26.312 60.638,28.264   "></polygon></g><g><path d="M37.577,30.141c-2.926,0-5.306-2.38-5.306-5.307c0-2.926,2.38-5.307,5.306-5.307s5.307,2.381,5.307,5.307    C42.884,27.761,40.503,30.141,37.577,30.141z M37.577,22.288c-1.404,0-2.544,1.142-2.544,2.546s1.14,2.547,2.544,2.547    c1.404,0,2.545-1.143,2.545-2.547S38.981,22.288,37.577,22.288z"></path></g><g><path d="M62.421,30.141c-2.925,0-5.306-2.38-5.306-5.307c0-2.926,2.381-5.307,5.306-5.307c2.926,0,5.308,2.381,5.308,5.307    C67.729,27.761,65.347,30.141,62.421,30.141z M62.421,22.288c-1.404,0-2.545,1.142-2.545,2.546s1.141,2.547,2.545,2.547    c1.405,0,2.546-1.143,2.546-2.547S63.826,22.288,62.421,22.288z"></path></g><g><path d="M50,17.947c-2.926,0-5.306-2.38-5.306-5.306c0-2.927,2.38-5.308,5.306-5.308c2.927,0,5.307,2.381,5.307,5.308    C55.307,15.567,52.926,17.947,50,17.947z M50,10.096c-1.405,0-2.546,1.141-2.546,2.546c0,1.404,1.141,2.546,2.546,2.546    c1.404,0,2.545-1.142,2.545-2.546C52.545,11.236,51.403,10.096,50,10.096z"></path></g><g><g><polygon points="49.693,56.691 39.056,46.054 41.007,44.102 49.693,52.788 58.687,43.796 60.638,45.747    "></polygon></g><g><path d="M37.577,47.625c-2.926,0-5.306-2.382-5.306-5.307c0-2.927,2.38-5.308,5.306-5.308s5.307,2.381,5.307,5.308     C42.884,45.243,40.503,47.625,37.577,47.625z M37.577,39.772c-1.404,0-2.544,1.142-2.544,2.546c0,1.403,1.14,2.546,2.544,2.546     c1.404,0,2.545-1.143,2.545-2.546C40.122,40.914,38.981,39.772,37.577,39.772z"></path></g><g><path d="M62.421,47.625c-2.925,0-5.306-2.382-5.306-5.307c0-2.927,2.381-5.308,5.306-5.308c2.926,0,5.308,2.381,5.308,5.308     C67.729,45.243,65.347,47.625,62.421,47.625z M62.421,39.772c-1.404,0-2.545,1.142-2.545,2.546c0,1.403,1.141,2.546,2.545,2.546     c1.405,0,2.546-1.143,2.546-2.546C64.968,40.914,63.826,39.772,62.421,39.772z"></path></g></g><g><g><polygon points="49.693,74.176 39.056,63.538 41.007,61.586 49.693,70.271 58.687,61.279 60.638,63.23    "></polygon></g><g><path d="M37.577,65.108c-2.926,0-5.306-2.381-5.306-5.307c0-2.928,2.38-5.308,5.306-5.308s5.307,2.38,5.307,5.308     C42.884,62.728,40.503,65.108,37.577,65.108z M37.577,57.255c-1.404,0-2.544,1.143-2.544,2.547s1.14,2.546,2.544,2.546     c1.404,0,2.545-1.142,2.545-2.546S38.981,57.255,37.577,57.255z"></path></g><g><path d="M62.421,65.108c-2.925,0-5.306-2.381-5.306-5.307c0-2.928,2.381-5.308,5.306-5.308c2.926,0,5.308,2.38,5.308,5.308     C67.729,62.728,65.347,65.108,62.421,65.108z M62.421,57.255c-1.404,0-2.545,1.143-2.545,2.547s1.141,2.546,2.545,2.546     c1.405,0,2.546-1.142,2.546-2.546S63.826,57.255,62.421,57.255z"></path></g></g></g></svg>