<svg fill="#00DCFF" xmlns="http://www.w3.org/2000/svg" xmlns:xlink="http://www.w3.org/1999/xlink" version="1.1" x="0px" y="0px" viewBox="0 0 100 100" enable-background="new 0 0 100 100" xml:space="preserve"><path fill="#00DCFF" d="M94.739,70.266c-1.214-2.754-4.942-1.694-5.411,0.634c-7.122-0.117-14.366-0.297-21.195-2.448  c-3.692-1.163-7.182-2.925-10.202-5.363c-2.861-2.308-4.449-4.95-6.113-7.855c8.132,5.303,20.73,4.654,29.72,1.803  c1.116,2.491,5.003,0.778,3.897-1.733c-0.989-2.245-4.203-1.11-4.087,0.952c-4.751,0.908-9.631,1.174-14.436,0.571  c-3.61-0.453-6.797-1.641-10.025-2.808c9.879-1.41,19.574-5.265,28.031-10.325c0.996,1.004,3.058-0.097,2.377-1.642  c-0.741-1.681-3.291-0.612-2.737,1.039c-9.949,4.443-19.974,6.828-30.599,8.426c3.396-3.818,6.591-7.638,10.82-10.794  c4.186-3.124,8.855-5.757,13.714-7.767c2.001,3.543,7.885,0.826,6.142-3.13c-1.731-3.928-7.659-1.479-6.475,2.359  C68.04,35.006,57.44,41.065,51.601,49.969c0.763-4.14,1.836-8.063,4.154-11.946c2.757-4.615,6.461-8.627,10.87-11.677  c1.731,1.77,5.341-0.15,4.152-2.848c-1.328-3.014-6.015-0.955-4.685,2.065c0.043,0.097,0.098,0.174,0.147,0.26  c-7.056,4.157-13.214,11.135-15.877,19.086c-0.061-0.845-0.094-1.695-0.059-2.56c0.179-4.398,1.142-8.73,2.866-12.782  c3.254-7.649,9.182-13.505,16.279-17.577c1.788,1.867,5.56-0.128,4.322-2.935c-1.338-3.035-5.941-1.107-4.946,1.874  c-7.669,3.404-13.902,9.414-17.664,17.007c-3.194,6.446-5.375,16.378-3.064,23.883c-5.025,1.364-10.067,3.831-14.598,5.995  c-5.239,2.502-10.33,5.489-14.765,9.257C11.394,73.308,5.228,81.997,5,91.901c-0.012,0.535,0.829,0.851,0.989,0.244  c2.561-9.684,7.727-17.765,15.687-23.912c4.507-3.48,9.571-6.15,14.769-8.436c3.806-1.674,7.997-2.833,11.876-4.469  c1.994,6.857,9.699,12.011,15.914,14.322c8.012,2.979,16.702,2.926,25.147,2.447c0.041,0.152,0.082,0.305,0.151,0.462  C91.009,75.909,96.217,73.621,94.739,70.266z"></path></svg>