<svg fill="#FFFFFF" xmlns="http://www.w3.org/2000/svg" xmlns:xlink="http://www.w3.org/1999/xlink" version="1.1" x="0px" y="0px" viewBox="0 0 100 100" enable-background="new 0 0 100 100" xml:space="preserve"><path fill="#FFFFFF" d="M28.742,60.309l17.476,12.205c-0.07,0.153-0.115,0.322-0.115,0.505c0,0.663,0.54,1.202,1.203,1.202  c0.135,0,0.262-0.036,0.385-0.08l3.526,6.374c-0.082,0.099-0.138,0.219-0.138,0.354c0,0.305,0.258,0.562,0.562,0.562  c0.013,0,0.023-0.006,0.036-0.007l0.43,0.933c-0.318,0.219-0.543,0.568-0.543,0.974c0,0.663,0.539,1.202,1.202,1.202  c0.214,0,0.403-0.068,0.576-0.162l7.986,9.838c-0.046,0.082-0.08,0.174-0.08,0.275c0,0.305,0.234,0.562,0.562,0.562  c0.307,0,0.539-0.258,0.539-0.562c0-0.007-0.003-0.013-0.003-0.02l8.507-3.785c0.215,0.326,0.567,0.556,0.986,0.556  c0.652,0,1.203-0.552,1.203-1.204c0-0.664-0.551-1.226-1.203-1.226c-0.662,0-1.201,0.55-1.201,1.226c0,0.1,0.033,0.188,0.057,0.281  l-8.497,3.781c-0.097-0.105-0.232-0.172-0.388-0.172c-0.062,0-0.117,0.017-0.172,0.033l-7.979-9.828  c0.188-0.211,0.31-0.484,0.31-0.796c0-0.663-0.54-1.204-1.203-1.204c-0.104,0-0.199,0.035-0.296,0.062l-0.43-0.93  c0.1-0.102,0.164-0.24,0.164-0.39c0-0.306-0.258-0.562-0.563-0.562c-0.026,0-0.049,0.012-0.074,0.015l-3.529-6.379  c0.279-0.222,0.472-0.549,0.472-0.924c0-0.445-0.254-0.819-0.614-1.027l5.996-15.857c0.071,0.014,0.137,0.044,0.211,0.044  c0.058,0,0.106-0.025,0.161-0.033l1.512,4.866c-0.13,0.104-0.221,0.257-0.221,0.433c0,0.266,0.199,0.484,0.451,0.539l0.203,1.191  c-0.162,0.1-0.279,0.271-0.279,0.471c0,0.307,0.258,0.562,0.562,0.562c0.215,0,0.4-0.131,0.494-0.312l10.15,1.001  c0.066,0.245,0.278,0.413,0.533,0.413c0.219,0,0.408-0.123,0.501-0.312l5.294,0.51c0.069,0.232,0.28,0.412,0.531,0.412  c0.305,0,0.562-0.258,0.562-0.562s-0.258-0.562-0.562-0.562c-0.214,0-0.399,0.131-0.494,0.312l-5.303-0.518  c-0.072-0.229-0.281-0.404-0.529-0.404c-0.211,0-0.394,0.128-0.489,0.305l-10.157-0.992c-0.059-0.197-0.219-0.346-0.42-0.39  L56.4,61.922c0.168-0.1,0.279-0.274,0.279-0.479c0-0.293-0.218-0.536-0.525-0.557l-1.508-4.855c0.336-0.174,0.566-0.496,0.625-0.884  l3.645-0.036c0.102,0.561,0.57,0.996,1.162,0.996c0.662,0,1.201-0.537,1.202-1.199l7.485-1.223c0.1,0.164,0.272,0.281,0.474,0.281  c0.306,0,0.563-0.257,0.563-0.562s-0.258-0.562-0.563-0.562c-0.264,0-0.481,0.197-0.538,0.447l-7.497,1.225  c-0.16-0.475-0.591-0.813-1.126-0.813c-0.605,0-1.07,0.434-1.165,1.008l-3.652,0.037c-0.107-0.558-0.565-0.975-1.158-0.975  c-0.292,0-0.552,0.118-0.76,0.292L41.139,43.942c0.102-0.177,0.177-0.371,0.177-0.589c0-0.65-0.52-1.173-1.164-1.195l-1.224-8.668  c0.178-0.091,0.294-0.267,0.294-0.494c0-0.226-0.13-0.425-0.331-0.514l0.456-7.494c0.211-0.023,0.399-0.102,0.563-0.222  c0.195,0.396,0.59,0.67,1.069,0.67c0.469,0,0.866-0.278,1.064-0.671l13.625,3.983c-0.007,0.05-0.029,0.094-0.029,0.146  c0,0.664,0.539,1.204,1.203,1.204c0.116,0,0.222-0.036,0.328-0.066l3.036,6.194c-0.305,0.216-0.514,0.555-0.514,0.965  c0,0.674,0.528,1.203,1.203,1.203s1.204-0.528,1.204-1.203c0-0.675-0.529-1.203-1.204-1.203c-0.118,0-0.223,0.035-0.329,0.065  l-3.037-6.197c0.305-0.219,0.516-0.558,0.516-0.96c0-0.674-0.529-1.202-1.203-1.202c-0.479,0-0.875,0.273-1.07,0.67l-13.62-3.983  c0.006-0.05,0.03-0.095,0.03-0.147c0-0.652-0.551-1.202-1.203-1.202c-0.259,0-0.486,0.1-0.683,0.239  c-0.068-0.139-0.159-0.262-0.272-0.365l5.275-8.231c0.036,0.008,0.07,0.022,0.108,0.022c0.304,0,0.562-0.257,0.562-0.562  c0-0.305-0.258-0.562-0.562-0.562c-0.306,0-0.562,0.257-0.562,0.562c0,0.122,0.049,0.23,0.118,0.323l-5.271,8.224  c-0.145-0.062-0.304-0.097-0.471-0.097c-0.664,0-1.203,0.54-1.203,1.203c0,0.578,0.401,1.041,0.929,1.17l-0.453,7.51  c-0.226,0.073-0.398,0.282-0.398,0.528c0,0.28,0.191,0.482,0.436,0.538l1.223,8.687c-0.001,0-0.002,0-0.003,0l-3.398-6.629  c0.3-0.219,0.509-0.556,0.509-0.955c0-0.633-0.496-1.14-1.117-1.186l-0.828-8.921c0.514-0.137,0.89-0.578,0.89-1.141  c0-0.58-0.421-1.043-0.968-1.155l0.331-15.367c0.582-0.084,1.037-0.565,1.037-1.169c0-0.652-0.551-1.203-1.203-1.203  c-0.664,0-1.203,0.54-1.203,1.203c0,0.591,0.415,1.048,0.97,1.157L34.44,22.22c-0.581,0.084-1.036,0.565-1.036,1.169  c0,0.644,0.487,1.141,1.117,1.186l0.828,8.92c-0.514,0.137-0.891,0.579-0.891,1.142c0,0.674,0.528,1.202,1.203,1.202  c0.12,0,0.228-0.036,0.337-0.068l3.401,6.634c-0.291,0.218-0.489,0.549-0.489,0.949c0,0.325,0.127,0.612,0.33,0.826L28.437,58.404  c-0.168-0.091-0.352-0.156-0.556-0.156c-0.663,0-1.203,0.55-1.203,1.227c0,0.663,0.54,1.203,1.203,1.203  C28.22,60.678,28.523,60.535,28.742,60.309z M71.84,89.804c0.094,0,0.203,0.099,0.203,0.226c0,0.1-0.104,0.204-0.203,0.204  c-0.121,0-0.201-0.105-0.201-0.204C71.639,89.92,71.709,89.804,71.84,89.804z M52.97,83.329c0,0.218-0.405,0.271-0.405,0  c0-0.099,0.104-0.204,0.202-0.204C52.889,83.125,52.97,83.23,52.97,83.329z M61.102,37.19c0,0.242-0.407,0.242-0.407,0  c0-0.122,0.081-0.203,0.203-0.203S61.102,37.069,61.102,37.19z M56.844,28.692c0.123,0,0.203,0.079,0.203,0.202  c0,0.098-0.078,0.204-0.203,0.204c-0.121,0-0.203-0.105-0.203-0.204C56.641,28.773,56.723,28.692,56.844,28.692z M35.005,5.495  c0.101,0,0.203,0.102,0.203,0.203c0,0.272-0.407,0.219-0.406,0C34.802,5.6,34.883,5.495,35.005,5.495z M34.404,23.389  c0-0.098,0.082-0.203,0.203-0.203c0.121,0,0.202,0.105,0.202,0.203C34.809,23.632,34.404,23.63,34.404,23.389z M35.458,34.637  c0-0.124,0.08-0.204,0.203-0.204c0.098,0,0.203,0.082,0.203,0.204C35.863,34.909,35.458,34.857,35.458,34.637z M47.307,73.221  c-0.122,0-0.203-0.104-0.203-0.202c0-0.122,0.082-0.204,0.203-0.204c0.098,0,0.203,0.082,0.203,0.204  C47.51,73.117,47.405,73.221,47.307,73.221z M47.519,71.857c-0.071-0.013-0.137-0.043-0.212-0.043c-0.345,0-0.648,0.141-0.866,0.365  L28.966,59.977c0.072-0.153,0.118-0.321,0.118-0.502c0-0.322-0.128-0.61-0.328-0.829l10.809-14.234  c0.166,0.084,0.346,0.144,0.548,0.144c0.299,0,0.564-0.121,0.775-0.302l12.198,10.118c-0.107,0.18-0.188,0.379-0.188,0.604  c0,0.437,0.258,0.812,0.617,1.022L47.519,71.857z M60.078,54.702c0.121,0,0.203,0.082,0.203,0.204c0,0.097-0.082,0.201-0.203,0.201  c-0.126,0-0.203-0.104-0.203-0.201C59.875,54.782,59.954,54.702,60.078,54.702z M54.103,54.772c0.122,0,0.203,0.081,0.203,0.203  c0,0.098-0.081,0.202-0.203,0.202c-0.099,0-0.204-0.104-0.204-0.202C53.898,54.854,54.004,54.772,54.103,54.772z M40.316,43.353  c0,0.272-0.406,0.218-0.406,0c0-0.122,0.082-0.203,0.203-0.203C40.211,43.15,40.316,43.231,40.316,43.353z M40.98,24.03  c0.099,0,0.203,0.104,0.203,0.202c0,0.272-0.406,0.219-0.406,0C40.777,24.134,40.859,24.03,40.98,24.03z M39.223,23.583  c0.122,0,0.203,0.105,0.203,0.203c0,0.129-0.087,0.227-0.203,0.227c-0.127,0-0.203-0.115-0.203-0.227  C39.02,23.688,39.101,23.583,39.223,23.583z M27.679,59.475c0-0.109,0.071-0.227,0.203-0.227s0.203,0.117,0.203,0.227  c0,0.098-0.082,0.203-0.203,0.203C27.76,59.678,27.679,59.572,27.679,59.475z"></path></svg>