<svg fill="#0F131C" xmlns="http://www.w3.org/2000/svg" xmlns:xlink="http://www.w3.org/1999/xlink" viewBox="0 0 60 60" version="1.1" x="0px" y="0px"><title>5 -Space System- (space, astronomy)</title><desc>Created with Sketch.</desc><g stroke="none" stroke-width="1" fill="none" fill-rule="evenodd"><g transform="translate(-626.000000, -382.000000)" fill="#0F131C"><g transform="translate(626.000000, 382.000000)"><path d="M15,18 C15.552,18 16,17.552 16,17 C16,16.448 15.552,16 15,16 C14.448,16 14,16.448 14,17 C14,17.552 14.448,18 15,18"></path><path d="M38,57 C37.448,57 37,57.448 37,58 C37,58.552 37.448,59 38,59 C38.552,59 39,58.552 39,58 C39,57.448 38.552,57 38,57"></path><path d="M58,49 C57.448,49 57,49.448 57,50 C57,50.552 57.448,51 58,51 C58.552,51 59,50.552 59,50 C59,49.448 58.552,49 58,49"></path><path d="M51,23 C51.552,23 52,22.552 52,22 C52,21.448 51.552,21 51,21 C50.448,21 50,21.448 50,22 C50,22.552 50.448,23 51,23"></path><path d="M56,4 C56.552,4 57,3.552 57,3 C57,2.448 56.552,2 56,2 C55.448,2 55,2.448 55,3 C55,3.552 55.448,4 56,4"></path><path d="M14.0029,27.9419 C14.5829,27.6609 15.1449,27.2579 15.7389,26.8309 C16.9319,25.9759 18.2819,25.0069 19.9969,25.0069 C20.0059,25.0069 20.0199,25.0099 20.0239,25.0069 C20.3379,25.0069 21.3259,24.5829 21.9159,24.3299 C23.3369,23.7179 24.2759,23.3149 25.0069,23.7969 C25.9649,24.4279 26.4119,25.5739 26.2339,26.9419 C26.0449,28.4009 25.0919,30.2039 23.6989,30.6719 C22.9409,30.9289 22.1699,30.7349 21.5879,30.1439 C21.3969,29.9529 21.2659,29.8949 21.2319,29.8889 C21.2429,29.9299 21.1779,30.1909 21.2179,30.2889 C21.8319,30.9379 22.0789,31.9859 21.8359,32.9889 C21.6109,33.9169 20.9939,34.6429 20.1849,34.9319 C19.3459,35.2319 18.2739,34.7439 17.0329,34.1789 C16.8619,34.1009 16.6609,34.0099 16.4609,33.9219 C16.6559,34.9849 16.3199,35.9339 15.9579,36.6509 C16.0749,36.6249 16.2029,36.5949 16.3429,36.5619 C18.6899,35.9969 19.2119,37.4359 19.4609,38.1269 C19.5809,38.4569 19.6619,38.6649 19.8139,38.7809 C20.5959,39.3819 20.5949,39.3799 22.1979,38.6379 L22.3679,38.5599 C23.1599,38.1979 24.0659,37.8849 24.8169,38.2829 C25.5279,38.6609 25.6529,39.3979 25.7429,39.9369 C25.7949,40.2479 25.8449,40.5419 25.9729,40.7359 C26.7419,41.8999 28.3079,43.0999 29.5999,43.0999 L29.6119,43.0999 C30.2339,43.0959 30.7349,42.8019 31.1409,42.1999 C31.1789,42.0569 31.2259,41.7079 31.2609,41.4479 C31.4369,40.1379 31.6559,38.5069 32.9379,38.0919 C33.9409,37.7689 34.8869,38.4949 35.4179,38.9999 L37.8929,38.9999 C36.8899,29.4599 28.8009,21.9999 18.9999,21.9999 C17.5239,21.9999 16.0929,22.1859 14.7129,22.5059 L13.9469,24.3469 C13.7479,25.2659 13.3239,25.9799 12.9049,26.6329 C12.6369,27.0499 12.7829,27.4699 13.0079,27.7239 C13.1099,27.8389 13.4829,28.1959 14.0029,27.9419"></path><path d="M34.5703,41 L34.2753,40.688 C33.9403,40.336 33.7113,40.165 33.5763,40.083 C33.4103,40.467 33.2963,41.318 33.2433,41.714 C33.1493,42.412 33.0873,42.873 32.8593,43.227 C31.8673,44.765 30.5523,45.095 29.6233,45.1 L29.5993,45.1 C27.4433,45.1 25.3443,43.412 24.3033,41.838 C23.9433,41.29 23.8433,40.699 23.7713,40.268 C23.7653,40.234 23.7583,40.197 23.7523,40.159 C23.6243,40.199 23.4453,40.266 23.2023,40.377 L23.0383,40.453 C20.8523,41.465 20.2713,41.655 18.5943,40.367 C17.9723,39.888 17.7463,39.264 17.5813,38.808 C17.5333,38.677 17.4633,38.482 17.4173,38.416 C17.4053,38.428 17.2303,38.406 16.8083,38.507 C15.1633,38.9 14.1223,39.084 13.5693,38.331 C13.0633,37.643 13.4913,36.923 13.8363,36.344 C14.3373,35.503 14.7253,34.743 14.3943,33.952 C14.2573,33.627 13.8353,32.63 14.5333,31.951 C15.3063,31.197 16.4343,31.709 17.8623,32.359 C18.3823,32.596 19.2363,32.984 19.5703,33.022 C19.7163,32.94 19.8343,32.757 19.8923,32.517 C19.9743,32.178 19.9073,31.807 19.7293,31.616 C18.8883,30.717 19.1413,29.192 19.9293,28.431 C20.5803,27.802 21.7773,27.504 23.0083,28.735 C23.2683,28.758 23.9273,28.075 24.1853,27.032 C24.2453,26.788 24.3923,26.042 24.0753,25.625 C23.7343,25.725 23.1313,25.984 22.7053,26.167 C21.6943,26.601 20.7483,26.995 20.0103,27.007 L19.9973,27.007 C18.9243,27.007 17.9443,27.711 16.9053,28.456 C16.2673,28.914 15.6083,29.387 14.8743,29.742 C13.7063,30.308 12.3853,30.036 11.5113,29.052 C10.6323,28.06 10.5153,26.654 11.2213,25.554 C11.5653,25.017 11.8833,24.484 12.0053,23.86 L12.0633,23.667 L12.2293,23.269 C5.0903,26.005 0.0003,32.911 0.0003,41 C0.0003,44.037 0.7343,46.9 2.0073,49.449 L3.3313,48.257 L5.2933,46.293 C5.3683,46.217 5.4563,46.154 5.5523,46.105 L7.5523,45.105 C7.6183,45.073 7.6863,45.047 7.7573,45.03 L11.7573,44.03 C12.0203,43.962 12.3003,44.008 12.5323,44.153 L14.0403,45.102 L16.1993,46 L19.0003,46 C19.1073,46 19.2143,46.017 19.3163,46.051 L22.3163,47.051 C22.7243,47.187 23.0003,47.569 23.0003,48 L23.0003,50 L27.0003,50 C27.3213,50 27.6233,50.154 27.8113,50.416 C27.9993,50.676 28.0503,51.011 27.9483,51.316 L26.9483,54.316 C26.8993,54.463 26.8173,54.597 26.7073,54.707 L25.0003,56.414 L25.0003,59.014 C32.5423,56.494 38.0003,49.379 38.0003,41 L34.5703,41 Z"></path><path d="M25.6128,52 L21.9998,52 C21.4478,52 20.9998,51.552 20.9998,51 L20.9998,48.721 L18.8378,48 L15.9998,48 C15.8678,48 15.7378,47.974 15.6158,47.923 L13.1958,46.917 C13.1438,46.895 13.0938,46.869 13.0468,46.84 L11.8288,46.074 L8.3488,46.943 L6.5918,47.822 L4.7068,49.707 L3.0148,51.23 C6.3968,56.495 12.2908,60 18.9998,60 C20.3728,60 21.7088,59.846 22.9998,59.568 L22.9998,56 C22.9998,55.735 23.1058,55.48 23.2928,55.293 L25.1258,53.46 L25.6128,52 Z"></path><path d="M38,13 L45.809,13 C45.929,12.35 46,11.684 46,11 C46,10.662 45.979,10.33 45.949,10 L41,10 C40.448,10 40,9.552 40,9 C40,8.448 40.448,8 41,8 L45.574,8 C44.263,3.39 40.024,0 35,0 C31.148,0 27.758,1.994 25.792,5 L37,5 C37.552,5 38,5.448 38,6 C38,6.552 37.552,7 37,7 L24.764,7 C24.393,7.945 24.146,8.95 24.051,10 L31,10 C31.552,10 32,10.448 32,11 C32,11.552 31.552,12 31,12 L24.051,12 C24.18,13.43 24.588,14.779 25.214,16 L35,16 C35.552,16 36,16.448 36,17 C36,17.552 35.552,18 35,18 L26.521,18 C28.541,20.441 31.592,22 35,22 C39.653,22 43.631,19.091 45.236,15 L38,15 C37.448,15 37,14.552 37,14 C37,13.448 37.448,13 38,13"></path><path d="M55,37 L59.92,37 C59.967,36.672 60,36.34 60,36 C60,32.14 56.859,29 53,29 C50.215,29 47.812,30.639 46.685,33 L51,33 C51.553,33 52,33.448 52,34 C52,34.552 51.553,35 51,35 L46.08,35 C46.033,35.328 46,35.66 46,36 C46,39.86 49.141,43 53,43 C55.785,43 58.188,41.361 59.315,39 L55,39 C54.447,39 54,38.552 54,38 C54,37.448 54.447,37 55,37"></path><path d="M6,4.4141 L7.586,6.0001 L6,7.5861 L4.414,6.0001 L6,4.4141 Z M1,7.0001 L2.586,7.0001 L5,9.4141 L5,11.0001 C5,11.5521 5.448,12.0001 6,12.0001 C6.552,12.0001 7,11.5521 7,11.0001 L7,9.4141 L9.414,7.0001 L11,7.0001 C11.552,7.0001 12,6.5521 12,6.0001 C12,5.4481 11.552,5.0001 11,5.0001 L9.414,5.0001 L7,2.5861 L7,1.0001 C7,0.4481 6.552,0.0001 6,0.0001 C5.448,0.0001 5,0.4481 5,1.0001 L5,2.5861 L2.586,5.0001 L1,5.0001 C0.448,5.0001 0,5.4481 0,6.0001 C0,6.5521 0.448,7.0001 1,7.0001 L1,7.0001 Z"></path></g></g></g></svg>