<svg fill="#00DCFF" xmlns="http://www.w3.org/2000/svg" xmlns:xlink="http://www.w3.org/1999/xlink" version="1.1" x="0px" y="0px" viewBox="0 0 24.009 24.01" enable-background="new 0 0 24.009 24.01" xml:space="preserve"><g><g><path d="M22.548,4.181c-0.037-0.093-0.021-0.225,0.038-0.302c0.046-0.058,0.116-0.087,0.167-0.159    c0.015-0.022,0.029-0.049,0.038-0.061c0.039-0.045,0.008,0.165,0.023,0.297c0.02,0.133,0.091,0.184,0.079,0.291    c-0.017,0.144-0.181,0.39-0.224,0.339c-0.004-0.016-0.007-0.031-0.012-0.045c-0.005-0.045-0.002-0.113-0.016-0.167    C22.624,4.295,22.572,4.247,22.548,4.181z"></path><path d="M22.67,4.586c-0.007-0.008-0.011-0.024-0.012-0.045C22.663,4.556,22.666,4.571,22.67,4.586z"></path><path d="M22.533,5.877c0.043,0.129,0.045,0.314-0.003,0.305C22.534,6.081,22.536,5.98,22.533,5.877z"></path><path d="M22.443,7.935c0.011-0.03,0.027-0.058,0.048-0.085c-0.021,0.052-0.041,0.104-0.063,0.154    C22.431,7.98,22.436,7.957,22.443,7.935z"></path><path d="M22.27,8.336c0.057-0.107,0.108-0.217,0.156-0.329c-0.01,0.058-0.015,0.118-0.047,0.179    C22.351,8.24,22.303,8.294,22.27,8.336z"></path><path d="M22.706,8.269c-0.127,0.118-0.471,0.208-0.471,0.132c0-0.001,0-0.001,0-0.001c0.011-0.02,0.022-0.04,0.032-0.062    c0.001,0,0.001-0.001,0.002-0.002c0.033-0.042,0.081-0.096,0.109-0.149c0.032-0.061,0.037-0.122,0.047-0.179    c0-0.001,0-0.002,0.002-0.003c0.022-0.051,0.043-0.103,0.063-0.154c0.055-0.077,0.143-0.139,0.228-0.157    c0.087-0.018,0.174,0.012,0.276-0.014c0.03-0.007,0.064-0.02,0.082-0.023c0.072-0.011-0.123,0.154-0.212,0.288    C22.776,8.078,22.802,8.181,22.706,8.269z"></path><path d="M22.268,8.338C22.258,8.36,22.246,8.38,22.235,8.4C22.235,8.384,22.249,8.363,22.268,8.338z"></path><path d="M22.097,5.435c0.002-0.058,0.097,0.117,0.185,0.203c0.088,0.087,0.17,0.083,0.222,0.168    c0.012,0.02,0.022,0.043,0.03,0.071v0.001c0.003,0.103,0.001,0.204-0.003,0.305c-0.028-0.007-0.08-0.094-0.14-0.143    c-0.058-0.046-0.123-0.052-0.179-0.086C22.132,5.906,22.07,5.8,22.07,5.71c0-0.068,0.034-0.129,0.03-0.21    C22.101,5.475,22.095,5.447,22.097,5.435z"></path><path d="M20.946,9.536c0.103-0.093,0.2-0.189,0.294-0.288C21.162,9.408,20.981,9.593,20.946,9.536L20.946,9.536z"></path><path d="M20.869,9.032c-0.026-0.117,0.015-0.27,0.099-0.352c0.063-0.062,0.152-0.085,0.224-0.162    c0.022-0.023,0.043-0.052,0.057-0.063c0.056-0.049-0.02,0.196-0.021,0.354c-0.001,0.162,0.076,0.236,0.044,0.361    c-0.006,0.023-0.017,0.049-0.029,0.076c0,0,0,0-0.001,0.001c-0.094,0.099-0.191,0.194-0.294,0.288    c-0.02-0.037,0.013-0.162,0.004-0.256C20.94,9.182,20.888,9.116,20.869,9.032z"></path><path d="M20.161,10.98c-0.191,0.024-0.562-0.116-0.519-0.185c0.017-0.011,0.034-0.021,0.052-0.031    c0.001-0.001,0.002-0.001,0.003-0.002c0.06-0.019,0.15-0.038,0.217-0.072c0.099-0.049,0.146-0.133,0.223-0.188    c0.113-0.075,0.29-0.095,0.41-0.042c0.094,0.042,0.153,0.123,0.263,0.167c0.034,0.012,0.073,0.023,0.092,0.032    c0.073,0.037-0.214,0.06-0.381,0.126C20.351,10.85,20.308,10.961,20.161,10.98z"></path><path d="M19.643,10.795c0-0.001,0.001-0.001,0.001-0.002c0.008-0.011,0.027-0.02,0.051-0.028    C19.677,10.773,19.659,10.784,19.643,10.795z"></path><path d="M19.285,10.707c-0.097,0.055-0.194,0.109-0.293,0.164c-0.018-0.042,0.043-0.178,0.052-0.284    c0.008-0.11-0.039-0.193-0.042-0.29c-0.01-0.135,0.064-0.295,0.172-0.371c0.085-0.058,0.186-0.066,0.28-0.138    c0.029-0.022,0.058-0.051,0.074-0.062c0.07-0.044-0.06,0.213-0.09,0.39c-0.031,0.18,0.04,0.276-0.019,0.408    C19.394,10.582,19.343,10.647,19.285,10.707z"></path><path d="M19.285,10.707c-0.12,0.124-0.271,0.219-0.293,0.164C19.091,10.816,19.188,10.762,19.285,10.707z"></path><path d="M17.764,11.704l-0.085-0.171c0.439-0.216,0.882-0.432,1.313-0.663c0.021,0.056,0.173-0.04,0.293-0.164    c0.052-0.028,0.104-0.059,0.154-0.088c0.545-0.318,1.061-0.675,1.507-1.083v0.001c0.035,0.057,0.216-0.128,0.294-0.289    c0.001-0.001,0.001-0.001,0.001-0.001c0.273-0.284,0.51-0.591,0.699-0.923c0.365-0.64,0.56-1.375,0.59-2.141    c0.048,0.009,0.046-0.176,0.003-0.305V5.876c-0.007-0.445-0.068-0.899-0.184-1.347c0.092-0.037,0.184-0.074,0.276-0.108    c0.013,0.04,0.022,0.08,0.032,0.12c0.001,0.021,0.005,0.037,0.012,0.045c0.103,0.408,0.161,0.827,0.169,1.252    c0.014,0.681-0.102,1.377-0.348,2.011c-0.021,0.027-0.037,0.055-0.048,0.085c-0.008,0.022-0.013,0.046-0.016,0.069    c-0.002,0.001-0.002,0.002-0.002,0.003c-0.048,0.112-0.1,0.222-0.156,0.329c-0.001,0.001-0.001,0.002-0.002,0.002    c-0.019,0.025-0.032,0.046-0.032,0.062c0,0,0,0,0,0.001c-0.027,0.048-0.055,0.096-0.082,0.143    c-0.567,0.944-1.484,1.644-2.456,2.218c-0.001,0.001-0.002,0.001-0.003,0.002c-0.023,0.008-0.043,0.018-0.051,0.028    c0,0.001-0.001,0.001-0.001,0.002c-0.065,0.038-0.131,0.075-0.195,0.112c-0.474,0.269-0.955,0.509-1.432,0.748    C17.932,11.648,17.839,11.666,17.764,11.704z"></path><path d="M18.016,11.655c-0.152,0.077-0.304,0.153-0.455,0.229c0.051-0.046,0.089-0.102,0.143-0.144    c0.018-0.014,0.038-0.026,0.061-0.037C17.839,11.666,17.932,11.648,18.016,11.655z"></path><path d="M17.561,11.884c-0.021,0.021-0.043,0.04-0.071,0.056c-0.053,0.031-0.12,0.053-0.176,0.073    C17.396,11.969,17.479,11.927,17.561,11.884z"></path><path d="M17.31,12.014c-0.028,0.014-0.057,0.029-0.085,0.043C17.235,12.041,17.269,12.028,17.31,12.014z"></path><path d="M17.227,6.023c0-0.004-0.002-0.008-0.003-0.013c-0.005-0.05,0.023-0.153,0.019-0.237c-0.006-0.097-0.056-0.165-0.07-0.251    c-0.021-0.117,0.026-0.268,0.113-0.346c0.065-0.059,0.155-0.079,0.232-0.153c0.021-0.021,0.043-0.051,0.058-0.062    c0.057-0.046-0.03,0.197-0.037,0.356c-0.007,0.161,0.066,0.238,0.031,0.36c-0.052,0.167-0.303,0.422-0.341,0.354    C17.228,6.028,17.227,6.027,17.227,6.023z"></path><path d="M17.752,12.214c-0.191,0.038-0.574-0.083-0.527-0.155v-0.001c0.028-0.014,0.057-0.029,0.085-0.043    c0.001-0.001,0.003-0.001,0.004-0.001c0.056-0.02,0.123-0.042,0.176-0.073c0.028-0.016,0.05-0.034,0.071-0.056    c0.151-0.076,0.303-0.153,0.455-0.229c0.033,0.003,0.064,0.011,0.093,0.021c0.093,0.036,0.159,0.116,0.271,0.153    c0.035,0.011,0.074,0.019,0.093,0.027c0.076,0.032-0.21,0.07-0.374,0.145C17.933,12.078,17.896,12.189,17.752,12.214z"></path><path d="M17.227,6.023c-0.002-0.003-0.003-0.008-0.003-0.013C17.225,6.015,17.227,6.019,17.227,6.023z"></path><path d="M16.548,5.116c0.095,0.064,0.16,0.132,0.128,0.158c0,0,0,0-0.001,0C16.637,5.22,16.595,5.167,16.548,5.116z"></path><path d="M16.361,7.71c-0.045,0.1-0.099,0.173-0.128,0.146C16.276,7.81,16.32,7.76,16.361,7.71z"></path><path d="M16.148,8.372c-0.012,0.009-0.022,0.019-0.034,0.027c0.003-0.003,0.007-0.006,0.011-0.009    C16.132,8.383,16.14,8.377,16.148,8.372z"></path><path d="M16.009,7.398C15.949,7.293,15.943,7.137,16,7.033c0.042-0.08,0.12-0.126,0.166-0.22c0.014-0.03,0.025-0.064,0.035-0.079    c0.036-0.063,0.036,0.193,0.085,0.346c0.047,0.155,0.142,0.202,0.147,0.33c0.003,0.085-0.029,0.205-0.072,0.3    c-0.041,0.05-0.085,0.099-0.128,0.146C16.201,7.83,16.196,7.699,16.16,7.61C16.122,7.52,16.052,7.473,16.009,7.398z"></path><path d="M15.352,13.811c-0.207,0.067-0.647-0.008-0.604-0.097c0.014-0.012,0.026-0.023,0.039-0.035    c0.001-0.001,0.001-0.001,0.003-0.001c0.058-0.037,0.162-0.077,0.231-0.132c0.078-0.061,0.115-0.138,0.168-0.205    c0.06-0.049,0.12-0.095,0.181-0.141c0.096-0.042,0.204-0.058,0.295-0.037c0.109,0.026,0.192,0.104,0.321,0.128    c0.041,0.007,0.085,0.009,0.106,0.016c0.088,0.027-0.221,0.11-0.39,0.216C15.531,13.631,15.505,13.76,15.352,13.811z"></path><path d="M16.303,12.25c-0.135,0.145-0.313,0.265-0.343,0.205C16.071,12.384,16.188,12.316,16.303,12.25z"></path><path d="M16.015,12.137c0.008-0.123-0.044-0.214-0.05-0.322c-0.013-0.149,0.068-0.329,0.188-0.415    c0.09-0.065,0.204-0.076,0.307-0.156c0.034-0.024,0.065-0.056,0.084-0.069c0.076-0.049-0.063,0.239-0.096,0.435    c-0.032,0.199,0.048,0.305-0.017,0.454c-0.025,0.059-0.072,0.125-0.129,0.186c-0.115,0.066-0.231,0.134-0.343,0.205v-0.001    C15.94,12.406,16.007,12.257,16.015,12.137z"></path><path d="M15.918,8.597c-0.06,0.039-0.145,0.066-0.201,0.089c0.137-0.088,0.27-0.184,0.397-0.288    C16.047,8.46,16.007,8.541,15.918,8.597z"></path><path d="M15.712,8.688C15.695,8.7,15.678,8.712,15.66,8.721C15.669,8.711,15.688,8.7,15.712,8.688z"></path><path d="M16.191,8.86c-0.19,0.045-0.578-0.062-0.532-0.137c0-0.001,0.001-0.001,0.001-0.002c0.018-0.009,0.035-0.021,0.052-0.033    c0.002,0,0.003-0.001,0.005-0.002c0.057-0.023,0.142-0.051,0.201-0.089c0.089-0.056,0.129-0.137,0.196-0.198    c0.012-0.008,0.022-0.018,0.034-0.027c0.002-0.001,0.003-0.003,0.006-0.005c0.104-0.071,0.259-0.098,0.373-0.059    c0.096,0.032,0.164,0.11,0.275,0.143c0.037,0.011,0.074,0.017,0.095,0.024c0.078,0.029-0.206,0.08-0.366,0.16    C16.367,8.717,16.336,8.829,16.191,8.86z"></path><path d="M15.636,5.157c-0.026-0.019-0.058-0.037-0.07-0.048c-0.057-0.048,0.196-0.005,0.355-0.022    c0.16-0.019,0.224-0.104,0.353-0.087c0.081,0.009,0.188,0.06,0.271,0.116c0.001,0.001,0.003,0.002,0.003,0.002    c0.047,0.051,0.089,0.104,0.127,0.158c-0.033,0.026-0.161,0.007-0.253,0.028c-0.099,0.021-0.156,0.081-0.234,0.11    c-0.114,0.042-0.271,0.019-0.363-0.054C15.755,5.304,15.722,5.219,15.636,5.157z"></path><path d="M15.188,13.341c0.012-0.017,0.024-0.032,0.038-0.046c0.039-0.039,0.089-0.072,0.143-0.095    C15.309,13.246,15.248,13.292,15.188,13.341z"></path><path d="M15.021,13.546c-0.069,0.055-0.174,0.095-0.231,0.132c0.131-0.117,0.264-0.229,0.399-0.337    C15.136,13.408,15.099,13.485,15.021,13.546z"></path><path d="M14.747,13.714c0.006-0.012,0.021-0.023,0.039-0.035C14.773,13.69,14.761,13.702,14.747,13.714z"></path><path d="M14.855,8.918c-0.115,0.125-0.258,0.222-0.281,0.168V9.085C14.667,9.031,14.762,8.976,14.855,8.918z"></path><path d="M14.723,8.135c0.08-0.06,0.181-0.073,0.273-0.147c0.028-0.023,0.056-0.053,0.072-0.066    c0.067-0.045-0.053,0.217-0.076,0.395c-0.024,0.182,0.051,0.273-0.003,0.409c-0.025,0.061-0.076,0.13-0.134,0.193    c-0.094,0.058-0.188,0.113-0.281,0.167c-0.018-0.043,0.038-0.178,0.041-0.285c0.005-0.109-0.045-0.191-0.054-0.288    C14.549,8.378,14.616,8.215,14.723,8.135z"></path><path d="M13.874,14.179c0.136-0.146,0.278-0.288,0.426-0.427C14.228,13.962,13.919,14.263,13.874,14.179z"></path><path d="M13.832,10.308c-0.19,0.045-0.579-0.058-0.533-0.132c0.003-0.006,0.008-0.011,0.016-0.017    c0.045-0.033,0.164-0.062,0.242-0.113c0.092-0.06,0.131-0.147,0.203-0.21c0.104-0.089,0.276-0.126,0.402-0.085    c0.096,0.031,0.164,0.107,0.278,0.139c0.034,0.011,0.075,0.017,0.094,0.023c0.078,0.028-0.206,0.082-0.365,0.162    C14.007,10.161,13.974,10.275,13.832,10.308z"></path><path d="M13.896,13.857c-0.003-0.123-0.067-0.209-0.085-0.313c-0.025-0.148,0.036-0.337,0.144-0.433    c0.087-0.073,0.197-0.097,0.293-0.188c0.028-0.028,0.057-0.063,0.074-0.076c0.071-0.058-0.038,0.245-0.05,0.44    c-0.012,0.204,0.078,0.301,0.032,0.454c-0.002,0.004-0.003,0.007-0.004,0.011c-0.147,0.139-0.29,0.281-0.426,0.427    C13.853,14.132,13.902,13.978,13.896,13.857z"></path><path d="M12.863,14.278c-0.022-0.12-0.097-0.196-0.13-0.298c-0.045-0.146-0.013-0.337,0.084-0.448    c0.072-0.086,0.18-0.124,0.26-0.229c0.025-0.031,0.049-0.07,0.063-0.087c0.062-0.067-0.003,0.246,0.014,0.445    c0.018,0.203,0.12,0.283,0.096,0.443c-0.034,0.214-0.301,0.566-0.36,0.494l-0.001-0.001c-0.004-0.007-0.006-0.014-0.01-0.022    C12.865,14.516,12.883,14.381,12.863,14.278z"></path><path d="M12.889,14.599c-0.004-0.006-0.007-0.013-0.01-0.022C12.883,14.585,12.885,14.592,12.889,14.599z"></path><path d="M12.414,11.6c0.023-0.105,0.032-0.218,0.018-0.299c-0.01-0.052-0.029-0.091-0.055-0.126    c0.071-0.261,0.171-0.495,0.304-0.696c0.285-0.434,0.722-0.714,1.207-0.997c0.222-0.128,0.452-0.258,0.687-0.396v0.001    c0.023,0.053,0.166-0.043,0.281-0.168c0.345-0.209,0.688-0.439,1.008-0.711c0.128-0.109,0.253-0.226,0.37-0.35    c0.029,0.027,0.083-0.046,0.128-0.146c0.153-0.183,0.286-0.381,0.388-0.601c0.267-0.573,0.319-1.283-0.073-1.835    c0.032-0.026-0.033-0.094-0.128-0.158c0,0-0.002-0.001-0.003-0.002c-0.026-0.03-0.055-0.058-0.086-0.086    c0.06-0.082,0.119-0.161,0.178-0.242c0.271,0.354,0.5,0.785,0.587,1.224c0,0.004,0.001,0.009,0.003,0.013    c0.024,0.122,0.036,0.243,0.036,0.364c-0.002,0.745-0.489,1.464-1.108,1.979c-0.003,0.001-0.004,0.003-0.006,0.005    c-0.009,0.006-0.017,0.012-0.023,0.018c-0.004,0.003-0.008,0.006-0.011,0.009c-0.128,0.104-0.261,0.199-0.397,0.288    c-0.002,0.001-0.003,0.002-0.005,0.002C15.688,8.7,15.669,8.711,15.66,8.721c0,0.001-0.001,0.001-0.001,0.002    c-0.811,0.516-1.727,0.834-2.345,1.436c-0.008,0.006-0.013,0.011-0.016,0.017c-0.089,0.086-0.171,0.18-0.247,0.282    c-0.241,0.329-0.402,0.736-0.494,1.172L12.414,11.6z"></path><path d="M12.257,11.887c0.021-0.253,0.061-0.492,0.12-0.712c0.025,0.035,0.045,0.074,0.055,0.126    c0.015,0.081,0.006,0.194-0.018,0.299C12.377,11.769,12.308,11.92,12.257,11.887z"></path><path d="M12.127,11.592c-0.062-0.105-0.157-0.152-0.223-0.237c-0.015-0.02-0.029-0.042-0.042-0.067    c-0.059-0.117-0.074-0.269-0.032-0.383c0.04-0.105,0.129-0.177,0.17-0.302c0.013-0.04,0.021-0.083,0.029-0.104    c0.036-0.085,0.08,0.233,0.163,0.415c0.057,0.125,0.133,0.185,0.185,0.259c-0.06,0.22-0.1,0.459-0.12,0.712    C12.214,11.858,12.188,11.697,12.127,11.592z"></path><path d="M11.502,1.884c0.048-0.006,0.105-0.013,0.151-0.029c0.093-0.032,0.143-0.099,0.221-0.139    c0.108-0.053,0.266-0.049,0.365,0.012c0.075,0.048,0.119,0.128,0.211,0.179c0.028,0.017,0.061,0.029,0.076,0.04    c0.061,0.041-0.195,0.027-0.351,0.065c-0.158,0.038-0.209,0.129-0.34,0.128c-0.151-0.002-0.411-0.132-0.437-0.202    c0.033-0.02,0.067-0.037,0.1-0.053C11.501,1.885,11.501,1.885,11.502,1.884z"></path><path d="M11.403,1.912c0.014-0.014,0.052-0.021,0.096-0.027c-0.032,0.017-0.066,0.033-0.1,0.053    C11.395,1.927,11.396,1.919,11.403,1.912z"></path><path d="M11.379,12.465c-0.023-0.12-0.097-0.194-0.129-0.297c-0.048-0.143-0.014-0.337,0.082-0.449    c0.072-0.085,0.18-0.124,0.261-0.228c0.024-0.032,0.047-0.072,0.062-0.086c0.006-0.007,0.011-0.009,0.014-0.009    c0.037,0-0.016,0.274,0.001,0.453c0.017,0.203,0.12,0.284,0.095,0.443c-0.034,0.215-0.304,0.573-0.361,0.494v-0.001    c-0.004-0.004-0.006-0.011-0.009-0.018C11.379,12.71,11.398,12.571,11.379,12.465z"></path><path d="M10.781,2.125c0.059-0.042,0.118-0.082,0.18-0.12C10.886,2.098,10.804,2.162,10.781,2.125z"></path><path d="M10.781,2.125c-0.021-0.034,0.012-0.162,0.002-0.257c-0.011-0.098-0.063-0.163-0.084-0.247    c-0.026-0.118,0.012-0.27,0.097-0.352c0.062-0.063,0.151-0.087,0.223-0.164c0.021-0.025,0.043-0.053,0.056-0.066    c0.054-0.05-0.021,0.196-0.021,0.355c0.003,0.163,0.079,0.233,0.049,0.36c-0.019,0.077-0.078,0.172-0.142,0.249    C10.899,2.044,10.84,2.084,10.781,2.125z"></path><path d="M10.562,10.099c0.004,0.015,0.006,0.031,0.009,0.046C10.564,10.134,10.562,10.119,10.562,10.099z"></path><path d="M10.481,9.513c-0.031-0.147,0.022-0.337,0.13-0.438c0.08-0.077,0.19-0.104,0.282-0.199    c0.028-0.028,0.055-0.064,0.071-0.079c0.069-0.062-0.028,0.245-0.032,0.443c-0.003,0.204,0.091,0.296,0.047,0.451    c-0.055,0.209-0.355,0.534-0.408,0.455l-0.001-0.001c-0.003-0.015-0.005-0.031-0.009-0.046c0-0.001,0-0.001,0-0.002    c0.001-0.068,0.025-0.183,0.018-0.274C10.57,9.702,10.504,9.618,10.481,9.513z"></path><path d="M10.277,9.822C10.233,9.599,10.169,9.4,10.095,9.22c0.005,0.005,0.011,0.009,0.016,0.015    C10.262,9.394,10.376,9.825,10.277,9.822z"></path><path d="M9.678,3.562c0.003-0.006,0.009-0.013,0.016-0.019C9.688,3.55,9.682,3.558,9.677,3.566    C9.677,3.565,9.677,3.562,9.678,3.562z"></path><path d="M10.167,3.585c-0.155,0.072-0.498,0.051-0.49-0.019C9.682,3.558,9.688,3.55,9.693,3.542    C9.731,3.506,9.824,3.46,9.882,3.405c0.071-0.068,0.087-0.151,0.143-0.218c0.077-0.095,0.219-0.158,0.336-0.142    c0.09,0.01,0.162,0.064,0.267,0.074c0.032,0.002,0.068,0.001,0.084,0.003c0.074,0.012-0.164,0.106-0.289,0.205    C10.294,3.428,10.285,3.533,10.167,3.585z"></path><path d="M9.372,8.88C9.363,8.84,9.346,8.798,9.341,8.778c-0.014-0.092,0.194,0.153,0.361,0.26C9.864,9.145,9.988,9.12,10.095,9.22    c0.074,0.18,0.139,0.379,0.183,0.602c-0.05,0-0.16-0.12-0.267-0.176C9.902,9.591,9.797,9.602,9.696,9.565    C9.555,9.514,9.423,9.369,9.392,9.226C9.368,9.116,9.405,9.008,9.372,8.88z"></path><path d="M9.427,8.049c-0.115-0.177-0.224-0.35-0.328-0.544C9.13,7.514,9.161,7.529,9.191,7.553    C9.247,7.595,9.304,7.668,9.35,7.746C9.432,7.885,9.481,8.039,9.427,8.049z"></path><path d="M8.964,6.502C8.963,6.502,8.963,6.5,8.963,6.5C8.961,6.495,8.96,6.488,8.96,6.479c0-0.057,0.046-0.171,0.053-0.265    C9.018,6.105,8.97,6.022,8.966,5.927C8.956,5.792,9.028,5.63,9.137,5.552c0.08-0.058,0.184-0.068,0.276-0.14    C9.442,5.39,9.471,5.36,9.487,5.35c0.069-0.044-0.057,0.214-0.086,0.391c-0.029,0.18,0.044,0.274-0.015,0.409    C9.31,6.328,9,6.577,8.964,6.502z"></path><path d="M9.104,4.022C9.074,4.208,8.984,4.414,8.932,4.378C8.981,4.259,9.04,4.14,9.104,4.022z"></path><path d="M9.09,7.49C8.829,7.006,8.591,6.394,8.61,5.712C8.623,5.284,8.735,4.828,8.93,4.378h0.002    c0.053,0.036,0.143-0.17,0.172-0.356c0.384-0.72,0.971-1.399,1.678-1.896c0.022,0.036,0.104-0.027,0.18-0.12    c0.186-0.119,0.38-0.225,0.578-0.316c0.057,0.032,0.112,0.066,0.168,0.1c-0.068,0.027-0.137,0.059-0.205,0.094    c-0.001,0.001-0.001,0.001-0.003,0.001c-0.044,0.006-0.082,0.013-0.096,0.027c-0.008,0.007-0.009,0.015-0.004,0.026    c-0.538,0.294-1.078,0.785-1.48,1.295c-0.082,0.102-0.156,0.206-0.226,0.31C9.687,3.548,9.681,3.556,9.678,3.562    C9.677,3.562,9.677,3.565,9.677,3.566C9.081,4.46,8.877,5.392,8.92,6.144c0.006,0.114,0.019,0.225,0.04,0.336    c0,0.008,0.001,0.015,0.003,0.021c0,0,0,0.001,0.001,0.001C9.031,6.855,9.179,7.204,9.47,7.67L9.35,7.746    C9.304,7.668,9.247,7.595,9.191,7.553C9.161,7.529,9.13,7.514,9.099,7.504H9.098C9.095,7.5,9.093,7.495,9.09,7.49z"></path><path d="M8.907,3.502c0.068,0.168,0.18,0.211,0.201,0.354c0.007,0.047,0.003,0.106-0.005,0.166C9.04,4.14,8.981,4.259,8.932,4.378    H8.93C8.893,4.35,8.873,4.205,8.821,4.109c-0.05-0.097-0.134-0.143-0.19-0.222C8.553,3.778,8.529,3.603,8.581,3.48    C8.62,3.388,8.703,3.326,8.744,3.215c0.013-0.034,0.022-0.073,0.03-0.09C8.81,3.049,8.838,3.336,8.907,3.502z"></path><path d="M9.162,7.932C9.059,7.898,8.967,7.924,8.871,7.906C8.738,7.881,8.599,7.772,8.552,7.648    C8.516,7.553,8.53,7.453,8.483,7.344C8.47,7.311,8.448,7.276,8.442,7.256C8.415,7.179,8.636,7.365,8.801,7.437    C8.922,7.49,9.013,7.479,9.098,7.504h0.001c0.104,0.194,0.213,0.368,0.328,0.544V8.05H9.426C9.381,8.057,9.266,7.965,9.162,7.932z    "></path><path d="M8.4,8.15c0.076,0.205,0.021,0.648-0.067,0.609C8.329,8.758,8.326,8.755,8.321,8.752c-0.045-0.038-0.1-0.174-0.171-0.258    C8.071,8.401,7.97,8.372,7.89,8.3C7.778,8.2,7.71,8.015,7.736,7.87C7.757,7.76,7.831,7.673,7.849,7.543    c0.006-0.04,0.008-0.085,0.012-0.107c0.021-0.089,0.121,0.216,0.234,0.378C8.21,7.98,8.341,8,8.4,8.15z"></path><path d="M7.273,8.504C7.485,8.546,7.74,8.68,7.696,8.74C7.558,8.659,7.416,8.58,7.273,8.504z"></path><path d="M7.696,8.74c0,0.001,0,0.001-0.001,0.002C7.661,8.78,7.497,8.786,7.387,8.833C7.273,8.879,7.215,8.968,7.12,9.021    C6.991,9.096,6.795,9.103,6.665,9.032C6.566,8.979,6.507,8.883,6.391,8.825C6.353,8.807,6.31,8.792,6.291,8.78    C6.212,8.734,6.532,8.733,6.723,8.674C6.918,8.617,6.977,8.499,7.139,8.49c0.04-0.002,0.086,0.002,0.134,0.013l0.001,0.001    C7.416,8.58,7.558,8.659,7.696,8.74z"></path><polygon points="6.502,7.771 6.492,7.765 6.508,7.772   "></polygon><path d="M6.557,7.162c0.08,0.197,0.038,0.626-0.049,0.61C6.503,7.77,6.497,7.767,6.492,7.765c0,0-0.001-0.001-0.002-0.002    c-0.045-0.036-0.1-0.17-0.174-0.253C6.234,7.418,6.132,7.391,6.051,7.321C5.937,7.223,5.864,7.039,5.889,6.893    c0.018-0.108,0.089-0.199,0.106-0.328c0.004-0.041,0.003-0.086,0.008-0.107C6.021,6.368,6.127,6.67,6.245,6.831    C6.364,6.996,6.496,7.012,6.557,7.162z"></path><path d="M5.044,7.358C4.996,7.333,4.95,7.304,4.904,7.276c-0.04-0.025-0.08-0.049-0.12-0.077C4.939,7.241,5.076,7.315,5.044,7.358    z"></path><path d="M4.278,5.933C4.316,6.125,4.204,6.511,4.13,6.464c-0.039-0.025-0.067-0.17-0.124-0.263    c-0.057-0.093-0.143-0.134-0.203-0.21C3.718,5.886,3.685,5.712,3.729,5.588c0.033-0.094,0.112-0.161,0.147-0.273    C3.887,5.279,3.894,5.238,3.9,5.221C3.932,5.144,3.978,5.429,4.056,5.59C4.134,5.755,4.247,5.792,4.278,5.933z"></path><path d="M5.044,7.358C5.016,7.395,4.869,7.41,4.772,7.459c-0.098,0.05-0.145,0.133-0.225,0.188    C4.436,7.724,4.26,7.742,4.139,7.687C4.047,7.648,3.987,7.564,3.877,7.521C3.845,7.507,3.805,7.496,3.786,7.488    C3.712,7.451,4,7.429,4.168,7.364C4.337,7.298,4.38,7.188,4.526,7.17c0.072-0.009,0.167,0.004,0.258,0.029    c0.04,0.027,0.08,0.052,0.12,0.077C4.95,7.304,4.996,7.333,5.044,7.358z"></path><path d="M2.884,5.425c-0.05-0.073-0.1-0.148-0.146-0.224C2.843,5.291,2.927,5.405,2.884,5.425z"></path><path d="M2.329,3.362C2.317,3.243,2.376,3.097,2.47,3.025c0.07-0.054,0.161-0.066,0.241-0.133c0.026-0.021,0.05-0.047,0.063-0.058    c0.062-0.042-0.043,0.192-0.063,0.349c-0.02,0.163,0.049,0.244,0,0.364C2.648,3.71,2.378,3.942,2.346,3.873    C2.328,3.836,2.378,3.714,2.38,3.618C2.382,3.52,2.338,3.448,2.329,3.362z"></path><path d="M2.119,5.332C2.067,5.269,2.055,5.188,1.992,5.115C1.974,5.094,1.949,5.073,1.939,5.06C1.9,5.007,2.113,5.095,2.256,5.109    c0.146,0.017,0.217-0.046,0.327-0.007C2.631,5.12,2.687,5.158,2.737,5.2c0.001,0.001,0.001,0.001,0.001,0.001    c0.046,0.076,0.096,0.151,0.146,0.224C2.85,5.441,2.739,5.398,2.651,5.398c-0.087,0-0.148,0.042-0.227,0.051    C2.317,5.464,2.185,5.415,2.119,5.332z"></path><path d="M1.69,2.357C1.673,2.256,1.658,2.155,1.646,2.053C1.71,2.194,1.742,2.354,1.69,2.357z"></path><path d="M2.737,5.2c-0.26-0.414-0.471-0.859-0.642-1.318C1.912,3.387,1.775,2.876,1.69,2.357c0.052-0.003,0.02-0.164-0.044-0.304    C1.645,2.052,1.645,2.051,1.645,2.051C1.636,1.972,1.626,1.893,1.619,1.814c0.076-0.01,0.153-0.019,0.229-0.027    C1.901,2.503,2.09,3.221,2.346,3.873c0.384,0.978,0.92,1.81,1.391,2.272C3.86,6.266,3.982,6.363,4.13,6.464    c0.046,0.032,0.095,0.063,0.148,0.098c0.529,0.333,1.429,0.799,2.212,1.2c0.001,0.001,0.002,0.002,0.002,0.002    c0.004,0.002,0.006,0.005,0.01,0.006c0.003,0.001,0.004,0.001,0.006,0.001C6.659,7.85,6.805,7.925,6.943,7.996    c0.535,0.276,0.952,0.494,1.378,0.756c0.005,0.003,0.008,0.006,0.012,0.007C8.341,8.764,8.35,8.77,8.357,8.774    c0.41,0.254,0.831,0.551,1.206,0.923c0.296,0.291,0.562,0.628,0.793,0.986c0.004-0.323-0.025-0.608-0.079-0.862    c0.099,0.003-0.016-0.428-0.167-0.587c-0.005-0.006-0.011-0.01-0.016-0.015C9.959,8.877,9.784,8.598,9.622,8.347    c-0.067-0.103-0.133-0.2-0.195-0.297V8.049c0.055-0.01,0.005-0.164-0.077-0.303L9.47,7.67c0.044,0.07,0.09,0.142,0.14,0.217    c0.285,0.428,0.681,0.952,0.87,1.777c0.03,0.134,0.055,0.276,0.082,0.432c0,0.001,0,0.001,0,0.002c0,0.02,0.003,0.035,0.009,0.046    l0.001,0.001c0.103,0.589,0.247,1.373,0.823,2.623c0.003,0.007,0.005,0.013,0.009,0.018v0.001    c0.311,0.671,0.745,1.479,1.365,2.461c-0.376-1.146-0.592-2.361-0.512-3.361c0.051,0.033,0.12-0.118,0.157-0.287l0.144,0.03    c-0.075,0.354-0.106,0.726-0.096,1.089c0.019,0.653,0.166,1.279,0.417,1.857c0.003,0.01,0.006,0.017,0.01,0.022L12.89,14.6    c0.068,0.156,0.144,0.308,0.227,0.456c0.084-0.108,0.17-0.216,0.263-0.324c0.157-0.186,0.322-0.371,0.495-0.553    c0.045,0.084,0.354-0.217,0.426-0.427c0.459-0.44,0.969-0.854,1.528-1.215c0.043-0.028,0.087-0.055,0.132-0.083    c0.029,0.06,0.208-0.06,0.343-0.205c0.442-0.254,0.907-0.486,1.376-0.716l0.085,0.171c-0.022,0.011-0.043,0.022-0.061,0.037    c-0.054,0.042-0.092,0.098-0.143,0.144c-0.082,0.042-0.165,0.085-0.247,0.128c-0.001,0-0.003,0-0.004,0.001    c-0.041,0.014-0.074,0.027-0.085,0.043v0.001c-0.413,0.215-0.819,0.44-1.213,0.694c-0.218,0.142-0.434,0.29-0.643,0.447    c-0.054,0.022-0.104,0.056-0.143,0.095c-0.014,0.014-0.026,0.029-0.038,0.046c-0.136,0.108-0.269,0.22-0.399,0.337    c-0.002,0-0.002,0-0.003,0.001c-0.019,0.012-0.033,0.023-0.039,0.035c-0.406,0.368-0.779,0.776-1.099,1.229    c-0.568,0.805-0.97,1.745-1.073,2.706c-0.103,0.956,0.091,1.935,0.344,2.879c0.221,0.822,0.484,1.618,0.846,2.378    c-1.697,0-3.396,0-5.094,0c1.005-1.635,1.707-3.373,2.102-5.236c0.423-2,0.494-4.143-0.33-5.94    c-0.47-1.024-1.23-1.937-2.144-2.598c-0.194-0.14-0.396-0.27-0.603-0.391C7.74,8.68,7.485,8.546,7.273,8.504L7.272,8.503    c-0.733-0.391-1.507-0.72-2.229-1.145c0.032-0.043-0.104-0.118-0.26-0.159c-0.61-0.386-1.176-0.852-1.627-1.408    C3.061,5.674,2.97,5.551,2.884,5.425C2.927,5.405,2.843,5.291,2.737,5.2C2.738,5.201,2.738,5.201,2.737,5.2z"></path><path d="M1.646,2.053C1.658,2.155,1.673,2.256,1.69,2.357H1.689c-0.041,0-0.132-0.094-0.218-0.137    C1.384,2.18,1.3,2.19,1.219,2.164C1.103,2.126,0.994,2.012,0.968,1.898C0.946,1.812,0.972,1.724,0.944,1.622    c-0.01-0.03-0.024-0.063-0.026-0.081C0.904,1.469,1.074,1.66,1.211,1.742c0.14,0.084,0.24,0.057,0.331,0.148    C1.58,1.929,1.615,1.987,1.645,2.051C1.645,2.051,1.645,2.052,1.646,2.053z"></path></g></g></svg>