<svg fill="#00DCFF" xmlns="http://www.w3.org/2000/svg" xmlns:xlink="http://www.w3.org/1999/xlink" version="1.1" x="0px" y="0px" viewBox="0 0 65 65" enable-background="new 0 0 65 65" xml:space="preserve"><path d="M63.997,42.878l0.006-0.199l-1.607-0.04c-0.013,0-0.022,0-0.033,0.004l-1.024,0.322l-0.502,0.172l-0.517,0.141l0.001,0.005  l-0.448,0.124l-0.515-0.052c-0.009,0.001-0.019,0-0.029,0.001l-0.981,0.191l-0.404-0.065l0.001-0.015l-0.112-0.004l-1.247-0.203  l0.755-0.352c0.013-0.006,0.024-0.015,0.034-0.025l0.121-0.142l0.744-0.169c0.016-0.004,0.03-0.011,0.042-0.021h0.001l0,0  l0.053-0.045l0.341-0.287l0.116-0.034l0.356-0.097l0.512,0.066c0.014-0.001,0.029,0,0.043-0.004l0.43-0.138l0.506,0.08l0.031-0.197  l-0.148-0.023l1.796-0.114l0.531,0.068c0.01,0.001,0.019,0.001,0.027-0.001l0.516-0.075l-0.029-0.197l-0.502,0.073l-0.536-0.067  l-2.697,0.173l-0.852,0.25l-0.178,0.048c-0.014,0.004-0.027,0.011-0.039,0.021l-0.39,0.333l-0.456,0.104l0.009-0.01  c0.009-0.011,0.016-0.022,0.02-0.036l0.158-0.513l-0.191-0.059l-0.152,0.493l-0.169,0.198l-0.835,0.189l0.048-0.05l0.452-0.26  l-0.1-0.174l-0.465,0.267c-0.008,0.005-0.016,0.011-0.022,0.018l-0.157,0.163l-0.003-0.005l-0.222,0.146l-0.797,0.181l-0.489-0.092  l-0.533-0.056v0.002l-0.016-0.002l-0.552,0.026l-0.705,0.148l-0.189-0.049c-0.016-0.003-0.029-0.006-0.044-0.002l-1.521,0.283  l-0.026-0.005c-0.012-0.002-0.022-0.002-0.034,0l-0.525,0.087l-0.01,0.002l-0.009,0.002l-0.822-0.068l-0.073-0.033  c-0.016-0.007-0.03-0.009-0.048-0.009l-1.074,0.06l-0.536,0.054l0,0l-2.635,0.168l-0.14-0.021l1.157-0.197  c0.017-0.003,0.032-0.01,0.045-0.021l0.421-0.332c0.008-0.006,0.015-0.013,0.021-0.021l0.095-0.137l0.107-0.063l0.446-0.418  c0.008-0.008,0.015-0.017,0.021-0.027l0.292-0.564l0.039-0.167l0.333-0.25l0.001,0.001l0.153-0.149l0.26,0.108  c0.012,0.005,0.025,0.007,0.038,0.007h0.54l2.163-0.077l1.036-0.258l0.524-0.112c0.015-0.003,0.027-0.009,0.039-0.018l0.127-0.095  l0.321-0.098l0.512,0.041l1.572,0.178l0.528,0.042c0.003,0,0.005,0,0.008,0h0.001h0.002l0.56-0.017l0.496-0.134l0.522,0.081  l1.608,0.014l0.002-0.199h-0.036l0.381-0.093l-0.047-0.195l-0.467,0.113l-1.58-0.132c-0.011,0-0.021,0-0.032,0.003l-1.418,0.358  l-0.509-0.041l-1.572-0.178l-0.459-0.037l0.752-0.559l1.219-0.247l0.948,0.119l0.537,0.041l1.072-0.005v-0.199l-1.064,0.005  l-0.524-0.041l-0.357-0.045l0.269-0.055l0.429,0.121c0.012,0.003,0.025,0.002,0.036,0.003l0.528-0.046l-0.018-0.199l-0.51,0.044  l-0.035-0.01l0.593-0.12l1.104-0.141l0.447,0.094c0.009,0.002,0.013,0.002,0.027,0.002l0.552-0.037l0.518-0.14l-0.053-0.193  l-0.498,0.137l-0.394,0.025l0.422-0.216l0.39-0.338l0.489-0.164l-0.063-0.189l-0.509,0.17c-0.013,0.004-0.024,0.011-0.034,0.02  l-0.384,0.338l-0.463,0.233l-0.44,0.056l-0.044-0.009c-0.012-0.003-0.022-0.002-0.035-0.001l-1.065,0.156l-0.985,0.2  c-0.006-0.001-0.012-0.002-0.018-0.002l-0.557,0.001l-0.843,0.185l-0.101,0.004l-0.502-0.116l-0.003-0.001l0,0l-0.005-0.001v0.001  c-0.009-0.002-0.018-0.001-0.027-0.003l-0.516,0.026l-0.313-0.042l0.381-0.294c0.007-0.006,0.013-0.012,0.019-0.02l0.952-1.275  l0.037-0.024l1.723-1.16l1.028-0.288l0.448-0.253l0.497-0.041l1.555,0.346l0.043-0.195l-1.569-0.349  c-0.01-0.003-0.023-0.001-0.029-0.002l-0.534,0.044c-0.015,0.001-0.028,0.006-0.041,0.013l-0.444,0.254l-0.376,0.104l0.35-0.183  l0.418-0.298l1.034-0.174l-0.033-0.197l-1.057,0.178c-0.015,0.003-0.029,0.009-0.041,0.018l-0.425,0.304l-0.485,0.252l-0.423,0.284  c-0.009,0.003-0.018,0.007-0.024,0.012l-1.776,1.2c-0.01,0.007-0.018,0.015-0.024,0.023l-0.954,1.278l-0.394,0.304l-0.88,0.159  l-0.11-0.033c-0.012-0.004-0.025-0.005-0.038-0.004l-2.134,0.215l0,0c-0.011,0.001-0.021,0.004-0.03,0.008l-0.471,0.206l0.34-0.368  l2.203-1.493l0.505-0.111c0.009-0.002,0.019-0.006,0.027-0.011l0,0l0.001-0.001h0.001l0.004-0.002l0.462-0.258  c0.015-0.008,0.027-0.02,0.036-0.034l0.006-0.009l0.413-0.246c0.009-0.005,0.018-0.012,0.024-0.021l0.158-0.183l0.149-0.024  l0.984,0.355l0.068-0.188l-1.009-0.364c-0.001,0-0.002,0-0.003,0l0.319-0.37l0.659-0.29l0.454-0.26l0.505-0.137l-0.053-0.193  l-0.517,0.141c-0.008,0.002-0.016,0.006-0.023,0.01l-0.456,0.261l-0.397,0.175l0.371-0.712c0.004-0.008,0.008-0.018,0.009-0.026  l0.214-1.088l0.149-0.014l0.52-0.119l0.525-0.104l-0.039-0.195l-0.528,0.104l-0.509,0.117l-0.078,0.007l0.064-0.326l0.114-0.313  l0.274-0.056L55.631,33.2l0.134-0.056l0.293-0.164l0.761-0.067l0.528-0.011l1.069,0.064l0.012-0.199l-1.077-0.065l-0.543,0.011  l-0.639,0.057l-0.034-0.062l-0.137,0.077l-0.473,0.042l0.019-0.212l0.164-0.315v0l0.24-0.217l0.604,0.109  c0.013,0.002,0.024,0.001,0.038-0.001l2.473-0.517c0.008-0.001,0.015-0.005,0.022-0.008v0.001l0.192-0.091l1.509,0.309  c0.007,0.001,0.014,0.002,0.021,0.002c0.012,0,0.022-0.002,0.033-0.006l0.455-0.162l1.387-0.815l-0.102-0.173l-1.369,0.808  l-0.411,0.145l-1.224-0.249c0.01-0.006,0.02-0.012,0.027-0.021l0.673-0.766l2.789-1.634l-0.102-0.173l-0.035,0.021l-0.081-0.137  l-0.89,0.53l0.674-0.827l-0.154-0.126l-0.669,0.82l-1.312,0.906c-0.01,0.006-0.018,0.014-0.024,0.023l-0.017,0.023l-0.414,0.22  l-0.908,0.538l-0.99,0.376l-0.521,0.056v0.003l-0.019,0.001l-1.029,0.319L56.269,31.7l0.438-0.655  c0.008-0.012,0.014-0.026,0.016-0.041l0.015-0.098l0.629-0.675c0.012-0.013,0.02-0.028,0.024-0.045l0.246-1.034l0.561-1.608  l0.006-0.003l0.482-0.035l0.462,0.228c0.014,0.007,0.028,0.01,0.044,0.01c0.005,0,0.01,0,0.015-0.001l2.574-0.373  c0.009-0.001,0.018-0.004,0.026-0.008l1.449-0.653l0.518-0.034l-0.014-0.199l-0.535,0.035c-0.012,0-0.023,0.003-0.034,0.008  l-1.453,0.654l-2.195,0.318l1.009-0.393l1.934-0.959l0.873-0.595l0.483-0.23l-0.086-0.181l-0.497,0.238l-0.874,0.596l-1.913,0.948  L59.228,27.4l-0.504-0.093v0.001c-0.009-0.002-0.018-0.005-0.025-0.003l-0.42,0.03l0.055-0.161l1.161-1.334l-0.15-0.131l-0.845,0.97  l0.763-2.269l-0.189-0.063l-0.913,2.718l-0.006-0.002l-0.008,0.023l-0.21,0.241c-0.01,0.011-0.017,0.024-0.021,0.038l-0.043,0.15  l-0.682,0.436l0.02-0.126c0.002-0.014,0.002-0.028-0.002-0.042l-0.144-0.517l-0.193,0.054l0.138,0.496l-0.043,0.279l-0.201,0.129  l-1.373,0.837c-0.014,0.008-0.024,0.019-0.033,0.032l-0.288,0.458l-0.52,0.912L54.071,30.8l-0.56,0.266l-0.549,0.208l0.182-0.233  c0.008-0.01,0.014-0.022,0.018-0.035l0.28-1.009l0.691-0.764l0.463-0.236c0.014-0.007,0.026-0.018,0.036-0.031l0.045-0.063  l0.892-0.266c0.011-0.003,0.021-0.008,0.029-0.014l0.438-0.309c0.011-0.007,0.021-0.017,0.027-0.028l0.745-1.188l0.094,0.032  l0.064-0.189l-0.049-0.017c0.007-0.012,0.012-0.024,0.014-0.037l0.04-0.254l0.493-0.045l-0.018-0.199l-0.443,0.04l0.012-0.071  c0.002-0.008,0.002-0.017,0.001-0.025l-0.012-0.119l0.07-0.07v0l0.328-0.424c0.009-0.012,0.016-0.026,0.019-0.041l0.009-0.041  l1.35-2.25l0.206-0.494c0.004-0.01,0.006-0.02,0.007-0.03l0.043-0.514l0.056-0.104l0.18-0.099l0.493-0.146l0.512,0.064l0.025-0.198  l-0.532-0.066c-0.018-0.003-0.029-0.001-0.041,0.003l-0.477,0.142l0.027-0.051l-0.176-0.095l-0.16,0.3l-0.219,0.119  c-0.012,0.006-0.021,0.015-0.03,0.025l-1.008,1.254c-0.01,0.012-0.017,0.026-0.02,0.042l-0.425,2.024l-0.015,0.024l-0.251,0.35  l-0.016-0.158l-0.152-0.515c-0.003-0.011-0.008-0.021-0.015-0.031l-0.315-0.431l-0.001-0.001l0,0l-0.001-0.001l-0.009-0.013  l-0.274-0.407l-0.182-0.504c-0.004-0.011-0.01-0.021-0.017-0.03l-0.783-0.938l0.07-0.013l0.99-0.412  c0.014-0.005,0.025-0.014,0.035-0.024l0.726-0.789l-0.146-0.136l-0.711,0.773l-0.949,0.398l-0.16,0.029L54.622,22.2  c-0.01-0.011-0.021-0.02-0.034-0.026l-1.195-0.568l0.105-0.246l0.39-0.333l-0.129-0.152l-0.408,0.348  c-0.012,0.01-0.021,0.022-0.027,0.037l-0.111,0.26l-0.073-0.035l-0.473-0.251l-0.094,0.177l0.477,0.253l0.084,0.04l-0.712,1.665  l-0.009-0.177l0.252-0.487l-0.178-0.092l-0.093,0.181l-0.019-0.376l-0.199,0.01l0.035,0.721L52,23.556l-0.194,0.295l-0.123,0.054  c-0.014,0.006-0.025,0.014-0.035,0.025l-0.047,0.053l0.323-1.234l0.025-1.053l0.115-0.523c0.003-0.013,0.003-0.027,0.001-0.04  l-0.101-0.526c-0.003-0.012-0.007-0.024-0.014-0.034l-0.283-0.455l-0.17,0.105l0.273,0.439l0.094,0.488l-0.113,0.522l-0.024,1.049  l-0.42,1.593l-0.37,0.419l0.001,0.001c-0.011,0.012-0.019,0.025-0.022,0.04L50.8,25.223l-0.184,0.288l-0.146-0.026  c-0.012-0.002-0.024-0.002-0.036,0l-0.21,0.04l-0.014-0.044c-0.005-0.016-0.013-0.03-0.024-0.042l-0.752-0.765  c-0.01-0.01-0.021-0.018-0.035-0.022v0l-0.499-0.195c-0.005-0.002-0.01-0.002-0.016-0.004l0.097-0.194l0.396-0.328  c0.007-0.006,0.013-0.012,0.018-0.019l0.311-0.437l-0.162-0.116l-0.304,0.426l-0.402,0.333c-0.011,0.009-0.02,0.02-0.026,0.033  l-0.114,0.232L48.4,24.241l-0.136-0.627c-0.003-0.015-0.01-0.029-0.02-0.042l-0.325-0.408l-0.138-0.333l1.537-1.586  c0.006-0.007,0.012-0.014,0.016-0.022l0.646-1.196l0.008,0.002c0.02,0.005,0.044,0.005,0.063-0.004l0.491-0.206l0.348-0.056  l-0.014-0.083l1.194-0.499l0.589-0.007l-0.002-0.2l-0.094,0.001l0.367-0.153l-0.076-0.185l-0.825,0.345l-0.962,0.012l-1.021-0.168  l-0.551-0.072l-0.559,0.035l-2.274,0.69l-1.042-0.052l-1.037-0.23c-0.018-0.004-0.035-0.004-0.05,0.002l-0.53,0.159l-0.545,0.278  l0.033-0.043l1.783-1.159c0.007-0.005,0.014-0.01,0.02-0.017l0.344-0.377l0.99-0.338V17.7l0.016-0.005l0.47-0.257  c0.014-0.008,0.025-0.018,0.034-0.031l0.015-0.021l1.312-0.778l0.53-0.086l0.5-0.193c0.011-0.004,0.021-0.011,0.03-0.019  l1.144-1.023l0.887-0.054l0.524,0.103l1.06,0.082l0.016-0.199l-1.048-0.081l-0.525-0.104c-0.009-0.002-0.017-0.005-0.025-0.001  l-0.648,0.04l0.215-0.192l-0.133-0.149l-0.404,0.362l-0.114,0.007l-0.476,0.1l-0.128-0.021l-0.858-0.218l0.452-0.499l0.289-0.451  l-0.168-0.107l-0.279,0.438l-0.514,0.564l-0.694-0.176c-0.016-0.004-0.032-0.003-0.05,0l-0.378,0.098l-0.402-0.064l0.609-0.21  c0.015-0.005,0.027-0.013,0.037-0.023l0.372-0.361l0.492-0.207l0.449-0.293L49.128,13.5l-0.433,0.285l-0.494,0.206  c-0.012,0.005-0.022,0.012-0.031,0.021l-0.369,0.358l-0.52,0.179l0.654-1.006l-0.168-0.109l-0.795,1.221l-0.115,0.04l-0.008-0.001  c-0.018-0.004-0.035-0.001-0.05,0.004l-0.525,0.193l-0.843,0.569l-0.046,0.031v0l0,0c-0.008,0.005-0.016,0.012-0.021,0.02  l-0.325,0.396l-1.934,0.87c-0.008,0.004-0.016,0.009-0.022,0.014l-0.761,0.63l-0.071,0.031l-0.819,0.581l-0.056,0.039  c-0.014,0.01-0.024,0.022-0.032,0.038l-0.61,1.233l-0.002-0.86l0.014-0.52l0.18-0.486l-0.188-0.069l-0.186,0.502  c-0.004,0.01-0.006,0.021-0.006,0.032l-0.014,0.539l0.003,1.263l-0.16,0.323l-0.081,0.014l0.12-1.5l0.177-1.598l-0.199-0.022  l-0.177,1.601l-0.121,1.553l-0.091,0.016c-0.018,0.003-0.033,0.01-0.047,0.021l-0.179,0.147l-0.359-0.418  c-0.007-0.008-0.016-0.015-0.024-0.021l-0.29-0.176l-0.141-0.262l0.232-0.568l0.087-0.529c0.002-0.011,0.002-0.023,0-0.035  l-0.103-0.543l0.727-0.95l0.418-0.27l2.012-0.773l0.477-0.245c0.013-0.007,0.024-0.016,0.033-0.028l0.326-0.426  c0.008-0.01,0.013-0.021,0.017-0.032l0.154-0.513c0.004-0.014,0.005-0.028,0.003-0.042l0,0v0c0,0,0,0,0,0v0l0,0l-0.002-0.01v-0.005  l-0.068-0.504l-0.005-0.186l0.123-0.021l-0.033-0.197l-0.095,0.016l-0.004-0.128l0.177-0.459l0.192-0.278l1.558-0.068l1.064,0.083  l1.565,0.184l0.023-0.198l-1.569-0.184l-1.08-0.084l-1.368,0.059l0.291-0.095l0.498-0.197c0.008-0.003,0.016-0.007,0.023-0.013  l0.43-0.325l0.839-0.668c0.007-0.006,0.014-0.013,0.02-0.021l0.31-0.438l-0.164-0.115L45.77,11.04l-0.826,0.658l-0.417,0.315  l-0.479,0.19l-0.098,0.032l0.394-0.569l0.874-0.587l-0.111-0.166l-0.89,0.598c-0.011,0.007-0.02,0.016-0.026,0.026l-0.552,0.8  l-0.361,0.118l0.009-0.079l0.224-0.469c0.006-0.012,0.01-0.024,0.01-0.038l0.059-1.07l-0.199-0.011l-0.058,1.05l-0.223,0.467  c-0.005,0.01-0.008,0.021-0.01,0.032l-0.021,0.182l-0.017,0c-0.012,0-0.023,0.003-0.035,0.008L42.53,12.73l-0.009,0.003l0,0  l-0.001,0l0,0c-0.013,0.006-0.025,0.015-0.035,0.025l-1.796,2.003l-0.27,0.374l-0.601,0.534l-1.156,0.805l0.084-0.086l-0.145-0.14  l-0.06,0.062l-0.184-0.443l0.081-0.469l0.291-0.426c0.009-0.014,0.015-0.03,0.017-0.046l0.155-1.601  c0.001-0.009,0-0.018-0.001-0.026v-0.002l0,0l-0.003-0.015l-0.07-0.502l-0.088-2.125l0.155-0.519L39,8.532l-0.199-0.013l-0.1,1.582  l-0.156,0.513c-0.003,0.011-0.005,0.022-0.004,0.033l0.057,1.361l-0.074-0.271l-0.097-0.527c-0.002-0.008-0.005-0.017-0.008-0.025  l-0.458-0.965L37.754,9.74l-0.432-1.536l-0.007-1.059l-0.199,0.001l0.007,1.072c0,0.009,0.001,0.018,0.003,0.026l0.439,1.562  l0.213,0.496l0.454,0.957l0.096,0.523l0.281,1.025l0.094,0.515l-0.151,1.56l-0.289,0.422c-0.008,0.012-0.013,0.025-0.016,0.039  l-0.038,0.218l-0.226-0.445l0.196-0.99l-0.195-0.039l-0.146,0.743l-0.97-1.91l-0.622-0.873l-0.162,0.116l0.614,0.86l1.077,2.124  l-0.21,1.067l0.03,0.676l-0.413-0.339l-0.16-0.095l-0.012-0.074l0.171-0.481c0.003-0.009,0.005-0.02,0.005-0.03l0.019-0.536  c0.001-0.017-0.003-0.033-0.01-0.047v0l0,0l-0.033-0.067l-0.007-0.014l-0.906-1.862l-0.322-0.426l-0.408-1.1  c-0.004-0.011-0.009-0.021-0.017-0.029l-0.33-0.405l-0.195-0.459l0.07-1.829l0.012-0.279l0.412-0.987l0.188-1.044l0.459-1.543  l0.563-2.068l-0.193-0.053l-0.563,2.066l-0.31,1.043l-0.171-0.064l-0.193,0.52l-0.187,1.039l-0.178,0.506  c-0.003,0.01-0.005,0.02-0.005,0.03L34.86,8.784c-0.001,0.005-0.003,0.009-0.003,0.014l-0.02,0.523v0.011l0,0v0.001h0.001  l-0.063,1.606c-0.001,0.015,0.002,0.029,0.008,0.043l0.209,0.493c0.004,0.009,0.009,0.017,0.015,0.024l0.329,0.403l0.168,0.458  l-0.22-0.291l-0.549-0.921c-0.008-0.014-0.02-0.025-0.033-0.034l-0.909-0.567c-0.013-0.008-0.026-0.013-0.041-0.014l-0.514-0.059  l-0.457-0.242l-0.094,0.177l0.474,0.251c0.011,0.006,0.023,0.01,0.035,0.011l0.51,0.058l0.87,0.543l0.542,0.909l0.506,0.668  l-0.697-0.506l-0.468-0.242l-1.355-0.866l-0.107,0.169l1.363,0.87l0.463,0.239l0.861,0.626l0.154,0.131l0.417,1.134l0.187,0.478  l-0.034,0.432l-0.155-0.396l-0.186,0.073l0.306,0.774l-0.013,0.163c-0.001,0.014,0.001,0.027,0.005,0.041l0.18,0.516l-0.169-0.219  l-0.403-0.331l-0.021-0.024l0.092-0.479l-0.197-0.037l-0.061,0.32l-0.158-0.185c-0.01-0.011-0.021-0.02-0.034-0.026l-0.116-0.053  l-0.658-0.644c-0.012-0.011-0.025-0.019-0.04-0.024l-0.51-0.163c-0.01-0.003-0.02-0.005-0.029-0.005l-0.542-0.004l-0.504,0.022  l1.467-1.066l-0.117-0.162l-1.71,1.244l-0.054,0.002l-0.101-0.065l-0.01-0.008l-0.667-0.771l-0.185-0.666l0.299-0.168l-0.098-0.174  l-0.256,0.144l-0.165-0.593l0.771-0.665l-0.131-0.151l-0.801,0.691l-0.883,0.399l-0.623-0.537l0.021-0.029l0.373-0.384  c0.009-0.009,0.016-0.021,0.021-0.032l0.604-1.49l-0.186-0.075l-0.597,1.472l-0.369,0.381l-0.036,0.051l-0.805-0.452l-0.098,0.175  l0.786,0.44l-0.785,1.098l-0.266,0.397c-0.012,0.005-0.023,0.013-0.033,0.022l-0.333,0.347l-1.223,0.914l-0.99,0.301l-1.067,0.101  c-0.015,0.001-0.029,0.006-0.041,0.013l-0.095,0.056l-0.061-0.104l-0.107-0.515L24.5,14.257l-0.192,0.054l0.142,0.51l0.087,0.421  l-0.069-0.027l-0.188,0.489l-0.358,0.209l-0.05-0.127l-0.229-0.456l0.019-0.51c0-0.016-0.002-0.031-0.009-0.045l-0.224-0.495  l-0.098-0.183l1.447-1.267l-0.132-0.15l-1.412,1.237L23.009,13.5l0.037-0.431l0.248-0.453c0.007-0.013,0.011-0.026,0.012-0.041  l0.037-0.538l0,0l0.038-1.057l0.16-0.498c0.005-0.015,0.006-0.03,0.004-0.045l-0.079-0.51l0.05-1.059l0.088-0.512L23.853,7.9  l-0.176-0.096l-0.256,0.471c-0.005,0.01-0.009,0.02-0.011,0.031l-0.093,0.541l-0.051,1.091l0.076,0.506l-0.085,0.264L23.14,10.43  c-0.006-0.014-0.015-0.025-0.025-0.036l-1.198-1.073c-0.008-0.006-0.017-0.012-0.026-0.017l-0.51-0.228l-0.119-0.023l0.215-0.391  c0.004-0.008,0.008-0.017,0.01-0.025l0.246-1.053l0.073-0.531l-0.198-0.027l-0.071,0.522l-0.241,1.031l-0.24,0.436l-0.201-0.039  l-0.038,0.196l0.138,0.026l-0.169,0.308c-0.006,0.012-0.01,0.024-0.012,0.037l-0.061,0.532c-0.001,0.012-0.001,0.025,0.002,0.037  l0.334,1.262l-0.567-0.487l-1.235-1.729l-0.389-1.541l-0.194,0.049l0.394,1.56c0.003,0.012,0.009,0.023,0.016,0.034l1.262,1.762  l0.458,0.395L21,11.868l0,0.133l-0.197-0.354l-0.175,0.098l0.253,0.455l0.012,0.054l-0.346-0.13l-0.531-0.636l-0.04-0.262  l-0.215-0.511l-0.284-0.425L19.425,9.78L19.226,9.8l0.055,0.533c0.002,0.016,0.007,0.032,0.017,0.045l0.289,0.429l0.199,0.47  l0.016,0.106l-0.077,0.064l0.106,0.126l0.055,0.369l-0.222-0.284l-0.156,0.124l0.438,0.559l0.155,1.044l-0.031,0.266L20,13.395  l-0.161-0.511c-0.004-0.013-0.01-0.024-0.019-0.035l-0.689-0.821c-0.006-0.007-0.013-0.013-0.021-0.019l-0.888-0.601l-0.112,0.166  l0.876,0.593l0.667,0.795l0.153,0.487l0.207,0.792l-0.006,0.092l-0.911,0.125l-0.316-0.021l-0.491-0.179  c-0.008-0.003-0.017-0.005-0.025-0.006l-3.737-0.329l-0.018,0.199l1.716,0.151l0.018,0.134l0.508-0.069l1.05,0.104l0.94,0.257  c0.009,0.002,0.018,0.003,0.026,0.003c0.004,0,0.009,0,0.014-0.001l0.332-0.045l0.193,0.012l0.684-0.119l-0.028,0.409l-0.001,0.005  c-0.002,0.011-0.003,0.022-0.001,0.033l0.13,1.062l0.048,0.515l-0.135,0.485l-0.534,0.887l-0.005,0.006  c-0.008,0.01-0.015,0.021-0.019,0.033l-0.331,1.02c-0.004,0.012-0.005,0.025-0.004,0.039l0.041,0.534  c0,0.008,0.002,0.017,0.005,0.024l0.338,0.992l-0.077,0.508c0,0.001-0.001,0.001-0.001,0.002l-0.279,2.655l-0.161,0.5  c-0.004,0.013-0.005,0.026-0.004,0.039l0.087,1.068c0.001,0.01,0.003,0.021,0.007,0.03l0.707,1.682l-1.08-0.574l-0.153-0.087  l-0.327-0.973l0,0l0,0v0l0-0.001l0,0l-0.004-0.006l-1.653-2.77l-0.354-0.399l-1.036-1.23c-0.006-0.007-0.013-0.014-0.021-0.019  l-0.872-0.583l-0.527-0.907c-0.006-0.011-0.015-0.021-0.025-0.028l0,0l-0.411-0.318l-0.07-0.076l0.901-1.113l-0.155-0.126  l-0.882,1.09l-0.156-0.17c-0.011-0.012-0.025-0.021-0.04-0.026l-0.076-0.027l0.056-0.441l0.579-0.897l0.407-0.991l-0.185-0.076  l-0.398,0.975l-0.583,0.9c-0.008,0.012-0.013,0.027-0.015,0.042l-0.038,0.295l0-0.008l-0.134,0.006l-0.316-0.436l0,0l-0.812-1.363  l-0.181-1.563l0.259-1.547l0.209-0.478l0.338-0.397l-0.152-0.13l-0.347,0.408c-0.006,0.008-0.012,0.016-0.016,0.025l-0.222,0.515  l-0.268,1.585c-0.001,0.009-0.002,0.019,0,0.028l0.16,1.378l-0.668-0.502l-0.297-0.426c-0.009-0.013-0.021-0.023-0.035-0.031  l-1.401-0.752l-1.051-1.192l-0.15,0.132L8.634,15c0.008,0.009,0.018,0.017,0.028,0.022l1.396,0.75l0.292,0.42  c0.006,0.009,0.014,0.017,0.022,0.023l0.841,0.633l0.745,1.232l-0.116-0.141c-0.008-0.01-0.019-0.019-0.03-0.024l-0.041-0.022  l-0.324-0.332c-0.011-0.011-0.025-0.02-0.04-0.025l-0.11-0.038l-0.025-0.061l-0.043-0.519l-0.199,0.017l0.041,0.487l-0.176-0.06  l-1.043-0.278l-0.527-0.101l-0.022,0.116l-0.23-0.104l-0.764-0.729c-0.011-0.01-0.023-0.018-0.038-0.022L7.26,15.911l-0.495-0.205  l-0.049,0.12l-0.03-0.017l-0.288-0.423l-0.165,0.112l0.301,0.443c0.009,0.013,0.021,0.024,0.034,0.031l1.78,0.984l0.412,0.291  c0.011,0.008,0.023,0.013,0.036,0.016l0.236,0.053l0.884,0.336l0.426,0.303c0.009,0.006,0.018,0.011,0.028,0.014l0.992,0.312  l0.018,0.005l0.036,0.024l0.1,0.244l-0.057,0.083l-0.206,0.495c-0.006,0.014-0.008,0.029-0.007,0.044l0.035,0.558l0.066,0.219  l-0.04-0.011l-0.077-0.023l-0.222-0.351l-0.62-0.875l-0.163,0.115l0.313,0.442l-0.113-0.067l-0.087,0.147l-0.975-0.857L9.2,18.128  l-0.224-0.487l-0.182,0.083l0.201,0.425l-0.143-0.125l-0.285-0.438L8.4,17.695l0.273,0.42l-0.805-0.611l-0.121,0.159l1.412,1.071  l0.262,0.315l0.051,0.109l-0.106-0.163c-0.007-0.01-0.016-0.02-0.026-0.027l-1.313-0.93C8.019,18.034,8.01,18.029,8,18.026  l-2.044-0.646l-0.061,0.19l2.029,0.642l1.284,0.91l0.176,0.27c-0.007-0.007-0.015-0.016-0.025-0.02L8.4,18.894l-0.089,0.179  l0.939,0.468l0.314,0.403l0.229,0.309l-0.068,0.115L9.47,20.2l-1.143-1.06l-0.485-0.524l-0.04,0.037l-0.297-0.276l-0.136,0.146  l0.81,0.75l0.234,0.253l0.214,0.453l0.02,0.358l-0.215-0.171l-0.077,0.097l-1.431-1.707l-0.13-0.498L6.601,18.11l0.135,0.52  c0.003,0.014,0.011,0.027,0.02,0.039l1.722,2.054c0.005,0.006,0.012,0.012,0.019,0.017l0.389,0.274l0.002,0.005  c0.004,0.009,0.009,0.017,0.015,0.023l0.217,0.252l-0.009,0.018l-0.744-0.241l-1.022-0.981l-1.522-2.205l-0.165,0.113l1.535,2.221  l0.938,0.902l-0.024,0.076l0.156,0.05l0.096,0.092l0.401,0.331l0.275,0.421L9.43,23.03l-0.22-0.194l-0.998-1.24l-0.176-0.488  l-0.188,0.068l0.182,0.504c0.004,0.01,0.009,0.02,0.016,0.028l1.02,1.266l0.542,0.478l0.028,0.067l-0.042,0.061l0.116,0.081  l0.221,0.371l0.156,0.423l-1.351-0.009l-1.076-1.04L7.236,22.46l-0.274-1.037c-0.003-0.012-0.009-0.024-0.016-0.034l-0.318-0.431  l-0.161,0.119l0.307,0.415l0.275,1.034l0.164,0.367l-0.69-0.72l-0.24-0.462l-0.178,0.092l0.247,0.476  c0.004,0.009,0.01,0.017,0.017,0.023L7.1,23.065l0.626,1.139l-0.854-0.598l-0.466-0.265l-0.099,0.174l0.458,0.26l0.893,0.624  l0.235,0.109l0.056,0.101l-0.272,0.059l-0.425-0.115L6.87,24.222l-0.382-0.377l-0.141,0.143l0.387,0.381l0.375,0.326l-0.054-0.011  l-0.782-0.69l-0.392-0.365l-0.137,0.146l0.394,0.367l0.804,0.709c0.013,0.011,0.028,0.019,0.045,0.022l0.536,0.112l0.668,0.065  l0.016,0.027l-2.142-0.036l-0.259-0.206l-0.303-0.425l-0.163,0.116l0.311,0.437c0.005,0.007,0.012,0.014,0.02,0.02l0.066,0.053  l-0.096-0.001c-0.012,0-0.023,0.002-0.034,0.006l-0.29,0.101l-0.655-1.053l-0.156-0.5l-0.191,0.06l0.159,0.512  c0.003,0.008,0.006,0.016,0.011,0.023l0.145,0.233l-0.598-0.452l-0.121,0.159l0.842,0.637l0.324,0.465L5.01,25.25l-0.083-0.015  l-0.869-0.568l-1.716-0.992l-0.127-0.346l-0.188,0.069l0.044,0.12l-0.797-0.461l-0.1,0.173l1.004,0.581l0.402,1.096  c0.004,0.01,0.009,0.02,0.016,0.029l0.278,0.34l-0.278-0.067c-0.014-0.004-0.028-0.004-0.042-0.001L2.029,25.31l0.038,0.196  l0.504-0.098l0.462,0.112c0.008,0.002,0.016,0.003,0.023,0.003c0.003,0,0.006,0,0.008,0l0.206-0.018l0.93,0.397l-1.714,0.068  l-0.479,0.104l-0.516,0.034l-0.469-0.112l-0.046,0.194l0.483,0.115c0.007,0.002,0.015,0.003,0.023,0.003c0.002,0,0.004,0,0.007,0  l0.545-0.037l0.476-0.103l0.689-0.027l1.055,1.217l0.401,0.356c0.009,0.008,0.02,0.015,0.032,0.019l0.433,0.158  c0.011,0.004,0.022,0.006,0.034,0.006c0.008,0,0.015-0.001,0.022-0.003l0.221-0.051l-0.002,0.017L7,28.05l1.057,0.051l1.521,0.293  l0.522-0.016l0.935,0.239l0.087,0.022l0.002,0l0,0l0.002,0l1.554,0.378l0.5,0.171l0.395,0.168l0.002,0.001l0.003,0.001l0,0  l0.002,0.001h0l0.001,0l0,0c0.012,0.005,0.026,0.008,0.039,0.008s0.027-0.003,0.039-0.008l1.952-0.832l1.044,0.052  c0.015,0.002,0.026-0.001,0.037-0.005l1.447-0.494l0.423,0.183l0.529,0.11l0.238,0.039l0.275,0.21l0,0l0.002,0.002l0.596,0.427  l0.723,0.418l0.203,0.183l-0.039,0.012l-1.807-0.55l-0.52-0.132l-0.049,0.194l0.515,0.13l1.831,0.558c0.02,0.006,0.04,0.006,0.058,0  l0.175-0.053l-0.097,0.105l0.122,0.113l-1.331,0.211l0.031,0.197l0.409-0.065l0.44,0.293c0.015,0.01,0.031,0.016,0.049,0.017  l2.359,0.161l0.4,0.157l0.392,0.327l0.377,0.381c0.012,0.012,0.027,0.021,0.043,0.026l0.502,0.143l-0.562,0.093l-0.552,0.003  l-1,0.157l-0.445-0.127C22.424,32.002,22.416,32,22.406,32l-0.536-0.003l-0.001,0.2l0.522,0.003l0.453,0.129  c0.009,0.002,0.018,0.004,0.027,0.004c0.005,0,0.01,0,0.015-0.001l1.009-0.159l0.552-0.003l1.008-0.166l0.101-0.006l1.347,1.771  l0.479,0.717c0.006,0.01,0.014,0.018,0.023,0.024l0.136,0.1l1.1,2.037l1.5,2.568l0.001-0.001l0.969,2.725l0.92,4.279l0.226,1.437  l0.328,4.237l-1.019,3.905l-0.298,2.01l-0.096,2.023v2.021h0.2v-2.017l0.095-2.009l0.294-1.989l1.016-3.893l2.656-3.462l2.79-2.559  l0.001,0.001l2.034-1.628l0.666-0.343l1.451-0.441l2.271,0.124v0.002l0.786,0.112l2.648-0.167l0.526,0.072  c0.005,0.001,0.009,0.001,0.014,0.001s0.011,0,0.016-0.001l0.998-0.159l0.112,0.01l0.391,0.179c0.014,0.006,0.027,0.009,0.042,0.009  c0.008,0,0.016-0.001,0.023-0.002l0.446-0.109l0.588,0.05c0.012,0.001,0.02,0.001,0.029-0.002l0.324-0.068l1.166,0.207  c0.012,0.002,0.022,0.002,0.036,0l0.977-0.171l0.987,0.361c0.011,0.004,0.022,0.006,0.034,0.006c0.004,0,0.009,0,0.013,0l1.573-0.2  l0.502-0.137l0.921,0.032l0.532,0.086c0.005,0.001,0.01,0.001,0.016,0.001c0.007,0,0.013,0,0.02-0.001l0.984-0.192l0.519,0.053  c0.014,0,0.025,0,0.037-0.004l0.801-0.221l0.183-0.048l0.494-0.144l0.531-0.029l0.52-0.015l0.497,0.15l0.059-0.191l-0.513-0.155  c-0.011-0.003-0.021-0.006-0.032-0.004l-0.425,0.013l0.384-0.121L63.997,42.878z M59.66,41.927l0.105-0.007l-0.103,0.033  L59.6,41.945L59.66,41.927z M57.546,40.543l1.052,0.084l0.199,0.019L57.7,40.637l-0.323-0.051L57.546,40.543z M35.258,7.777  l0.186-1.037l0.098-0.261L35.464,6.74L35.28,7.774l-0.125,0.299L35.258,7.777z M46.256,43.166l0.16-0.035l-0.015,0.011  L46.256,43.166z M39.687,43.252l-0.139,0.499l-0.686,0.951l0.552-1.072l0.577-0.834l0.685-0.76l0.12-0.12l-0.333,0.526l-0.751,0.766  C39.7,43.221,39.691,43.235,39.687,43.252z M41.939,40.857c-0.017,0.003-0.032,0.011-0.046,0.021l-0.387,0.332l5.867-5.538  l0.641-0.328c0.009-0.005,0.017-0.011,0.024-0.018l1.373-1.344l0.17-0.017l0.066,0.176l0.085,0.741l-0.512,0.685  c-0.007,0.009-0.013,0.02-0.016,0.031l-0.078,0.26l-0.385,0.482l-1.191,1.073l-0.375,0.362l-0.003,0.002l-1.276,0.979  c-0.012,0.009-0.021,0.02-0.028,0.032l-0.141,0.271l-0.162,0.107c-0.012,0.008-0.021,0.019-0.029,0.03l-0.55,0.889L44.55,40.32  l-0.176,0.036l-0.843,0.061c-0.009,0-0.017,0.002-0.025,0.005l-0.843,0.287L41.939,40.857z M45.011,34.737l-0.521,0.126  c-0.011,0.003-0.021,0.007-0.029,0.013l-0.641,0.396L43.446,35.1l0.255-0.3c0.009-0.01,0.016-0.021,0.02-0.034l0,0l1.12-3.559  l0.048-0.085l0.288-0.296l0.659-0.863l0.266-0.465c0.006-0.011,0.011-0.023,0.012-0.036l0,0l0.078-0.567l1.066-1.526l1.771-1.209v0  l0.883,0.569l0.104,0.163l-0.433,0.974l0,0l-0.28,0.57c-0.006,0.011-0.009,0.024-0.01,0.037l-0.088,1.252L48.84,30.93l-1.457,2.87  l-2.196,0.937L45.011,34.737z M42.777,35.101l-0.505,0.155l-0.527,0.113v0.001c-0.006,0.002-0.013,0.003-0.019,0.005l-0.089,0.039  l0.014-0.034c0.003-0.007,0.005-0.015,0.006-0.022l0,0l0,0c0-0.002,0.001-0.003,0.001-0.004l0.001-0.009l0.155-1.046l0.026-0.148  l1.015-1.619l0.442-0.258c0.015-0.009,0.027-0.021,0.035-0.036l0.54-0.926c0.006-0.01,0.01-0.021,0.013-0.032l0.005-0.026  l0.272-0.107c0.013-0.005,0.024-0.013,0.034-0.023l0.376-0.382c0.009-0.009,0.017-0.021,0.021-0.032l0.201-0.493l0.229-0.504  l0.008-0.031l0.029-0.079l0.365-0.179l-0.004,0.294l-0.18,0.356l-0.051,0.1l-0.462,0.823l-0.079,0.081  c-0.012,0.011-0.02,0.025-0.024,0.041l-1.085,3.542l-0.008,0.025v0.001l-0.319,0.376l-0.019,0.009L42.777,35.101z M40.078,36.742  l-0.004,0.002l-0.006-0.009l0.022-0.014l0.752-0.737l0.421-0.186l-0.298,0.394L40.078,36.742z M40.746,35.809  c-0.012,0.005-0.021,0.012-0.03,0.021l-0.747,0.736l-2.098,1.281l-0.013,0.007l-0.001,0.001l0,0l-0.007,0.004l-1.608,0.977  l-0.347,0.337l0.174-0.377l-0.002-0.001l0.007-0.014l0.295-1.03c0.003-0.008,0.004-0.017,0.004-0.025l0.021-1.072  c0.001-0.013-0.002-0.024-0.006-0.036L36.1,35.832l0.216-0.743l0.39-0.596l0.002,0.001l0.469-0.611  c0.01-0.013,0.017-0.027,0.02-0.043l0.277-1.579l0.358-1.552l0.789-1.388l0.001,0l0.251-0.477c0.005-0.01,0.009-0.021,0.01-0.033  l0.071-0.511l0.499-0.388c0.008-0.006,0.015-0.014,0.021-0.022l0.305-0.441c0.006-0.008,0.01-0.017,0.013-0.026l0.161-0.493  l0.317-0.409c0.004-0.005,0.006-0.011,0.009-0.016l0.001,0l0.247-0.479c0.008-0.015,0.012-0.032,0.011-0.049l-0.011-0.381  l0.152-0.686l0.082-0.735l0.463-0.192l1.565-0.111l1.569,0.245l0.031-0.197l-1.593-0.246l-1.598,0.111l1.186-0.965l-0.127-0.155  l-1.462,1.191l0.004-0.029l0,0v-0.001v-0.001v-0.001l0,0v-0.001l1.142-1.544l0.127-0.059l1.029,0.323  c0.018,0.006,0.037,0.007,0.056,0.001l0.956-0.249l0.486-0.158l0.504,0.085c0.016,0.002,0.029,0.001,0.045-0.002l0.832-0.244  l0.315,1.75l-0.843-0.163l0.007-0.124l-0.199-0.011l-0.005,0.097l-0.51-0.099l-0.53-0.076l-0.029,0.198l0.526,0.075l0.532,0.103  l-0.012,0.222l-0.729,2c-0.003,0.009-0.005,0.018-0.006,0.027l-0.066,0.971l-0.172-0.056L44.1,26.41l-0.22-0.489l-0.182,0.082  l0.216,0.479l0.107,0.334L43.665,26.7l-0.527-0.095l-0.035,0.197l0.514,0.091l0.481,0.157l0.146,0.451  c0.005,0.015,0.013,0.029,0.023,0.04l0.018,0.017l-0.136,0.517l-0.069,0.513l-0.002,0.014h0.001l-0.001,0.004h0.001l-0.002,0.012  l-0.005,0.529l-0.04,0.516l-0.142,0.518l0,0l-0.002,0.008l-0.081,0.432l-0.693,0.724l-0.021,0.009  c-0.013,0.005-0.024,0.013-0.034,0.022l-0.377,0.382l0,0c-0.007,0.008-0.014,0.018-0.02,0.027l-0.942,1.924  c-0.004,0.008-0.007,0.018-0.009,0.026l-0.06,0.341l-0.091,0.145c-0.008,0.014-0.014,0.028-0.015,0.045L41.46,35.32l-0.085,0.21  L40.746,35.809z M35.765,37.186l0.145-0.699l0.097-0.331l0.188,0.512l-0.021,1.041l-0.286,1.003L35.8,38.9l0.044-0.262  L35.765,37.186z M30.09,38.471l-0.745-2.094c-0.004-0.011-0.009-0.021-0.017-0.03l-1.374-1.678l-0.27-0.201l-0.609-0.8l-0.113-0.169  l-0.217-1.007l0.217-0.709l0.072-0.014l0.484,0.089c0.009,0.002,0.019,0,0.029,0.001l1.547-0.173c0.004,0,0.008,0.001,0.012,0.001  s0.008,0,0.012-0.001l0.515-0.06l0.467,0.111c0.007,0.002,0.015,0.003,0.023,0.003c0.011,0,0.021-0.002,0.031-0.005l0.266-0.087  l0.138,0.042c0.01,0.003,0.02,0.004,0.029,0.004c0.003,0,0.006,0,0.009,0l0.37-0.035l-0.642,1.622l-0.001,0.002l-0.339,0.896  c-0.003,0.009-0.005,0.019-0.006,0.028l-0.069,0.967L30.09,38.471z M25.648,31.793l-0.057-0.075l-0.834-0.771l-0.029-0.071  l0.352-0.015l0.028,0.01c0.014,0.005,0.029,0.006,0.045,0.005l0.081-0.01l0.453,0.048l0.009,0.001l0,0h0  c0.015-0.001,0.033,0,0.048-0.007l0.365-0.146l0.027-0.003l0.188,0.947l-0.348,0.069L25.648,31.793z M7.761,27.274l-0.506-0.061  c-0.012-0.001-0.023-0.001-0.034,0.002l-0.03,0.007l-0.708-0.404l0.596-0.044l0.055,0.003c0.002,0,0.003,0,0.005,0  c0.007,0,0.013-0.001,0.02-0.002l1.398-0.281l0.254,0.134l0.117,0.185L7.761,27.274z M9.019,21.703l-0.029-0.044l0.02,0.015  l0.009,0.009L9.019,21.703z M8.979,20.739l0.31,0.091l0.105,0.016L9.28,20.998l-0.054,0.1l-0.155-0.193  c-0.006-0.007-0.013-0.014-0.021-0.019l-0.005-0.004L8.979,20.739z M9.788,20.651l0.044,0.059l-0.077-0.011l0.022-0.029  L9.788,20.651z M11.122,20.121l0.233,0.867l-0.104-0.063l-0.911-1.204l0.043-0.073l0.312,0.308c0.012,0.011,0.026,0.02,0.042,0.024  l0.361,0.103L11.122,20.121z M11.311,18.054l-0.858-0.278l-0.229-0.194l0.062,0.014l0.511-0.001l0.418,0.225L11.311,18.054z   M11.49,17.968l0.159,0.085l0.025,0.026l0.094,0.109l-0.056,0.081l-0.135-0.091L11.49,17.968z M13.352,21.965l0.88,1.193l-1.03-1  l-0.321-0.43c-0.01-0.014-0.024-0.025-0.04-0.032l-0.173-0.075l0.063-0.457l0.02-0.101l0.343,0.415l0.25,0.474l0.001,0  L13.352,21.965z M18.379,26.555c0.002,0.004,0.004,0.009,0.006,0.013l0.542,0.829l-0.398-0.193l0,0l-0.461-0.243l-0.85-0.645  l-0.396-0.338l-0.03-0.047l1.34,0.483L18.379,26.555z M23.452,24.057L23.603,23l0.049-0.54c0.001-0.013-0.002-0.024-0.006-0.037  l0.002,0l-0.15-0.519l-0.439-2.104l-0.538-2.059l0,0l-0.005-0.045l0.004-0.052l0.285,0.187l0.92,0.496l1.068,1.698l-0.075,2.58  l0.001,0.008l-0.105,0.125l-0.901,1.332c-0.006,0.01-0.011,0.02-0.014,0.031l-0.115,0.45L23.452,24.057z M21.811,18.015  l-0.032-0.859l0.456,0.299L21.811,18.015z M20.47,16.798l-0.258,0.272l0.127-0.459c0.003-0.012,0.004-0.024,0.003-0.036l-0.05-0.536  l-0.128-1.048l0.105-0.488l0.073-0.012l0.468,0.155l0.181,0.144l0.021,1.099l-0.036,0.131l-0.096,0.348l-0.262,0.275l-0.164,0.019  L20.47,16.798z M23.883,16.363l0.167,0.5l0.23,0.997v0.01l-0.068,0.519l-0.001,0.011l0,0V18.4l0,0v0l0,0  c-0.002,0.017,0,0.034,0.006,0.05l0.202,0.501l0.161,0.351l-0.697-1.107c-0.009-0.015-0.022-0.027-0.037-0.035l-0.937-0.503  l-0.371-0.243l0.002-0.031l0.303-0.399l0.33-0.4l0.648-0.379L23.883,16.363z M24.458,16.828l0.088-0.529  c0.002-0.011,0.002-0.021,0-0.031l-0.067-0.448l0.261-0.153l0.954,1.631L25.3,17.943c-0.005,0.009-0.009,0.018-0.012,0.027  l-0.259,1.025l-0.182,0.437l-0.025-0.076l-0.222-0.483l-0.189-0.472l0.075-0.504c0.001-0.012,0.001-0.025-0.001-0.037l-0.007-0.032  L24.458,16.828z M31.392,13.612l0.591,0.628l-0.079,0.084l-0.729-0.792l0.028-0.046l0.026-0.015L31.392,13.612z M38.425,18.424  l-0.11-0.204l0.029-0.038l-0.084-0.065l-0.238-0.442l0.116-0.466l0.111-0.203l0.284-0.196l0.026,0.063  c0.004,0.009,0.009,0.017,0.015,0.024l0.317,0.401l0.073,0.391l-0.51,0.676l0.002,0.001l-0.012,0.015L38.425,18.424z M39.226,20.331  l0.146,0.303l-0.228,0.188l-0.494,0.147c-0.011,0.003-0.021,0.008-0.03,0.015l-0.192,0.14l0.31-0.72  c0.004-0.01,0.007-0.021,0.008-0.032l0.041-0.52l0.042-0.102l0.129,0.079L39.226,20.331z M42.674,20.391l2.05-0.074l1.186,1.47  l-0.8,0.234l-0.506-0.085c-0.017-0.002-0.03,0-0.048,0.003l-0.504,0.164l0,0l-0.001-0.002l-0.904,0.237l-0.017,0.004l-0.792-0.249  l0.065-0.03l-0.084-0.182l-0.267,0.123l-0.941-0.295c-0.014-0.005-0.029-0.005-0.043-0.004l-0.332,0.043l0.003-0.054v-0.111  l0.2-0.163l0.389-0.345l0.475-0.262l0.451-0.336l0.238-0.122L42.674,20.391z M36.886,33.746l0.173-0.285l-0.057,0.32l-0.059,0.076  l0.029-0.08L36.886,33.746z M34.105,26.406l-0.045,0.028l0.264-0.333l0.396-0.279l-0.588,0.561L34.105,26.406z M32.136,30.328  l-0.085-0.115l-0.259-0.446l0.604-1.232l0.315-0.398l-0.163,0.442c-0.004,0.01-0.006,0.021-0.006,0.032l-0.016,0.587l-0.195,0.549  l-0.187,0.563L32.136,30.328z M32.194,30.743l0.111,0.298l-0.189-0.103l0.076-0.198L32.194,30.743z M21.639,29.879l0.213,0.118  l-0.106-0.002L21.639,29.879z M22.271,30.23l0.024,0.013l-0.042-0.016L22.271,30.23z M12.973,27.128l-0.286-0.835l0.048,0.006  l0.042,0.127c0.005,0.016,0.015,0.031,0.028,0.042l0.722,0.662l-0.499-0.015L12.973,27.128z M6.634,26.55l-0.109-0.063l1.021-0.382  l0.259,0.034l0.535-0.019c0.011,0,0.022-0.003,0.033-0.007l0.279-0.109l0.019,0.004l0.333,0.122l0.076,0.051l-0.5,0.099  l-0.128-0.067l-0.055,0.104L7.129,26.57l-0.045,0.003L6.634,26.55z M5.557,25.527l0.397,0.052l-0.301,0.077H5.645l-0.026-0.03  L5.557,25.527z M10.233,24.655l0.147,0.135l-0.826,0.217l-0.023-0.009l-0.362-0.136l-0.224-0.216L10.233,24.655z M10.556,24.951  l0.186,0.169l-0.781-0.013L10.556,24.951z M9.997,22.475l0.686,0.537l0.91,1.391l-0.262,0.011l-0.022-0.164  c-0.002-0.014-0.007-0.027-0.014-0.039l-0.28-0.456l-0.11,0.067l-0.316-0.487c-0.008-0.013-0.019-0.023-0.031-0.031l-0.238-0.147  L9.997,22.475z M10.21,19.549l-0.063-0.084l0.081,0.056L10.21,19.549z M12.439,19.573l0.086-0.169l0.09,0.189l-0.138,0.555  l-0.019-0.065l-0.009-0.235l0.1-0.155l-0.108-0.069L12.439,19.573z M11.794,25.969l0.131-0.031l-0.01,0.048L11.794,25.969z   M15.965,26.856l-0.185-0.185l0.467,0.155l0.124,0.103L15.965,26.856z M15.468,26.643l0.14,0.14l-0.422-0.13l-0.868-0.813  l0.343,0.093L15.468,26.643z M11.79,21.597l0.016-0.111l0.394,0.153l-0.007,0.043c-0.002,0.016-0.001,0.031,0.003,0.046l0.067,0.212  l-0.061,0.324l-0.243-0.216l-0.068-0.18l-0.013-0.092c-0.002-0.017-0.009-0.032-0.02-0.046l-0.038-0.05L11.79,21.597z   M12.662,24.724v-0.001l0.003,0.002L12.662,24.724z M12.376,22.93l0.011,0.376L12.24,23.16l0.07-0.379L12.376,22.93z M12.024,23.228  l-0.04,0.213l-0.073-0.325L12.024,23.228z M12.012,25.047l0.002,0.001l0.073,0.11l-0.013,0.061l-0.235-0.178l-0.051-0.064  L12.012,25.047z M12.157,23.604l0.024-0.132l0.196,0.335l0.056,0.615l-0.099-0.007L12.157,23.604z M12.161,22.493l-0.077,0.415  l-0.053-0.09l-0.074-0.502L12.161,22.493z M12.415,24.698l-0.033-0.067l-0.002-0.012l0.068,0.005l0.005,0.002l0.007,0.076  L12.415,24.698z M9.605,25.81l0.016,0.001H9.599L9.605,25.81z M9.971,26.004l-0.584,0.117l-0.111-0.097  c-0.005-0.004-0.011-0.006-0.016-0.009L9.971,26.004z M13.993,25.501l-0.008-0.013l0.028,0.01L13.993,25.501z M13.775,25.529  l-0.292,0.012l-0.12,0.004l-0.009,0.001l-0.072,0.003l-0.447-0.112l-0.085-0.062l-0.128-0.258l0.036-0.193l0.317,0.033l0.274,0.248  l0.007,0.007c0,0,0,0,0.001,0l0.001,0.001l0,0c0.01,0.008,0.021,0.016,0.032,0.02l0.393,0.145L13.775,25.529z M11.524,21.619  l0.017,0.061l0.168,0.323l0.059,0.406l-0.197-0.414c-0.004-0.008-0.008-0.015-0.014-0.021l0,0l0-0.001l-0.032-0.344l-0.173,0.016  l-0.008-0.017l-0.093-0.138l0.173-0.003L11.524,21.619z M10.529,21.301l-0.052-0.126l0.093,0.126L10.529,21.301z M10.878,21.81  c0,0,0-0.001,0-0.001l-0.008-0.012l-0.206-0.298l0.053-0.001l0.683,0.922l0.03,0.313l0.238,0.814l-0.213-0.28l-0.319-0.402  l-0.242-1.021C10.891,21.832,10.886,21.821,10.878,21.81L10.878,21.81L10.878,21.81z M11.739,24.627l-0.097-0.01l-0.15-0.004  c-0.002-0.002-0.004-0.004-0.007-0.006l0.235-0.01L11.739,24.627z M11.704,25.191l0.325,0.245l-0.031,0.15l-0.142-0.03  c-0.014-0.003-0.028-0.003-0.042,0l-0.03,0.007l-0.324-0.187l-0.065-0.484L11.704,25.191z M8.274,25.923l-0.266,0.01l0.158-0.059  l-0.005,0.025L8.274,25.923z M12.564,25.938l0.051,0l0.049,0.15l-0.051-0.007L12.564,25.938z M12.88,26.102l0.009,0.017l-0.003,0  L12.88,26.102z M13,26.336l0.04,0.079l-0.082-0.075l-0.003-0.01L13,26.336z M13.126,26.132l0.039,0.024l-0.029-0.004L13.126,26.132z   M14.893,26.835l-1.413-0.718l-0.281-0.175l0.866,0.006h0c0.015,0,0.029-0.003,0.043-0.01l0.014-0.006l0.943,0.883  c0.011,0.01,0.024,0.018,0.039,0.022l0.235,0.072L14.893,26.835z M18.219,27.76l-0.481-0.13l-0.057-0.033  c-0.015-0.009-0.032-0.013-0.049-0.014l-0.069,0l-0.046-0.013l-0.304-0.281l0,0l-0.002-0.001l0,0l-0.008-0.004l-0.431-0.277  l-0.412-0.344c-0.009-0.008-0.021-0.014-0.032-0.018l-0.492-0.164l-0.829-0.652c-0.011-0.008-0.023-0.014-0.036-0.018l-0.213-0.058  l-0.025-0.022l0.333,0.02l0.01,0l0,0h0.001v-0.001l0.018,0.001l0.517-0.063l0.683,0.125l1.623,1.363  c0.008,0.007,0.018,0.013,0.028,0.017l0.499,0.194l0.477,0.23c0.004,0.002,0.008,0.002,0.012,0.003L18.219,27.76z M15.798,25.519  l0.059,0.005l0.011,0.007L15.798,25.519z M15.321,25.468c0.009,0.003,0.018,0.005,0.027,0.006l0.198,0.019l-0.458,0.057l-0.08-0.005  L15.321,25.468L15.321,25.468z M14.826,25.385l-0.417,0.058l-0.01-0.009c-0.009-0.008-0.02-0.014-0.031-0.019l-0.548-0.202  l-0.05-0.083c-0.007-0.013-0.018-0.022-0.03-0.031l0,0l-0.003-0.002l0,0l-0.002-0.001l-0.439-0.295  c-0.012-0.008-0.025-0.012-0.039-0.014l-0.3-0.333l-0.044-0.132l0.913,0.557L15,25.342L14.826,25.385z M12.533,21.131l-0.03,0.22  l-0.039-0.114l0.068-0.437l0.054,0.065L12.533,21.131z M12.672,20.531l-0.068-0.065l0.146-0.586l0.099,0.208l0.005,0.027  L12.672,20.531z M12.702,19.31l-0.048-0.156l0.018-0.035c0.004-0.008,0.004-0.018,0.006-0.028l0.045,0.262L12.702,19.31z   M11.973,18.428l-0.049-0.018l-0.046-0.031l0.024-0.035L11.973,18.428z M11.275,21.289l-0.157,0.003l-0.242-0.358l0.238,0.143  L11.275,21.289z M10.714,20.76l-0.069,0.046l-0.341-0.534l-0.02-0.061L10.714,20.76z M10.402,21.503l0.302,0.407l0,0l0.242,1.023  c0.003,0.014,0.01,0.028,0.019,0.039l0.754,0.974l0.088,0.195l0.069,0.25l-0.052,0.002l-0.984-1.504  c-0.006-0.009-0.013-0.017-0.022-0.024l-0.831-0.651l-0.422-0.648l0.134,0.011l0.504-0.07L10.402,21.503z M10.977,24.299  l-0.176-0.123l-0.254-0.539L10.977,24.299z M11.116,24.803l0.066,0.001l0.06,0.444l-0.178-0.103l-0.279-0.256L11.116,24.803z   M11.495,25.626L11.495,25.626L11.495,25.626L11.495,25.626z M6.205,26.304l-0.412-0.477l0.395-0.101l0.482,0.088  c0.012,0.003,0.023,0.002,0.035,0l0.213-0.038l0.09,0.026c0.013,0.004,0.027,0.004,0.04,0.003l0.516-0.064l0.351,0.012l-0.393,0.147  l-0.225-0.03l-0.016,0.12L6.3,26.358L6.205,26.304z M9.587,26.287l1.237-0.249l0.055,0.004l-1.045,0.413L9.587,26.287z   M11.875,26.182c0,0.007-0.001,0.014-0.001,0.021l0.018,0.274l-0.18-0.18l-0.059-0.145L11.875,26.182z M12.139,25.892l0.191,0.027  l0.013,0.024l0.037,0.105l-0.266-0.036L12.139,25.892z M14.109,27.396l-0.28-0.257l-0.506-0.609l0,0l-0.08-0.161l0.116,0.016  l1.461,0.638v0c0.008,0.003,0.016,0.006,0.024,0.007l0.538,0.088l0.513,0.038l0.448,0.251c0.014,0.008,0.03,0.012,0.047,0.013  l0.542,0.01l0.217,0.147l-0.071,0l-0.53,0.079l0.01,0.067l-0.231-0.036c-0.015-0.003-0.028-0.001-0.042,0.002l-0.792,0.215  L14.109,27.396z M20.484,28.058l-0.378-0.115l0.141,0.007L20.484,28.058z M21.824,28.53l0.274,0.017l0.138-0.025l0.055,0.137  l-0.43-0.099L21.824,28.53z M26.575,16.794l0.347-0.378l0.468-0.201l0,0l0.001,0l0,0l0.003-0.001l0.208-0.078l-0.298,0.681  l-0.315,0.409l-0.182,0.158l-0.253,0.155c-0.014,0.009-0.026,0.021-0.034,0.035l-0.005,0.008l-0.065-0.085l-0.053-0.236l0.014-0.056  l0.009-0.163L26.575,16.794z M28.397,14.137l0.408-0.132l-0.794,0.6l-0.126,0.059L28.397,14.137z M29.429,13.854l0.102-0.148  l0.65-0.49l0.593,0.251l-0.162,0.285l-0.377,0.39l-0.699,0.818l-0.339,0.434l-0.057,0.1l0.018-0.634l0.098-0.511L29.429,13.854z   M31.407,15.719L31,15.754l-0.933-0.003l0.039-0.092l0.911-0.223c0.015-0.004,0.029-0.011,0.041-0.021l0.419-0.353l0.268-0.282  l0.431,0.346l-0.684,0.498L31.407,15.719z M30.007,18.276l0.14-0.019l-0.136,0.404l-0.394-1.684l0.977-0.616l0.28-0.054  l-0.101,0.111c-0.009,0.01-0.016,0.022-0.021,0.036l-0.534,1.59l-0.238,0.033L30.007,18.276z M33.602,17.22l1.014-0.281  c0.01-0.002,0.019-0.006,0.027-0.012l0.186-0.117l0.034,0.044l0.234,0.452l-0.041,0.638l-0.186,0.061l0.141,0.424l-0.274-0.123  c-0.014-0.006-0.03-0.013-0.044-0.009l-1.072,0.035l0.006,0.2l1.05-0.035l0.323,0.146l-0.126,0.371l-0.193,0.972l-0.488-0.416  l0.35-0.03l-0.018-0.199l-0.503,0.046l-0.055-0.009l-0.336-0.286l-0.132-0.149l0.034-0.273l-0.199-0.025l-0.013,0.099l-0.03-0.034  l-0.127-0.469l0.216-0.845L33.602,17.22z M35.334,19.538c0.006,0.01,0.013,0.02,0.021,0.027l0.24,0.213l-0.34,0.355l-0.22,0.156  l-0.009-0.008l0.098-0.316l0.011-0.17L35.334,19.538L35.334,19.538z M38.585,19.843l-0.03,0.397l-0.008,0.099l-0.408,0.948  l-0.154,0.132l-0.011-0.404l0.102-0.526c0.002-0.015,0.002-0.03-0.002-0.045l-0.136-0.503l-0.021-0.188l0.235-0.321l0.035-0.072  l0.273,0.166L38.585,19.843z M42.133,20.291l0.033,0.006l-0.01,0.007l-0.42,0.214l0.167-0.218L42.133,20.291z M40.871,21.215  l-0.064,0.057v0l-0.068,0.056v-0.042l0.136-0.074L40.871,21.215z M32.195,31.208l-0.048,0.001l-0.235,0.037l0.094-0.142  L32.195,31.208z M31.647,31.287l-0.125-0.021l0.162-0.335l0.146,0.08L31.647,31.287z M31.485,30.885l0.02-0.05l0.003,0.002  L31.485,30.885z M31.53,29.854l-0.135,0.693l-1.273-0.69c-0.011-0.006-0.022-0.01-0.035-0.011l-1.063-0.141  c-0.01-0.001-0.018-0.001-0.028,0l-0.013,0.002l-0.868,0.123l1.151-2.611l0.231-1.048l0.213-1.051  c0.003-0.017,0.002-0.034-0.003-0.051l-0.159-0.494l0.01-0.527l0,0l0,0v0l0-0.008l-0.028-0.513l0.135-0.62l0.071,0.392l0.111,0.5  l-0.039,1.607c0,0.015,0.002,0.029,0.009,0.042l0.211,0.48l0.146,0.464c-0.002,0.009-0.003,0.018-0.002,0.027l0.078,1.069l0,0  c0.001,0.015,0.005,0.03,0.013,0.043l1.302,2.243l-0.027,0.055C31.534,29.838,31.532,29.846,31.53,29.854z M26.272,30.417  l0.017-0.078l0.107,0.092l-0.112,0.045L26.272,30.417z M24.074,29.807l0.063,0.153l-0.031-0.001l-0.314-0.479  c-0.005-0.008-0.012-0.016-0.02-0.022l-0.307-0.258l0.411,0.161L24.074,29.807z M22.536,28.679l0.061,0.051l-0.029-0.007  L22.536,28.679z M22.776,28.976l0.176,0.053l0.68,0.573l0.229,0.349l-0.044-0.002c-0.007-0.004-0.014-0.009-0.022-0.011  l-0.385-0.092l-0.634-0.83l-0.033-0.047L22.776,28.976z M24.12,30.702h-0.001L24.086,30.7l-0.253-0.086l0.152-0.017L24.12,30.702z   M24.257,29.728l-0.118-0.265l1.004,0.393l-0.416-0.006l-0.385,0.087L24.257,29.728z M26.708,30.316  c-0.019-0.005-0.03,0.001-0.043,0.007l-0.06,0.024l-0.254-0.218l0.536,0.019l0.355-0.012l0.194,0.01l0.345-0.053l-0.182,0.279  L26.708,30.316z M28.005,20.696l-0.305-0.41l-0.079-0.527l-0.07-0.178l0.162-0.05l0.25,0.254c0.011,0.011,0.023,0.019,0.038,0.024  l0.492,0.174l0.085,0.044l0.029,0.038l0.679,0.923l0.079,0.35l-0.063-0.124c-0.008-0.015-0.019-0.027-0.032-0.037l-0.439-0.307  c-0.013-0.009-0.027-0.015-0.043-0.017l-0.754-0.108L28.005,20.696z M26.302,22.417c-0.009,0.014-0.015,0.029-0.017,0.045  l-0.058,0.539l-0.038,0.804l-0.313-0.77l-0.53-0.98l0.318-0.559l0.516-0.937l0.26-0.446l0.393-0.309l0.056-0.017l0.124,0.252  l0,0.008l0.125,0.496l-0.244,1L26.302,22.417z M30.256,25.996l-0.042-0.136l-0.207-0.471l0.036-1.608l-0.112-0.52l-0.094-0.515h0  l-0.027-0.513l0.021-0.099l0.582,1.128l0.011,0.021l0.125,0.494l-0.05,1.041L30.256,25.996z M29.434,23.028l-0.01-0.054  c-0.002-0.011-0.006-0.021-0.011-0.03l-0.227-0.399l0.17-0.261l0.126-0.185l0.03-0.032l0.089,0.175l0.001,0.016L29.434,23.028z   M29.155,15.871l0.204,0.072c0.01,0.004,0.021,0.006,0.033,0.006h0.03L29.419,16.2l-0.002,0.005  c-0.003,0.009-0.005,0.018-0.005,0.027l-0.032,0.511l-0.062,0.187l-0.156,0.099l-0.345,0.036l0.308-1.139L29.155,15.871z   M26.979,19.518l-0.001-0.025l0.015,0.025l0,0.013l-0.007,0.003L26.979,19.518z M26.419,18.141l0.002-0.003l0.035-0.06l0.007-0.01  l0.011,0.027c0.006,0.015,0.016,0.027,0.027,0.038l0.309,0.263l-0.002,0.069l-0.025,0.301L26.419,18.141z M27.791,19.23  l-0.039,0.013l-0.018,0.007l-0.036-0.098L27.791,19.23z M27.39,18.889l0.157,0.432l-0.085,0.033l-0.238-0.606L27.39,18.889z   M26.963,19.015l0.027-0.317l0.286,0.726l-0.092,0.035c-0.002-0.006-0.002-0.014-0.006-0.02l-0.213-0.364L26.963,19.015z   M28.259,19.288l0.561-0.182h0.002l0.354,0.658l0.002,0.035l-0.152,0.034l0.051,0.227l-0.648-0.551L28.259,19.288z M29.627,21.114  l0.002-0.06l0.027,0.101L29.627,21.114z M29.581,21.702l-0.015,0.016l0.006-0.028L29.581,21.702z M29.408,20.341l-0.006-0.119  l0.041,0.148L29.408,20.341z M29.058,19.124l0.083,0.006l0.009,0.166L29.058,19.124z M28.946,18.916l-0.142-0.265l-0.176,0.095  l0.097,0.181l-0.464,0.151c0.009-0.011,0.017-0.023,0.021-0.036l0,0l0.479-1.771l0.445-0.046c0.006-0.001,0.011-0.004,0.017-0.006  l-0.012,0.037l-0.141,0.518c-0.002,0.01-0.004,0.021-0.003,0.032l0.063,1.125L28.946,18.916z M28.101,18.943l-0.005,0.02  l-0.055,0.056l-0.301-0.322l-0.125,0.117l-0.545-0.464l-0.035-0.088c-0.003-0.009-0.008-0.017-0.014-0.024l-0.003-0.004l0.023-0.757  l0.057-0.035l1.448-0.149L28.101,18.943z M26.824,17.983l-0.152-0.198l0.042-0.058l0.121-0.104L26.824,17.983z M26.305,17.945  l-0.059-0.101l0.047-0.186l0.074,0.177L26.305,17.945z M26.101,18.469l0.173-0.179l0.493,0.843l0.012,0.412  c0,0.014,0.004,0.028,0.01,0.041l0.009,0.019l-0.037,0.014l-0.011,0.004c0,0-0.001,0-0.001,0l0,0l0,0  c-0.009,0.004-0.018,0.008-0.026,0.015l-0.421,0.331c-0.01,0.008-0.018,0.018-0.024,0.028l-0.271,0.465l-0.389,0.706l0.03-0.274  l0.109-0.527L26.101,18.469z M27.962,19.384l0.007-0.002l0.325,0.277l0.044,0.057l-0.249-0.088l-0.184-0.187L27.962,19.384z   M29.151,20.387l0.026,0.115l-0.179-0.243L29.151,20.387z M29.86,20.88c-0.003-0.015-0.01-0.028-0.02-0.04l-0.094-0.115  l-0.182-0.657l-0.191-0.356l-0.032-0.566l0.541,0.041l0,0h0.001h0.001h0.001l0,0l0.008-0.001l0.027-0.001l0.046,0.249l0.024,0.134  l0.07,0.515l-0.171,0.924L29.86,20.88z M29.875,18.986l-0.544-0.042l-0.063-1.133l0.031-0.115l0.103-0.374l0.06-0.142l0.42,1.805  L29.875,18.986z M29.616,16.241l0.105-0.291l0.046,0l-0.152,0.358L29.616,16.241z M29.789,15.75c0-0.005,0.001-0.009,0.002-0.014  l0.075-0.019l-0.014,0.032H29.789z M29.778,15.535l-0.025-0.343l-0.155,0.011l0.093-0.118l0.692-0.811l0.275-0.287l-0.183,0.295  l-0.511,1.207L29.778,15.535z M29.557,15.255l0.024,0.329l-0.001,0l-0.041-0.262L29.5,15.328L29.557,15.255z M29.362,15.503  l0.003-0.004l0.02,0.122l-0.09,0.002L29.362,15.503z M28.38,15.848l0.552-0.015l-0.001,0.028c-0.003,0.007-0.006,0.014-0.009,0.021  L28.6,17.086l-1.361,0.14l0.236-0.308l0.388-0.879L28.38,15.848z M25.56,20.328l-0.11,0.534l-0.057,0.517l-0.189,0.415l-0.082-0.151  l-0.013-0.305l0.045-0.309l0.567-1.592L25.56,20.328z M25.101,22.022l-0.135,0.296l0.063-0.429L25.101,22.022z M28.736,21.049  l0.399,0.279l0.218,0.43l-0.049,0.228l-0.234,0.359l-0.189-0.332c-0.006-0.011-0.014-0.021-0.024-0.028l-0.395-0.321l-0.188-0.488  l-0.118-0.209L28.736,21.049z M29.23,23.028l0.097,0.497l0.031,0.518l0,0.009l-0.01,0.536c0,0.011,0.001,0.022,0.005,0.033  l0.156,0.485l-0.208,1.023l-0.114,0.522l-0.34-3.182l0.066-0.509l0.149-0.228L29.23,23.028z M30.448,27.452l-0.003-0.047  l-0.067-1.012l0.322-1.549l0.053-1.071c0-0.01,0-0.02-0.003-0.029l-0.14-0.54l0,0l-0.707-1.386l0.081-0.37  c0.003-0.015,0.003-0.03,0-0.044l-0.004-0.02l0.084-0.225l0.197-1.054c0.002-0.011,0.002-0.021,0.001-0.032l-0.073-0.536  l-0.066-0.365l0.808-0.054l0.523,0.03l1.007,0.187l0.77,0.125l-0.031,0.25c-0.002,0.017,0.001,0.035,0.007,0.05l0.812,1.992  l0.222,0.445l-0.082,1.074c-0.001,0.013,0,0.025,0.004,0.037l0.084,0.269l-0.209-0.213l-0.44-0.3l-0.431-0.319  c-0.014-0.01-0.03-0.017-0.048-0.019l-1.063-0.128l-0.023,0.198l1.037,0.125l0.412,0.306l0.429,0.289l0.364,0.373l0.125,0.172  l-0.01,0.126l0.006,0.108l-0.23,0.233l-0.015,0.014l0,0v0c-0.013,0.012-0.021,0.027-0.026,0.044l-0.138,0.505l-0.204,0.5  l-0.35,0.988l-0.295,0.448l0.001,0c-0.007,0.01-0.012,0.02-0.015,0.032l-0.08,0.341l-0.814,1.029l-0.556,1.13L30.448,27.452z   M34.943,19.719l-0.01,0.012l0.013-0.065L34.943,19.719z M40.592,23.77l-0.059,0.08l-0.055,0.05l-0.002-0.083l-0.115-0.529  l-0.285-1.017v-0.001l0.007-0.12l0.398-0.146l0.026,0.413l-0.016,0.363L40.592,23.77z M40.468,21.791l0.001,0.005l-0.031,0.011  L40.468,21.791z M39.89,21.816l-0.002,0.071l-0.037,0.024L39.89,21.816z M38.409,23.424c0.009-0.004,0.017-0.01,0.023-0.016  l0.941-0.875l-0.59,1.413c-0.003,0-0.005-0.001-0.008-0.001l-0.474,0.042v-0.011c0-0.011-0.002-0.021-0.006-0.032h0.001  l-0.001-0.003l0,0l-0.002-0.004l-0.131-0.388L38.409,23.424z M37.071,20.57l-0.036-0.007l0.045-0.146l0.212-0.264  c0.011-0.013,0.018-0.029,0.021-0.046l0.057-0.356l0.144-0.215l0.147-0.272l0.049,0.437L37.071,20.57z M38.519,24.582l-0.214,0.2  l-0.001-0.594l0.394-0.035L38.519,24.582z M36.514,22.52l-0.239,0.421l-0.501,0.313l0.073-0.186l0.306-0.337l0.297-0.447  c0.007-0.01,0.012-0.021,0.015-0.033l0,0l0.014-0.062l0.035-0.029L36.514,22.52z M36.296,22.081l-0.087,0.071l0.162-0.409  L36.296,22.081z M35.67,22.937l0.013-0.043l0.012-0.019L35.67,22.937z M36.899,21.723l0.008,0.014l-0.014-0.007L36.899,21.723z   M35.867,22.431l-0.073,0.06l0.087-0.316c0.004-0.015,0.005-0.031,0.001-0.047l-0.106-0.509l0.042-0.401l0.392,0.333L35.867,22.431z   M35.576,21.644l0.105,0.5l-0.185,0.667l-0.191,0.294c-0.007,0.012-0.013,0.024-0.015,0.038l-0.049,0.292l-0.535,0.542l-0.043-0.753  l0.055-0.667c0.001-0.015-0.001-0.03-0.006-0.043l-0.182-0.48l0.271-1.019l0.091-0.295l0.063-0.125l0.07-0.05l0.61,0.52  c-0.002,0.006-0.004,0.012-0.005,0.018l-0.057,0.533C35.573,21.623,35.574,21.633,35.576,21.644z M35.221,24.769l0.072-0.3  l0.357-0.903l0.751-0.468c0.015-0.009,0.026-0.021,0.034-0.036l0.266-0.466c0.009-0.015,0.013-0.032,0.013-0.05l-0.003-0.518  l0.019-0.099l0.034-0.042l0.058,0.03l0.256,0.323l0.065,0.151l-1.568,2.024l-0.142,0.182l0,0l-0.212,0.232V24.769z M34.388,22.875  l0.076,0.357l-0.024,0.301l-0.082-0.268L34.388,22.875z M35.037,23.947l0.133-0.083l-0.107,0.636l-0.064,0.166L34.76,24.22  L35.037,23.947z M35.929,24.458c-0.013,0.006-0.022,0.015-0.031,0.025L35.54,24.91l-0.112,0.216l-0.207,0.128v-0.131l0.002-0.003  l0.368-0.401l1.644-2.117l0.028,0.066l0,0c0.003,0.008,0.008,0.015,0.013,0.022l0.149,0.192l-0.001,0l-0.414,0.342  c-0.01,0.008-0.018,0.018-0.024,0.029l-0.516,0.93L35.929,24.458z M36.297,24.495l-0.078,0.142l-0.397,0.246l0.216-0.256  L36.297,24.495z M37.151,23.367l0.396-0.327l0.087,0.112l0.146,0.367l-0.992,0.502L37.151,23.367z M37.809,23.05l-0.042-0.107  l0.037,0.051l0.02,0.075L37.809,23.05z M34.308,24.665l0.018-0.017l0.082-0.081l0.031,0.589L34.387,25.3l-0.59,0.835l0.169-0.473  l0.207-0.508L34.308,24.665z M34.638,25.307c0.005-0.013,0.007-0.027,0.006-0.041l-0.004-0.079l0.11-0.313  c0.004-0.012,0.006-0.025,0.005-0.039l-0.013-0.227l0.084,0.156l0.056,0.175l-0.243,0.4l-0.028,0.039L34.638,25.307z M36.616,24.333  l1.233-0.625l0.08,0.404l-1.526,0.606L36.616,24.333z M37.791,21.583l-0.039,0.028c-0.008,0.005-0.015,0.012-0.021,0.02  l-0.375,0.484l-0.043-0.048l-0.149-0.273l-0.132-0.565l0.069-0.361l0.643-0.879l0.13,0.485l-0.099,0.525L37.791,21.583z   M37.85,19.154l0.167,0.102l-0.036,0.073l-0.097,0.132L37.85,19.154z M37.832,18.434l0.009-0.034l0.038,0.058l-0.03,0.039  l-0.019,0.035L37.832,18.434z M37.646,17.735l-0.008-0.012l0.007-0.008L37.646,17.735z M37.296,17.825l-0.059,0.012l-0.074-0.475  l0.223,0.341L37.296,17.825z M37.122,18.404l0.015,0.084l-0.054-0.033L37.122,18.404z M37.337,18.476L37.337,18.476L37.337,18.476  l-0.006-0.037l-0.038-0.261l0.134-0.176l0.067-0.014l0.088,0.636l-0.017,0.065l-0.022,0.046l-0.198-0.12L37.337,18.476z   M37.455,18.915l-0.083,0.171l-0.013-0.229L37.455,18.915z M36.489,21.003l-0.493-0.278l0.151-0.352l0.22,0.377l0.131,0.238  L36.489,21.003z M36.393,21.178l-0.101,0.181l-0.416-0.354l0.04-0.094L36.393,21.178z M33.506,19.249l0.078,0.067l-0.131-0.021  l0.008-0.06L33.506,19.249z M33.875,19.563l0.727,0.619l-0.227,0.373c-0.008,0.013-0.013,0.028-0.014,0.044l-0.093,1.211  l-0.069-0.141L33.4,19.708l0.027-0.217L33.875,19.563z M34.182,25.939l-0.016,0.04l-0.118,0.15L34.182,25.939z M37.969,24.311  l0.041,0.209l0.044,0.226h0.001v0l0.002,0l0.005,0.022l0.044,0.097l0.001,0.07l-0.786,0.266l-0.968-0.25L37.969,24.311z   M38.895,24.198l0.393,0.16l-0.199,0.024l-0.315,0.11L38.895,24.198z M38.973,24.013l0.719-1.721l0.187-0.068l-0.002,0.048v0.003  l0,0v0.002l0,0v0.001l0,0c-0.001,0.01,0.001,0.021,0.003,0.03l0.288,1.027l0.112,0.504l0.006,0.236l-0.134,0.123l-0.206,0.08  l-0.25,0.03L38.973,24.013z M40.539,21.449l-0.022-0.041l0.022-0.013V21.449z M40.397,21.604l-0.293,0.16l0.051-0.208l0.114-0.02  c0.011-0.002,0.021-0.005,0.031-0.011l0.04-0.022L40.397,21.604z M40.22,21.342l-0.013,0.002l0.014-0.057l0.023,0.042L40.22,21.342z   M38.887,22.256c0.011-0.003,0.021-0.009,0.029-0.016v0l0.004-0.003c0,0,0.001,0,0.001,0l0.001-0.001l0.828-0.604v0l-0.196,0.47  l-0.087,0.056l-1.131,1.064l-0.031,0.029l-0.2,0.101l-0.076-0.291l-0.01-0.378l0.371-0.279L38.887,22.256z M37.775,22.618  l-0.122-0.166l-0.161-0.183l0.307-0.396l0.02,0.712L37.775,22.618z M38.274,19.18l0.027-0.055l0.036,0.093L38.274,19.18z   M38.104,19.076l-0.259-0.157l0.16-0.295l0.196,0.253L38.104,19.076z M38.008,18.29l-0.101-0.155l0.046-0.184l0.13,0.243  L38.008,18.29z M37.879,17.411l-0.002-0.003l0.009-0.012l-0.005,0.02L37.879,17.411z M36.877,18.728l0.086-0.113l0.189,0.116  l0.043,0.717l-0.058,0.119l0.005-0.022l-0.195-0.045l-0.189,0.816l-0.037-0.201c-0.003-0.015-0.009-0.029-0.018-0.041l-0.483-0.661  L36.877,18.728z M36.528,20.173l0.086,0.466l-0.023,0.104l-0.05-0.091l-0.282-0.48v0l-0.017-0.018l0.004-0.009l-0.021-0.009  l-0.337-0.365l-0.006-0.005l0.196-0.206L36.528,20.173z M35.749,19.914L35.749,19.914l-0.004,0.006l0.258,0.27l0.005,0.005  l-0.188,0.433l-0.055-0.031l-0.098,0.175l0.073,0.041l-0.024,0.057l-0.524-0.446l0.193-0.138l0.358-0.375L35.749,19.914z   M35.159,19.438l0.013-0.202l0.059,0.109L35.159,19.438z M33.103,18.784c0.004,0.015,0.012,0.029,0.021,0.041l0.119,0.134  l-1.178-0.365l-0.22-0.115l1.28-0.891l-0.162,0.627c-0.004,0.017-0.004,0.034,0,0.051L33.103,18.784z M31.989,18.777l1.277,0.396  l-0.011,0.088l-0.761-0.125l-1.017-0.188l-0.286-0.016l0.47-0.327L31.989,18.777z M30.898,18.893l-0.778,0.071l0.248-0.738  l0.147-0.02l0.939,0.3L30.898,18.893z M31.068,16.093l-0.005-0.025l-0.526,0.101c-0.013,0.002-0.024,0.007-0.035,0.014l-0.843,0.532  l0.324-0.763l1.025,0.003l0.201-0.018L31.068,16.093z M31.965,14.694l-0.078-0.062l0.015-0.016l0.094,0.102L31.965,14.694z   M31.729,14.509l-0.186-0.146c-0.01-0.008-0.022-0.014-0.035-0.018l-0.516-0.145l-0.054,0.192l0.497,0.139l0.153,0.124l-0.248,0.262  l-0.393,0.33l-0.744,0.183l0.447-1.055l0.414-0.666l0.701,0.76L31.729,14.509z M25.943,18.223L25.943,18.223l-0.027,0.149  l-0.028,0.03l0,0c-0.009,0.01-0.017,0.022-0.021,0.035l-0.787,2.211l-0.002-0.058v0l0,0l0-0.005l-0.038-0.528  c0-0.011-0.006-0.022-0.011-0.033l-0.012-0.476l0.203-0.489l0.26-1.024l0.33-0.54l0.198,0.338L25.943,18.223z M25.249,24.689  L25.249,24.689l-0.003-0.021l-0.307-2.006l0.194-0.231l0.001,0l0.097-0.171l0.465,0.86l0.396,0.976l0.009,1.059l0.098,1.579  l-0.191,0.384L25.249,24.689L25.249,24.689z M26.189,28.832l-0.011-0.521l0.051-0.534c0.001-0.015,0-0.03-0.006-0.044l-0.073-0.202  l0.009-0.271l0.229-0.46c0.008-0.015,0.011-0.032,0.01-0.049h0l-0.074-1.597l0.102-2.136l0.055-0.508l0.588-0.866  c0.007-0.01,0.012-0.021,0.015-0.033l0.254-1.042c0.004-0.016,0.004-0.032,0-0.047v0l0,0l-0.004-0.015l-0.124-0.501l-0.011-0.312  l0.163-0.051l0.067,0.169l0.077,0.53c0.002,0.017,0.009,0.032,0.019,0.045l0.24,0.321l-0.038-0.005L27.698,20.9l0.21,0.03  l0.186,0.329l0.192,0.5c0.006,0.017,0.017,0.031,0.03,0.042l0.401,0.326l0.231,0.406l-0.216,0.338  c-0.008,0.012-0.013,0.026-0.015,0.041l-0.07,0.555l0.394,3.704l-1.162,2.692l-0.465,0.066l-0.19,0.006l-0.842-0.043  c0-0.007,0.002-0.014,0-0.02L26.189,28.832z M22.451,28.9l0.164,0.232l0.114,0.149l-0.163-0.139l-0.362-0.3L22.451,28.9z   M23.167,30.151l0.273,0.003l0.256,0.219l0.062,0.048l-0.284,0.032l-0.359-0.288L23.167,30.151z M23.19,30.481l-0.056-0.001  l-0.388-0.215l0.13-0.035L23.19,30.481z M25.242,30.664l-0.04-0.004l-0.482-0.2l-0.19-0.065l-0.111-0.272l0.329-0.075l0.926,0.015  l0.104,0.041c0.011,0.004,0.021,0.006,0.033,0.007l0.221,0.008l0.085,0.074l-0.044,0.203c-0.003,0.014-0.003,0.027,0,0.041  l0.023,0.116l-0.036,0.015L25.242,30.664z M26.567,30.578l0.083,0.071l-0.167-0.038L26.567,30.578z M26.816,30.523l0.292,0.018  l-0.188,0.053L26.816,30.523z M27.221,30.717l0.15,0.004l-0.079,0.121L27.14,30.74L27.221,30.717z M27.565,31.265l0.478,0.242  c0.009,0.004,0.019,0.008,0.029,0.009l0.297,0.049l-0.829,0.093l-0.489-0.09c-0.007-0.002-0.016,0-0.024,0l0.019-0.06l0.301-0.39  L27.565,31.265z M29.627,31.425L29.1,31.484l-0.979-0.163l-0.454-0.229l-0.208-0.14l0.146-0.225l0.647,0.019l0.883,0.499  l0.028,0.016l0,0h0l0.001-0.002l0.019,0.011l0.632,0.192l-0.154-0.037C29.651,31.424,29.638,31.423,29.627,31.425z M29.263,31.089  L29.263,31.089l-0.949-0.543l-0.493-0.15l0.14-0.215l0.023-0.053l0.031-0.07l0.939-0.143l0.057-0.008l1.031,0.136l1.288,0.698  l-0.185,0.468c-0.012,0-0.023-0.001-0.034,0.002l-0.693,0.228L29.263,31.089z M31.053,31.44l-0.004,0.009l-0.035,0.003L31.053,31.44  z M31.941,30.843l-0.364-0.197l0.125-0.634l0.181,0.311l0.168,0.227L31.941,30.843z M32.755,28.611l-0.008,0.021l-0.006-0.001  l0.027-0.075L32.755,28.611z M35.429,26.271l-0.086-0.544l-0.032-0.1l0.137-0.118c0.01-0.008,0.018-0.019,0.023-0.03l0.092-0.179  l0.235-0.126l0.03-0.012l0.448-0.021l1.022,0.264c0.02,0.005,0.038,0.004,0.058-0.002l0.758-0.257l0.175,2.059l0.23,1.18  l-0.884,0.687c-0.012,0.009-0.021,0.021-0.027,0.033l-0.49,0.953c-0.008,0.015-0.012,0.031-0.011,0.047l0.007,0.55l0.003,0.02v0  l-0.006-0.011c-0.006-0.011-0.014-0.021-0.023-0.029l-0.396-0.343L35.9,28.915l-0.333-2.128l0.001,0L35.429,26.271z M37.423,31.588  l-0.005-0.312c0-0.005-0.002-0.01-0.003-0.014l0.002,0l-0.104-0.625l-0.005-0.51l0.469-0.912l0.786-0.611l0.03,0.153l-0.154,0.479  l-0.788,1.386c-0.005,0.008-0.009,0.018-0.011,0.027L37.423,31.588z M38.696,28.247l-0.21-1.07l-0.154-1.816l0.183,0.398  l0.291,0.428l0.114,0.489l-0.088,1.047l-0.065,0.47L38.696,28.247z M39.118,26.645l-0.122-0.522  c-0.003-0.012-0.008-0.023-0.015-0.033l-0.293-0.429l-0.308-0.67l0.286-0.25l0.466-0.165l0.532-0.063l0.075,0.031  c0.024,0.01,0.049,0.009,0.072,0.001v0l0.207-0.075l0.178-0.021c0.013-0.001,0.024-0.005,0.036-0.011l0.062-0.033l0.031,1.171  l-0.076,0.341l-0.15,0.497l-0.317,0.408c-0.007,0.009-0.013,0.02-0.016,0.031l-0.162,0.496l-0.287,0.417l-0.325,0.252l0.038-0.272  l0.09-1.068C39.121,26.666,39.12,26.655,39.118,26.645z M40.49,24.298l0.06-0.032l-0.049,0.431L40.49,24.298z M40.708,22.403  l0.02-0.452l0.345-0.043l0.727,0.228c-0.001,0.001-0.003,0.001-0.004,0.003l-1.016,1.377L40.708,22.403z M41.079,20.336l0.564-0.024  l-0.141,0.185l-0.169,0.238l-0.597,0.325l-0.002-0.785L41.079,20.336z M40.536,20.242l0.003,0.926l-0.12,0.065l-0.13-0.23  l0.067-0.275c0.003-0.012,0.003-0.024,0.001-0.037l-0.015-0.106l0.167-0.337L40.536,20.242z M39.924,20.979l-0.107,0.118  l-0.197-0.409l0.135-0.111l0.199,0.23l0.029,0.053L39.924,20.979z M39.672,21.256l-0.094,0.103l-0.771,0.711l-0.493,0.15  c-0.011,0.003-0.021,0.009-0.031,0.016l-0.271,0.204l-0.021-0.755l0.732-0.53l0.497-0.148c0.013-0.004,0.025-0.01,0.035-0.019  l0.205-0.169L39.672,21.256z M38.732,19.458l-0.11-0.067l-0.201-0.508l0.015-0.029l0.309,0.577L38.732,19.458z M38.3,18.677  l-0.17-0.219l0.056-0.072l0.135,0.251L38.3,18.677z M39.736,16.668l-0.607,0.805l-0.045-0.236c-0.003-0.016-0.01-0.031-0.021-0.043  l-0.323-0.408l-0.038-0.091l1.218-0.839l0.071-0.012L39.736,16.668z M38.229,16.633c-0.001,0.001-0.002,0.002-0.003,0.004l0.069-0.4  l0.095,0.23L38.229,16.633z M37.066,18.075l0.009,0.048l-0.167,0.226l-0.249-0.151l-0.037-0.033L37.066,18.075z M36.542,18.359  l0.247,0.15l-0.067,0.091l-0.621,0.649l-0.267-0.364l0.278-0.362l0.312-0.268L36.542,18.359z M35.96,19.397l-0.226,0.236  l-0.232-0.206l-0.034-0.064l0.239-0.312L35.96,19.397z M35.364,19.172l-0.099-0.182l-0.018-0.236l0.325,0.146L35.364,19.172z   M34.704,16.652l-0.156,0.099l-1.019,0.282l0,0l0.136-0.259l-0.178-0.093l-0.257,0.496l-0.026,0.101l-0.127,0.1l-1.433,0.996  l-0.07-0.037l-1.021-0.328c-0.015-0.004-0.028-0.006-0.044-0.004l-0.071,0.01l0.496-1.477l0.566-0.627l1.092-0.096l-0.018-0.199  l-0.834,0.073l0.609-0.443l0.364,0.199l0.004,0.003l0.202,0.177l0.201,0.177c0.014,0.011,0.029,0.02,0.047,0.023l0.507,0.103  l0.875,0.546l0.078,0.08L34.704,16.652z M33.766,15.75c-0.01-0.007-0.021-0.011-0.033-0.014l-0.498-0.101l-0.049-0.042l-0.334-0.293  l0,0l-0.249-0.236l0.207-0.15l1.087,0.703l0.329,0.422L33.766,15.75z M32.537,14.732c0.006,0.007,0.014,0.013,0.021,0.019  l0.072,0.046l-0.174,0.126l-0.417-0.452l0.081-0.085l0.016,0.017l0.392,0.319L32.537,14.732z M31.047,13.359l-0.013,0.021  l-0.018-0.02c-0.01-0.01-0.021-0.019-0.035-0.024l-0.616-0.261l0.216-0.163l0.491,0.423C31.063,13.343,31.053,13.35,31.047,13.359z   M30.124,12.974l-0.07-0.03l0.21-0.305l0.117,0.101L30.124,12.974z M29.382,13.568l-0.089,0.067l-0.597,0.194l0.026-0.027  l0.698-0.29L29.382,13.568z M27.219,15.347L27.219,15.347L27.219,15.347L27.219,15.347l0.001-0.001l0.271-0.278l0.622-0.292  l1.062-0.802l-0.112,0.321l-0.104,0.542l-0.02,0.747l-0.02-0.007c-0.015-0.005-0.03-0.007-0.045-0.005l-0.532,0.062  c-0.008,0.001-0.017,0.003-0.024,0.006l-0.578,0.226l-0.015-0.007l-0.007,0.015l-0.399,0.156l0,0l-0.003,0.001l-0.493,0.211  c-0.013,0.005-0.024,0.014-0.034,0.024l-0.308,0.337l0.176-0.366L27.219,15.347z M26.058,17.523l-0.13-0.223l0.052-0.085  l0.106,0.138L26.058,17.523z M25.813,17.104l-0.055-0.094l0.08,0.054L25.813,17.104z M21.204,15.524l-0.01-0.495l0.108,0.329  c-0.008,0.008-0.017,0.015-0.022,0.024L21.204,15.524z M21.445,15.152l0.071,0.056l-0.042,0.029L21.445,15.152z M21.333,14.807  l-0.108-0.329l0.077-0.506c0.002-0.016,0.001-0.032-0.004-0.047l-0.133-0.39l-0.006-0.307l0.033-0.535  c0.001-0.01,0-0.019-0.002-0.028l-0.018-0.078l0.002-0.014l0.376,0.141l0.164,0.462l0.396,0.979l0.127,0.561l-0.549,0.375  L21.333,14.807z M22.285,14.924l0.114,0.501l-0.072,0.185l-0.106,0.327l-0.399-0.695L22.285,14.924z M22.688,14.66l-0.068,0.192  l-0.093,0.239l-0.066-0.289l0.226-0.154L22.688,14.66z M22.638,14.44l-0.224,0.154l-0.114-0.5l-0.399-0.99l-0.106-0.3l0.143,0.054  l0.22,0.221l0.114,0.138l0.282,0.432l0.085,0.5l0.026,0.268L22.638,14.44z M21.706,12.558l-0.387-0.943l-0.093-0.353l0.353,0.517  l0.285,0.838L21.706,12.558z M21.447,12.461l-0.249-0.093l0.002-0.493L21.447,12.461z M21.042,16.487  c0.012-0.012,0.02-0.026,0.024-0.042l0.139-0.504l0.182-0.333l0.151,0.422l0.028,0.748l-0.001,0  c-0.007-0.005-0.016-0.009-0.024-0.012l-0.511-0.161c-0.014-0.005-0.028-0.007-0.042-0.004l-0.058,0.007L21.042,16.487z   M21.736,16.006c0-0.01-0.002-0.02-0.006-0.03l-0.18-0.502l-0.013-0.039l0.118-0.081l0.477,0.831l0.126,1.046l-0.49-0.321  L21.736,16.006z M22.471,18.332l0.395,1.513l0.218,1.045l-0.135-0.495l-0.518-1.5L22.471,18.332z M23.629,25.186l0.261-1.021  l0.873-1.291l0.288,1.847h0l0.002,0.014l0.799,2.563l0.096,0.266l-0.025,0.754l0.066,0.532h0l0,0.006l0.19,1.027l-0.124-0.006  l-0.072-0.062l-0.531-0.925l-0.64-0.842l-0.253-0.458l-0.396-0.996l-0.186,0.074l0.401,1.007l0.267,0.482L25.288,29l0.275,0.479  l-0.434-0.343c-0.011-0.009-0.024-0.015-0.039-0.019l-0.498-0.117l-0.955-0.499l-0.548-0.975l-0.068-0.579L23.629,25.186z   M24.522,29.187l0.5,0.12l0.704,0.556h-0.009l-1.703-0.683L24,29.147l-0.184-0.328L24.522,29.187z M23.724,29.064l-0.343-0.138  l-0.738-0.471l0.454-0.01l0.396,0.205L23.724,29.064z M22.01,28.345l-0.741-0.048l-0.178-0.054l-0.063-0.086l0.783,0.075  L22.01,28.345z M20.938,27.947l-0.379-0.256l0.487,0.104l0.342,0.196L20.938,27.947z M20.291,27.754  c-0.005-0.001-0.011-0.003-0.016-0.004l-0.535-0.027c-0.011-0.001-0.026,0.002-0.039,0.006l-0.132,0.048l-0.195-0.061l-0.028-0.043  l0.14,0.017l0.733-0.003L20.291,27.754z M15.946,25.343c-0.012-0.008-0.027-0.013-0.042-0.015v0l-0.002,0c0,0,0,0,0,0l-0.007-0.001  l-0.522-0.07c-0.013-0.002-0.025,0-0.037,0.002l-0.001,0l-1.421-0.558l-0.9-0.549l-0.225-0.2l-0.16-0.483l-0.034-0.521  c0-0.003-0.002-0.006-0.002-0.01l-0.008-0.717l0.054-0.394l0.097,0.042l0.315,0.42l1.538,1.494c0.007,0.006,0.015,0.012,0.023,0.017  l0.469,0.25l0.39,0.231l0.05,0.03l0.824,1.292L15.946,25.343z M12.883,20.911l0.119,0.065l0.018,0.1L12.883,20.911z M12.833,20.655  l0.082-0.185l0.043,0.254L12.833,20.655z M13.168,20.763l0.035,0.074c0.005,0.012,0.013,0.022,0.023,0.031l0.014,0.012l-0.057-0.031  L13.168,20.763z M11.766,18.542l0.069,0.045l0.398,0.143l0.126,0.147l0.08,0.257l-0.189,0.37c-0.008,0.015-0.012,0.032-0.011,0.049  l0.01,0.239l-0.005,0.008l-0.502-1.224L11.766,18.542z M12.199,20.397l0.017,0.071l-0.028,0.285l-0.114-0.118l0.004-0.01l0.09-0.237  L12.199,20.397z M11.92,20.478l-0.214-0.221l0.27,0.077L11.92,20.478z M11.984,20.831l0.185,0.191c0.001,0.002,0,0.004,0.001,0.007  l0.088,0.241l-0.026,0.167l-0.377-0.147l-0.02-0.012l0.024-0.171L11.984,20.831z M10.002,20.938l0.275,0.368l-0.089,0.001  l-0.495,0.071l-0.265-0.021l-0.023-0.035h0l-0.044-0.055l0.085-0.161l0.171-0.226L10.002,20.938z M9.314,21.545l0.288,0.443  l-0.386-0.389l-0.001-0.058l0.002-0.004L9.314,21.545z M9.775,23.334l-0.549-1.303l-0.003-0.142l0.528,0.533l0.313,0.661  l-0.067,0.108l0.167,0.104l0.308,0.651l-0.002-0.001L9.775,23.334z M10.955,24.639l-0.345,0.091l-0.089-0.082l0.424-0.018  L10.955,24.639z M8.209,24.435l-0.172-0.079l-0.361-0.657l0.767,0.741L8.209,24.435z M8.667,24.656l0.22,0.213l-0.293,0.022  l-0.277-0.027l-0.064-0.116L8.667,24.656z M9.101,25.053l0.113,0.042l-0.563-0.009L9.101,25.053z M10.973,25.324l0.303,0.175  l0.02,0.145l-0.112,0.018l-0.545-0.018l-0.212-0.061c-0.009-0.002-0.018-0.004-0.027-0.004H9.866L9.344,25.53  c-0.016-0.001-0.032,0.001-0.046,0.006l-0.146,0.057L8.71,25.579l-0.162-0.295L10.973,25.324z M8.478,25.571l-0.467-0.015  L7.75,25.502C7.741,25.5,7.731,25.498,7.724,25.5l-0.35,0.02l-0.333-0.037l-0.454-0.025l-0.264-0.21l1.995,0.033L8.478,25.571z   M6.209,25.412l-0.707-0.094l0.161-0.082l0.332,0.005L6.209,25.412z M5.973,26.555l0.064,0.084l-0.464-0.084l-1.048,0.016  l-0.32-0.077l0.994,0.051l0.525-0.011L5.973,26.555z M6.241,26.578l0.011,0.001c0.003,0,0.006,0,0.009,0  c0.006,0,0.012-0.002,0.018-0.003l0.087,0.05l-0.083,0.006L6.241,26.578z M8.965,26.499c-0.009-0.015-0.022-0.027-0.038-0.035  l-0.061-0.032l0.45-0.091l0.076,0.052l0.186,0.163l-0.462,0.183L8.965,26.499z M10.993,27.214L10.56,26.95l-0.527-0.359l1.243-0.491  l0.149,0.021l0.11,0.27c0.005,0.013,0.013,0.023,0.022,0.033l0.362,0.364l0.162,0.462l0.007,0.021l0,0l0,0.001l0.001,0l0.005,0.016  l0.015,0.027l-0.114,0.024L10.993,27.214z M12.277,27.206l-0.018-0.05l-0.152-0.444l-0.033-0.502l0.379,0.052l0.319,0.91  l-0.46,0.099L12.277,27.206z M13.057,27.373l-0.004-0.012l-0.015-0.045l0.008-0.001l0.511,0.019l0.325,0.181l0.301,0.364  c0.01,0.012,0.022,0.021,0.036,0.027l0.156,0.07l-0.14,0.032l-0.828-0.292L13.057,27.373z M14.322,27.731l-0.039-0.047l0.643,0.23  l-0.16-0.022c-0.012-0.001-0.023-0.001-0.036,0.001l-0.029,0.007L14.322,27.731z M16.088,28.12l-0.015-0.005l-0.017-0.006  l-0.236-0.086l0.499-0.135l0.522,0.081l0.615,0.008l-0.849,0.157L16.088,28.12z M19.525,28.006l0.049-0.018l0.917,0.279  l-0.008,0.135l-0.836-0.138L19.525,28.006z M21.006,28.479l0.012,0.012l-0.11-0.018L21.006,28.479z M21.738,28.735l0.028,0.006  l0.67,0.554l0.514,0.439l-0.198-0.047l-0.022,0.094l-0.096-0.031l-0.627-0.667l-0.41-0.351L21.738,28.735z M22.613,30.019  l0.07,0.056l-0.051,0.014l-0.292-0.049l-0.529-0.293l0.294,0.042l0.42,0.136L22.613,30.019z M26.345,30.784l0.325,0.075  c0.017,0.003,0.033,0.002,0.05-0.001l0.168-0.047l0.293,0.197l-0.304,0.394c-0.007,0.009-0.013,0.02-0.017,0.032l-0.054,0.177  l-0.287,0.057L26.345,30.784z M26.74,31.827l-0.146,0.476l-0.014-0.329l-0.022-0.111L26.74,31.827z M31.35,31.622l0.08-0.007  l-0.28,0.421L31.35,31.622z M32.802,31.593l-0.057-0.102l0.474-0.021l0.506,0.05l0.396,0.286l0.6,1.022l-0.542-0.45l-0.461-0.284  L32.802,31.593z M35.646,34.603L35.646,34.603l-0.001-0.002l-0.551-1.525l-0.811-1.387c-0.008-0.012-0.017-0.023-0.028-0.031  l-0.435-0.314c-0.013-0.009-0.028-0.015-0.044-0.017v0l-0.003,0l0,0h-0.001l-0.001,0l0,0l-0.004,0l-0.525-0.08l-0.546-0.053  l-0.115,0.004l-0.018-0.032l-0.186-0.503c-0.003-0.009-0.008-0.017-0.013-0.025l-0.087-0.117l0.053-0.14l0.386-1.125l0.001,0  l0.229-0.583l0.207-0.873l0.628-0.956l0.449-0.28l0.001,0l0.76-0.658l0.155,0.462l0.229,0.475l0.331,2.123  c0.002,0.012,0.006,0.023,0.012,0.034l0.81,1.406c0.006,0.01,0.013,0.019,0.021,0.026l0.394,0.342l0.276,0.531l0.011,0.593  l-0.206,1.235l-0.319,0.527c-0.005,0.009-0.009,0.02-0.012,0.03l-0.158,0.706l-0.394,0.597c-0.006,0.008-0.01,0.018-0.013,0.026  l-0.145,0.499l-0.337-0.912l0,0L35.646,34.603z M47.053,23.62l0.21,0.283l-0.197-0.032l-0.071-0.14L47.053,23.62z M48.564,24.652  l-0.039,0.165l-0.045-0.208l0.1,0.011L48.564,24.652z M48.268,24.569l0.146,0.672l0.174,0.482l0.007,0.021  c0.005,0.016,0.015,0.03,0.026,0.041l0.172,0.158l-0.904,0.405c-0.009,0.004-0.017,0.009-0.024,0.015l-0.076,0.065l0.151-0.36  c0.005-0.012,0.008-0.024,0.008-0.037l0.029-1.606l-0.199-0.005l-0.029,1.589l-0.194,0.461l-0.188,0.215l0.133-1.533l-0.056-0.533  c-0.001-0.012-0.005-0.024-0.011-0.036l-0.252-0.491l0.406,0.066L48.268,24.569z M50.17,26.028l0.029,0.512l-0.085,0.136  l-0.047-0.074c-0.007-0.012-0.018-0.022-0.029-0.03l-0.832-0.535l0.232-0.159l0.647-0.124L50.17,26.028z M53.593,23.71  c0.012,0.003,0.03,0.004,0.034,0.004l0.523-0.029l0.041,0.002l-0.019,0.032l-0.395,0.337c-0.007,0.006-0.013,0.013-0.019,0.02  l-0.302,0.442c-0.006,0.008-0.01,0.018-0.013,0.027l-0.387,1.295l-0.083-0.867l-0.117-0.546l-0.31-0.687l0.468-0.207L53.593,23.71z   M53.29,23.409l0.407-0.224l0.895-0.164l-0.284,0.475l-0.155-0.01l-0.518,0.028L53.29,23.409z M51.364,24.896l-0.018,0.009  l-0.005-0.005l0.012-0.013c0.01-0.012,0.018-0.025,0.021-0.041l0.09-0.342l0.405-0.391l0.067-0.101l0.257-0.114l-0.131,0.306  l-0.263,0.437L51.364,24.896z M51.102,24.854l0.086-0.083v0.001l-0.092,0.104L51.102,24.854z M50.573,26.316  c0.002-0.003,0.003-0.007,0.005-0.011l0.251-0.416c0.005-0.008,0.009-0.017,0.011-0.026l0.026-0.104l0.096,0.018  c0.017,0.003,0.033,0.002,0.05-0.004l0.444-0.15c0.014-0.005,0.026-0.012,0.037-0.022l1.159-1.114l-0.139-0.145l-1.143,1.099  l-0.399,0.135l-0.055-0.01l0.064-0.248l0.479-0.248l0.463-0.27c0.014-0.008,0.026-0.021,0.035-0.035l0.282-0.471l0.165-0.386  l0.264,0.581l0.108,0.514l0.1,1.042l-0.189,0.444l-0.026,0.016l0.031-0.295l-0.199-0.021l-0.047,0.451l-0.643,0.405  c-0.009,0.005-0.017,0.013-0.023,0.021l-0.691,0.841l-0.153,0.249l-0.259-0.251l-0.125,0.13l-0.021-0.437h0.001l-0.001-0.004v-0.001  l-0.001-0.003l-0.103-0.502l-0.01-0.169l0.026-0.042c0.006-0.011,0.011-0.022,0.013-0.034l0.102-0.503L50.573,26.316z   M55.696,32.037l-0.137,0.127v0c-0.008,0.007-0.015,0.017-0.021,0.026l-0.248,0.476c-0.004,0.009-0.008,0.018-0.009,0.027  l-0.031,0.158l-0.129,0.012l0.174-0.22l-0.156-0.124l-0.288,0.368l-0.089,0.008l0.09-0.807l0.194-0.034l0.507-0.042L55.696,32.037z   M53.442,36.836l-0.034-0.002l0.048-0.021L53.442,36.836z M53,36.796l-0.474-0.154c-0.017-0.007-0.033-0.008-0.051-0.003l-0.509,0.1  l-0.015,0.003c-0.001,0-0.002,0.001-0.002,0.001h-0.001l0,0c-0.011,0.002-0.021,0.006-0.031,0.012l-1.401,0.828l-0.028,0.026  l0.176-0.439l0.004-0.009l0.322-0.387c0.01-0.012,0.017-0.026,0.021-0.042l0.22-0.995l0.091-0.125l0.823-0.667l-0.01-0.012  l0.612-0.207c0.015-0.005,0.027-0.013,0.038-0.023l0.378-0.376l0.563,0.077l0.673-0.06l-0.135,1.202l-0.415,0.646l-0.152,0.236  l-0.053,0.084L53,36.796z M48.471,40.783l-0.122,0.151l-0.078-0.033l0.523-0.636l0.11-0.049l-0.054,0.155L48.471,40.783z   M46.183,40.227l-1.191,0.086l0.113-0.061c0.013-0.006,0.023-0.017,0.031-0.028l0.001,0.001l0.661-0.866l0.083-0.159l0.234-0.156  l0.478-0.254l0.941-0.562l1.088-1.066l0.59-0.346l-0.024,0.048l0.001,0.001l-0.009,0.018l-0.109,0.415l-0.052,0.068l-0.475,0.941  l-0.007,0.013l0,0l-0.006,0.012l-0.187,0.483l-0.33,0.377L46.183,40.227z M49.789,27.912l0.422-0.666l0.126,0.39l0.021,0.496  l-0.477,0.94l-0.399,0.982l-0.38,0.694l0.298-0.987l0.091-1.255L49.789,27.912z M50.547,28.2c0.008-0.016,0.012-0.033,0.011-0.05  l-0.004-0.086l0.275,0.268l-0.342,0.555l0.207-0.456l-0.182-0.083l-0.223,0.488c-0.007,0.015-0.01,0.031-0.009,0.048l0.02,0.305  l-0.187,0.302l-0.003,0.004l-0.615,0.943l0.165-0.296l0.401-0.985L50.547,28.2z M55.211,33.056l-0.017,0.085l-0.284,0.036  l0.046-0.099L55.211,33.056z M46.626,38.451l0.668-0.512l0.608-0.356l-0.501,0.494l-0.906,0.538l-0.272,0.146L46.626,38.451z   M49.729,33.02l-0.986,0.401l-0.508,0.17c-0.016,0.005-0.03,0.014-0.041,0.026l-0.169,0.181l-0.169-0.019l0.619-0.678l0.332-0.42  l-0.156-0.124l-0.328,0.416l-0.346,0.379l1.283-2.187l1.019-1.561v0l0.044-0.059l0.159,2.543l0.011,0.637l-0.496,0.408l-0.655,0.641  l-0.734,0.086l-0.334-0.035l0.049-0.052l0.49-0.164l0.993-0.403L49.729,33.02z M51.977,33.673l-0.041,0.09l-0.04-1.046l0.009-0.005  L51.977,33.673z M50.159,34.585l0.37-0.667l0.159-0.032l-0.513,1.019l-0.173,0.069l0.114-0.278L50.159,34.585z M51.413,35.176  l0.114-0.038l-0.166,0.175l0.045-0.136C51.408,35.176,51.411,35.177,51.413,35.176z M51.62,34.085l0.127-0.035l0.004,0.108  l-0.034,0.077l-0.031,0.031l-0.099,0.022l0,0l-0.004,0.001l-0.007,0.002l0.042-0.167C51.622,34.112,51.622,34.099,51.62,34.085z   M52.049,34.185l0.245-0.248l0.28-0.08l-0.227,0.26L52.049,34.185z M51.354,34.354l-0.074,0.021l0.031-0.122l0.08-0.046  L51.354,34.354z M50.972,33.775l0.281-0.113l-0.115,0.461l-0.48,0.274L50.972,33.775z M51.107,33.507l0.146-0.289l0.034,0.216  L51.107,33.507z M51.044,34.442l-0.39,0.218l0.041-0.054l0.375-0.216l-0.012,0.048L51.044,34.442z M51.378,33.986l0.013-0.052  l0.007,0.04L51.378,33.986z M51.211,34.602C51.211,34.602,51.211,34.601,51.211,34.602l0.088-0.025l-0.097,0.383l-0.299-0.035  L51.211,34.602z M51.538,32.563L51.6,32.36l0.165-0.005L51.538,32.563z M50.959,32.891l0.301-0.422  c0.001-0.001,0.002-0.003,0.003-0.005l0.006-0.009l0.043-0.086l0.042-0.001l-0.048,0.273l-0.058,0.192l-0.227,0.212l-0.122,0.063  L50.959,32.891z M50.821,33.391l0.006-0.021l0.164-0.085l-0.17,0.338l-0.166,0.067L50.821,33.391z M50.039,35.811l0.063-0.045  l0.63-0.66l0.358,0.042l-0.657,0.566l-0.37,0.299L50.039,35.811z M51.586,33.886l-0.059-0.334l0.176-0.071l-0.074-0.186  l-0.137,0.056l-0.054-0.306l0.004-0.02l0.237-0.189l0.021-0.011l0.039,1.018L51.586,33.886z M50.786,32.79  c-0.007,0.01-0.013,0.02-0.016,0.032l-0.072,0.27l-0.005-0.272l0.175-0.144L50.786,32.79z M50.499,33.141l-0.082,0.214l-0.716,0.366  l-0.006-0.015l0.435-0.425l0.366-0.301L50.499,33.141z M49.998,35.191l-0.026,0.034l-0.002-0.022L49.998,35.191z M49.858,35.978  l0.024,0.214l-0.188,0.11L49.858,35.978z M51.1,35.402l-0.02,0.087l-0.254,0.149L51.1,35.402z M51.568,34.912l0.153-0.204h0.001  l0.124-0.271l0.378-0.083L52.19,34.43l-0.092,0.199l-0.216,0.178L51.568,34.912z M52.885,33.902l0.099-0.147l0.003-0.002  l0.974-0.217l0.182,0.01l0.22,0.034l-0.178,0.135l-1.437,0.313L52.885,33.902z M54.306,33.254l-0.121,0.027l-0.59,0.037  l-0.048,0.014l0.126-0.095c0.013-0.01,0.023-0.021,0.03-0.036l0.031-0.063l0.434-0.043l0.37,0.003l-0.015,0.129L54.306,33.254z   M54.159,32.896l-0.321,0.031l0.316-0.644l0.487-0.113l-0.081,0.729L54.159,32.896z M53.744,32.522l0.068-0.161l0.09-0.021  l-0.301,0.614c-0.006,0.002-0.011,0.002-0.016,0.005l-0.113,0.065l0.015-0.022L53.744,32.522z M51.533,29.844l0.085,0.944  l-0.47,1.401c-0.004,0.002-0.008,0.003-0.012,0.006l-0.447,0.368l-0.009-0.484l-0.173-2.784l0.514-0.693l0.143,0.249L51.533,29.844z   M50.31,33.635l-0.052,0.136l-0.09,0.018l-0.135-0.012L50.31,33.635z M49.787,35.355l0.012,0.098l-0.548,0.718l-0.011,0.014  l0.068-0.23L49.787,35.355z M49.247,36.492l-0.006,0.075l-0.106,0.063L49.247,36.492z M49.528,36.63l0.078-0.045l-0.167,0.221  L49.528,36.63z M50.931,35.809l-0.389,0.534l-0.354,0.401c-0.008,0.01-0.015,0.021-0.019,0.032l-0.014,0.038l-0.06-0.517  L50.931,35.809z M50.493,37.059c-0.007,0.008-0.012,0.017-0.016,0.026l-0.331,0.838l-0.03,0.027l-0.197,0.209l0.288-0.799  c0.006-0.015,0.008-0.03,0.006-0.046l-0.007-0.056l0.145-0.396l0.348-0.395l0.133-0.183l-0.104,0.315l-0.226,0.447L50.493,37.059z   M52.47,34.299l0.19-0.042l0.254,0.035l-0.253,0.252l-0.358,0.121L52.47,34.299z M54.248,33.905  c0.014-0.003,0.027-0.009,0.039-0.018l0.178-0.134l-0.043,0.389l-0.69,0.063l-0.514-0.072L54.248,33.905z M53.579,32.401  l-0.015,0.035L53.316,32.9l-0.23,0.347l-0.74,0.424l-0.175,0.05c0.004-0.012,0.008-0.023,0.007-0.037l-0.081-1.079l0.035-0.02  L53.579,32.401z M51.345,28.767l-0.193-0.34l0.197-0.267l-0.006,0.083l0.153,0.927L51.345,28.767z M51.329,27.931l0.041-0.05  l-0.003,0.033L51.329,27.931z M50.165,33.988c0.003,0,0.006-0.001,0.009-0.001l-0.203,0.528l-0.066,0.121l-0.063-0.541l-0.054-0.142  L50.165,33.988z M48.894,36.474l0.081-0.102l-0.064,0.216l-0.434,0.428l-0.523,0.307L48.894,36.474z M49.011,38.545l0.056-0.508  l0.281-0.43c0.009-0.014,0.015-0.03,0.016-0.047l0.028-0.361l0.526-0.701l0.085,0.736l-0.018,0.048l-0.422,1.253l-0.183,0.194  c-0.013,0.013-0.021,0.028-0.025,0.045l-0.119,0.496l-0.483,0.471l0.012-0.137l0.15-0.525L49.011,38.545z M48.993,39.959  l-0.269,0.118l0.002-0.032l0.357-0.348L48.993,39.959z M54.603,34.325l0.19-0.017l-0.156,0.232l-0.085,0.236L54.603,34.325z   M54.948,34.076l-0.014,0.02l-0.31,0.028l0.056-0.5c0.007,0,0.013,0.001,0.019-0.001l0.427-0.136l-0.042,0.215L54.948,34.076z   M52.094,32.388l0.031-0.031l0.152,0.008L52.094,32.388z M52.184,31.969l0.041-0.13l0.043-0.047l0.149-0.102l0.118-0.044  L52.184,31.969z M52.423,30.547l-0.003,0.008l-0.087-0.033l-0.194,0.521l-0.082,0.508l-0.075,0.195l-0.16,0.108l-0.082,0.041  l0.134-0.444c0.004-0.012,0.005-0.024,0.004-0.036l-0.021-0.278l0.074-0.177l0.058-0.314l0.074-0.128  c0.001-0.001,0.001-0.003,0.002-0.005l0.329-0.392c0.008-0.008,0.013-0.018,0.017-0.028l0.01-0.026L52.423,30.547z M52.023,28.811  l-0.199,0.019l0.043,0.455l-0.008,0.023c-0.005,0.015-0.007,0.031-0.004,0.046l0.052,0.353l0.017,0.172l-0.134,0.396l-0.076-1.007  l-0.173-1.034l0.015-0.187l0.729-0.322l-0.086,0.564l-0.176,0.524V28.811z M51.574,27.823l0.01-0.122l-0.062-0.005l0.403-0.489  l0.486-0.306l-0.091,0.592L51.574,27.823z M42.835,31.888l0.379-0.358l0.014-0.014l0.384-0.151l-0.438,0.75l-0.44,0.257  c-0.014,0.008-0.025,0.02-0.034,0.033l-0.526,0.839l0.44-0.888L42.835,31.888z M43.559,31.17l0.18-0.188l-0.023,0.126L43.559,31.17z   M43.992,30.717l0.68-0.71l-0.009,0.02l-0.051,0.111l-0.195,0.478l-0.348,0.353l-0.135,0.053L43.992,30.717z M45.427,23.975  l0.011-0.209l0.892,0.172l0.077,0.492l-0.47,2.053l-0.556,0.776l-0.709-0.231l0.123-0.438l0.243-0.495l0.472-1.523l0.286-0.437  l-0.168-0.109l-0.294,0.448c-0.005,0.008-0.009,0.016-0.012,0.025l-0.47,1.521l-0.188,0.383l0.027-0.398l0.729-2.001  C45.425,23.995,45.427,23.985,45.427,23.975z M45.187,28.19c-0.006-0.011-0.013-0.021-0.021-0.03l-0.116-0.117l0.126-0.154  l0.282-0.395l0.172,0.056l0.234,0.259l-0.087,0.109l-0.346,0.191c-0.014,0.008-0.026,0.02-0.035,0.033l-0.136,0.21L45.187,28.19z   M44.617,27.221l0.642,0.209l-0.242,0.338l-0.109,0.133l-0.376-0.377L44.617,27.221z M46.579,27.779l0.146,0l-0.402,0.576  l-0.037-0.024l0.154-0.394L46.579,27.779z M46.755,27.58l0.018-0.021l0.262-0.224l-0.171,0.244H46.755z M46.244,27.889l-0.058,0.151  l-0.023-0.106L46.244,27.889z M45.907,28.076l0.073-0.041l0.077,0.348l-0.031,0.229l-0.272,0.431L45.6,29.117l-0.187-0.419  L45.907,28.076z M47.159,26.75l-0.022,0.16l-0.338,0.252l-0.778,0.523l-0.261-0.288c-0.012-0.013-0.026-0.023-0.043-0.028  l-0.137-0.044l0.531-0.742c0.008-0.011,0.014-0.023,0.017-0.036l0.479-2.076l0.229-0.436l0.099,0.017l0.312,0.606l0.054,0.495  L47.159,26.75z M46.561,24.126l-0.022-0.147l0.091,0.018L46.561,24.126z M44.368,27.239l-0.036-0.111l0.06,0.02L44.368,27.239z   M44.274,28.638l0.089-0.518l0.105-0.375l0.311,0.312l-0.442,0.54c-0.01,0.012-0.017,0.026-0.021,0.041l-0.043,0.187L44.274,28.638  L44.274,28.638z M44.082,30.238l0.001-0.003l0,0v-0.001l0.185-0.507l0.238-1.021l0.415-0.507l0.09,0.09l0.12,0.269l-0.025,0.039  c-0.006,0.009-0.011,0.02-0.013,0.03l-0.22,0.882l-0.813,0.85L44.082,30.238z M45.306,28.948l0.114,0.257l-0.257,0.125  L45.306,28.948z M45.612,29.791c0.001-0.002,0.001-0.005,0.002-0.007l0.206-0.476l0.07-0.11l0.061-0.03l-0.033,0.248l-0.248,0.437  l-0.266,0.348L45.612,29.791z M47.983,26.524l0.451-0.202l-1.069,0.731L47.983,26.524z M46.726,23.812l-0.224-0.043l-0.155-0.859  l0.422,0.821L46.726,23.812z M47.241,34.077l-0.19,0.375l-0.112,0.097l-0.869,0.271l-0.41-0.07L47.241,34.077z M47.707,33.966  l0.146,0.015l-0.009,0.01l-0.245,0.155L47.707,33.966z M48.128,39.357c0.01-0.006,0.019-0.013,0.026-0.021l0.353-0.403  c0.008-0.009,0.014-0.019,0.019-0.029l0.188-0.489l0.014-0.026l0.124-0.229l-0.039,0.358l-0.092,0.518l-0.151,0.534l-0.035,0.386  l-0.045,0.044c-0.007,0.006-0.013,0.014-0.018,0.021l-0.445,0.78l-1.237-0.515c-0.012-0.005-0.024-0.007-0.038-0.007H46.75  l-0.26,0.003L48.128,39.357z M48.043,41.179l0.095-0.115l0.08,0.033l-0.077,0.095l-0.123,0.092L48.043,41.179z M49.778,39.914  l0.477-0.208l0.019-0.002l2.112-0.15l0.104-0.019l0.359,0.107c0.021,0.008,0.045,0.006,0.065-0.003l0.395-0.157l0.523,0.068  l0.517-0.024l0.311,0.088l-0.414,0.084c-0.015,0.003-0.028,0.009-0.04,0.018l-1.134,0.844l-0.144,0.044l-0.502,0.168l-1.029,0.256  l-2.129,0.074h-0.517l-0.162-0.067l0.086-0.084l0.328-0.424c0.007-0.009,0.012-0.019,0.016-0.028l0.009-0.024l0.431-0.469  L49.778,39.914z M52.2,37.669c-0.013,0.003-0.024,0.008-0.034,0.015l-2.236,1.52l-0.576,0.624l-0.114,0.032l0.126-0.362l0.903-1.341  l0.048-0.119l0.318-0.295l1.369-0.807h0.002l0.487-0.068l0.517,0.146l0.312,0.015l-0.163,0.261l-0.371,0.222l-0.079,0.046  L52.2,37.669z M53.541,37.061l0.014-0.021h0.009l0.019-0.003L53.541,37.061z M53.796,36.801l-0.101,0.017l0.097-0.151l0.195-0.086  L53.796,36.801z M54.293,36.228l-0.309,0.136l0.376-0.592l0.1-0.154l0.354-0.986l0.124-0.186l-0.17,0.864L54.293,36.228z   M55.531,33.027l-0.023,0.01v-0.008L55.531,33.027z M60.589,30.232l0.008-0.011l0.145-0.079L60.589,30.232z M59.221,31.011  l0.92-0.542l0.045-0.024l-0.023,0.032l-0.011,0.013l-0.424,0.248c-0.014,0.008-0.024,0.019-0.033,0.032l-0.28,0.433l-0.224,0.153  l-0.484-0.099l-0.135,0.002L59.221,31.011z M56.64,31.776l0.999-0.313l0.533,0.001l0.515-0.01l0.227,0.046l-2.344,0.49l-0.346-0.062  L56.64,31.776z M57.444,29.097l-0.242,1.018l-0.411,0.443l0.214-1.394l0.343-0.311l0.377-0.559L57.444,29.097z M57.611,28.105  l-0.414,0.618l-0.145,0.131l0.005-0.033l0.401-0.562L57.611,28.105z M57.349,28.088l-0.042,0.042l-0.183,0.255l0.026-0.17  L57.349,28.088z M54.714,30.582l0.528-0.928l0.273-0.434l1.354-0.826l0.056-0.036l-0.06,0.387l-0.182,0.254l-0.321,0.422  l-0.338,0.39l-0.47,0.233l-0.47,0.283l-0.405,0.316l-0.01-0.02l0.014-0.009C54.696,30.605,54.707,30.595,54.714,30.582z   M53.59,31.25l0.546-0.259v0.001l0.614-0.159c0.013-0.003,0.025-0.009,0.036-0.018l0.413-0.323l0.453-0.272l0.479-0.238  c0.01-0.005,0.018-0.011,0.025-0.019v0l0.379-0.374l0.233-0.212l-0.221,1.441l-0.072,0.078l-0.517,0.881l-0.402,0.033l-0.527-0.023  c-0.006-0.001-0.016,0.001-0.024,0.002l-0.07,0.015l0.551-0.764l-0.162-0.117l-0.627,0.869c-0.01,0.014-0.017,0.03-0.019,0.047  l-0.002,0.019l-0.352,0.074l0.087-0.176l-0.18-0.088l-0.155,0.316l-0.152,0.032l-0.155-0.066l-0.046,0.108l-0.694,0.146  l-0.718-0.039l0.127-0.128l-0.017-0.016l0.3-0.277l-0.115-0.126L53.59,31.25z M53.279,29.878c-0.011,0.012-0.019,0.026-0.023,0.041  l-0.281,1.013l-0.305,0.39l-0.339,0.179l0.288-0.909c0.003-0.01,0.004-0.021,0.004-0.031l-0.008-0.959l0.787-0.663l0.37-0.357  l0.483-0.179l-0.07-0.188l-0.503,0.187c-0.013,0.005-0.024,0.012-0.034,0.022l-0.38,0.367l-0.82,0.69  c-0.004,0.003-0.005,0.008-0.008,0.011h-0.025v0.041l-0.186,0.472l-0.048,0.058l0.15-0.588l0.635-0.831l1.054-1.214l-0.15-0.131  l-1.058,1.219l-0.651,0.852c-0.009,0.01-0.015,0.023-0.018,0.036l-0.047,0.183l-0.026-0.28l0.322-0.969l0.108-0.707l0.792-0.349  l0.514-0.041v0.001l0.542-0.021c0.011,0,0.021-0.002,0.03-0.006l0.483-0.177l0.53,0.038l0.521-0.058l-0.519,0.516l-0.841,1.195  l-0.068,0.021c-0.011,0.003-0.02,0.007-0.028,0.014l-0.437,0.302v0c0,0,0,0,0,0l-0.005,0.003v0  c-0.007,0.004-0.013,0.009-0.019,0.015L53.279,29.878z M56.141,26.792l-0.752,0.085l-0.534-0.039c-0.01-0.003-0.027,0-0.041,0.006  l-0.079,0.029l0.084-0.046l1.417-0.128L56.141,26.792z M55.905,28.161l-0.408,0.288l-0.635,0.189l0.685-0.975l0.683-0.679  l0.188-0.021l0.197,0.067L55.905,28.161z M56.738,26.833l-0.014,0.022l-0.264-0.09c-0.004-0.001-0.007,0-0.012-0.001l0.096-0.095  l0.223-0.02L56.738,26.833z M56.8,26.445l-0.033,0.003l0.039-0.039L56.8,26.445z M57.858,23.603l0.975-1.212l-0.037,0.438  l-0.193,0.467l-1.046,1.744L57.858,23.603z M56.767,25.816l0.031,0.321l-0.341,0.339l-1.678,0.152  c-0.014,0.001-0.027,0.005-0.04,0.012l-0.447,0.251l-0.507,0.151l-0.524,0.041c-0.011,0.001-0.022,0.003-0.032,0.008l-0.691,0.305  l0.099-0.638l0.186-0.117c0.011-0.007,0.019-0.018,0.026-0.028l0.002,0.001l0.313-0.442c0.006-0.009,0.011-0.019,0.014-0.029  l0.456-1.526l0.285-0.418l0.396-0.339c0.009-0.007,0.016-0.016,0.021-0.025l0.08-0.134l0.247,0.016l1.353,0.782l0.291,0.404  l0.01,0.014l0.307,0.419L56.767,25.816z M55.831,23.96l0.095,0.258l-1.184-0.685c-0.013-0.008-0.028-0.012-0.043-0.013l-0.167-0.011  l0.321-0.537l0.133-0.024L55.831,23.96z M54.482,22.345l0.358,0.429l-1.195,0.218c-0.011,0.001-0.021,0.005-0.03,0.01l-0.462,0.254  l-0.148,0.066l-0.27-0.082l-0.059,0.191l0.047,0.014l-0.146,0.065l0.737-1.721L54.482,22.345z M52.172,23.657l0.064-0.124  c0,0,0,0,0,0.001l0.048,0.106l-0.143,0.063L52.172,23.657z M50.452,25.685l0.054,0.01c0,0-0.001,0.001-0.001,0.002l-0.11,0.524  l-0.015,0.024l0,0l-0.015-0.251l-0.084-0.276L50.452,25.685z M50.026,25.563L50.026,25.563l-0.129,0.025l-0.052-0.116l-0.854,0.382  l-0.214-0.198l-0.136-0.462l0.11-0.474l0.035-0.072l0.037,0.018l0.483,0.167L50.026,25.563z M47.74,23.254  c0.004,0.009,0.009,0.017,0.015,0.024l0.319,0.4l0.099,0.453l-0.24-0.115c-0.008-0.004-0.018-0.007-0.026-0.008l-0.25-0.041  l-0.175-0.105l-0.303-0.406v0l0.452-0.467L47.74,23.254z M49.166,21.116l-1.467,1.514l-0.179-0.431l-0.137-0.518l-0.193,0.051  l0.141,0.53l0.216,0.524l-0.475,0.491l-0.445-0.741l-0.172,0.103l0.475,0.789c-0.003,0.004-0.006,0.007-0.009,0.011l-0.039,0.074  l-0.43-0.837l-0.135,0.07l-0.149-0.826l1.269-0.371l0.512,0.06l0.023-0.198l-0.532-0.063c-0.015-0.002-0.026,0-0.04,0.003  l-1.282,0.375l-1.144-1.418l0.373-0.014c0.008,0,0.017-0.002,0.025-0.004l1.513-0.456l1.019,0.239  c0.006,0.001,0.012,0.002,0.018,0.002l0.003,0l0.54,0.012l0.535-0.014c0.017,0,0.034-0.005,0.049-0.014l0.245-0.147l0.181-0.016  l0.027,0.002l0.283,0.076L49.166,21.116z M49.922,19.72l-0.058,0.009l-0.236-0.019l0.343-0.207L50,19.484l-0.075,0.23L49.922,19.72z   M47.931,19.874l-0.641-0.15l1.118,0.088L47.931,19.874z M51.54,19.188l-1.056,0.44l-0.341,0.056l0.127-0.381l0.146-0.098  l-0.088-0.131l0.726,0.119L51.54,19.188z M48.975,18.984l0.516-0.032l0.528,0.071l0.249,0.041l-0.404,0.271l-0.578,0.348  l-2.061-0.165L48.975,18.984z M44.079,19.543l0.489-0.145l1.038,0.229l0.14,0.007l0.932,0.053l-1.352,0.407l-0.509,0.019  l-0.041-0.051l-0.067,0.055l-1.879,0.07l0.314-0.152c0.014-0.007,0.026-0.017,0.036-0.029l0.003-0.004L44.079,19.543z M45.51,17.886  l-0.353,0.387l-0.543,0.353l0.625-0.532l0.001-0.001v0l0.343-0.427l1.183-1.014l0.92-0.539l0.268-0.136l-0.661,0.874l-0.269,0.387  l-0.458,0.273l-1.014,0.347C45.536,17.864,45.521,17.874,45.51,17.886z M48.502,15.16l-0.145,0.133l-0.047,0.063l-0.087-0.172  l-0.464,0.23l-0.528,0.063l-0.434,0.104l0.808-0.529l0.084-0.021L48.502,15.16z M46.74,15.379l0.295-0.454l0.32,0.051L46.74,15.379z   M46.426,16.278l0.049-0.412l0.286-0.065l0.507-0.128l0.533-0.063c0.012-0.001,0.022-0.004,0.033-0.01l0.467-0.232l-0.249,0.334  l-0.462,0.235l-0.94,0.551l-0.4,0.343c0.006-0.008,0.011-0.016,0.014-0.025L46.426,16.278z M49.417,16.148l-0.462,0.181  l-0.529,0.084c-0.013,0.002-0.024,0.006-0.035,0.013l-0.952,0.566l0.016-0.022l1.288-1.702l0.055-0.061l1.037,0.166l0.303,0.077  l0.02-0.079l0.17-0.036L49.417,16.148z M45.509,15.649l0.87-0.579l0.416-0.143l-0.472,0.725l-0.099,0.065l-0.041,0.01l-1.001,0.32  L45.509,15.649z M43.2,16.954l1.162-0.523l-0.15,0.115l-1.203,0.567L43.2,16.954z M41.512,18.223l0.873-0.594l0.047-0.039  l0.411-0.178l1.473-0.696l0.413-0.313l0.005-0.001l1.516-0.466c0.006-0.002,0.012-0.005,0.018-0.008l-0.036,0.31l-0.153,0.494  l-0.664,0.818l-0.326,0.415l-0.823,0.699l0.27-0.42l-0.168-0.107l-0.281,0.44l-0.678,0.801l-0.448,0.333l-0.382,0.109  c-0.009,0.002-0.017,0.006-0.023,0.01l-0.412,0.245l0.675-0.527c0.011-0.008,0.02-0.019,0.026-0.031l0.254-0.473l-0.176-0.095  l-0.244,0.454l-0.828,0.647c-0.007,0.005-0.013,0.011-0.018,0.018l-0.027,0.036l-0.722,0.031l-0.346-0.064l-0.001-0.28  L41.512,18.223z M40.063,20.323l0.043-0.007l0.031,0.233l-0.038,0.078l-0.001,0l-0.003,0.007l-0.011,0.023l-0.177-0.205  L40.063,20.323z M39.624,20.426l-0.094,0.077l-0.127-0.263l-0.101-0.187L39.624,20.426z M39.082,18.31l-0.078,0.49l-0.163,0.396  l-0.3-0.557l0.074-0.152l0.128-0.168l0.273-0.357L39.082,18.31z M42.701,15.341l-0.447,0.23l-2.02,0.777L39.998,16.5l0.215-0.694  l0.214-0.036c0.011-0.002,0.021-0.005,0.031-0.011l0.458-0.249l1.038-0.225l0.985-0.256L42.701,15.341z M43.002,14.948l-0.021,0.027  l-0.04-0.152l-1.034,0.269l-1.048,0.227c-0.009,0.002-0.018,0.005-0.026,0.01l-0.456,0.248l-0.03,0.005l0.226-0.314l0.184-0.163  l0.657-0.827L41.828,14l1.234-0.204l0.007,0.17l0.064,0.432l0.011,0.076L43.002,14.948z M43.264,12.878l-0.034,0.087l-0.003-0.075  l0.021-0.18l0.136-0.006L43.264,12.878z M42.619,12.91l0.424-0.167l-0.016,0.14l0.027,0.71l-1.231,0.204L42.619,12.91z   M37.921,15.433l0.229,0.451l0.003,0.007l-0.175,1.012l-0.165,0.223l-0.05-0.896L37.921,15.433z M37.068,16.715l0.398,0.328  l0.15,0.28l0.004,0.062l-0.086,0.117l-0.101-0.221l-0.368-0.538l-0.005-0.032L37.068,16.715z M36.637,14.83l-0.334-0.9l0.702,1.425  l-0.018,0.495l-0.172,0.485l-0.006-0.003l-0.233-0.593l0.067-0.864C36.645,14.859,36.643,14.844,36.637,14.83z M36.557,16.829  c0.008,0.009,0.016,0.017,0.025,0.023l0.117,0.076l0.331,0.95L36.434,18l-0.001,0l-0.177-0.154l-0.131,0.15l0.146,0.127  l-0.304,0.264l-0.269,0.35l-0.453-0.203l0.649-2.405l0.343,0.281L36.557,16.829z M34.726,14.995l-0.047-0.035l0.017,0.005  L34.726,14.995z M33.701,14.811l0.451,0.003l-0.043,0.088l0.465,0.228l0.447,0.33l0.34,0.156l0.368,0.36l-0.456,1.688l0.024-0.373  c0.001-0.015-0.003-0.03-0.008-0.043l0.001,0l-0.203-0.497c-0.005-0.012-0.012-0.023-0.021-0.032l-0.035-0.036l0.064-0.041  l-0.107-0.169l-0.101,0.063l-0.102-0.103l-0.744-0.956c-0.007-0.009-0.016-0.016-0.024-0.022l-0.95-0.617L33.701,14.811z   M31.771,13.724l-0.24-0.255l-0.116-0.1l0.223-0.125L31.771,13.724z M31.253,13.229l-0.478-0.413l0.388-0.113l-0.035-0.119  l0.29-0.131l0.165,0.591L31.253,13.229z M29.814,12.25l0.297,0.257l-0.248,0.361l-0.372-0.145L29.42,12.91l0.327,0.127l-0.119,0.172  l-0.701,0.292l0.098-0.145L29.814,12.25z M27.365,14.906l-0.01,0.005l0.019-0.015L27.365,14.906z M24.988,15.521l1.045-0.099v0  l0.007,0l1.001-0.165l-0.558,0.882l-0.224,0.463l-0.225-1.161l-0.196,0.038l0.306,1.581l0.007,0.032l-0.006,0.01l-0.107-0.139  c-0.006-0.009-0.015-0.016-0.023-0.022l-0.445-0.298l-0.014,0.021l-0.643-1.099L24.988,15.521z M24.601,15.428l0.039,0.066  l-0.083,0.048L24.601,15.428z M24.293,15.928l0.053,0.354l-0.087,0.532l0.001,0.077l-0.019-0.083l-0.171-0.514l-0.075-0.192  L24.293,15.928z M23.249,14.37l0.211,0.467l-0.02,0.513c0,0.017,0.003,0.034,0.011,0.049l0.237,0.47l0.058,0.148l-0.69,0.404  c-0.01,0.006-0.02,0.014-0.027,0.023l-0.343,0.417l-0.12,0.157l0.096-1.31c0.001-0.01,0-0.02-0.002-0.029l-0.039-0.169l0.083-0.297  l0.098-0.276l0.101-0.259c0.003-0.009,0.005-0.018,0.006-0.027l0.017-0.197l0.25-0.219L23.249,14.37z M23.079,14.054l-0.128,0.112  l0.026-0.302L23.079,14.054z M20.969,9.584l0.191-0.348l0.16,0.03l0.474,0.214l1.169,1.048l0.192,0.453l-0.014,1.048v0.001l0,0  v0.002l0,0l-0.035,0.507l-0.247,0.452c-0.006,0.012-0.011,0.025-0.012,0.039l-0.013,0.147l-0.168-0.313  c-0.005-0.009-0.012-0.018-0.019-0.025l-0.387-0.37l-0.139,0.145l0.376,0.359l0.305,0.568l-0.022,0.257l-0.035-0.204  c-0.002-0.013-0.007-0.024-0.014-0.036h0l-0.001-0.002l0,0l-0.001-0.001l-0.292-0.473l-0.123-0.125l-0.215-0.259l-0.339-0.997  c-0.003-0.009-0.007-0.017-0.012-0.024l-0.604-0.885l-0.039,0.026l-0.196-0.741L20.969,9.584z M20.072,11.867l0.338,0.405  c0.011,0.013,0.025,0.023,0.042,0.03l0.494,0.185l0.025,0.111l-0.039,0.314l-0.001,0.536c0,0.011,0.002,0.022,0.005,0.033  l0.031,0.09l0,0.016l-0.314-0.659l-0.521-0.667L20.072,11.867z M20.191,12.66l0.292,0.373l0.453,0.956l0.043,0.251l0.005,0.291  l-0.065-0.052c-0.009-0.007-0.02-0.013-0.03-0.017l-0.509-0.169c-0.015-0.005-0.03-0.006-0.045-0.004v0l-0.098,0.014l-0.021-0.082  l0.021-0.292l0.062-0.532c0.001-0.009,0.001-0.018,0-0.026L20.191,12.66z M19.352,19.551l-0.039-0.501l0.319-0.983l0.67-0.804  l0.41-0.431l0.275-0.032l0.478,0.15l0.108,0.071l0.041,1.108l-0.228,0.443l-0.293,0.439l-0.34,0.385l-0.451,0.256  c-0.015,0.008-0.027,0.021-0.036,0.035l-0.574,0.947l0.005-0.035c0.002-0.016,0.001-0.032-0.004-0.047L19.352,19.551z   M19.259,25.335l-0.084-1.033l0.163-0.511l0.277-2.643l0.809-1.333l0.443-0.252c0.01-0.005,0.019-0.013,0.026-0.021l0.363-0.413  l0.295-0.442l0.728-0.96l-0.05,1.176h0c0,0.013,0.001,0.025,0.005,0.037l0.522,1.513l0.424,1.552  c0.002,0.008,0.006,0.017,0.01,0.024l0.259,0.443l-0.046,0.503l-0.153,1.073c-0.002,0.014-0.001,0.027,0.002,0.041l0.137,0.501  l-0.096,0.503l-0.47,1.81l0,0.001l0,0l0,0.003l0,0.001c0,0,0,0,0,0l-0.001,0.003h0c-0.003,0.012-0.005,0.024-0.003,0.037  l0.073,0.622c0.001,0.013,0.005,0.026,0.012,0.037l0.408,0.725l-0.146-0.076c-0.015-0.007-0.03-0.011-0.046-0.011  c0,0-0.001,0-0.002,0l-0.552,0.014l-0.18,0.034l-0.038-0.024l-0.46-1.168l-0.187,0.073l0.362,0.913l-0.04-0.025  c-0.013-0.008-0.028-0.014-0.043-0.015l-0.109-0.011l-0.74-0.423c-0.004-0.002-0.009-0.004-0.014-0.006l0,0l-0.51-0.199  l-0.495-0.149l-0.058-0.031L19.259,25.335z M19.9,27.375c0.005,0.013,0.014,0.024,0.023,0.034l0.085,0.081l-0.511,0.001  l-0.294-0.036l-0.453-0.694l1.148,0.609L19.9,27.375z M18.215,26.233l-1.528-0.551l-0.062-0.011l-0.948-1.487  c-0.008-0.013-0.02-0.024-0.033-0.032l-0.065-0.039l-0.381-0.229l-0.397-0.329l-0.333-0.415l-0.947-1.281l-0.243-0.46l-0.051-0.297  l0.644,0.356l0.146,0.134c0.007,0.006,0.015,0.012,0.023,0.016L15,22.083l0.001-0.001l0.013,0.007l0.494,0.156l0.453,0.238  l0.385,0.352l1.693,2.707l0.244,0.73L18.215,26.233z M14.115,20.557c0.008,0.013,0.018,0.024,0.031,0.033l0.879,0.588l0.891,1.058  l-0.33-0.175l-0.495-0.157l-0.001-0.001l0,0l-0.005-0.002l-1.096-0.606l-0.613-0.561l-0.326-0.688L13,19.408l0.084-0.104  l0.085,0.043l0.417,0.301L14.115,20.557z M9.807,17.278l0.17,0.045l-0.347-0.078l-0.005-0.002L9.807,17.278z M8.721,16.936  L8.46,16.792L7.73,16.276l0.457,0.151L8.721,16.936z M7.525,16.208l-0.034,0.047l-0.26-0.144L7.525,16.208z M11.477,19.7  l-0.03-0.512l0.164-0.401l0.483,1.176l0.013,0.052l-0.025,0.039l-0.036,0.094l-0.473-0.131L11.477,19.7z M11.436,20.249  c0.004,0.015,0.013,0.029,0.024,0.041l0.375,0.387l-0.165,0.359c-0.004,0.009-0.007,0.018-0.008,0.028l-0.014,0.101L11.6,21.136  l-0.263-0.984l0.076,0.021L11.436,20.249z M10.844,19.68l0.096,0.153l-0.121-0.037l-0.329-0.328l0.092-0.156L10.844,19.68z   M9.866,19.678l0.09,0.157l0.03,0.093l-0.012,0.021l-0.022-0.054l-0.417-0.642L9.866,19.678z M9.922,20.426l0.075,0.101l0.064,0.156  L9.93,20.507c-0.007-0.009-0.016-0.017-0.025-0.023l-0.012-0.008L9.922,20.426z M9.347,20.357l0.276,0.181l-0.012,0.02l-0.081,0.107  l-0.199-0.029l-0.463-0.138l-0.015-0.032L8.826,19.95c-0.001-0.013-0.004-0.026-0.01-0.038l-0.04-0.084L9.347,20.357z M8.623,20.584  l-0.024-0.029l0.121,0.096l0.001,0.002L8.623,20.584z M10.295,24.441l-0.185-0.496l-0.007-0.011l0.244,0.17l0.38,0.335l-0.397,0.017  h-0.02L10.295,24.441z M7.907,24.823l0.143-0.031l0.026,0.048L7.907,24.823z M8.433,25.074l0.094,0.009l-0.09-0.001L8.433,25.074z   M2.449,23.967l1.505,0.87l0.555,0.363l-0.3,0.026l-0.387-0.294c-0.01-0.008-0.022-0.014-0.034-0.017l-0.505-0.136l-0.495-0.207  L2.726,24.72L2.449,23.967z M2.744,24.769l0.474,0.198l0.499,0.135l0.195,0.148l-0.608,0.052l-0.227-0.097l-0.313-0.383  L2.744,24.769z M4.157,25.43l0.438,0.153c0.01,0.004,0.021,0.006,0.033,0.006s0.022-0.002,0.033-0.006l0.363-0.126L5.05,25.46  l0.094,0.017c0.006,0.001,0.011-0.002,0.017-0.002l0.099,0.013l0.104,0.149l0.017,0.019l-0.251-0.001h0  c-0.015,0-0.029,0.003-0.043,0.01l-0.125,0.059l-0.318,0.15l-0.948-0.405L4.157,25.43z M5.162,27.695l-0.387-0.142l-0.377-0.334  l-0.941-1.087l1.192-0.047c0.014,0,0.027-0.004,0.039-0.01l0.464-0.22l0.375,0.001l0.302,0.485l-0.098-0.008l-0.529,0.011  L4.136,26.29l-0.009,0.185l-0.084-0.02l-0.047,0.194l0.507,0.119l1.053-0.015l0.502,0.093c0.006,0.001,0.012,0.002,0.018,0.002  c0.002,0,0.005,0,0.007,0l0.105-0.008l0.042,0.055c0.008,0.011,0.018,0.02,0.03,0.027l0.644,0.367L5.162,27.695z M8.081,27.903  l-1.064-0.052l-1.094-0.128l1.236-0.288l0.032,0.018c0.015,0.008,0.031,0.013,0.048,0.013l0.534,0.01l0,0c0,0,0.001,0,0.002,0  c0.013,0,0.025-0.002,0.037-0.007l1.226-0.484l0.043,0.069L9.6,27.991c0.007,0.012,0.016,0.023,0.027,0.031l0.216,0.165  l-0.249,0.009L8.081,27.903z M11.175,28.446L11.175,28.446l-1.017-0.27l-0.394-0.301l-0.513-0.924L9.225,26.91l0.522-0.206  l0.202,0.177c0.006,0.006,0.014,0.011,0.021,0.014l0.475,0.236l0.465,0.267l0,0c0.011,0.007,0.024,0.011,0.037,0.013l1.041,0.129  c0.011,0.002,0.023,0.001,0.033-0.001l0.189-0.041l0.393,0.712l0.162,0.511c0.004,0.014,0.012,0.027,0.022,0.038l0.12,0.129  l-0.172-0.059L11.175,28.446z M16.647,28.381L15.6,28.329c-0.019-0.003-0.031,0.002-0.044,0.008l-1.931,0.823l-0.339-0.161  l-0.336-0.362l-0.163-0.507l-0.373-0.678l0.427-0.093l0.029,0.083l0.006,0.018l0,0l0,0.001h0c0.004,0.015,0.013,0.027,0.024,0.039  l0.383,0.374c0.01,0.01,0.023,0.018,0.037,0.022l0.876,0.309c0.011,0.004,0.022,0.006,0.033,0.006c0.007,0,0.015-0.001,0.022-0.002  l0.429-0.097l0.028,0.013c0.011,0.005,0.023,0.008,0.035,0.008l0.521,0.033l0.006,0c0.003,0,0.005,0,0.008,0  c0.009,0,0.018-0.001,0.026-0.003l0.176-0.048l0.491,0.177l0.063,0.023c0.01,0.003,0.021,0.005,0.032,0.006l0.556,0.012l0.365-0.067  L16.647,28.381z M19.749,28.483L19.749,28.483l1.474,0.243l0.062,0.001l0.584,0.5l0.373,0.396l-0.091-0.03l-0.53-0.078  c-0.015-0.001-0.03-0.001-0.043,0.003l-0.11,0.033l-0.42-0.243l-0.007-0.006l-0.001,0.001l-0.725-0.419L19.749,28.483z   M20.721,30.328l0.785-0.125l0.086,0.08c0.01,0.009,0.021,0.017,0.035,0.021l0.801,0.283l-1.468-0.101L20.721,30.328z   M24.204,31.182l-0.271-0.227l0.693,0.142l0.735,0.678l-0.791-0.225L24.204,31.182z M25.988,31.973l0.014-0.001l0.361-0.071  l0.019,0.097l0.022,0.535c0,0.01,0.002,0.02,0.006,0.03l0.158,0.438l-0.773-1.017L25.988,31.973L25.988,31.973z M27.995,35.029  l1.168,1.431l0.616,1.735l-0.962-1.647L27.995,35.029z M32.228,46.181l-0.924-4.297l-0.978-2.749l-0.171-3.015l-0.045-0.945  l0.067-0.94l0.328-0.868l1.179-1.776l0.82-0.078l0.142,0.21l0,0c0.009,0.013,0.021,0.025,0.035,0.033l0.936,0.513l0.445,0.273  l0.805,0.669l0.594,1.467l0,0l0.43,1.163l-0.174,0.598l-0.149,0.72c-0.002,0.009-0.003,0.018-0.002,0.026l0.081,1.444l-0.166,0.974  l0,0v0.001l-0.153,0.939l-0.17,0.932l-1.574,6.483l-0.844,3.328l-0.283-3.654L32.228,46.181z M35.287,48.349l-2.385,3.106  l0.875-3.45l1.576-6.49l0.171-0.939l0.148-0.908l0.691-0.674l1.584-0.959l0,0l2.229-1.117l0.911-0.564  c0.011-0.007,0.02-0.015,0.027-0.024l0.323-0.428c0.005-0.007,0.01-0.015,0.013-0.023l0.079-0.196l0.257-0.113l0.518,0.018  c0.002,0,0.003,0,0.004,0c0.008,0,0.016,0,0.022-0.002l0.507-0.12l0.414-0.195l0.072-0.005l0.463,0.214  c0.029,0.012,0.062,0.011,0.089-0.005l0.001,0.002l0.697-0.376l0.529-0.11l0.125-0.053l0.326-0.001l0.507,0.088  c0.013,0.002,0.03,0.002,0.046-0.003h0.001l0,0l0.046-0.015l0.729-0.219l-0.137,0.27l-0.007,0.013l0,0l-0.001,0.003l0.089,0.045  l0.086,0.051l0.002-0.003l0,0l0.003-0.006l0.321-0.547l0.731-0.467l0.129-0.137l0.486,0.052v-0.001l0.021,0.002l0.49-0.046  l-1.187,1.16l-0.64,0.328c-0.008,0.004-0.016,0.01-0.022,0.017l-2.689,2.539l2.57-2.649l-0.145-0.139l-5.722,5.899l-0.73,0.729  l-0.696,0.773l-0.592,0.855l-1.162,2.259L35.287,48.349z M42.37,43.313c-0.013,0-0.023,0.001-0.035,0.004L40.85,43.77l-0.699,0.36  l-1.48,1.184l1.051-1.46c0.007-0.01,0.012-0.021,0.016-0.032l0.137-0.491l0.745-0.764l0.563-0.887l0.429-0.293l0.003-0.002  l0.434-0.258l0.643-0.218l0.866-0.175l0.733-0.155l1.928-0.095l0.515-0.006l1.194,0.496l-0.062,0.108h0.001  c-0.005,0.009-0.01,0.018-0.012,0.026l-0.083,0.357l-0.049,0.036c-0.009,0.006-0.017,0.014-0.022,0.023L46.9,42.678l-0.385,0.226  l-1.191,0.27l-0.678,0.267L42.37,43.313z M56.969,42.86l-0.735,0.342l-0.104-0.017l0.167-0.173L56.969,42.86z M55.435,43.354  l0.146-0.051l0.131,0.021l-0.391,0.29l-0.475,0.061l-0.772-0.214l1.336-0.102C55.418,43.358,55.427,43.357,55.435,43.354z   M53.721,43.112l0.519-0.024l0.018,0.002l0.661,0.106l-1.097,0.084l-0.401-0.104L53.721,43.112z M52.775,43.569l-0.661-0.117  l0.794-0.168l0.485,0.178L52.775,43.569z M56.339,43.569l-0.58,0.073l0.496-0.23l0.414,0.066L56.339,43.569z"></path></svg>