<svg fill="#00DCFF" xmlns="http://www.w3.org/2000/svg" xmlns:xlink="http://www.w3.org/1999/xlink" version="1.1" x="0px" y="0px" viewBox="0 0 100 100" enable-background="new 0 0 100 100" xml:space="preserve"><path d="M36.147,23.185l-2.893,2.942h1.701l1.605-1.651c0-0.002,0.003-0.004,0.003-0.006c0.002-0.042,0.012-0.08,0.023-0.118  c0.009-0.038,0.019-0.073,0.035-0.106c0.017-0.034,0.04-0.062,0.063-0.093s0.047-0.062,0.074-0.088  c0.028-0.023,0.059-0.041,0.09-0.06c0.037-0.022,0.072-0.043,0.112-0.057c0.014-0.005,0.023-0.014,0.035-0.018l0.131-0.035  l0.408-0.412h-0.884c-0.117,0-0.221-0.043-0.312-0.102c-0.021-0.013-0.038-0.021-0.057-0.037  C36.229,23.3,36.185,23.246,36.147,23.185z"></path><polygon points="37.467,21.844 37.251,22.061 37.926,21.844 "></polygon><path d="M33.112,21.271l-3.989,4.065h0.286c0.004,0,0.007,0.002,0.009,0.002c0.042,0,0.082,0.016,0.124,0.025  c0.038,0.008,0.078,0.012,0.11,0.026c0.005,0.001,0.007,0.001,0.01,0.003c0.025,0.012,0.044,0.033,0.065,0.048  c0.04,0.025,0.082,0.049,0.115,0.084c0.027,0.028,0.044,0.063,0.065,0.098c0.021,0.031,0.042,0.06,0.056,0.095  c0.02,0.045,0.023,0.093,0.028,0.141c0.005,0.027,0.017,0.051,0.017,0.078c0,0.004-0.002,0.006-0.002,0.01  c0,0.04-0.015,0.078-0.023,0.117c-0.008,0.04-0.012,0.081-0.028,0.117c0,0.004,0,0.006-0.003,0.01l-0.032,0.071  c0.014-0.012,0.032-0.019,0.047-0.029c0.035-0.022,0.065-0.047,0.105-0.062c0.037-0.014,0.077-0.017,0.119-0.023  c0.033-0.006,0.063-0.02,0.097-0.02h1.284l4.748-4.831h-0.806h-2.278C33.191,21.296,33.154,21.28,33.112,21.271z"></path><path d="M49.661,26.127v-0.19v-4.693v-0.167v-0.197v-1.078v-0.144h-2.65h-2.295h-2.295l-0.764,1.331l-0.303,0.546  c0,0.002-0.002,0.002-0.002,0.005c-0.002,0.002-0.002,0.006-0.005,0.008l-0.213,0.364c0,0.002,0,0.002-0.003,0.003l-0.7,1.225  c-0.007,0.023-0.017,0.046-0.026,0.067c-0.004,0.011-0.004,0.022-0.012,0.033l-1.633,2.888h2.798H49.661z"></path><polygon points="37.797,24.927 37.797,24.927 37.797,24.928 37.79,24.934 36.63,26.127 37.382,26.127 38.413,24.305 37.872,24.85   "></polygon><path d="M27.667,27.212c0.012-0.023,0.033-0.039,0.05-0.06c0.025-0.034,0.049-0.068,0.082-0.097  c0.028-0.025,0.061-0.043,0.091-0.062c0.035-0.021,0.068-0.04,0.105-0.053c0.038-0.015,0.078-0.018,0.117-0.023  c0.028-0.005,0.052-0.017,0.08-0.017h0.105l0.171-0.363h-0.767c-0.002,0-0.002,0.001-0.004,0.001c-0.003,0-0.005-0.001-0.008-0.001  h-1.132l-4.095,7.456h1.486L27.667,27.212z"></path><polygon points="23.272,44.183 24.593,35.361 24.593,35.357 24.616,35.193 24.304,35.193 21.956,35.193 20.401,44.183   21.602,44.183 "></polygon><polygon points="27.44,25.337 34.085,18.563 33.464,18.563 25.788,25.337 26.202,25.337 "></polygon><polygon points="22.472,54.8 21.084,45.383 19.689,45.383 19.141,45.383 20.756,54.8 "></polygon><polygon points="26.744,64.596 22.849,56.41 20.064,56.41 24.555,64.596 "></polygon><polygon points="41.108,19.535 39.358,20.097 40.785,20.097 "></polygon><polygon points="44.679,18.393 44.477,18.457 44.562,18.457 "></polygon><polygon points="59.843,64.596 62.821,64.596 63.897,60.712 63.897,60.71 65.073,56.41 63.004,56.41 50.861,56.41 50.861,62.842   50.861,64.596 57.611,64.596 "></polygon><path d="M64.068,55.149h-0.003h-0.267l-0.017,0.061h0.35c-0.008-0.014-0.012-0.029-0.017-0.044c-0.003-0.009-0.01-0.015-0.012-0.023  C64.089,55.144,64.08,55.149,64.068,55.149z"></path><path d="M28.549,28.101l-3.232,5.896c0.012,0,0.023,0.006,0.035,0.006c0.015,0.001,0.026-0.005,0.042-0.003  c0.026,0.004,0.047,0.02,0.073,0.026c0.04,0.012,0.075,0.022,0.11,0.04s0.065,0.039,0.096,0.064c0.03,0.023,0.059,0.047,0.082,0.074  c0.025,0.029,0.047,0.062,0.065,0.096c0.019,0.032,0.035,0.064,0.05,0.102c0.012,0.037,0.019,0.077,0.023,0.118  c0,0.007,0.002,0.015,0.004,0.021l3.075-6.44H28.68H28.549z"></path><path d="M37.729,27.33c-0.005,0-0.012-0.003-0.017-0.003H35.21h-3.387H30.67l-0.192,0.406c0,0,0,0,0,0.001l-0.01,0.021  c-0.002,0.001-0.002,0.002-0.002,0.003l-3.174,6.645h0.293h0.01c0.002,0,0.005,0,0.007,0h7.686c0.007-0.021,0.009-0.041,0.019-0.061  c0.019-0.04,0.045-0.07,0.07-0.105c0.021-0.027,0.037-0.057,0.063-0.078c0.03-0.029,0.067-0.049,0.103-0.07  c0.031-0.018,0.059-0.039,0.092-0.052c0.037-0.016,0.08-0.018,0.122-0.024c0.03-0.005,0.059-0.02,0.091-0.02h0.272l1.396-5.072  c0-0.002,0.003-0.002,0.003-0.003l0.431-1.591h-0.204C37.741,27.327,37.736,27.33,37.729,27.33z"></path><path d="M30.391,59.047c0,0.001,0,0.003,0,0.003l1.151,2.418h2.315h3.862L36.225,56H35.24l0,0c-0.003,0-0.005-0.001-0.007-0.001  c-0.003,0.007-0.008,0.012-0.012,0.019c-0.012,0.038-0.035,0.069-0.057,0.103c-0.019,0.032-0.035,0.064-0.061,0.092  c-0.026,0.028-0.059,0.05-0.09,0.073c-0.03,0.022-0.059,0.046-0.094,0.063c-0.035,0.016-0.074,0.023-0.114,0.032  c-0.03,0.009-0.057,0.024-0.089,0.027c-0.02,0.001-0.035,0.002-0.055,0.002h-5.521L30.391,59.047z"></path><polygon points="63.508,53.949 64.249,45.383 50.861,45.383 50.861,53.949 63.337,53.949 "></polygon><polygon points="49.661,54.55 49.661,45.383 34.984,45.383 35.671,53.221 35.746,54.055 35.746,54.061 35.749,54.066 35.8,54.8   36.682,54.8 49.661,54.8 "></polygon><path d="M27.389,36.043h-0.591l-1.205,8.14h2.084l1.197-7.993c0.005-0.024,0.02-0.044,0.026-0.067  c0.007-0.026,0.005-0.055,0.017-0.079H27.389z"></path><polygon points="52.994,66.024 56.456,66.024 56.585,65.796 50.861,65.796 50.861,66.024 51.841,66.024 "></polygon><polygon points="64.19,36.879 64.83,44.183 64.884,44.183 64.246,36.879 "></polygon><polygon points="66.089,45.383 65.348,54.159 65.348,54.16 65.348,54.163 65.331,54.359 72.724,54.359 73.345,54.359 73.968,54.359   73.987,54.359 73.994,54.359 74.692,54.359 74.741,54.023 74.741,54.02 76.035,45.383 66.815,45.383 "></polygon><polygon points="23.788,45.383 22.298,45.383 23.744,55.21 27.646,55.21 28.192,55.21 34.007,55.21 33.913,54.169 33.824,53.34   33.824,53.332 33.822,53.325 33.154,45.383 28.192,45.383 24.897,45.383 "></polygon><polygon points="40.305,69.07 39.55,67.758 39.55,67.757 39.421,67.543 39.417,67.532 39.409,67.525 38.744,66.342 37.666,64.446   37.661,64.432 37.656,64.429 37.516,64.161 36.869,63.048 34.237,63.048 31.776,63.048 29.123,63.048 35.768,69.821 40.722,69.821   40.305,69.072 "></polygon><polygon points="36.576,35.193 36.4,35.193 36.37,35.496 36.37,35.498 36.292,36.334 36.292,36.336 35.634,44.183 49.661,44.183   49.661,35.443 49.661,35.193 37.291,35.193 "></polygon><polygon points="65.521,36.879 65.451,36.879 66.089,44.183 66.161,44.183 "></polygon><path d="M27.796,59.754c-0.004-0.005-0.007-0.011-0.012-0.016c-0.032-0.029-0.054-0.066-0.077-0.102  c-0.021-0.029-0.044-0.057-0.059-0.087c-0.014-0.03-0.017-0.064-0.025-0.098c-0.012-0.043-0.026-0.085-0.026-0.131  c0-0.006-0.004-0.012-0.004-0.018c0-0.029,0.014-0.055,0.016-0.083c0.008-0.044,0.012-0.087,0.026-0.128  c0.017-0.041,0.04-0.074,0.063-0.11c0.016-0.024,0.025-0.053,0.044-0.076c0.005-0.005,0.012-0.007,0.017-0.012  c0.03-0.032,0.068-0.055,0.105-0.081c0.028-0.018,0.052-0.041,0.082-0.054c0.033-0.015,0.07-0.019,0.105-0.028  c0.042-0.009,0.08-0.023,0.122-0.024c0.007,0,0.012-0.003,0.019-0.003h0.356l-1.257-2.294h-3.117l2.949,6.191  c-0.01-0.034-0.017-0.068-0.02-0.104c-0.002-0.018-0.012-0.032-0.012-0.05c0-0.002,0-0.002,0-0.003  c0.003-0.078,0.017-0.157,0.047-0.23c0.031-0.073,0.075-0.138,0.132-0.192c0-0.001,0-0.002,0.002-0.004  c0.019-0.02,0.045-0.027,0.068-0.044c0.04-0.029,0.079-0.062,0.126-0.081s0.097-0.022,0.146-0.029  c0.028-0.004,0.052-0.017,0.08-0.017h2.475L27.796,59.754z"></path><path d="M59.111,24.809c-0.003-0.004,0-0.007-0.003-0.011c-0.002-0.001-0.002-0.002-0.004-0.004l-0.403-0.746  c0-0.001-0.003-0.001-0.003-0.002l-0.258-0.457l-0.489-0.846l-0.05-0.073c-0.004-0.009-0.004-0.018-0.009-0.026  c-0.005-0.006-0.012-0.008-0.017-0.015l-0.436-0.785h-2.273H54.74h-1.898h-1.306H51.37h-0.457h-0.052v3.493h8.555L59.111,24.809z"></path><polygon points="34.328,44.183 34.432,44.183 35.043,36.879 34.42,36.879 29.985,36.879 28.889,44.183 33.705,44.183 "></polygon><polygon points="40.291,66.646 40.343,66.734 40.715,66.858 40.931,66.858 40.812,66.646 "></polygon><path d="M62.14,25.109h-0.535H60.67l0.129,0.228h1.423l-0.01-0.031c-0.007-0.026,0-0.052-0.005-0.078L62.14,25.109z"></path><polygon points="63.886,33.993 62.575,29.239 62.575,29.235 61.844,26.537 60.452,26.537 50.861,26.537 50.861,26.727 50.861,27.5   50.861,33.993 61.802,33.993 "></polygon><polygon points="39.613,65.445 40.141,65.445 40.05,65.282 39.424,65.11 "></polygon><polygon points="38.078,62.741 38.058,62.668 38.036,62.668 "></polygon><polygon points="62.937,36.331 62.937,36.328 62.937,36.322 62.915,36.043 62.031,36.043 50.861,36.043 50.861,44.183   63.625,44.183 "></polygon><polygon points="49.661,56 37.469,56 39.084,61.91 39.084,61.912 39.183,62.241 39.339,62.241 49.661,62.241 "></polygon><polygon points="49.661,28.101 41.132,28.101 39.69,28.101 39.372,29.237 39.372,29.238 38.076,33.993 49.661,33.993 "></polygon><polygon points="66.667,36.224 66.667,36.226 67.366,44.183 76.731,44.183 77.826,44.183 78.227,44.183 76.897,35.091   76.778,34.343 76.033,34.343 66.52,34.343 "></polygon><polygon points="78.921,45.383 78.344,45.383 77.036,54.196 77.036,54.199 76.944,54.8 77.354,54.8 79.765,54.8 81.382,45.383   79.558,45.383 "></polygon><path d="M66.429,55.652c0.009,0.04,0.021,0.077,0.023,0.118c0,0.014,0.007,0.025,0.007,0.04c0,0.028-0.012,0.052-0.015,0.078  c-0.004,0.027,0,0.053-0.007,0.08l-1.174,4.3h4.274l0.596-1.228V59.04l1.643-3.48H66.4C66.414,55.589,66.419,55.62,66.429,55.652z"></path><polygon points="57.834,66.024 58.678,66.024 58.809,65.796 57.963,65.796 "></polygon><path d="M41.108,68.059l0.127,0.222l0.274,0.088c0.009-0.031,0.017-0.062,0.03-0.092c0.005-0.01,0.005-0.021,0.01-0.031  c0.014-0.025,0.037-0.04,0.054-0.063c0.014-0.02,0.025-0.043,0.042-0.061l-0.037-0.062H41.108z"></path><path d="M78.394,34.743c0.014,0.031,0.021,0.063,0.03,0.097c0.007,0.021,0.021,0.038,0.023,0.061l1.614,9.282h2.032h0.562  l-1.692-9.84h-2.781l0.201,0.375C78.389,34.726,78.389,34.735,78.394,34.743z"></path><polygon points="49.661,67.489 49.661,66.624 49.661,65.196 49.661,63.441 40.382,63.441 40.45,63.558 40.455,63.571 40.464,63.583   40.671,63.978 40.964,64.459 40.966,64.465 40.973,64.477 40.976,64.478 41.688,65.753 42.471,67.155 42.752,67.634 43.82,67.634   49.661,67.634 "></polygon><polygon points="73.778,64.596 75.968,64.596 80.458,56.41 77.674,56.41 "></polygon><path d="M49.584,82.38h0.996h0.993v-9.091l-1.129,0.362c-0.062,0.019-0.122,0.027-0.184,0.027c-0.096,0-0.183-0.026-0.262-0.067  c-0.01-0.004-0.017-0.001-0.026-0.006l-0.389-0.212V82.38z"></path><path d="M65.351,34.769h-0.099c-0.005,0-0.01-0.003-0.015-0.003c-0.009,0.03-0.016,0.062-0.03,0.091  c-0.019,0.035-0.042,0.065-0.065,0.098c-0.023,0.029-0.045,0.058-0.072,0.082c-0.028,0.026-0.062,0.045-0.094,0.064  c-0.035,0.021-0.068,0.04-0.105,0.053c-0.015,0.005-0.023,0.016-0.038,0.02c-0.054,0.014-0.105,0.021-0.159,0.021h-0.656  c0.017,0.04,0.023,0.085,0.033,0.128c0.004,0.027,0.021,0.051,0.023,0.078l0.019,0.279h0.703h0.626L65.351,34.769z"></path><polygon points="49.661,71.803 49.661,70.526 49.661,69.137 44.39,69.137 45.101,69.53 45.103,69.533 49.474,71.947 49.483,71.955   49.497,71.96 49.661,72.061 "></polygon><path d="M71.65,60.698c0.005,0.017,0.007,0.031,0.009,0.047l0.059-0.052h-0.062L71.65,60.698z"></path><polygon points="49.661,18.28 49.343,18.457 49.661,18.457 "></polygon><path d="M50.861,69.704l6.998-2.244l0.134-0.235h-1.188h-3.72l-2.224,0.704v0.305c0,0.054-0.017,0.102-0.03,0.152  c0.014,0.049,0.03,0.098,0.03,0.151V69.704z"></path><polygon points="61.778,22.039 62.463,23.239 62.465,23.245 62.468,23.249 62.475,23.262 62.709,23.689 62.84,23.923 62.84,23.924   62.843,23.925 62.843,23.926 63.007,24.21 63.007,24.211 63.372,24.849 63.377,24.857 63.382,24.863 63.635,25.337 71.399,25.337   64.755,18.563 59.798,18.563 61.776,22.037 "></polygon><path d="M64.448,28.922L64.448,28.922L65.61,33.2c0.033-0.016,0.07-0.02,0.105-0.028c0.028-0.007,0.052-0.022,0.082-0.025  c0.01-0.001,0.021,0.003,0.03,0.002c0.012,0,0.021-0.006,0.03-0.006h9.228l-2.54-5.369c0-0.001,0-0.001-0.003-0.003l-0.009-0.02  c0-0.001,0-0.001,0-0.001l-0.57-1.213h-8.17L64.448,28.922z"></path><path d="M63.854,65.356c-0.002,0.008-0.012,0.013-0.014,0.021c-0.037,0.109-0.101,0.202-0.188,0.275  c-0.019,0.014-0.035,0.023-0.054,0.035c-0.094,0.062-0.202,0.107-0.323,0.107h-3.087l-0.643,1.123c0,0.001,0,0.001,0,0.002  l-0.405,0.713h2.28h1.732h0.466l0.113-0.113l0,0c0-0.001,0-0.001,0-0.001l0.484-0.483c0-0.002,0-0.002,0.003-0.003l0.3-0.298  l0.002-0.003l5.138-5.265h-4.728L63.854,65.356z"></path></svg>