<svg fill="#00DCFF" xmlns="http://www.w3.org/2000/svg" xmlns:xlink="http://www.w3.org/1999/xlink" viewBox="0 0 16 16" version="1.1" x="0px" y="0px"><title>plant_035-trees-forest-nature-garden-park</title><desc>Created with Sketch.</desc><g stroke="none" stroke-width="1" fill="none" fill-rule="evenodd"><g transform="translate(0.000000, 2.000000)" fill="#00DCFF"><path d="M8,7.71503802 L8,13.5006155 C8,13.7838736 7.77614237,14 7.5,14 C7.23193359,14 7,13.776418 7,13.5006155 L7,12.7071068 L3.14644661,8.85355339 L3.85355339,8.14644661 L7,11.2928932 L7,4 L8,4 L8,6.33741488 L10.3921164,4.07077186 L11.0799294,4.79665978 L8,7.71503802 Z"></path><path d="M5.5,2.5 C5.5,2.77614237 5.27614237,3 5,3 C4.4556644,3 4,3.44771525 4,4 C4,4.55613518 4.44565467,5 4.99539757,5 L13.0046024,5 C13.5443356,5 14,4.55228475 14,4 C14,3.44386482 13.5543453,3 13.0046024,3 L12,3 C11.7238576,3 11.5,2.77614237 11.5,2.5 C11.5,2.22385763 11.7238576,2 12,2 L14.9991283,2 C15.5553691,2 16,1.55228475 16,1 C16,0.443864822 15.5518945,0 14.9991283,0 L1.00087166,0 C0.444630861,0 0,0.44771525 0,1 C0,1.55613518 0.448105505,2 1.00087166,2 L5,2 C5.27614237,2 5.5,2.22385763 5.5,2.5 Z M2.0093689,7 L3.9906311,7 C4.54809015,7 5,7.44386482 5,8 C5,8.55228475 4.55664682,9 3.9906311,9 L2.0093689,9 C1.45190985,9 1,8.55613518 1,8 C1,7.44771525 1.44335318,7 2.0093689,7 Z"></path><path d="M13,13.5006155 C13,13.7838736 12.7761424,14 12.5,14 C12.2319336,14 12,13.776418 12,13.5006155 L12,9 L13,9 L13,13.5006155 Z"></path><path d="M12,9.5 C12,9.22385763 11.7761424,9 11.5,9 L9.50342274,9 C9.22539004,9 9,8.76806641 9,8.5 C9,8.22385763 9.23290253,8 9.50342274,8 L15.4965773,8 C15.77461,8 16,8.23193359 16,8.5 C16,8.77614237 15.7670975,9 15.4965773,9 L14.5000003,9 C14.2238576,9 14,9.22385763 14,9.5 C14,9.77614237 14.2238576,10 14.5,10 C14.7771727,10 15,10.2319336 15,10.5 C15,10.7761424 14.7851562,11 14.5023012,11 L10.4976988,11 C10.2228273,11 10,10.7680664 10,10.5 C10,10.2238576 10.2148438,10 10.4976988,10 L11.5000001,10 C11.7761424,10 12,9.77614237 12,9.5 Z"></path></g></g></svg>