<svg fill="#00DCFF" xmlns="http://www.w3.org/2000/svg" xmlns:xlink="http://www.w3.org/1999/xlink" version="1.1" x="0px" y="0px" viewBox="0 0 100 100" enable-background="new 0 0 100 100" xml:space="preserve"><polygon points="52.268,83.493 52.258,82.063 51.979,82.342 51.979,82.342 51.978,82.343 51.099,83.205 51.099,83.206   50.759,83.546 50.759,84.57 50.758,84.571 50.759,84.574 50.701,88.871 50.884,88.871 51.823,88.871 52.326,88.871 52.268,83.495   "></polygon><path d="M53.782,15.765l-0.419-0.23c-0.008,0.001-0.014,0.007-0.021,0.007c-0.022,0-0.046-0.003-0.068-0.011l-0.244-0.071  c-0.013,0.006-0.019,0.021-0.033,0.026l-0.049,0.013c0,0.001,0,0.001,0,0.001l-0.047,0.016c-0.008,0.002-0.016,0.002-0.023,0.003  c-0.002,0-0.003,0.004-0.005,0.004l-0.179,0.035l0.526,0.101L53.782,15.765z"></path><polygon points="54.207,22.314 54.654,22.534 54.668,22.23 54.683,21.852 54.687,21.844 54.684,21.833 54.688,21.804 52.863,21.506   52.862,21.506 52.414,21.433 52.872,21.662 "></polygon><polygon points="58.456,36.591 56.716,35.955 57.295,36.376 60.926,37.484 58.457,36.592 "></polygon><polygon points="58.109,35.089 59.41,35.497 57.731,34.712 55.539,34.292 58.107,35.088 "></polygon><path d="M55.115,34.992c0.026-0.021,0.048-0.036,0.08-0.046c0.031-0.008,0.058-0.007,0.089-0.002  c0.02,0.002,0.037-0.011,0.056-0.003l2.729,0.997l-0.202-0.422l-2.795-0.865c-0.02,0.019-0.043,0.024-0.066,0.036  c-0.015,0.007-0.021,0.023-0.036,0.026l-0.312,0.082l0.457,0.197C55.114,34.993,55.115,34.993,55.115,34.992z"></path><polygon points="55.133,22.582 55.121,22.843 57.541,23.496 "></polygon><polygon points="50.278,84.188 50.278,84.026 50.168,84.136 "></polygon><polygon points="50.163,15.787 50.146,15.828 50.294,15.761 "></polygon><polygon points="49.975,16.432 50.724,16.215 50.563,16.165 "></polygon><path d="M49.618,16.5c-0.036-0.017-0.065-0.042-0.09-0.075l-0.424,0.26l0.568-0.165c-0.014-0.002-0.027-0.002-0.041-0.007  C49.626,16.511,49.625,16.502,49.618,16.5z"></path><polygon points="62.775,64.256 58.371,63.141 58.484,64.267 69.293,65.872 62.777,64.256 "></polygon><polygon points="74.347,66.624 79.723,67.437 59.032,62.032 58.305,62.479 58.318,62.615 "></polygon><polygon points="52.734,81.587 52.743,82.835 54.709,80.475 53.959,80.361 "></polygon><polygon points="44.36,34.913 46.941,34.49 47.297,33.926 46.655,34.078 46.653,34.079 40.288,35.544 44.359,34.913 "></polygon><path d="M50.693,76.859l0.365,0.136c0,0,0,0,0.001,0l0.816,0.303h0.001l0.635,0.236l0.059,0.012c0.007,0.002,0.01,0.01,0.017,0.011  c0.006,0.003,0.012-0.002,0.018,0l2.688,0.988c0.001,0,0.001,0.001,0.001,0.001c0.002,0,0.003,0,0.004,0l0.078,0.03  c0,0,0,0.001,0.001,0.001l7.388,2.7c0,0,0,0,0.001,0l6.794,2.47l-0.91-1.119h-0.001l-3.22-3.935l-4.219-5.14l-5.826,1.288  c-0.001,0-0.001,0-0.002,0l-0.828,0.198h-0.001c0,0-0.001,0.001-0.002,0.001l-2.066,0.47c-0.003,0-0.005,0-0.006,0.001l-0.633,0.136  h-0.001l-0.818,0.181c-0.001,0-0.002,0-0.004,0l-0.358,0.076c-0.001,0-0.001,0.001-0.001,0.001l-1.592,0.365l1.62,0.589  C50.692,76.859,50.692,76.859,50.693,76.859z"></path><polygon points="51.819,72.703 51.05,72.854 51.046,72.854 51.044,72.855 50.891,72.882 50.88,73.397 50.854,75.375 50.923,75.359   50.924,75.359 51.741,75.179 51.743,75.179 52.188,75.083 52.162,72.925 52.163,72.923 52.162,72.922 52.162,72.645 "></polygon><polygon points="50.408,72.968 39.538,74.958 38.935,76.279 50.403,73.208 "></polygon><polygon points="50.61,72.444 50.611,72.444 50.613,72.442 50.962,72.382 50.963,72.382 51.732,72.23 51.735,72.231 51.738,72.229   52.362,72.123 52.364,72.123 53.92,71.841 52.343,71.502 52.339,71.502 51.732,71.381 50.957,71.229 50.953,71.227 50.94,71.224   50.618,71.136 49.986,71.019 49.979,71.018 49.978,71.018 49.974,71.017 49.973,71.016 49.968,71.016 44.476,69.862 44.467,69.861   43.996,69.753 43.995,69.752 43.403,69.622 43.104,69.791 43.094,69.793 43.091,69.797 42.289,70.189 42.288,70.19 36.474,73.15   36.469,73.151 30.667,76.108 39.328,74.509 "></polygon><path d="M42.07,69.762c0,0,0.002,0,0.003,0v-0.001l0.148-0.073l-0.28-0.05l-0.058,0.13c0.046,0,0.091,0,0.13,0.023L42.07,69.762z"></path><polygon points="50.892,77.445 50.839,77.426 50.828,77.806 50.911,77.789 50.917,77.79 50.92,77.788 51.543,77.686 50.893,77.445   "></polygon><path d="M44.483,82.052c0.003,0.002,0.003,0.005,0.006,0.006c0.006,0.003,0.01,0.008,0.016,0.01  c0.005,0.002,0.011-0.001,0.016,0.002l4.439,2.609l0.628-0.641c0-0.001,0-0.001,0.001-0.002l0.76-0.76l0.41-0.41  c0,0,0.001,0,0.001-0.001l0.882-0.864l0.677-0.677c0.002-0.002,0.003-0.003,0.005-0.005c0.001,0,0-0.001,0.001-0.001l1.38-1.383  l1.071-1.071l-2.271-0.834l-0.01,0.002c-0.004,0.002-0.009,0.002-0.013,0.002c-0.001,0-0.001,0.001-0.002,0.001l-0.654,0.091  c-0.001,0-0.002,0-0.003,0l-0.816,0.134c-0.001,0-0.001,0-0.001,0l-0.379,0.076c-0.004,0.001-0.007,0-0.01,0.001  c-0.001,0-0.001,0-0.001,0l-9.833,1.564l3.598,2.112L44.483,82.052z"></path><polygon points="44.584,62.026 43.104,62.539 44.935,62.126 "></polygon><polygon points="51.002,62.648 51.031,62.646 51.579,62.55 51.002,62.262 "></polygon><polygon points="36.36,57.762 34.869,58.102 35.925,57.911 "></polygon><polygon points="50.568,58.89 50.58,57.151 47.488,57.652 48.635,59.275 "></polygon><polygon points="46.883,55.55 46.88,55.549 46.877,55.548 46.643,55.474 46.643,55.474 45.635,55.189 45.466,55.156 45.453,55.159   45.439,55.16 45.438,55.161 45.369,55.173 40.738,56.762 36.062,58.372 36.062,58.372 32.737,59.505 47.031,57.24 47.032,57.24   50.704,56.645 "></polygon><polygon points="50.473,66.224 49.426,66.02 48.249,66.585 50.438,69.342 "></polygon><polygon points="52.102,66.334 52.077,64.741 51.87,64.845 51.867,64.845 51.866,64.847 51.167,65.18 51.164,65.181 51.164,65.181   50.969,65.27 50.955,66.031 50.911,70.024 50.911,70.72 51.05,70.758 51.825,70.91 51.826,70.91 52.145,70.974 52.132,69.674   52.133,69.673 52.132,69.671 52.132,69.583 "></polygon><polygon points="50.484,65.503 50.142,65.671 50.48,65.736 "></polygon><path d="M49.29,65.552l1.336-0.652c0.001-0.001,0.003,0,0.004,0c0.001-0.001,0.001-0.002,0.002-0.002l0.329-0.15  c0-0.001,0-0.001,0-0.001l0.698-0.333h0.001l0.544-0.271c0,0,0.001,0,0.002,0c0,0,0-0.002,0.001-0.002l1.289-0.622l-1.214-0.601  l-0.479,0.082l-0.698,0.121c-0.006,0.002-0.011,0.002-0.016,0.002c-0.001,0-0.002,0.001-0.002,0.001l-0.291,0.028l-1.299,0.227  c-0.002,0-0.003,0-0.005,0l-5.133,0.849l-0.026,1.165v0.001l-0.038,2.573l3.474-1.684c0.001,0,0.001-0.001,0.001-0.001L49.29,65.552  L49.29,65.552z"></path><polygon points="42.729,63.792 45.397,62.514 39.028,63.952 28.65,66.324 33.07,65.532 "></polygon><path d="M46.441,62.546l-3.535,1.693c-0.016,0.008-0.031,0.008-0.046,0.011c-0.006,0.001-0.009,0.009-0.015,0.01l-9.671,1.742  l-4.847,1.676l15.53-2.493l0.026-1.168c0.001-0.024,0.02-0.037,0.027-0.059c0.01-0.033,0.018-0.064,0.041-0.09  c0.01-0.01,0.023-0.014,0.035-0.022c0.03-0.023,0.056-0.053,0.097-0.06l4.267-0.705L46.441,62.546z"></path><polygon points="50.865,61.664 51.185,61.816 51.187,61.818 51.188,61.818 51.855,62.152 51.857,62.155 51.861,62.155 52.4,62.44   52.426,62.452 52.429,62.456 52.432,62.456 54.146,63.307 54.149,63.307 58.124,65.321 58.025,64.507 58.027,64.503 58.025,64.501   57.858,62.847 57.861,62.837 57.859,62.832 57.858,62.825 57.857,62.823 57.857,62.814 57.812,62.378 57.339,58.021 52.312,59.033   52.306,59.034 52.305,59.034 51.775,59.124 51.774,59.124 51.146,59.261 51.144,59.261 50.856,59.321 50.855,59.321 50.854,59.322   48.575,59.777 48.574,59.777 47.554,59.978 50.864,61.664 "></polygon><polygon points="40.432,70.596 19.877,75.305 36.286,72.705 "></polygon><path d="M54.841,41.643L54.841,41.643l8.297,1.436l-0.123-0.052c0,0,0-0.001-0.001-0.001l-5.326-2.216c0,0,0,0-0.001,0l-0.418-0.175  c-0.027,0.011-0.053,0.026-0.082,0.026c-0.022,0-0.045-0.003-0.067-0.009l-0.837-0.244c-0.001,0-0.001-0.001-0.001-0.001  l-0.167-0.039l-0.116,0.051c-0.03,0.06-0.08,0.11-0.15,0.128l-0.366,0.091c-0.002,0-0.004,0-0.006,0.002h-0.001l-0.562,0.121  c-0.001,0-0.001,0-0.002,0l-2.212,0.521L54.841,41.643C54.84,41.643,54.84,41.643,54.841,41.643z"></path><polygon points="53.517,40.575 53.451,40.612 53.809,40.528 "></polygon><path d="M56.159,28.292l1.291,0.197l0.792,0.122l-4.211-1.019l-0.127,0.242c-0.004,0.006-0.01,0.009-0.014,0.015  c-0.002,0.005,0,0.009-0.003,0.013l-0.059,0.083l2.328,0.346C56.158,28.291,56.158,28.292,56.159,28.292z"></path><polygon points="64.937,42.841 61.522,41.885 63.175,42.573 "></polygon><polygon points="52.336,42.632 54.499,43.345 54.552,42.081 52.327,41.707 "></polygon><polygon points="51.797,12.185 51.963,12.352 51.979,12.368 52.314,12.173 51.758,12.091 51.755,12.089 51.75,12.089 51.697,12.079   51.796,12.185 "></polygon><polygon points="51.583,15.88 51.584,15.879 51.583,15.878 51.583,15.838 51.518,15.827 51.518,16.136 51.518,16.304 51.518,16.306   51.518,16.308 51.459,20.801 51.629,20.826 "></polygon><polygon points="54.119,28.474 53.44,28.373 52.189,28.739 52.194,28.9 "></polygon><polygon points="51.705,27.685 51.705,27.375 51.708,27.368 51.705,27.362 51.645,22.138 51.645,22.137 51.645,22.136   51.645,21.998 51.457,22.026 51.457,22.317 51.456,22.319 51.457,22.32 51.384,27.63 "></polygon><polygon points="51.555,12.761 51.521,15.072 51.581,15.065 "></polygon><path d="M57.447,50.075l1.345-1.312l-0.225-0.058l-0.646-0.104c-0.001,0.005,0.004,0.009,0.003,0.015  c-0.002,0.013-0.014,0.019-0.018,0.03c-0.007,0.024-0.02,0.041-0.034,0.062c-0.021,0.029-0.042,0.051-0.073,0.068  c-0.011,0.006-0.014,0.021-0.026,0.025l-1.834,0.704L57.447,50.075z"></path><polygon points="55.93,56.751 55.93,56.751 69.781,58.818 69.786,58.822 69.79,58.821 69.803,58.823 69.803,58.823 69.805,58.823   69.946,58.849 69.948,58.849 72.926,59.291 57.129,55.167 56.014,55.802 56.005,55.805 56.002,55.808 55.977,55.821 54.677,56.573   55.929,56.751 "></polygon><polygon points="54.072,74.656 52.799,73.06 52.646,73.103 52.667,74.977 "></polygon><polygon points="52.824,72.554 52.826,72.553 53.148,72.468 52.643,72.559 52.643,72.604 52.822,72.554 "></polygon><path d="M52.625,70.974l3.781,0.648c0.016,0.003,0.022,0.018,0.036,0.022c0.03,0.012,0.051,0.026,0.074,0.048  c0.024,0.021,0.041,0.041,0.055,0.07c0.007,0.014,0.022,0.02,0.026,0.034c0.005,0.019-0.008,0.034-0.007,0.052  c0.001,0.019,0.015,0.033,0.012,0.052c-0.003,0.017-0.018,0.025-0.024,0.041c-0.009,0.024-0.019,0.042-0.035,0.062  c-0.022,0.027-0.048,0.046-0.08,0.062c-0.014,0.007-0.02,0.022-0.035,0.026l-3.123,0.831l1.286,1.616l0.607-0.146l2.415-2.924  l-4.998-1.477L52.625,70.974z"></path><polygon points="57.719,71 57.729,70.898 56.621,70.676 "></polygon><polygon points="54.128,50.202 55.991,51.487 57.026,50.483 55.264,49.765 "></polygon><polygon points="81.724,84.302 79.145,83.415 79.144,83.415 75.364,82.125 66.333,79.04 68.963,82.253 "></polygon><polygon points="51.626,29.022 51.717,29.004 51.706,28.565 51.707,28.563 51.705,28.56 51.705,28.523 51.365,28.579 51.365,28.817   51.365,29.074 51.624,29.022 "></polygon><path d="M55.052,57.112l-1.104-0.157c-0.071-0.011-0.125-0.053-0.162-0.107c-0.001-0.003-0.007-0.001-0.009-0.005  c-0.015-0.024-0.007-0.052-0.012-0.077c-0.007-0.028-0.025-0.052-0.021-0.082c0.001-0.005,0.006-0.006,0.007-0.011  c0.005-0.029,0.028-0.049,0.044-0.074c0.018-0.027,0.027-0.057,0.054-0.074c0.004-0.003,0.004-0.009,0.007-0.01l-1.38-0.229  l0.013,2.002L55.052,57.112z"></path><polygon points="59.347,69.904 58.351,69.664 58.229,70.729 58.168,71.335 58.168,71.337 58.154,71.499 58.152,71.504   58.153,71.509 58.136,71.656 61.822,72.213 61.825,72.214 67.654,73.095 67.656,73.096 83.066,75.469 59.35,69.904 "></polygon><polygon points="65.234,73.215 70.905,74.882 67.551,73.564 "></polygon><path d="M57.781,70.418l0.123-1.077c0-0.006,0.006-0.008,0.007-0.014c0.002-0.006-0.003-0.01-0.002-0.016  c0.007-0.029,0.033-0.045,0.049-0.069c0.017-0.023,0.024-0.05,0.048-0.066c0.028-0.021,0.062-0.021,0.097-0.027  c0.023-0.005,0.042-0.022,0.066-0.019c0.006,0.001,0.008,0.006,0.014,0.007s0.01-0.003,0.016-0.002l1.116,0.269l1.058-1.273  l-7.787-1.508l0.025,2.762L57.781,70.418z"></path><polygon points="50.977,22.119 49.526,22.389 49.479,22.563 50.977,22.136 "></polygon><polygon points="51.688,41.616 51.341,41.826 51.334,41.829 51.33,41.833 51.227,41.889 51.216,42.46 51.169,47.243 51.169,47.271   51.202,47.275 51.209,47.279 51.218,47.278 51.76,47.384 51.761,47.384 51.902,47.409 51.857,42.808 51.846,41.636 "></polygon><polygon points="50.874,41.533 50.876,41.531 51.096,41.414 51.547,41.142 51.554,41.141 51.559,41.135 51.788,41.013   51.789,41.013 51.963,40.912 51.964,40.911 52.563,40.567 52.106,40.642 52.104,40.642 51.726,40.702 51.72,40.702 51.719,40.704   51.255,40.764 51.054,40.807 51.043,40.808 51.041,40.81 46.812,41.491 46.742,41.505 47.024,42.041 47.713,43.341 48.788,42.72   48.804,42.71 48.809,42.708 50.079,41.974 50.081,41.974 50.083,41.972 50.873,41.533 "></polygon><polygon points="51.747,35.534 51.746,35.536 51.322,35.643 51.318,35.643 51.317,35.644 51.302,35.647 51.247,40.28 51.656,40.228   51.825,40.201 51.785,35.525 51.751,35.534 "></polygon><polygon points="45.733,47.158 43.73,47.94 46.42,47.333 "></polygon><path d="M47.736,43.88c-0.001,0.001-0.003,0-0.004,0.001c-0.002,0.001-0.002,0.002-0.003,0.003c-0.036,0.02-0.075,0.028-0.113,0.028  c-0.081,0-0.157-0.044-0.202-0.117c-0.001-0.002-0.004-0.001-0.006-0.003c0-0.002,0-0.003,0-0.004  c-0.001-0.001-0.003-0.002-0.004-0.004l-0.764-1.442l-0.15-0.062l-8.233,4.285l11.313-3.139l-0.64-0.236L47.736,43.88z"></path><path d="M51.008,35.222c0.001,0,0.001-0.001,0.003-0.001l0.198-0.046l0.415-0.104l0.336-0.091c0.001,0,0.001,0.001,0.003,0  c0.001,0,0.001-0.002,0.002-0.002l1.8-0.446l-1.571-0.267h-0.001c-0.003-0.002-0.005-0.002-0.007-0.002l-0.225-0.045l-0.307-0.044  c-0.001,0-0.002-0.001-0.004-0.002c-0.004,0-0.009,0-0.013-0.001l-0.408-0.088l-0.169-0.015c0,0,0,0-0.001,0  c-0.007-0.001-0.014-0.001-0.021-0.002l-2.058-0.364c-0.016,0.003-0.026,0.018-0.043,0.018c-0.089,0-0.151-0.057-0.193-0.128  l-0.13,0.031c-0.001,0-0.001,0-0.003,0c0,0,0,0.001-0.001,0.001l-0.648,0.146l-0.673,1.067l-0.731,1.17l0,0l-0.004,0.007  l-0.245,0.398l4.695-1.19C51.006,35.222,51.007,35.223,51.008,35.222z"></path><path d="M51.173,56.272l0.624,0.167c0.006,0.003,0.009,0.01,0.015,0.012c0.006,0.003,0.013-0.002,0.019,0l0.105,0.046  c0.016,0.007,0.019,0.023,0.031,0.033c0.01,0.006,0.022,0.006,0.03,0.013l-0.004-0.538l-0.057-4.975l-0.134,0.051l0,0l-0.562,0.211  c-0.002,0.001-0.004,0-0.007,0.001c0,0,0,0.001-0.001,0.001l-0.11,0.037l-0.059,4.479v0.435L51.173,56.272L51.173,56.272z"></path><polygon points="46.396,48.348 47.46,47.741 47.41,47.602 40.714,49.114 36.696,50.024 37.401,49.904 "></polygon><path d="M51.049,58.79l0.635-0.137c0.002,0,0.004,0.001,0.005,0.001c0.003-0.001,0.003-0.003,0.006-0.003l0.315-0.055l-0.011-1.705  c-0.003,0.003-0.006,0.002-0.009,0.004c-0.043,0.036-0.094,0.062-0.15,0.062h-0.086l-0.603,0.102c-0.002,0-0.004,0-0.006,0  l-0.084,0.014L51.049,58.79z"></path><polygon points="51.176,29.613 51.172,29.615 51.129,29.624 51.215,29.659 51.219,29.662 51.224,29.662 51.38,29.732 51.753,29.867   51.757,29.871 51.76,29.871 52.062,29.99 52.063,29.99 56.379,31.683 54.597,28.86 52.014,29.432 52.008,29.433 51.721,29.492   51.719,29.493 51.339,29.569 51.337,29.569 51.188,29.61 "></polygon><path d="M50.803,50.935c0.002,0,0.003-0.003,0.004-0.004l0.264-0.089c0.001,0,0.001,0,0.001,0l0.562-0.211h0.001l0.452-0.168  c0,0,0-0.001,0.001-0.001l1.443-0.546c0.001,0,0.002,0,0.002,0l3.234-1.242l-4.657-0.739c-0.004-0.002-0.007-0.002-0.01-0.002  l-0.425-0.076c0,0,0-0.001-0.002-0.001h-0.001L51.13,47.75l-0.231-0.029c-0.001,0-0.001,0-0.001,0  c-0.003-0.001-0.005-0.001-0.007-0.001l-1.52-0.242l-0.415-0.066c-0.026,0.01-0.052,0.023-0.078,0.023  c-0.079,0-0.155-0.038-0.201-0.108c-0.001-0.001,0-0.004-0.001-0.006l-0.079,0.018l0,0l-0.715,0.157l0.098,0.268l0.546,1.427  c0,0.001,0.001,0.001,0.001,0.001l0.856,2.295l1.414-0.551C50.799,50.933,50.801,50.936,50.803,50.935z"></path><path d="M46.597,48.786c-0.019,0.011-0.038,0.011-0.058,0.016c-0.008,0.002-0.012,0.012-0.021,0.013l-9.013,1.56l-2.068,0.802  l12.534-2.09l-0.341-0.891L46.597,48.786z"></path><path d="M51.165,21.597l0.037-0.009l-0.037-0.008h-0.001l-1.457-0.312c-0.01,0.001-0.015,0.013-0.023,0.013  c-0.041,0-0.082-0.011-0.119-0.033l-0.065-0.037l-0.054-0.027h-0.001l-0.372,0.089l-0.005,0.003  c-0.015,0.012-0.019,0.031-0.036,0.041l-2.122,1.055l2.383-0.428c0.001,0,0.002,0,0.002,0L51.165,21.597  C51.165,21.597,51.165,21.597,51.165,21.597z"></path><polygon points="46.651,21.963 46.88,21.851 46.187,22.032 "></polygon><polygon points="50.583,56.01 49.766,55.876 50.583,56.11 "></polygon><path d="M51.321,33.526v0.085l0.401,0.087l0.044,0.006v-0.078l-0.168-0.055c-0.001,0-0.001,0-0.001,0  c-0.001-0.001-0.002-0.001-0.003-0.001l-0.181-0.061c-0.027-0.01-0.038-0.035-0.06-0.052c-0.011-0.01-0.024-0.016-0.033-0.025  V33.526z"></path><polygon points="44.482,35.38 42.919,36.292 46.207,35.663 46.603,35.032 "></polygon><path d="M51.466,33.062c0.029-0.003,0.055-0.02,0.084-0.013l0.172,0.044l0.042,0.006l-0.026-2.722l-0.144-0.056  c-0.002-0.002-0.003-0.002-0.004-0.002l-0.229-0.083l-0.036,2.899c0.019-0.021,0.028-0.047,0.053-0.06  C51.404,33.061,51.436,33.065,51.466,33.062z"></path><polygon points="55.262,79.058 54.38,79.94 55.202,80.065 55.203,80.065 55.204,80.065 60.263,80.873 55.28,79.054 "></polygon><path d="M51.085,28.14C51.086,28.14,51.086,28.14,51.085,28.14l0.184-0.03l0.035-0.006l-0.035-0.006  c-0.003,0-0.003-0.002-0.006-0.003c-0.006-0.002-0.012-0.002-0.018-0.003l-0.151-0.042c-0.003,0-0.004,0-0.006,0l-1.048-0.242  c-0.001,0-0.001-0.002-0.002-0.002l-0.634-0.133c-0.002,0-0.004,0-0.005,0l-0.184-0.032c-0.002,0-0.003-0.003-0.006-0.003  c-0.007-0.003-0.014-0.002-0.021-0.004l-0.205-0.061l-0.021,0.012c-0.005,0.002-0.011,0.001-0.016,0.003  c-0.003,0.003-0.003,0.006-0.006,0.007l-0.312,0.135c-0.001,0-0.001,0-0.001,0l-0.196,0.092c-0.002,0-0.003,0-0.003,0.001  c-0.001,0-0.001,0-0.001,0l-2.078,0.925c-0.001,0-0.001,0.001-0.001,0.001l-0.825,0.374l2.765-0.496c0.001,0,0.001,0,0.001,0l0,0  L51.085,28.14C51.085,28.14,51.085,28.14,51.085,28.14z"></path><polygon points="50.885,29.141 50.475,29.265 50.885,29.183 "></polygon><polygon points="48.544,29.07 48.501,29.36 50.704,28.694 "></polygon></svg>