<svg fill="#00DCFF" xmlns="http://www.w3.org/2000/svg" xmlns:xlink="http://www.w3.org/1999/xlink" version="1.1" x="0px" y="0px" viewBox="0 0 65 65" enable-background="new 0 0 65 65" xml:space="preserve"><path d="M63.145,30.579l-0.349,0.094l-0.362-0.083l1.591-0.401l-0.049-0.194l-2.261,0.571l-0.973-0.056l0.155-0.026  c0.018-0.003,0.033-0.01,0.047-0.021l0.096-0.078l0.083-0.001l0.422-0.049l-0.016-0.132l0.284-0.027l0.369,0.151l0.076-0.185  l-0.242-0.1l0.289,0.076l0.051-0.193l-0.411-0.107c-0.013-0.004-0.026-0.005-0.038-0.002l-0.908,0.116l0.006-0.049l-1.636-0.199  l-0.191-0.049l0.131-0.147l0.228-0.079l-0.059-0.166l0.082-0.017c0.011-0.002,0.021-0.006,0.03-0.012l0.245-0.143l0.173-0.01  l-0.005-0.088l0.706-0.412l0.311-0.29l-0.137-0.146l-0.292,0.277l-0.813,0.473l-0.205,0.011c-0.009,0-0.019,0.002-0.027,0.005  l-0.411,0.146l-0.253,0.123l-0.529,0.108l0.021-0.329l0.062-0.035l-0.053-0.095l0.021-0.324l-0.01-0.071L58.5,28.45  c0.013,0.005,0.027,0.004,0.043,0.005l0.396-0.042l0.798,0.229l0.055-0.192l-0.816-0.234c-0.013-0.003-0.023-0.004-0.038-0.003  l-0.393,0.042l-0.181-0.063l-0.028-0.212l1.185-0.286l0.387-0.193l1.199,0.069l2.327,0.519l0.043-0.195l-2.343-0.521l-0.867-0.051  l0.376-0.188l0.386-0.108l0.425-0.011l-0.006-0.2l-0.448,0.014l-0.428,0.119l-0.7,0.351l-0.009,0  c-0.016-0.004-0.028,0.001-0.042,0.006l-0.393,0.151l-0.394,0.136l-0.653,0.163l0.077-0.259l0.129-0.279l0.076-0.061l0.811-0.153  c0.012-0.002,0.022-0.006,0.033-0.012l0.364-0.218l-0.104-0.172l-0.349,0.208l-0.817,0.154c-0.016,0.003-0.031,0.01-0.044,0.02  l-0.071,0.057l-0.032-0.015l-0.029,0.063l-0.187,0.149l0.113-0.382c0.004-0.013,0.005-0.027,0.004-0.041l-0.046-0.362l0.067-0.129  l1.621,0.147l2.36,0.479c0.006,0.001,0.013,0.002,0.02,0.002c0.006,0,0.012,0,0.018-0.002l0.793-0.146l0.421-0.054l-0.025-0.198  l-0.426,0.055l-0.779,0.143l-1.642-0.333l0.371-0.154l0.116-0.034l0.699,0.197c0.009,0.002,0.019,0.004,0.027,0.004  c0.004,0,0.009,0,0.013-0.001l0.411-0.053l-0.025-0.198l-0.391,0.05l-0.371-0.104l0.336-0.098l-0.057-0.192l-0.643,0.188  l-1.698-0.479c-0.014-0.003-0.03-0.004-0.041-0.003l-0.124,0.018l0.108-0.051l-0.021-0.044l0.291-0.042l1.697,0.03l0.004-0.2  l-1.314-0.022l0.017-0.009l0.32-0.073l0.842-0.107l-0.025-0.198l-0.716,0.091l0.252-0.267L61.08,24.4l0.689-0.398  c0.01-0.005,0.019-0.013,0.026-0.021l0.281-0.327l0.668-0.899l0.134-0.12c0.012-0.011,0.021-0.024,0.026-0.039l0.304-0.793  l-0.188-0.071l-0.295,0.771l-0.028,0.026l-0.021-0.016l-0.078,0.105l-0.173,0.156l-1.463,1.464l-0.028,0.017  c-0.009,0.005-0.017,0.011-0.022,0.018l-0.299,0.316l-0.271,0.271l-0.284,0.174l-0.911,0.208l1.51-1.664l0.776-0.27  c0.012-0.004,0.022-0.01,0.032-0.019l0.324-0.274l-0.129-0.152l-0.31,0.262l-0.786,0.274c-0.016,0.006-0.029,0.015-0.04,0.027  l-1.695,1.873h-0.123l0.034-1.303c0.001-0.017-0.003-0.033-0.011-0.048l-0.187-0.366l-0.075-0.387l0.092-0.83l-0.199-0.021  l-0.093,0.845c-0.001,0.01,0,0.02,0.001,0.03l0.08,0.416c0.002,0.009,0.005,0.018,0.01,0.026l0.182,0.356l-0.034,1.282h-0.468  l-0.42,0.062c-0.01,0.001-0.02,0.004-0.028,0.009l-0.743,0.356l-0.224,0.011l-0.771-0.096l-0.054-0.018  c-0.008-0.002-0.016-0.002-0.022-0.003l0.127-0.114l0.022-0.024l0.334-0.121l0.356-0.212l1.543-0.71l-0.084-0.182l-1.552,0.715  l-0.317,0.19c0.002-0.003,0.005-0.006,0.006-0.01l0.22-0.794l0.573-0.593l-0.145-0.139l-0.591,0.611  c-0.012,0.012-0.02,0.026-0.024,0.042l-0.22,0.795l-0.214,0.235l-0.035,0.013c-0.016,0.005-0.029,0.014-0.04,0.026l-0.044,0.047  l0.146-0.877l0.024-0.424c0.001-0.016-0.002-0.032-0.008-0.046l-0.021-0.049l-0.316-0.718l-0.259-0.813l-0.494-1.286l0.021-0.168  L54.694,21l-0.199-0.519c-0.004-0.01-0.01-0.021-0.018-0.029l-0.278-0.32l-0.15,0.131l0.267,0.308l0.157,0.401l-0.626-0.08  l0.048-0.044l-0.019-0.021l0.079,0.006l0.016-0.199l-0.405-0.031l-0.414-0.095c-0.01-0.002-0.022-0.002-0.027-0.002l-0.827,0.045  l-0.421-0.053c-0.021-0.002-0.032,0-0.048,0.005l-0.364,0.136l0.134-0.194l0.395-0.027c0.017-0.001,0.032-0.006,0.047-0.015  l0.359-0.227c0.01-0.006,0.019-0.015,0.026-0.024l0.246-0.326l0.684-0.476l-0.053-0.075l0.007-0.004l0.378-0.077l1.26,0.054  l0.403,0.066l0.033-0.197l-0.416-0.068l-1.296-0.054l-0.417,0.082c-0.01,0.002-0.02,0.005-0.028,0.011l-0.161,0.089l0.5-0.932  l0.284-0.22l-0.099-0.127l0.026-0.049l0.235-0.354c0.007-0.01,0.012-0.021,0.015-0.033l0.094-0.414l-0.195-0.044l-0.09,0.396  l-0.229,0.346l-0.198,0.37l-0.384,0.172c-0.013,0.006-0.024,0.014-0.033,0.024l-0.284,0.315c-0.009,0.01-0.016,0.021-0.021,0.034  l-0.137,0.394l-0.161,0.37l-0.836,0.783l-0.013,0.007l-0.401,0.013v0.001h-0.01l-0.427,0.057l-0.081,0.015l0.017-1.658l0.182-0.033  l-0.035-0.196l-0.145,0.026l0.002-0.172l-0.033-0.423c-0.001-0.012-0.004-0.024-0.009-0.035l-0.181-0.385  c-0.007-0.013-0.015-0.024-0.026-0.034l-0.447-0.381l-0.165-0.308l-0.171-0.256l0.558-0.144l0.818,0.132l0.031-0.197l-0.839-0.136  c-0.013-0.002-0.027-0.001-0.041,0.002l-0.678,0.174l-0.421-0.309l0.108-0.179l-0.172-0.104l-0.099,0.163l-0.039-0.029l-0.037,0.05  l0.138-0.358c0.003-0.009,0.004-0.019,0.004-0.028h0.002l0.053-0.704l0.317-0.505l0.566-1.142c0.006-0.011,0.009-0.024,0.01-0.037  l0.007-0.09l1.018-0.792l0.366-0.186l0.777-0.312l0.411-0.104c0.015-0.003,0.028-0.011,0.04-0.021l0.309-0.263l0.003-0.001  l0.372-0.201l0.058-0.034l0.336-0.152l0.099-0.074l0.061,0.024c0.011,0.004,0.022,0.007,0.035,0.007l0.828,0.018l0.385,0.09  l0.045-0.194l-0.012-0.002l0.007-0.025l-0.821-0.218c-0.015-0.004-0.032-0.004-0.049,0l-0.11,0.027l0.213-0.158l1.379-0.991  l-0.117-0.162l-1.38,0.992l-0.164,0.124L54.209,9.8l0.271-0.302l-0.148-0.134L54.048,9.68c-0.009,0.009-0.015,0.02-0.02,0.031  l-0.293,0.772l-0.127,0.119l-0.146-0.038l-0.038-0.015c-0.016-0.006-0.034-0.007-0.052-0.006l-0.42,0.063  c-0.013,0.002-0.024,0.006-0.035,0.013l-1.076,0.623l-0.025,0.014v0l-0.001,0l0.001,0.001L51.8,11.266l-0.643,0.54l-0.351,0.241v0  l-0.005,0.003l-0.884,0.688l0.209-2.606l0,0l0.002-0.048l0.125-0.104c0.009-0.007,0.016-0.015,0.021-0.023l0.222-0.35l0,0  L50.75,9.29l1.446-0.842l0.752-0.392l-0.092-0.178l-0.758,0.395l-1.265,0.736l0.048-0.205l0.01-0.4l0.617-1.085  c0.007-0.012,0.012-0.026,0.013-0.041l0.076-0.846l-0.199-0.018l-0.074,0.824l-0.619,1.089c-0.008,0.014-0.013,0.03-0.013,0.047  l-0.008,0.404l-0.094,0.389l-0.174,0.219L50.34,9.483l0,0v0v0l-0.006,0.008l-0.196,0.309l0.005-0.172l0.297-0.591  c0.006-0.014,0.01-0.028,0.01-0.043l0.008-0.417l0.022-0.061l0.445-2.494l1.876-2.278l0.203-0.366l0.227-0.359  c0.008-0.013,0.014-0.029,0.015-0.045l0.036-0.423l-0.199-0.017l-0.034,0.398l-0.217,0.344l-0.195,0.356l-1.628,1.975l0.171-0.855  l0.046-0.409l0.089-0.394l0.365-0.767c0.005-0.01,0.009-0.021,0.01-0.033l0.089-0.845l-0.199-0.021l-0.087,0.828l-0.365,0.771  l-0.099,0.426l-0.046,0.413l-0.245,1.224c-0.005,0.009-0.011,0.017-0.013,0.026l-0.284,1.614L50.305,7.09L50.3,6.812l0.044-0.423  l-0.199-0.021l-0.044,0.435l0.002,0.108l-0.05,0.014l0.054,0.199l0.019,0.945l-0.022,0.413l-0.067,0.416l-0.001,0.006l-0.019-0.059  c-0.004-0.013-0.01-0.024-0.019-0.034l-0.258-0.317L49.59,8.113l0.004-0.001v0l0,0l-0.008-0.02l-0.297-0.757l-0.001-0.012  l0.025-0.357l0.107-0.385l0.877-0.888c0.006-0.006,0.012-0.013,0.016-0.021l0.418-0.739l-0.174-0.099l-0.411,0.728l-0.886,0.896  c-0.012,0.012-0.021,0.027-0.025,0.043L49.211,6.59l-0.052-0.493l0.596-2.883l0.279-0.802l-0.189-0.065L49.563,3.16L48.96,6.071  c-0.002,0.01-0.003,0.021-0.002,0.031l0.129,1.223l-0.002,0.028c-0.001,0.016,0.001,0.031,0.007,0.045l0.292,0.726l0.023,0.06  l0.15,0.397c0.004,0.01,0.01,0.02,0.017,0.028l0.256,0.314l0.114,0.371l-0.001,0.072L49.875,9.71l-0.232,0.331  c-0.008,0.011-0.014,0.024-0.016,0.038l-0.079,0.391l-0.237,0.357c-0.007,0.01-0.012,0.022-0.015,0.035l-0.089,0.412l-0.208,0.819  l-0.09,0.306l-0.028,0.097l-0.139,0.401c-0.005,0.016-0.007,0.033-0.004,0.05l0.071,0.411l0.037,0.406L48.8,13.962l-0.093,0.178  c-0.006,0.012-0.01,0.024-0.011,0.038l-0.038,0.441l0.027,0.28l-0.669,1.065l-0.225-0.836l-0.188-0.402l-0.432-0.596l0.513-0.606  l0.558-1.145l-0.18-0.088l-0.544,1.124l-0.466,0.549l-0.208-0.287l-0.933-0.867c-0.007-0.007-0.017-0.012-0.025-0.016v-0.001  l-0.36-0.173l-0.481-0.668c-0.008-0.011-0.019-0.021-0.03-0.028l-1.08-0.632l-0.22-0.335c-0.007-0.01-0.016-0.019-0.026-0.026  l-1.374-0.978L42.12,9.624l-0.497-1.049l0.229-0.221l0.344-0.279l0,0l0.001-0.001l0.001,0l0.005-0.006l0.805-0.941l0.353-0.132  l2.515-0.349l0.424-0.021c0.014-0.001,0.026-0.004,0.038-0.01l1.151-0.545l-0.086-0.181l-1.134,0.537l-0.412,0.021l-2.544,0.355  l-0.139,0.051l0.366-0.39l0.079-0.042l0.261-0.013l-0.006-0.124l0.399-0.215c0.015-0.007,0.026-0.018,0.035-0.031l0.231-0.338  l0.288-0.313L44.681,5.25l-0.297,0.324l-0.227,0.33l-0.593,0.318L42.598,6.27c-0.009,0-0.018,0.002-0.026,0.005l-1.215,0.398  l-0.218,0.083l-0.183-0.67c-0.004-0.014-0.011-0.027-0.021-0.039l-0.057-0.066l-0.086-0.269l0.077-0.391  c0.003-0.011,0.003-0.021,0.002-0.032l-0.054-0.421c-0.003-0.016-0.009-0.031-0.018-0.044l-1.216-1.74l-0.164,0.114l1.202,1.72  l0.048,0.38l-0.076,0.386l-0.766-0.3c-0.008-0.003-0.017-0.005-0.026-0.006L39.25,5.323l0.231-0.485l-0.18-0.087l-0.263,0.551  l-0.066-0.007l-0.345-0.152l-0.051-0.415L38.52,4.736l0.002-0.626h-0.199L38.32,5.008l-0.502-0.222l-0.115-0.043l-0.049-0.28  L37.49,4.072l-0.065,0.027l0.009-0.039l-0.195-0.044L37.145,4.43c-0.002,0.008-0.003,0.018-0.002,0.026l0.003,0.077l-0.123-0.046  l-0.07,0.188l0.203,0.076l0.007,0.173l-0.544-0.335l-0.585-0.602L35.763,3.66l-0.154,0.128l0.276,0.333l0.609,0.624l0.679,0.42  l0.023,0.565c0,0.013,0.003,0.026,0.009,0.038L37.39,6.16l0.643,1.102l0.44,0.72l0.066,0.123l-0.063,0.339l0.01,0.221l-1.377-0.87  l-0.087-0.076l0.116-0.078l0.816-0.117l-0.027-0.198l-0.841,0.12c-0.015,0.002-0.028,0.008-0.041,0.016l-0.18,0.121l-0.087-0.076  l-0.335-0.219L36.04,6.567l-0.085,0.048l-0.096-0.871c-0.002-0.016-0.008-0.032-0.017-0.045l-0.236-0.353L35.44,5.458l0.223,0.332  l0.129,1.169l-0.613-0.428l-0.135-0.252l-0.14-0.424l-0.216-0.365l-0.172,0.102l0.207,0.345l0.117,0.359l-0.025-0.018l-0.018,0.024  L34.141,5.71l-0.135,0.148l0.571,0.514l-0.136,0l-0.004,1.42l-0.366-0.067l-0.524-1.238L33.576,6.4l0.119-0.407l-0.191-0.057  l-0.101,0.342l-0.863-0.766L32.39,5.14l-0.186,0.075l0.16,0.394c0.006,0.014,0.015,0.027,0.026,0.037l0.51,0.453l-0.073,0.363  c-0.001,0.009-0.002,0.018-0.001,0.027l0.058,0.795l-0.588-0.596l-0.143,0.141l0.313,0.316L32.34,7.096  c-0.017-0.006-0.034-0.008-0.052-0.006l-0.119,0.018l-0.106-0.276l-0.01-0.406l-0.2,0.005l0.01,0.424  c0,0.011,0.002,0.023,0.007,0.034l0.097,0.251L31.831,7.16L31.58,7.034l-0.167-0.112l0.145-0.306L31.7,6.217L31.511,6.15  l-0.139,0.39l-0.128,0.27l-0.358-0.239l-0.511-0.657l-0.158,0.123l0.521,0.67c0.007,0.008,0.015,0.016,0.023,0.021l0.396,0.264  l-0.136,0.287L28.93,7.203l-0.007,0.2l2.085,0.074l0.022,0.328l0.256,0.81c0.003,0.011,0.009,0.021,0.016,0.031l0.086,0.112  l-1.216-0.69c-0.008-0.004-0.016-0.008-0.024-0.01L29.736,7.95l-0.05,0.193l0.398,0.104l1.191,0.676L31.26,9.045l0.297,0.038  l0.365,0.208l-0.075,0.04l0.212,0.394l0.291,0.329l0.663,0.563l0.057,0.03l-0.553-0.165c-0.008-0.002-0.017-0.004-0.025-0.004  l-0.424-0.017l-0.008,0.2l0.412,0.016l0.788,0.234l0.384,0.182c0.014,0.006,0.027,0.01,0.042,0.01l0.275,0.002l0.134,0.056  c0.013,0.005,0.026,0.008,0.039,0.008c0.015,0,0.028-0.003,0.042-0.009l0.179-0.082l0.214,0.349l-1.422,0.017l-0.8,0.107  l-0.386-0.089l-0.439-0.008l-0.408,0.054L30.305,11.4l-0.026,0.198l0.235,0.031l-1.107,0.099l-0.411-0.054l-0.026,0.198l0.433,0.054  l2.516-0.224l0.411,0.054c0.009,0.001,0.018,0.001,0.027,0l0.811-0.113l1.526-0.019c0.003,0.003,0.005,0.007,0.009,0.01l0.323,0.265  l0.305,0.288l0.324,0.34l0.001,0c0.005,0.005,0.011,0.011,0.018,0.016l0.786,0.507c0.007,0.005,0.016,0.009,0.024,0.012l0.047,0.014  l0.475,0.515c0.01,0.011,0.022,0.02,0.036,0.025l0.877,0.354l0.508,0.384l0,0l0.949,0.83l0.489,0.396l0.92,0.803  c0.007,0.013,0.016,0.025,0.027,0.034l0.078,0.059l0.432,0.377l0.724,1.482l0.163,0.571c0.003,0.012,0.008,0.022,0.016,0.032  l0.512,0.69l-1.329,2.436l-1.721,1.456c-0.008,0.006-0.014,0.013-0.019,0.021l-0.273,0.416l-0.365,0.366  c-0.006,0.007-0.012,0.014-0.016,0.022l-0.503,0.894l-0.355,0.505l0,0l-0.768,0.945l-0.73,0.981l-0.352,0.498  c-0.007,0.01-0.012,0.021-0.015,0.032l-0.182,0.694l-0.82,1.989l-0.229,0.696l-0.105,0.69l-0.233,0.674l-0.437,1.141l-0.242-0.897  c-0.003-0.012-0.009-0.023-0.017-0.033l-0.508-0.682c-0.009-0.012-0.02-0.021-0.033-0.028l-1.136-0.608l-0.306-0.105l-2.335-1.954  l-0.893-0.485l-0.606-1.022l-0.104-0.572l-0.17-0.589l-0.874-1.554l0.001,0l-0.527-0.705l0.066-0.238l0.368-0.766  c0.006-0.013,0.009-0.027,0.01-0.042l0.009-0.425c0-0.015-0.003-0.029-0.009-0.042l-0.174-0.391l-0.369-0.765l-0.18,0.087  l0.367,0.762l0.164,0.368l-0.008,0.381l-0.223,0.467l-0.019-0.114c-0.002-0.01-0.005-0.021-0.01-0.03l-0.592-1.128  c-0.007-0.013-0.016-0.024-0.028-0.033l-0.243-0.184c0,0,0,0,0,0l0.002-0.001l-0.189-0.459l-0.011-0.82l0.068-0.847  c0.001-0.015-0.002-0.028-0.007-0.042l0.001,0l-0.107-0.291l0.024-0.322l0.594-1.122l0.126-0.378l0.59-0.55l1.522-0.674l0.83-0.081  c0.009-0.001,0.018-0.003,0.026-0.006l0.041-0.016l1.163,0.179c0.008,0.002,0.018,0,0.026,0.001l0.805-0.093l0.439,0.055  l0.412-0.022l0.405,0.017l0.382,0.093c0.008,0.002,0.016,0.003,0.023,0.003c0.003,0,0.006,0,0.009,0l0.418-0.037l-0.018-0.199  l-0.402,0.036l-0.385-0.092l-0.434-0.02l-0.404,0.023l-0.445-0.054l-0.815,0.091l-0.802-0.124l1.171-0.446l0.785-0.324l-0.076-0.185  l-0.783,0.323l-1.497,0.57l-0.044-0.007c-0.01-0.002-0.02-0.001-0.029,0l-0.841,0.118v0c-0.009,0.001-0.019,0.003-0.027,0.007  l-1.553,0.688c-0.01,0.004-0.02,0.011-0.028,0.018l-0.622,0.579c-0.012,0.012-0.021,0.026-0.026,0.042l-0.127,0.387l-0.549,1.033  l-0.058-0.103L25.18,18.99l0.503-2.482c0.002-0.01,0.002-0.021,0.001-0.031l-0.006-0.053l0.399-1.987l0.177-0.342l0.32-0.213  l0.381-0.12l0.396-0.081l0.398,0.075l0.037-0.196l-0.417-0.079c-0.013-0.003-0.026-0.002-0.039,0l-0.426,0.088l-0.405,0.127  c-0.009,0.002-0.018,0.007-0.025,0.012l-0.354,0.235c-0.014,0.01-0.026,0.022-0.034,0.038l-0.195,0.377  c-0.004,0.008-0.007,0.017-0.009,0.026l-0.279,1.388l-0.014-0.125l0.066-0.405c0.002-0.011,0.002-0.022,0-0.033l-0.14-0.842  l-0.351-1.679l-0.16-0.394c-0.005-0.014-0.014-0.025-0.024-0.036l-0.31-0.29c-0.007-0.006-0.015-0.012-0.023-0.016l-0.38-0.19  l-0.09,0.179l0.367,0.184l0.283,0.265l0.146,0.356l0.345,1.658l0.137,0.821l-0.066,0.403c-0.001,0.009-0.002,0.018-0.001,0.027  l0.085,0.76l-0.01,0.049l-0.477,2.455l-0.035-0.326c-0.001-0.011-0.004-0.022-0.009-0.033l-0.184-0.383  c-0.005-0.01-0.012-0.02-0.021-0.028l0,0l-0.001-0.001l0,0l0,0l0,0l0,0l-0.301-0.295c-0.012-0.012-0.026-0.02-0.042-0.024  l-0.081-0.024l-0.073-0.97l0.151-0.364l0.189-0.38c0.006-0.013,0.01-0.026,0.011-0.041l0.013-0.333l0.014-0.041  c0.005-0.014,0.007-0.028,0.005-0.042l-0.038-0.423c-0.001-0.017-0.007-0.032-0.016-0.046l-0.463-0.712l-0.133,0.086l-0.054-0.059  l-0.147,0.135l0.273,0.295l0.204,0.36l0.158,0.369l-0.001,0.041L24.3,15.992l-0.222,0.362c-0.006,0.011-0.011,0.022-0.013,0.035  l-0.075,0.418c-0.001,0.01-0.002,0.02,0,0.029l0.106,0.904l-0.501-0.148l-0.331-0.206l-0.396-0.585l0.266,0.005l0.004-0.2  l-0.407-0.008l-0.398-0.589l-0.125-0.391l-0.19,0.062l0.13,0.404c0.003,0.009,0.007,0.018,0.012,0.025l0.327,0.484l-0.214-0.004  l-0.42,0.062c-0.014,0.002-0.027,0.007-0.04,0.015l-0.037,0.024l-0.065-0.101l-0.175-0.409l-0.727-1.046l-0.164,0.114l0.717,1.028  l0.173,0.406l0.074,0.115l-0.133,0.085l-0.35-0.271l-0.022-0.154c-0.001-0.011-0.005-0.021-0.01-0.031l-0.567-1.113l-0.002-0.807  l0.078-0.418l-0.196-0.036l-0.08,0.436v0.849c0,0.016,0.004,0.031,0.011,0.045l0.527,1.035l-0.018-0.013l-0.039-0.095l-0.059,0.024  l-0.036-0.026l-0.27-0.327L20.295,16.1l-0.105-0.282c-0.006-0.015-0.015-0.029-0.027-0.04l-0.952-0.847  c-0.006-0.005-0.014-0.01-0.021-0.014l-1.133-0.581l-0.091,0.178l1.122,0.575l0.924,0.822l0.073,0.196l-1.501-0.492l-1.086-1.547  l-0.235-0.353l-0.166,0.11l1.177,1.688l-0.034-0.011l-0.398-0.091l-0.361-0.219l-0.394-0.17l-0.396-0.152l-0.071,0.187l0.392,0.151  l0.377,0.163l0.363,0.221c0.009,0.005,0.019,0.01,0.029,0.012l0.405,0.092l0.278,0.091l0.577,0.828  c0.007,0.01,0.016,0.019,0.027,0.026l0.059,0.04l-0.023,0.056l-0.475-0.16l-0.42-0.131l-0.429-0.064l-0.424-0.024l-0.012,0.199  l0.415,0.023l0.405,0.06l0.861,0.286l-0.15,0.361l-0.28,0.293c-0.011,0.012-0.02,0.026-0.024,0.042l-0.23,0.817  c-0.004,0.016-0.005,0.033-0.001,0.049l0.006,0.027L18.2,18.445l-0.396-0.083l-0.167-0.116l-0.214-0.646l-0.062-0.42  c-0.002-0.013-0.007-0.026-0.014-0.038l-0.437-0.715l-0.094-0.399l-0.121-0.403l-0.215-0.807l-0.096-0.844l-0.199,0.022l0.099,0.858  l0.219,0.825l0.12,0.4l0.01,0.044l-0.042-0.045l-1.011-0.775c-0.008-0.006-0.017-0.011-0.026-0.014l-1.987-0.747  c-0.009-0.003-0.019-0.005-0.028-0.006l-0.86-0.057l-0.424,0.027l0.013,0.199l0.411-0.027l0.833,0.056l1.959,0.737l0.987,0.755  l0.271,0.288c0.001,0.002,0.002,0.005,0.003,0.008l0.434,0.708l0.063,0.416l0.145,0.435l-0.138-0.064l-0.256-0.285  c-0.007-0.008-0.016-0.015-0.025-0.021l-0.263-0.147l-0.162-0.224l-0.162,0.117l0.137,0.189l-0.018,0.032l0.07,0.039l0.093,0.128  l-0.045,0.098l0.175,0.081l0.347,0.477l0.406,0.4l-0.33-0.207l-0.106,0.17l0.338,0.212l0.194,0.349  c0.008,0.015,0.021,0.028,0.036,0.037l0.282,0.171l0.1,0.241l-0.042,0.012l-0.725-0.145l-0.048-0.062  c-0.006-0.008-0.013-0.015-0.021-0.021l-0.696-0.505l-0.353-0.2l-0.253-0.317l-0.156,0.125l0.265,0.332  c0.008,0.01,0.018,0.018,0.029,0.024l0.36,0.203l0.535,0.389l-0.04-0.015c-0.016-0.006-0.035-0.008-0.05-0.005l-0.24,0.037  c-0.003,0-0.007-0.002-0.01-0.002l-0.828-0.029l-0.411-0.105c-0.013-0.004-0.025-0.004-0.039-0.002l-0.405,0.057l-0.257-0.045  L14.37,19.29l-0.351-0.239l-0.112,0.165l0.002,0.001l-0.097,0.107l0.327,0.293l0.67,0.437l0.012,0.013l0.925,0.876  c0.008,0.007,0.016,0.013,0.026,0.018l0.146,0.069l0.209,0.159c0.013,0.009,0.027,0.016,0.042,0.019l0.337,0.064l0.041,0.015  l0.74,0.606l-0.112-0.042l-0.311-0.263l-0.129,0.152l0.324,0.274c0.009,0.008,0.019,0.014,0.03,0.018l0.671,0.247l0.464,0.38  l0.289,0.445l-0.372-0.154L18.107,22.8l-0.195,0.045l0.003,0.013l-0.02-0.008c-0.01-0.004-0.02-0.007-0.031-0.007l-0.44-0.031  l-0.422,0.039l0.019,0.199l0.406-0.039l0.408,0.03l0.138,0.057l0.042,0.181l0.188,0.413l-0.208-0.044l-0.354-0.228l-0.395-0.178  l-0.306-0.108l-0.236-0.542l-0.141,0.062l-0.17-0.303l-0.085-0.401l-0.195,0.042l0.088,0.416c0.002,0.01,0.005,0.019,0.01,0.028  l0.354,0.632l-0.172-0.019l-0.398-0.016l-0.35-0.214l-0.396-0.183l-0.403-0.133l-0.015,0.045l-0.205-0.36l-0.269-0.329l-0.155,0.126  l0.259,0.315l0.251,0.443l-0.137-0.078c-0.012-0.007-0.025-0.011-0.039-0.013l-0.423-0.044l-0.021,0.199l0.402,0.042l0.361,0.205  l0.049,0.021l0.23,0.316c0.009,0.012,0.021,0.022,0.034,0.03l0.032,0.017l-0.018,0.118l0.327,0.048l0.033,0.018  c0.01,0.005,0.021,0.009,0.032,0.01l0.715,0.111l0.082,0.059l1.179,0.481v0l0.007,0.003l0.031,0.01l0.027,0.018l0.229,0.25  l-0.69,0.113l-0.421-0.025c-0.009-0.002-0.019,0-0.028,0.002l-0.386,0.087l-0.02-0.007l-0.29-0.102l-0.552-0.573l-0.248-0.37  l-0.604-0.597l-0.141,0.143l0.592,0.581l0.246,0.368l0.35,0.365l-0.055-0.012l-0.299-0.264c-0.007-0.006-0.015-0.012-0.023-0.016  l-0.383-0.183c-0.009-0.004-0.02-0.007-0.03-0.009l-0.587-0.079l-0.318-0.285l-0.353-0.236l-0.111,0.166l0.342,0.228l0.091,0.082  l-0.365-0.049l-1.778-1.524l-0.13,0.151l1.545,1.325l-1.281-0.171l-0.026,0.198l1.587,0.212l0.118,0.101l1.066,0.736l0.374,0.149  l0.478,0.507l-0.622-0.152l-0.048,0.194l0.811,0.199l0.188,0.108l0.052,0.055l0,0c0.008,0.009,0.017,0.016,0.027,0.021l0.257,0.128  l-0.16,0.012l-0.803,0.014l-0.051-0.017l-0.399-0.17l-0.386-0.122l-1.11-0.623l-0.098,0.175l1.128,0.631l0.351,0.112l-0.121,0.033  l-0.593-0.102l-0.395-0.155l-0.073,0.187l0.415,0.161l0.466,0.08l0.021,0.08l0.173-0.046l0.563,0.097l0.399-0.008l0.703,0.315  l-0.3,0.042l-0.996-0.026l-1.083-0.098c-0.015-0.001-0.032,0.001-0.047,0.007l-0.074,0.031l-0.181-0.01l-0.354-0.256l-0.335-0.224  l-0.226-0.356l-0.288-0.313c-0.011-0.011-0.024-0.02-0.039-0.025l0-0.001l-0.379-0.143l-0.288-0.267l-0.264-0.315l-0.167-0.375  c-0.006-0.013-0.014-0.025-0.025-0.034l-1.268-1.13l-0.133,0.149l1.252,1.115l0.163,0.368c0.004,0.008,0.009,0.017,0.015,0.023  l0.281,0.335l0.169,0.157l-1.489,0.107l-0.408-0.017L9.54,25.449l0.098-0.198c0.007-0.016,0.011-0.033,0.01-0.05l-0.046-0.865  l-0.094-0.414l-0.195,0.044l0.092,0.397l0.043,0.823l-0.165,0.337l-0.205,0.25l0.018-0.784c0-0.014-0.002-0.027-0.007-0.04  l-0.153-0.375l-0.25-1.249l-0.196,0.039l0.255,1.267l0.151,0.374L8.876,25.81l-0.159,0.279l-0.171-0.005l-0.355-0.187l-0.046,0.087  l-0.414-0.128l-0.548-0.229l-1.036-1.208l-0.625-1.11l-0.174,0.098l0.636,1.126l0.791,0.923l-0.219-0.091l-0.077,0.185l0.584,0.244  l0.018,0.021l0.058,0.085l-0.725-0.367l-0.112-0.069c-0.012-0.008-0.027-0.012-0.042-0.014v0l-0.013-0.001l-0.734-0.372  l-0.778-0.285l-0.359-0.227l0,0l-0.652-0.986c-0.005-0.008-0.012-0.015-0.019-0.021l-0.325-0.273l-0.129,0.153l0.314,0.264  l0.7,1.058l0.268,0.33c0.009,0.011,0.021,0.021,0.034,0.027l0.512,0.251l-0.128,0.026l-0.017-0.015l-0.018,0.021l-0.361,0.053  l-0.683-0.206l-1.118-0.655l-1.347-1.045l-0.352-0.238l-0.112,0.166l0.346,0.234l1.353,1.048l0.219,0.128l-0.032,0.047L2.2,24.742  l-0.423-0.04l-0.019,0.199l0.403,0.036l0.807,0.248l0.32,0.219l-0.002,0.001l0.763,1.021c0.01,0.014,0.024,0.025,0.041,0.032  l0.002,0.001l-0.004,0.023l0.102,0.02l1.422,0.617l0.015,0.012L5.62,27.158l0.056,0.014l0.211,0.175l0.198,0.265l-0.571,0.052  l-0.845-0.042l-0.005,0.1l-0.693-0.092l-0.786-0.255l-0.362-0.222l-0.104,0.171l0.383,0.231l0.825,0.269l0.825,0.111l0.005,0.002  l-0.406,0.064l-0.808-0.105l-0.026,0.198l0.822,0.107c0.004,0,0.009,0.001,0.013,0.001c0.005,0,0.011,0,0.016-0.001l0.694-0.111  l0.167,0.084l-0.506,0.068l-1.249-0.036l-1.216-0.314l-0.386-0.178l-0.084,0.182l0.402,0.184l1.255,0.324l1.288,0.038l0.899-0.12  l0.329,0.01c0.001,0,0.002,0,0.003,0c0.01,0,0.019-0.001,0.028-0.004l0.73-0.215l0.294-0.004l0.295,0.137l0.003,0.002l-0.154-0.004  l-0.006,0.2l0.394,0.008l0.077,0.078c0.01,0.01,0.021,0.016,0.034,0.021l-0.58,0.005l-0.8,0.143l0.035,0.197l0.783-0.141  l0.764-0.006l0.122,0.148c0.01,0.013,0.024,0.022,0.039,0.029l1.569,0.651v0c0.009,0.004,0.019,0.007,0.028,0.008l0.437,0.042  l0.821-0.09l0.377,0.137c0.01,0.003,0.021,0.005,0.032,0.006l4.696,0.114l0.05,0.004l0.701,0.128l0.682,0.469  c0.009,0.006,0.02,0.011,0.031,0.014l0.003,0.001l-0.296,0.028l0.02,0.199L18,30.555l0.069,0.007l-0.018,0.083l0.808,0.177  l0.324,0.153l-0.219,0.067l-0.406-0.015c-0.024-0.001-0.034,0.004-0.049,0.011l-0.757,0.385l0.091,0.179l0.733-0.373l0.397,0.015  c0.011,0,0.022-0.001,0.033-0.004l0.508-0.155l0.113,0.032c0.009,0.002,0.018,0.004,0.027,0.004c0.006,0,0.012,0,0.018-0.001  l1.203-0.214l0.796,0.119c0.005,0,0.01,0.001,0.015,0.001c0.014,0,0.027-0.003,0.04-0.008l0.756-0.33l0.4,0.021  c0.008-0.001,0.019,0,0.028-0.003l0.394-0.092l1.048,0.168l0.027,0.032l0.033,0.036l0.175,0.332  c0.007,0.015,0.018,0.027,0.032,0.036l0.556,0.385l0.132,0.124l0.334,0.198l0.025,0.018c0.014,0.01,0.03,0.016,0.047,0.018  l0.819,0.081l0.014,0.001l0,0h0c0.003,0,0.006,0,0.01,0c0.008,0,0.016-0.001,0.023-0.003l0.742-0.178l0.031,0.022  c0.008,0.006,0.018,0.011,0.027,0.014l0.717,0.228c0.01,0.003,0.02,0.005,0.03,0.005c0.001,0,0.003,0,0.005,0l1.692-0.076l0,0  c0.009-0.001,0.019-0.002,0.027-0.005l0.325-0.108l0.06,0.021l0.428,0.044l0.438-0.01l0.257-0.042l0.149,0.007l0.395-0.061  l0.041,0.014l0.843,0.706l0.697,0.755l0.688,1.076l0.361,2.413l-0.001,1.231l-0.071,1.247l0.124,2.488l1.005,4.846l0.583,3.266  l-0.532,6.365l-0.186,1.599l-0.138,3.203v1.602h0.199v-1.598l0.138-3.191l0.186-1.594l0.532-6.369l1.161-3.091l1.236-3.592  l0.844-2.371l3.604-6.641l1.622-0.445l0.479-0.241l0.547-0.126c0.011-0.003,0.021-0.007,0.029-0.012l0.464-0.28l1.636-0.314  l0.851-0.132l0.836-0.245l1.129-0.608l0.001,0.001l0.343-0.224l0.378-0.102l0.886,0.087l0.761,0.125  c0.006,0.001,0.011,0.001,0.017,0.001c0.009,0,0.017-0.001,0.025-0.003l0.276-0.071l0.115,0.003l0.42,0.064l0.836,0.006l0.354,0.11  c0.01,0.003,0.02,0.004,0.029,0.004c0.011,0,0.021-0.002,0.031-0.005l0.106-0.035l1.134-0.13l1.227-0.289l0.423-0.036  c0.017-0.001,0.032-0.007,0.047-0.017l0,0v0c0.001,0,0.001,0,0.001,0l0.045-0.03l0.153-0.019l0.041-0.012l0.802,0.03  c0.01,0.002,0.019-0.001,0.026-0.003l0.24-0.056l0.02,0.003c0.005,0.001,0.011,0.001,0.016,0.001s0.01,0,0.015-0.001l0.408-0.059  l-0.012-0.082l0.087-0.03l0.847-0.071l-0.015-0.166l1.482-0.069l0.4,0.092c0.017,0.003,0.033,0.004,0.049-0.001l1.195-0.302  l-0.047-0.194L63.145,30.579z M51.914,11.43l0.007-0.004l1.087-0.611l0.381-0.062l0.01,0.002l0.023,0.009l-0.264,0.152l-0.069,0.031  l-0.37,0.208l0.001,0.002l-0.017,0.009l-0.307,0.259l-0.402,0.104l-0.379,0.151L51.914,11.43z M60.277,30.681l-0.411-0.027  l-0.288-0.047l0.471-0.055l0.341,0.124L60.277,30.681z M43.752,33.056l-0.365,0.566l0.178-0.735l0.492-3.122l0.183-1.868  l0.651-0.028l0.299,0.076c0.008,0.002,0.017,0.003,0.024,0.003c0.003,0,0.006,0,0.009,0l0.395-0.033l0.374,0.147  c0.011,0.004,0.022,0.006,0.035,0.007l0.431,0.006l0.415-0.021l0.85,0.014c0.009-0.004,0.021-0.001,0.03-0.004l0.112-0.033  l-0.188,0.349l-0.455,0.702l-1.357,1.61l-0.971,0.823l-0.372,0.308l0.001,0.001c-0.005,0.003-0.009,0.006-0.013,0.01l-0.317,0.362  c-0.009,0.01-0.016,0.021-0.02,0.034l-0.15,0.441L43.752,33.056z M41.563,22.193l1.005-0.85l0.659-0.295l0.083,0.17l-0.057,0.079  l-0.683,0.463l-0.377,0.178c-0.011,0.005-0.021,0.012-0.029,0.021l-0.282,0.293l-0.593,0.441L41.563,22.193z M48.305,17.764  l1.111-0.598l0.235-0.141l0.135,0.115l0.22,0.411l0.349,0.751l0.006,0.192c-0.009,0.002-0.017,0.004-0.024,0.008l-1.302,0.704  l-0.612,0.086l-0.4,0.095L47.6,19.434c-0.011,0.001-0.021,0.004-0.029,0.008l-0.351,0.155L47.202,19.6  c-0.012,0.002-0.023,0.006-0.034,0.012l-0.144,0.083l0.36-0.714l0.211-0.067c0.009-0.002,0.017-0.006,0.024-0.011l0.69-0.448  l1.245-0.11l-0.018-0.199l-1.27,0.112c-0.017,0.001-0.032,0.007-0.046,0.016l-0.7,0.455l-0.019,0.006l0.087-0.184l0.174-0.148  l0.088-0.1l0.296-0.073L48.1,18.033l-0.023,0.006l0.039-0.04c0.008-0.008,0.015-0.017,0.019-0.027l0.026-0.056L48.305,17.764z   M51.04,21.082l0.404,0.064c0.011,0.001,0.023,0.002,0.032,0l1.191-0.204l0.727,0.093l-0.588,0.541l-0.261,0.365l-0.448,1.129  l-0.127-0.514l-0.11-0.382l0.094-0.386l-0.193-0.048l-0.101,0.412c-0.005,0.017-0.004,0.035,0.001,0.052l0.117,0.404l0.194,0.778  l-0.007,0.017l-0.174-0.357l-0.12-0.429l-0.59-1.129c-0.006-0.011-0.014-0.021-0.023-0.029l-0.245-0.213l0.197-0.166L51.04,21.082z   M56.543,26.074c0.011,0.003,0.021,0.005,0.031,0.005c0.016,0,0.032-0.004,0.047-0.012l0.3-0.147l0.522-0.024l0.125,0.038  l-0.323,0.094l-0.864,0.073l-0.361,0.099l-0.396-0.012l-0.063-0.011l0.058-0.347l0.137-0.003l0.048,0.006L56.543,26.074z   M58.183,28.816l-0.141,0.079l0.149-0.504l0.014,0.101L58.183,28.816z M59.209,29.296l-0.017,0.019L58.659,29.5l-0.016-0.004  l0.3-0.146L59.209,29.296z M56.607,29.667l-0.044,0.006L56.54,29.67l-0.253-0.002l-0.12-0.002l-0.05-0.02l0.111-0.062L56.607,29.667  z M57.276,29.731l0.035-0.001l-0.011,0.003L57.276,29.731z M57.789,29.792l-0.021,0.007l-0.13-0.02l0.052-0.041l0.102,0.052  L57.789,29.792z M56.737,29.9l-0.039-0.016l0.073,0.006L56.737,29.9z M58.317,30.977l-0.349-0.016l0.282-0.222l0.071-0.012  l0.294-0.02l0.18,0.004l-0.369,0.251L58.317,30.977z M59.033,30.518l-0.411-0.01v0h-0.01l-0.073,0.005l0.086-0.067l0.342-0.042  l0.012-0.001l0.155,0.08L59.107,30.5L59.033,30.518z M59.73,30.344l0.016-0.012l0.104-0.01l-0.09,0.021H59.73z M55.688,29.855  l0.411,0.009l0.3,0.128l-0.185,0.041l-0.866-0.104L55.688,29.855z M54.778,30.054l0.113,0.022l0.733,0.087l-0.021,0.005  l-0.823-0.021l-0.229-0.036L54.778,30.054z M57.134,30.074l0.203,0.044l-0.023,0.018l-0.041,0.023l-0.427-0.051L57.134,30.074z   M57.369,30.372c0.004,0,0.008,0.001,0.012,0.001c0.006,0,0.013,0,0.019-0.002l0.378-0.072l0.438,0.009l0.261-0.031l-0.475,0.305  l-0.018,0.003c-0.008,0.001-0.017,0.004-0.023,0.008l-0.067,0.031l-0.797,0.239l-0.398-0.058c-0.01-0.001-0.021-0.001-0.028,0  l-0.385,0.057l-0.148-0.015l0.105-0.068l0.397-0.035c0.015-0.001,0.028-0.006,0.041-0.013l0.635-0.365L57.369,30.372z M58.33,29.843  l-0.021-0.01l0.023-0.007l0.335-0.116l0.144,0.037l-0.085,0.096L58.33,29.843z M57.673,29.436l-0.075,0.076l-0.154,0.007  l0.254-0.167L57.673,29.436z M57.074,29.521l-0.233-0.008l-0.43-0.093l0.189-0.257l0.233-0.359v0l0.001-0.001l0,0l0.002-0.004  l0.204-0.341l0.267-0.194l0.062-0.033l0.351-0.05l0.296,0.102l-0.229,0.772L57.074,29.521z M58.088,28.039l-0.016,0.052  l-0.082-0.028L58.088,28.039z M58.113,27.821l-0.418,0.104l0.39-0.311L58.113,27.821z M56.663,28.7l-0.227,0.349l-0.239,0.325  l-0.001,0l-0.176-0.038c-0.018-0.004-0.035-0.004-0.05,0.002l-0.352,0.104l-0.028-0.012v0c-0.012-0.005-0.024-0.008-0.038-0.008  h-0.001l-0.39,0.004l0.392-0.294l0.766-0.365c0.015-0.007,0.027-0.018,0.037-0.031l0.002-0.003l0.347-0.152l0.035-0.019L56.663,28.7  z M56.225,28.576l-0.758,0.378l0,0l0,0l-0.002,0.001l0.001,0.001l-0.016,0.008l-0.671,0.502l-0.602,0.345l-0.145,0.008l-0.423,0.131  l-0.113,0.058c-0.001,0-0.003,0-0.004,0l-1.511,0.358l-0.086-0.02l0.66-0.631c0.004-0.004,0.007-0.009,0.01-0.013l0.001,0  l0.496-0.674l0.283-0.283l0.731-0.431c0.009-0.005,0.017-0.011,0.023-0.019l0.031-0.035l0.545-0.589  c0.009-0.01,0.017-0.021,0.021-0.034l0.003-0.009l0.55-0.61l0.222-0.362c0.007-0.011,0.012-0.023,0.014-0.036l0.041-0.247  l0.077,0.012l0.424,0.014c0.001,0,0.002,0,0.003,0c0.008,0,0.016-0.001,0.023-0.003v0l0.003,0l0,0l0.007-0.002l0.354-0.087  l0.4-0.036l0.777,0.284c0.011,0.004,0.022,0.006,0.034,0.006c0.016,0,0.031-0.004,0.045-0.011l0.287-0.146l0.163-0.036l-0.002,0.004  l-0.336,0.24l-0.323,0.302l-1.233,1.657L56.225,28.576z M55.313,26.088l0.072-0.077l-0.022,0.131l-0.066-0.011L55.313,26.088z   M55.066,26.866l0.1-0.4v-0.001l0.001,0l0.045-0.118l0.008-0.02l0.11,0.017l-0.038,0.225l-0.2,0.331l-0.121,0.134l0.085-0.14  C55.061,26.885,55.064,26.876,55.066,26.866z M57.867,26.019c0.007,0,0.015-0.001,0.021-0.003h0.001l0,0l0.043-0.012l0.316-0.084  l0.119-0.012l-0.121,0.231l-0.34,0.074c-0.008,0.002-0.017,0.004-0.023,0.008l-0.26,0.132l-0.353-0.129l0.01-0.001l0.426-0.123  L57.867,26.019z M58.876,25.539l0.038,0l0.025-0.004l-0.104,0.05L58.876,25.539z M54.922,25.847L54.922,25.847L54.922,25.847  L54.922,25.847h0.002l0,0h0.004l0.34-0.008l-0.116,0.127c-0.008,0.009-0.015,0.02-0.02,0.032l-0.038,0.1l-1.084-0.185l-0.406-0.041  l-0.297-0.06L54.922,25.847z M53.574,26.069l0.408,0.041l1.036,0.183l-0.039,0.101l0.001,0l-0.004,0.011l-0.101,0.398l-0.22,0.368  l-0.13,0.355l-0.563,0.625l-0.737,0.437l-0.313,0.311l-0.092,0.125l0.035-0.16c0.003-0.013,0.003-0.027,0-0.041l-0.083-0.423  l-0.321-1.229l-0.089-0.396l0.046-0.413l0.004-0.065l0.088-0.325c0.004-0.015,0.005-0.03,0.002-0.045l-0.01-0.05l0.13,0.002  L53.574,26.069z M42.689,27.352c0.009-0.008,0.017-0.017,0.022-0.028l0.079-0.142l0.291-0.059c0.002,0,0.003-0.001,0.004-0.002  l0.379,0.065l0.41,0.055c0.005,0,0.009,0.001,0.014,0.001c0.008,0,0.016-0.001,0.023-0.003l0.175-0.042l-0.014,0.255l-0.481-0.122  c-0.011-0.003-0.024-0.002-0.034-0.002l-0.951,0.092L42.689,27.352z M44.489,23.115l-0.001-0.704c0-0.009-0.001-0.018-0.003-0.026  l-0.314-1.146c-0.004-0.012-0.009-0.023-0.017-0.033l-0.012-0.016l0.419-0.152c0.015-0.005,0.027-0.014,0.038-0.024l0.072-0.075  l0.318,0.086l0.104,0.016l0.226,0.617l-0.12,0.131c-0.009,0.009-0.015,0.019-0.02,0.03l-0.217,0.539L44.489,23.115z M43.732,20.973  l0.091,0.122l-0.242,0.089L43.732,20.973z M43.442,21.036l-0.033-0.069l0.075-0.034l0.034-0.003L43.442,21.036z M43.927,20.898  l0.05-0.004l0.415-0.007l-0.372,0.136L43.927,20.898z M50.114,19.054l-0.512,0.072l0.765-0.414l0.051,1.629l-0.149,0.028  l-0.328,0.117l-0.484-0.421l-0.131,0.151l0.399,0.347l-0.356,0.126l-0.393-0.039c-0.015,0-0.029,0-0.044,0.005l-0.8,0.281  l-0.423,0.14l-0.215-0.017l0.058-0.307l-0.197-0.037l-0.062,0.328l-0.221-0.017l-0.839-0.021L46.194,21l0.367-0.4  c0.007-0.006,0.012-0.014,0.016-0.022l0.278-0.551l0.042-0.03l0,0l0.002-0.001l0,0l0.005-0.002l0.357-0.197l0.016-0.007l1.631-0.293  c0.01-0.002,0.02-0.005,0.029-0.01l0.161-0.087l1.043-0.146L50.114,19.054z M51.998,24.512l-0.012,0.059l-0.027,0.137l-0.016-0.014  l0.058-0.193l-0.002,0.01L51.998,24.512z M52.015,25.615l0.013-0.231l0.055-0.252l0.038,0.039l0.105,0.376l0.015,0.079  L52.015,25.615z M51.857,24.903l0.051,0.052l-0.082,0.402l-0.011,0.223l-0.292-0.056l0.094-0.346L51.857,24.903z M51.821,24.375  l-0.045,0.164l-0.401-0.371l-0.209-0.366l-0.266-0.35l-0.605-0.596l-0.141,0.143l0.596,0.584l0.249,0.328l0.21,0.369  c0.005,0.009,0.012,0.017,0.019,0.024l0.489,0.452l-0.002,0.006l-0.264,0.301c-0.01,0.012-0.018,0.025-0.021,0.04l-0.104,0.383  l-0.159-0.031c-0.016-0.003-0.033-0.002-0.049,0.003l-0.423,0.137l-1.693,0.958l0.022-0.047l0.355-0.174l-0.088-0.18l-0.149,0.073  l0.025-0.17l0.034-0.213l0.2-0.834l0.06-0.42c0.002-0.011,0.002-0.021,0-0.031l-0.072-0.418c-0.002-0.012-0.007-0.024-0.013-0.035  l-0.018-0.029l-0.021-0.039l0.063-0.26l0.172-0.37l0.201-0.374c0.008-0.013,0.012-0.028,0.012-0.043l0.018-0.424  c0.001-0.017-0.003-0.034-0.011-0.049l-0.178-0.352l-0.001-0.071l0.011-0.24l0.326-0.035c0.016-0.002,0.031-0.007,0.044-0.016  l0.658-0.435l0.261,0.227l0.573,1.092l0.119,0.426l0.288,0.596L51.821,24.375z M45.571,23.848l-0.125,0.385l-0.529,0.613  l-0.05,0.027l0.02-0.055l0.446-0.73l0.189-0.354l0.135-0.102l-0.038,0.231L45.571,23.848z M44.148,25.615l0.029-0.08l-0.002,0.042  L44.148,25.615z M45.617,25.739l0.049-0.175l0.067-0.233c0.003-0.01,0.005-0.02,0.004-0.03v-0.019l0.053-0.394l0.09-1.35  l0.063-0.297l0.461-0.69l-0.166-0.111l-0.317,0.475l0.01-0.145c0.001-0.014-0.001-0.028-0.006-0.041l-0.375-1.027l0.469-0.511  l0.967,0.338c0.012,0.004,0.023,0.005,0.037,0.006l0.317-0.012l0.158,0.884l-0.144,1.253l-0.075,0.827l-0.333,0.668l-0.032,0.063  l-1.459,1.563l-0.199-0.007l0.12-0.221c0.007-0.013,0.011-0.027,0.012-0.041l0.027-0.401L45.617,25.739z M46.232,20.548  c0.015-0.005,0.027-0.013,0.039-0.024l0.217-0.213l-0.083,0.164l-0.445,0.485l-0.471-0.165l0.015-0.01L46.232,20.548z   M46.128,20.372l0.03-0.02l0.009-0.005l-0.02,0.019L46.128,20.372z M49.095,25.434l-0.008-0.027l0.161-0.91l0.014,0.079  l-0.056,0.395L49.095,25.434z M47.78,27.613l0.362-0.292l-0.167,0.245L47.78,27.613z M47.697,22.388l-0.147-0.827l0.265,0.087  l0.188,0.786c0.004,0.015,0.012,0.028,0.021,0.04l-0.006,0.017l-0.473,1.286l0.009-0.095l0.145-1.266  C47.699,22.407,47.699,22.397,47.697,22.388z M47.045,21.279l0.219,0.047l-0.229,0.009l-0.218-0.076L47.045,21.279z M49.425,22.918  l-0.175,0.36c-0.006,0.011-0.009,0.023-0.01,0.036l-0.033,0.408l-0.013,0.053l-0.226-0.411c-0.004-0.008-0.01-0.015-0.016-0.021  l-0.047-0.047l-0.174-0.31l-0.484-0.558l0.204-0.629l0.972,0.06l-0.01,0.234L49.425,22.918z M48.247,21.786l-0.112,0.344  l-0.099-0.409l0.184,0.061c0.009,0.003,0.017,0.004,0.025,0.005l0,0H48.247z M47.071,25.346c0.007-0.007,0.012-0.015,0.017-0.023  l0.385-0.769l0.7-1.908l0.122,0.139l-0.006,0.003l0.225,0.388l0.234,0.242l0.237,0.426l0.138,0.229l-0.015,0.063l0,0l-0.001,0.006  l-0.222,1.255c-0.003,0.015-0.002,0.031,0.003,0.046l0.112,0.386l-0.029,0.194l-0.03,0.188l-0.008,0.016l-0.082,0.176l-0.218,0.299  l-0.016,0.011l-0.62,0.077l-0.864-0.034l-0.156,0.016l0.394-0.351c0.011-0.01,0.02-0.022,0.025-0.036l0.167-0.39  c0.006-0.014,0.009-0.028,0.008-0.042l-0.013-0.424l-0.199,0.006l0.012,0.402l-0.149,0.35l-0.179,0.16l0.023-0.255l-0.199-0.019  l-0.037,0.401L46.758,26.7l-0.118,0.105l-0.323,0.034l-0.002,0v-0.002L45.899,26.8h-0.003l0,0l-0.006,0l-0.171-0.006L47.071,25.346z   M45.81,27.646l0.597-0.37l0,0l0.015-0.009l0,0l0.321-0.192l0.396-0.041l1.049-0.006l-0.781,0.628l-0.51,0.013l-0.656,0.034  L45.81,27.646z M50.285,21.223l0.053-0.126l0.158,0.137l-0.506,0.333l0.277-0.316C50.274,21.242,50.28,21.233,50.285,21.223z   M49.797,20.934v0.003l0.003,0l0,0l0.005,0l0.364,0.042l-0.063,0.15l-0.254,0.291l-0.348,0.156l-1.239,0.009L48,21.499l-0.006-0.213  l0.759-0.067c0.017-0.001,0.032-0.007,0.045-0.016l0.337-0.22l0.252-0.089L49.797,20.934z M49.935,21.604l-0.03,0.02l-0.02,0.002  L49.935,21.604z M48.711,21.021l-0.292,0.026l0.551-0.193L48.711,21.021z M47.795,21.283l0.004,0.149l-0.265-0.087l0.201-0.066  L47.795,21.283z M45.792,21.143l-0.319,0.349l-0.153-0.419L45.792,21.143z M45.148,26.973l0.126,0.004l-0.072,0.078l-0.125,0.05  L45.148,26.973z M45.297,27.232c0.014-0.005,0.026-0.014,0.036-0.024l0.206-0.221l0.338,0.012l0,0l0.176,0.016l0.32,0.029  l-0.071,0.063l0,0l-0.001-0.001l-0.7,0.434l-0.388,0.02l-0.585-0.026l0.147-0.094L45.297,27.232z M43.935,27.627l-0.338,0.085  l-0.851-0.104l0.813-0.079l0.377,0.096L43.935,27.627z M48.358,27.359l0.047-0.068l-0.014,0.033L48.358,27.359z M50.563,21.026  l0.177,0.021l-0.078,0.065L50.563,21.026z M49.829,20.736l0.067-0.023l0.039,0.034L49.829,20.736z M46.967,19.112l-0.311,0.548  l-0.257,0.305l-0.981,0.638l-0.048,0.016l-0.198,0.048l-0.067-0.182l0.069-0.072l0.333-0.239l0.756-0.389  c0.011-0.005,0.021-0.013,0.028-0.021l0.557-0.614L46.967,19.112z M45.142,22.448l0.218-0.538l0.038-0.042l0.332,0.91l-0.038,0.578  l-0.308,0.232c-0.012,0.008-0.021,0.02-0.027,0.033L45.16,23.99l-0.452,0.743l-0.103,0.282l-0.047,0.025  c-0.001,0.001-0.002,0.002-0.004,0.003c0.008-0.01,0.017-0.02,0.021-0.031l0.384-1.215c0.001-0.004,0-0.009,0.001-0.014l0.184-0.367  l0.12-0.407l-0.191-0.057l-0.113,0.391l-0.048,0.097l-0.081-0.491L45.142,22.448z M44.415,24.852l0.021-0.375l0.167-0.218  L44.415,24.852z M44.514,25.085l-0.121,0.182l0.004-0.072L44.514,25.085z M44.451,25.541l0.279-0.309  c0.009-0.009,0.016-0.021,0.02-0.033l0.016-0.044l0.263-0.141c0.011-0.005,0.02-0.013,0.028-0.022l0.466-0.54l-0.001,0.005  l0.016,0.82l-0.11,0.398l-0.198,0.362c-0.007,0.013-0.011,0.027-0.012,0.041l-0.027,0.401l-0.158,0.291  c-0.005,0-0.012,0-0.017,0.002l-0.714,0.17l0.07-1.292L44.451,25.541z M44.904,27.004l-0.098,0.18l-0.123,0.078l-0.408,0.163  l0.015-0.275L44.904,27.004z M47.624,27.851l0.149-0.004l-0.063,0.019l-0.139-0.002L47.624,27.851z M48.57,27.417l0.148-0.374  l0.536,0.028l0.01-0.2l-0.22-0.012l0.611-0.075l-0.025-0.198l-0.361,0.045l1.505-0.854l0.38-0.121l0.119,0.023l-0.362,1.34  l-1.918,0.296l-0.425,0.104C48.568,27.419,48.57,27.418,48.57,27.417z M51.471,25.717l0.328,0.063l-0.314,0.73l-0.321,0.344  L51.471,25.717z M50.112,20.636l0.208-0.074l0.025-0.005l-0.086,0.206L50.112,20.636z M48.45,16.847l-0.004,0.007l0.002-0.005  L48.45,16.847z M47.903,17.898l-0.012,0.012l0.014-0.029c0.005-0.011,0.008-0.023,0.009-0.035l0.031-0.411l0.22-0.358L47.903,17.898  z M45.957,19.389L45.957,19.389L45.957,19.389l0.025-0.006l0.398-0.085l0.09-0.028l-0.315,0.347l-0.753,0.388l-0.358,0.258  l-0.115,0.12l-0.065,0.024l0.012,0.032l-0.222,0.231l-0.168,0.017l-0.519,0.009l-0.005,0l0.884-0.743l0.744-0.394L45.957,19.389z   M43.451,20.735c-0.012,0.001-0.022,0.004-0.033,0.008l-0.072,0.032l-0.138-0.511l0.343,0.463L43.451,20.735z M43.946,21.261  l0.036,0.048l0.307,1.116l0.001,0.477l-0.197-0.534l-0.481-0.985L43.946,21.261z M44.488,23.496l0.182-0.291l0.087,0.528  l-0.303,0.392L44.488,23.496z M43.928,26.248c0.009-0.006,0.017-0.014,0.023-0.022l0.204-0.28l-0.057,1.044l-0.215,0.051  l-0.389-0.052l-0.173-0.03l0.142-0.104c0.01-0.007,0.019-0.017,0.025-0.027l0.223-0.356l0.094-0.136L43.928,26.248z M43.33,26.705  l-0.29,0.213c-0.001,0-0.001,0-0.002,0l-0.075,0.017l0.402-0.287L43.33,26.705z M42.254,27.455l-0.169,0.033l0.305-0.146  L42.254,27.455z M41.104,27.607l-0.019,0.002l-0.085-0.001l0.061-0.007L41.104,27.607z M41.967,27.717l1.639,0.208l0.011,0  l-0.18,0.092l-0.031,0.016l-0.386,0.002l-0.402-0.055l-0.938-0.206L41.967,27.717z M46.005,30.83l1.377-1.632l0.467-0.719  l0.198-0.371l0.001,0l0.088-0.152l0.38-0.008c0.01,0,0.02-0.002,0.028-0.005l0.396-0.127l0.487-0.013l0.416,0.088l0.041-0.195  l-0.439-0.09l-0.897,0.022l0.484-0.117l1.812-0.28l-0.876,2.262l-0.62,0.502l-1.141,0.531l-0.806,0.221l-0.009,0.002v0l-0.004,0.001  l0,0l-0.007,0.002l-1.188,0.426l-0.827,0.193c-0.003,0-0.006,0.003-0.009,0.004L46.005,30.83z M49.452,30.165l0.661-0.532  c0.014-0.011,0.024-0.025,0.03-0.042l0.932-2.35l0.049-0.053l0.426-0.065l-0.031-0.197l-0.173,0.027l0.297-0.318  c0.008-0.008,0.014-0.018,0.019-0.029l0.336-0.78c0.001-0.002,0.001-0.005,0.002-0.008l0.236,0.034l-0.022,0.417l-0.021,0.077  l-0.03,0.413l-0.001,0.007l0,0v0.002c0,0,0,0,0,0.001v0.001l0,0c-0.001,0.01,0,0.02,0.002,0.029l0.094,0.417l0.321,1.227  l0.077,0.396l-0.08,0.373l-0.171,0.369l-0.738,0.71l-0.098-0.023l-0.85,0.01c-0.014,0-0.027,0.003-0.04,0.009l-0.373,0.168  l-1.21,0.139l-0.517-0.023L49.452,30.165z M51.636,30.595l0.09-0.085l0.233,0.056c0.016,0.004,0.031,0.004,0.047,0l0.712-0.168  l-0.866,0.5l-0.1,0.035c-0.009,0.003-0.016,0.007-0.023,0.011l-0.133,0.088l-0.301,0.081l-0.405-0.02v0.005l-0.118-0.007  L51.636,30.595z M52.582,30.741l0.765-0.335l0.426-0.135l0.034-0.02l0.128,0.02l0.41,0.008l0.417,0.066l0.872,0.021l0.592-0.131  l0.758,0.09L56.6,30.546l-0.401,0.035c-0.017,0.001-0.032,0.007-0.046,0.016l-0.335,0.219l-0.397,0.037l0,0l-0.004,0l-0.798,0.104  l-0.86-0.101l-1.287,0.061l-0.214,0.042L52.582,30.741z M55.164,31.089l0.398,0.049c0.012,0.001,0.021,0.001,0.034-0.001  l0.368-0.085l0.326,0.038l0.445,0.052l-0.096,0.055l-0.77,0.252l-0.834-0.313L55.164,31.089z M60.275,30.024l-0.408-0.06  l-0.394-0.001v-0.067l0.92,0.112L60.275,30.024z M59.183,29.841l-0.188,0l0.035-0.04L59.183,29.841z M59.253,29.294l-0.006-0.006  l0.055-0.011L59.253,29.294z M58.148,29.309l-0.244,0.049l0.052-0.175l0.108-0.071l0.102-0.057L58.148,29.309z M57.077,28.162  l-0.459,0.241L56.6,28.412l1.013-1.363l0.302-0.28l0.213-0.152l0.026,0.203l-0.115,0.387c-0.004,0.013-0.005,0.028-0.003,0.042  l0.019,0.135L57.077,28.162z M59.491,25.741l1.402,0.395l-0.48,0.199l-1.229-0.223l-0.414,0.022l-0.289-0.009l0.128-0.241  l0.061-0.006c0.012-0.001,0.023-0.004,0.034-0.01l0.046-0.022L59.491,25.741z M61.728,23.753l-0.072,0.084l-0.028,0.016  L61.728,23.753z M57.661,25.554l0.071-0.011l0.314-0.046l0.336,0.036l-0.54,0.275l-0.357-0.109  c-0.012-0.003-0.021-0.005-0.034-0.004l-0.083,0.004L57.661,25.554z M54.555,21.184l0.218,0.556l0.296,0.791l0.145,0.453  l-0.024-0.023l-0.182-0.372l-0.216-0.371l-0.229-0.357l-0.168,0.107l0.227,0.354l0.21,0.361l0.186,0.382  c0.005,0.011,0.013,0.021,0.021,0.029l0.295,0.277l0.24,0.537l0.088,0.197l-0.021,0.389l-0.189,1.133l-0.532,0.02l-1.268-0.02  l-0.446-0.016l-0.379,0.071l-0.181-0.003l-0.197-0.04l-0.001-0.004l0.007-0.122c0.001-0.01,0-0.021-0.003-0.03l-0.104-0.401  l-0.09-0.673l0.094-0.228l0.047-0.099l0.19-0.188l2.14-1.384l-0.109-0.168l-2.019,1.308l0.111-0.238l-0.182-0.085l-0.153,0.327  l0.067-0.332l0.158-0.369l0.24-0.323l0.973-0.823l-0.129-0.152l-0.988,0.839l-0.268,0.359l-0.176,0.409l-0.07,0.347l-0.007-0.196  l0.544-1.376l0.235-0.329l0.698-0.64L54.555,21.184z M51.875,20.7l0.414,0.051l0.831-0.043l0.415,0.094l0.106,0.008l-0.054,0.05  l-0.909-0.116c-0.01-0.001-0.021-0.001-0.029,0l-1.19,0.203l-0.17-0.027L51.875,20.7z M51.952,20.221l0.005-0.002L51.952,20.221  L51.952,20.221z M52.735,19.13l0.133-0.382l0.257-0.285l0.128-0.059l-0.444,0.829l-0.102,0.109l-0.075,0.026L52.735,19.13z   M50.732,20.485l0.407-0.055l0.222,0.009l-0.139,0.199l-0.188,0.158l-0.382,0.013l-0.188-0.016l0.116-0.28L50.732,20.485z   M50.409,17.88l0.007,0.078l-0.218-0.467l0.048,0.041L50.409,17.88z M49.448,16.568l0.103,0.284l-0.234,0.14l-0.962,0.518  l0.318-0.667l0.3-0.232l0.431-0.111L49.448,16.568z M49.208,16.344l-0.306,0.079c-0.013,0.003-0.025,0.009-0.036,0.018l-0.253,0.196  l0.092-0.118l0.228-0.376L49.208,16.344z M48.771,16.023l-0.081,0.134l0.059-0.151L48.771,16.023z M49.138,14.18l-0.152,0.242  l-0.033-0.233l0.037-0.158l0.278-0.532l0.34-0.265L49.138,14.18z M49.931,9.979v0.01l-0.017,0.014L49.931,9.979z M49.008,13.332  l-0.068-0.394l0.132-0.381l0.118-0.4l0.307-0.804l0.102-0.404l0.132-0.391l0.186-0.28l-0.211,2.628l-0.577,0.449  c-0.011,0.009-0.021,0.02-0.027,0.033l-0.073,0.141L49.008,13.332z M48.718,15.225l0.023,0.24l-0.295,0.774l-0.684,1.113  c-0.009,0.014-0.014,0.029-0.015,0.044l-0.031,0.41l-0.078-0.026l0.003-0.016l0.063-0.433l0.127-0.425l0.154-0.416l0.001,0  l0.191-0.407L48.718,15.225z M47.433,14.827l0.172,0.37l0.215,0.805l-0.022,0.425l-0.155,0.416l-0.132,0.446l-0.064,0.442  l-0.135,0.654l-0.021,0.014l-0.591,0.577l-0.372,0.123l-0.414,0.096l0.001,0.002l-0.02,0.004l-0.393,0.178l-0.768,0.408  l-0.993,0.836l-0.01,0.013l-0.667-0.898l-0.053-0.197l0.248-0.455l0.003-0.005l0.436-0.735l0.506-1.148l0.877-0.899  c0.009-0.008,0.015-0.018,0.019-0.028l0.001,0l0.17-0.362l0.309-0.233l0.369-0.208c0.009-0.005,0.018-0.011,0.024-0.019l0.875-0.933  l0.193-0.229L47.433,14.827z M35.391,11.546l0.025-0.003l-0.004,0.027L35.391,11.546z M35.227,11.369l-0.025-0.027l-0.24-0.286  l0.523,0.077l-0.007,0.016c-0.004,0.009-0.007,0.018-0.008,0.027l-0.023,0.161L35.227,11.369z M32.953,8.058l0.016,0.134l0.04,0.208  l-0.584-0.72l0.174,0.087l0.337,0.281L32.953,8.058z M34.635,8.496l0.001-0.463l0.474,0.084l0.398-0.006l0.188,0.098l-0.17,0.884  c-0.001,0.01-0.002,0.02-0.001,0.03l0.03,0.28L35.43,9.307l-0.266-0.331c-0.007-0.008-0.014-0.015-0.022-0.021l-0.489-0.329  L34.635,8.496z M36.792,8.656c0.014,0.004,0.029,0.003,0.042-0.001l0.391-0.094l0.227,0.048l0.187,0.16  c0.012,0.01,0.024,0.017,0.039,0.021l0.813,0.225l0.005,0.001l-0.009,0.324l0.06,0.405l-0.126,0.826  c-0.003,0.015-0.001,0.031,0.004,0.046l0.193,0.579l-0.324-0.245c-0.013-0.01-0.027-0.016-0.043-0.019l-0.069-0.012l-1.31-0.878  l-0.566-1.093l-0.012-0.081l-0.047-0.323c-0.001-0.011-0.005-0.021-0.01-0.031l-0.033-0.062l0.265-0.361l0.072-0.049l0.086,0.049  l0.384,0.138l0.162,0.139l-0.363,0.088l-0.377-0.07l-0.037,0.196L36.792,8.656z M38.853,6.778l-0.025,0.117l-0.036-0.121  l0.029-0.159L38.853,6.778z M39.47,7.678l0.002,0l0,0l0.008-0.003l0.405-0.135l0.05-0.025l0.32-0.073l0.408,0.038  c0.012,0.003,0.022,0,0.032-0.002l0.167-0.041l0.469,0.99l0.014,0.23l-0.331,0.875l-0.998-0.565l0.019-0.103  c0.003-0.016,0.002-0.032-0.003-0.048L39.902,8.41c-0.004-0.012-0.011-0.023-0.019-0.033l-0.529-0.648L39.47,7.678z M40.695,7.138  l0.066,0.117l-0.098,0.023l-0.223-0.021l0.191-0.097L40.695,7.138z M42.135,17.015c-0.006-0.012-0.015-0.022-0.024-0.031  l-0.851-0.72l-0.074-0.154c-0.005-0.01-0.011-0.019-0.019-0.027l-0.217-0.217l-0.306-0.69l-0.03-0.128l0.001,0l-0.143-0.333  l-0.045-0.344l0,0l-0.107-0.944c-0.002-0.015-0.007-0.029-0.015-0.041l-0.165-0.268l0.017-0.712l0.396,0.022l-0.097,0.27  c-0.004,0.01-0.006,0.02-0.006,0.03l-0.031,0.873c-0.001,0.012,0.001,0.024,0.005,0.036l0.177,0.519l0.002,0  c0.002,0.007,0.004,0.014,0.007,0.02l1.399,2.297l0.234,0.465l0.03,0.352L42.135,17.015z M34.776,10.827l-0.658-0.841l-0.152-0.277  l0.103,0.053l0.35,0.207l0.537,0.653l0.293,0.274L34.776,10.827z M34.797,9.729l-0.022-0.171l0.64,0.592l0.207,0.234l0.004,0.069  l-0.349-0.399c-0.008-0.009-0.017-0.017-0.027-0.022l-0.417-0.228L34.797,9.729z M35.39,10.753l-0.271-0.271l-0.142-0.371  l0.161,0.087l0.506,0.58v0.007l-0.026,0.057L35.39,10.753z M34.974,9.372l-0.245-0.161l-0.021-0.159l0.319,0.322v0l0,0l0.001,0.001  v0l0.006,0.006l0.311,0.27l0.255,0.374l0.002,0.034l-0.036-0.041l-0.001,0l-0.007-0.008l-0.043-0.04L34.974,9.372z M35.842,10.685  l-0.004-0.155l0.138,0.047l0.154,0.226L35.842,10.685z M33.806,9.187l-0.209-0.28l0.308,0.342L33.806,9.187z M34.683,9.952  l0.025,0.055l-0.06-0.073L34.683,9.952z M35.816,10.89l0.519,0.213l0.021,0.03l-0.551-0.216L35.816,10.89z M36.01,9.922l-0.199-0.29  l-0.002-0.079l0.179-0.809l0.069-0.094l0.052,0.343l0,0c0.001,0.011,0.005,0.021,0.01,0.031l0.586,1.131  c0.008,0.015,0.02,0.028,0.033,0.037l0.959,0.643l-0.688-0.119l-0.755-0.256L36.01,9.922z M35.953,8.453l-0.136,0.185l0.059-0.301  L35.953,8.453z M34.46,9.25l0.004,0.009c0.005,0.012,0.013,0.023,0.022,0.032l0.059,0.054l0.043,0.325l-0.069-0.038L33.41,8.4  l-0.02-0.074l0.286,0.176l0.13,0.047L34.46,9.25z M33.318,8.049L33.31,8.016l0.062,0.066L33.318,8.049z M33.245,8.516l0.287,0.319  c-0.002,0-0.003-0.002-0.004-0.003l-0.222-0.115l-0.063-0.143L33.226,8.48C33.23,8.493,33.236,8.506,33.245,8.516z M38.132,12.478  l-0.243-0.154l-0.335-0.46l-0.082-0.075l-0.079-0.072l-0.041-0.069c-0.006-0.01-0.015-0.019-0.024-0.026l0.001-0.001l-0.332-0.267  c-0.002-0.002-0.005-0.002-0.007-0.004l-0.377-0.343c-0.004-0.004-0.009-0.005-0.013-0.008l-0.231-0.288l-0.001-0.001l0.592,0.201  l1.145,0.198l0.376,0.252l0.162,0.32l0.018,0.037l0.397,0.761l0.227,0.354l0.358,0.616L38.66,12.78L38.132,12.478z M40.937,9.737  l-0.444,1.691h0.001c-0.003,0.013-0.005,0.025-0.004,0.038l0.037,0.291l-0.391-0.61l-0.006-0.009l-0.007-0.224h0.001l-0.235-1.233  l0.09-0.506l0.964,0.546L40.937,9.737z M40.622,13.567l-0.001,0.021l-0.001,0l0.002-0.041V13.567z M39.938,13.511l0.036,0.11  l-0.49-0.843l0.438,0.365l0.018,0.029l-0.007,0.305C39.932,13.488,39.934,13.5,39.938,13.511z M39.958,12.395l-0.012,0.508  l-0.522-0.436l-0.195-0.346l-0.018-0.04l-0.304-0.716l0.048-0.396c0.001-0.014,0-0.028-0.004-0.041l-0.121-0.394l-0.056-1.274  l-0.003-0.017l0.269,0.158l0.234,0.31l0.384,0.74l0.071,0.405l0.002,0c0.002,0.013,0.005,0.024,0.012,0.036l0.19,0.3l0.029,1.002  l-0.438-0.025l-0.012,0.199L39.958,12.395z M38.729,8.452l0.15,0.275l0.002-0.001l0.009,0.017l0.437,0.526l-0.337-0.29  c-0.01-0.008-0.021-0.015-0.033-0.019l-0.258-0.087l-0.002-0.006l0.011-0.368L38.729,8.452z M39.03,7.654l-0.022,0.01  c-0.016,0.006-0.029,0.017-0.039,0.03l-0.154,0.203l0.087-0.4L39.03,7.654z M39.481,9.668l0.012,0.033L39.472,9.66L39.481,9.668z   M39.721,9.483L39.585,9.27l-0.529-0.636l0,0l-0.001-0.002l0,0L39.054,8.63l-0.215-0.416l0.029-0.063l0.243-0.316l0.051-0.022  l0.347,0.422l0.035,0.042l-0.151,0.098l0.411,0.64L39.721,9.483z M40.142,11.521l0.277,0.438l0.131,0.269l-0.388-0.022v-0.003  L40.142,11.521z M39.654,8.413l0.063,0.076l0.014,0.042L39.654,8.413z M38.629,10.516l0.002,0.041c0,0.008,0.002,0.017,0.004,0.025  l0.119,0.386l-0.001,0.006l-0.133-0.399L38.629,10.516z M41.081,7.384l0.036,0.122l-0.056-0.118L41.081,7.384z M41.023,7.192  l-0.059,0.014l-0.08-0.141l0.091-0.035L41.023,7.192z M38.601,6.704L38.55,5.883l0.144,0.32L38.601,6.704z M38.697,7.249  L38.65,7.504l-0.021-0.338L38.697,7.249z M35.844,7.434l0.001,0.006l-0.048,0.25l-0.263-0.492L35.844,7.434z M36.022,7.575  l0.188,0.266c0.009,0.012,0.02,0.021,0.032,0.029l0.104,0.06l-0.006,0.004c-0.01,0.006-0.019,0.015-0.025,0.024l-0.218,0.297  L35.946,7.97L36.022,7.575z M33.485,7.162l-0.007-0.065l0.085,0.188L33.485,7.162z M33.526,7.836l0.466,0.482l0.015,0.022  l0.068,0.066l0.016,0.034l-0.172-0.061l-0.656-0.706l0.17,0.066l0.05,0.051l-0.006,0.037L33.526,7.836z M32.218,9.157l0.295,0.011  l0.338,0.176l0.311,0.39L32.218,9.157z M34.185,10.419c-0.003-0.005-0.008-0.01-0.013-0.015l0.001,0l-0.562-0.61l-0.129-0.396  l-0.02-0.042l0.029,0.027l0.246,0.326l0.213,0.386l0.5,0.64l-0.182-0.178L34.185,10.419z M35.665,11.219l0.026-0.056l0.058,0.008  l0.172,0.095l-0.269,0.04L35.665,11.219z M36.889,11.563l0.133,0.09l0.216,0.195l0.058,0.098l-0.063-0.04l-0.191-0.177l-0.061-0.095  c-0.009-0.014-0.021-0.026-0.036-0.034l-0.048-0.026L36.889,11.563z M38.145,13.046l0.14,0.158l-0.112-0.089l-0.074-0.14  L38.145,13.046z M38.575,13.233l-0.272-0.308l-0.115-0.174l0.003,0.001l0,0l0.001,0l0.364,0.198l1.038,0.706l0.221,0.328  l0.477,0.883c0.002,0.007,0.004,0.015,0.007,0.022l0.024,0.055l-0.396-0.607c-0.008-0.011-0.018-0.021-0.028-0.028l-0.708-0.474  l-0.264-0.325c-0.005-0.006-0.012-0.009-0.018-0.014l0.001-0.001L38.575,13.233z M41.468,16.702l0.498,0.422l0.044,0.085  L41.9,17.094l-0.422-0.368L41.468,16.702z M42.441,16.9c-0.001-0.013-0.005-0.025-0.01-0.036l-0.247-0.49l-1.388-2.278l0.024-0.527  l-0.023-1.128l0.393-0.025l0.922,0.417c0.013,0.006,0.027,0.009,0.041,0.009c0.011,0,0.022-0.002,0.033-0.006l0.376-0.131  l0.348,0.064l0.018,0.004c0.011,0.001,0.021,0.003,0.032,0.001l0.403-0.048l0.841,0.059c0.011,0.003,0.025,0,0.037-0.004l0.36-0.112  l0.533,1.949l0.097,0.393l-0.138,0.791l-0.105,0.232l-0.063,0.138l-0.877,0.899c-0.009,0.009-0.016,0.019-0.021,0.029l-0.343,0.778  l-0.001-0.405l0.188-0.333l0.612-0.564c0.009-0.008,0.016-0.017,0.021-0.027l0,0v0c0,0,0.001,0,0.001-0.001l0.001-0.001l0,0  l0.004-0.009l0.194-0.363c0.009-0.015,0.013-0.032,0.012-0.05l-0.002-0.056l0.142-0.765c0.001-0.009,0.002-0.018,0.001-0.026  l-0.036-0.423c-0.001-0.009-0.003-0.018-0.006-0.027l-0.147-0.395l0.079-0.4l-0.195-0.039l-0.016,0.084l-0.166-0.443l-0.188,0.07  l0.286,0.767l0.046,1.578l-0.007,0.039l-0.172,0.353l-0.61,0.563c-0.008,0.007-0.015,0.015-0.02,0.024l-0.21,0.369  c-0.009,0.015-0.013,0.032-0.013,0.05l0.003,0.822l-0.382,0.683l-0.021,0.036l-0.149,0.273l-0.193-0.716l-0.224-0.765l0,0  L42.441,16.9z M41.991,12.559l0.132,0.028l0.104,0.024l-0.068,0.024L41.991,12.559z M46.696,13.811l0.225,0.311l-0.223,0.263  l-0.861,0.917l-0.366,0.208l-0.14,0.105l0.033-0.173l0.067-0.419c0.002-0.014,0.002-0.027-0.002-0.04l-0.613-2.277l0.595,0.13  l0.381,0.138L46.696,13.811z M43.781,11.423c0.009,0.013,0.021,0.023,0.033,0.031l1.082,0.633l0.368,0.511l-0.507-0.111  l-0.102-0.378l-0.193,0.053l0.086,0.313l-0.35,0.109l-0.841-0.057l-0.402,0.046l-0.376-0.093l-0.812-0.174l-0.661-0.455  l-0.176-0.357l-0.18,0.088l0.188,0.381c0.008,0.016,0.02,0.029,0.033,0.039l0.403,0.278l-0.126-0.057  c-0.015-0.007-0.024-0.013-0.048-0.008l-0.411,0.027h-0.002l-0.099-0.776l0.547-1.577l0.126,0.071  c0.01,0.005,0.021,0.009,0.031,0.011l0.805,0.151l1.141,0.808l0.219,0.155L43.781,11.423z M42.045,9.89l-0.597-0.112l-0.136-0.077  l0.107-0.259l0.14-0.4c0.004-0.012,0.006-0.025,0.005-0.039l-0.006-0.097l0.385,0.812L42.045,9.89z M41.423,6.862l1.198-0.393  l0.668-0.034l-0.472,0.503L42.047,7.94L41.72,8.205l-0.187,0.18l-0.006-0.014l-0.015-0.237l-0.007-0.026l-0.211-0.775l0.545-0.131  l0.829-0.185l-0.043-0.195l-0.831,0.185L41.242,7.14L41.19,6.95L41.423,6.862z M39.77,5.577l0.755,0.296l0.165,0.193l0.229,0.773  l-0.135,0.051l-0.179-0.313l-0.174,0.1l0.163,0.286l-0.042,0.016l-0.684,0.346l-0.07,0.016L39.401,7.49v0l-0.005,0.002l-0.173,0.076  l-0.267-0.327l0.096-0.441c0.003-0.014,0.003-0.027,0-0.041l-0.09-0.438l-0.062-0.139l0.038-0.206l0.22-0.461L39.77,5.577z   M38.938,5.493l0.01,0.001l-0.183,0.383l-0.139-0.312l0.001-0.205l0.28,0.124C38.917,5.489,38.927,5.492,38.938,5.493z   M38.319,5.226v0.164l0.071,1.16L38.27,6.4l-0.006-0.007l-0.335-0.745l-0.128-0.224L37.74,4.97l0.003,0.001L38.319,5.226z   M37.343,4.461l0.033-0.148l0.088,0.206l0.024,0.144l-0.14-0.052L37.343,4.461z M37.358,4.827l0.168,0.063l0.007,0.043l0.031,0.239  L37.367,5.05L37.358,4.827z M37.566,6.067L37.395,5.7l-0.018-0.409l0.18,0.111l0.05,0.086l0.038,0.288  c0.002,0.009,0.004,0.018,0.008,0.026l0.166,0.391c0.004,0.01,0.01,0.02,0.018,0.028l0.259,0.284l0.004,0.01  c0.003,0.008,0.008,0.016,0.014,0.022l0.301,0.366l0.041,0.666l-0.251-0.41L37.566,6.067z M36.989,7.954l0.897,0.567l-0.228-0.073  l-0.116-0.024l-0.419-0.36c-0.008-0.007-0.017-0.012-0.026-0.016v0L36.75,7.9l0.101-0.068L36.989,7.954z M36.282,7.405  c0.008,0.014,0.019,0.026,0.032,0.035l0.344,0.224l0.037,0.032L36.58,7.773l-0.411-0.337l-0.146-0.208l-0.039-0.354L36.282,7.405z   M34.641,6.429l0.502,0.452l0.596,1.109l-0.002,0.012l-0.159-0.082c-0.016-0.008-0.029-0.015-0.048-0.011l-0.403,0.009l-0.489-0.09  L34.641,6.429z M34.437,7.998L34.436,8.46l-0.112-0.14l-0.157-0.371L34.437,7.998z M33.504,6.896l-0.045,0.021l-0.015-0.133  l0.006-0.016L33.504,6.896z M33.326,6.477l0.007,0.017l-0.085,0.248c-0.005,0.014-0.006,0.028-0.005,0.043l0.046,0.423  c0.002,0.016,0.007,0.03,0.016,0.043l0.193,0.3l-0.406-0.159l-0.065-0.903l0.047-0.236L33.326,6.477z M32.292,7.292l0.521,0.204  l0.093,0.095l0.013,0.172l0.001,0.012L32.708,7.6l-0.433-0.217L32.242,7.3L32.292,7.292z M31.479,7.207l0.011,0.005l-0.232,0.036  l0.067-0.143L31.479,7.207z M31.225,7.769l-0.019-0.312l0.594-0.09l0.315,0.158l0.061,0.157c0.004,0.01,0.009,0.019,0.016,0.027  l0.422,0.521l-0.465-0.35l-0.12,0.16l0.979,0.733l0.113,0.328l0.178,0.371l0.063,0.192l-0.366-0.461  c-0.008-0.011-0.02-0.02-0.032-0.027l-0.376-0.196c-0.013-0.007-0.028-0.011-0.042-0.011l-0.416-0.015l-0.306-0.039l-0.114-0.07  l-0.237-0.309L31.225,7.769z M32.491,9.911l-0.268-0.299l-0.114-0.215l1.645,0.934l0.354,0.346l0.118,0.193l-0.129,0.036  l-0.095-0.001l-0.146-0.061l-0.729-0.392L32.491,9.911z M34.686,11.236l0.263,0.174l-0.091,0.013l-0.057,0L34.686,11.236z   M35.157,11.75l-0.175-0.144l0.169-0.025l0.256,0.278l0.001,0.128L35.157,11.75z M35.804,12.39l-0.119-0.23l0.35,0.379L35.804,12.39  z M37.137,13.438l-0.227-0.246l0.895,0.274l0.321,0.28l0.002,0.004l-0.081,0.066l-0.019-0.014c-0.007-0.005-0.015-0.01-0.023-0.013  L37.137,13.438z M39.504,15.031l-0.934-0.814l-0.272-0.575c-0.006-0.012-0.015-0.023-0.025-0.032l-0.353-0.308  c-0.011-0.009-0.022-0.016-0.036-0.021L36.641,12.9l-1.035-1.121l-0.001-0.155l0.017-0.112l0.59-0.087l0.551,0.303l0.023,0.035  l0.099,0.091l0.157,0.247c0.009,0.014,0.021,0.026,0.035,0.034l0.488,0.271l0.043,0.073l0.398,0.749  c0.006,0.012,0.015,0.023,0.026,0.032l0.334,0.264c0.009,0.007,0.021,0.013,0.032,0.017l0.39,0.12l0.255,0.313  c0.007,0.008,0.015,0.015,0.022,0.02l0.704,0.471l0.771,1.178l0.047,0.304l-0.594-0.519L39.504,15.031z M42.23,18.264l-0.525-1.076  l0.057,0.05l0.568,0.604l0.22,0.758l0.19,0.7l-0.346-0.465L42.23,18.264z M42.867,19.806l0.016,0.021l0.28,1.031l-0.689,0.309  c-0.009,0.004-0.017,0.009-0.023,0.015l-0.621,0.526L42.867,19.806z M39.18,24.455l0.368-0.372l0.277-0.42l1.316-1.113l-0.095,0.173  l-0.168,0.396l0.001,0c-0.003,0.006-0.006,0.013-0.008,0.02l-0.156,0.816l-0.209,0.319l-1.776,1.118l-0.023,0.014l-0.043-0.041  l0.015-0.021L39.18,24.455z M36.818,27.788l0.726-0.976l0.758-0.933l0.533-0.316l1.797-1.131c0.012-0.007,0.022-0.018,0.03-0.03  l0.232-0.354c0.007-0.011,0.012-0.023,0.015-0.036l0.154-0.808l0.256-0.285l0.695-0.517l0.282-0.292l0.379-0.181l0,0l0,0l0.001,0  l0.001,0l0,0l0.021-0.015l0.665-0.441l0.06-0.021l0.485,0.996l0.381,1.032l-0.052,0.952l-0.158,0.798  c-0.002,0.002-0.004,0.004-0.005,0.007l-0.293,0.784l-0.119,0.171l-0.888,0.633c-0.013,0.009-0.022,0.02-0.029,0.033l-0.083,0.147  l-0.039,0.009l0.001,0.002l-0.021,0.005l-0.949,0.454l-0.567-0.07v0.002l-0.023-0.003l-1.219,0.11l-0.163,0.003l-0.357-0.032  l-0.282-0.137c-0.016-0.008-0.033-0.009-0.049-0.01l-0.867,0.042v0c-0.008,0-0.017,0.001-0.023,0.004l-0.83,0.248  c-0.016,0.004-0.03,0.013-0.041,0.024l-0.326,0.32l-0.214,0.348l-0.183,0.174l0.082-0.18l-0.111-0.051L36.818,27.788z   M31.707,31.709l-0.232,0.019l-0.142,0.023l-1.107-0.037c-0.01,0-0.023,0.001-0.034,0.005l-0.018,0.006l-0.718-0.248v0l-0.427-0.045  l-0.921-0.05l-0.393-0.401l-0.516-0.645l-0.254-1.205l0-0.018l0.7,0.171l1.064,0.176l0.886,0.48L31.707,31.709z M27.363,31.643  l-0.572-0.403v0l0,0l-0.022-0.024l-0.073-0.078l0.272,0.032l0.737,0.384c0.005,0.002,0.01,0.002,0.015,0.004L27.363,31.643z   M8.107,28.73l-0.001-0.001l0.004-0.005l0.001-0.001L8.107,28.73z M3.786,25.437l0.035,0.01l0.058,0.034l-0.165-0.066L3.786,25.437z   M18.725,24.353l-0.176-0.385l0.625,0.133l0.013,0.016l0.244,0.501l-0.567-0.21c-0.017-0.006-0.034-0.008-0.051-0.005l-0.063,0.01  L18.725,24.353z M18.11,19.076l0.047,0.002c0.005,0.01,0.013,0.02,0.022,0.028l0.3,0.264l0.076,0.201l-0.125,0.125l-0.032-0.019  l-0.116-0.204l-0.321-0.476l0.099,0.063C18.076,19.069,18.092,19.075,18.11,19.076z M20.671,17.926l-0.122-0.384l0.009-0.073  l0.065,0.048l0.061,0.191c0.003,0.011,0.008,0.021,0.015,0.029l0.496,0.669l0.097,0.293l-0.018,0.467l-0.8-0.222l0.2-0.968  C20.678,17.959,20.677,17.942,20.671,17.926z M21.499,17.155l0.081,0.062l0.606,0.557l0,0.001l0.021,0.032l0.426,0.674l0.132,0.277  l-0.02-0.017c-0.009-0.007-0.019-0.013-0.03-0.018l-0.379-0.143l-0.309-0.278l-0.504-0.372l0.063-0.416l-0.198-0.029l-0.038,0.254  l-0.046-0.132l0.04-0.253L21.499,17.155z M23.512,17.829l0.611,0.148l0.013,0.11l0.001,0.013c0,0,0,0.001,0,0.001v0l0,0  c0.002,0.014,0.006,0.026,0.012,0.038l0.63,1.101l0.055,0.11l0.012,0.11c0.001,0.014,0.006,0.027,0.013,0.039l0.201,0.351  l0.002,0.006l0.069,0.41c0.002,0.011,0.005,0.021,0.011,0.031l0.033,0.061l0.006,0.425l-0.045,0.161l-0.139,0.112l-0.336-0.585  c-0.005-0.009-0.012-0.017-0.02-0.024l0,0l0,0l0,0l-0.003-0.003l-1.503-1.364l-0.327-0.691l-0.228-0.361l0.004-0.002l-0.202-0.311  l-0.027-0.042l-0.148-0.292l0.86,0.425c0.012,0.006,0.026,0.009,0.04,0.01L23.512,17.829z M25.575,23.319l0.165,0.49l0.109,0.22  l-0.047-0.046l-0.754-1.449l0.02-0.213l0.062,0.146c0.005,0.011,0.012,0.021,0.02,0.03l0.314,0.328l-0.016,0.021l0.04,0.03  L25.575,23.319z M27.565,31.115l0.249,0.252l-0.036-0.002l-0.734-0.383c-0.011-0.005-0.023-0.009-0.035-0.01l-0.409-0.047l0,0  l-0.142-0.035l-0.607-0.492l-0.34-0.752c-0.005-0.012-0.013-0.022-0.022-0.031l-0.305-0.295c-0.01-0.01-0.021-0.017-0.034-0.022  l-0.238-0.09l1.071-0.106l0.001,0.003c0.006,0.016,0.016,0.03,0.028,0.041l0.627,0.543l0.385,0.758l0.527,0.65l0.007,0.009l0,0l0,0  l0,0L27.565,31.115z M16.722,29.619l-1.262-0.259l-1.272-0.066l-0.003,0.064L11.34,28.99c-0.009-0.001-0.02-0.001-0.031,0.001  l-0.164,0.031l-0.576-0.198l-0.284-0.254l-0.005-0.014l0.58-0.028h0c0.006,0.001,0.011,0.001,0.017,0.001  c0.005,0,0.01,0,0.015-0.001l0.016-0.002l1.233-0.06l0.828-0.11l0.39,0.056v0c0.008,0.001,0.017,0,0.024,0.001l0.43-0.042  l0.806-0.188l0.266,0.051l0.419,0.294c0.007,0.005,0.015,0.009,0.024,0.012l0.969,0.341v0c0.008,0.002,0.015,0.005,0.023,0.006  l0.527,0.049l0.482-0.074l0.497-0.031l1.456,0.306l2.474-0.012l0.108,0.044l-2.563,0.164l0.013,0.199l0.926-0.059l-0.92,0.091  l-2.512,0.082L16.722,29.619z M8.208,27.102l-0.184-0.269l0.287,0.204l0.014,0.014L8.3,27.363L8.22,27.126  C8.217,27.117,8.212,27.109,8.208,27.102z M8.499,27.393l0.012-0.165l0.094,0.09c0.008,0.008,0.018,0.014,0.029,0.019L8.9,27.457  l0.083,0.059l0.246,0.198l-0.011,0.072l0.124,0.019l0.614,0.493l0.03,0.074l-0.074,0.01l-0.297,0.04l-0.302-0.038l-0.719-0.655  L8.499,27.393z M10.885,28.326l-0.012,0.001l-0.363-0.063l-0.35-0.207l-0.058,0.099l-0.03-0.024l-0.32-0.267l0.294,0.044  l0.433,0.121l0.834,0.03l0.409,0.138L10.885,28.326z M10.173,28.298l0.098,0.058l-0.073,0.003L10.173,28.298z M8.38,28.266  c-0.011-0.002-0.022,0-0.034,0.001l-0.391,0.085l-0.205-0.055l-0.152-0.185c-0.01-0.012-0.022-0.021-0.037-0.028l-0.161-0.071  l-0.228-0.233c-0.01-0.01-0.021-0.017-0.034-0.022l0.455-0.07l0.35,0.135l0.282,0.298l0.164,0.145L8.38,28.266z M9.352,28.708  l-0.107-0.096l0.025,0.001l0.106,0.097L9.352,28.708z M9.604,28.653c-0.005-0.009-0.011-0.017-0.019-0.023L9.58,28.625l0.04,0.001  l0.403-0.059l0.043-0.002l0.041,0.1c0.006,0.014,0.015,0.027,0.026,0.037l0.136,0.122l-0.071-0.034  c-0.011-0.005-0.022-0.008-0.034-0.009l-0.512-0.047L9.604,28.653z M15.402,28.35l-0.036-0.025l0.043,0.008L15.402,28.35z   M19.923,23.75l-0.037-0.38l0.126-0.454l0.242,0.252l0.151,0.384l0.302,0.618l-0.459-0.237l-0.244-0.057L19.923,23.75z   M18.804,19.021l-0.02,0.055l-0.064,0.21l-0.05-0.226L18.804,19.021z M20.639,16.81l0.105,0.105l0.143,0.548l-0.092-0.068  l-0.165-0.514L20.639,16.81z M25.155,22.014l-0.002-0.16l0.042-0.16c0.004-0.016,0.004-0.033,0-0.049l-0.023-0.098l0.122-0.428  l-0.028,0.35l0.011,0.831L25.155,22.014z M26.742,28.889l-0.621,0.011l-0.236-0.634l0.029-0.182l0.067-0.426l0.155,0.095  l0.596,0.615L26.742,28.889z M24.683,29.336l0.378,0.143l0.276,0.267l0.342,0.757c0.007,0.014,0.016,0.027,0.028,0.037l0.274,0.221  l-0.066-0.002l-0.545-0.133l-1.065-0.652c-0.014-0.008-0.03-0.014-0.047-0.014l-0.279-0.015l-0.233-0.228  c-0.008-0.008-0.017-0.014-0.027-0.019l-0.074-0.036l-0.22-0.258l-0.021-0.045l1.152-0.114l0.1,0.077v0  C24.664,29.327,24.673,29.332,24.683,29.336z M18.411,26.922c-0.01-0.01-0.021-0.018-0.034-0.023l-0.38-0.158l-0.019-0.015  l0.093-0.01l0.335,0.179c0.015,0.008,0.031,0.012,0.047,0.012c0.01,0,0.02-0.001,0.03-0.005l0.038-0.012l0.868,0.033l0.061,0.069  c0.009,0.011,0.021,0.019,0.033,0.025l0.707,0.327l-0.717-0.066l-0.77-0.32c-0.012-0.005-0.025-0.008-0.038-0.008l-0.231-0.002  L18.411,26.922z M19.856,25.167c0-0.01-0.002-0.02-0.006-0.029l-0.056-0.158l0.021,0.006l0.169,0.351l-0.12-0.005L19.856,25.167z   M19.498,24.17l0.491,0.104l0.382,0.187l0.001-0.002l0.019,0.01l0.528,0.133l0.046,0.095c0.007,0.014,0.016,0.025,0.028,0.035  l0.669,0.515l-0.047,0.01l-0.202-0.045l-0.098-0.059c-0.009-0.005-0.019-0.009-0.028-0.011l-0.806-0.19l-0.012-0.007l-0.368-0.189  l0,0l0,0l-0.015-0.01l-0.322-0.219l-0.08-0.101L19.498,24.17z M20.047,20.031l-0.005,0.105l-0.048-0.012h-0.577l-0.161-0.151  l0.813-0.047L20.047,20.031z M22.938,19.189l0.052,0.047l0.079,0.366l-0.781-0.154l-0.594-0.166l0.001-0.005  c0.005-0.013,0.006-0.027,0.005-0.041l-0.033-0.423l-0.123,0.01l-0.003-0.01l-0.046-0.194l0.003-0.079L22.938,19.189z M24.69,22.144  l0.046,0.145l-0.11-0.071l0.041-0.116L24.69,22.144z M18.441,26.687l-0.019-0.011l0.099-0.011l0.031,0.007l-0.055,0.017  L18.441,26.687z M20.071,25.059l0.334,0.079l0.335,0.193c0.014,0.008,0.029,0.012,0.044,0.013l0.069,0.003l-0.057,0.024  l-0.587-0.024L20.071,25.059z M21.375,24.387l-0.495-0.662l-0.074-0.382l0.195-0.792c0.002-0.01,0.003-0.02,0.002-0.03l-0.001-0.022  l1.108,0.285l0.801,0.237l0.684,0.432l0.184,0.344l0.337,0.766c0.003,0.009,0.004,0.019,0.01,0.027l0.461,0.713l0,0l0.003,0.004  l0.984,1.362l0.017,0.063l-1.065-0.598c-0.008-0.004-0.016-0.007-0.024-0.01l-0.023-0.006l-0.058-0.053l-0.346-0.231l-0.329-0.268  c-0.008-0.006-0.016-0.01-0.025-0.014l0,0l-0.006-0.002l0,0h0l-0.392-0.162l-0.789-0.275l-1.089-0.563L21.375,24.387z   M23.726,22.024c0.01,0.012,0.022,0.021,0.037,0.028l0.617,0.272l-0.177,0.512l-0.053,0.485l-0.68-0.694l-0.315-0.298l-0.54-0.418  l-0.011-0.032l-0.021,0.007L22.472,21.8l-0.691-0.39l0.01-0.498l0.125,0.091c0.009,0.006,0.019,0.012,0.03,0.015l0.396,0.121  c0.003,0.001,0.005,0.004,0.009,0.005l0.356,0.107l0.037,0.011l0.7,0.451l0.057,0.039L23.726,22.024z M24.031,28.724l0.062,0.072  l-1.081-0.295l-0.188-0.411c-0.003-0.008-0.008-0.016-0.014-0.022l-0.276-0.332l-0.576-0.599l-0.155-0.375l-0.185,0.077l0.163,0.392  c0.005,0.011,0.012,0.022,0.02,0.031l0.584,0.607l0.263,0.316l0.113,0.247l-0.283-0.077l-0.575-0.435l-0.593-0.397l-0.025-0.022  l-0.385-0.732l-0.103-0.212l0.088-0.016l0.418,0.026l0.723,0.089l0.087,0.039c0.009,0.004,0.019,0.006,0.028,0.008l0.551,0.072  l0.78,0.793l0.154,0.379c0,0.001,0,0.003,0.001,0.004l0.392,0.753l0.002-0.001L24.031,28.724z M22.518,28.8l-0.094-0.107  c-0.002-0.003-0.006-0.004-0.009-0.006l-0.176-0.166h0.046l0.458,0.373L22.518,28.8z M20.712,27.181l-0.261-0.502l0.183,0.179  l0.164,0.35L20.712,27.181z M23.201,28.916l-0.081-0.177l0.638,0.174L23.201,28.916z M22.742,26.542l-0.591-0.77l0.235,0.122  l0-0.001c0.008,0.004,0.016,0.008,0.025,0.01l0.43,0.088l0.064,0.032l0.032,0.054c0.006,0.011,0.015,0.021,0.025,0.029l0.318,0.242  l0.141,0.306l-0.666-0.097L22.742,26.542z M23.959,23.708l-0.102-0.189l0.247,0.219l-0.026,0.241L23.959,23.708z M21.583,21.298  l-0.217-0.123l-0.22-0.134l0.095-0.396l0.345,0.118l0.097,0.07l-0.089-0.002L21.583,21.298z M23.396,22.841l-0.153-0.137  l0.086,0.068L23.396,22.841z M22.348,22.001l0.121,0.095l0.087,0.249c0.005,0.016,0.015,0.03,0.028,0.042l0.348,0.309l-0.393-0.147  l-0.601-0.543l-0.1-0.212L22.348,22.001z M20.956,21.691l0.085-0.259l0.141,0.095l0.396,0.161c0.001,0.013,0.002,0.026,0.008,0.038  l0.181,0.384c0.005,0.012,0.014,0.023,0.023,0.032l0.559,0.505l-0.185-0.055l-1.173-0.302L20.956,21.691z M24.306,24.499  l-0.045-0.374l0.026-0.238l0.542,0.416l0.446,0.455l0.278,0.537c0.005,0.01,0.011,0.019,0.019,0.026l0.491,0.477l-0.263,0.945  L25.762,26.6c-0.003-0.012-0.008-0.023-0.016-0.033l-0.992-1.373L24.306,24.499z M22.687,25.591l-0.145-0.098l0.123,0.013  L22.687,25.591z M22.479,25.713l-0.082-0.073l0.03,0.016l0.1,0.067L22.479,25.713z M24.382,26.301l0.444,0.411l-0.904-0.527  L24.382,26.301z M25.315,26.856l-0.223-0.175l0.325,0.182L25.315,26.856z M22.97,25.739l-0.068-0.115l-0.023-0.09l0.368,0.083  l0.388,0.118l0.307,0.249L22.97,25.739z M22.054,25.177c-0.01-0.003-0.022-0.002-0.034-0.001l-0.053-0.093  c-0.006-0.01-0.013-0.019-0.021-0.026l-0.069-0.06l0.521,0.27L22.054,25.177z M21.956,25.465l-0.136-0.047l0.098-0.02L21.956,25.465  z M23.617,27.078l-0.001,0.352l-0.604-0.614l0.516,0.067L23.617,27.078z M23.658,26.689l-0.205-0.447  c-0.002-0.004-0.006-0.007-0.008-0.011l0.241,0.047l0.896,0.522l-0.31-0.023l0,0L23.658,26.689z M25.639,27.109l0.061,0.018  l0.014,0.04L25.639,27.109z M22.841,21.086c-0.008-0.005-0.016-0.009-0.025-0.012l-0.39-0.119l-0.284-0.25l-0.349-0.716l0.254,0.135  l0,0l0.604,0.594l0.429,0.521L22.841,21.086z M21.572,19.905l0.019,0.115c0.001,0.01,0.004,0.019,0.009,0.028l0.36,0.74l-0.27-0.196  c-0.008-0.006-0.017-0.01-0.026-0.014l-0.376-0.129l0.198-0.568L21.572,19.905z M20.336,21.75c0.004-0.016,0.004-0.032,0.001-0.048  l0,0l0,0c0,0,0-0.001,0-0.001l-0.006-0.026l-0.081-0.37l-0.011-0.369l0.219,0.104l0.41,0.276l-0.109,0.331  c-0.004,0.012-0.006,0.024-0.005,0.037l0.034,0.59l-0.3,0.009l-0.293-0.025L20.336,21.75z M20.812,25.573c0.001,0,0.002,0,0.004,0  c0.013,0,0.026-0.003,0.039-0.008l0.367-0.155l0.174,0.021l0.199,0.118l0.239,0.084l-0.026,0.021l0.663,0.862l-0.301-0.044  l-0.09-0.011l-0.273-0.123c-0.011-0.005-0.023-0.008-0.036-0.009l-1.112-0.057l-0.349-0.721L20.812,25.573z M20.426,26.25  l-0.158-0.03l-0.1-0.097l-0.007-0.005l-0.286-0.55l-0.001-0.034l0.21,0.009L20.426,26.25z M19.482,26.726l-0.002-0.003  L19.482,26.726L19.482,26.726z M21.733,28.32l-0.124,0l-0.227-0.264l-0.061-0.122L21.733,28.32z M22.53,29.118l0.004,0.005  l-0.112,0.007l-0.004-0.011L22.53,29.118z M24.369,30.335c-0.005-0.01-0.011-0.019-0.019-0.026l-0.157-0.154l0.028,0.001  l0.383,0.234l-0.183-0.027l-0.048-0.021L24.369,30.335z M24.456,28.909l-0.01-0.008c0,0-0.001,0-0.001,0l-0.249-0.287l-0.381-0.733  l0.002-0.823c0-0.014-0.003-0.028-0.009-0.042l-0.046-0.101l0.466,0.061l0.016,0.002v0l0.002,0v0l0.005,0.001l0.714,0.051  l0.83,0.513l-0.112,0.718c-0.003,0.017-0.001,0.034,0.005,0.05l0.22,0.591L24.456,28.909z M26.273,25.037l-0.137,0.492l-0.585-0.774  l-0.112-0.115l-0.099-0.191c-0.007-0.014-0.017-0.025-0.029-0.034l-0.364-0.277l-0.619-0.632l0.068-0.624l0.162-0.465l0.275,0.175  l0.013,0.039l0.001,0c0.002,0.006,0.003,0.013,0.006,0.019l0.24,0.424l0.347,0.972l0.287,0.438L26.273,25.037z M24.448,22.127  l-0.189-0.1l-0.622-0.425l-0.843-1.024l-0.076-0.075l-0.527-0.523c-0.004-0.004-0.008-0.006-0.013-0.01l-0.251-0.297l-0.103-0.154  l0.415,0.124l0.81,0.16l0.314,0.244l0.278,0.279l0.439,0.722l0.457,0.821L24.448,22.127z M20.988,20.835l-0.022,0.096l-0.688-0.419  l-0.048,0.079l-0.004-0.126l0.004-0.079l0.816,0.205L20.988,20.835z M20.03,20.61l-0.216-0.112l-0.184-0.173h0.352l0.05,0.013  l-0.006,0.125L20.03,20.61z M18.704,20.127c-0.005,0.001-0.01,0.001-0.015,0.002l-0.026,0.009l-0.09-0.158l0.1,0.006L18.704,20.127z   M19.068,20.071l0.057,0.054H18.91l-0.008-0.028l-0.009-0.04l-0.014-0.062l0.089-0.005L19.068,20.071z M18.47,20.203l-0.075,0.024  l-0.001-0.009l0.036-0.085L18.47,20.203z M19.021,20.503l-0.052-0.178h0.37l0.349,0.328c0.006,0.006,0.014,0.012,0.022,0.016  l0.328,0.17l0.016,0.491v0.001l-0.006,0.001l0.09,0.389l-0.149,0.539l-0.776-0.948L19.021,20.503z M20.483,22.482l0.318-0.009  l0.002,0.044l-0.145,0.588l-0.117-0.169l-0.396-0.483L20.483,22.482z M20.605,23.38l0.043,0.213l-0.06-0.122l-0.104-0.267  L20.605,23.38z M21.127,24.387l-0.123-0.063l-0.138-0.283L21.127,24.387z M20.463,24.284l-0.144-0.093l0.212,0.11L20.463,24.284z   M20.41,27.034l-0.345-0.158l-0.351-0.225l-0.072-0.055l0.545,0.01L20.41,27.034z M20.469,27.313l0.077,0.024l0.031,0.018  l0.013,0.025l-0.059-0.005L20.469,27.313z M21.027,27.789l0.084,0.167l-0.347-0.347L21.027,27.789z M20.645,28.403l0.003,0l0.003,0  H20.645z M21.114,28.646l0.179-0.058l0.186-0.004l0.617,0.257l0.019,0.064l0.007,0.017l-0.325,0.001l-0.687-0.276L21.114,28.646z   M25.956,24.432l-0.073-0.075l-0.023-0.035L25.94,24.4L25.956,24.432z M24.954,21.584c-0.002,0.009-0.004,0.019-0.004,0.029  l0.003,0.219l-0.062,0.238l-0.002,0.026l-0.005,0.001l-0.01-0.032l-0.119-0.214l0.057-0.163l0.125-0.264l0.029,0.12L24.954,21.584z   M24.839,21.183c-0.012,0.009-0.021,0.021-0.027,0.035l-0.186,0.394l-0.001,0.005l-0.371-0.67l-0.455-0.744l-0.292-0.296  l-0.239-0.327l-0.026-0.118l1.255,1.123l0.344,0.598L24.839,21.183z M21.507,18.326l0.006-0.153l0.387,0.285l0.099,0.089  L21.507,18.326z M21.185,20.012l-0.092,0.386l-0.854-0.212l0.006-0.129l0.036-0.172l0.645-0.152l0.294,0.079L21.185,20.012z   M18.42,20.442l0.155-0.057l0.16,0.279l0.235,0.765l-0.505-0.591L18.42,20.442z M19.486,22.063l-0.191-0.257l-0.039-0.125  l0.666,0.813l-0.008,0.029l-0.375-0.391L19.486,22.063z M20.077,22.684l0.054,0.066l-0.056-0.059L20.077,22.684z M19.15,23.588  l0.218,0.215c0.007,0.006,0.015,0.012,0.023,0.017l0.357,0.192l0.008,0.004l0.004,0.002l0,0l0.003,0.001  c0.008,0.004,0.017,0.008,0.026,0.01l0.042,0.009l-0.508-0.108l-0.017-0.023L19.15,23.588z M19.558,24.91l0.1,0.281l0.006,0.133  l-0.063-0.003l-0.726-0.594l-0.01-0.025L19.558,24.91z M20.08,26.399l0.004,0.007l-0.024,0L20.08,26.399z M17.479,26.784l-0.001,0  l0.215-0.024l0.192,0.148c0.007,0.005,0.015,0.01,0.022,0.013l0.053,0.022l-0.052,0L17.479,26.784z M18.691,27.219l-0.065-0.069  h0.019l0.766,0.319c0.009,0.004,0.02,0.006,0.029,0.007l1,0.092l0.703,0.703l-0.484-0.067c-0.01-0.001-0.021-0.001-0.032,0.001  l-0.33,0.061l-0.521-0.4L18.691,27.219z M20.165,28.627l0.077,0.017l0.435,0.049l0.011-0.001l0.58,0.233l-1.966,0.01l-0.153-0.031  L20.165,28.627z M19.104,28.709l-0.252-0.073l0.14-0.052l0.389,0.046c0.006,0,0.012,0,0.019,0L19.104,28.709z M23.056,29.73  l-0.347-0.304l0.229-0.022l0.285,0.27c0.007,0.007,0.016,0.013,0.025,0.017l0.12,0.058l0.056,0.087L23.056,29.73z M26.809,29.582  c-0.006-0.012-0.014-0.022-0.024-0.031l-0.525-0.455l0.485-0.008l0.001,0.066l0.109,0.521L26.809,29.582z M26.934,28.534  l0.834,0.445l0.36,0.185l-0.443-0.073l-0.744-0.182L26.934,28.534z M27.86,28.801l-0.889-0.474l-0.043-0.044l-0.01-0.522  l0.064,0.026l0.341,0.217l0.599,0.593l0.388,0.437L27.86,28.801z M26.725,28.074l-0.465-0.478l0-0.001l-0.252-0.197l-0.027-0.129  l0.202,0.187c0.009,0.008,0.019,0.015,0.03,0.02l0.504,0.204L26.725,28.074z M26.306,27.297l-0.299-0.275  c-0.003-0.003-0.007-0.005-0.011-0.007l0.001-0.001l-0.055-0.039l0.08-0.289l0.184-0.659l0.201,0.577l0.023,0.068l0.105,0.428  l0.177,0.361v0.002L26.306,27.297z M20.702,16.582l-0.125-0.13l0.105,0.08L20.702,16.582z M20.18,16.349l0.356,0.358l-0.05-0.006  l-0.43-0.393L20.18,16.349z M21.267,19.365l-0.009,0.235l-0.002,0.014l-0.302-0.082c-0.016-0.004-0.032-0.004-0.048,0l-0.579,0.138  l0.11-0.533L21.267,19.365z M20.111,19.721l-0.016,0.004l-1.062,0.062l-0.164-0.132l-0.052,0.064l-0.01-0.044l-0.002-0.006  l-0.011-0.052l0.033-0.033c0.012-0.012,0.02-0.026,0.025-0.042l0.122-0.402l0.042-0.119l1.185,0.052l0.041,0.011L20.111,19.721z   M18.474,19.099l-0.007-0.006l0.006,0L18.474,19.099z M18.035,20.372l-0.047-0.041l0.075,0.031L18.035,20.372z M18.225,20.515  l0.005,0.049l-0.033-0.039L18.225,20.515z M18.505,21.191l0.618,0.724l0.256,0.339l0,0l0.007,0.009l0.466,0.485l-0.163,0.585  c-0.003,0.012-0.004,0.024-0.003,0.037l0.038,0.393l-0.211-0.127l-0.471-0.52l-0.061-0.09c-0.005-0.008-0.012-0.015-0.019-0.021  l-0.021-0.018l-0.177-0.305l-0.132-0.381h0L18.505,21.191z M16.148,23.393l0.259-0.11l0.284,0.007l0.285,0.508l-0.503-0.229  c-0.008-0.004-0.017-0.007-0.026-0.008l-0.082-0.013L16.148,23.393z M18.022,24.433l0.205,0.066l-0.144,0.024L18.022,24.433z   M18.809,25.125L18.809,25.125l-0.01-0.007l-0.531-0.423l0.354-0.058l0.076,0.189c0.006,0.016,0.016,0.03,0.029,0.041l0.54,0.441  l-0.117-0.005l-0.339-0.177l0,0L18.809,25.125z M19.525,25.52l0.17,0.139l0.108,0.208l-0.508-0.357L19.525,25.52z M19.435,26.393  l-0.06-0.001l-0.086-0.066l0.29,0.022L19.435,26.393z M18.924,26.298l0.014,0.011l-0.078,0.109l-0.382,0.035l-0.078-0.016  l-0.393-0.144l-0.107-0.048l0.069-0.019L18.924,26.298z M17.125,26.443c0.015,0.001,0.027,0,0.04-0.002l0.188-0.05l0.116,0.154  l-0.36,0.033l-0.249-0.171L17.125,26.443z M15.499,27.044l0.439-0.014l1.058-0.185l0.016-0.002l-0.037,0.063l0.366,0.216  c0.015,0.009,0.032,0.014,0.05,0.014l0.482,0.005l0.324,0.12l0.381,0.123c0,0,0.001,0.001,0.002,0.001l1.091,0.648l0.362,0.279  l-0.644,0.118l-0.398-0.047c-0.015-0.002-0.032,0-0.047,0.005l-0.397,0.148l0.005,0.013l-0.195-0.056l-0.054,0.192l0.537,0.155  l-0.483-0.099l-0.5-0.112c-0.009-0.002-0.019-0.005-0.028-0.002l-0.52,0.033l-0.466,0.073l-0.479-0.048l-0.86-0.532  c-0.01-0.006-0.022-0.011-0.034-0.013l-0.504-0.098l-0.569-0.398l-0.185-0.355c-0.005-0.01-0.012-0.02-0.021-0.027l-0.321-0.296  l0-0.001l-0.04-0.029l0.805,0.047l0.272,0.007L15.499,27.044z M12.521,26.671l0.566,0.161l-0.033,0.093l0.345,0.124  c0.011,0.004,0.022,0.006,0.034,0.006c0.013,0,0.026-0.002,0.038-0.008l0.067-0.028l0.215,0.11l0.289,0.268l0.188,0.361  c0.007,0.015,0.019,0.027,0.032,0.036l0.283,0.198l-0.764,0.179l-0.401,0.039l-0.387-0.077c-0.01-0.001-0.019-0.001-0.03-0.001  l-0.4,0.045l-0.401-0.042l-0.797-0.27c-0.009-0.003-0.019-0.005-0.029-0.005l-0.824-0.026l-0.421-0.12l-0.632-0.095l-0.331-0.276  c-0.007-0.006-0.015-0.011-0.023-0.015L9,27.282l-0.458-0.325l0.102-0.337l0.178-0.218l0.479,0.148l1.247,0.173l0.835-0.053h0.006v0  h0.004l0,0l0.007,0l0.713-0.096l0,0.002L12.521,26.671z M9.345,26.355l-0.218-0.067l0.225-0.01l0.289,0.118L9.345,26.355z   M5.322,25.589l0.088-0.018l0.448,0.042l0.919,0.375l0.413,0.253l0.293,0.208l0.552,0.756l0.132,0.388  c0.005,0.016,0.015,0.03,0.027,0.042l0.223,0.203l0,0.002c0.003,0.01,0.007,0.02,0.013,0.028l0.29,0.425l-0.355-0.314L8.074,27.67  c-0.01-0.011-0.023-0.019-0.037-0.024l-0.396-0.152c-0.013-0.004-0.027-0.005-0.042-0.005v-0.001l-0.429,0.024l-0.346,0.032  L6.53,27.302c-0.005-0.004-0.011-0.007-0.018-0.01l-0.879-1.39c-0.008-0.013-0.019-0.023-0.032-0.031l-0.348-0.211l-0.041-0.036  L5.322,25.589z M8.759,28.593l0.051,0.045l-0.164-0.05L8.759,28.593z M9.533,28.924l0.012,0.021L9.489,28.92L9.533,28.924z   M10.894,29.327l-0.382-0.083l-0.395-0.025L9.81,29l-0.031-0.053l0.35,0.032l0.383,0.182l0.372,0.103  c0.015,0.005,0.03,0.005,0.045,0.002l0.204-0.038l0.087,0.03L10.894,29.327z M19.332,29.761l3.105-0.307l0.504,0.442  c0.011,0.01,0.024,0.017,0.038,0.021l0.413,0.119l0.187,0.043l0.006,0.009c0.006,0.01,0.014,0.019,0.023,0.025l0.358,0.271  l0.061,0.026l-1.778-0.043l-0.218,0.04l-0.404-0.069l-0.871,0.017l-0.366,0.085l-0.807-0.118l-0.414-0.015l-1.726-0.486  L19.332,29.761z M21.007,30.596L21.007,30.596l-0.269-0.034l0.042-0.01l0.516-0.009L21.007,30.596z M20.152,30.678l-0.021-0.006  l-0.238-0.102l0.414,0.061L20.152,30.678z M24.791,30.63l0.062,0.027l-0.187-0.03L24.791,30.63z M28.324,31.595l0.018,0.001  l-0.014,0.001L28.324,31.595z M27.91,27.743l0.104,0.58c0.002,0.012,0.006,0.023,0.013,0.034l0.099,0.167l-0.057-0.064l-0.62-0.61  l-0.374-0.238l-0.161-0.065l-0.002-0.11c0-0.015-0.004-0.029-0.01-0.042l-0.18-0.36l-0.102-0.422l-0.032-0.092l-0.244-0.71  c-0.005-0.015-0.014-0.028-0.025-0.04l-0.01-0.01l-0.021-0.027l0.147-0.528l0.463,0.472l0.851,1.512L27.91,27.743z M26.342,24.181  l0.064,0.381l-0.023,0.084l-0.019-0.025l-0.44-0.889l-0.156-0.465l-0.042-0.213l0.042,0.032L26.342,24.181z M24.779,18.836  l-0.444-0.777l-0.001-0.016l0.255,0.239l0.168,0.351L24.779,18.836z M21.903,16.846l0.382-0.057l0.338,0.007l0.486,0.721  c0.008,0.011,0.018,0.021,0.03,0.029l0.119,0.074l-0.122-0.005l-1.123-0.555v0l-0.13-0.202L21.903,16.846z M21.716,16.965  l0.17,0.264l-0.178-0.165l-0.066-0.052L21.716,16.965z M21.34,17.034l-0.131,0.168l-0.042-0.301L21.34,17.034z M20.573,16.448  l-0.242-0.251l-0.025-0.068L20.573,16.448z M18.775,15.889l0.728,0.238l-0.026,0.047l0.352,0.194l0.596,0.547l-0.032,0.266  l-0.153-0.063l-0.103-0.035l-0.252-0.141l-0.51-0.339l0.003-0.008l-0.042-0.018l-0.143-0.095L18.775,15.889z M19.296,16.792  l0.025,0.017l-0.028-0.01L19.296,16.792z M18.538,18.469l0.217-0.769l0.276-0.289c0.008-0.009,0.015-0.019,0.02-0.03l0.164-0.392  l0.846,0.281l0.105,0.059l0.2,0.071l-0.017,0.141c-0.002,0.014,0,0.029,0.004,0.042l0.121,0.379l-0.191,0.929l-0.06-0.017v0h-0.003  v0l-0.007,0L19.1,18.788l0.444-1.249l-0.188-0.067L18.89,18.78l-0.316-0.154L18.538,18.469z M18.398,18.762l0.029,0.129  l-0.147-0.007l-0.127-0.243L18.398,18.762z M17.744,18.554l0.359,0.072l-0.144,0.076l0.044,0.084l-0.181-0.116l-0.069-0.077  l-0.014-0.041C17.741,18.552,17.742,18.554,17.744,18.554z M17.24,18.321l0.114,0.127l-0.077-0.075L17.24,18.321z M17.79,19.306  l-0.184-0.33l0.11,0.108l0.098,0.237L17.79,19.306z M18.235,19.811l0.01,0.006l-0.007,0.002L18.235,19.811z M18.007,20.091  c0.01,0,0.019-0.001,0.028-0.004l0.087-0.025l0.055,0.131l-0.311-0.127l0.121,0.024C17.994,20.09,18.001,20.091,18.007,20.091z   M14.899,19.848c0.008,0.001,0.02,0,0.031,0l0.401-0.056l0.413,0.104l0.28,0.011l0.017,0.112l0.329-0.05v0.001l0.341,0l0.649,0.203  l0.365,0.191l0.099,0.087l-0.71,0.263l-0.374-0.025l-0.342-0.224l-1.13-0.587l-0.092,0.178l1.121,0.582l0.355,0.233  c0.015,0.01,0.031,0.015,0.048,0.016l0.421,0.028c0.002,0,0.004,0,0.007,0c0.012,0,0.023-0.002,0.035-0.006l0.831-0.308l0.03,0.027  l0.248,0.29l0.117,1.026l0.043,0.38h0l0,0l0.002,0l0.002,0.021l0.048,0.14l-0.043,0.017l0.042,0.109l-0.113-0.093l-0.042-0.064  c-0.005-0.008-0.012-0.015-0.019-0.021l-0.324-0.275c-0.009-0.008-0.02-0.014-0.03-0.018l-0.079-0.029l-1.208-0.998  c-0.013-0.011-0.028-0.018-0.044-0.021l-0.067-0.013l-0.316-0.115l-0.22-0.104l-0.105-0.08l-0.958-0.864l-0.017-0.011l-0.055-0.059  L14.899,19.848z M14.24,19.44l0.006,0.006l-0.011-0.01L14.24,19.44z M18.203,23.214l-0.005-0.023l0.382,0.158l0.402,0.509  l-0.536-0.115L18.203,23.214z M17.545,23.594l0.357,0.23c0.01,0.007,0.021,0.011,0.033,0.014l0.37,0.079l0.213,0.467l-0.802-0.259  l-0.416-0.454l-0.236-0.281l0.106,0.038L17.545,23.594z M15.177,22.82l0.375,0.173l0.361,0.223c0.015,0.009,0.031,0.014,0.048,0.015  l0.053,0.002l-0.107,0.046l-0.866-0.366l-0.096-0.169L15.177,22.82z M15.653,23.387l-0.059,0.025l-0.018-0.002l-0.291-0.156  l-0.022-0.031L15.653,23.387z M14.823,24.259l0.356,0.17l0.308,0.271c0.013,0.011,0.028,0.019,0.044,0.023l0.386,0.086  c0.006,0.003,0.01,0.008,0.016,0.01l0.314,0.105l0.035,0.012c0.018,0.006,0.035,0.005,0.055,0.003l0.4-0.091l0.429,0.023l0.82-0.133  l0.003,0.004c0.006,0.009,0.014,0.017,0.022,0.023l0.674,0.517l0.001-0.001l0.013,0.01l0.36,0.19l-0.05,0.072l0.879,0.616  l-0.861-0.065l-0.19-0.305l-0.17,0.106l0.112,0.179l-0.815-0.062c-0.011-0.002-0.022,0-0.033,0.003l-0.325,0.087l-0.377-0.168  l-0.061,0.136l-0.307-0.008l-0.011,0.001l-0.359-0.079l-0.381-0.151l-0.139-0.081l-0.207-0.219l-0.381-0.404l-0.207-0.22  l-0.259-0.363l-0.376-0.338L14.823,24.259z M13.879,24.133l0.314,0.042l0.577,0.516l0.055,0.077l-0.067-0.026L13.879,24.133z   M16.031,26.338l0.266-0.02l-0.019,0.049l0.375,0.138l0.186,0.129l-0.128,0.029l-0.377-0.051l-0.598-0.269L16.031,26.338z   M9.449,25.631l0.001-0.002l0.247,0.086c0.009,0.003,0.019,0.005,0.028,0.006l0.435,0.017l1.675-0.12l0.362,0.11l0.259,0.278  l0.227,0.359c0.007,0.012,0.017,0.022,0.029,0.03l0.183,0.122l-0.644-0.158c-0.013-0.003-0.025-0.003-0.037-0.002l-0.833,0.112  h-0.003l-0.817,0.022l-0.37-0.083l-0.785-0.323c-0.014-0.006-0.033-0.007-0.042-0.008L9.076,26.09L9.449,25.631z M7.663,26.044  l0.918,0.284l-0.099,0.173L8.475,26.51c-0.008,0.01-0.014,0.022-0.018,0.035l-0.083,0.278l-0.261-0.249L7.65,26.291l-0.242-0.353  L7.663,26.044z M5.59,25.338l-0.185-0.035l-0.454-0.222l0.482,0.178L5.59,25.338z M3.007,24.97l0.054,0.032l-0.014-0.004  L3.007,24.97z M3.698,25.623l0.434,0.176c0.012,0.005,0.025,0.007,0.038,0.007c0.005,0,0.011,0,0.016-0.001l0.407-0.067l0.298-0.061  l0.088,0.006l0.157,0.137l0.342,0.209l0.694,1.098l-0.05-0.043c-0.012-0.01-0.026-0.017-0.042-0.021l-0.209-0.05l-0.16-0.07  l-0.348-0.288l-0.375-0.2c-0.009-0.004-0.019-0.008-0.029-0.01l-0.71-0.135l-0.056-0.024L3.698,25.623z M6.287,27.546l-0.122-0.16  l0.23,0.197l-0.025,0.002L6.287,27.546z M5.006,27.838l0.286,0.014l-0.196,0.031L5.006,27.838z M5.565,28.119L5.4,28.036  l1.091-0.175l0.139,0.064l-0.692,0.153l-0.312,0.042L5.565,28.119z M10.057,29.426l-0.4-0.04l-1.532-0.681l0.008-0.01l0.358,0.054  l0.394,0.121l0.771,0.345l0.38,0.191l0-0.001c0.012,0.006,0.024,0.01,0.038,0.011l0.044,0.003L10.057,29.426z M11.248,29.455  l0.067-0.015l0.731,0.055l-0.737-0.018L11.248,29.455z M17.102,29.933l1.463,0.41l-0.654-0.02l-0.394-0.105L17.102,29.933z   M19.327,30.824l-0.345-0.162l0.294,0.032l0.352,0.002l0.124,0.104l-0.242,0.074L19.327,30.824z M21.672,30.82l-0.428-0.064  l0.789-0.146l0.086,0.015L21.672,30.82z M26.551,31.838l-0.795-0.081l-0.005-0.003l-0.458-0.316l-0.478-0.451l-0.146-0.157  l0.232,0.037c0.008,0.001,0.018,0.001,0.027,0l0.338-0.038l0.299,0.111c0.01,0.004,0.021,0.006,0.031,0.006l0.284,0.01l0.385,0.093  l0.105,0.036l0.275,0.291l0.001-0.001l0.014,0.014l0.445,0.315L26.551,31.838z M27.667,31.775l0.131-0.032l0.383,0.064  c0.008,0.001,0.017,0.002,0.025,0.001l0.071-0.006l0.167,0.11l-0.304,0.014L27.667,31.775z M29.802,31.851l-0.808,0.023l-0.37-0.083  l-0.028-0.018l0.049-0.004l0.387-0.121l0.392,0.029l0.441,0.152L29.802,31.851z M32.926,32.47L32.6,32.197l0.771,0.414l0.482,0.649  l0.148,0.552l-0.36-0.563L32.926,32.47z M39.432,40.819l-0.851,2.387l-1.236,3.59l-0.895,2.38l0.245-2.42l-0.199-0.02l-0.25,2.473  l-0.46-2.575l-1.004-4.833l-0.122-2.462l0.071-1.242v-1.252l-0.361-2.422l0.539-1.409l0.238-0.695l0.105-0.692l0.223-0.673  l0.812-1.966l0.559-0.538l0.214-0.349l0.293-0.285l0.789-0.235l1.129,0.1l0.065,0.032c0.014,0.007,0.028,0.01,0.044,0.01h0.001  l0.295-0.006l0.142,0.013l0.396,0.082c0.014,0.002,0.027,0.002,0.041,0l0.057-0.012l0.602,0.007l1.67,0.369l0.424,0.058l0.424-0.001  c0.016,0,0.031-0.004,0.045-0.011l0.001,0l0,0l0,0l0.379-0.19c0.009-0.004,0.015-0.011,0.022-0.018l0.16-0.102l-0.179,1.828  l-0.49,3.108l-0.313,1.291L39.432,40.819z M45.805,33.256l-0.554,0.13l-0.483,0.242l-1.392,0.381l0.542-0.842l0.276-0.395  c0.005-0.008,0.01-0.017,0.013-0.025l0.148-0.437l0.289-0.33l0.454-0.185l0.332-0.233l0.818-0.192l1.188-0.425l0,0l0.814-0.188  l0.851,0.037l1.242-0.142c0.01-0.001,0.02-0.004,0.029-0.008l0.368-0.167l0.718-0.011l-1.037,0.59l-1.248,0.303l-0.383,0.196  l0.001,0.001c-0.012,0.006-0.022,0.013-0.03,0.022l-0.288,0.329l-0.244,0.325l-0.346,0.185l-1.595,0.546v0  c-0.007,0.002-0.014,0.005-0.02,0.009L45.805,33.256z M49.606,32.28l-0.805,0.234l-0.842,0.13l-0.007,0.001l-0.01-0.036l0.021-0.007  l0.38-0.202c0.013-0.007,0.024-0.017,0.033-0.028l0.253-0.337l0.264-0.3l0.371-0.099l0.424-0.027c0.011,0,0.022-0.003,0.033-0.008  l0.758-0.329l0.455,0.027l0.214,0.028l-0.138,0.092l-0.313,0.272L49.606,32.28z M51.5,31.333l0.05-0.033l0.945-0.185l1.256-0.06  l0.514,0.059l-0.331,0.211l-0.387,0.125l-0.075,0.02l-0.263-0.008l-0.835-0.053v0.004l-0.842-0.083  C51.518,31.33,51.51,31.332,51.5,31.333z M53.966,31.526l0.041-0.013c0.009-0.002,0.017-0.006,0.023-0.011l0.338-0.216l0.375-0.046  l0.824,0.309l-0.223,0.073l-0.08,0.009L54.92,31.55l-0.012-0.003c-0.009-0.002-0.017-0.003-0.025-0.003l-0.835-0.004L53.966,31.526z   M60.02,30.895l-0.393,0.133l-0.105,0.024l-0.378-0.06l0.069-0.041l-0.102-0.172l-0.273,0.164l-0.019-0.003l0.307-0.207l0.717,0.118  l0.379,0.025L60.02,30.895z"></path></svg>