<svg fill="#FFFFFF" xmlns="http://www.w3.org/2000/svg" xmlns:xlink="http://www.w3.org/1999/xlink" version="1.1" x="0px" y="0px" viewBox="0 0 65 65" enable-background="new 0 0 65 65" xml:space="preserve"><path d="M57.351,27.186l-0.858,0.203l0.176-0.14c0.008-0.006,0.015-0.014,0.021-0.022l0.606-0.908l-0.004-0.003l0.591-0.289  l-0.075-0.154l0.147-0.023c0.01-0.001,0.02-0.004,0.029-0.009l0.477-0.239l0.514-0.186l-0.068-0.188l-0.524,0.191l-0.474,0.237  l-1.604,0.247c-0.017,0.002-0.033,0.01-0.047,0.021l-0.293,0.235l-0.034-0.025l-0.095,0.128l-0.229,0.183l-0.408,0.042l0.12-0.244  l1.201-1.617l0.265-0.125l-0.086-0.181l-0.186,0.088l-0.052-0.038l-0.071,0.096l-0.056,0.026l-0.472-0.116l-0.728-0.043l0.012-0.038  l0.27-0.098l-0.068-0.188l-0.131,0.047l0.001-0.003l0.181-0.355l0.209-0.147l-0.115-0.164l-0.158,0.112l-0.046-0.023l-0.044,0.086  l-0.185,0.13l-0.509,0.145c-0.012,0.003-0.021,0.008-0.031,0.015l-0.503,0.365l0.028-0.323l-0.023-0.213l0.043,0.009  c0.007,0.001,0.014,0.002,0.021,0.002c0.005,0,0.011,0,0.016-0.001l0.056-0.009l0.396,0.138l0.066-0.189l-0.042-0.015l0.053-0.008  l0.53-0.128l-0.017-0.069l0.83-0.313l0.479-0.264l-0.096-0.175l-0.104,0.058l-0.042-0.142l-1.083,0.322l-0.058-0.187l-0.509,0.154  l-0.436-0.188l0.302-0.304l1.523-0.505l0.507-0.111l0.495,0.155l0.061-0.19l-0.521-0.163c-0.016-0.005-0.035-0.005-0.052-0.002  l-0.543,0.12l-1.556,0.516c-0.015,0.005-0.028,0.013-0.04,0.024l-0.077,0.078l-0.127-0.143l-0.39,0.345l-0.295,0.067l-0.129,0.001  l-0.288-0.006l-0.056-0.008l0.112-0.523l0.163-0.182l0.03-0.012l0.001,0.001l0.475-0.306l0.384-0.364l1.984-0.869  c0.012-0.005,0.022-0.013,0.031-0.021l0.366-0.376l1.375-0.89l-0.109-0.168l-1.392,0.903l-0.369,0.376l-1.965,0.861l0.204-0.214  l0.563-0.936l-0.172-0.104l-0.549,0.918l-0.084,0.087l0.031-0.857l0.409-1.611l0.004-0.546l-0.199-0.001l-0.001,0.522l-0.409,1.607  l-0.041,1.069l-0.035,0.068l-0.433,0.452l-0.179,0.199l0.267-1.246l-0.019-0.004l0.225-0.572l0.164-0.521l-0.191-0.061l-0.161,0.515  l-0.394,1.006l-0.123,0.228l-0.123-0.057l0.238-0.846l0.226-0.505c0.005-0.012,0.008-0.026,0.008-0.04l0.006-0.546l-0.192-0.002  l-0.079-0.468l0.11,0.027c0.008,0.002,0.016,0.003,0.023,0.003c0.005,0,0.011,0,0.016-0.001l0.521-0.083l-0.031-0.197l-0.501,0.079  L52.95,18.3l-0.006-0.037l0.067-0.023l-0.064-0.189l-0.037,0.013l-0.115-0.678l-0.197,0.033l0.121,0.71l-0.197,0.067l-0.514-0.088  c-0.014-0.002-0.031-0.001-0.047,0.003l-0.219,0.07l-0.753-0.036l-0.43,0.03l-0.085,0.006l-0.438-0.21l0.095-0.11l-0.152-0.13  l-0.129,0.15l-0.336-0.161c-0.01-0.004-0.02-0.005-0.03-0.007l0.054-0.068l3.445-2.855c0.009-0.007,0.016-0.015,0.021-0.024  l0.01-0.015l0.214-0.112l0.427-0.331L54.104,14c0.012-0.008,0.021-0.019,0.029-0.031l0.281-0.468c0.006-0.009,0.01-0.02,0.012-0.031  l0.221-1.069l-0.195-0.04l-0.218,1.052l-0.261,0.435l-0.438,0.299L53.25,14.37l0.042-0.068l-0.17-0.105l-0.251,0.405l-0.714,0.373  l-0.064,0.029l-0.019-0.094l-0.546,0.108l-1.066,0.325l-0.486,0.286l-0.813,0.701L48.665,16.5c-0.015,0.005-0.028,0.014-0.039,0.024  l-1.7,1.73l0.004-0.112l0.063-0.319c0.001-0.009,0.002-0.018,0.001-0.026l-0.035-0.481l0.004-0.138l0.189-2.097l-0.042-1.065  l0.471-0.958c0.007-0.014,0.011-0.03,0.01-0.045l-0.009-0.549l-0.044-1.091l-0.199,0.008l0.044,1.088l0.008,0.522l-0.471,0.958  c-0.007,0.015-0.011,0.031-0.01,0.048l0.028,0.706l-0.309-0.652c-0.004-0.008-0.01-0.016-0.016-0.022l-1.422-1.639l-0.295-0.459  l-0.168,0.108l0.304,0.471l1.421,1.64l0.45,0.951l-0.073,1.067l-0.146,0.026l0.096,0.516l-0.012,0.349l-0.013,0.184l-0.001,0.008  l0,0v0.002h0.001l-0.001,0.014l0.004,0.059l-0.026,0.784l-0.084,0.427l-0.688,0.7c-0.01,0.007-0.021,0.014-0.027,0.024l-0.277,0.404  l-0.032,0.046l0,0v0c-0.008,0.011-0.014,0.023-0.016,0.037l-0.268,1.298l-0.386,0.119L44.5,21.428l-0.623,0.064l0.039-0.136  c0.005-0.014,0.006-0.029,0.003-0.044l-0.052-0.314l0.025-0.218c0.002-0.018-0.001-0.035-0.008-0.051l-0.145-0.335l0.055-0.106  l0.004-0.009l0.004-0.007l0.001-0.002l0.874-1.979c0.004-0.009,0.006-0.018,0.008-0.028l0.28-2.182l-0.021-0.521l0.23-0.476  l0.2-0.515l0.165-0.521l-0.191-0.061l-0.162,0.515l-0.194,0.502l-0.238,0.491c-0.008,0.015-0.011,0.031-0.01,0.047l0.022,0.529  l-0.278,2.151l-0.417,0.945l0.118-0.487c0.003-0.013,0.003-0.027,0.001-0.04l-0.087-0.517l0.421-1.561  c0.003-0.012,0.004-0.024,0.003-0.036l-0.056-0.543l-0.199,0.021l0.054,0.524l-0.422,1.564c-0.004,0.014-0.004,0.028-0.002,0.042  l0.088,0.519l-0.359,1.486l-0.178-0.414c-0.005-0.011-0.011-0.021-0.02-0.029l-0.365-0.387l-0.252-0.469l-0.176,0.095l0.258,0.481  c0.004,0.008,0.009,0.015,0.016,0.021l0.357,0.378l-0.125,0.119l0.327,0.346l0.046,0.107l-0.125,0.246l-0.028,0.055l0,0v0l0,0  l-0.003,0.007l-0.341,0.81l-0.1-0.006c-0.026-0.004-0.036,0.002-0.051,0.01l-0.49,0.239c-0.012,0.006-0.022,0.014-0.031,0.024  l-0.314,0.358l-0.057-0.134l-0.065-0.444L41.894,21.5l-0.177-0.438l-0.04-1.074c0-0.01-0.002-0.02-0.005-0.029l-0.18-0.518  l-0.2-0.533l-0.304-0.454c-0.009-0.014-0.022-0.025-0.037-0.033l-1.02-0.529l0.771-0.656l0.34-0.407l0.455-0.284l0.432-0.301  l1.043-0.259c0.014-0.004,0.027-0.01,0.039-0.02l0.862-0.709l0.65-0.876l-0.16-0.119l-0.634,0.858l-0.828,0.677l-0.994,0.247  l0.358-0.309l0.735-0.771l1.022-0.3l-0.057-0.192l-1.048,0.308c-0.017,0.005-0.032,0.015-0.044,0.027l-0.747,0.784l-0.423,0.364  l-0.354,0.391l-0.437,0.328l0.001,0c-0.007,0.005-0.013,0.01-0.018,0.016l-0.338,0.407l-0.82,0.697l-0.039-0.021l0.121-0.51  c0.003-0.013,0.003-0.026,0.001-0.04l-0.097-0.558l0.001,0l-0.001-0.003l0,0l-0.002-0.004l-0.21-0.536l0.401-1.034l0,0l0.307-0.473  l0.311-0.741l0.74-1.11l0.903-0.576c0.009-0.006,0.018-0.013,0.024-0.022l1.027-1.276l-0.156-0.125l-1.017,1.263l-0.613,0.391  l0.327-0.668l-0.18-0.088l-0.471,0.965l-0.656,0.902l-0.1,0.237l-0.153,0.23c-0.005,0.008-0.01,0.017-0.013,0.025l-0.161,0.508  l-0.27,0.419l-0.019,0.028l0,0v0l0.002,0.001l-0.011,0.017l-0.331,0.851l-0.025-0.065l0.175-0.341  c0.004-0.008,0.007-0.017,0.009-0.026l0.212-1.046l0.328-0.406c0.007-0.009,0.013-0.02,0.017-0.03l0,0l0.355-1.033  c0.004-0.012,0.006-0.024,0.005-0.037l-0.015-0.348l-0.002-0.222l-0.01-0.04l-0.021-0.472l0.029-0.525l0.284-1.068l0.07-0.542  l-0.199-0.025l-0.067,0.529l-0.261,0.985l-0.073-0.991c-0.001-0.018-0.007-0.035-0.017-0.049l-0.308-0.451l-0.166,0.112l0.293,0.429  l0.121,1.623l0.115,0.463l0.012,0.281l0.001,0.293l-0.326,0.986l-0.007,0.019l-0.331,0.41c-0.01,0.013-0.017,0.027-0.02,0.043  l-0.215,1.057l-0.088,0.171l-0.361-0.923l-0.602-0.926l-0.272-0.328l-0.059-0.352l-0.005-0.546l-0.199,0.002l0.006,0.561  l0.005,0.031l-0.822-0.991l0.143-0.228l0.552-0.51l0.418-0.309l0.516-0.063c0.015-0.001,0.027-0.006,0.039-0.013l0.469-0.279  l-0.102-0.172l-0.451,0.268l-0.521,0.064c-0.018,0.002-0.034,0.008-0.048,0.019l-0.447,0.331l-0.026,0.024l0.318-0.511l0.348-0.411  l0.771-0.779l0.032-0.036l0.756-0.187l0.499-0.222c0.013-0.006,0.024-0.014,0.033-0.025l0.346-0.387l1.021-0.345l0.492-0.236  l-0.086-0.181l-0.481,0.232L40.53,8.455c-0.017,0.005-0.031,0.015-0.042,0.028l-0.35,0.391l-0.463,0.207l-0.452,0.112l0.462-0.511  c0.011-0.011,0.019-0.025,0.022-0.041l0.145-0.526l-0.193-0.053l-0.138,0.503l-0.645,0.713l-0.482,0.12l0.871-1.006l0.304-0.433  l1.342-0.939l0.364-0.376l0.442-0.282l1.061-0.135l-0.025-0.198L41.67,6.167c-0.015,0.002-0.028,0.007-0.041,0.015L41.15,6.49  l-0.368,0.378l-1.343,0.937c-0.009,0.007-0.018,0.015-0.024,0.025L39.108,8.27l-1.054,1.216l-1.142,0.503l-0.269,0.118l-0.059,0.026  l-0.527,0.052c-0.011,0.001-0.021,0.004-0.031,0.008l-0.745,0.338l-0.013-0.033l1.59-1.046c0.01-0.006,0.018-0.013,0.024-0.022  l0.327-0.421l0,0L37.6,8.626c0.009-0.008,0.016-0.019,0.021-0.029l0.224-0.484l0.687-0.814l0.438-0.302  c0.012-0.008,0.021-0.019,0.028-0.03l0.564-0.921l1.353-1.715l-0.156-0.124l-1.359,1.725l-0.561,0.913l-0.432,0.297  c-0.008,0.005-0.014,0.011-0.02,0.018l-0.549,0.651l0.672-2.392l0.121-0.535l0.109-0.556l-0.008-0.546l-0.199,0.003l0.01,0.525  l-0.107,0.533l-0.12,0.528l-0.879,3.128l-0.367,0.369l0.001,0l-0.009,0.008l-0.325,0.417l-1.544,1.016l-0.182-0.417l-0.184,0.08  l0.195,0.449l-1.395,0.917l-0.373-0.592c-0.007-0.011-0.016-0.021-0.026-0.028l-0.437-0.314l-0.133-0.114l-0.278-0.263l-1.123-1.194  l-0.37-0.38l-0.26-0.523l1.665-2.485l0.436-0.294c0.01-0.007,0.018-0.015,0.024-0.024l0,0l0.633-0.865l0.936-0.545l0.426-0.317  l1.017-0.354c0.015-0.005,0.029-0.014,0.04-0.026l1.112-1.203L36.77,1.68l-1.096,1.184l-1.008,0.351  c-0.01,0.003-0.019,0.008-0.026,0.014l-0.428,0.32l-0.715,0.416l0.148-0.216c0.008-0.011,0.014-0.024,0.017-0.038l0.206-1.078  l0.145-1.078l0.097-0.538l-0.197-0.035l-0.097,0.542l-0.145,1.076l-0.202,1.052L33.17,4.089l-0.571,0.906l-0.435,0.293  c-0.011,0.007-0.02,0.017-0.027,0.027l-1.528,2.284l0.012-0.035c0.006-0.017,0.007-0.034,0.003-0.052l-0.212-1.05l0.114-0.512  c0.002-0.012,0.002-0.025,0-0.037h0l-0.083-0.54c-0.001-0.009-0.004-0.018-0.007-0.026L29.65,3.593l-0.526-1.769l-0.191,0.057  L29.296,3.1l-0.174-0.173l-0.917-0.593c-0.009-0.006-0.019-0.01-0.029-0.013l-0.529-0.136l-0.05,0.193L28.11,2.51l0.887,0.571  l0.372,0.374l0.099,0.221l0.083,0.28L29.606,4.5c0.002,0.016,0.007,0.032,0.017,0.045l0.598,0.891l0.105,0.494l-0.114,0.512  c-0.003,0.014-0.003,0.028,0,0.042l0.208,1.026l-0.011-0.021l-0.179,0.089l0.105,0.212l-0.147,0.44l-0.188,0.282L29.8,9.036  L29.683,9.57h0.001c-0.003,0.013-0.004,0.026-0.002,0.039l0.094,0.518l-0.56,2.67l-0.032,1.068l-0.267,0.498l0.001,0  c-0.004,0.008-0.009,0.017-0.011,0.025l-0.375,1.716l-0.155,0.566c-0.003,0.014-0.004,0.028-0.002,0.043l0.062,0.369l-0.177-0.09  l-0.072-0.183l-0.163,0.064l-0.012-0.006l-0.276-0.755l-0.526-1.547l-0.247-0.771h0.001l-0.184-0.831  c-0.003-0.012-0.008-0.024-0.015-0.034l-0.309-0.463l-0.139-0.529l-0.082-0.542l0.399-1.082l0.059-0.565l-0.061-0.517l0.187-0.471  l0.007-0.009L27.473,7.9c0.008-0.011,0.014-0.023,0.018-0.036l0.012-0.047l0.167-0.485l0.03-0.295l0.055-0.216l0.271-0.436  l1.265-1.014c0.008-0.007,0.015-0.014,0.021-0.023l0.301-0.456l-0.167-0.11l-0.292,0.442l-1.266,1.015  c-0.009,0.007-0.017,0.016-0.022,0.025l-0.102,0.164l0.024-0.23l0.234-0.377c0.005-0.008,0.009-0.017,0.012-0.027l0.425-1.582  l-0.193-0.052l-0.421,1.568l-0.01,0.017l0.116-1.129c0.001-0.015,0-0.03-0.006-0.045l-0.183-0.498l-0.032-0.531  c0-0.013-0.004-0.026-0.01-0.039l-0.242-0.489l-0.18,0.089l0.233,0.471l0.031,0.525c0,0.01,0.002,0.02,0.006,0.029l0.18,0.49  l-0.154,1.511l-1.116,1.795l-0.054-0.384l-0.242-2.17c-0.002-0.015-0.007-0.029-0.015-0.042l-0.289-0.463l-0.17,0.105l0.277,0.444  l0.24,2.151L26.3,8.104l0.059,0.543h0v0.001l0.062,0.528l-0.167,1.062l-0.218,1.128h0.001c-0.002,0.011-0.003,0.023-0.001,0.034  l0.088,0.578l0.146,0.555c0.003,0.011,0.007,0.021,0.014,0.03l0.308,0.461l0.025,0.115l-0.049-0.091l-0.165,0.089l-0.023-0.026  l-1.403-1.23l-0.621-1.071c-0.005-0.009-0.012-0.018-0.021-0.025l-0.479-0.419l0-0.001L22.306,9.26l-0.987-0.468  c-0.014-0.006-0.027-0.004-0.045-0.01l-1.22,0.022l-0.512-0.144l-0.531-0.02l-0.522-0.097l-2.429-1.253l-0.384-0.117l-0.051-0.097  l-0.396-2.126l-0.135-1.084c-0.002-0.016-0.007-0.031-0.017-0.044l-0.614-0.903l-0.165,0.112l0.6,0.883l0.133,1.066l0.4,2.147  c0.001,0.01,0.005,0.02,0.01,0.028l0.057,0.107l-0.018,0.059l0.059,0.018l0.159,0.298c0.006,0.012,0.015,0.022,0.024,0.03  l1.137,0.945l-0.363-0.004l-1.552-0.489L14.426,7.98l-0.509-0.196l-0.072,0.187l0.519,0.2l0.522,0.143l1.563,0.493  c0.01,0.003,0.019,0.005,0.029,0.005l0.436,0.003l-0.011,0.153l0.556,0.037l0.266-0.022l0.253,0.059v0  c0.009,0.002,0.023,0.004,0.024,0.003l0.193-0.003L18.4,9.115c0.021,0.008,0.042,0.009,0.063,0.002l0.303-0.088l0.819-0.015  l2.559,0.588l0.015-0.067l1.563,0.98l0.013,0.009l0.454,0.399l0.621,1.071c0.005,0.009,0.012,0.018,0.021,0.025l1.406,1.232  l0.542,0.613l0.242,0.761l0.528,1.551l0.204,0.556l-0.718-0.366l-0.091,0.178l0.291,0.148l-0.038,0.008l0.208,0.916l-0.287-0.056  l-0.038,0.196l0.373,0.072l0.348,1.531l0.235,1.244l-0.5-0.531l-0.421-0.313l-0.263-0.455l-0.173,0.101l0.273,0.473  c0.007,0.012,0.016,0.022,0.027,0.03l0.424,0.313l0.703,0.749v0c0.001,0.008,0.004,0.017,0.008,0.024l0.234,0.494  c0.004,0.008,0.009,0.016,0.016,0.023l0.307,0.345l0.021,0.052c0.006,0.014,0.014,0.026,0.025,0.036l0.104,0.097l-0.179,0.206  c-0.006,0.007-0.012,0.016-0.016,0.024l-0.452,1.023l-0.059,0.36l-0.283,0.086l0.019-0.083c0.002-0.011,0.003-0.021,0.002-0.033  l-0.006-0.061l0.259-0.981c0.004-0.017,0.004-0.034,0-0.05l-0.136-0.529l-0.129,0.033l0.001-0.033l-0.2-0.008l-0.01,0.251  l-0.008-0.001l-0.066,0.533l-0.24,1.107l-0.003,0.011l-0.01,0.003l-1.319,0.592l-0.017-0.07l0.177-0.292  c0.006-0.01,0.01-0.021,0.013-0.033l0.206-1.05l1.25-1.742l0.441-0.289l-0.109-0.167l-0.457,0.299  c-0.01,0.007-0.02,0.015-0.026,0.025l-1.16,1.617l-0.063-0.19l0.001-0.275l0.235-0.467c0.005-0.01,0.008-0.021,0.01-0.033  l0.067-0.56l-0.029-0.545l-0.2,0.011l0.03,0.528l-0.064,0.525l-0.193,0.384l-0.248-0.741l-0.529-2.119l-0.194,0.049l0.531,2.126  l0.383,1.147l-0.001,0.2l-0.169,0.497l-0.079,0.198l0.01-0.406c0-0.001,0-0.002,0-0.003v-0.008l-0.046-0.544  c-0.001-0.014-0.005-0.027-0.012-0.039l-0.259-0.481c-0.006-0.012-0.015-0.022-0.025-0.031l-0.466-0.374l-0.138-0.505l-0.193,0.053  l0.067,0.24l-0.973-0.78l-0.125,0.156l1.2,0.963l0.245,0.456l0.283,0.458l0.243,0.458l-0.013,0.521c0,0.009,0.001,0.017,0.003,0.026  l0.051,0.214l-0.073,0.184l-0.061-0.062l-0.216-0.482c-0.006-0.013-0.014-0.024-0.024-0.033l-0.81-0.729l-0.391-0.372L23.706,22  c-0.008-0.01-0.019-0.018-0.031-0.023l-0.899-0.446l0.047-0.676l0.484-2.129l-0.195-0.045l-0.486,2.146l-0.044,0.63l-0.114-0.03  l-0.156-0.454l-0.017-0.074l0.19-1.408l0.225-0.674l0,0l0.233-0.497l0.006-0.021l0.756-1.389l0.407-0.3l1.057-0.298l0.475-0.271  l-0.099-0.174l-0.452,0.261l-1.052,0.293c-0.012,0.003-0.022,0.008-0.032,0.016l-0.423,0.312l0.252-0.37l-0.165-0.112l-0.242,0.355  l0.106-0.409c0.003-0.013,0.004-0.026,0.002-0.039l-0.075-0.541l-0.198,0.027l0.072,0.521l-0.241,0.929l-0.04,0.058  c-0.007,0.01-0.012,0.021-0.015,0.033l-0.105,0.448l-0.031,0.102l-0.421,0.976l-0.159,0.494l-0.008,0.025l0,0v0l0.001,0  l-0.005,0.017l-0.023,0.171l-0.117,0.351l0.003,0.001l-0.008,0.023l-0.085,1.089c-0.001,0.014,0,0.027,0.005,0.041l0.029,0.086  l0.074,0.325l-0.077-0.021l-0.154-0.413l-0.188,0.07l0.084,0.223l-0.516-0.5c-0.012-0.012-0.027-0.02-0.043-0.024l-1.051-0.295  l-0.055,0.192l1.028,0.288l0.313,0.304l-0.438-0.117l-0.052,0.193l0.782,0.207l0.196,0.19l0.322,0.857l0.219,1.048l-0.025,0.146  l-0.058,0.131l0.033,0.015l-0.228,1.306l0.002,0l-0.003,0.021l0.005,0.137l-0.017,0.012l-0.414-0.426l0.253-0.417l-0.171-0.104  l-0.171,0.281l-0.082-0.292c-0.002-0.009-0.006-0.019-0.012-0.027l-0.283-0.445l-0.212-1.036l0.137-1.066l-0.198-0.025l-0.139,1.083  c-0.001,0.011-0.001,0.022,0.001,0.033l0.219,1.07c0.002,0.012,0.007,0.023,0.014,0.034l0.225,0.354l-0.87-0.504l-0.278-0.412  l-0.044-0.518c-0.001-0.017-0.007-0.034-0.017-0.048l-0.306-0.452l-0.166,0.112l0.291,0.43l0.044,0.518  c0.001,0.017,0.007,0.034,0.017,0.048l0.306,0.453c0.009,0.012,0.02,0.023,0.033,0.03l0.924,0.536l0.243,0.377l-0.242,0.398  l-0.263,0.408l-0.173-0.012l-0.073-0.812c-0.001-0.013-0.005-0.025-0.011-0.037l-0.498-0.972c-0.008-0.016-0.02-0.029-0.034-0.038  l-0.229-0.15l-0.228-0.15c-0.001,0-0.002,0-0.003-0.001l-0.005-0.003l-0.947-0.498L18.58,22.61l-0.837-0.702  c-0.008-0.007-0.017-0.012-0.027-0.016l-0.485-0.197l-0.716-0.766l-0.28-0.469l-0.172,0.103l0.293,0.486l0.744,0.799  c0.01,0.01,0.022,0.019,0.036,0.024l0.491,0.199l0.81,0.675l0.33,0.435c0.009,0.012,0.02,0.021,0.033,0.028l0.329,0.172  l-0.306-0.123l-0.373-0.37c-0.008-0.008-0.018-0.015-0.028-0.02l-1.481-0.695l-0.491-0.239l-0.088,0.18l1.96,0.928l0.375,0.373  c0.009,0.01,0.021,0.017,0.033,0.022l0.529,0.21l0.518,0.078l0.318,0.208l0.098,0.064l0.477,0.932l0.069,0.761l-0.045-0.003  l-1.054-0.261l-0.514-1.063c-0.005-0.011-0.012-0.021-0.021-0.029l-0.394-0.379c-0.009-0.009-0.02-0.016-0.032-0.021l-0.505-0.206  l0,0.001l-0.015-0.006l-1.064-0.247c-0.003-0.001-0.007,0-0.011,0l-0.368-0.281l-0.633-1.458l-0.103-0.536l-0.196,0.038l0.109,0.557  l0.65,1.503c0.007,0.016,0.018,0.03,0.031,0.04l0.243,0.185l-0.822,0.17l-1.057,0.094l-0.46-0.127l-0.054,0.192l0.478,0.132  c0.012,0.003,0.024,0.006,0.036,0.003l1.086-0.097l1.014-0.208c0.004,0.001,0.007,0.004,0.011,0.005l1.051,0.226l0.487,0.199  l0.367,0.353l0.434,0.897l-0.285-0.07l-0.048,0.194l0.445,0.11l0.199,0.411L19.631,26l-0.975-0.458  c-0.01-0.005-0.021-0.008-0.032-0.009l-0.86-0.09l-0.141-0.237c-0.006-0.01-0.014-0.02-0.024-0.027l-0.418-0.33l-0.644-0.866  l-0.16,0.119l0.651,0.877c0.005,0.007,0.011,0.014,0.018,0.019l0.414,0.326l0.055,0.093l-0.521-0.055l-0.021,0.199l0.669,0.07  l0.633,1.066l0.16,1.453l-0.394-1.44c-0.003-0.012-0.009-0.023-0.016-0.033l-0.324-0.439l-0.161,0.118l0.006,0.008L17.396,26.4  l0.244,1.064c0.003,0.013,0.009,0.026,0.017,0.037l0.625,0.845l0.213,1.07l0.128,0.431l0.009,0.085  c0.002,0.017,0.008,0.033,0.019,0.047l0.622,0.862l0.017,0.023c0,0,0,0,0,0l0,0l0,0c0.008,0.012,0.019,0.021,0.031,0.028l0.59,0.338  l0.026,0.229l0.019,0.169l-0.072,0.504l-0.285,0.44c-0.005,0.008-0.009,0.016-0.012,0.025l-0.022,0.074l-0.127-0.055l-0.003-0.011  c-0.003-0.009-0.007-0.019-0.012-0.027l-0.29-0.463c-0.009-0.015-0.022-0.027-0.038-0.035l-1.125-0.598l-0.204-0.381  c-0.007-0.014-0.018-0.025-0.031-0.034h0l0,0L17.65,31.01l-0.353-0.249l-0.059-0.059l-0.489-1.04l-0.181,0.085l0.28,0.595  l-0.162-0.076l-0.174-0.208l-0.289-0.436l-0.365-1.029l-0.188,0.067l0.376,1.05l0.24,0.366l-0.872-0.412l-0.475-0.269  c-0.012-0.007-0.026-0.011-0.04-0.013l-0.518-0.05l-0.425-0.299L13.842,29.2l0.447,0.314c0.014,0.01,0.031,0.016,0.048,0.018  l0.522,0.05l0.463,0.262l1.24,0.586l0.141,0.168c0.006,0.007,0.013,0.014,0.021,0.019l0.374,0.257l0.093,0.199l-0.023-0.013  c-0.011-0.006-0.022-0.009-0.035-0.011l-0.523-0.065l-1.399-0.788l-0.884-0.641c-0.008-0.006-0.017-0.011-0.027-0.014l-1.011-0.34  l-0.363-0.375c-0.007-0.008-0.016-0.014-0.025-0.019l-0.482-0.256l-0.094,0.177l0.468,0.249l0.369,0.381  c0.011,0.012,0.025,0.021,0.04,0.025l1.02,0.343l0.882,0.638l1.226,0.69l-0.268,0.084l-0.101-0.279l-0.188,0.068l0.098,0.27  l-0.856,0.268l-0.435-0.112l-0.382-0.332l-0.536-0.914l-0.111-0.518l-0.195,0.042l0.114,0.534c0.002,0.01,0.006,0.021,0.011,0.03  l0.552,0.942c0.006,0.009,0.013,0.018,0.021,0.025l0.413,0.357c0.012,0.01,0.025,0.017,0.041,0.021l0.485,0.125  c0.008,0.002,0.017,0.003,0.025,0.003c0.01,0,0.02-0.001,0.03-0.005l0.892-0.279l0.507,1.399l-0.036-0.002l-0.025-0.009  l-0.197-0.154c-0.01-0.008-0.022-0.015-0.036-0.018l-0.527-0.141l-0.012,0.045l-0.199-0.069l-0.354-0.381  c-0.008-0.009-0.019-0.017-0.029-0.022l-0.986-0.479l-0.485-0.21l-1.198-1.093c-0.007-0.007-0.015-0.012-0.024-0.016l-0.503-0.243  l-1.014-0.337l-0.463-0.29l-0.106,0.17l0.484,0.3l1.023,0.342l0.478,0.232l1.2,1.094c0.008,0.008,0.018,0.014,0.028,0.018  l0.497,0.215l0.965,0.469l0.16,0.172l-0.806-0.137l-0.539,0.01l-0.563-0.024L12.635,32.3l0.027,0.198l0.522-0.074l0.551,0.025  l0.527-0.012l1.061,0.181l0.967,0.334l0.192,0.15l0.229,0.244l-0.502,0.164l-1.074,0.05l0.009,0.199l1.087-0.05  c0.009,0,0.018-0.002,0.027-0.005l0.496-0.162l0.096,0.016l0.496,0.847l0.587,1.135l-1.023-0.082l-0.467-0.253l-0.472-0.22  l-0.954-1.275l-0.125-0.51l-0.194,0.047l0.13,0.53c0.003,0.014,0.009,0.025,0.017,0.036l0.981,1.312  c0.01,0.014,0.023,0.024,0.038,0.031l0.49,0.228l0.297,0.16l-0.282,0.117l-0.487-0.123l-0.929-0.45l-0.199-0.069L14.729,35  l-0.381-0.392c-0.008-0.009-0.018-0.016-0.028-0.021l-0.492-0.236l-0.087,0.18l0.477,0.229l0.109,0.111l-0.398-0.138l-0.599-0.265  l0.005-0.067l-0.185-0.013l-0.7-0.31l-0.44-0.321l-1.071-1.134l-0.027-0.037l-0.042-0.036L10.54,32.2l-0.253-0.458l-0.028-0.504  l0.164-0.5l-0.19-0.063l-0.169,0.519c-0.004,0.012-0.005,0.024-0.004,0.037l0.03,0.545c0,0.015,0.005,0.03,0.012,0.043l0.077,0.137  l-0.095-0.081l-0.13,0.152l0.782,0.667l0.052,0.055l0.621,0.855c0.007,0.011,0.017,0.02,0.027,0.026l0.453,0.286l0.003,0.003  l0.441,0.321l0.001-0.002l0.017,0.013l0.771,0.342l-0.011,0.164l-0.039,0.017l0.032,0.076l-0.006,0.095l0.011,0.197l-0.286,0.002  l0,0.139l-0.04,0.006l-0.526,0.017l-0.511-0.083l-0.497-0.151l-1.423-0.811c-0.014-0.008-0.03-0.013-0.046-0.013L9.253,34.23  l-0.481-0.214L8.69,34.2l0.499,0.222c0.012,0.005,0.024,0.008,0.037,0.008l0.521,0.018l1.194,0.678l-0.303-0.01l-0.007,0.199  l0.533,0.017l0.536,0.087l0.003,0.001l0.52,0.084l0-0.002l0.019,0.003l0.558-0.017l0.322-0.051l0.076,1.409l-0.502-0.167  l-0.251-0.041l-0.936-0.847l-0.473-0.272c-0.01-0.006-0.022-0.01-0.034-0.012l-1.078-0.172l-0.031,0.197l1.06,0.169l0.439,0.251  l0.708,0.641l-0.492,0.046l-0.449-0.135l-0.058,0.191l0.467,0.141c0.012,0.004,0.025,0.004,0.038,0.004l0.489-0.046l-0.01,0.153  l0.27,0.018l-0.028,0.139l0.421,0.086l-0.071,0.019l-3.092-0.505L9.555,36.9l3.114,0.509c0.005,0.001,0.011,0.001,0.016,0.001  c0.009,0,0.018-0.001,0.026-0.003l0.224-0.061l0.096,0.087l0.465,0.256l0.78,0.748l0.002-0.002l0.017,0.017l0.329,0.191  l-0.133,0.018l-2.045,0.369l-0.519,0.042l-1.33-0.442l-0.994-0.5l-0.529-0.146L8.561,37.86L8.128,37.56l-0.114,0.164l0.448,0.312  c0.01,0.007,0.021,0.013,0.034,0.016l0.528,0.128l0.508,0.137l0.988,0.498l0.853,0.285l-0.557,0.024l-1.07,0.115l-3.698,0.483  l0.026,0.199l3.696-0.483l1.061-0.115l1.091-0.049l0.539-0.044l0,0l0.009-0.001l2.05-0.37l0.383-0.052l0.102,0.06  c0.016,0.009,0.033,0.013,0.05,0.013c0.016,0,0.032-0.003,0.046-0.011l0.228-0.119l0.246-0.033l0.509-0.075h0.012l0.532-0.063  l0-0.006l1.374-0.176l0.129,0.013c0.017,0,0.03,0,0.043-0.006l0.125-0.045l0.477-0.061l0.615,0.145l0.855,0.449l0.91,0.261  l0.029,0.009l0,0h0.001c0.009,0.003,0.019,0.004,0.028,0.004c0.014,0,0.028-0.003,0.042-0.009l0.235-0.107l0.072,0.033l1.198,0.89  l0.479,0.487l1.34,0.942c0.008,0.006,0.017,0.01,0.027,0.013l0.458,0.148c0.01,0.004,0.021,0.005,0.031,0.005  c0.013,0,0.025-0.002,0.037-0.007l0.991-0.397l0.331,0.027l0.173,0.044c0.008,0.002,0.017,0.003,0.025,0.003c0,0,0.001,0,0.002,0  l0.546-0.012v-0.001h0.017l0.502-0.097l0.524-0.059l0.471,0.117c0.012,0.003,0.024,0.002,0.037,0.003l0.527-0.065l0.498,0.109  l0.018,0.012l0.33,0.55c0.005,0.008,0.011,0.016,0.018,0.021l0.488,0.445l0.587,0.882l0.365,0.912l0.267,0.978l0.344,0.957  l3.034,5.799l0.429,4.087l0.805,4.029l0.219,2.037V64h0.199v-2.069l-0.221-2.057l-0.805-4.029l-0.429-4.09l0.063-6.229l0.209-1.687  l0.302-1.662l1.043-3.148l1.372-0.261l1.531,0.506c0.01,0.004,0.021,0.005,0.031,0.005c0.014,0,0.027-0.002,0.04-0.008l1.648-0.71  l2.119-0.255l1.013,0.347c0.011,0.004,0.021,0.005,0.032,0.005c0.005,0,0.009-0.002,0.013-0.002l1.081-0.033  c0.013,0,0.026-0.003,0.038-0.008l0.432-0.192l0.248-0.019c0.015-0.001,0.03-0.006,0.043-0.014l0.074-0.043l2.054-0.169  c0.015-0.001,0.028-0.005,0.041-0.013l0.463-0.259l1.047-0.206l0.543-0.057l-0.021-0.199l-0.552,0.059l-1.071,0.211  c-0.01,0.002-0.021,0.005-0.029,0.011l-0.458,0.256l-1.617,0.133l0.525-0.307l0.602-0.044c0.017-0.001,0.033-0.007,0.047-0.016  l0.441-0.288l0.504-0.089l2.728-0.15l0.545-0.035l-0.014-0.199l-3.281,0.187l-0.188,0.032l0.552-0.206l-0.07-0.188l-0.388,0.146  l0.308-0.415l0.282-0.439l0.914-0.554c0.015-0.01,0.027-0.022,0.035-0.037l0.267-0.477l-0.174-0.098l-0.254,0.453l-0.911,0.553  c-0.013,0.009-0.024,0.02-0.032,0.032l-0.291,0.453l-0.487,0.657L48,37.393l-0.383,0.221l-0.472,0.036l0.082-0.082  c0.011-0.012,0.02-0.024,0.024-0.039l0.001-0.002l0.697-0.564l0.765-0.78c0.011-0.011,0.019-0.023,0.023-0.037l0.182-0.514  c0.001-0.003,0-0.006,0.001-0.009l0.139-0.528c0.004-0.013,0.004-0.026,0.002-0.04l-0.058-0.395l0.437-0.766l0.005-0.012  l0.729-1.153l0.104,0.01c0.01,0,0.02,0,0.029-0.001l0.487-0.097l0.532,0.123h0.041l1.028,0.22h0.487l1.476,0.683  c0.014,0.006,0.027,0.009,0.042,0.009c0.02,0,0.038-0.005,0.055-0.016l0.333-0.217c0.011-0.007,0.021-0.017,0.027-0.027l0.311-0.449  l-0.164-0.113l-0.3,0.433l-0.27,0.176L53.7,33.141l1.147-0.366l-0.061-0.19l-1.343,0.428l-0.458-0.218  c-0.014-0.006-0.028-0.01-0.043-0.01h-0.015l-0.466-0.215c-0.013-0.006-0.027-0.009-0.042-0.009l-1.022,0.007l-0.58-0.125  c-0.016-0.003-0.027-0.002-0.041,0l-0.48,0.095l0.214-0.339l0.188-0.121c0.013-0.008,0.024-0.019,0.032-0.032l0.147-0.245  l0.099,0.042c0.012,0.005,0.025,0.008,0.039,0.008c0.006,0,0.012,0,0.019-0.002l0.513-0.094l-0.037-0.196l-0.482,0.088l-0.045-0.019  l0.03-0.05c0.007-0.012,0.011-0.024,0.013-0.038l0.028-0.195l0.8-0.703l-0.133-0.15l-0.605,0.532l-0.019-0.134l-1.037,0.14  l-0.536-0.02l-0.128-0.016c0.003-0.002,0.007-0.002,0.011-0.005l0.063-0.04l0.535-0.012c0.016,0,0.031-0.004,0.046-0.012l0.48-0.259  c0.011-0.006,0.021-0.015,0.029-0.024l0.265-0.324l0.028-0.008l1.62,0.06l0.008-0.2l-1.637-0.06c-0.021,0-0.022,0.001-0.032,0.004  l-0.025,0.008l-0.035-0.029l-0.042,0.051l-0.267,0.079l0.104-0.195l1.134-0.321l0.53-0.131c0.01-0.002,0.02-0.007,0.028-0.012  l0.953-0.593l2.403,0.045l0.867,0.077l0.542-0.036l-0.014-0.199l-0.526,0.036l-0.44-0.04l0.001-0.031l-0.437-0.008l-0.187-0.017  l-0.52-0.109l-0.112-0.004l0.16-0.061c0.01-0.004,0.019-0.009,0.027-0.016l1.098-0.874l0.368,0.094l0.009-0.036l0.396,0.02  l0.534,0.056c0.004,0,0.007,0,0.011,0c0.009,0,0.017-0.001,0.025-0.003l0.464-0.122l0.519,0.081l0.031-0.197l-0.539-0.084  c-0.014-0.001-0.027-0.002-0.041,0.002l-0.467,0.122l-0.521-0.055l-0.369-0.016l0.903-0.212l1.071,0.102l0.02-0.199l-1.088-0.103  C57.369,27.184,57.36,27.183,57.351,27.186z M29.798,4.414l0.046,0.102l-0.042-0.062L29.798,4.414z M27.547,6.582l-0.041,0.401  l-0.197,0.782L27.3,7.79l-0.646,0.86c-0.005,0.007-0.01,0.015-0.013,0.023l-0.06,0.151l-0.022-0.19l0.033-0.516L27.547,6.582z   M21.254,8.983l0.841,0.397l-1.375-0.388L21.254,8.983z M15.808,7.423l0.176,0.053l2.426,1.253c0.009,0.004,0.018,0.008,0.028,0.009  l0.375,0.069L18.735,8.83l-0.506,0.009l-0.201-0.074C18.015,8.76,18,8.756,17.986,8.76l-0.184,0.016l-0.709-0.225l-1.229-1.022  L15.808,7.423z M22.166,9.504l0.022-0.079l0.016,0.007l0.005,0.003L22.166,9.504z M50.364,32.054l-0.224,0.144l-0.547,0.273  l-0.358-0.035l-1.075-0.191c-0.016-0.002-0.032-0.002-0.048,0.003l-0.257,0.081l-0.16-0.249l-0.147-0.146l0.446-0.14  c0.017-0.005,0.031-0.014,0.043-0.027l0.358-0.386l0.372-0.178l0.67,0.239c0.013,0.005,0.03,0.006,0.038,0.006l0.52-0.028  l0.605,0.26L50.364,32.054z M50.129,32.426l-0.058,0.091l-0.104-0.01L50.129,32.426z M49.18,32.678l-0.21,0.037l-0.776,0.138  l-0.226-0.351l0.182-0.057l1.059,0.188l0.05,0.005L49.18,32.678z M48.729,34.739l-0.672,0.846l-0.427,0.32  c-0.008,0.007-0.016,0.015-0.021,0.023l-0.021,0.032l0.011-0.053l0.037-0.553l-0.008-0.523l0.104-0.222l0.476-0.021l-0.008-0.199  l-0.372,0.017l0.022-0.049l-0.182-0.084l-0.063,0.136l-0.482-0.034l-1.104-0.044l-0.797,0.083l0.168-0.16l0.456-0.27l0.519-0.098  c0.016-0.003,0.03-0.01,0.043-0.02l0.859-0.674l-0.123-0.158l-0.841,0.659l-0.512,0.097c-0.012,0.003-0.022,0.007-0.032,0.013  l-0.488,0.291l-0.379,0.357l-0.762,0.203l0.256-0.852l1.684-0.755l0.531-0.12l0.51-0.063l0.49,0.18  c0.011,0.004,0.021,0.006,0.033,0.006l0.454,0.002l0.623,0.97l0.087,0.597L48.729,34.739z M46.082,38.245l-0.104,0.008l0.501-0.18  l-0.104,0.124L46.082,38.245z M44.789,38.437l0.078,0.003l-0.034,0.012L44.789,38.437z M45.013,38.244l-0.528-0.018l-0.247-0.094  l0.248-0.093l1.876-0.137l-1.02,0.365L45.013,38.244z M46.747,37.68l-1.742,0.131l-0.546,0.031c-0.01,0-0.02,0.002-0.029,0.006  l-0.498,0.187l-1.049,0.094l-0.522-0.1c-0.008-0.001-0.017-0.001-0.025-0.001l-0.211,0.015l0.997-1.175  c0.006-0.007,0.011-0.014,0.015-0.021l0.92-1.963l0.902-0.241l1.065-0.11l1.088,0.044l0.402,0.027l-0.077,0.166  c-0.006,0.014-0.01,0.028-0.009,0.044l0.009,0.538l-0.035,0.529l-0.116,0.54c0,0.002-0.002,0.004-0.002,0.006l-0.051,0.532  l-0.151,0.45L46.747,37.68z M29.938,41.093l-0.871-1.054c-0.004-0.006-0.011-0.009-0.016-0.014l0.001-0.001l-1.106-0.868  l-0.987-0.49l-0.455-0.174l-0.602-0.432l-0.391-0.442l-0.032-0.039l-0.272-0.663l-0.037-0.077l-0.58-1.396l-0.008-0.045  l-0.042-1.045c0-0.009-0.002-0.018-0.005-0.026l-0.497-1.564l-0.386-1.095l0.023-0.188l0.109-0.52l0.576-1.534  c0.005-0.013,0.007-0.027,0.006-0.041l0,0v0l0,0l-0.033-0.521l0.425-0.951l0.984-0.81l0.207,0.083  c0.01,0.004,0.021,0.006,0.032,0.007l1.086,0.058c0.002,0,0.003,0,0.005,0c0.008,0,0.016-0.001,0.024-0.003l0.357-0.089l0.088,0.045  l0.021,0.02l0.192,0.179l0,0h0c0.013,0.012,0.028,0.021,0.045,0.024l2.108,0.485l0.852,0.654l0.002,0.001l0.171,0.273v0l0.262,0.887  l0.034,0.546l0,0v0.001l0.081,1.109l0.147,0.514l0.091,0.557l0.182,0.512l-0.22,1.104l-0.03,0.569c0,0.014,0.001,0.027,0.006,0.04  l0.209,0.554l0.381,0.569l0.576,1.235l0.357,1.343l0.182,0.525l-0.211,0.147l-0.417,0.341l-0.002,0.002h0l-0.003,0.003l0,0.001  c-0.011,0.009-0.02,0.019-0.026,0.031l-0.745,1.482l-0.074,0.276l-0.25,0.282c-0.008,0.01-0.015,0.021-0.02,0.032l-0.185,0.515  c-0.003,0.01-0.005,0.02-0.006,0.029l-0.015,0.323l-0.065-0.276c-0.002-0.012-0.008-0.022-0.015-0.033l-0.308-0.451  c-0.01-0.014-0.023-0.025-0.039-0.033l-0.481-0.234l-0.391-0.245L29.938,41.093z M27.804,39.424l-0.526-0.377l0.562,0.277  l0.128,0.101l-0.126-0.069L27.804,39.424z M23.81,35.401l-0.69-0.813c-0.006-0.008-0.014-0.015-0.022-0.02l-0.114-0.072  l-0.179-0.315c-0.007-0.012-0.017-0.023-0.029-0.031l-0.427-0.308l-0.274-0.436l-0.465-0.988c-0.004-0.01-0.012-0.02-0.02-0.027l0,0  l-0.366-0.371l-0.395-1.352l0.508-0.613l0.58,1.833l-0.039,0.696l-0.002,0.012c-0.003,0.016-0.002,0.032,0.002,0.047l0.148,0.526  c0.004,0.015,0.012,0.029,0.023,0.041l0.374,0.401l1.914,1.923l0.108,0.23l0.172,0.976c0.002,0.014,0.008,0.027,0.016,0.039  l0.011,0.017l-0.01,0.011l-0.22-0.449l-0.2-0.509c-0.005-0.012-0.011-0.022-0.02-0.032L23.81,35.401z M22.22,39.169l0.112,0.235  l-0.617-0.458l0.016-0.007l0.203,0.015L22.22,39.169z M18.004,38.195l-0.37-0.034l-0.516-0.157l-0.471-0.241l-0.47-0.278  c-0.012-0.007-0.024-0.012-0.038-0.014l-2.482-0.317l0.093-0.025l0.526,0.031v-0.002l0.021,0.001l0.524-0.081l0.348-0.066  l0.159-0.013c0.002,0,0.005,0.001,0.007,0.001c0.007,0,0.015,0,0.022-0.002l0.493-0.111l0.912-0.085l0.543,0.54  c0.007,0.007,0.015,0.013,0.024,0.018l1.286,0.675l-0.364,0.13L18.004,38.195z M17.529,34.325l-0.13-0.519  c-0.004-0.017-0.013-0.031-0.024-0.044l-0.129-0.137l0.541,0.09l1.351,0.893l0.464,0.288c0.008,0.005,0.018,0.01,0.027,0.012  l0.379,0.097l0.484,0.652l0.123,0.268l-0.427-0.197c-0.011-0.005-0.022-0.008-0.034-0.009l-1.986-0.159l-0.321-0.62L17.529,34.325z   M16.756,33.005l1.255,0.079l0.544,0.063l0.542-0.008l0.107,0.002l0.195,0.1l0.125,0.455l0.004,0.022l0.307,1.038l-0.141-0.037  l-0.047-0.029l-0.404-0.251l0,0l-1.364-0.9c-0.012-0.008-0.025-0.014-0.039-0.016l-0.821-0.137l-0.107-0.114L16.756,33.005z   M17.853,31.689l0.241,0.364l-0.28-0.127l-0.187-0.396l0.196,0.104L17.853,31.689z M20.356,31.776l0.046-0.234l0.033,0.025  l-0.016,0.439L20.356,31.776z M19.441,30.732l-0.603-0.864l-0.017-0.058l-0.097-0.868l0.237,0.32l0.697,0.808l0.211,0.907  L19.441,30.732z M20.099,31.099l0.057-0.156l0.08,0.246L20.1,31.111L20.099,31.099z M28.527,23.737l1.439-0.439l0.127,0.014  l0.119,0.167l0.248,0.462l0.009,0.152l-0.033,0.334l-0.049,0.256l-0.69-0.088l0.092-0.045l-0.089-0.18l-0.504,0.251l-0.424,0.31  l-0.532,0.117l-0.749,0.331l0.047-0.062l0.404-0.353c0.011-0.01,0.02-0.021,0.026-0.035l0.219-0.5  c0.003-0.008,0.005-0.016,0.007-0.024l0.068-0.424L28.527,23.737z M34.126,20.31l-0.409,0.031c-0.012,0.001-0.024,0.004-0.035,0.009  l-0.631,0.301l-0.044-0.162l0.335-0.888l0.341-0.336L34.126,20.31z M33.742,11.518l0.377-0.241l1.054-0.477l0.062,0.157l0.055,0.379  l-0.054,0.065l0.072,0.06l0.002,0.015l-0.286,1.032c-0.004,0.015-0.005,0.03-0.002,0.045l0.194,1.061l-0.046,0.53  c-0.001,0.014,0,0.027,0.005,0.04l0.25,0.772l-0.474,1.409l-0.124-0.438l-0.47-2.692l-0.216-1.07  c-0.002-0.012-0.008-0.023-0.014-0.033l0.001,0L33.742,11.518z M35.642,11.737l0.268,0.471l0.364,0.472l-0.105,0.114l-0.01,0.01  c0,0,0,0.001-0.001,0.001v0l0,0c-0.009,0.01-0.017,0.022-0.021,0.036l-0.278,0.828l-0.08,0.079l0.04,0.041l-0.285,0.85l-0.161-0.497  l0.045-0.523c0.001-0.009,0-0.018-0.001-0.027l-0.192-1.052l0.259-0.935L35.642,11.737z M39.529,17.63l-0.174-0.171l-0.024-0.016  L38.979,17l0.333-0.374c0.009-0.009,0.015-0.019,0.019-0.03l0.071-0.183l0.136,0.316l0.085,0.506L39.529,17.63z M41.52,21.123  l0.159,0.384l-0.084-0.118l-0.162,0.116l0.306,0.426l0.046,0.109l0.012,0.082l-0.127,0.425l-0.035,0.04l-0.29,0.294l-0.165-0.254  l-0.258-1.044l-0.193,0.048l0.262,1.06c0.002,0.011,0.007,0.021,0.013,0.03l0.2,0.31l-0.674,0.772  c-0.011,0.013-0.019,0.027-0.022,0.043l-0.036,0.157l-0.359-0.412l-0.059-0.205l0.119-0.501c0.002-0.01,0.003-0.02,0.002-0.03  l-0.057-0.807l0.487,0.105l0.043-0.195l-0.534-0.115c-0.004-0.001-0.007,0.001-0.011,0l-0.004-0.054l0.197-0.46l0.382-0.36  l-0.137-0.146l-0.397,0.374c-0.01,0.009-0.019,0.021-0.023,0.033l-0.215,0.502c-0.007,0.015-0.009,0.031-0.008,0.046l0.008,0.114  l-0.362,0.111l-0.185,0.05l-0.156-0.251L39.06,20.22l0.077-0.516l0.304-0.424c0.007-0.009,0.012-0.02,0.016-0.031l0.146-0.526  l-0.193-0.054l-0.142,0.509l-0.308,0.43c-0.01,0.013-0.016,0.028-0.018,0.043l-0.058,0.404l-0.387,0.015l0.051-0.421l0.476-0.646  l0.331-0.325l0.252-0.171l-0.031-0.045l0.031-0.03c0.007-0.007,0.014-0.015,0.018-0.024l0.139-0.262l0.627,0.617l0.685,0.823  l0.264,0.457L41.52,21.123z M45.474,21.394l0.039-0.192l0.415-0.127l-0.188,0.303l0.001,0c-0.006,0.009-0.011,0.018-0.013,0.028  l-0.113,0.458l-0.374-0.058l0.223-0.383C45.468,21.415,45.472,21.404,45.474,21.394z M48.831,17.973l-0.615,0.51l-0.664,0.83  c-0.01,0.006-0.021,0.012-0.027,0.021l-0.153,0.21l-0.434,0.419c-0.013,0.012-0.021,0.027-0.026,0.043l-0.092,0.308l-0.024,0.019  l0.17-1.394L48.831,17.973z M48.529,23.012l0.495,0.186c0.012,0.004,0.023,0.006,0.035,0.006c0.013,0,0.025-0.002,0.037-0.007  l0.406-0.164l0.041-0.006l1.188-0.016c0.018,0,0.034-0.005,0.049-0.014l0.257-0.148l-0.492,0.484l-0.711,0.011l-0.561-0.102  c-0.016-0.004-0.032-0.002-0.048,0.003l-1.04,0.331c-0.014,0.004-0.026,0.012-0.037,0.021l-0.401,0.368l-0.001,0.001l-0.426,0.358  l-1.155,1.211l-0.387,0.28c-0.008,0.006-0.015,0.013-0.021,0.02l-0.492,0.644l-0.201,0.21l-0.406,0.364  c-0.009,0.008-0.017,0.017-0.021,0.027l-0.563,1.06l-0.006,0.01l-0.12,0.254l-0.489,0.397c-0.008,0.007-0.016,0.016-0.021,0.025  l-0.201,0.327l-0.797,0.652c-0.002,0.001-0.003,0.003-0.004,0.005l-0.051-0.093l0.815-1.113l0.389-0.632l1.025-1.955l0.001,0.001  l0.663-1.356l0.197-0.803l0.093-0.113l0.88-0.597l1.046-0.159l0.517,0.125c0.014,0.003,0.029,0.003,0.045,0L48.529,23.012z   M53.243,22.796c0.005,0.001,0.011,0.001,0.016,0.001c0.008,0,0.015-0.001,0.022-0.002l0.155-0.036l0.325-0.004l-0.485,0.489  l-0.147,0.041l-0.375-0.081l0.067-0.121c0.005-0.009,0.009-0.018,0.011-0.028l0.064-0.302l0.089,0.002L53.243,22.796z   M53.846,23.895l-0.039,0.438l-0.153,0.004l-0.574,0.128l0.001-0.025l-0.076-0.004l0.018-0.115l-0.197-0.031l-0.037,0.239  l-0.183,0.041l-0.376,0.014l0.769-0.773l0.023,0.002c0.011,0.001,0.018,0.001,0.025-0.001l0.776-0.125L53.846,23.895z   M56.317,27.272l-0.084,0.067l0.004-0.025L56.317,27.272z M56.096,27.448l-0.06,0.048l-0.01,0.002l-0.09-0.027l0.073-0.038  L56.096,27.448z M33.364,38.788l-0.16-0.465l-0.361-1.353l-0.576-1.235l-0.13-0.688L32.08,34.5l-0.079-0.521l0.511-2.104  c0.004-0.017,0.004-0.034-0.001-0.05l-0.443-1.595v0l0,0l-0.029-0.061l0.026-0.453l0.126-0.531c0.004-0.015,0.004-0.032,0-0.047  l-0.038-0.153l0.008-0.008l1.29-0.463l0.536,0.165l-0.275,0.093l0.064,0.189l0.538-0.183l0.299,0.092  c0.01,0.003,0.02,0.004,0.029,0.004c0.004,0,0.009,0,0.013-0.001l0.11-0.015l0.97,3.019l0.804,2.615l-0.034,0.053l-0.242,0.479l0,0  l0,0l-0.004,0.008l0.002,0.001l-0.01,0.019l-0.406,1.562l-1.063,1.184L33.364,38.788z M24.167,29.375l-0.559,1.492l-0.01-0.462  l0.126-0.546l0.184-2.379l0.156,0.303l0.069,1.066c0,0.001,0,0.001,0,0.002l0.032,0.493L24.167,29.375z M21.3,29.787l-0.539,0.65  l-0.139-0.477l-0.008-0.27l0.039-0.106c0.004-0.01,0.006-0.021,0.006-0.032l0.014-0.546c0-0.013-0.002-0.026-0.007-0.038  l-0.249-0.647l0.102-1.014l0.006-0.014l0.4,0.382l0.381,0.574l0.177,0.985l-0.057,0.27L21.3,29.787z M20.712,30.982l0.221,0.754  l-0.12-0.131l-0.173-0.132l0.005-0.239L20.712,30.982z M21.141,26.058l0.134-0.028l-0.192,0.208h-0.035v0.038l-0.053,0.057  l-0.002-0.02L21.141,26.058z M22.481,25.81l0.142,0.092l-0.056,0.051l-0.121-0.027L22.481,25.81z M23.42,25.185l-0.161-0.475  L23.27,24.2l0.192,0.263l0.231,0.506l-0.004,0.3l-0.125,0.042L23.42,25.185z M25.847,24.776l0.106,0.447l-0.502,0.002l0.129-0.158  l0.142-0.235L25.847,24.776z M31.22,21.271l-0.075-0.541c-0.001-0.011-0.004-0.021-0.009-0.03l-0.474-0.972l-0.183-0.507  l-0.145-0.506l0.026-0.219l1.234,0.612l0.392,0.349l0.104,0.108l-0.158,0.198l-0.305,0.453c-0.005,0.007-0.008,0.015-0.011,0.022  l-0.385,1.091L31.22,21.271z M35.108,20.155l0.016,0.366l-0.074,0.17l-0.039,0.084l-0.11-0.278l0.16-0.309L35.108,20.155z   M35.449,19.462L35.449,19.462l0.008-0.025l0.008-0.025l0.089,0.123l-0.034,0.078l-0.146,0.105l0.075-0.255L35.449,19.462z   M37.359,15.226l0.148,0.213l-0.44,0.753l-0.124-0.016c-0.014-0.001-0.031,0-0.044,0.004l-0.056,0.019l0.096-0.102  c0.009-0.009,0.015-0.021,0.02-0.032l0,0l0.001-0.002c0,0,0.001-0.001,0.001-0.002l0.001-0.002l0,0l0.002-0.005v0l0.193-0.497  c0.007-0.016,0.009-0.033,0.006-0.05l-0.004-0.029l0.153-0.291L37.359,15.226z M37.676,15.678l0.932,1.175l-0.044,0.087  l-1.036-0.678c-0.013-0.008-0.026-0.014-0.042-0.016l-0.204-0.027l0.354-0.601L37.676,15.678z M39.289,16.152l-0.138,0.354  l-0.298,0.335l-0.01-0.012l0.401-0.78L39.289,16.152z M38.865,20.256l0.113,1.302l-0.279-0.296V21.26l0.08-0.168  c0.007-0.014,0.011-0.03,0.01-0.045L38.776,20.5l-0.166,0.004l-0.015-0.125l-0.199,0.023l0.072,0.615l-0.271-0.288l0.005-0.079  l0.229-0.378L38.865,20.256z M39.973,22.854l-0.033,0.139l-0.089-0.312c-0.004-0.015-0.011-0.028-0.021-0.039l-0.353-0.394  l-0.01-0.015l0.13-0.035l0.321-0.099L39.973,22.854z M43.964,28.815c0.012-0.009,0.021-0.021,0.027-0.034l0.117-0.249l0.529-0.43  l0.609-0.183l0.506,0.171l-0.095,0.068c-0.008,0.005-0.014,0.012-0.02,0.019l-0.674,0.854l-0.4,0.461l-0.312,0.359L43.5,30.613  l-0.442,0.178l-0.05-0.032l-0.237-0.391l-0.032-0.053l0.146-0.212l0.504-0.816L43.964,28.815z M47.866,24.125l0.457-0.253  l1.027-0.321l0.467-0.008l0.435,0.079l-0.697,0.685l-0.157-0.081l-0.092,0.178l0.099,0.051l-0.526,0.518l-0.465,0.214l-0.877,0.091  l-0.176-0.029c-0.015-0.003-0.029-0.001-0.044,0.002l-0.512,0.147l-0.271,0.04l0.923-0.968L47.866,24.125z M52.549,23.161  l-0.045-0.01c-0.015-0.003-0.03-0.004-0.046,0.001l-0.08,0.021l0.109-0.428l0.206,0.004l-0.054,0.249L52.549,23.161z M53.323,25.613  l-0.128,0.044l-0.175-0.021l-0.017,0.131l-0.003-0.008l-0.257,0.105l0.097-0.501l0.035-0.061l0.605-0.099  c0.015-0.002,0.029-0.008,0.041-0.017l0.146-0.103L53.323,25.613z M53.507,28.539l-0.171,0.106l-0.029,0.006l-0.332-0.099  c0.003-0.001,0.005-0.003,0.007-0.005l0.578-0.256l0.187-0.108l-0.057,0.084L53.507,28.539z M45.045,32.956  c-0.018,0.001-0.034,0.006-0.049,0.016l-0.142,0.09l-0.277,0.107l0.119-0.395l0.266-0.44l0.83-0.682  c0.01-0.008,0.019-0.018,0.024-0.029l0.022-0.042l0.06,0.002l0.842-0.17l0.37,0.366l-1.116,0.407l-0.162,0.059v0l0,0  c-0.013,0.004-0.024,0.012-0.034,0.021l-0.737,0.689L45.045,32.956z M31.991,29.163l-0.123,0.525l-0.007,0.109l-0.155-0.326  l0.088-0.121l0.194-0.198L31.991,29.163z M30.606,24.913l0.415,0.28l0.001,0.034l-0.499-0.085l0.058-0.233L30.606,24.913z   M31.214,25.069L31.432,24c0.003-0.016,0.002-0.032-0.002-0.048l-0.147-0.511V23.34l0.25-0.08l-0.062-0.19l-0.188,0.061v-0.064  c0.004-0.006,0.009-0.011,0.011-0.018h0l0.058-0.169l0.163,0.147l0.399,0.537l0.349,0.29l-0.342,0.853l-0.226,0.48l-0.098,0.144  c-0.006-0.002-0.011-0.005-0.017-0.006l-0.017-0.003l-0.35-0.237L31.214,25.069z M35.143,20.968l0.003,0.058l-0.107,0.233  l-0.008-0.003l0.004-0.05L35.143,20.968z M35.622,19.289l-0.152,0.109l0.156-0.471l0.152,0.093l-0.132,0.303L35.622,19.289z   M36.953,15.44l-0.02,0.037l-0.156,0.499l-0.162,0.173l-0.074-0.511l0.394-0.33L36.953,15.44z M39.317,22.367l0.348,0.391  l0.138,0.481l-0.241-0.275l-0.239-0.475c-0.005-0.011-0.013-0.021-0.021-0.029l-0.038-0.034L39.221,22.3l0.046-0.012l0.041,0.066  l0.001,0L39.317,22.367z M41.442,26.791l0.063,0.178l-0.432,0.045l0.279-0.694l0.084,0.456l0.002,0L41.442,26.791z M52.856,26.33  c0.005-0.002,0.009-0.005,0.013-0.007l-0.152,0.287l-0.047,0.042l-0.152,0.009l0.096-0.156c0.007-0.01,0.011-0.021,0.014-0.033  l0.008-0.043l0.014-0.013L52.856,26.33z M52.585,28.506l-0.644,0.025l1.479-0.692l-0.55,0.541L52.585,28.506z M31.949,28.077  l-0.085,0.539c-0.002,0.013-0.001,0.027,0.001,0.04l0.066,0.269l-0.29,0.296l-0.034,0.046l-0.251-0.527l-0.268-0.416l-0.044-0.125  l-0.148-0.502l-0.03-0.519l0.233-0.483l0.003-0.012l0.152-0.494l0.389-0.573l0.284,0.192l0.325,0.434l0.33,0.334l-0.245,0.467  c-0.005,0.009-0.008,0.019-0.01,0.029l-0.086,0.484c-0.004,0.004-0.008,0.008-0.011,0.013l-0.055,0.096l-0.35-0.103l-0.057,0.191  l0.304,0.09l-0.114,0.201l0,0C31.955,28.054,31.951,28.065,31.949,28.077z M32.943,24.416l0.334,0.603l0.003,0.043  c0,0.001,0.001,0.003,0.001,0.004l-0.161,0.101l0.222,0.353l-0.496,0.555l-0.165,0.314l-0.277-0.282l-0.295-0.448  c-0.008-0.012-0.018-0.021-0.03-0.029l-0.31-0.198l0.1-0.148l0.236-0.499l0.32-0.799L32.943,24.416z M34.692,22.639l-0.1,0.925  l-0.282,0.855l-0.1,0.887l-0.23-0.742l-0.061,0.019l0.052-0.873l0.094-0.502l0.427-0.832L34.692,22.639z M35.922,18.691  l-0.063,0.144l-0.169-0.103l0.102-0.305l-0.019-0.006l0.004-0.012l0.045,0.004l0.063-0.613l0.088-0.441l0.229-0.479l0.275-0.293  c0.002,0.013,0.005,0.024,0.013,0.036l0.199,0.328l-0.263,0.716c-0.006,0.016-0.008,0.032-0.005,0.049l0.155,1.081  c0.002,0.015,0.007,0.029,0.016,0.042l0.198,0.296l-0.307,0.083l-0.129-0.079l-0.04-1.222l0.084-0.54l-0.197-0.031l-0.085,0.558  l0.035,1.11l-0.121-0.074l0.074-0.169L35.922,18.691z M39.221,17.625l-0.274-0.034l-0.08-0.031l0.014-0.08l0.336,0.139  L39.221,17.625z M40.62,24.63l-0.136-0.069l0.064-0.084L40.62,24.63z M41.48,23.105c-0.002-0.012-0.007-0.023-0.014-0.034  l-0.005-0.007l0.139-0.11l-0.031,0.245l0.021,0.423L41.48,23.105z M41.62,24.732l-0.063,0.504l-0.177,0.297l-0.06-0.132l0.121-0.595  l0.119-0.354L41.62,24.732z M50.531,25.452c-0.002-0.009-0.005-0.018-0.009-0.026l-0.04-0.079l0.189-0.052l0.056,0.161  c-0.001,0-0.002,0-0.003,0.001l-0.176,0.09L50.531,25.452z M42.979,33.871l1.156-0.354l-0.505,0.32l-0.722,0.101L42.979,33.871z   M44.503,32.719l-0.158,0.525l-1.038,0.318l0.545-0.514c0.009-0.008,0.016-0.018,0.021-0.027l0.239-0.471l0.37-0.329L44.503,32.719z   M44.401,31.664c-0.008-0.014-0.02-0.026-0.033-0.036l-0.309-0.197l0.032,0.003l0.696,0.104l0.153,0.006l-0.405,0.36L44.401,31.664z   M41.347,32.703l-0.118,0.361l-0.18,0.497l-0.162,0.19l0.066-0.18c0.005-0.015,0.007-0.03,0.006-0.045l-0.056-0.535l0.521-0.759  l-0.025,0.307L41.347,32.703z M39.062,31.843l0.163-0.082l1.099-0.041l0.053,0.107l-0.555,0.791l-1.441,0.704l-0.262,0.101  l0.012-0.041l0.913-1.493L39.062,31.843z M32.827,26.537l0.182-0.349l0.443-0.494l0.243,0.387l0.066,0.139l-0.254,0.266  l-0.399,0.336L32.827,26.537z M36.453,19.433l0.043,0.026l0.152,0.213l-0.117,0.215l-0.163-0.372l-0.002-0.06L36.453,19.433z   M36.824,17.165l0.547,0.819l0.1,0.53l-0.243,0.327l-0.056-0.161l-0.208-1.072l-0.197,0.038l0.212,1.085l0.104,0.303l-0.02,0.027  l-0.069,0.019l-0.223-0.333l-0.148-1.034L36.824,17.165z M41.096,25.512l-0.129,0.631l-0.256,0.364l-0.27-0.973l-0.221-0.592  l0.019-0.061l0.121-0.159l0.283,0.145L41.096,25.512z M38.898,29.283l-0.519-0.177l-1.048-0.328l-1.063-0.253  c-0.006-0.001-0.011-0.001-0.017-0.002l-0.199-0.167l-0.053-0.05l0.811,0.068l0.537,0.062l0.536,0.037l1.061,0.13l0,0l0.412,0.062  l-0.069,0.445l-0.003,0.31l-0.134-0.031l-0.245-0.103c-0.002,0-0.003,0-0.005-0.001L38.898,29.283z M33.738,25.376  c0.011-0.012,0.018-0.025,0.021-0.04h0.001l0.01-0.035l0.345,0.465l-0.11,0.153l-0.288-0.52L33.738,25.376z M35.32,21.562  l0.233,0.077l0.202,0.148l-0.04,0.201l-0.412-0.411L35.32,21.562z M35.933,21.917l0.029,0.021l0.232,0.451l0.038,0.113l-0.347-0.345  L35.933,21.917z M38.312,21.564l-0.116-0.105l-0.018-0.204l0.215,0.191l-0.017,0.034L38.312,21.564z M37.903,28.273l-0.536-0.037  l-0.535-0.062l-0.229-0.02l0.222-0.023l0.546-0.005c0.012,0,0.023-0.002,0.034-0.007l0.499-0.189l1.046-0.264l0.438,0.066  l0.022,0.035l-0.027,0.597l-0.412,0.039l-0.002,0l-1.061-0.13l0,0L37.903,28.273z M34.232,26.234l-0.102-0.14l0.063-0.084  L34.232,26.234z M34.82,25.543l1.554-1.356l0.249-0.095l0.75,0.082l0.114,0.249l0.114,0.203l0.068,0.28  c-0.005-0.003-0.01-0.008-0.016-0.01l-0.52-0.17l-0.063,0.19l0.497,0.163l0.19,0.188l0.237,0.962  c0.003,0.015,0.011,0.029,0.021,0.041l0.364,0.423l0.79,0.716l0.001,0.001l0.041,0.062l-0.25-0.004l-0.012-0.002  c-0.013-0.002-0.027-0.001-0.039,0.002l-0.896,0.229l-0.163,0.041v0l0,0v0l-0.011,0.003l-0.493,0.187l-0.538,0.005l-1.056,0.11  l-0.033-0.005l-1.176-1.135l-0.188-1.102L34.82,25.543z M34.401,25.549l0.157-0.864l0.207-0.573l0.196,0.113  c0.014,0.008,0.029,0.013,0.046,0.014l0.958,0.041l-1.26,1.101L34.401,25.549z M36.896,23.726l0.005-0.008l0.343,0.165l0.013,0.036  l0.02,0.043l-0.572-0.063l0.173-0.151C36.885,23.742,36.892,23.734,36.896,23.726z M37.801,20.644l0.108,0.214l0.06,0.316  l0.008,0.086l-0.283-0.256l-0.111-0.334l-0.12-0.284l0.11-0.029l0.126,0.133L37.801,20.644z M39.227,22.988l0.036,0.069l0.285,0.857  c0.004,0.012,0.01,0.022,0.018,0.032l0.198,0.237l0.001,0.008l-0.466-0.239c-0.015-0.007-0.03-0.011-0.046-0.011h-0.001  l-0.546,0.008v0.001l-0.018,0l-0.003,0h-0.001l-0.006,0.001l-0.069,0.013l-0.084-0.196l-0.148-0.249l-0.08-0.908l0.155-0.083  L39.227,22.988z M39.229,24.143l0.577,0.295l0.008,0.048l0.131,0.556l-0.092,0.303l-0.024,0.21l-0.18,0.603l-0.266-0.377  l-0.694-1.626l0.019-0.004L39.229,24.143z M40.067,25.56l0.362,1.024l0.066,0.228l-0.131,0.186l-0.554-0.641l0.171-0.42  c0.003-0.008,0.006-0.017,0.007-0.026l0.035-0.312l0.029-0.097L40.067,25.56z M40.576,27.09l0.006,0.065l-0.079,0.024  c-0.003,0.001-0.006,0.004-0.009,0.005l-0.007-0.01l0.025-0.039l0.055-0.077L40.576,27.09z M40.613,27.736l-0.01,0.157l-0.032,0.022  l-0.219-0.229l0.199,0.003l0.037,0.009L40.613,27.736z M37.929,24.801l-0.141-0.25l-0.084-0.342l0.31,0.034l0.042,0.088l0.029,0.526  h0.003l0.001,0.022l0.159,0.543l0.376,0.712l-0.222-0.367l-0.122-0.175L37.929,24.801z M38.258,24.034v-0.025l0.012,0.023  L38.258,24.034z M38.061,23.774l-0.001,0.1l-0.043-0.09l-0.258-0.881l0.044-0.023L38.061,23.774z M38.254,24.303l0.001-0.046  l0.111-0.026l0.095,0.192l0.512,0.958l0.241,0.509l0.315,0.446l0,0l0.006,0.008l0.044,0.051l-0.094,0.379l-0.021-0.022L39.32,26.89  l0.125,0.131l-0.007,0.146l-0.303-0.375l-0.201-0.497l-0.502-0.947l-0.148-0.502L38.254,24.303z M39.687,27.475L39.625,27.4  l0.009-0.18l0.198,0.208L39.687,27.475z M39.998,27.682l-0.142,0.298l-0.089-0.301L39.998,27.682z M40.126,27.366l-0.067,0.012  l-0.41-0.432l0.093-0.364l0.499,0.577l0.01,0.015L40.126,27.366z M38.068,22.307l0.018,0.196l-0.02,0.011l-0.056-0.235l0.003-0.004  L38.068,22.307z M37.58,23.001l0.25,0.854l0.043,0.09l-0.101-0.03l-0.366-0.176l-0.138-0.396l-0.021-0.114L37.58,23.001z   M40.189,27.804l0.215,0.226l-0.289,0.196L40.189,27.804z M38.035,21.923l-0.07,0.09l-0.019-0.011l-0.148-0.635l0.204,0.185  L38.035,21.923z M37.09,20.458l0.176-0.024l0.126,0.298L37.09,20.458z M37.569,21.654l-0.287-0.711l0.287,0.332l0.138,0.587  l-0.038-0.022l-0.049-0.075L37.569,21.654z M38.108,25.693l0.095,0.213l0.302,0.417l0.019,0.031l0.443,0.549L39,26.985l-0.475-0.432  l-0.34-0.396l-0.136-0.548L38.108,25.693z M39.598,28.004l0.086,0.095l0.045,0.152l-0.041,0.086l-0.104,0.01L39.598,28.004z   M40.092,28.484l0.452-0.308l0.039,0.042l-0.026,0.414l-0.038,0.004l-0.414-0.1L40.092,28.484z M37.276,20.068l-0.059-0.055  l0.091-0.105l0.067,0.102L37.276,20.068z M37.098,20.174l-0.159,0.094l0.135-0.117L37.098,20.174z M36.984,20.712l-0.034,0.012  l0.006,0.016L36.9,20.655L36.984,20.712z M37.308,21.65l0.139,0.214l0.164,0.351l0.059,0.204l-0.048,0.098l-0.316-0.781  L37.308,21.65z M40.378,29.642l-0.219-0.888l0.329,0.081c0.008,0.002,0.016,0.003,0.023,0.003c0.004,0,0.007,0,0.011,0l0.021-0.002  l-0.062,0.976L40.378,29.642z M40.479,30.972l-0.045-0.098l0.098-0.23l0.116,0.105l0.31,0.26l-0.466-0.04  C40.487,30.969,40.483,30.972,40.479,30.972z M40.652,31.347l-0.078-0.169l0.483,0.041l0.074,0.161l-0.235,0.119l-0.24,0.009  l0.005-0.114C40.662,31.377,40.659,31.362,40.652,31.347z M40.65,31.847l0.303-0.15l0.257-0.009l0.006,0.002l-0.415,0.881  l-0.163-0.646l0.003-0.073L40.65,31.847z M41.34,31.275l-0.014-0.034l0.069,0.006L41.34,31.275z M40.779,30.598l-0.165-0.15  l0.025-0.059c0.003-0.007,0.004-0.015,0.005-0.022l0.188,0.206l0.03,0.095L40.779,30.598z M40.771,28.416l0.055,0.057  c0.008,0.009,0.019,0.016,0.029,0.021l0.182,0.086l-0.278,0.03L40.771,28.416z M39.923,23.928l0.023-0.098l-0.016,0.142  L39.923,23.928z M38.693,22.443l0.222-0.06l0.141,0.273L38.693,22.443z M38.742,22.224l-0.274,0.075l-0.01,0.005l-0.198-0.117  l-0.019-0.208l0.095-0.123L38.742,22.224z M36.92,19.589l0.093-0.123l0.181,0.27l-0.12,0.14l-0.109-0.103l-0.081-0.115L36.92,19.589  L36.92,19.589z M36.813,19.902l0.116,0.11l-0.192,0.166l-0.104-0.06l0,0l0.144-0.266L36.813,19.902z M36.13,21.267L36.13,21.267  L36.13,21.267l0.029-0.055l0.201-0.372l0.306-0.181l0.453,0.699l-0.015,0.391c-0.001,0.014,0.002,0.028,0.007,0.042l0.393,0.967  l-0.035,0.072l-0.262,0.183l-0.138-0.743c-0.003-0.013-0.007-0.024-0.014-0.035l-0.289-0.463l-0.17,0.105l0.279,0.447l0.152,0.818  c-0.005,0.005-0.011,0.008-0.014,0.014l-0.063,0.102l-0.398-0.437l-0.175-0.51l-0.249-0.486c-0.007-0.014-0.018-0.026-0.029-0.035  l-0.116-0.085L36.13,21.267L36.13,21.267z M36.391,22.942l0.451,0.493l-0.016,0.025l-1.32-0.635l0.311-0.455L36.391,22.942z   M36.713,23.626l-0.441,0.386l-0.188,0.072L35.04,24.04l-0.206-0.119l0.087-0.24l0.471-0.69L36.713,23.626z M35.679,28.271  l0.241,0.233l0.032,0.027l-0.031,0.001l-0.025-0.019L35.89,28.51l-0.258-0.249L35.679,28.271z M39.522,29.473l-0.008-0.002  l0.011-0.323l0.213-0.45l0.12,0.008l0.111,0.462l0.002,0l0.003,0.014l0.21,0.522l0.006,0.009l0.025,0.104l-0.003,0.266l-0.646-0.587  C39.555,29.485,39.539,29.477,39.522,29.473z M40.413,30.078l0.047,0.076L40.451,30.3l-0.04-0.036L40.413,30.078z M40.2,31.31  l-0.001,0.133c-0.001,0.016,0.003,0.031,0.01,0.044l0.018,0.037l-0.531,0.02L40.2,31.31z M40.399,31.421l0.001-0.142l0.061,0.13  l-0.005,0.105l-0.011,0L40.399,31.421z M41.711,29.434l0.075,0.506l-0.047,0.429l-0.131-0.291l-0.182,0.082l0.218,0.484l0.013,0.107  l-0.144,0.305l-0.271-0.023l-0.02-0.047c-0.006-0.015-0.016-0.028-0.028-0.039L41.15,30.91l-0.134-0.418  c-0.005-0.014-0.012-0.026-0.021-0.037l-0.331-0.36l0.081-1.281l0.313-0.033l-0.021-0.199l0.046,0.022l0.042,0.15  c0.005,0.016,0.014,0.031,0.025,0.043l0.437,0.444L41.711,29.434z M40.957,28.322l-0.169-0.178l0.008-0.126l0.212,0.328  L40.957,28.322z M40.813,26.88l-0.034-0.124l0.088-0.125l-0.049,0.242L40.813,26.88z M40.173,24.639l-0.004-0.015l0.011,0.006  L40.173,24.639z M39.786,23.639l-0.144-0.278l0.165,0.188L39.786,23.639z M38.684,21.901l-0.226-0.204l0.087-0.113l0.001-0.002  l0.021,0.018L38.684,21.901z M36.803,19.411l-0.043,0.057v0v0l0.001,0l-0.006,0.007l-0.075-0.105l0.19-0.051L36.803,19.411z   M36.169,19.541c0,0.013,0.003,0.025,0.008,0.037l0.086,0.196l-0.117-0.117l-0.126-0.109l0.148-0.04L36.169,19.541z M35.953,21.172  l0.002,0.001l-0.008,0.014l-0.133,0.395l-0.155-0.114c-0.009-0.006-0.019-0.011-0.028-0.015l-0.146-0.048l0.132-0.126l0.407-0.241  L35.953,21.172z M34.975,21.894l0.186-0.178l0.51,0.508l-0.002,0.009l-0.344,0.505l-0.42-0.203L34.975,21.894z M35.211,22.904  l-0.414,0.608l0.084-0.767L35.211,22.904z M33.839,25.062l0.041-0.147l0.109,0.349L33.839,25.062z M34.001,26.259l0.163,0.223  l0.027,0.077l-0.089-0.086L34.001,26.259L34.001,26.259z M35.096,27.936l-0.382-0.062l-0.091-0.534L35.096,27.936z M35.303,28.196  l0.034,0.042l-0.123-0.06L35.303,28.196z M36.865,28.937l-0.185-0.108l0.598,0.142l0.328,0.103L36.865,28.937z M40.21,30.352v0.038  l-0.016-0.034c-0.004-0.009-0.01-0.018-0.017-0.025l-0.047-0.052L40.21,30.352z M40.648,33.363l0.081-0.117l0.028,0.278  l-0.173,0.466l-0.212,0.186L40.648,33.363z M52.682,25.132l-0.98,0.16l0.208-0.387l0.035-0.036l0.797-0.047l-0.001,0.003  L52.682,25.132z M51.354,25.745l-0.089,0.495l-0.152,0.214l0.024-0.402c0.001-0.013-0.001-0.026-0.005-0.039l-0.008-0.022  l0.219-0.276l0.003-0.002L51.354,25.745z M53.967,26.992l0.179,0.038l-0.135,0.228l-0.122,0.12l-0.313,0.133l-0.34-0.021  l0.174-0.076l0.454-0.326L53.967,26.992z M50.612,25.887l0.193-0.204l0.056,0.161l-0.23,0.186l0.001-0.006  c0.002-0.011,0.002-0.023,0-0.035L50.612,25.887z M51.536,24.997l0.062-0.106l0.031-0.001l-0.006,0.02L51.536,24.997z   M51.095,25.594l-0.072,0.102l-0.03-0.085L51.095,25.594z M51.23,27.69l-0.185,0.057l-0.007-0.061l0.009-0.145l0.266,0.022  L51.23,27.69z M50.652,28.788l-0.063-0.261l0.225,0.043l-0.047,0.197L50.652,28.788z M50.716,28.979l-0.008,0.034L50.7,28.982  L50.716,28.979z M50.537,28.314l-0.023-0.098l0.304,0.023l0.078-0.012l-0.035,0.149L50.537,28.314z M50.882,26.984l-0.052,0.229  l-0.079,0.103l-0.328-0.028l0.045-0.27l0.091-0.039l0.324-0.02L50.882,26.984z M49.881,27.659l0.297-0.113l-0.01,0.061  c-0.002,0.013-0.002,0.027,0.001,0.04l0.05,0.205l-0.146,0.116l-0.434-0.059L49.881,27.659z M50.516,27.619l-0.124,0.097  l-0.023-0.096l0.022-0.134l0.214,0.019L50.516,27.619z M50.653,27.869l0.188-0.2l-0.001,0.023l0.013,0.115L50.653,27.869z   M50.876,28.009l0.002,0.022l-0.067,0.01l-0.03-0.002L50.876,28.009z M49.393,27.876l-0.197-0.026c-0.011-0.001-0.021-0.001-0.03,0  l-0.478,0.082l0.079-0.086l0.722-0.069L49.393,27.876z M50.312,28.233l0.01,0.04l-0.04-0.008L50.312,28.233z M50.006,27.288  l-0.416,0.278l-0.531,0.052l1.018-0.433L50.006,27.288z M49.183,28.05l0.037,0.005l-0.053,0.054l-0.229-0.017L49.183,28.05z   M49.466,28.088l0.386,0.053l-0.042,0.033l-0.148-0.029l-0.233-0.018L49.466,28.088z M49.599,28.341l-0.059,0.046l-0.171-0.063  L49.599,28.341z M49.608,28.626l0.044,0.017l-0.112,0.119l-0.158,0.063L49.608,28.626z M49.778,28.476l0.099-0.086l0.011,0.002  l-0.087,0.092L49.778,28.476z M50.12,28.437l0.253,0.049l0.057,0.232l-0.426-0.158L50.12,28.437z M51.356,27.86l0.079-0.024  L51.4,27.95l-0.114,0.018L51.356,27.86z M53.148,27.715l-1.588,0.768l0.041-0.051c0.01-0.011,0.017-0.025,0.02-0.039l0.07-0.287  l0.171-0.026c0.009-0.001,0.018-0.003,0.025-0.007l0.888-0.385l0.277,0.023L53.148,27.715z M52.356,27.653l-0.537,0.232  l-0.076,0.012l0.003-0.014l0.146-0.189l0.204-0.063L52.356,27.653z M51.516,27.256l-0.077,0.118l-0.296-0.025l0.023-0.025  l-0.088-0.082l0.199-0.203c0.011,0,0.021-0.002,0.031-0.006l0.314-0.12l0,0l0.092,0.012l-0.06,0.193L51.516,27.256z M50.779,26.602  l-0.113,0.001l0.061-0.111l0.199-0.251l-0.022,0.377L50.779,26.602z M50.333,26.607l-0.105,0.001l0.121-0.097L50.333,26.607z   M50.3,26.809l-0.01,0.059l-0.008,0.012l-0.839,0.357l0.529-0.424L50.3,26.809z M49.355,28.532l-0.104,0.082l-0.458,0.169  l0.327-0.338L49.355,28.532z M47.308,30.153l0.507-0.258l0.421-0.347l-0.03-0.036l1.43-0.573c0.014-0.005,0.025-0.014,0.036-0.024  l0.185-0.197l0.631,0.234l0.063,0.261l-0.008,0.027l-0.244,0.111c-0.011,0.004-0.021,0.011-0.028,0.019l-0.475,0.463l0.159-0.295  c0.008-0.014,0.012-0.03,0.012-0.046l0.006-0.546l-0.199-0.002l-0.006,0.521l-0.415,0.77l-0.115,0.089l-0.159,0.122L48.57,30.59  c-0.014,0.004-0.026,0.011-0.037,0.02l-0.007,0.006l-0.082-0.001l-1.077-0.183c-0.019-0.004-0.034-0.002-0.05,0.004l-0.493,0.177  l-0.07,0.008L47.308,30.153z M48.595,30.829l-0.07,0.055l-0.006,0l0.065-0.056L48.595,30.829z M50.222,29.886l-0.101-0.088  l-0.167,0.189L49.91,30l0.486-0.474l0.076-0.035l-0.011,0.037L50.222,29.886z M51.096,28.259l0.045-0.068l0.194-0.03l-0.064,0.211  l-0.046,0.075l-0.166-0.032L51.096,28.259z M51.875,27.33l-0.052,0.077l-0.049-0.004l0.055-0.177l0.258-0.254l0.007,0.001  L51.875,27.33z M52.056,26.689l0.021-0.034l0.082-0.034l-0.066,0.066L52.056,26.689z M51.077,25.185  c0.008-0.003,0.016-0.006,0.023-0.01v0l0.104-0.059l0.009,0.04l-0.008,0.014l-0.301,0.186l-0.039-0.112L51.077,25.185z   M50.397,26.216L50,26.535l0.418-0.442L50.397,26.216z M48.049,28.031L48.049,28.031l0.395-0.13l-0.079,0.085l-0.461,0.079  L48.049,28.031z M48.383,28.261l0.184,0.004l0.086,0.006l0.264,0.098l-0.686,0.708c-0.001,0.001-0.003,0.002-0.004,0.003  l-0.216,0.267l-0.464,0.213l-0.025,0.01l-0.084,0.047l0.205-0.38l0.257-0.456L48.383,28.261z M45.287,31.237l-0.123,0.11  l-0.009,0.008l-0.341-0.015L45.287,31.237z M46.309,30.981l0.054,0.057l-0.024-0.002l-0.072-0.022L46.309,30.981z M46.675,31.069  l-0.141-0.14l-0.065-0.069l0.01-0.008l0.391-0.046l0.49-0.173l0.954,0.162l-0.157,0.132l-0.242,0.046l-0.027,0.005v0h-0.001  l0.001,0.007l-0.682,0.136L46.675,31.069z M48.066,31.254l0.059-0.013l-0.262,0.262l-0.159,0.058l0.108-0.108L48.066,31.254z   M50.983,28.727l0.028-0.119l0.104,0.02l-0.051,0.084L50.983,28.727z M54.346,27.426l0.002-0.01l0.013-0.004L54.346,27.426z   M53.727,26.94l-0.416,0.3l-0.512,0.221l-0.673-0.042h-0.001l0.477-0.435l0.849-0.103L53.727,26.94z M52.406,26.301l0.06-0.052  l-0.006,0.029L52.406,26.301z M52.008,26.382l-0.189,0.164l-0.346,0.145l-0.26-0.033l0.228-0.32  c0.009-0.012,0.015-0.026,0.018-0.041l0.097-0.538c0.002-0.014,0.002-0.027-0.001-0.041l-0.034-0.146l0.039-0.032  c0.01-0.008,0.017-0.017,0.022-0.027l1.039-0.17L52.008,26.382z M51.797,23.698l-0.104,0.318l0.07-0.321L51.797,23.698z   M50.34,25.881l0.007-0.003l-0.698,0.739l-0.53,0.02l0.8-0.392c0.008-0.004,0.016-0.009,0.021-0.015L50.34,25.881z M47.53,27.606  c0.013-0.002,0.025-0.009,0.037-0.018l0.001,0.001l0.878-0.624l0.228-0.112l0.778-0.029l-0.586,0.62l-0.059,0.063l-0.318,0.136  l-0.503,0.198l0,0l0,0l0,0l-0.468,0.109l-0.897-0.116l0.018-0.136l0.059-0.042l0.288,0.049c0.01,0.002,0.023,0.002,0.036,0  L47.53,27.606z M46.587,28.118l0.404,0.103l-0.387,0.065L46.587,28.118z M47.471,28.342l0.022,0.006  c0.008,0.002,0.017,0.003,0.024,0.003c0.006,0,0.013,0,0.019-0.002l0.492-0.096l0.088,0.002l-0.363,0.392l0.002,0.001l-0.016,0.017  l-0.271,0.476l-0.354,0.658l-0.352,0.196l-0.002-0.277l-0.134-1.231L47.471,28.342z M46.491,30.401l-0.278,0.189l-0.017-0.018  l0.01-0.008l0.295-0.185L46.491,30.401z M46.035,30.693l0.004,0.004l-0.043,0.026L46.035,30.693z M44.273,31.252l-0.16-0.017  l-0.363-0.054l-0.088-0.004l-0.084-0.054l0.619-0.087l0.67,0.087L44.273,31.252z M42.229,31.112l-0.035-0.001l0.421-0.614  l0.229,0.379l-0.574,0.23L42.229,31.112z M42.033,30.991l-0.012-0.056l0.414-0.732l0.065,0.106L42.033,30.991z M42.085,29.749  l0.03,0.03l-0.083,0.176L42.085,29.749z M41.745,29.118L41.6,28.893l0.174,0.112l0.171,0.317L41.745,29.118z M41.153,26.226  l0.052-0.072l-0.074,0.184L41.153,26.226z M40.388,24.358l-0.085,0.11l-0.189-0.097l-0.017-0.075l0.04-0.37l0.277,0.317  L40.388,24.358z M37.349,19.192l0.129-0.035l-0.053-0.193l-0.041,0.011l0.139-0.183l0.078,0.417l-0.166,0.233L37.349,19.192z   M37.686,18.576l0.737-0.976l0.22,0.085l-0.014,0.081l-0.867,1.216L37.686,18.576z M38.564,17.443l0.119-0.003l-0.008,0.047  L38.564,17.443z M38.211,17.518l-0.578,0.777l-0.068-0.368c-0.003-0.013-0.008-0.026-0.016-0.037l-0.275-0.412l0.441,0.014  l0.36-0.027L38.211,17.518z M37.165,17.274l-0.001,0.04l-0.22-0.329l-0.021-0.035l0.425,0.233l0.273,0.106L37.165,17.274z   M35.977,16.893l0.045-0.445l0.252,0.065l-0.228,0.243c-0.007,0.007-0.013,0.016-0.017,0.025L35.977,16.893z M36.16,19.253  l0.001,0.051l-0.318,0.085c-0.002,0-0.004,0.002-0.006,0.002l-0.001-0.001l0.115-0.265L36.16,19.253z M36.525,20.372l-0.064,0.064  l0.051-0.095L36.525,20.372z M36.2,20.705l-0.037,0.022l0.042-0.031L36.2,20.705z M31.478,25.507l-0.236,0.347l-0.014-0.389  L31.478,25.507z M32.523,27.122l0.207-0.397l0.225,0.228l-0.472,0.397L32.523,27.122z M33.645,26.632l0.209-0.219l0.077,0.162  c0.005,0.011,0.012,0.021,0.021,0.029l0.396,0.382c0.003,0.008,0.007,0.016,0.013,0.022l0.007,0.008l0.139,0.814l-1.035-0.509  l-0.237-0.342L33.645,26.632z M35.268,28.426l-0.436-0.008l-0.054-0.168l-0.012-0.07L35.268,28.426z M34.896,28.618l0.169,0.002  l-0.161,0.021L34.896,28.618z M37.894,29.329l-0.091,0.025l-0.207-0.08L37.894,29.329z M39.271,30.73l-0.002,0.006l-0.014-0.001  l0.018-0.161L39.271,30.73z M39.263,31.349c0.001-0.001,0.001-0.003,0.001-0.004l0.201-0.563c0.004-0.011,0.006-0.021,0.006-0.033  l0.009-0.892l0.54,0.596l0.184,0.398l-0.286,0.337l-0.739,0.374h-0.002L39.263,31.349z M37.764,32.766l0.798-0.672l0.177-0.089  l-0.786,1.283c-0.005,0.008-0.009,0.017-0.011,0.025l-0.058,0.199l-0.021,0.009l-0.491,0.238c-0.01,0.005-0.019,0.011-0.026,0.019  l-0.303,0.299l0.531-0.827L37.764,32.766z M37.474,33.933l0.337-0.163l-0.19,0.663c-0.004,0.012-0.005,0.024-0.004,0.037  l0.117,1.143l-0.045,0.235l-0.447,0.222l-0.453-1.463L37.474,33.933z M37.933,35.638c0.001-0.01,0.002-0.02,0.001-0.028  l-0.116-1.141l0.231-0.805l0.411-0.158l1.473-0.719c0.016-0.007,0.028-0.019,0.038-0.033l0.493-0.704l0.203,0.805l-0.195,0.415  l0.002,0.001l-0.006,0.01l-0.311,0.916l-0.185,0.331l-0.438,0.385l-0.168,0.111l-0.483,0.164v0.001l-0.014,0.005l-0.491,0.256  l-0.456,0.281l-0.009,0.005L37.933,35.638z M42.624,33.709l0.064-0.543c0.001-0.012,0-0.024-0.003-0.036l-0.136-0.529  c-0.002-0.01-0.007-0.02-0.012-0.028l-0.57-0.905l-0.023-0.194l0.045-0.065h0.048c0.012,0,0.024-0.002,0.036-0.007l0.21-0.084  l1.342,0.074l0.614,0.393l0.144,0.258l-0.419,0.373c-0.01,0.008-0.018,0.018-0.022,0.029l-0.239,0.472l-0.826,0.779L42.6,33.779  L42.624,33.709z M44.688,32.4l-0.009-0.215c0-0.016-0.005-0.031-0.013-0.044l-0.031-0.056l0.277-0.247l0,0l0.064-0.058l0.252-0.224  l0.347,0.014l-0.755,0.62c-0.009,0.007-0.017,0.016-0.022,0.025L44.688,32.4z M45.442,31.367l0.279-0.249l0.067-0.039l0.083,0.025  l-0.149,0.274L45.442,31.367z M46.068,31.163L46.068,31.163l0.23,0.068l0.238,0.023l-0.583,0.117L46.068,31.163z M47.202,31.32  l0.188,0.019l0.287-0.029l-0.379,0.376l-0.323-0.32L47.202,31.32z M53.811,27.735l0.219,0.007l-0.109,0.109l-0.456,0.265  l-0.075,0.034L53.811,27.735z M54.575,27.125l-0.183,0.064l0.021-0.102l0.171,0.036C54.581,27.124,54.578,27.124,54.575,27.125z   M52.495,25.966c-0.006,0.002-0.012,0.007-0.018,0.011l0.061-0.103l-0.016,0.081L52.495,25.966z M52.099,23.973l0.097-0.238  l0.077,0.007l-0.086,0.225l-0.086,0.091L52.099,23.973z M51.688,22.705l0.486,0.034l-0.21,0.441l-0.036,0.11l-0.007,0.002  l-0.107,0.038L51.688,22.705z M50.512,23.644l0.917,0.045l0.134-0.013l-0.22,1.014l-0.03,0.016l-0.012-0.05l-0.195,0.046  l0.024,0.102L51,24.873l-0.233,0.086l-0.35-1.009l-0.189,0.065l0.352,1.014l-0.091,0.033c-0.01,0.003-0.019,0.008-0.025,0.014  l-0.086,0.064l-0.112-0.222L49.913,24.5c-0.008-0.01-0.019-0.019-0.03-0.024l-0.142-0.073L50.512,23.644z M49.773,24.644  l0.325,0.383l0.096,0.191l-0.742,0.203l-0.493,0.093l-0.681-0.114l0.171-0.018c0.012-0.001,0.022-0.004,0.032-0.009l0.496-0.229  c0.011-0.005,0.02-0.011,0.028-0.02l0.585-0.576L49.773,24.644z M50.337,25.503l0.026,0.14l-0.124,0.064l0,0  c-0.007,0.004-0.015,0.008-0.02,0.014l-0.401,0.351l-1.01,0.495l1.498-1.124L50.337,25.503z M47.466,27.415l-0.465,0.091  l-0.076-0.013l0.167-0.12l0.697-0.236L47.466,27.415z M46.186,27.778l-0.149-0.019l0.321-0.104L46.186,27.778z M46.036,28.132  l0.353-0.041l-0.002,0.019l0.022,0.21L45.936,28.4c-0.016,0.002-0.03,0.009-0.043,0.018l-0.43,0.318l-0.021,0.013l0.345-0.437  L46.036,28.132z M44.399,29.987l0.706-0.812l0.467-0.272l0.42-0.31l0.438-0.075l0.13,1.209l0.001,0.377l-0.469,0.293l-0.746,0.561  l-0.072,0.015l-1.065-0.139c-0.008-0.001-0.019,0-0.026,0l-0.863,0.122l-0.055-0.035l0.329-0.132  c0.013-0.005,0.024-0.013,0.034-0.022L44.399,29.987z M42.317,30.007l-0.355,0.629l-0.01-0.044l0.312-0.662l0.018,0.018  L42.317,30.007z M41.91,28.857c-0.003-0.002-0.004-0.005-0.007-0.007l-0.47-0.3l-0.081-0.039L41.2,28.276l-0.119-0.43l0.068-0.023  l0.662,0.071L41.91,28.857z M41.607,27.671l0.134-0.044l0.021,0.061L41.607,27.671z M41.127,27.621l-0.037-0.004l-0.077-0.019  l-0.012-0.042l0.027-0.101l-0.06-0.017l-0.026-0.095l0.042-0.104l0.08-0.025l0.511-0.052l0.099,0.277L41.127,27.621z M42.354,23.354  l0.138,1.044l-0.067,0.165l-0.08,0.196l-0.565,0.326l0.043-0.344c0.001-0.011,0.001-0.022-0.002-0.033l-0.133-0.628l0.104-0.308  c0.004-0.012,0.006-0.024,0.005-0.037l-0.027-0.527l0.057-0.431l0.168-0.133l0.17,0.227L42.354,23.354z M40.7,23.911l0.602-0.688  l0.178,0.846l-0.229,0.686l-0.07,0.347l-0.306-0.391l-0.227-0.497c-0.004-0.009-0.009-0.017-0.016-0.024l0.063-0.273L40.7,23.911z   M38.006,20.288l0.187-0.007l-0.144,0.236L38.006,20.288z M37.663,19.839l-0.146-0.173l0.021-0.024l0.114-0.161l0.062,0.329  L37.663,19.839z M37.813,19.254l0.992-1.392c0.009-0.012,0.015-0.026,0.018-0.042l0.011-0.063l0.064,0.025l0.521,0.067l0.053,0.027  l-0.09,0.376l-0.694,0.798l-0.001,0.001l0,0l-0.005,0.006l0,0l-0.357,0.39l-0.427,0.252L37.813,19.254z M38.405,17.248l-0.167,0.005  l-0.138,0.01l-0.669-0.26l-0.456-0.251l0.009-0.025l0.188-0.319l0.266,0.035l1.034,0.676L38.405,17.248z M36.849,16.565  l-0.087-0.129l0.179-0.059l0.018,0.002L36.849,16.565z M36.439,16.331l-0.03,0.01l-0.368-0.095l0.001-0.005  c0-0.004-0.001-0.008-0.001-0.013l0.257-0.387l0.063-0.053L36.439,16.331z M35.696,19.733l0.082,0.115  c0.008,0.012,0.019,0.021,0.031,0.029l0.555,0.317l-0.123,0.227l-0.862,0.634c-0.007,0.005-0.014,0.012-0.019,0.019l-0.04,0.05  l0.017-0.035c0.007-0.014,0.01-0.03,0.009-0.046l-0.021-0.481l0.355-0.816L35.696,19.733z M34.779,21.834  C34.779,21.835,34.779,21.835,34.779,21.834l-0.056,0.517l-0.134-0.174l0.197-0.431L34.779,21.834z M33.596,25.181l-0.122-0.22  l-0.006-0.067l0.15,0.203L33.596,25.181z M32.518,23.658l-0.005-0.005l-0.024-0.308l0.377,0.6L32.518,23.658z M32.274,23.161  L32.27,23.2l0.023,0.256l-0.64-0.575l-0.207-0.278l0.193-0.566l0.381-0.384l0.294-0.428l0.088-0.042l0.035,0.25l-0.239,0.634  c-0.005,0.014-0.007,0.028-0.006,0.042L32.274,23.161z M31.837,21.555l0.005-0.011l0.028-0.025l-0.004,0.006L31.837,21.555z   M32.662,20.837l-0.074,0.035l-0.026,0.01l-0.131-0.959l-0.001-0.005l0.294,0.305l0.072,0.26L32.662,20.837z M32.198,19.752  l0.035,0.201l0.138,0.995l-0.231,0.081c-0.012,0.004-0.023,0.011-0.033,0.019l-0.411,0.359c-0.01,0.009-0.018,0.019-0.024,0.031  l-0.247,0.505l-0.137,0.446l-0.003-0.004v-0.025l-0.001-0.04l0.05-0.49c0.001-0.01,0-0.021-0.002-0.031l-0.02-0.092l0.49-1.389  l0.292-0.436L32.198,19.752z M30.457,25.409l0.018-0.072l0.554,0.094l0.022,0.697l-0.14,0.502l-0.235,0.483  c-0.008,0.016-0.011,0.033-0.01,0.05l0.004,0.063l-0.346-1.178L30.457,25.409z M32.065,28.627l0.079-0.5l0.137-0.225l0.011,0.003  l0.499,0.163l0.373,0.336l-1.059,0.38L32.065,28.627z M33.299,28.258l-0.39-0.351c-0.01-0.009-0.022-0.017-0.036-0.021l-0.485-0.159  l0.03-0.049c0.003-0.006,0.005-0.012,0.007-0.018l0.656-0.553l0.24,0.348c0.01,0.014,0.022,0.025,0.038,0.033l0.996,0.489  l-0.908,0.326L33.299,28.258z M34.555,28.119l0.03,0.178l0.052,0.162l-0.325,0.11l-0.546-0.168L34.555,28.119z M34.698,28.649  l0.006,0.018l-0.053,0.007l-0.014-0.004L34.698,28.649z M35.705,28.739l0.012,0l0.099,0.027l0.157,0.059l0.255,0.188v0  c0.013,0.009,0.026,0.016,0.042,0.018l0.487,0.089l0.073,0.028l0.492,0.235l0,0l0.007,0.003l0.433,0.166  c0.02,0.007,0.041,0.008,0.063,0.003l0.508-0.139l0.087,0.01l0.668,0.153l0.195,0.082v0.064l-0.164,0.446l-0.062,0.556l0.014,0.566  l-0.159,0.393l-0.453,0.209c-0.009,0.004-0.017,0.009-0.024,0.016l-0.82,0.72v0c-0.012,0.011-0.021,0.023-0.026,0.038l-0.19,0.491  l-0.713,1.108l-0.758-2.45l-0.959-2.984L35.705,28.739z M36.436,35.127l0.198-0.322l0.207,0.673l0.214,0.684l-0.59,0.293  l-0.408,0.142L36.436,35.127z M37.642,36.094l-0.008,0.042l-0.126,0.024L37.642,36.094z M37.805,36.307l0.343-0.066  c0.01-0.002,0.019-0.005,0.026-0.01l0.146-0.073l-0.633,0.77L37.805,36.307z M38.097,36.046l-0.251,0.049l0.021-0.113l0.152-0.075  l0.458-0.282l0.42-0.22l-0.227,0.325l-0.038,0.047L38.097,36.046z M41.234,33.7c0.01-0.011,0.017-0.023,0.021-0.037l0.491-1.566  l0.023-0.088l0.592,0.666l0.037,0.145l0.088,0.342l-0.057,0.503l-0.066,0.187l-0.439,0.135l-0.514,0.127l-0.007,0.002l-0.006,0.001  l0,0l-0.008,0.002l-0.539,0.169l-0.277,0.145L41.234,33.7z M45.92,32.426l0.93-0.337l-1.283,0.836l-0.003,0.002l-0.191,0.01  L45.92,32.426z M49.098,30.858l0.016,0.004l-0.037,0.012L49.098,30.858z M54.694,27.443c-0.003,0-0.006-0.002-0.009-0.001l-0.008,0  l0.177-0.142l0.034-0.002L54.694,27.443z M54.967,26.955l0.089-0.181l0.163-0.022L54.967,26.955z M54.538,26.909l0.272-0.089  l-0.065,0.133L54.538,26.909z M53.426,25.011l-0.417,0.068l0.029-0.049c0.009-0.014,0.013-0.029,0.014-0.045l0.01-0.181l0.637-0.038  c0.01,0,0.02-0.002,0.029-0.006l0.042-0.015l-0.003,0.023L53.426,25.011z M52.11,24.418l-0.002-0.076l0.237-0.253  c0.009-0.009,0.016-0.021,0.021-0.033l0.112-0.295l0.26,0.024L52.11,24.418z M52.611,23.573l0.375-0.037l-0.065,0.066L52.611,23.573  z M53.283,23.522l0.131,0.028l-0.189,0.03L53.283,23.522z M52.207,22.509l-0.399-0.005l0.041-0.054l0.053-0.069l0.311-0.127  L52.207,22.509z M51.491,22.729l0.133,0.666l-0.001,0.004l-0.124,0.044l-0.528-0.117l-0.138,0.002l0.495-0.487L51.491,22.729z   M46.295,25.688l0.021-0.015l0.532-0.047l0.516-0.13l0.163-0.017l1.417,0.236c0.006,0.001,0.011,0.001,0.017,0.001  s0.013,0,0.019-0.002l0.519-0.098l0.385-0.105l-1.608,1.207l-0.081,0.07l-1.179,0.399c-0.01,0.003-0.019,0.008-0.026,0.014  l-0.339,0.244l-0.168-0.029c-0.013-0.002-0.031,0-0.048,0.003l-0.507,0.166l-0.695,0.131v0.001c-0.003,0-0.007,0-0.01,0.001  l-0.659,0.197c-0.013,0.003-0.024,0.01-0.035,0.018l-0.109,0.089l0.571-0.737l0.264-0.462l0.166-0.217L46.295,25.688z   M44.822,27.174l-0.007,0.009l-0.002-0.001l0.01-0.009L44.822,27.174z M42.717,29.994l-0.092,0.134l-0.076-0.125l0.031-0.055  l0.333-0.273L42.717,29.994z M42.155,29.292l-0.144-1.376l0.645,0.069l0.021-0.199l-0.697-0.074l-0.052-0.146L42,27.541l0.521-0.159  l-0.059-0.191l-0.523,0.16l-0.078,0.026l-0.084-0.235l0.373-0.038c0.01-0.001,0.019-0.003,0.027-0.007l0.522-0.213l0.461-0.293  c0.012-0.007,0.021-0.017,0.028-0.028l0,0l0,0c0,0,0.001,0,0.001-0.001l0.001-0.001l0,0l0.011-0.016l0.603-0.879l0.988-1.323  l0.069-0.122l-0.001,0.069l-0.139,0.168c-0.011,0.013-0.018,0.028-0.021,0.045l-0.272,1.438l-1.015,1.933l-0.381,0.619l-0.754,1.03  L42.155,29.292z M45.052,24.599c0.003-0.009,0.004-0.018,0.004-0.027l0.004-0.208l0.124-0.151l-0.093,0.382L44.99,24.8  L45.052,24.599z M45.293,23.765l-0.229,0.278l0.004-0.172l0.253-0.221L45.293,23.765z M44.626,24.233l-0.608,0.813l-0.088-0.861  l0.651-0.339l0.273-0.016L44.626,24.233z M43.819,25.074l-0.201,0.462l-0.584,0.898l-0.425,0.272l-0.493,0.199l-0.407,0.042  l-0.074-0.208l-0.142-0.767l0.125-0.311l0.832-0.666c0.014-0.011,0.023-0.024,0.03-0.041l0.023-0.059l0.139-0.08l0.503-0.224  l0.593-0.308L43.819,25.074z M37.97,20.091l-0.034-0.181l0.409-0.242l-0.05,0.41L37.97,20.091z M36.902,15.072l-0.396,0.332  l-0.146-1.009l-0.197,0.028l0.164,1.131l-0.169,0.142c-0.007,0.006-0.014,0.013-0.019,0.021l-0.174,0.261l-0.333-1.028l0.341-1.006  l0.578,0.583l0.357,0.309l-0.019,0.125c-0.002,0.009-0.002,0.019,0,0.028L36.902,15.072z M35.363,19.972l-0.058,0.132l-0.004-0.088  L35.363,19.972z M34.857,20.93l-0.018,0.199l-0.082-0.075l0.044-0.263L34.857,20.93z M34.738,21.372l-0.055,0.121l0.022-0.132  L34.738,21.372z M33.869,23.154l-0.219,0.5c-0.006,0.013-0.009,0.027-0.008,0.042l0.01,0.555l0.057,0.51l-0.024,0.092l-0.154-0.207  l-0.087-0.072l-0.006-0.074c-0.001-0.016-0.006-0.032-0.015-0.045l-0.872-1.387l-0.072,0.045l0.174-1.566l-0.012-0.087l0.175-0.466  l0.108-0.047l0.084,0.306c0.004,0.013,0.01,0.025,0.019,0.036l0.668,0.835l0.109,0.501l0.068,0.523L33.869,23.154z M31.032,23.412  c0.015,0,0.028,0,0.042-0.004l0.009-0.003v0.051l0,0c0,0.009,0.001,0.018,0.004,0.027l0.145,0.501l-0.196,0.977l-0.336-0.228  c-0.013-0.009-0.028-0.014-0.043-0.016l-0.025-0.003l0.058-0.232c0.002-0.01,0.003-0.02,0.002-0.03l-0.021-0.355l0.017-0.167  l0.218-0.463l0.06-0.062L31.032,23.412z M30.565,23.715l-0.184-0.341l-0.024-0.034l0.366,0.039L30.565,23.715z M30.229,25.494  l-0.001,0.005l-0.105,0.536c-0.003,0.016-0.002,0.032,0.002,0.048l0.559,1.895L30.4,27.754l-0.615-0.761  c-0.011-0.013-0.024-0.023-0.04-0.03l-0.525-0.208v-0.001l-0.004-0.001h0h-0.001l-0.531-0.1c-0.015-0.003-0.028-0.003-0.043,0.001  l-0.15,0.038l-0.762-0.313l-0.555-0.599l0.04-0.038l0,0h0l0.047-0.062l0.061-0.011l0.15-0.066l0.451,0.145  c0.01,0.003,0.021,0.005,0.031,0.005c0.002,0,0.004,0,0.006,0l0.542-0.031c0.017-0.001,0.034-0.006,0.049-0.016l0.458-0.298  l-0.109-0.168l-0.435,0.284l-0.498,0.028l-0.219-0.07l0.555-0.245l0.534-0.115c0.014-0.003,0.027-0.009,0.038-0.017l0.426-0.313  l0.262-0.13l-0.015,0.116l0.802,0.102L30.229,25.494z M20.837,26.797l0.052,0.57l-0.262-0.251l0.137-0.239L20.837,26.797z   M21.168,26.438l0.911,0.002l-0.012,0.041l-0.143,0.183l-0.55,0.943c-0.007,0.012-0.011,0.025-0.013,0.039L21.33,27.92l-0.221-0.334  l-0.089-0.987L21.168,26.438z M23.157,27.302c-0.008,0.008-0.015,0.018-0.021,0.028l-0.491,0.972l-0.258,0.481  c-0.005,0.01-0.009,0.021-0.011,0.031l-0.096,0.591l-0.343-0.546l0.213-0.472c0.005-0.012,0.008-0.025,0.009-0.038l0.017-0.546  L22.054,27.8l0.227-0.28l0.199-0.086l0.96-0.402l-0.182,0.174L23.157,27.302z M27.651,26.565l0.51,0.209l-0.618,0.155l-0.376-0.35  L27.651,26.565z M21.968,27.906l0.004-0.005l-0.013,0.423l-0.15,0.332L21.968,27.906z M22.178,27.344  c-0.016,0.006-0.029,0.017-0.04,0.03l-0.341,0.426l0,0c-0.01,0.012-0.017,0.026-0.02,0.042l-0.121,0.574l-0.154-0.234l0.008-0.071  l0.048-0.416l0.609-0.876c0.006-0.008,0.011-0.018,0.014-0.028l0.066-0.217l0.103-0.132l0.334,0.001c0,0,0,0,0,0  c0.016,0,0.031-0.004,0.044-0.011l0.399-0.198l0.208,0.135l0.202,0.392l-1.115,0.481L22.178,27.344z M25.962,25.933l0.054,0.042  l-0.104-0.021L25.962,25.933z M26.102,25.619l0.054,0.013l-0.155,0.066L26.102,25.619z M24.123,26.231l-0.251,0.306l0.004-0.314  L24.123,26.231z M23.672,26.583l-0.17-0.33c-0.008-0.015-0.02-0.028-0.034-0.038l-0.011-0.007l0.22,0.008L23.672,26.583z   M22.734,26.194c0.007,0.002,0.014,0.002,0.022,0.001l-0.093,0.046l-0.118,0l0.077-0.069l0.057,0.01L22.734,26.194z M24.413,26.331  l0.041,0.035l-0.129,0.056L24.413,26.331z M24.558,26.183l0.017-0.017l0.066-0.016l0.214-0.001l0.071,0.014l-0.264,0.114  L24.558,26.183z M26.523,26.121l-0.353-0.278l0.149-0.064l0.23,0.316L26.523,26.121z M25.833,25.576l-0.033-0.026l0.052,0.012  L25.833,25.576z M25.671,25.704l-0.285,0.224l-0.297,0.036l-0.095-0.008l-0.173-0.041l0.404-0.413l0.057-0.069l0.062,0.014  L25.671,25.704z M27.136,26.379l-0.167-0.047l-0.155-0.213l0.213-0.202l0.42,0.453L27.136,26.379z M26.696,25.957l-0.176-0.242  l0.222,0.051c0.007,0.001,0.015,0.002,0.022,0.002c0.006,0,0.012,0,0.017-0.001l0.09-0.016l0.02,0.021L26.696,25.957z M27.146,25.5  l-0.202,0.035l-0.046-0.051l0.056-0.047L27.146,25.5L27.146,25.5z M26.589,25.445l-0.122,0.053l-0.125-0.029l-0.018-0.024  l0.03-0.023l0.212-0.001L26.589,25.445z M23.88,25.957l0.001-0.102l0.115,0.101L23.88,25.957z M22.185,26.095l-0.044,0.146  l-0.788-0.002l0.23-0.249L22.185,26.095z M21.586,28.677l0.011,0.018l-0.004,0.021L21.586,28.677z M21.839,29.078l0.393,0.626  l-0.065,0.402l-0.436-0.789L21.839,29.078z M22.393,29.961l0.297,0.474c0.004,0.007,0.01,0.014,0.016,0.02l0.384,0.36l0.015,0.032  l-0.049-0.044l-0.714-0.531L22.393,29.961z M23.528,29.828l-0.126,0.556l0.009,0.541l-0.003,0.097l-0.144-0.309  c-0.005-0.012-0.013-0.022-0.022-0.031l-0.389-0.365l-0.411-0.655l0.13-0.799l0.251-0.469l0.485-0.959l0.383-0.364l-0.001-0.001  l0.002-0.002l0.003-0.003l0.041,0.08L23.528,29.828z M25.994,26.275l0.257,0.104l-0.01,0.009l-0.293-0.115L25.994,26.275z   M26.454,26.461l0.519,0.21l0.031,0.029l-0.115-0.059l-0.442-0.173L26.454,26.461z M29.177,26.95l0.469,0.189l0.216,0.267  l-0.874-0.474L29.177,26.95z M27.37,25.207l-0.095,0.124l-0.139-0.044l0.08-0.066c0.011-0.009,0.02-0.021,0.026-0.034l0.193-0.405  L27.37,25.207z M27.499,24.103l-0.045,0.104l0.033-0.15l0.027-0.009L27.499,24.103z M27.288,24.582l-0.219,0.5l-0.166,0.138  l-0.251,0.001l-0.018-0.019l0.383-0.302c0.007-0.005,0.013-0.012,0.018-0.019l0.008-0.011L27.288,24.582z M24.789,25.42  l-0.242,0.295l-0.107-0.084l-0.167-0.305l0.455,0.093L24.789,25.42z M24.062,25.357l0.212,0.387  c0.007,0.012,0.016,0.022,0.026,0.031l0.12,0.094l-0.054,0.065l-0.08,0.01l-0.402-0.353l0.002-0.177L24.062,25.357z M23.684,25.682  l-0.003,0.276l-0.391,0.003l-0.193,0.013l-0.148-0.097l0.261-0.237l0.31-0.103L23.684,25.682z M21.618,29.568l0.01-0.022  l0.405,0.733c0.007,0.013,0.016,0.023,0.028,0.032l0.064,0.048l-0.164,1.009l-0.434-1.374L21.618,29.568z M22.212,33.092  l-0.03-0.107l-0.104-0.377l0.103-0.506c0.003-0.017,0.002-0.034-0.003-0.05l-0.06-0.19l0.018-0.32l0.17-1.048l0.623,0.463  l0.384,0.352l0.076,0.214l-0.018,0.494c0,0.017,0.003,0.034,0.011,0.049l0.245,0.473l0.32,1.593  c0.002,0.012,0.007,0.023,0.014,0.034l0.281,0.444l0.117,0.664l-1.792-1.8L22.212,33.092z M24.99,36.922l0.028,0.067l-0.207-0.304  l-0.041-0.231L24.99,36.922z M24.14,34.073l-0.19-0.938l0.393,1.238l0.001,0.021L24.14,34.073z M24.307,28.434l-0.044-0.685  c0-0.014-0.004-0.027-0.011-0.04l-0.319-0.619l-0.029-0.24l0.021-0.022l0.718-0.301l0.249,0.214l0.018,0.016l0,0l0.001,0  c0.008,0.007,0.018,0.013,0.027,0.017l0.595,0.24l-0.918,0.756c-0.012,0.01-0.021,0.022-0.028,0.036L24.307,28.434z M25.029,26.597  l-0.177-0.156l0.425-0.178c0.008-0.003,0.016-0.008,0.023-0.014l0.013-0.01l0.768,0.3L25.88,26.73l-0.171,0.141L25.029,26.597z   M26.012,26.88l0.274-0.261l0.52,0.204l0.38,0.195l-0.122,0.03l-1.054-0.056l-0.09-0.037L26.012,26.88z M27.876,27.237l-0.071-0.066  l0.753-0.235l0.078,0.032l1.423,0.771l0.2,0.158l0.06,0.074l-0.301-0.231c-0.012-0.009-0.024-0.015-0.039-0.019L27.876,27.237z   M31.482,29.885l0.205,0.394l0.145,1.042l-0.146,0.522l-0.012,0.12l-0.018-0.11l-0.146-0.505l-0.077-1.079L31.482,29.885z   M31.935,32.94L31.935,32.94l0-0.008v0l0-0.001l-0.1-0.539l0.047-0.512l0.149-0.525c0.004-0.014,0.005-0.027,0.003-0.041  l-0.079-0.565l0.26,1.084l-0.414,2.122h0c-0.002,0.012-0.003,0.023-0.001,0.034l0.082,0.536l0.058,0.551l0.005,0.025l-0.072,0.033  l-0.188-0.506l0.027-0.534l0.224-1.117C31.938,32.966,31.937,32.953,31.935,32.94z M37.594,36.348l-0.103,0.531l-0.149-0.483  L37.594,36.348z M38.761,35.935l0.331-0.167l-0.02,0.024l-0.697,0.612L38.761,35.935z M39.018,35.582l0.114-0.163l0.256-0.169  l0.08-0.023c0.014-0.004,0.026-0.011,0.038-0.021l0.06-0.052l0.051-0.025l-0.213,0.259L39.018,35.582z M39.851,35.155l0.108-0.194  l0.501-0.245l0.467-0.245l0.516-0.16l0.011-0.003l0.503-0.108l0.028,0.005l-0.966,0.37l0.001,0.001l-0.01,0.004l-1.17,0.589  L39.851,35.155z M42.424,34.272l0.053,0.009c0.01,0.002,0.021,0.002,0.03,0l1.064-0.161l0.522-0.185l0.05-0.022l-0.242,0.804  l-1.097,0.293c-0.015,0.004-0.027,0.011-0.039,0.02l-0.638,0.534l0.123-0.805L42.424,34.272z M44.464,33.546l0.483-0.307  l0.157-0.062c0.012-0.004,0.022-0.011,0.032-0.02l0.008-0.008l0.243-0.013l-0.927,0.414L44.464,33.546z M46.557,32.734l-0.495,0.112  l0.984-0.631l0.029-0.029l0.282-0.163l0.184,0.181l0.118,0.185L46.557,32.734z M47.771,32.563l0.188,0.292l-0.307-0.002  l-0.371-0.136L47.771,32.563z M51.262,28.85l0.294-0.138l0.003,0l-0.416,0.284L51.262,28.85z M55.572,27.435l-0.57,0.026  l0.227-0.168l0.459,0.083L55.572,27.435z M55.297,26.987l-0.061,0.009l0.135-0.108L55.297,26.987z M54.294,26.664l-0.091-0.012  l-0.077-0.083l-0.068,0.064l-0.14-0.018l-0.079-0.031c-0.011-0.004-0.023-0.007-0.036-0.007h-0.001l-0.546,0.006v0.001h-0.012  l-0.308,0.038l0.204-0.385c0.006-0.011,0.01-0.022,0.012-0.035l0.013-0.104l0.147-0.113c0.009-0.007,0.017-0.016,0.023-0.025  l0.118-0.182l0.249-0.086c0.016-0.005,0.029-0.014,0.04-0.025l0.378-0.395l-0.145-0.139l-0.322,0.336l0.277-0.425  c0.009-0.014,0.014-0.029,0.016-0.046l0.011-0.122l0.443-0.315l0.133-0.048l0.227-0.005l0.113,0.006l-0.464,1.565L54.294,26.664z   M52.612,22.089l0.18-0.073l-0.197,0.22L52.612,22.089z M52.217,21.993v0.044l-0.078,0.031l0.007-0.01L52.217,21.993z   M45.916,21.474l0.309-0.403l0.152-0.135l0.147-0.045l-0.083,0.677l-0.242,0.35l-0.127,0.017l-0.26-0.04L45.916,21.474z   M46.056,22.134c0.002,0,0.004,0,0.006,0l-0.398,0.668l0.11-0.711L46.056,22.134z M48.037,19.025l0.32-0.402l0.466-0.386  l-0.05,0.064l-0.604,0.649L48.037,19.025z M46.572,20.504l-0.071,0.055l-0.107,0.096l0.065-0.123  c0.005-0.009,0.009-0.019,0.011-0.028l0.279-1.434L46.572,20.504z M45.576,22.061l-0.186,1.198l-0.081,0.136l-0.237,0.207  l0.012-0.659L45.186,22L45.576,22.061z M44.885,22.93l-0.012,0.7l-0.325,0.019c-0.014,0-0.027,0.004-0.04,0.011l-0.602,0.313  l-0.24-1.039l0.1-1.058l0.025-0.088l1.197,0.183L44.885,22.93z M43.108,21.804c0.006-0.007,0.011-0.016,0.015-0.025l0.027-0.064  l0.295,0.02l0.131,0.02l-0.011,0.089l-0.101,1.087c-0.001,0.011,0,0.021,0.002,0.032l0.244,1.051l0.006,0.057l-0.658,0.342  l-0.437,0.195l0.064-0.159c0.003-0.008,0.005-0.016,0.007-0.025l0.07-0.563l-0.051-0.543c-0.002-0.015-0.007-0.03-0.015-0.043  l-0.493-0.8l0.023-0.019l0.491-0.204c0.016-0.006,0.028-0.016,0.039-0.028L43.108,21.804z M38.369,14.335l0.309,0.399l0.465,1.078  l-0.435,0.846l-0.872-1.099l-0.091-0.128l0.067-0.115l-0.172-0.103l-0.022,0.038l-0.111-0.158l-0.1-0.086l0.089-0.169l0.047-0.039  l0.406-0.346l0.302-0.196L38.369,14.335z M37.83,14.292l-0.082,0.069l0.142-0.269l0.022-0.062l0.158,0.105L37.83,14.292z   M37.707,14.012l-0.364,0.689l-0.146,0.123l-0.075-0.065l0.046-0.319l0.014-0.541l0.03-0.402l0.262,0.241l0.268,0.178L37.707,14.012  z M36.982,13.889l-0.013,0.534l-0.026,0.181l-0.255-0.221l-0.644-0.649l0.272-0.806l0.087-0.08l0.173,0.224  c0.008,0.01,0.018,0.019,0.029,0.025l0.417,0.239L36.982,13.889z M34.923,17.052l0.604-1.784l0.301,0.931  c-0.002,0.007-0.006,0.013-0.007,0.02l-0.146,1.614l0,0l-0.09,0.525l-0.083,0.267l-0.295-0.163l-0.098,0.175l0.331,0.183  l-0.182,0.582l0,0v0.001l-0.148,0.504l-0.186,0.133c-0.013,0.009-0.023,0.021-0.03,0.035l-0.027,0.053l0.079-1.417L34.923,17.052z   M34.673,20.468l0.008,0.02l-0.038,0.074c-0.005,0.009-0.008,0.019-0.01,0.029l-0.049,0.288l-0.166-0.392L34.673,20.468z   M34.422,21.006c0.006,0.013,0.014,0.025,0.024,0.035l0.041,0.038l-0.413-0.136l-0.063,0.19l0.502,0.165l-0.101,0.596l-0.152-0.266  l-0.174,0.1l0.271,0.471l-0.325,0.636l-0.032-0.243l-0.116-0.533c-0.003-0.015-0.01-0.029-0.02-0.041l-0.669-0.836l-0.087-0.315  l0.618-0.272l-0.017-0.037l0.04-0.019l0.457-0.035L34.422,21.006z M32.125,19.313l-0.407-0.363  c-0.006-0.006-0.014-0.011-0.022-0.015l-1.31-0.65l0.016-0.13l0.504,0.219l0.938,0.509l0.288,0.437L32.125,19.313z M30.196,18.191  l-0.945-0.469c-0.015-0.008-0.034-0.013-0.049-0.011l-0.454,0.021l-0.053-0.315l1.515,0.656L30.196,18.191z M28.896,18.618  l-0.115-0.688l0.404-0.018l0.986,0.489l-0.037,0.31c-0.002,0.013,0,0.026,0.003,0.039l0.152,0.532l0.189,0.524l0.472,0.967  l0.074,0.532l0.082,0.387l-0.032,0.091c-0.003,0.009-0.004,0.019-0.004,0.028l-0.419-1.281l-0.19,0.063l0.397,1.215l-0.91-1.225  l0.019-0.057L29.884,20.5l-0.124-0.167L28.896,18.618z M29.871,20.813l1.179,1.586l0.029,0.089l0.002,0.507l-0.193,0.199  l-0.685-0.073l-0.14-0.195l0.037-0.015l-0.077-0.185l-0.114,0.048l-0.798-0.762l0.412-0.474l0.274-0.494L29.871,20.813z   M29.909,23.052l0.034,0.047c-0.005,0-0.01,0-0.016,0.001l-0.691,0.211l0.359-0.191l0.268-0.111L29.909,23.052z M27.999,24.36  l-0.205,0.468l-0.189,0.167l0.073-0.476l0.348-0.319L27.999,24.36z M27.573,23.82l-0.032,0.01l0.096-0.344l0.006,0.064L27.573,23.82  z M26.283,25.222l-0.121,0l-0.004-0.006l-0.075-0.315l0.029,0.029l0.229,0.247L26.283,25.222z M25.585,24.675l-0.048,0.021l0.1-0.25  L25.69,24.5L25.585,24.675z M24.951,25.222l-0.21-0.003l-0.526-0.109c-0.004,0-0.009,0.001-0.013,0.001l0.008-0.437  c0-0.012-0.002-0.024-0.006-0.036l0-0.001l0.685,0.406l0.121,0.108L24.951,25.222z M24.009,24.689L24,25.167l-0.11,0.037  l0.003-0.253c0-0.015-0.003-0.029-0.009-0.042l-0.026-0.058l-0.205-0.459l-0.016-0.021l-0.011-0.024l0.308,0.138L24.009,24.689z   M23.022,23.646l-0.171,0.079l0.032,0.071l-0.147-0.066l0.027-0.155c0.001-0.004,0-0.009,0-0.014l0.001-0.008l-0.034-0.69  l0.089,0.194L23.022,23.646z M22.517,22.395l0,0.007L22.5,22.357L22.517,22.395z M22.704,25.021l-0.219,0.154l0.217-1.242  l0.309,0.138l0.06,0.129l-0.011,0.523c0,0.011,0.001,0.023,0.005,0.034l0.176,0.517c0.006,0.017,0.016,0.031,0.029,0.043  l0.076,0.067l-0.219,0.073c-0.014,0.004-0.025,0.011-0.036,0.021l-0.315,0.287l-0.203-0.132l-0.073-0.075l-0.006-0.143l0.327-0.23  L22.704,25.021z M22.302,25.643l0.002,0.061L22.25,25.88l-0.445-0.131l0.054-0.058l0.36-0.133L22.302,25.643z M20.79,26.272  l-0.326,0.687l-0.16-0.153l-0.265-0.549l0.078,0.011c0.004,0,0.009,0.001,0.013,0.001c0.007,0,0.014-0.001,0.021-0.002l0.626-0.132  L20.79,26.272z M20.458,30.115l0.149,0.509c-0.006,0.009-0.013,0.02-0.016,0.03L20.45,31.2l-0.183-0.561L20.458,30.115z   M20.205,33.492l-0.442-0.29l-0.054-0.052l0.462,0.009l0.328,0.138l0.023,0.092l0.017,0.452L20.205,33.492z M19.691,32.95  l0.001-0.004l0.01,0.004H19.691z M18.369,32.398l0.486,0.202l0.306,0.296l-0.861-0.437l-0.224-0.194L18.369,32.398z M15.819,36.329  l-0.897-0.578l-0.37-0.291l0.339,0.034l0.185,0.047l0.963,0.79l-0.142,0.019L15.819,36.329z M18.65,36.927l0.074,0.143l-0.179-0.172  L18.65,36.927z M21.494,38.828l-0.21-0.097l0.271,0.068L21.494,38.828z M20.436,38.339l-0.744-0.344l-0.008-0.006l-0.513-0.491  L18.913,37l0.277,0.076l0.77,0.721l0.366,0.428l0.14,0.119L20.436,38.339z M18.693,36.573l-0.416-0.803l1.844,0.146l0.622,0.285  l0.21,0.457l0.401,0.668l-1.24-0.531l-1.082-0.183L18.693,36.573z M21.673,37.47l-0.543-0.904l-0.109-0.236l0.055,0.025l1.276,1.026  c0.006,0.005,0.014,0.01,0.021,0.013l0.963,0.438l0.009,0.004l0.315,0.419l0.429,0.522l-0.222,0.048l-0.442-0.113l-0.841-0.683  L21.673,37.47z M21.18,36.186l-0.287-0.133l-0.229-0.497l-0.284-0.384l0.214,0.117l0.639,0.872l0.237,0.257L21.18,36.186z   M16.825,36.49l-0.077,0.015L16.7,36.458l0.436-0.01l0.103,0.04L16.825,36.49z M15.526,35.655l0.283,0.071l0.029,0.015l0.453,0.543  L15.526,35.655z M14.386,35.585l0.419,0.329l0.744,0.479l-0.009,0.001l-0.539,0.045l0.017,0.199l0.543-0.045l0.322-0.041  l0.261,0.067l-0.864,0.165l-0.413-0.087l-0.436-0.252l-0.263-0.448c-0.006-0.01-0.014-0.02-0.023-0.027l-0.411-0.332l-0.148-0.243  L14.386,35.585z M19.209,38.121l-1.774-0.933l-0.37-0.368l0.038,0.004l0.305,0.062c0.019,0.005,0.039,0.002,0.057-0.005l0.043-0.018  l0.396,0.039l0.495,0.133l0.61,0.584l0.094,0.183c0.007,0.014,0.018,0.026,0.03,0.035l0.412,0.297l0.018,0.017  c0.008,0.008,0.018,0.014,0.027,0.019l0.07,0.032L19.209,38.121z M21.923,38.695c-0.011-0.008-0.022-0.014-0.035-0.017l-1.035-0.267  l-0.386-0.328l-0.362-0.425l-0.796-0.746c-0.012-0.011-0.026-0.019-0.042-0.023l-0.293-0.081l0.006,0.001l0.029,0.003l0,0h0l0,0  l1.048,0.174l1.488,0.639c0.001,0.001,0.002,0.002,0.003,0.003l0.927,0.567l0.804,0.654l-1.271-0.091L21.923,38.695z M22.477,37.215  l-1.091-1.18l-0.645-0.882c-0.008-0.013-0.02-0.022-0.032-0.029l-0.501-0.271l-0.08-0.021l-0.104-0.141l-0.302-1.028l-0.006-0.022  l-0.048-0.26l0.418,0.273l0.355,0.375l0.45,0.981l0.496,0.973c0.005,0.011,0.012,0.021,0.021,0.028l0.803,0.74  c0.008,0.008,0.019,0.015,0.029,0.019l0.49,0.207l0.401,0.325l0.217,0.313L22.477,37.215z M20.667,33.146l-0.078-0.312l0.044-1.079  l0.001-0.037l0.043,0.033l0.373,0.409l0.385,0.36l0.462,0.98l0.291,0.463c0.007,0.012,0.016,0.021,0.026,0.028l0.199,0.143  l-1.176-0.745l0,0L20.667,33.146z M31.454,42.073l0.098-0.274l-0.103,0.385L31.454,42.073z M32.7,39.547l0.43-0.269l0.238-0.065  l0.062,0.081l-1.359,1.502L32.7,39.547z M33.444,38.983l-0.004-0.005l0.75-0.525L33.8,38.885L33.444,38.983z M35.263,37.565  l0.413-0.332l1.416-0.789l0.049-0.01l0.269,0.858l-0.517,1.56l-0.059,0.013l-2.156-0.216c-0.012-0.001-0.024,0-0.036,0.003  l-0.48,0.133L35.263,37.565z M37.313,38.766l-0.194,0.04l0.481-1.454l1.616-1.421l0.313-0.383l1.561-0.786h0.001l0,0l0.022-0.009  l1.071-0.396l-0.126,0.353l-0.163,1.055l-0.634,0.858c-0.007,0.008-0.011,0.018-0.015,0.027l-0.341,1.016l-0.269,0.443l-0.304,0.17  l-0.985-0.355c-0.013-0.005-0.032-0.005-0.039-0.006l-0.545,0.028c-0.016,0.001-0.031,0.005-0.045,0.013L37.313,38.766z   M41.087,37.749l0.345-1.02l0.631-0.854l0.814-0.679l0.927-0.247l-0.844,1.798l-1.115,1.313L41.261,38.1l-0.382-0.004L41.087,37.749  z M50.861,29.442l0.008-0.016l0.86-0.586l0.338-0.04l-0.084,0.051L50.861,29.442z M52.694,28.702l0.071-0.003l0.197,0.066  l-0.194-0.004l-0.112-0.04L52.694,28.702z M56.675,26.887l-0.011-0.021l-0.687,0.358l-0.405-0.073l0.024-0.003l-0.026-0.192  l0.203-0.276l0.154-0.021c0.011-0.001,0.021-0.004,0.029-0.008l0.121-0.056l0.788-0.08c0.012-0.001,0.023-0.004,0.034-0.01  l0.043-0.021L56.675,26.887z M56.828,26.318l-0.189,0.02l0.807-0.371l-0.017-0.037l0.284-0.044L56.828,26.318z M56.361,26.095  l0.49-0.076l-0.83,0.381l-0.046,0.005l0.004-0.005L56.361,26.095z M55.832,24.571l0.403,0.101l-1.087,1.465l-0.214,0.433  l-0.098,0.032l-0.225,0.03l0.387-0.654l0.424-0.311l-0.119-0.161l-0.44,0.323c-0.011,0.008-0.02,0.018-0.026,0.03l-0.271,0.458  l0.037-0.188l0.474-1.602L55.832,24.571z M54.622,24.022l0.454-0.129l-0.043,0.084l-0.028,0.095L54.34,24.32l-0.132,0.003  L54.622,24.022z M54.104,23.451c-0.016-0.005-0.033-0.007-0.049-0.004l-0.057,0.009l-0.002-0.019l0.091-0.009l0.124,0.042  l-0.035,0.005L54.104,23.451z M55.891,22.916l-1.276,0.479l-0.483-0.163c-0.014-0.004-0.027-0.005-0.042-0.005l-0.063,0.006  l0.522-0.158l0.241,0.104c0.013,0.005,0.026,0.008,0.04,0.008c0.01,0,0.02-0.001,0.028-0.004l1.185-0.353L55.891,22.916z   M54.264,22.953l-0.594,0.179l0.304-0.305L54.264,22.953z M54.126,22.39l-0.198,0.2l-0.019-0.008L54.126,22.39z M52.743,22.517  l-0.005-0.001l-0.125-0.001l0.171-0.191L52.743,22.517z M53.034,21.156l-0.128,0.6l-0.267,0.109l0.031-0.26l0.008-0.032l0.244-0.222  c0.008-0.007,0.016-0.016,0.021-0.026L53.034,21.156z M50.412,18.375c0.016,0.007,0.031,0.011,0.05,0.009l0.527-0.036l0.522,0.105  c0.007,0.001,0.013,0.002,0.02,0.002c0.011,0,0.021-0.001,0.03-0.005l0.197-0.063l0.323,0.017l0.525,0.018l0.168,0.041l0.185,1.087  l-0.13,0.459l-0.1,0.225l-0.054-0.011l-0.05,0.244l-0.055,0.122l-0.128-0.371l-0.189,0.065l0.174,0.498l0.015,0.098l-0.054,0.12  l-0.143,0.513l-0.259,0.422l-0.021,0.019l-0.197,0.267l-0.145,0.059l-0.021,0.012v-0.001l-0.394-0.995l0.032-0.522l-0.199-0.013  l-0.034,0.545c-0.001,0.015,0.001,0.029,0.007,0.043l0.397,0.998l0.01,0.05l-0.333,0.192l-1.543,0.239l-0.451,0.006l-0.556-0.024  v0.002c-0.009,0-0.018-0.001-0.025,0l-0.481,0.105l-0.513-0.125c-0.013-0.003-0.026-0.005-0.038-0.001l-1.088,0.166  c-0.015,0.002-0.029,0.007-0.041,0.016l-0.802,0.544l0.028-0.184l0.728-1.221l0.004-0.006l0.827-0.11  c0.008-0.001,0.017-0.003,0.024-0.007l0.483-0.205l0.538-0.091l-0.033-0.197l-0.56,0.097L47.1,21.797l-0.633,0.084l0.153-0.22  c0.006-0.009,0.011-0.019,0.014-0.028l0.264-0.884l0.218-0.087l-0.074-0.186l-0.07,0.028l0.021-0.072l0.068-0.053  c0.01-0.007,0.019-0.017,0.025-0.027l0.277-0.458l0,0l0.001-0.001l0,0l0.009-0.012l0.168-0.224l0.244-0.235l0.359-0.162  c0.013-0.005,0.023-0.014,0.032-0.023l0.117-0.126l1.454-0.812c0.01-0.006,0.02-0.013,0.027-0.022l0.126-0.147L50.412,18.375z   M49.448,17.912l0.267,0.128l-0.08,0.093l-0.898,0.501l0.189-0.204l0.404-0.519H49.448z M50.092,15.791l0.45-0.266l1.035-0.313  l0.101-0.02L49.8,16.043L50.092,15.791z M48.752,16.682l0.503-0.172l2.96-1.342l-2.112,1.751l0.167-0.215l0.316-0.445l-0.162-0.116  l-0.314,0.442l-0.721,0.926l-0.242,0.201h-0.222c-0.016,0-0.032,0.004-0.046,0.011l-1.923,0.996l-0.018-0.192L48.752,16.682z   M46.575,18.917l-0.04,0.021l0.045-0.045L46.575,18.917z M45.8,19.809l0.286-0.415l0.44-0.228l-0.251,1.284l-0.197,0.368  l-0.52,0.161L45.8,19.809z M44.541,21.625c0.015-0.001,0.028-0.006,0.04-0.013l0.453-0.263l0.261-0.081l-0.014,0.069l-0.253,0.437  l-0.781-0.12L44.541,21.625z M43.544,20.78L43.544,20.78l0.055-0.107l0.034,0.133L43.665,21l-0.062,0.52l-0.136,0.014l-0.235-0.015  L43.544,20.78z M42.487,21.918l0.447-0.218l-0.314,0.376l-0.428,0.178L42.487,21.918z M41.115,18.998l0.242,0.677l-0.118-0.204  l-0.704-0.848l-0.412-0.406l0.714,0.37L41.115,18.998z M38.286,13.994l-0.034,0.022l-0.271-0.18l0.063-0.174l0.118,0.14  L38.286,13.994z M37.818,13.396l0.045,0.054l0.015,0.086l-0.067,0.188l-0.213-0.142l-0.367-0.336l0.032-0.436l-0.199-0.015  l-0.023,0.322l-0.316-0.184l-0.172-0.222l0.148-0.137c0.013-0.012,0.022-0.026,0.027-0.042l0.054-0.16l0.083-0.132L37.818,13.396z   M36.095,10.382l0.526-0.052c0.011-0.001,0.021-0.004,0.03-0.008v0l1.5-0.658c0.001,0,0.002-0.001,0.003-0.002l0.463-0.115  l-0.582,0.589l-0.361,0.429l-0.707,1.135l-0.112,0.104l-0.312-0.789l-0.186,0.073l0.349,0.882l-0.11,0.325l-0.066,0.107  l-0.118,0.127l-0.336-0.434l-0.269-0.475c-0.006-0.011-0.014-0.02-0.023-0.028l-0.29-0.24l-0.066-0.449l-0.073-0.188L36.095,10.382z   M35.1,10.613l-0.021,0.01l0.021-0.013L35.1,10.613z M29.413,12.821l0.562-2.671c0.003-0.013,0.003-0.025,0.001-0.038l-0.092-0.507  l0.216-0.485l0.271-0.81l0.127-0.19l0.216,0.435c0.004,0.009,0.01,0.018,0.018,0.025l1.258,1.326l-0.172-0.06l-0.533-0.117  l-0.043,0.195l0.522,0.114l0.498,0.174l0.27,0.231l0.488,0.459l0.402,0.573l-2.583,1.743l0,0l-0.451,0.267l-0.518,0.106  c-0.013,0.003-0.024,0.008-0.035,0.015l-0.457,0.305c0.001-0.005,0.004-0.009,0.004-0.015L29.413,12.821z M28.726,16.153l0.37-1.692  l0.394-0.388l0.439-0.291l0.516-0.105c0.011-0.002,0.021-0.006,0.031-0.012l0.475-0.281h0l0,0l0.06-0.041l2.532-1.695l0.406,0.579  l0.211,1.046l0.472,2.7l0.144,0.507l-0.052,0.542h0.002l-0.002,0.011l0.021,1.676l-0.088,1.561l-0.322,0.025l-0.463-1.089  l0.323-0.086l-0.051-0.193l-0.352,0.094l-0.043-0.102l-0.184,0.078l0.034,0.08c-0.01,0.005-0.021,0.008-0.028,0.016l-0.388,0.384  c-0.011,0.01-0.019,0.022-0.023,0.036l-0.245,0.649l-0.003-0.013c-0.002-0.007-0.007-0.013-0.011-0.019  c-0.001-0.003-0.002-0.006-0.004-0.009l-0.45-0.682l0.676-0.847l0.561-0.937l-0.172-0.103l-0.553,0.926l-0.628,0.786l-0.336-0.51  c-0.009-0.014-0.021-0.025-0.036-0.033l-0.968-0.524l-0.567-0.246l0.036-0.298l-0.198-0.023l-0.028,0.238l-1.579-0.684l-0.08-0.479  L28.726,16.153z M28.409,17.293l0.067,0.029l0.065,0.394l-0.173-0.443L28.409,17.293z M27.422,16.79l0.441,0.225l0.374,0.742  l-0.102,0.005l-0.516-0.101L27.422,16.79z M27.997,19.321l-0.329-1.449l0.453,0.087l0.215-0.009l0.375,0.744l0.881,1.743l0.134,0.18  l-0.112,0.348l-0.254,0.459l-0.393,0.451l-0.091-0.086l-0.033-0.037l-0.172-0.423c-0.004-0.01-0.01-0.019-0.017-0.027l-0.357-0.42  l-0.005-0.005L27.997,19.321z M28.363,23.351l0.438-0.983l0.166-0.19l0.736,0.682l-0.192,0.08l-0.964,0.513  c-0.008,0.004-0.015,0.009-0.021,0.015l-0.1,0.092l-0.1,0.031L28.363,23.351z M28.078,23.875l0,0.004l-0.351,0.323l0.001-0.011  l0.052-0.225L28.078,23.875z M27.834,22.282l-0.003,0l0-0.011L27.834,22.282z M27.191,24.339l-0.306,0.409l-0.388,0.305l-0.241-0.26  l-0.136-0.14l1.125-0.506L27.191,24.339z M26.055,23.399l0.083-0.242l-0.172,0.882l-0.001,0.005l-0.063,0.104l-0.055-0.229  L26.055,23.399z M25.245,22.125l-0.02-0.037l0.089,0.072l0.24,0.445l0.003,0.035l-0.029-0.055L25.245,22.125z M25.719,24.24  l0.001,0.005l-0.002-0.002L25.719,24.24z M25.115,23.644l0.215,0.479c0.005,0.011,0.012,0.021,0.02,0.029l0.135,0.138l-0.218,0.547  l-0.132,0.161l-0.129-0.115l-0.907-0.539l-0.078-0.22c-0.004-0.012-0.011-0.023-0.02-0.033l-0.363-0.407l-0.149,0.133l0.35,0.393  l0.005,0.014l-0.341-0.152l-0.491-1.072l-0.28-0.812l0.003-0.053l1.202,0.43l0.272,0.259l0.11,0.104L25.115,23.644z M23.569,22.147  l0.093,0.106l-0.913-0.327l0.013-0.182L23.569,22.147z M22.568,21.658l-0.003,0.048l-0.019-0.054L22.568,21.658z M23.481,16.904  l-0.243,0.446l0.024-0.079l0.02-0.075L23.481,16.904z M22.246,21.59l-0.024-0.024l0.021,0.005L22.246,21.59z M21.543,25.415  l0.207-0.339l0.317,0.326l-0.3,0.11c-0.015,0.005-0.028,0.014-0.039,0.026l-0.219,0.238l-0.178-0.032L21.543,25.415z M19.75,25.66  l0.911,0.224l0.094,0.006l0.004,0.043l-0.633,0.133l-0.192-0.026L19.75,25.66z M17.892,25.657l0.695,0.073l0.973,0.458  c0.009,0.004,0.019,0.007,0.029,0.009l0.212,0.029l0.33,0.684c0.005,0.011,0.012,0.021,0.021,0.029l0.221,0.211l-0.018,0.037  L20.33,27.23c-0.007,0.013-0.012,0.026-0.013,0.041l-0.061,0.631l-0.177-0.462l-0.187,0.071l0.321,0.837l-0.001,0.01  c-0.001,0.014,0,0.029,0.005,0.042l0.172,0.502l0.022,0.757l-0.246,0.672l-0.389-1.194l-0.19,0.062l0.468,1.437l-0.037,0.102  l-0.171-0.736c-0.003-0.016-0.011-0.031-0.021-0.043l-0.708-0.821l-0.438-0.591l-0.151-1.348l-0.054-0.543  c-0.001-0.015-0.006-0.029-0.014-0.042L17.892,25.657z M17.614,26.455l0.241,0.327l0.283,1.033l-0.307-0.415L17.614,26.455z   M19.775,32.672l0.289-0.447c0.008-0.012,0.013-0.026,0.015-0.04l0.077-0.541c0.001-0.008,0.001-0.017,0-0.025l-0.03-0.263  l0.097,0.055l-0.069,0.349c-0.003,0.016-0.002,0.031,0.002,0.046l0.143,0.517l0.092,0.546l0.044,0.178l-0.686-0.293L19.775,32.672z   M19.507,32.867l0,0.002L19.507,32.867L19.507,32.867z M19.114,32.465l-0.807-0.451l-0.125-0.189l0.796,0.423L19.114,32.465z   M17.424,31.099l0.161,0.111l0.017,0.012l0.052,0.097l-0.168-0.089L17.424,31.099z M16.128,31.326l0.459-0.144l0.502,0.063  l0.243,0.129l0.2,0.424l-0.079-0.036l-0.083,0.182l0.293,0.133l0.066,0.141c0.006,0.013,0.014,0.024,0.025,0.033l0.432,0.371  l0.63,0.32l-0.252,0.004l-0.537-0.063l-1.369-0.086L16.128,31.326z M16.414,35.86l0.483-0.2l0.322,0.025l0.823,0.065l0.411,0.795  l-0.506-0.06v0.001l-0.012-0.001h-0.122l-0.125-0.034l0,0l-0.498-0.197c-0.013-0.005-0.019-0.004-0.039-0.007l-0.556,0.013  l-0.057,0.007l-0.376-0.451l0.189,0.048C16.373,35.869,16.394,35.868,16.414,35.86z M13.855,34.92l0.535,0.186l-0.236,0.008  l-0.219-0.115l-0.067,0.126l-0.057,0.002l-0.302,0.048l-0.059-0.014l-0.145-0.346l0.009-0.135L13.855,34.92z M13.356,35.399  l0.218,0.357c0.006,0.01,0.014,0.019,0.022,0.026l0.41,0.332l0.267,0.455c0.009,0.015,0.021,0.027,0.036,0.036l0.412,0.238  l-0.998,0.076l-0.058-0.005l-0.263-0.036l-0.081-1.475L13.356,35.399z M13.19,37.278l0.102,0.021l0.035,0.071l-0.158-0.086  L13.19,37.278z M16.073,38.439v0.002l-0.531-0.015c-0.007,0-0.034,0.004-0.049,0.011l-0.229,0.12L14.946,38.6l-0.532-0.307  l-0.776-0.744l-0.104-0.21l2.559,0.328l0.458,0.271l0.242,0.123l-0.78,0.174l-0.501-0.074l-1.073-0.206l-0.037,0.197l1.076,0.206  l0.524,0.077c0.005,0.001,0.01,0.001,0.015,0.001c0.007,0,0.015,0,0.022-0.002l1.04-0.231l0.264,0.08l-0.737,0.096L16.073,38.439z   M21.21,38.958l-0.883-0.273l-0.279-0.211l0.325,0.057l0.881,0.407L21.21,38.958z M25.093,41.36l-0.409-0.133l-0.199-0.142  l-1.107-0.788l-0.39-0.407l-0.089-0.066l-0.281-0.287l-0.228-0.477c-0.007-0.015-0.018-0.027-0.03-0.037l-0.058-0.043l1.566,0.111  c0.013-0.001,0.024-0.001,0.036-0.004l0.353-0.106l0.082,0.099l0.131,0.509h0c0.002,0.01,0.007,0.021,0.013,0.029l0.299,0.456  c0.006,0.01,0.014,0.018,0.023,0.024l1.184,0.902L25.093,41.36z M27.691,40.929l-0.49,0.097l-0.538-0.02l-0.171-0.014l-0.279-0.071  l-1.273-0.971l-0.28-0.426l-0.112-0.517c-0.003-0.013-0.008-0.024-0.016-0.035l-0.023-0.033l0.376,0.019l0.026,0.002l2.318,1.403  l0.928,0.514L27.691,40.929z M29.284,40.922L29.284,40.922l-0.527-0.004l-0.475-0.201l-0.951-0.527l-2.336-1.414  c-0.013-0.008-0.028-0.012-0.043-0.013v-0.001l-0.544-0.049c-0.009,0.001-0.02-0.001-0.03,0.002l-0.021,0.005l-1.069-1.542  c-0.005-0.008-0.012-0.015-0.019-0.021l-0.424-0.344c-0.007-0.006-0.016-0.011-0.024-0.014l-0.487-0.205l-0.77-0.715l-0.369-1.013  l-0.455-0.97l-0.021-0.507l0.392,0.164l0.042,0.019l1.68,1.065l0.066,0.116c0.004,0.008,0.009,0.015,0.016,0.021l0.764,0.78  l0.001-0.001l0.356,0.385l0.196,0.499l0.24,0.49c0.008,0.016,0.019,0.029,0.033,0.039l0.486,0.333l0.314,0.381l0.135,0.325  c0.004,0.011,0.011,0.021,0.019,0.03l0.372,0.4c0.01,0.011,0.023,0.02,0.038,0.025l0.55,0.21l1.294,0.929l1.215,0.581l0.666,0.805  l-0.288-0.063C29.298,40.922,29.291,40.922,29.284,40.922z M30.291,41.679l-0.121-0.201l0.065,0.041l0.467,0.228l0.283,0.414  l0.1,0.421l-0.301-0.449L30.291,41.679z M32.042,44.972l-0.268-0.98l-0.361-0.899l0.479-1.795l1.663-1.84l0.108,0.143l0.46,1.262  l0.077,0.689l0.378,2.719l-0.039,0.674l-0.154,0.674c-0.003,0.012-0.003,0.024-0.001,0.036l0.766,5.55l-2.771-5.294L32.042,44.972z   M35.808,42.129l-0.307,1.681l-0.21,1.703l-0.05,4.895l-0.657-4.764l0.152-0.672l0.04-0.71l-0.378-2.735l-0.082-0.71l-0.471-1.3  c-0.003-0.01-0.008-0.019-0.015-0.026l-0.141-0.184l0.22-0.244l0.767-0.212l2.146,0.214L35.808,42.129z M38.404,38.567l-0.523,0.104  l0.918-0.526l0.501-0.026l1.008,0.364c0.026,0.01,0.057,0.007,0.081-0.006v0.001l0.349-0.184l0.529,0.005l0.398-0.026l-0.091,0.107  l-1.602,0.693l-1.519-0.502C38.438,38.564,38.42,38.563,38.404,38.567z M41.879,38.33l0.064-0.076l0.393-0.026l0.145,0.027  l-0.324,0.037L41.879,38.33z M48.085,37.573l0.347-0.13l-0.188,0.123l-0.168,0.013L48.085,37.573z M47.224,37.841l-0.171,0.099  l-0.357,0.213l-0.023,0.002l0.168-0.202l0.091-0.09L47.224,37.841z M47.816,36.813l-0.448,0.362l0.063-0.188l0.05-0.519l0.284-0.414  l0.424-0.318c0.006-0.005,0.013-0.011,0.018-0.018l0.507-0.639l0.012,0.497l-0.169,0.48L47.816,36.813z M49.548,33.345l-0.072-0.031  l-0.206,0.472L48.95,34.29l-0.046-0.316c-0.002-0.014-0.007-0.027-0.015-0.039l-0.579-0.899l0.916-0.163  c0.01-0.002,0.019-0.005,0.027-0.009l0.377-0.188l0.32,0.032L49.548,33.345z M52.399,32.759l0.058,0.027h-0.038l-0.122-0.026  L52.399,32.759z M50.07,31.229l0.814-0.109l-0.021,0.143l-0.155,0.247l-0.655-0.281L50.07,31.229z M49.923,31.223l-0.438,0.023  l-0.177-0.063l0.199,0.025L49.923,31.223z M50.42,30.499l-0.442,0.238l-0.112,0.002l0.013-0.006  c0.015-0.007,0.027-0.019,0.037-0.033l0.036-0.054l0.207-0.13l0.328-0.097L50.42,30.499z M52.148,29.384l-0.519,0.128l-0.666,0.188  l1.101-0.667l0.351-0.185l0.302,0.106c0.01,0.003,0.021,0.005,0.031,0.006l0.078,0.001L52.148,29.384z M54.847,28.442l-0.481,0.182  l-0.171,0.008l-0.368-0.084c-0.016-0.004-0.03-0.003-0.044,0l-0.047,0.01l0.39-0.578l0.42-0.179l0.037-0.028l0.271,0.017l0.16-0.014  l0.148,0.059c0.025,0.011,0.058,0.009,0.083-0.004l0.11-0.057l0.35-0.015L54.847,28.442z"></path></svg>