<svg fill="#00DCFF" xmlns="http://www.w3.org/2000/svg" xmlns:xlink="http://www.w3.org/1999/xlink" version="1.1" x="0px" y="0px" viewBox="0 0 100 100" enable-background="new 0 0 100 100" xml:space="preserve"><path d="M48.7,82.205c-0.022-0.009-0.046-0.017-0.07-0.011l-31.681,7.896c-0.013,0.003-0.018,0.015-0.028,0.021  c-0.017,0.011-0.036,0.019-0.045,0.035c-0.005,0.007-0.002,0.017-0.005,0.023c-0.007,0.021-0.016,0.042-0.01,0.065v0.002l0,0  c0.004,0.015,0.016,0.025,0.024,0.037c0.008,0.01,0.01,0.021,0.02,0.028c0.021,0.015,0.046,0.024,0.073,0.024  c0.009,0,0.019,0,0.028-0.002l0.021-0.006l21.18-5.205c0,0,0-0.001,0.001-0.001s0.001,0,0.001,0l10.427-2.673l0.051-0.012  c0,0,0-0.001,0.001-0.001l0,0c0.007-0.001,0.01-0.009,0.016-0.011c0.022-0.012,0.045-0.023,0.057-0.045  c0.014-0.021,0.014-0.047,0.012-0.072c-0.001-0.007,0.004-0.012,0.003-0.018l0,0v-0.001C48.765,82.242,48.735,82.218,48.7,82.205z"></path><path d="M88.756,81.848c-0.003-0.016-0.002-0.03-0.011-0.045c-0.008-0.012-0.023-0.017-0.036-0.025  c-0.012-0.007-0.02-0.021-0.034-0.023l-29.532-6.929l1.288-1.549c0.006-0.007,0.004-0.017,0.008-0.023  c0.006-0.012,0.016-0.019,0.018-0.03c0.002-0.007-0.003-0.012-0.003-0.018c0.001-0.016-0.004-0.029-0.009-0.044  c-0.006-0.015-0.01-0.027-0.021-0.039c-0.004-0.005-0.004-0.012-0.009-0.016c-0.008-0.007-0.02-0.005-0.029-0.008  c-0.009-0.005-0.014-0.016-0.024-0.017l-8.378-1.624l-0.029-1.801l1.608-0.775l4.323,2.191c0.018,0.008,0.035,0.012,0.054,0.012l0,0  l0,0l0,0l0,0c0.006,0,0.01,0,0.015,0c0.004-0.001,0.006-0.005,0.01-0.007c0.022-0.005,0.042-0.015,0.059-0.032  c0.005-0.006,0.01-0.009,0.014-0.015c0.004-0.005,0.009-0.007,0.011-0.012c0.006-0.011,0.001-0.022,0.003-0.034  c0.002-0.013,0.011-0.022,0.009-0.034l-0.133-1.104l15.805,2.347c0.002,0,0.003,0,0.004,0l0.059,0.011l0.003,0.001  c0.001,0,0.002,0,0.002,0h0.005c0.001,0,0.001,0,0.003,0c0,0.001,0.001,0.003,0.001,0.003l9.872,1.49c0.006,0,0.012,0,0.018,0l0,0  l0,0h0.001c0.001,0,0.002,0,0.003,0c0.026-0.001,0.051-0.011,0.07-0.027c0.009-0.006,0.011-0.015,0.017-0.023  c0.01-0.013,0.021-0.021,0.025-0.038c0.001-0.003-0.001-0.005-0.001-0.006c0-0.004,0.003-0.004,0.004-0.006  c0.002-0.016-0.007-0.027-0.01-0.04c-0.003-0.017-0.003-0.03-0.012-0.043c-0.008-0.014-0.022-0.02-0.036-0.028  c-0.011-0.009-0.018-0.021-0.031-0.023l-25.18-6.578c-0.001,0-0.001,0-0.001,0c-0.012-0.002-0.021,0.005-0.033,0.005  c-0.021,0-0.043-0.002-0.059,0.01l-0.781,0.478l-0.481-4.429c0-0.001-0.002-0.003-0.002-0.004c0-0.003,0.001-0.004,0.001-0.006  c-0.004-0.018-0.018-0.028-0.027-0.041c-0.007-0.01-0.01-0.022-0.019-0.029c-0.017-0.012-0.034-0.014-0.054-0.017  c-0.011-0.003-0.02-0.01-0.031-0.01c-0.002,0-0.003,0.003-0.005,0.003c-0.003,0-0.004-0.002-0.006,0l-4.831,0.97l3.217-1.474  l13.813,2.061l4.549,1.113l0.029,0.009c0.01,0.002,0.02,0.002,0.029,0.002c0.054,0,0.103-0.036,0.116-0.091  c0.016-0.063-0.023-0.129-0.088-0.146l-1.968-0.485l4.869,0.722c0.005,0,0.012,0,0.017,0h0.001l0,0l0,0c0.001,0,0.002,0,0.003,0  c0.026-0.001,0.051-0.011,0.071-0.026c0.008-0.006,0.01-0.016,0.015-0.022c0.011-0.015,0.022-0.023,0.026-0.04  c0.001-0.002-0.001-0.005,0-0.007c0-0.003,0.003-0.004,0.003-0.006c0.002-0.016-0.007-0.026-0.01-0.039  c-0.003-0.017-0.002-0.03-0.011-0.044s-0.023-0.02-0.038-0.028c-0.01-0.007-0.016-0.019-0.03-0.022l-20.183-5.268v-0.001h-0.002  c-0.032-0.011-0.065-0.004-0.092,0.013l-1.156,0.658l-2.72-0.665l-0.026-0.007l0,0l0,0c-0.009-0.002-0.016,0.004-0.023,0.004  c-0.023-0.001-0.047-0.002-0.067,0.01c-0.02,0.012-0.03,0.034-0.041,0.055c-0.003,0.009-0.012,0.011-0.014,0.02l0,0  c0,0.001,0,0.001,0,0.001c-0.004,0.015,0.005,0.028,0.007,0.043c0.002,0.016-0.001,0.033,0.007,0.046  c0.006,0.01,0.018,0.013,0.026,0.02c0.014,0.015,0.026,0.031,0.047,0.037l2.477,0.625l-1.043,0.604l-2.152-0.355l-0.059-5.132  l1.306-0.493l2.349,1.62c0.021,0.015,0.044,0.021,0.068,0.021c0.029,0,0.061-0.012,0.084-0.035l1.385-1.343l2.662,1.079  c0.002,0.001,0.003,0,0.004,0.001c0,0,0,0,0.001,0l15.019,5.424c0.014,0.004,0.027,0.007,0.041,0.007  c0.023,0,0.048-0.007,0.067-0.021c0.013-0.007,0.02-0.022,0.028-0.035c0.004-0.007,0.013-0.012,0.017-0.021l0,0  c0-0.002,0.001-0.002,0.001-0.002c0.004-0.012-0.003-0.021-0.002-0.033c0-0.021,0.005-0.04-0.003-0.058  c-0.005-0.011-0.018-0.016-0.025-0.023c-0.013-0.016-0.022-0.032-0.042-0.039l0,0h-0.001l-0.014-0.006l-17.514-6.505l1.576-1.537  l11.959,3.142l0.002,0.001l0,0h0.002c0.01,0.002,0.021,0.005,0.03,0.005c0.026,0,0.051-0.01,0.072-0.024  c0.008-0.006,0.011-0.018,0.018-0.026c0.01-0.013,0.021-0.022,0.025-0.037c0-0.001,0-0.001,0-0.001s0.001,0,0.001-0.002  c0.004-0.015-0.004-0.026-0.006-0.042c-0.002-0.017,0.002-0.034-0.007-0.048c-0.006-0.012-0.021-0.016-0.031-0.024  c-0.013-0.011-0.021-0.026-0.039-0.032L59.58,53.689c-0.001-0.001-0.001,0-0.003,0c-0.001,0-0.001-0.002-0.003-0.002l-7.319-1.671  c-0.011-0.003-0.021,0.004-0.031,0.006c-0.021,0.001-0.042-0.002-0.059,0.01c-0.005,0.003-0.006,0.01-0.01,0.012  c-0.018,0.017-0.037,0.033-0.043,0.059c-0.001,0,0,0.002,0,0.003c0,0-0.001,0-0.001,0.001c-0.003,0.016,0.005,0.027,0.007,0.041  c0.003,0.017-0.001,0.034,0.008,0.047c0.009,0.014,0.024,0.019,0.037,0.029c0.012,0.008,0.02,0.022,0.034,0.025l0.004,0.002  c0.001,0,0.001,0,0.001,0h0.002l3.541,0.938l-3.961-0.642l-0.041-4.349l2.468,0.814c0.01,0.004,0.02,0.005,0.03,0.006  c0.001,0,0.001,0,0.002,0c0.002,0,0.004,0,0.005,0c0.029,0,0.055-0.012,0.076-0.029c0.007-0.006,0.011-0.016,0.016-0.022  c0.008-0.009,0.019-0.018,0.022-0.03c0.002-0.006-0.002-0.011-0.001-0.017s0.007-0.009,0.007-0.017l0.069-1.655l10.225,1.77  c0.007,0.001,0.015,0.001,0.021,0.001c0.026,0,0.05-0.01,0.071-0.025c0.007-0.005,0.01-0.012,0.016-0.02  c0.008-0.009,0.019-0.016,0.024-0.027c0.001-0.005-0.002-0.01,0-0.014c0.001-0.006,0.007-0.008,0.007-0.013  c0.002-0.013-0.006-0.022-0.007-0.032c-0.002-0.017-0.003-0.031-0.01-0.044c-0.008-0.014-0.019-0.022-0.031-0.031  c-0.009-0.007-0.012-0.019-0.023-0.023l-1.166-0.495l4.73,0.724c0.006,0.001,0.013,0.001,0.019,0.001  c0.027,0,0.053-0.01,0.074-0.027c0.007-0.006,0.009-0.015,0.015-0.021c0.01-0.012,0.021-0.022,0.026-0.038  c0-0.002-0.001-0.005-0.001-0.007c0.001-0.004,0.004-0.005,0.004-0.007c0.002-0.015-0.007-0.026-0.01-0.04s-0.002-0.029-0.011-0.042  c-0.009-0.015-0.021-0.019-0.034-0.028c-0.012-0.007-0.018-0.02-0.031-0.023l-11.003-3.082l-1.118-0.469  c-0.011-0.005-0.021,0-0.033,0c-0.013-0.002-0.023-0.011-0.036-0.007l-0.28,0.055l-0.231-0.055  c-0.013-0.003-0.024,0.005-0.038,0.007c-0.013,0-0.024-0.005-0.037,0l-0.657,0.283l-0.399,0.087l0.01-0.255  c0-0.005-0.004-0.008-0.004-0.012c0-0.005,0.003-0.008,0.003-0.012c-0.002-0.014-0.014-0.02-0.019-0.031  c-0.007-0.014-0.012-0.026-0.023-0.037c-0.011-0.01-0.024-0.013-0.039-0.019c-0.012-0.004-0.02-0.015-0.033-0.015  c-0.004,0-0.008,0.004-0.011,0.005c-0.005,0-0.009-0.005-0.013-0.003l-0.9,0.142c0.001-0.005-0.002-0.012-0.002-0.017  c0.001-0.01,0.008-0.017,0.006-0.025c-0.001-0.009-0.009-0.012-0.011-0.02c-0.003-0.007,0.001-0.014-0.003-0.021  s-0.013-0.009-0.018-0.015c-0.011-0.014-0.022-0.023-0.039-0.03c-0.014-0.007-0.025-0.008-0.041-0.009  c-0.01,0-0.016-0.008-0.026-0.006l-1.638,0.266l-0.044-4.959l1.768-0.438l1.71,0.737l1.495,1.087  c0.007,0.006,0.016,0.004,0.023,0.009c0.005,0.002,0.007,0.007,0.012,0.009l12.742,3.889c0.012,0.003,0.024,0.005,0.035,0.005  c0.025,0,0.049-0.008,0.069-0.022c0.007-0.005,0.01-0.013,0.016-0.021c0.011-0.012,0.022-0.021,0.028-0.036  c0-0.001-0.001-0.001,0-0.003c0,0,0.001-0.002,0.002-0.003c0.004-0.017-0.003-0.03-0.005-0.044  c-0.001-0.016,0.003-0.031-0.004-0.045c-0.008-0.013-0.021-0.019-0.033-0.03c-0.012-0.01-0.018-0.023-0.033-0.028l-11.344-4.101  l-0.36-0.756l4.444,1.393c0.012,0.003,0.024,0.005,0.036,0.005c0.024,0,0.047-0.008,0.066-0.021  c0.007-0.005,0.011-0.012,0.016-0.018c0.01-0.01,0.021-0.018,0.026-0.029c0.001-0.002,0-0.006,0.001-0.008  c0.001-0.004,0.004-0.005,0.005-0.009c0.005-0.013-0.002-0.024-0.004-0.037c0-0.017,0.003-0.03-0.003-0.045  c-0.006-0.014-0.019-0.021-0.029-0.031c-0.01-0.011-0.015-0.024-0.027-0.03l-4.936-2.309c-0.006-0.003-0.011,0.001-0.017-0.002  c-0.005-0.001-0.007-0.007-0.012-0.007l-5.706-1.091l-0.027-2.883l4.831,1.895c0.015,0.005,0.029,0.008,0.044,0.008  c0.021,0,0.044-0.005,0.063-0.02c0.001,0,0.001,0,0.002,0c0.02-0.014,0.037-0.032,0.047-0.056c0.001-0.004-0.002-0.007-0.001-0.01  c0.005-0.017,0.001-0.03-0.001-0.046c-0.001-0.015,0-0.03-0.008-0.044c-0.001-0.003,0.001-0.006-0.001-0.009l-2.265-3.583  c-0.005-0.01-0.015-0.01-0.021-0.017c-0.012-0.012-0.021-0.019-0.035-0.025c-0.016-0.006-0.028-0.008-0.045-0.008  c-0.009,0-0.017-0.007-0.025-0.004l-2.604,0.575l-0.011-0.399l1.369-0.398c0.001,0,0.001-0.003,0.002-0.003  c0.003,0.001,0.005,0.005,0.008,0.005l2.652,0.395l4.137,1.166c0.011,0.004,0.021,0.005,0.032,0.005c0.025,0,0.05-0.008,0.07-0.023  c0.008-0.005,0.011-0.014,0.017-0.021c0.01-0.012,0.021-0.021,0.027-0.037c0-0.001-0.001-0.001-0.001-0.003  c0.001,0,0.003-0.001,0.003-0.003c0.004-0.014-0.004-0.026-0.005-0.041c-0.001-0.016,0.002-0.032-0.006-0.047  c-0.007-0.013-0.021-0.019-0.033-0.029c-0.011-0.009-0.018-0.023-0.033-0.029l-1.571-0.535l5.008,0.768  c0.006,0.001,0.012,0.001,0.018,0.001c0,0,0,0,0.001,0l0,0l0,0c0.001,0,0.003,0,0.004,0c0.026-0.002,0.052-0.012,0.071-0.026  c0.007-0.006,0.009-0.016,0.015-0.023c0.01-0.014,0.022-0.025,0.026-0.041c0-0.003-0.001-0.003-0.001-0.005  c0.001-0.003,0.003-0.004,0.003-0.005c0.003-0.017-0.007-0.028-0.01-0.042c-0.003-0.015-0.002-0.029-0.011-0.042  c-0.009-0.014-0.023-0.018-0.036-0.026c-0.012-0.009-0.02-0.021-0.034-0.025l-9.856-2.384c-0.012-0.002-0.021,0.005-0.033,0.006  c-0.015,0.001-0.027,0.001-0.041,0.006c-0.016,0.007-0.024,0.018-0.035,0.029c-0.008,0.008-0.02,0.011-0.024,0.02l-0.172,0.33  l-1.562-0.326l-0.059-5.038l0.749-0.218l1.193,0.582l-0.062,0.154c-0.002,0.002,0,0.004,0,0.008  c-0.002,0.004-0.005,0.004-0.005,0.006c-0.004,0.014,0.003,0.025,0.005,0.039c0.001,0.015-0.002,0.031,0.006,0.045  c0.007,0.015,0.02,0.021,0.031,0.031c0.01,0.009,0.015,0.023,0.028,0.027c0.003,0.002,0.007,0.002,0.011,0.003  c0.001,0,0.001,0.002,0.003,0.002l8.155,2.202c0.011,0.004,0.021,0.004,0.031,0.004c0.025,0,0.049-0.009,0.069-0.023  c0.007-0.005,0.01-0.012,0.015-0.02c0.01-0.01,0.022-0.02,0.027-0.035c0.002-0.002,0-0.003,0-0.006  c0.002-0.001,0.004-0.003,0.004-0.006c0.004-0.013-0.004-0.025-0.005-0.038c-0.001-0.016,0.001-0.032-0.006-0.046  c-0.008-0.014-0.022-0.021-0.035-0.033c-0.01-0.007-0.015-0.021-0.026-0.025l-7.163-2.719l0.005-0.14l3.482,1.007  c0.012,0.002,0.022,0.005,0.034,0.005c0.024,0,0.048-0.01,0.068-0.023c0.008-0.005,0.011-0.015,0.017-0.021  c0.01-0.011,0.021-0.019,0.026-0.032c0.001-0.003,0-0.004,0-0.005c0.001-0.003,0.003-0.004,0.004-0.005  c0.004-0.016-0.004-0.028-0.005-0.042c-0.001-0.017,0.002-0.03-0.005-0.045c-0.007-0.014-0.021-0.021-0.033-0.03  c-0.011-0.01-0.016-0.023-0.03-0.029l-3.447-1.307c-0.004-0.001-0.008,0.001-0.011,0c-0.004,0-0.006-0.005-0.009-0.005l-3.139-0.618  l-0.045-4.834l1.414,0.37c0.01,0.003,0.021,0.003,0.03,0.003c0.02,0,0.04-0.004,0.058-0.014c0.003-0.001,0.003-0.005,0.006-0.007  c0.02-0.012,0.033-0.03,0.044-0.054c0.001-0.005,0.006-0.008,0.008-0.012c0.001-0.002,0.001-0.003,0.001-0.003  c0.004-0.017-0.004-0.03-0.006-0.044c-0.002-0.015,0.003-0.029-0.005-0.043l-0.001-0.003c0-0.001,0-0.001,0-0.001l-0.092-0.169  l1.803,0.347c0.008,0.002,0.015,0.002,0.022,0.002c0.039,0,0.069-0.023,0.092-0.054c0.004-0.005,0.011-0.002,0.013-0.007  c0.004-0.006,0-0.012,0.003-0.018c0.002-0.007,0.009-0.011,0.011-0.018c0.002-0.011-0.005-0.019-0.006-0.028  c-0.001-0.017-0.002-0.029-0.009-0.043c-0.007-0.016-0.017-0.024-0.028-0.035c-0.007-0.006-0.009-0.018-0.018-0.022l-0.156-0.086  l2.04,0.31c0.006,0.001,0.012,0.001,0.018,0.001l0,0l0,0h0.001c0.001,0,0.002,0,0.003,0c0.026-0.001,0.051-0.01,0.071-0.026  c0.008-0.006,0.01-0.016,0.016-0.023c0.01-0.013,0.021-0.022,0.025-0.039c0.001-0.002-0.001-0.005,0-0.006  c0-0.003,0.003-0.003,0.003-0.006c0.003-0.015-0.007-0.026-0.011-0.04c-0.002-0.016-0.001-0.03-0.01-0.043s-0.022-0.018-0.035-0.027  c-0.012-0.008-0.019-0.021-0.033-0.024l-3.706-0.967l-0.206-0.11c-0.001-0.001-0.001-0.001-0.002-0.002l-0.008-0.004  c-0.011-0.006-0.021-0.001-0.032-0.003c-0.017-0.004-0.031-0.013-0.049-0.01l-0.123,0.026l-0.077-0.023  c-0.003,0-0.006,0.002-0.009,0.002c-0.016-0.005-0.03,0.002-0.046,0.005c-0.015,0.002-0.028,0.002-0.041,0.009  c-0.002,0.002-0.006,0-0.008,0.003l-0.039,0.028c-0.001-0.003-0.003-0.003-0.004-0.005c-0.011-0.012-0.02-0.021-0.032-0.028  c-0.015-0.007-0.029-0.01-0.047-0.01c-0.009-0.001-0.017-0.008-0.026-0.007l-0.462,0.081c-0.001-0.004,0.001-0.008-0.001-0.013  c-0.004-0.01-0.015-0.012-0.021-0.019c-0.01-0.015-0.019-0.025-0.033-0.033c-0.015-0.007-0.027-0.008-0.044-0.01  c-0.01-0.001-0.019-0.009-0.029-0.007l-0.229,0.038l-0.026-2.324c0.006,0.001,0.01,0.004,0.015,0.004  c0.019,0,0.037-0.004,0.054-0.012c0.001-0.002,0.001-0.003,0.002-0.003c0.002-0.001,0.004-0.001,0.005-0.002l0.527-0.306L55.405,19  c0.015,0.005,0.028,0.007,0.043,0.007c0.024,0,0.047-0.007,0.066-0.02c0.007-0.004,0.01-0.014,0.016-0.018  c0.01-0.012,0.022-0.021,0.029-0.035c0-0.002,0-0.003,0-0.003s0.001,0,0.001-0.001c0.006-0.017,0-0.031-0.001-0.048  c-0.001-0.015,0.004-0.029-0.002-0.042c-0.006-0.016-0.021-0.023-0.035-0.035c-0.01-0.01-0.015-0.023-0.027-0.028l-0.003-0.003l0,0  h-0.003l-2.517-1.045c-0.002-0.001-0.003,0-0.005,0c-0.002-0.001-0.002-0.004-0.004-0.005l-0.615-0.201l0.299-0.153  c0.004-0.003,0.004-0.008,0.009-0.011c0.001,0,0.005,0,0.007-0.003l0.081,0.022c0.001,0,0.002,0,0.003,0c0,0.001,0,0.001,0,0.001  l2.632,0.631l0.025,0.007c0.01,0.003,0.02,0.003,0.029,0.003c0.026,0,0.053-0.01,0.073-0.025c0.006-0.004,0.007-0.013,0.012-0.018  c0.013-0.014,0.026-0.027,0.031-0.049l0,0l0,0c0.002-0.007-0.004-0.012-0.003-0.019c0.002-0.026,0.001-0.052-0.011-0.071  c-0.007-0.011-0.021-0.014-0.029-0.021c-0.014-0.013-0.025-0.029-0.045-0.034l-3.859-0.956c-0.009-0.002-0.018,0.004-0.027,0.005  c-0.053-0.001-0.103,0.028-0.117,0.079c0,0.002,0.001,0.002,0.001,0.003c-0.001,0-0.001,0-0.001,0  c-0.005,0.018,0.004,0.032,0.007,0.049v0.003l-0.029-0.005l-0.058-3.952l0.315-0.236c0.001,0,0.001-0.002,0.002-0.002  c0.022-0.02,0.039-0.044,0.044-0.074c0-0.001,0-0.001,0-0.001c0.002-0.017-0.007-0.03-0.011-0.047  c-0.004-0.015-0.003-0.03-0.011-0.042c-0.001,0,0-0.002-0.001-0.003c-0.009-0.011-0.022-0.012-0.033-0.019  c-0.014-0.01-0.024-0.023-0.043-0.027l-0.264-0.043v-0.033l2.276,0.357c0.006,0.002,0.012,0.002,0.019,0.002  c0.005,0,0.009-0.003,0.013-0.004l0.003,0.001c0.01,0.003,0.02,0.003,0.029,0.003c0.026,0,0.052-0.01,0.072-0.025  c0.009-0.006,0.011-0.018,0.019-0.026c0.009-0.012,0.021-0.021,0.024-0.036c0-0.002,0-0.002,0-0.002s0.001-0.001,0.001-0.002  c0.004-0.014-0.005-0.028-0.007-0.043c-0.002-0.016,0.001-0.032-0.007-0.046c-0.009-0.016-0.027-0.021-0.042-0.033  c-0.011-0.007-0.017-0.019-0.029-0.021l-0.002-0.002l-0.001-0.001l-0.013-0.002l-0.257-0.07l0,0l-0.005-0.003c0,0,0,0-0.001,0  l-0.004-0.001l-1.843-0.515c-0.013-0.004-0.024,0.003-0.037,0.004c-0.011-0.004-0.021,0-0.032-0.001  c-0.01,0-0.019-0.009-0.028-0.006l-0.149,0.024l-0.091-9.2c0-0.018-0.012-0.032-0.02-0.046C51.26,2.775,51.26,2.76,51.25,2.751  c-0.022-0.022-0.052-0.035-0.085-0.035c0,0,0,0-0.001,0h-0.059h-0.062h-0.044c-0.001,0-0.001,0-0.001,0  c-0.033,0-0.063,0.013-0.085,0.035c-0.01,0.009-0.01,0.024-0.016,0.037c-0.008,0.014-0.02,0.028-0.02,0.046l-0.091,9.287  l-0.04,0.009c0-0.01,0.006-0.019,0.005-0.027c-0.001-0.003-0.003-0.004-0.005-0.006c0-0.003,0.002-0.005,0.001-0.008  c-0.004-0.013-0.017-0.018-0.025-0.027c-0.009-0.014-0.017-0.027-0.031-0.037c-0.012-0.006-0.026-0.004-0.04-0.007  c-0.014-0.002-0.027-0.011-0.043-0.007l-0.18,0.04l-0.105-0.036c-0.013-0.004-0.024,0.002-0.036,0.002  c-0.013,0-0.024-0.008-0.037-0.004l-1.174,0.348l-0.004,0.001c-0.001,0-0.001,0.001-0.001,0.001l0,0l0,0l-0.993,0.239l-0.005,0.002  l0,0h-0.004c-0.015,0.005-0.021,0.017-0.032,0.023c-0.015,0.01-0.031,0.017-0.04,0.03s-0.007,0.031-0.01,0.046  c-0.002,0.015-0.01,0.027-0.008,0.041c0.001,0.001,0.001,0.003,0.001,0.003c0.001,0.001,0,0.002,0,0.002  c0.004,0.018,0.018,0.029,0.027,0.042c0.006,0.007,0.008,0.018,0.015,0.023c0.021,0.017,0.047,0.026,0.075,0.026  c0.007,0,0.016,0,0.023-0.003l0.128-0.025c0.001,0.001,0.002,0.001,0.004,0.002c0.02,0.016,0.044,0.024,0.07,0.026  c0.001,0,0.001,0,0.002,0h0.001l0,0l0,0c0.006,0,0.012,0,0.019-0.002l1.937-0.306l0.363,0.858c0.003,0.007,0.009,0.009,0.013,0.015  c0.002,0.004,0.001,0.009,0.004,0.012c0.002,0.004,0.008,0.003,0.011,0.006c0.022,0.023,0.051,0.04,0.083,0.04  c0.005,0,0.01-0.002,0.015-0.002l-0.042,3.389l-0.115-0.024c-0.004-0.001-0.008,0.003-0.013,0.002s-0.007-0.006-0.012-0.006  c-0.007,0-0.012,0.007-0.018,0.007l-0.015-0.002c-0.004-0.001-0.007,0.002-0.011,0.001c-0.016-0.002-0.027,0.004-0.043,0.006  c-0.016,0.005-0.03,0.005-0.043,0.015c-0.003,0.002-0.007,0.001-0.011,0.003c-0.01,0.009-0.01,0.022-0.017,0.034  c-0.007,0.01-0.019,0.017-0.021,0.028l-0.306-0.087c-0.012-0.002-0.022,0.005-0.033,0.005c-0.013,0-0.024-0.007-0.037-0.003  L48,17.497l-1.19,0.286c-0.015,0.005-0.023,0.018-0.035,0.026c-0.013,0.009-0.029,0.014-0.037,0.026s-0.006,0.029-0.009,0.044  s-0.012,0.027-0.009,0.044c0,0,0.001,0.001,0.001,0.003c0.001,0,0,0.001,0,0.002c0.005,0.018,0.018,0.03,0.028,0.043  c0.005,0.008,0.007,0.017,0.014,0.022c0.021,0.017,0.047,0.026,0.075,0.026c0.007,0,0.015,0,0.022-0.003l0.25-0.048  c0.001,0.001,0.001,0.002,0.002,0.004c0.006,0.007,0.009,0.015,0.016,0.021c0.021,0.017,0.046,0.026,0.073,0.026  c0.006,0,0.012,0,0.019-0.002l3.504-0.57l-0.042,3.022l-0.035,0.006c0.001-0.003,0-0.005,0.001-0.007  c0.006-0.015,0.006-0.028,0.008-0.045c0-0.01,0.007-0.019,0.004-0.03c-0.001-0.005-0.006-0.007-0.008-0.012  c-0.002-0.006,0.001-0.012-0.001-0.017c-0.006-0.01-0.018-0.012-0.024-0.021c-0.011-0.01-0.02-0.021-0.033-0.027  c-0.016-0.008-0.029-0.008-0.047-0.008c-0.011-0.001-0.019-0.008-0.03-0.006l-4.753,1.094c-0.015,0.004-0.022,0.017-0.034,0.025  c-0.014,0.009-0.029,0.014-0.038,0.026c-0.008,0.013-0.007,0.028-0.009,0.044c-0.004,0.015-0.013,0.027-0.01,0.043  c0,0.001,0.001,0.002,0.001,0.002c0.001,0.002,0,0.002,0,0.004c0.005,0.019,0.018,0.031,0.029,0.045  c0.005,0.008,0.006,0.016,0.012,0.021c0.021,0.018,0.048,0.026,0.076,0.026c0.007,0,0.014,0,0.021-0.001l3.49-0.629l-0.04,0.096  l-2.336,1.437c-0.009,0.006-0.011,0.017-0.018,0.025c-0.012,0.012-0.021,0.021-0.026,0.036c-0.006,0.014-0.005,0.028-0.005,0.044  c0,0.01-0.007,0.02-0.004,0.031c0.003,0.006,0.009,0.009,0.012,0.014c0.001,0.005-0.001,0.011,0.001,0.014  c0.003,0.005,0.01,0.004,0.013,0.008c0.022,0.029,0.054,0.051,0.09,0.051c0.012,0,0.022-0.002,0.034-0.004l3.656-1.063l-0.058,4.393  l-0.257-0.04c-0.011-0.001-0.019,0.006-0.028,0.007c-0.017,0.001-0.029,0.003-0.043,0.011c-0.016,0.007-0.024,0.018-0.034,0.03  c-0.007,0.009-0.018,0.011-0.021,0.021c-0.003,0.006,0,0.012-0.001,0.018c-0.002,0.004-0.008,0.008-0.009,0.014  c-0.002,0.012,0.006,0.019,0.007,0.03c0.002,0.016,0.003,0.028,0.011,0.042l-1.031-0.171l0,0l0,0l-0.004-0.001  c-0.011-0.001-0.019,0.006-0.029,0.007c-0.021,0.001-0.043,0.001-0.06,0.013c-0.006,0.005-0.006,0.012-0.011,0.017l-0.049-0.025  c-0.012-0.006-0.025,0-0.037-0.003c-0.013-0.002-0.022-0.01-0.035-0.008l-0.074,0.012l-0.122-0.013  c-0.011,0-0.018,0.007-0.027,0.009c-0.012,0.002-0.022-0.004-0.032,0l-0.237,0.103L41.4,28.021c-0.014,0.004-0.02,0.017-0.031,0.023  c-0.013,0.01-0.028,0.015-0.036,0.028c-0.009,0.013-0.009,0.028-0.012,0.044c-0.003,0.013-0.012,0.024-0.01,0.038  c0.001,0.003,0.004,0.005,0.004,0.007c0.001,0.003-0.002,0.004-0.001,0.006c0.004,0.017,0.017,0.027,0.026,0.039  c0.005,0.008,0.008,0.018,0.016,0.023c0.02,0.017,0.044,0.025,0.071,0.025c0,0,0.001,0.003,0.002,0.003h0.001l0,0l0,0  c0.006,0,0.012-0.001,0.018-0.003l4.049-0.6l-0.763,0.374c-0.011,0.005-0.013,0.015-0.021,0.022  c-0.012,0.01-0.022,0.019-0.029,0.033c-0.008,0.015-0.009,0.027-0.01,0.044c-0.001,0.009-0.008,0.019-0.006,0.029  c0.001,0.006,0.007,0.011,0.01,0.015c0.001,0.006-0.002,0.012,0,0.017c0.006,0.011,0.015,0.017,0.023,0.026  c0.005,0.004,0.009,0.012,0.015,0.016c0.021,0.016,0.045,0.026,0.07,0.026c0.007,0,0.014-0.001,0.021-0.003l3.883-0.695  l-0.147,0.546c-0.003,0.012,0.004,0.021,0.004,0.032c0,0.011-0.007,0.021-0.004,0.032c0.002,0.006,0.007,0.008,0.01,0.014  c0.005,0.011,0.011,0.017,0.018,0.024c0.012,0.016,0.025,0.026,0.043,0.033c0.006,0.004,0.007,0.01,0.015,0.012  c0.01,0.002,0.021,0.005,0.03,0.005c0.012,0,0.022-0.003,0.033-0.005l1.926-0.55l-0.071,5.137l-0.909-0.158h-0.001l-0.46-0.098  c0.003-0.005,0.001-0.012,0.002-0.019c0.004-0.017,0.008-0.028,0.004-0.045c0-0.004,0.003-0.009,0.001-0.014  c-0.003-0.012-0.014-0.016-0.02-0.023c-0.006-0.011-0.006-0.023-0.016-0.031c-0.004-0.004-0.01-0.002-0.015-0.005  c-0.013-0.01-0.026-0.011-0.041-0.015c-0.016-0.003-0.028-0.008-0.044-0.004c-0.006,0.001-0.01-0.004-0.015-0.002l-0.253,0.079  l-0.27-0.079c0,0-0.001,0-0.002,0c-0.029-0.009-0.062-0.006-0.091,0.01l-0.068,0.039l-0.259-0.051c-0.002-0.001-0.005,0.001-0.007,0  c-0.003,0-0.004-0.002-0.006-0.002c-0.03-0.009-0.052,0.004-0.073,0.019c-0.001,0-0.003,0-0.004,0  c-0.02,0.014-0.029,0.032-0.038,0.058c-0.003,0.008-0.011,0.012-0.013,0.02c-0.001,0.002,0.002,0.005,0.001,0.007  c0,0.003-0.002,0.004-0.003,0.007l-0.011,0.127l-0.121,0.057l-9.178,2.093c-0.017,0.003-0.024,0.017-0.036,0.025  c-0.014,0.01-0.028,0.013-0.036,0.026c-0.009,0.012-0.007,0.027-0.01,0.043c-0.004,0.014-0.013,0.027-0.01,0.041  c0,0.002,0.001,0.002,0.001,0.005c0.001,0.001,0,0.002,0,0.003c0.004,0.018,0.017,0.029,0.027,0.044  c0.006,0.007,0.007,0.017,0.014,0.022c0.021,0.018,0.048,0.026,0.076,0.026c0.006,0,0.013,0,0.02-0.001l0.007-0.001l0,0h0.001  l6.202-1.021l-1.753,0.793c-0.01,0.005-0.013,0.017-0.021,0.023c-0.012,0.012-0.022,0.019-0.029,0.033  c-0.009,0.014-0.009,0.027-0.011,0.043c-0.001,0.011-0.009,0.02-0.006,0.031c0,0.006,0.006,0.01,0.008,0.015  c0.001,0.005-0.002,0.009,0,0.014c0.006,0.012,0.016,0.019,0.024,0.028c0.005,0.006,0.009,0.012,0.015,0.018  c0.021,0.016,0.045,0.024,0.07,0.024c0.007,0,0.015,0,0.021-0.001l4.499-0.807l-0.098,0.671c-0.002,0.009,0.006,0.017,0.007,0.025  c0,0.009-0.006,0.018-0.003,0.027c0.003,0.008,0.01,0.012,0.015,0.02c0.005,0.01,0.009,0.017,0.017,0.024  c0.015,0.015,0.03,0.023,0.05,0.029c0.006,0.003,0.01,0.009,0.017,0.011c0.006,0,0.011,0,0.017,0l0,0l0,0h0.001l0,0  c0.011,0,0.022-0.001,0.034-0.005l2.761-0.834v0.303l-0.737,0.147c-0.005,0-0.007,0.005-0.012,0.007  c-0.014,0.005-0.023,0.014-0.035,0.023c-0.013,0.011-0.025,0.019-0.032,0.033c-0.003,0.004-0.008,0.004-0.009,0.009  c-0.005,0.012,0.001,0.022,0,0.034s-0.009,0.022-0.007,0.034c0.001,0.005,0.006,0.007,0.007,0.012  c0.004,0.012,0.011,0.019,0.018,0.028c0.011,0.016,0.021,0.027,0.036,0.037c0.006,0.002,0.007,0.008,0.012,0.011l0.759,0.305  l-0.042,3.271l-0.44-0.069c-0.011-0.001-0.02,0.006-0.03,0.007c-0.016,0.002-0.03,0.004-0.045,0.011  c-0.013,0.007-0.02,0.019-0.029,0.029c-0.008,0.01-0.02,0.013-0.025,0.024c-0.001,0.005,0.002,0.01,0,0.016  c-0.001,0.006-0.007,0.008-0.008,0.013c-0.001,0.012,0.007,0.021,0.008,0.033c0.002,0.015,0.003,0.028,0.011,0.042  c0.007,0.014,0.019,0.021,0.03,0.03c0.009,0.007,0.013,0.019,0.023,0.023l0.504,0.214v0.079l-1.86-0.328l0.013-0.034  c0.004-0.012-0.002-0.021-0.002-0.035c0.001-0.012,0.009-0.021,0.006-0.033c-0.002-0.005-0.006-0.008-0.008-0.011  c-0.005-0.016-0.016-0.023-0.026-0.035c-0.01-0.012-0.018-0.023-0.032-0.03c-0.004-0.002-0.006-0.006-0.01-0.009  c-0.012-0.005-0.023,0.003-0.037,0.001c-0.011-0.001-0.021-0.008-0.032-0.006l-0.416,0.104l-0.551-0.104  c-0.01-0.002-0.019,0.005-0.028,0.005c-0.017,0.003-0.03,0.003-0.046,0.01c-0.013,0.007-0.021,0.017-0.03,0.028  c-0.008,0.007-0.02,0.01-0.024,0.021l-0.004,0.007l-0.303-0.07c-0.014-0.002-0.025,0.005-0.038,0.008  c-0.018,0.002-0.034-0.003-0.051,0.007l-0.926,0.553L33.293,41.9c-0.016,0.004-0.024,0.018-0.036,0.026  c-0.013,0.009-0.026,0.013-0.035,0.025c-0.008,0.012-0.007,0.028-0.01,0.042c-0.004,0.015-0.014,0.026-0.011,0.042  c0,0.002,0.002,0.003,0.003,0.005c0,0-0.001,0.003-0.001,0.004c0.004,0.018,0.017,0.029,0.027,0.043  c0.006,0.007,0.007,0.017,0.014,0.021c0.021,0.017,0.045,0.025,0.071,0.026c0.002,0.002,0.003,0.002,0.004,0.002h0.001l0,0h0.001  c0.006,0,0.012,0,0.017-0.002l0.006-0.001c0.001,0,0.002,0,0.003,0h0.002l9.966-1.542l-2.263,1.322  c-0.009,0.004-0.011,0.014-0.017,0.021c-0.012,0.011-0.021,0.021-0.027,0.035c-0.006,0.015-0.008,0.027-0.009,0.044  c0,0.008-0.007,0.016-0.005,0.025c0.001,0.008,0.008,0.013,0.012,0.02c0.002,0.006-0.001,0.012,0.002,0.02  c0.003,0.004,0.01,0.002,0.013,0.007c0.022,0.03,0.053,0.052,0.091,0.052c0.008,0,0.015,0,0.023-0.003l4.5-0.86l-0.419,0.68v0.002  c-0.009,0.015-0.006,0.033-0.008,0.05c-0.001,0.015-0.009,0.027-0.005,0.04c0,0-0.001,0-0.001,0.001  c0.008,0.029,0.027,0.053,0.051,0.069c0.002,0,0.001,0.002,0.003,0.004c0.02,0.013,0.041,0.018,0.062,0.018  c0.011,0,0.02,0,0.03-0.003l5.117-1.298l-0.059,4.86l-2.877,0.464l1.945-0.705c0.014-0.005,0.02-0.018,0.029-0.025  c0.012-0.011,0.025-0.017,0.032-0.031c0.008-0.014,0.006-0.027,0.008-0.044c0.001-0.013,0.01-0.024,0.006-0.039  c0-0.003-0.003-0.003-0.004-0.006c-0.001-0.002,0.001-0.005,0.001-0.008c-0.006-0.015-0.02-0.021-0.028-0.03  c-0.01-0.011-0.016-0.023-0.027-0.031c-0.015-0.008-0.031-0.007-0.049-0.008c-0.012-0.002-0.022-0.01-0.036-0.007l-15.34,3.556  c-0.017,0.004-0.025,0.018-0.038,0.026c-0.012,0.009-0.026,0.013-0.035,0.024c-0.008,0.015-0.006,0.031-0.009,0.047  c-0.003,0.015-0.012,0.026-0.009,0.043c0,0,0.001,0,0.001,0.001s0,0.001,0,0.002c0.004,0.018,0.017,0.029,0.027,0.042  c0.006,0.009,0.007,0.018,0.016,0.025c0.021,0.016,0.047,0.025,0.074,0.025c0.008,0,0.015,0,0.022-0.002h0.002  c0.001,0,0.002,0,0.002,0l0.006-0.002l11.734-2.275l0.213,0.404l-0.027-0.012c-0.002-0.001-0.005,0-0.006,0  c-0.015-0.006-0.029-0.001-0.044,0c-0.017,0-0.031-0.004-0.046,0.002c-0.002,0.003-0.004,0-0.006,0.002l-10.357,5.392  c-0.011,0.006-0.014,0.019-0.022,0.028c-0.012,0.009-0.021,0.019-0.027,0.032c-0.007,0.015-0.005,0.028-0.006,0.045  c0,0.012-0.008,0.021-0.004,0.032c0.001,0.006,0.006,0.009,0.008,0.014c0.002,0.003-0.001,0.008,0.002,0.01  c0.006,0.012,0.016,0.02,0.023,0.026c0.006,0.007,0.009,0.013,0.016,0.017c0.02,0.014,0.043,0.023,0.066,0.023  c0.011,0,0.021-0.003,0.032-0.005l14.231-3.949c0.005,0,0.006-0.006,0.011-0.009c0.02-0.008,0.035-0.02,0.048-0.036  c0.005-0.007,0.011-0.012,0.015-0.019c0.002-0.005,0.005-0.006,0.007-0.01c0.005-0.013-0.002-0.024-0.002-0.037  c0.002-0.013,0.009-0.023,0.005-0.037c0-0.003-0.005-0.005-0.006-0.008c-0.006-0.015-0.018-0.023-0.028-0.036  c-0.01-0.011-0.018-0.022-0.031-0.029c-0.004-0.001-0.005-0.006-0.008-0.007l-1.204-0.443l1.022-0.59l0.641,0.227l-0.043,4.559  l-1.361-0.223c-0.001-0.001,0-0.002,0-0.003c-0.002-0.009-0.011-0.011-0.015-0.018s-0.001-0.017-0.006-0.022  c-0.006-0.007-0.015-0.006-0.021-0.012c-0.012-0.011-0.023-0.018-0.038-0.022c-0.017-0.005-0.029-0.007-0.045-0.005  c-0.008,0-0.016-0.004-0.024-0.002L48.7,52.055l-0.2-0.038c-0.005-0.003-0.009,0.002-0.013,0.002  c-0.015-0.002-0.026,0.004-0.04,0.007c-0.017,0.005-0.032,0.007-0.045,0.019c-0.003,0.003-0.008,0.003-0.011,0.005  c-0.009,0.01-0.007,0.021-0.013,0.032c-0.006,0.01-0.018,0.018-0.02,0.029c-0.001,0.004,0.003,0.008,0.002,0.013  c0,0.008-0.001,0.014,0,0.022l-0.295,0.062l-1.103-0.193c-0.011-0.001-0.02,0.006-0.03,0.008c-0.011,0.001-0.021-0.006-0.032-0.002  c-0.006,0.003-0.008,0.01-0.013,0.012c-0.013,0.008-0.021,0.017-0.03,0.028c-0.011,0.013-0.021,0.023-0.025,0.04  c-0.001,0.005-0.007,0.007-0.008,0.012c-0.002,0.012,0.005,0.02,0.007,0.03c0,0.012-0.006,0.021-0.002,0.033l0.098,0.261  l-1.656-0.42c-0.014-0.003-0.024,0.004-0.038,0.006c-0.012,0.001-0.023-0.006-0.036-0.002l-5.048,1.972l-12.854,2.914  c-0.016,0.004-0.024,0.018-0.036,0.026c-0.014,0.008-0.028,0.013-0.037,0.024c-0.008,0.013-0.006,0.028-0.009,0.043  c-0.004,0.016-0.013,0.028-0.01,0.044c0,0.002,0.001,0.002,0.001,0.004c0,0,0,0,0,0.003c0.004,0.015,0.016,0.025,0.025,0.038  c0.006,0.009,0.008,0.021,0.016,0.027c0.021,0.017,0.048,0.028,0.076,0.028c0.006,0,0.014-0.001,0.021-0.003l8.466-1.453  l-3.153,1.224c-0.012,0.005-0.016,0.017-0.025,0.023c-0.013,0.01-0.023,0.017-0.031,0.03c-0.009,0.015-0.009,0.028-0.011,0.045  c-0.001,0.012-0.01,0.021-0.008,0.033c0.001,0.004,0.006,0.007,0.007,0.012c0.001,0.004-0.001,0.007,0,0.012  c0.005,0.013,0.016,0.021,0.024,0.03c0.006,0.007,0.009,0.014,0.016,0.021c0.021,0.016,0.045,0.026,0.071,0.026  c0.007,0,0.014-0.001,0.02-0.003l15.029-2.505l0.906,2.429c0,0.002,0.001,0.002,0.001,0.002l0,0  c0.005,0.012,0.016,0.019,0.022,0.027c0.008,0.01,0.013,0.021,0.022,0.028c0.02,0.013,0.043,0.021,0.067,0.021  c0.014,0,0.027-0.003,0.041-0.009c0.001,0,0.001,0,0.001-0.001c0,0,0,0,0.002,0l1.474-0.574l-0.056,4.331l-3.096-0.505l0.314-0.14  c0.012-0.006,0.016-0.019,0.024-0.025c0.012-0.011,0.023-0.019,0.03-0.033c0.008-0.014,0.006-0.026,0.008-0.042  c0.001-0.013,0.009-0.023,0.006-0.035c-0.001-0.005-0.006-0.007-0.008-0.012c-0.001-0.003,0.002-0.007,0-0.012  c-0.004-0.011-0.017-0.014-0.024-0.023c-0.011-0.012-0.019-0.023-0.033-0.03c-0.014-0.007-0.027-0.007-0.043-0.008  c-0.013-0.002-0.022-0.009-0.035-0.006l-1.053,0.236l-1.086-0.193c-0.001,0-0.001,0-0.001,0l-0.225-0.043  c-0.01-0.003-0.017,0.004-0.026,0.004c-0.008,0-0.015-0.007-0.023-0.004l-0.043,0.009l-0.099-0.012  c-0.002,0-0.004,0.003-0.006,0.003c-0.02-0.002-0.036,0.008-0.054,0.016c-0.011,0.005-0.021,0.005-0.03,0.012  c-0.003,0.003-0.006,0.003-0.009,0.005c-0.008,0.009-0.007,0.021-0.013,0.03l-4.554,1.562l-15.984,3.644  c-0.016,0.003-0.024,0.017-0.036,0.025c-0.014,0.01-0.028,0.013-0.037,0.026c-0.009,0.013-0.007,0.027-0.01,0.044  c-0.003,0.015-0.012,0.027-0.009,0.042c0,0.002,0.001,0.003,0.001,0.003c0.001,0.002,0,0.002,0,0.003  c0.004,0.018,0.017,0.029,0.027,0.044c0.006,0.007,0.007,0.017,0.015,0.023c0.021,0.017,0.048,0.025,0.075,0.025  c0.007,0,0.014,0,0.021-0.001l9.747-1.752l-4.46,1.52c-0.013,0.004-0.018,0.017-0.028,0.025c-0.013,0.009-0.025,0.015-0.033,0.029  c-0.008,0.013-0.008,0.026-0.011,0.043c-0.001,0.012-0.01,0.022-0.009,0.035c0.002,0.005,0.005,0.006,0.006,0.01  c0.002,0.004-0.001,0.007,0,0.01c0.005,0.015,0.017,0.022,0.025,0.034c0.006,0.007,0.009,0.016,0.016,0.021  c0.021,0.017,0.046,0.025,0.072,0.025c0.007,0,0.013,0,0.019-0.001l16.982-2.69l1.308,1.853l-1.52,0.298  c-0.003,0.001-0.004,0.005-0.006,0.005c-0.017,0.003-0.026,0.015-0.04,0.025c-0.012,0.01-0.024,0.016-0.032,0.028  c-0.002,0.002-0.005,0.002-0.006,0.005c-0.006,0.013-0.002,0.025-0.003,0.039c-0.002,0.014-0.011,0.023-0.008,0.038  c0,0.003,0.003,0.005,0.004,0.007c0.003,0.012,0.01,0.018,0.016,0.027c0.01,0.018,0.021,0.031,0.036,0.041  c0.003,0.002,0.004,0.007,0.008,0.009l3.868,1.972v0.858l-1.181,0.206l-2.703-0.757l0.79-0.378c0.011-0.006,0.014-0.02,0.022-0.026  c0.012-0.012,0.023-0.019,0.029-0.032c0.007-0.016,0.007-0.028,0.007-0.045c0.001-0.012,0.009-0.021,0.006-0.033  c-0.001-0.004-0.006-0.007-0.008-0.012c-0.002-0.004,0.001-0.009-0.001-0.014c-0.005-0.01-0.016-0.012-0.023-0.021  c-0.012-0.012-0.021-0.023-0.036-0.03c-0.014-0.007-0.025-0.006-0.041-0.007c-0.012,0-0.022-0.008-0.035-0.005l-1.563,0.372  l-1.291-0.372c-0.013-0.002-0.023,0.005-0.035,0.005c-0.013,0-0.024-0.007-0.037-0.002l-5.594,1.94l-20.272,4.634  c-0.015,0.003-0.023,0.016-0.035,0.024c-0.013,0.009-0.029,0.014-0.037,0.026c-0.009,0.014-0.007,0.028-0.01,0.045  c-0.003,0.014-0.012,0.027-0.009,0.042c0,0.001,0.001,0.003,0.001,0.003c0,0.002-0.001,0.002,0,0.003  c0.003,0.018,0.017,0.032,0.028,0.045c0.005,0.006,0.007,0.015,0.013,0.021c0.021,0.018,0.047,0.027,0.075,0.027  c0.007,0,0.015,0,0.021-0.001l12.894-2.31l-6.013,2.077c-0.014,0.005-0.019,0.018-0.028,0.024c-0.013,0.01-0.024,0.017-0.032,0.029  c-0.009,0.014-0.009,0.028-0.011,0.044c-0.002,0.013-0.01,0.022-0.008,0.035c0,0.005,0.004,0.006,0.005,0.009  c0.001,0.005-0.001,0.008,0,0.012c0.005,0.015,0.017,0.023,0.025,0.034c0.006,0.006,0.009,0.015,0.015,0.021  c0.021,0.015,0.045,0.025,0.071,0.025h0.001h0.001l0,0l0,0c0.006,0,0.013,0,0.02-0.001l18.311-2.94l-0.044,2.819  c0,0.011,0.009,0.018,0.011,0.027c0.002,0.009-0.003,0.019,0.001,0.026c0.004,0.01,0.012,0.014,0.018,0.02  c0.005,0.007,0.009,0.012,0.016,0.018c0.02,0.018,0.044,0.029,0.07,0.03c0.001,0.001,0.002,0.001,0.003,0.001s0.002,0,0.002,0  c0.018,0,0.036-0.004,0.053-0.012l3.739-1.812l2.71,3.415v0.683L49.56,75.89l0,0l-5.337-1.12l0.063-0.118  c0.007-0.014,0.002-0.028,0.004-0.043s0.01-0.026,0.006-0.043c0,0-0.001-0.001-0.002-0.002c-0.004-0.015-0.017-0.023-0.026-0.037  c-0.01-0.013-0.016-0.027-0.03-0.036c-0.001,0-0.001-0.001-0.001-0.002c-0.012-0.005-0.023,0-0.035-0.003  c-0.017-0.003-0.032-0.012-0.05-0.007l-0.582,0.145l-0.655-0.146c-0.016-0.004-0.029,0.006-0.044,0.008  c-0.014,0.003-0.028-0.002-0.041,0.005l-0.342,0.192l-1.143-0.206c-0.014-0.003-0.022,0.006-0.034,0.007  c-0.015,0.002-0.027,0.002-0.041,0.01c-0.015,0.007-0.023,0.019-0.034,0.031c-0.007,0.008-0.018,0.011-0.022,0.021l-0.308,0.689  l-28.449,6.518c-0.015,0.003-0.023,0.018-0.035,0.024c-0.013,0.009-0.027,0.014-0.036,0.025c-0.009,0.013-0.007,0.028-0.011,0.042  c-0.003,0.016-0.013,0.028-0.01,0.044c0,0.001,0.002,0.002,0.002,0.003c0.001,0.003-0.001,0.004,0,0.005  c0.004,0.018,0.017,0.028,0.026,0.042c0.005,0.008,0.008,0.018,0.015,0.023c0.021,0.017,0.048,0.028,0.075,0.028  c0.007,0,0.013-0.001,0.02-0.002l0.006-0.001h0.001h0.002l22.647-3.588l-6.601,3.363c-0.009,0.005-0.012,0.017-0.019,0.022  c-0.013,0.011-0.022,0.021-0.029,0.034s-0.008,0.027-0.009,0.042c-0.001,0.012-0.009,0.019-0.006,0.03  c0.001,0.008,0.007,0.01,0.009,0.017c0.003,0.005-0.001,0.011,0.001,0.017c0.006,0.01,0.016,0.016,0.022,0.023  c0.006,0.006,0.01,0.012,0.016,0.017c0.021,0.015,0.044,0.025,0.069,0.025c0.007,0,0.015-0.001,0.021-0.002l10.055-1.857  l-0.771,1.688c-0.006,0.014,0,0.028-0.001,0.042c-0.002,0.015-0.01,0.026-0.006,0.04c0.001,0.002,0.003,0.002,0.004,0.005  c0.003,0.008,0.009,0.013,0.014,0.02c0.01,0.019,0.023,0.034,0.041,0.045c0.003,0.001,0.004,0.006,0.008,0.008  c0.017,0.007,0.033,0.012,0.05,0.012c0.01,0,0.021-0.002,0.031-0.005l11.982-3.208l-0.027,2.024l-2.292,0.525  c-0.005,0.001-0.006,0.006-0.011,0.007c-0.015,0.005-0.025,0.017-0.037,0.027s-0.022,0.019-0.029,0.031  c-0.003,0.005-0.008,0.006-0.01,0.011c-0.004,0.012,0.003,0.022,0.002,0.034s-0.008,0.022-0.005,0.034  c0.001,0.004,0.006,0.008,0.007,0.013c0.004,0.009,0.011,0.017,0.017,0.025c0.012,0.017,0.023,0.028,0.04,0.036  c0.005,0.003,0.007,0.009,0.012,0.011l2.304,0.838l-0.025,0.831l-10.397,1.653c-0.001,0.001-0.003,0.003-0.004,0.004  c-0.017,0.002-0.028,0.014-0.041,0.024c-0.013,0.008-0.026,0.013-0.034,0.025c-0.001,0.002-0.004,0.002-0.006,0.004  c-0.007,0.012-0.002,0.025-0.005,0.039s-0.013,0.025-0.01,0.041c0,0.002,0.003,0.003,0.003,0.006  c0.003,0.01,0.011,0.018,0.016,0.026c0.009,0.017,0.018,0.033,0.033,0.045c0.003,0.002,0.003,0.006,0.007,0.007l3.967,2.33  l-6.437,2.209c-0.001,0.001-0.001,0.001-0.002,0.002s-0.002-0.001-0.003,0l-21.779,8.732c-0.014,0.006-0.02,0.021-0.03,0.029  c-0.012,0.012-0.027,0.02-0.035,0.034c-0.006,0.015-0.001,0.03-0.001,0.046c0,0.017-0.007,0.03-0.001,0.045  c0,0.001,0.001,0.001,0.001,0.001c0,0.001,0,0.001,0,0.001c0.006,0.014,0.018,0.023,0.027,0.034  c0.006,0.007,0.009,0.017,0.018,0.021c0.02,0.014,0.042,0.021,0.066,0.021c0.015,0,0.028-0.003,0.042-0.007l28.529-10.962  l4.553,2.674c0.02,0.012,0.04,0.017,0.061,0.017c0.031,0,0.062-0.012,0.086-0.035l0.699-0.714l0.612,0.294l-0.06,4.465l0,0  c0,0,0,0,0,0.002c0,0.018,0.012,0.029,0.019,0.043c0.006,0.014,0.006,0.03,0.017,0.04c0.012,0.014,0.031,0.015,0.048,0.021  c0.013,0.005,0.021,0.017,0.035,0.017c0.001,0,0.001,0,0.002,0h0.426h0.94h0.745c0.001,0,0.001,0,0.002,0  c0.018,0,0.029-0.013,0.045-0.02c0.013-0.006,0.028-0.006,0.038-0.017c0.012-0.013,0.014-0.03,0.021-0.047  c0.005-0.013,0.015-0.022,0.015-0.037v-0.002l0,0l-0.06-5.575l2.585-3.104l7.438,1.188l7.599,2.761  c0.014,0.005,0.027,0.007,0.041,0.007c0.026,0,0.051-0.009,0.071-0.024c0.002-0.001,0.003-0.001,0.005-0.001  c0.004-0.005,0.003-0.011,0.007-0.014c0.012-0.012,0.024-0.022,0.03-0.039c0.001-0.006-0.002-0.011-0.001-0.016  c0.003-0.015,0.001-0.027-0.002-0.044c-0.003-0.016-0.004-0.028-0.013-0.042c-0.003-0.005-0.001-0.011-0.004-0.015l-1.26-1.549  l15.287,2.455c0.006,0.001,0.013,0.001,0.019,0.001l0,0l0,0h0.001h0.001c0.026,0,0.051-0.011,0.071-0.025  c0.006-0.006,0.009-0.015,0.015-0.021c0.009-0.011,0.021-0.02,0.025-0.034c0.001-0.004-0.001-0.007,0-0.012  c0.001-0.003,0.005-0.004,0.006-0.009c0.001-0.013-0.007-0.023-0.009-0.035c-0.003-0.017-0.002-0.03-0.011-0.044  c-0.007-0.013-0.021-0.02-0.032-0.029c-0.01-0.007-0.016-0.02-0.027-0.024l-3.677-1.265l8.037,1.493l0.008,0.003  c0.001,0,0.003,0,0.004,0h0.001c0.007,0.002,0.015,0.002,0.021,0.002c0.027,0,0.055-0.01,0.075-0.025  c0.007-0.006,0.008-0.016,0.014-0.022c0.011-0.013,0.024-0.026,0.028-0.045c0-0.001,0-0.001,0-0.002s0.001-0.001,0.001-0.004  c0.003-0.017-0.006-0.029-0.01-0.044c-0.003-0.015-0.001-0.029-0.009-0.043c-0.008-0.012-0.023-0.016-0.035-0.025  c-0.013-0.008-0.021-0.022-0.037-0.025l-13.422-3.082l-9.787-3.343l-4.29-5.228c-0.005-0.006-0.013-0.006-0.019-0.01  c-0.012-0.01-0.023-0.015-0.039-0.021c-0.015-0.005-0.026-0.009-0.042-0.007c-0.007,0-0.013-0.006-0.02-0.004l-5.629,1.244  l2.107-2.552c0,0.009,0.005,0.019,0.008,0.026c0.004,0.015,0.003,0.029,0.012,0.041c0.007,0.011,0.021,0.012,0.03,0.02  c0.016,0.012,0.027,0.025,0.046,0.027l3.915,0.592l14.238,4.186h0.002c0,0,0,0,0.001,0l0.009,0.003  c0.011,0.004,0.022,0.006,0.034,0.006c0.024,0,0.048-0.009,0.068-0.023c0.007-0.005,0.01-0.013,0.016-0.019  c0.01-0.012,0.021-0.02,0.027-0.035c0-0.001-0.001-0.002,0-0.005c0-0.002,0.003-0.002,0.004-0.005  c0.004-0.014-0.004-0.027-0.005-0.042s0.002-0.03-0.005-0.043c-0.007-0.015-0.02-0.021-0.031-0.03  c-0.011-0.011-0.017-0.025-0.03-0.029l-7.427-2.917l20.44,3.146c0.006,0.001,0.012,0.002,0.018,0.002l0,0l0,0h0.001  c0.001,0,0.002-0.002,0.003-0.002c0.027-0.001,0.052-0.01,0.072-0.026c0.007-0.007,0.009-0.016,0.015-0.023  c0.01-0.013,0.022-0.024,0.026-0.042c0-0.001-0.002-0.002-0.001-0.005c0.001-0.001,0.002-0.002,0.003-0.004  C88.769,81.873,88.76,81.861,88.756,81.848z M67.159,78.439l-5.831-0.881l-3.803-0.574l0.032-0.263c0-0.002-0.001-0.002-0.001-0.002  c0.001-0.003,0.001-0.003,0.001-0.003l0.014-0.166h0.001l0.061-0.607l0,0l0.137-1.2l1.129,0.272c0.001,0,0.001,0,0.001,0  l26.72,6.267L67.161,78.44C67.159,78.44,67.159,78.439,67.159,78.439z M60.778,78.648l4.266,5.196l3.221,3.934h0.001l1.184,1.457  l-7.202-2.618l0,0l-7.392-2.701c-0.001,0-0.001-0.001-0.001-0.001l-0.077-0.031c0,0-0.001,0-0.002,0l0,0l-2.688-0.987  c-0.004-0.001-0.007,0.001-0.01,0s-0.004-0.005-0.008-0.006l-0.066-0.013l-0.645-0.24l0,0l0,0l-0.819-0.303l0,0l-0.364-0.136  c0,0,0,0-0.001,0l0,0l-2.003-0.729l1.988-0.454c0.001,0,0.001,0,0.001,0l0.361-0.077c0,0,0.001,0,0.002,0l0.818-0.181  c0,0,0,0,0.001,0l0.635-0.136c0.001-0.002,0.002-0.002,0.003-0.002l2.067-0.47c0,0,0,0,0.001,0l0,0l0.832-0.199l0,0L60.778,78.648z   M74.925,87.238l3.781,1.29l0,0l3.896,1.341l-14.18-2.278l-2.925-3.573L74.925,87.238z M51.347,94.218h-0.94h-0.304l0.059-4.418  c0-0.001,0-0.001,0-0.001c0-0.001,0-0.001,0-0.001v-1.074l0.375-0.375v-0.001l0.881-0.863l0,0h0.001l0.48-0.48l0.013,1.717  l0.06,5.497H51.347z M48.503,90.057l-4.521-2.657c-0.003,0-0.005,0-0.008,0c-0.003-0.002-0.004-0.004-0.008-0.004  c-0.001-0.002-0.001-0.003-0.002-0.004l-0.112-0.042l-3.896-2.286l10.165-1.617c0,0,0,0,0.001,0s0.002,0,0.004,0l0.38-0.078l0,0  l0.825-0.133c0.001,0,0.001,0,0.002,0l0.654-0.092c0,0,0-0.001,0.001-0.001s0.004,0,0.006-0.001l0.042-0.009l2.48,0.911  l-1.204,1.204l-1.382,1.383l-0.683,0.683v0.001l-0.88,0.863l0,0c-0.001,0-0.002,0-0.002,0l-0.41,0.41l-0.759,0.76  c0,0,0,0.001,0,0.002c-0.001,0-0.001,0-0.001,0L48.503,90.057z M37.155,89.866C37.155,89.866,37.155,89.866,37.155,89.866  l2.646-0.908l-9.1,3.497L37.155,89.866z M50.248,82.482l0.208,0.077l0,0l0.818,0.303l0,0l0.269,0.101L51.3,82.996  c0,0-0.001,0.001-0.002,0.001c0,0.001,0,0-0.001,0l-0.834,0.136c-0.001,0-0.001,0.001-0.002,0.001s-0.002,0-0.003,0l-0.231,0.046  L50.248,82.482z M49.921,88.963v0.644l-0.435-0.209L49.921,88.963z M52.136,86.765l1.305-1.305l1.021,0.156l-2.312,2.775  L52.136,86.765z M54.708,85.411C54.708,85.411,54.708,85.411,54.708,85.411L54.708,85.411l-1.058-0.16l1.071-1.072l0.086-0.025  l6.188,2.262L54.708,85.411z M35.94,78.271l5.816-2.96V75.31l0.805-0.394c0-0.001,0-0.001,0.002-0.001  c0.001-0.002,0.003-0.002,0.004-0.003l0.34-0.189l0.638,0.141l0,0l0.472,0.107c0.001,0,0.002,0,0.004,0l5.495,1.154  c0,0,0.001,0,0.002,0c0.001,0.001,0.001,0.001,0.001,0.001h0.002l0,0h0.005l0.642,0.12l0.328,0.089  c0.002,0.001,0.004,0.001,0.006,0.002c0.002,0,0.002,0,0.003,0l0.775,0.152l0,0l0.606,0.122c0.001,0,0.001,0,0.002,0l2.17,0.466  l-2.152,0.391h-0.001l-0.622,0.107c0,0-0.001,0-0.002,0.001l-0.001-0.001l-0.773,0.152l0,0l-0.349,0.061c0,0-0.001,0-0.002,0l0,0  l-11.283,2.064l-9.472,1.75l6.538-3.332C35.939,78.271,35.94,78.271,35.94,78.271z M41.394,74.729l0.733,0.131l-0.478,0.234l0,0  c0,0-0.001,0-0.002,0l-0.135,0.069c-0.026-0.047-0.078-0.076-0.132-0.062l-0.176,0.051L41.394,74.729z M44.105,67.126l0.835,0.24  l-4.378,0.989L44.105,67.126z M38.524,69.062C38.524,69.062,38.524,69.062,38.524,69.062l6.926-1.564c0,0,0-0.001,0.001-0.001  s0.001,0,0.001,0l0.504-0.12l-0.067,0.033l-3.6,1.725l-9.674,1.743l0,0l-9.417,1.688L38.524,69.062z M32.667,71.113l9.681-1.745  c0.003-0.001,0.004-0.004,0.007-0.005c0.008-0.001,0.016-0.001,0.023-0.006l3.575-1.712l2.473,0.692l-4.798,0.794  c-0.013,0.001-0.019,0.013-0.029,0.018c-0.015,0.008-0.029,0.013-0.039,0.025c-0.011,0.012-0.012,0.023-0.018,0.039  c-0.004,0.012-0.014,0.02-0.015,0.033l-0.028,1.266l-16.99,2.729L32.667,71.113z M43.737,70.618L43.737,70.618l0.028-1.267  l5.231-0.864c0.001,0,0.001,0,0.002,0l1.302-0.229l0.298-0.028c0.001,0,0.001,0,0.001,0c0.003,0,0.006,0,0.009-0.001l0.698-0.122  l0,0l0.517-0.089l1.469,0.728l-1.511,0.729c0,0,0,0-0.001,0l0,0l-0.545,0.274h-0.001l-0.698,0.333h-0.001l-0.33,0.151  c-0.001,0-0.001,0.001-0.001,0.001c-0.001,0-0.002,0-0.002,0l-1.337,0.653h-0.001l-1.519,0.729l0,0l0,0l-3.651,1.77L43.737,70.618z   M50.553,67.368L50.553,67.368l0.662,0.332c0.001,0,0.001,0,0.001,0l0.255,0.135l-0.205,0.035l0,0l0,0l-0.695,0.121l-0.166,0.017  v-0.71L50.553,67.368z M58.882,74.765l-1.188-0.286c-0.003-0.001-0.005,0.001-0.008,0c-0.003,0-0.004-0.002-0.007-0.002  c-0.01-0.003-0.019,0.007-0.029,0.008c-0.02,0.004-0.038,0.004-0.054,0.016c-0.006,0.005-0.007,0.013-0.012,0.019  c-0.014,0.014-0.03,0.027-0.035,0.048c0,0.004,0.002,0.006,0.001,0.009c0,0.002-0.003,0.003-0.003,0.007l-0.138,1.207l-5.396-1.079  l-0.026-3.006l8.13,1.574L58.882,74.765z M52.072,80.354l-0.026-2.114l0.321-0.09l1.441,1.809L52.072,80.354z M52.38,77.896  C52.38,77.896,52.38,77.896,52.38,77.896L52.38,77.896l-0.335,0.096v-0.305l2.65-0.482c0.007-0.002,0.011-0.009,0.018-0.012  c0.019-0.007,0.033-0.015,0.046-0.03c0.008-0.008,0.013-0.017,0.018-0.028c0.005-0.008,0.013-0.014,0.015-0.023  c0.002-0.007-0.004-0.014-0.004-0.023c0-0.007,0.006-0.014,0.005-0.023c-0.002-0.008-0.01-0.012-0.014-0.02  c-0.004-0.011-0.005-0.02-0.012-0.029l0.561,0.096L52.38,77.896z M51.326,76.255C51.326,76.255,51.326,76.255,51.326,76.255  L51.326,76.255l-0.776-0.152l0,0l-0.236-0.065V75.25l0.045-3.994l0,0l0.016-0.837l0.264-0.12l0,0c0-0.001,0.001-0.001,0.001-0.001  l0.699-0.333l0,0c0.001,0,0.001,0,0.001,0l0.377-0.19l0.029,1.784l0,0l0.029,3.251v0.089l0,0v0.001l0.015,1.447L51.326,76.255z   M50.12,71.108l-0.829-0.162l0.84-0.41L50.12,71.108z M57.348,76.383l-3.803-1.122l3.838,0.768L57.348,76.383z M48.933,71.121  l1.185,0.231l-0.04,3.557l-2.492-3.141L48.933,71.121z M50.055,78.051l-0.01,0.477l-11.803,3.161l0.735-1.61L50.055,78.051z   M50.283,78.622L50.283,78.622l0.012-0.613l0.252-0.045c0,0,0,0,0.001,0h0.002l0.773-0.152l0,0l0.481-0.082v0.42c0,0,0,0,0,0.001  c0,0,0,0,0,0.001l0.028,2.255l-0.542,0.117l0,0l0,0l-0.819,0.181c-0.001,0-0.001,0-0.001,0l-0.216,0.047L50.283,78.622z   M54.789,79.727l-0.722,0.173l-1.448-1.818l3.301-0.879c0.008-0.002,0.011-0.01,0.018-0.014c0.017-0.008,0.029-0.017,0.04-0.031  c0.008-0.009,0.013-0.019,0.018-0.03c0.004-0.007,0.011-0.012,0.013-0.021c0.001-0.01-0.006-0.017-0.006-0.026  c-0.001-0.008,0.006-0.017,0.003-0.025c-0.002-0.007-0.01-0.01-0.014-0.017c-0.006-0.014-0.015-0.024-0.026-0.035  c-0.012-0.012-0.022-0.019-0.038-0.023c-0.007-0.004-0.01-0.011-0.018-0.012l-3.881-0.666l-0.013-1.243l5.309,1.567l-0.003,0.032  L54.789,79.727z M58.536,67.13l22.932,5.99l-7.621-1.15L57.73,67.938l-0.029-0.297L58.536,67.13z M62.328,69.367L62.328,69.367  l8.954,2.22l-13.385-1.988l-0.141-1.39L62.328,69.367z M57.455,67.591L57.455,67.591L57.5,68.04v0.01  c0,0.002,0.002,0.004,0.002,0.006S57.5,68.06,57.5,68.062l0.168,1.654c0,0.002,0.001,0.002,0.001,0.003l0,0l0.125,1.038  l-4.176-2.116h-0.001l-1.716-0.851H51.9c-0.001,0-0.001,0-0.002-0.002l-0.027-0.013l-0.543-0.288c-0.001,0-0.001,0-0.002,0  c0,0,0,0-0.001,0l-0.668-0.335c0,0,0,0-0.001,0c0,0,0,0-0.001,0L50.336,67c-0.001,0-0.001,0-0.001,0l-3.621-1.847l1.36-0.268  c0,0,0,0,0.001,0l2.278-0.455l0,0c0.001,0,0.001,0,0.001,0l0.287-0.061c0.001,0,0.002,0,0.002,0l0.633-0.137h0.001l0.53-0.091l0,0  c0.002,0,0.003,0,0.004,0l5.156-1.038L57.455,67.591z M35.477,63.255l-6.183,1.111l8.738-1.99L35.477,63.255z M35.546,63.485  l4.677-1.61l4.64-1.593l0.08-0.013c0,0,0-0.001,0.001-0.001c0.002,0,0.004,0,0.006,0l0.037-0.008l0.197,0.038l1.013,0.286  c0.001,0,0.001,0,0.001,0l0.239,0.075c0,0,0.001,0,0.001,0.001c0.001,0,0.001,0.001,0.001,0.001l3.874,1.108  c0.001,0,0.003,0,0.003,0.002h0.001l0.286,0.073c0,0,0,0.001,0.001,0.001l0.196,0.053l-0.186,0.032l0,0l-0.287,0.046l0,0l0,0  l-3.753,0.607l0,0l-15.676,2.483L35.546,63.485C35.545,63.485,35.545,63.485,35.546,63.485z M50.717,56.407  C50.717,56.407,50.717,56.406,50.717,56.407c0.002-0.001,0.003-0.001,0.004-0.001l0.562-0.211c0,0,0,0,0.001,0l0.294-0.11  l0.059,5.146l0,0l0.017,2.657c0,0.002,0.002,0.004,0.002,0.007c0,0.002-0.001,0.002-0.001,0.005l0.003,0.025l-0.421,0.071  c-0.001,0-0.001,0.001-0.003,0.001c-0.001,0-0.001,0-0.002,0l-0.639,0.139h-0.001l-0.141,0.03l0.015-1.969l0.186-0.029  c0.001,0,0.002,0,0.003,0l0.612-0.104h0.097c0.028,0,0.054-0.012,0.075-0.03c0.007-0.006,0.011-0.012,0.016-0.019  c0.007-0.008,0.016-0.014,0.02-0.023c0.003-0.007-0.001-0.016,0-0.023c0.002-0.01,0.01-0.014,0.01-0.023  c0-0.008-0.007-0.014-0.01-0.021c-0.002-0.016-0.007-0.027-0.016-0.041c-0.009-0.013-0.018-0.021-0.032-0.031  c-0.006-0.005-0.008-0.014-0.015-0.017l-0.107-0.046c-0.003-0.001-0.006,0.002-0.009,0c-0.003-0.001-0.004-0.004-0.007-0.006  l-0.623-0.167l0,0c-0.001,0-0.001,0-0.001,0l-0.198-0.052v-0.528l0.059-4.563L50.717,56.407z M55.443,60.941l0.028-0.015  c0.001,0,0.001,0,0.001-0.001c0.002-0.001,0.003-0.001,0.005-0.001l1.157-0.658l17.991,4.695l-5.173-0.768c0,0,0,0.001-0.001,0.001  l-0.154-0.028l-0.001-0.001l0,0H69.29c-0.001,0-0.001,0-0.002,0l-0.002-0.002l-13.851-2.067h-0.001l0,0l-1.583-0.225l0.263-0.16  c0,0,0-0.001,0.001-0.001L55.443,60.941z M53.441,61.841c-0.002,0.003-0.002,0.005-0.004,0.008  c-0.013,0.007-0.018,0.021-0.026,0.035c-0.008,0.014-0.02,0.023-0.022,0.038c0,0.003-0.003,0.004-0.003,0.006  c-0.003,0.015,0.007,0.026,0.01,0.04s-0.001,0.027,0.006,0.04c0.002,0.001,0.004,0,0.005,0.002c0.019,0.027,0.046,0.048,0.081,0.054  l1.509,0.214l-3.104,1.424l-0.015-2.33l1.836,0.304L53.441,61.841z M50.226,61.497l-2.934-0.841l2.934,0.479V61.497z M50.225,62.237  l-0.015,1.979l-2.105,0.419l-1.302-1.843L50.225,62.237z M57.253,53.917c0.006-0.002,0.008-0.01,0.013-0.013  c0.017-0.009,0.026-0.021,0.037-0.034c0.007-0.012,0.013-0.019,0.017-0.031c0.002-0.006,0.008-0.009,0.01-0.016  c0.001-0.012-0.007-0.021-0.009-0.03c0-0.012,0.005-0.021,0.001-0.03c-0.002-0.006-0.008-0.008-0.01-0.012  c-0.009-0.015-0.02-0.023-0.032-0.033c-0.012-0.011-0.022-0.019-0.037-0.023c-0.005-0.001-0.008-0.007-0.014-0.008l-5.442-0.865  V52.79l6.328,1.023l0.438,0.113l-1.553,1.515l-1.875-0.708L57.253,53.917z M51.263,52.729  C51.262,52.729,51.262,52.729,51.263,52.729l-0.546-0.105c-0.001-0.001-0.003,0-0.005,0c-0.001,0-0.001-0.002-0.003-0.002  l-0.138-0.017v-0.136l0.046-4.784l0,0l0.015-0.642l0.165-0.089c0.001,0,0.001-0.002,0.002-0.003c0.001,0,0.003,0,0.003,0  l0.394-0.236c0.006,0.001,0.01,0.008,0.017,0.009l0.275,0.032l0.014,1.277l0.045,4.617v0.13L51.263,52.729z M48.98,52.354  l-0.012-0.008l1.362,0.224l0,0L48.98,52.354z M46.007,47.374l0.243,0.1l0.784,1.481c0,0,0.001,0.001,0.001,0.003  c0.001,0,0,0,0.001,0.001c0,0.001,0.002,0.001,0.002,0.001c0.022,0.037,0.062,0.059,0.102,0.059c0.02,0,0.038-0.005,0.057-0.014  c0,0,0,0,0.002-0.002c0-0.001,0.001,0,0.002-0.001l1.242-0.717l1.042,0.384l-12.772,3.544L46.007,47.374z M48.382,48.044  c-0.001,0.001-0.002,0.001-0.002,0.002l-0.009,0.005l-1.184,0.682l-0.745-1.408l-0.359-0.68l0.23-0.045l0,0l4.232-0.682  c0,0,0,0,0.001,0c0.001-0.001,0.003,0,0.005-0.001l0.207-0.045l0.468-0.06v-0.001c0.001,0,0.003,0,0.004,0l0.379-0.062h0.001  l1.108-0.179l-1.173,0.671v0.001l-0.179,0.104c0,0,0,0-0.001,0l-0.229,0.122c-0.001,0-0.001,0.002-0.002,0.002  c-0.002,0-0.003,0-0.003,0l-0.453,0.274l-0.224,0.119c-0.001,0-0.001,0-0.002,0l0,0l-0.789,0.438c-0.001,0-0.001,0.001-0.002,0.003  c0,0,0,0-0.001,0L48.382,48.044z M45.978,41.174l0.004-0.005v-0.001L46.71,40l0,0l0.7-1.108c0,0,0,0,0-0.002l0.698-0.155l0,0  c0.001,0,0.001,0,0.002,0l0.237-0.059c0,0.002,0.002,0.006,0.002,0.009c-0.001,0.008-0.008,0.015-0.008,0.021  c0,0.065,0.054,0.119,0.12,0.119c0.018,0,0.031-0.012,0.046-0.019l2.075,0.368c0.004,0,0.007,0,0.011,0.001l0,0l0.175,0.016  l0.417,0.089c0.003,0,0.005,0,0.007,0c0.001,0.001,0.002,0.002,0.002,0.002l0.312,0.044l0.227,0.046c0.001,0,0.002,0,0.003,0.001  l0,0l2.125,0.36l-0.446,0.116l0,0l-1.898,0.472c-0.002,0-0.002,0.001-0.002,0.001c-0.001,0.001-0.001,0-0.001,0l-0.334,0.091l0,0  l-0.421,0.105l-0.198,0.046c-0.001,0-0.001,0-0.001,0c-0.001,0.001-0.001,0-0.002,0l-4.981,1.264L45.978,41.174L45.978,41.174z   M43.962,40.492l2.405-0.394l-0.562,0.899l-4.028,0.771L43.962,40.492z M47.085,38.637l0.178,0.041l-0.409,0.098L47.085,38.637z   M45.823,33.866L45.823,33.866l2.08-0.926l0,0c0.001-0.001,0.001-0.001,0.002-0.001l0.196-0.092l0,0l0.316-0.136  c0.001-0.001,0.002-0.002,0.003-0.004c0.003,0,0.005,0,0.008-0.002l0.062-0.035l0.256,0.075c0.004,0.002,0.007,0.001,0.011,0.002  c0.001,0,0.001,0.001,0.002,0.001l0.183,0.032c0.002,0,0.002,0,0.003,0l0.644,0.136l0,0l1.045,0.241l0.166,0.046  c0.003,0.001,0.006,0.001,0.01,0.001c0.001,0,0.001,0.001,0.002,0.001l0.354,0.061l0.265,0.072l-0.257,0.055l-0.362,0.062l0,0  l-0.183,0.03l0,0c-0.001,0-0.001,0-0.001,0l-2.794,0.486l0,0l0,0l-3.714,0.666L45.823,33.866z M49.6,20.907l0.405-0.079l0,0  l0.794-0.134l-0.049,0.028l-0.189,0.072c-0.001,0.001-0.001,0.003-0.002,0.003c0,0-0.001,0-0.002,0l-0.532,0.227  c0,0,0,0.002-0.001,0.002h-0.001l-0.006,0.002c0,0.001-0.001,0.001-0.002,0.001l-0.568,0.258l0.023-0.062L49.6,20.907z   M52.037,17.414L52.037,17.414l-0.004,0.003c-0.001,0.001-0.001,0.002-0.003,0.003c-0.001,0-0.002,0-0.003,0l-0.047,0.03  c-0.004,0.003-0.004,0.008-0.008,0.011c-0.001,0.001-0.001,0-0.001,0.001h-0.001h-0.002c-0.003,0.003-0.006,0.003-0.009,0.005  l-0.003,0.003l-0.475,0.275l-0.081-0.081l-0.166-0.167l0,0l-0.211-0.225c0,0-0.001,0-0.002,0c0-0.001,0-0.002,0-0.002l-0.091-0.092  l0,0c-0.001-0.001-0.003-0.001-0.004-0.002c-0.001,0-0.001-0.003-0.002-0.003l-0.056-0.049h0.056l0.199,0.042  c0.001,0,0.002,0,0.003,0l0,0l0.167,0.03c0.001,0,0.002,0,0.002,0.001c0.001,0,0.001,0.002,0.002,0.002l0.886,0.131L52.037,17.414  L52.037,17.414z M55.261,27.198l-0.685-0.197l0.007-0.057l0.011,0.001L55.261,27.198z M60.524,34.382l-3.569-0.547l-1.291-0.197  c-0.001,0-0.001-0.001-0.001-0.001l-2.494-0.37l0.074-0.146l0.069-0.1c0.002-0.003,0.001-0.005,0.002-0.008  c0.002-0.002,0.005-0.003,0.007-0.007l0.17-0.325L60.524,34.382z M50.655,12.563l-0.136-0.152l0.178-0.026  c0.002,0,0.004,0,0.006-0.001l0.216-0.045h0.048c0.007,0,0.014,0,0.021-0.001l0.021-0.004l-0.099,0.054  c-0.005,0.003-0.005,0.008-0.008,0.01s-0.007,0-0.011,0.002l-0.07,0.058L50.655,12.563z M51.081,6.551l0.055,5.495  c-0.009,0.008-0.018,0.017-0.023,0.025l-0.085,0.016L51.081,6.551z M51.062,17.664L51.062,17.664  c0.003,0.001,0.002,0.002,0.003,0.002l0.131,0.132v0.012l0,0v0.001l0.029,2.577l-0.098,0.021l-0.205,0.026l0.04-2.877L51.062,17.664  z M50.615,21.033l0.065,0.015v0.15l-0.262-0.081L50.615,21.033z M52.915,33.238l-1.326-0.221V32.76l1.378,0.375L52.915,33.238z   M51.589,33.557l0.497-0.075l-0.497,0.145V33.557z M52.114,33.468c0.018-0.006,0.032-0.014,0.045-0.028  c0.009-0.008,0.014-0.017,0.018-0.028c0.005-0.008,0.014-0.014,0.017-0.023c0.001-0.009-0.005-0.015-0.005-0.023  c0-0.001,0.002-0.002,0.002-0.004l0.197,0.032l-0.29,0.085C52.104,33.478,52.107,33.47,52.114,33.468z M51.528,27.034l0.257-0.048  l0.177,0.088l-0.434,0.128V27.034z M52.342,26.997l-0.485-0.244c0,0-0.001,0-0.002,0c0,0,0,0-0.001,0l-0.258-0.122h-0.001  c-0.001-0.001-0.001-0.002-0.001-0.002l-0.132-0.059l-0.243-0.122h-0.001c0,0-0.001,0-0.002,0l-0.063-0.03l0.236,0.029l0,0  l1.017,0.167l0,0l1.938,0.315l-0.017,0.145c0,0.002,0.001,0.002,0.001,0.005c0,0.002-0.002,0.002-0.002,0.004l-0.014,0.38l0,0  l-0.022,0.485l-0.611-0.299L52.342,26.997z M53.753,27.953l-0.071-0.019l0.006-0.014L53.753,27.953z M54.521,28.143l0.022-0.504  l4.826,1.831l-4.856-1.311C54.515,28.152,54.521,28.148,54.521,28.143z M51.467,21.006l1.154,0.221l0.055,0.103l-1.209-0.317V21.006  z M52.722,21.001l-1.134-0.217l0.785-0.153c0.002,0,0.002-0.002,0.003-0.002c0.004-0.001,0.009-0.001,0.012-0.003l0.046-0.015l0,0  l0.054-0.016c0.022-0.005,0.037-0.023,0.052-0.04l0.035,0.012c0.001,0,0.002,0,0.003,0l0.255,0.075  c0.011,0.004,0.022,0.005,0.033,0.005c0.015,0,0.026-0.007,0.04-0.012l0.024,0.012l0,0l1.017,0.562c0,0,0,0,0.001,0l0.079,0.043  L52.722,21.001z M54.044,20.989L53.885,20.9l0.585,0.153L54.044,20.989z M51.175,16.933L51.175,16.933l-0.117-0.025  c-0.005-0.016-0.004-0.033-0.017-0.045c-0.02-0.022-0.046-0.03-0.072-0.035l0.044-3.588l0,0c0,0,0,0,0-0.002V12.61l0.021-0.016  l0.104-0.057v0.077v0.334c0,0.001,0,0.001,0,0.001l0,0l0.058,3.986L51.175,16.933z M50.699,12.821l0.073-0.047v0.303l-0.104-0.246  C50.679,12.827,50.69,12.829,50.699,12.821z M50.576,17.224l0.015,0.004l-0.049,0.008L50.576,17.224z M49.123,21.474  c-0.006,0.018,0.001,0.034,0.003,0.051c0.001,0.014-0.005,0.026,0.001,0.039c0,0,0,0.002,0.001,0.002  c0,0.001,0.001,0.001,0.001,0.001c0.013,0.025,0.034,0.043,0.06,0.054c0.003,0.002,0.004,0.006,0.007,0.007  c0.014,0.005,0.027,0.007,0.041,0.007c0.017,0,0.033-0.002,0.05-0.01l0.793-0.36l0.585,0.182l-2.856,0.831l1.319-0.813  L49.123,21.474z M50.921,21.533C50.921,21.532,50.921,21.532,50.921,21.533c0-0.002,0-0.002,0-0.002v-0.169v-0.41v-0.047  c0.004,0.001,0.007,0.002,0.011,0.004c0.007,0.002,0.011,0.009,0.018,0.01l0.196,0.031l0,0l0.081,0.013v0.142l0,0v0.001l0.047,5.085  l-0.094-0.012l0,0l-0.276-0.042l0,0l-0.042-0.01L50.921,21.533z M46.21,27.306l-2.641,0.392l3.937-1.033L46.21,27.306z   M46.298,27.531L46.298,27.531l2.203-1.095c0.02-0.01,0.028-0.028,0.04-0.046l0.025-0.007l0.375-0.09l0.047-0.008l0.088,0.045  l0.071,0.04c0.019,0.012,0.039,0.017,0.06,0.017c0.01,0,0.016-0.012,0.025-0.015l1.481,0.316l0,0l0.137,0.03  c0.001,0,0.002,0,0.003,0l0.286,0.062c0.002,0,0.003,0,0.004,0l0,0l0.221,0.041l-0.222,0.043l0,0l-0.284,0.044  c-0.001,0-0.002,0.001-0.003,0.001c-0.001,0.001-0.003,0-0.005,0l-0.137,0.03l0,0l-1.877,0.348c-0.001,0-0.001,0-0.001,0  l-3.225,0.578L46.298,27.531C46.298,27.531,46.298,27.531,46.298,27.531z M50.62,27.202v0.252l-1.79,0.51l0.123-0.453L50.62,27.202z   M50.86,27.545L50.86,27.545C50.86,27.545,50.86,27.545,50.86,27.545v-0.392l0.043-0.009l0,0l0.28-0.044l0,0  c0.002-0.001,0.003,0,0.005-0.001l0.1-0.019v0.281l0,0v0.001l0.061,5.225c0,0.003,0.002,0.003,0.003,0.007  c-0.001,0.002-0.003,0.004-0.003,0.007v0.466l-0.122-0.034c-0.003-0.001-0.005,0.001-0.007,0.001s-0.003-0.002-0.005-0.004  l-0.355-0.06l-0.075-0.021L50.86,27.545z M50.528,33.747v0.208l-2.649,0.802l0.082-0.562L50.528,33.747z M50.769,34.044v-0.34  l0.082-0.013c0,0,0,0,0.001,0l0.363-0.061c0,0,0-0.001,0.001-0.001c0.002,0,0.003,0,0.004,0l0.129-0.028v0.185  c0,0,0.001,0.002,0.001,0.003h-0.001l0.014,0.539l-0.19,0.04h-0.001l-0.38,0.074c-0.001,0.002-0.003,0.003-0.004,0.004  c-0.002,0-0.003-0.001-0.004-0.001l-0.015,0.005V34.044z M50.672,34.724c0.001,0,0.001,0,0.002-0.001c0.002,0,0.005,0,0.006-0.001  l0.158-0.042c0,0,0,0,0.001,0l0.38-0.077l0,0l0,0l0.289-0.062c0.001,0,0.003,0,0.003,0l2.665-0.588l2.023,3.201l-4.656-1.825h-0.001  l-0.304-0.12c0,0,0,0-0.001,0s-0.001-0.001-0.002-0.002l-0.377-0.136l-0.161-0.073c0,0-0.001,0.001-0.003,0c0,0,0,0-0.001-0.001  l-0.46-0.186L50.672,34.724z M50.724,38.753v-0.15l0.043-3.309c0.001,0,0.003,0,0.006,0c0,0.001,0.001,0.002,0.002,0.002l0.38,0.139  h0.001l0.225,0.089l0.028,2.938l-0.188-0.025l-0.176-0.045c-0.018-0.003-0.031,0.005-0.048,0.008c-0.013,0.002-0.026,0-0.038,0.006  c-0.015,0.008-0.021,0.023-0.032,0.036c-0.009,0.012-0.021,0.017-0.025,0.029c-0.001,0.001,0.001,0.003,0.001,0.006  c-0.001,0.001-0.003,0.002-0.004,0.003c-0.004,0.016,0.005,0.028,0.007,0.043c0.001,0.015-0.001,0.03,0.006,0.043  c0.008,0.014,0.023,0.021,0.036,0.031c0.011,0.009,0.016,0.021,0.029,0.026l0.181,0.061h0.001c0,0.001,0.001,0.001,0.001,0.001  l0.251,0.08v0.004v0.301l-0.181-0.025l-0.418-0.09c-0.003,0-0.005,0.003-0.008,0.002c-0.003,0-0.004-0.004-0.007-0.004l-0.072-0.006  V38.753z M57.293,39.824l3.307,1.547l-3.003-0.94c-0.001,0-0.001-0.001-0.001-0.001l-4.623-1.431L57.293,39.824z M56.764,41.712  l-1.287-0.937l2.542,0.93c0.001,0,0.001,0.001,0.002,0.001l6.927,2.503L56.764,41.712z M54.822,40.281  c-0.01-0.004-0.019,0.002-0.028,0c-0.016-0.001-0.028-0.003-0.043,0.002c-0.018,0.005-0.028,0.012-0.042,0.023  c-0.007,0.006-0.017,0.005-0.022,0.013c-0.005,0.006-0.002,0.014-0.005,0.018c-0.004,0.008-0.012,0.009-0.015,0.016  c-0.001,0.004,0.002,0.008,0.002,0.012l-0.858-0.369l0.65-0.17c0.009-0.001,0.012-0.011,0.019-0.013  c0.017-0.009,0.028-0.017,0.04-0.03c0.009-0.011,0.013-0.02,0.018-0.032c0.003-0.005,0.007-0.008,0.009-0.013l2.929,0.907  l0.351,0.734L54.822,40.281z M51.789,39.139l-0.14-0.057V38.91l0.489,0.082l1.474,0.457L51.789,39.139z M50.812,40.753  C50.813,40.753,50.813,40.752,50.812,40.753l0.002-0.001l0.426-0.105c0.001,0,0.001-0.001,0.001-0.001h0.001l0.184-0.051  l0.044,4.936l-0.274,0.043l0,0l-0.472,0.061c-0.001,0-0.002,0.003-0.004,0.004c-0.002,0-0.003-0.001-0.005-0.001l-0.066,0.014  l0.058-4.872L50.812,40.753z M54.972,45.749C54.972,45.749,54.972,45.749,54.972,45.749c0.002,0,0.003,0,0.005,0l0.364-0.092  c0.047-0.013,0.072-0.054,0.08-0.1l0.205-0.088l0.212,0.05c0.001,0,0.001,0,0.001,0l0.837,0.243  c0.012,0.004,0.022,0.005,0.033,0.005c0.032,0,0.06-0.015,0.082-0.037l0.464,0.194c0,0,0,0,0.001,0l5.329,2.217l0,0l1.087,0.46  l-9.328-1.614l0,0l0,0l-2.718-0.457c-0.001,0-0.003,0.002-0.004,0.002l-0.002-0.003h-0.007l0.021-0.005c0,0,0,0,0-0.001l2.774-0.652  l0,0L54.972,45.749z M59.175,46.464l7.21,2.021l-3.72-0.568L59.175,46.464z M54.136,48.735l-2.396-0.79l-0.013-1.153l2.472,0.415  L54.136,48.735z M54.268,45.657l-2.068,0.488l0.8-0.459l1.275-0.202L54.268,45.657z M50.388,47.177l-0.007,0.337l-0.367-0.129  L50.388,47.177z M54.798,54.859c0.006,0.003,0.007,0.011,0.013,0.013l0.002,0.001l0,0l0.004,0.001l1.949,0.794l-1.238,1.201  l-2.132-1.471L54.798,54.859z M59.233,53.856l0.288,0.065l0,0l0.432,0.124L59.233,53.856z M46.681,33.222l-0.941,0.418l-3.217,0.53  L46.681,33.222z M46.149,39.188C46.15,39.188,46.15,39.188,46.149,39.188L46.149,39.188l0.929-0.22l-0.541,0.857l-2.636,0.433l0,0  l-7.335,1.136L46.149,39.188z M47.509,45.913l-1.253,0.455l-0.384,0.072c-0.008,0.002-0.012,0.011-0.02,0.014s-0.017,0-0.023,0.005  s-0.008,0.015-0.013,0.019c-0.01,0.01-0.018,0.018-0.023,0.031l-5.207,1.01L47.509,45.913z M45.249,52.26l1.209,0.308l-4.74,1.069  L45.249,52.26z M40.21,54.224C40.21,54.224,40.21,54.224,40.21,54.224L47,52.69v-0.002c0.001,0,0.001,0,0.002,0l0.007-0.001  l0.121,0.334l-1.17,0.668l-9.015,1.56l0,0l-5.175,0.889L40.21,54.224z M36.997,55.485l9.024-1.562  c0.004-0.001,0.006-0.006,0.01-0.006c0.01-0.002,0.02-0.002,0.028-0.008l1.156-0.66l0.443,1.158l-13.83,2.306L36.997,55.485z   M47.172,52.404l-0.044-0.116l0.319,0.057L47.172,52.404z M47.937,54.46v-0.002l-0.547-1.422v-0.002l-0.145-0.4l0.849-0.187  c0.001,0,0.001,0,0.001,0l0.19-0.041c-0.003,0.027-0.001,0.057,0.016,0.081c0.022,0.035,0.061,0.054,0.1,0.054  c0.023,0,0.046-0.006,0.065-0.019l0.01-0.006l0.438,0.069l0,0l1.52,0.242c0.001,0,0.002,0,0.004,0.001l0,0l0.237,0.029l0.545,0.107  c0,0,0,0,0.001,0c0,0,0,0,0.001,0l0.424,0.076c0.002,0,0.003,0,0.005,0.001l5.101,0.81l-3.651,1.402c0,0-0.001,0-0.002,0  l-1.443,0.547l0,0L51.2,55.97l0,0h-0.001l-0.562,0.211h-0.001l-0.268,0.091c-0.002,0.001-0.002,0.001-0.003,0.001  c-0.001,0.001-0.002,0-0.003,0l-1.527,0.596L47.937,54.46z M40.877,75.487l-5.03,2.561L15.942,81.2L40.877,75.487z M78.777,88.299  l-1.57-0.536l5.576,1.28L78.777,88.299z M63.036,78.06l4.074,0.617l5.891,2.312L63.036,78.06z"></path></svg>