<svg fill="#00DCFF" xmlns="http://www.w3.org/2000/svg" xmlns:xlink="http://www.w3.org/1999/xlink" version="1.1" x="0px" y="0px" viewBox="0 0 100 100" enable-background="new 0 0 100 100" xml:space="preserve"><polygon points="33.737,31.188 33.737,37.297 37.263,37.297 43.854,37.297 45.394,37.297 45.394,31.188 45.394,25.05 40.938,25.05   38.022,25.05 34.527,25.05 33.737,25.05 "></polygon><path d="M24.752,43.914v-6.137h-0.507v12.261h0.629v-5.933C24.806,44.063,24.752,44.001,24.752,43.914z"></path><polygon points="26.828,37.297 29.627,37.297 29.627,31.188 29.627,25.05 25.522,25.05 21.421,25.05 21.421,37.297 24.004,37.297   24.991,37.297 25.522,37.297 "></polygon><polygon points="51.707,60.073 50.582,60.073 50.353,60.073 50.353,81.871 50.582,81.871 51.707,81.871 52.815,81.871   53.062,81.871 53.062,60.073 52.815,60.073 "></polygon><path d="M30.107,24.81v6.138h3.149V24.81c0-0.133,0.108-0.24,0.239-0.24h0.792v-5.883h-8.523v5.883h4.102  C29.999,24.569,30.107,24.677,30.107,24.81z"></path><polygon points="19.902,37.777 19.902,50.038 23.765,50.038 23.765,37.777 21.18,37.777 "></polygon><rect x="25.232" y="37.777" width="0.052" height="5.896"></rect><polygon points="25.765,43.674 26.418,43.674 26.589,43.674 26.589,37.777 25.765,37.777 "></polygon><polygon points="37.023,37.777 33.496,37.777 29.866,37.777 27.069,37.777 27.069,43.914 27.069,50.038 33.358,50.038   37.023,50.038 "></polygon><rect x="38.264" y="50.519" width="1.19" height="5.885"></rect><path d="M46.181,44.154h-2.327c-0.132,0-0.239-0.107-0.239-0.24v-6.137h-6.11v12.261h0.519h1.671h6.487V44.154z"></path><rect x="30.107" y="31.428" width="3.149" height="5.869"></rect><polygon points="33.6,50.519 33.6,62.781 37.783,62.781 37.783,56.644 37.783,50.519 37.263,50.519 "></polygon><path d="M47.761,50.278v-6.124h-1.1v6.124c0,0.133-0.107,0.24-0.241,0.24h-6.485v5.885h11.154v-5.885h-3.09  C47.868,50.519,47.761,50.411,47.761,50.278z"></path><polygon points="60.412,37.777 56.582,37.777 48.241,37.777 48.241,43.914 48.241,50.038 51.327,50.038 59.922,50.038   60.412,50.038 "></polygon><polygon points="61.849,31.188 61.849,37.297 70.112,37.297 70.675,37.297 71.177,37.297 71.439,37.297 71.439,25.05 69.933,25.05   62.624,25.05 61.849,25.05 "></polygon><rect x="62.866" y="18.687" width="6.827" height="5.883"></rect><path d="M71.418,43.914v6.124h0.872v-6.124c0-0.132,0.107-0.24,0.239-0.24c0.096,0,0.161,0.064,0.201,0.145v-6.041h-1.052h-0.261  V43.914z"></path><path d="M73.211,43.674h5.834h0.412v-6.137v-6.109h-0.991v6.109c0,0.132-0.107,0.24-0.241,0.24h-5.014V43.674z"></path><polygon points="77.985,37.297 77.985,31.188 77.985,25.05 71.92,25.05 71.92,37.297 72.97,37.297 "></polygon><rect x="48.136" y="25.05" width="0.218" height="5.897"></rect><rect x="38.264" y="18.687" width="2.435" height="5.883"></rect><path d="M44.095,43.674h2.325h1.341v-6.137c0-0.133,0.107-0.24,0.238-0.24h8.344v-5.869h-6.201h-1.549h-0.699h-2.02v6.109  c0,0.132-0.108,0.24-0.242,0.24h-1.537V43.674z"></path><polygon points="49.902,18.687 48.834,18.687 48.834,24.81 48.834,30.947 49.902,30.947 "></polygon><path d="M79.938,31.188v6.109h1.854h0.52V25.05h-3.846v5.897h1.23C79.83,30.947,79.938,31.056,79.938,31.188z"></path><path d="M60.62,30.947h0.748V24.81c0-0.133,0.107-0.24,0.239-0.24h0.778v-5.883H50.383v12.261h6.199H60.62z"></path><polygon points="60.893,37.777 60.893,50.038 69.218,50.038 69.874,50.038 69.874,37.777 61.607,37.777 "></polygon><rect x="60.862" y="31.428" width="0.506" height="5.869"></rect><rect x="82.033" y="37.777" width="0.431" height="12.261"></rect><rect x="69.459" y="50.519" width="0.234" height="12.263"></rect><rect x="56.823" y="31.428" width="3.559" height="5.869"></rect><polygon points="60.163,50.519 60.163,62.781 68.979,62.781 68.979,50.519 60.651,50.519 "></polygon><rect x="34.769" y="18.687" width="3.015" height="5.883"></rect><path d="M72.771,44.011v6.027h6.035v-5.884H72.97C72.876,44.154,72.808,44.09,72.771,44.011z"></path><polygon points="70.354,50.038 70.437,50.038 70.437,43.914 70.437,37.777 70.354,37.777 "></polygon><rect x="70.917" y="37.777" width="0.021" height="5.896"></rect><rect x="70.917" y="44.154" width="0.021" height="5.884"></rect></svg>