<svg fill="#00DCFF" xmlns="http://www.w3.org/2000/svg" xmlns:xlink="http://www.w3.org/1999/xlink" version="1.1" x="0px" y="0px" viewBox="0 0 100 100" enable-background="new 0 0 100 100" xml:space="preserve"><path d="M38.219,18.477h-5.756c-0.133,0-0.24,0.108-0.24,0.24v47.734c0,0.132,0.107,0.24,0.24,0.24h5.756  c0.133,0,0.24-0.108,0.24-0.24V18.717C38.459,18.585,38.352,18.477,38.219,18.477z M37.979,18.957v47.254h-5.275V18.957H37.979z"></path><path d="M27.513,18.477h-3.919c-0.132,0-0.24,0.108-0.24,0.24v47.734c0,0.132,0.108,0.24,0.24,0.24h3.919  c0.133,0,0.24-0.108,0.24-0.24V18.717C27.753,18.585,27.646,18.477,27.513,18.477z M27.272,18.957v47.254h-3.438V18.957H27.272z"></path><path d="M20.89,18.477h-1.381c-0.132,0-0.24,0.108-0.24,0.24v47.734c0,0.132,0.108,0.24,0.24,0.24h1.381  c0.132,0,0.24-0.108,0.24-0.24V18.717C21.13,18.585,21.021,18.477,20.89,18.477z M20.649,18.957v47.254h-0.9V18.957H20.649z"></path><path d="M82.825,18.477c-0.132,0-0.24,0.108-0.24,0.24v47.734c0,0.132,0.108,0.24,0.24,0.24c0.133,0,0.24-0.108,0.24-0.24V18.717  C83.065,18.585,82.958,18.477,82.825,18.477z"></path><path d="M81.442,18.477H78.74c-0.133,0-0.24,0.108-0.24,0.24v47.734c0,0.132,0.107,0.24,0.24,0.24h2.702  c0.133,0,0.24-0.108,0.24-0.24V18.717C81.683,18.585,81.575,18.477,81.442,18.477z M81.202,18.957v47.254H78.98V18.957H81.202z"></path><path d="M74.821,18.477h-4.936c-0.133,0-0.24,0.108-0.24,0.24v47.734c0,0.132,0.107,0.24,0.24,0.24h4.936  c0.133,0,0.24-0.108,0.24-0.24V18.717C75.062,18.585,74.954,18.477,74.821,18.477z M74.581,18.957v47.254h-4.455V18.957H74.581z"></path><path d="M64.113,18.477H57.78c-0.133,0-0.24,0.108-0.24,0.24v47.734c0,0.132,0.107,0.24,0.24,0.24h6.333  c0.132,0,0.24-0.108,0.24-0.24V18.717C64.354,18.585,64.245,18.477,64.113,18.477z M63.873,18.957v47.254h-5.853V18.957H63.873z"></path><path d="M52.753,43.582h-1.34V18.717c0-0.132-0.107-0.24-0.24-0.24h-6.635c-0.133,0-0.24,0.108-0.24,0.24v47.734  c0,0.132,0.107,0.24,0.24,0.24h4.801v15.691c0,0.132,0.108,0.24,0.24,0.24h0.455h1.139h1.111h0.469c0.132,0,0.24-0.108,0.24-0.24  V43.822C52.993,43.689,52.885,43.582,52.753,43.582z M52.513,44.062v38.08h-0.229h-1.111h-1.139h-0.215V66.691h0.215h1.139  c0.133,0,0.24-0.108,0.24-0.24V44.062H52.513z M44.778,66.211V18.957h6.154v47.254h-0.898h-0.455H44.778z"></path></svg>