<svg fill="#00DCFF" xmlns="http://www.w3.org/2000/svg" xmlns:xlink="http://www.w3.org/1999/xlink" version="1.1" x="0px" y="0px" viewBox="0 0 100 100" enable-background="new 0 0 100 100" xml:space="preserve"><path d="M51.836,26.597h4.451c0.132,0,0.24-0.107,0.24-0.24v-4.451c0-0.132-0.108-0.24-0.24-0.24h-0.824v-2.948  c0-0.132-0.107-0.24-0.24-0.24h-4.45c-0.133,0-0.24,0.108-0.24,0.24v4.45c0,0.132,0.107,0.24,0.24,0.24h0.823v2.949  C51.596,26.489,51.704,26.597,51.836,26.597z M51.013,22.927v-3.97h3.97v2.948v1.021h-3.146H51.013z M55.223,23.407  c0.133,0,0.24-0.108,0.24-0.24v-1.021h0.584v3.971h-3.971v-2.709H55.223z"></path><path d="M32.97,32.72v-4.451c0-0.132-0.107-0.24-0.24-0.24c-0.132,0-0.24,0.108-0.24,0.24v4.451c0,0.133,0.108,0.24,0.24,0.24  C32.862,32.96,32.97,32.853,32.97,32.72z"></path><path d="M36.661,28.269c0-0.132-0.107-0.24-0.24-0.24h-2.292h-0.183c-0.133,0-0.24,0.108-0.24,0.24v4.451  c0,0.133,0.107,0.24,0.24,0.24h0.183h2.292c0.133,0,0.24-0.107,0.24-0.24V28.269z M34.369,28.509h1.812v3.971h-1.812V28.509z"></path><path d="M47.201,32.72v-4.451c0-0.132-0.107-0.24-0.24-0.24h-4.448c-0.133,0-0.24,0.108-0.24,0.24v4.451  c0,0.133,0.107,0.24,0.24,0.24h4.448C47.094,32.96,47.201,32.853,47.201,32.72z M46.721,32.479h-3.968v-3.971h3.968V32.479z"></path><path d="M67.328,21.665h-1.306c-0.132,0-0.24,0.108-0.24,0.24v4.451c0,0.133,0.108,0.24,0.24,0.24h1.306  c0.133,0,0.24-0.107,0.24-0.24v-4.451C67.568,21.773,67.461,21.665,67.328,21.665z M67.088,22.146v3.971h-0.825v-3.971H67.088z"></path><path d="M65.294,66.211h-1.992h-3.265c-0.099,0-0.167,0.067-0.204,0.152c-0.037-0.085-0.105-0.152-0.204-0.152h-3.996  c-0.132,0-0.24,0.107-0.24,0.24v4.465c0,0.132,0.108,0.24,0.24,0.24h3.996c0.099,0,0.167-0.068,0.204-0.152  c0.037,0.084,0.105,0.152,0.204,0.152h3.265h1.992c0.133,0,0.24-0.108,0.24-0.24v-4.465C65.534,66.318,65.427,66.211,65.294,66.211z   M63.062,70.676h-2.784v-3.984h2.784V70.676z M63.542,66.691h1.512v3.984h-1.512V66.691z M59.389,66.691v3.984h-3.516v-3.984H59.389  z"></path><path d="M69.136,26.597c0.132,0,0.24-0.107,0.24-0.24v-4.451c0-0.132-0.108-0.24-0.24-0.24c-0.133,0-0.24,0.108-0.24,0.24v4.451  C68.896,26.489,69.003,26.597,69.136,26.597z"></path><path d="M70.396,66.211h-1.655c-0.132,0-0.24,0.107-0.24,0.24v4.465c0,0.132,0.108,0.24,0.24,0.24h1.655  c0.132,0,0.24-0.108,0.24-0.24v-4.465C70.637,66.318,70.528,66.211,70.396,66.211z M70.156,66.691v3.984h-1.175v-3.984H70.156z"></path><path d="M64.82,64.808h3.86c0.133,0,0.24-0.107,0.24-0.24v-4.463c0-0.133-0.107-0.24-0.24-0.24h-3.86c-0.132,0-0.24,0.107-0.24,0.24  v4.463C64.58,64.7,64.688,64.808,64.82,64.808z M65.061,64.327v-3.982h3.38v3.982H65.061z"></path><path d="M56.527,39.083v-4.435c0-0.132-0.108-0.24-0.24-0.24h-4.421c-0.132,0-0.24,0.108-0.24,0.24v4.435  c0,0.133,0.108,0.24,0.24,0.24h4.421C56.419,39.323,56.527,39.216,56.527,39.083z M56.047,38.843h-3.94v-3.954h3.94V38.843z"></path><path d="M67.491,51.826v-4.465c0-0.133-0.107-0.24-0.24-0.24h-3.75c-0.133,0-0.24,0.107-0.24,0.24v4.465  c0,0.132,0.107,0.24,0.24,0.24h3.75C67.384,52.066,67.491,51.958,67.491,51.826z M67.011,51.586h-3.27v-3.984h3.27V51.586z"></path><path d="M54.541,45.703h4.343c0.133,0,0.24-0.108,0.24-0.24v-4.466c0-0.133-0.107-0.24-0.24-0.24h-4.343  c-0.133,0-0.24,0.107-0.24,0.24v4.466C54.301,45.595,54.408,45.703,54.541,45.703z M54.781,45.223v-3.985h3.862v3.985H54.781z"></path><path d="M40.595,58.189v-4.45c0-0.132-0.108-0.24-0.24-0.24H35.89c-0.133,0-0.24,0.108-0.24,0.24v4.45c0,0.132,0.107,0.24,0.24,0.24  h4.465C40.486,58.43,40.595,58.321,40.595,58.189z M40.114,53.979v3.97H36.13v-3.97H40.114z"></path><path d="M79.479,45.703c0.132,0,0.24-0.108,0.24-0.24v-4.466c0-0.133-0.108-0.24-0.24-0.24h-1.217c-0.132,0-0.24,0.107-0.24,0.24  v4.466c0,0.132,0.108,0.24,0.24,0.24H79.479z M78.502,45.223v-3.985h0.736v3.985H78.502z"></path><path d="M76.211,53.499h-2.672c-0.132,0-0.24,0.108-0.24,0.24v4.45c0,0.132,0.108,0.24,0.24,0.24h2.672  c0.133,0,0.24-0.108,0.24-0.24v-4.45C76.451,53.607,76.344,53.499,76.211,53.499z M75.971,53.979v3.97h-2.191v-3.97H75.971z"></path><path d="M43.469,18.477h-3.63h-0.865h-0.199c-0.133,0-0.24,0.108-0.24,0.24v4.45c0,0.132,0.107,0.24,0.24,0.24h0.199h0.093v2.949  c0,0.133,0.107,0.24,0.24,0.24h4.177h1.898c0.132,0,0.24-0.107,0.24-0.24v-4.451c0-0.132-0.108-0.24-0.24-0.24h-1.673v-2.948  C43.709,18.585,43.602,18.477,43.469,18.477z M40.079,21.665v-2.708h3.149v2.708H40.079z M39.599,21.665h-0.292  c-0.036,0-0.062,0.025-0.093,0.039v-2.747h0.385V21.665z M39.547,23.167v-1.021h0.292h3.404v3.971h-3.696V23.167z M43.724,22.146  h1.418v3.971h-1.418V22.146z"></path><path d="M23.769,58.189v-4.45c0-0.132-0.107-0.24-0.24-0.24h-0.396c-0.132,0-0.24,0.108-0.24,0.24v4.45  c0,0.132,0.108,0.24,0.24,0.24h0.396C23.661,58.43,23.769,58.321,23.769,58.189z"></path><path d="M28.569,39.323c0.133,0,0.24-0.107,0.24-0.24v-4.435c0-0.132-0.107-0.24-0.24-0.24h-0.668c-0.132,0-0.24,0.108-0.24,0.24  v4.435c0,0.133,0.108,0.24,0.24,0.24H28.569z M28.142,38.843v-3.954h0.188v3.954H28.142z"></path><path d="M23.892,59.864h-0.41c-0.133,0-0.24,0.107-0.24,0.24v4.463c0,0.133,0.107,0.24,0.24,0.24h0.41c0.133,0,0.24-0.107,0.24-0.24  v-4.463C24.132,59.972,24.024,59.864,23.892,59.864z"></path><path d="M23.251,45.463v-4.466c0-0.133-0.108-0.24-0.24-0.24c-0.133,0-0.24,0.107-0.24,0.24v4.466c0,0.132,0.107,0.24,0.24,0.24  C23.143,45.703,23.251,45.595,23.251,45.463z"></path><path d="M25.457,53.499c-0.132,0-0.24,0.108-0.24,0.24v4.45c0,0.132,0.108,0.24,0.24,0.24h2.292c0.133,0,0.24-0.108,0.24-0.24v-4.45  c0-0.132-0.107-0.24-0.24-0.24H25.457z M27.509,53.979v3.97h-1.812v-3.97H27.509z"></path><path d="M25.14,40.997v4.466c0,0.132,0.107,0.24,0.24,0.24h2.461h1.519c0.133,0,0.24-0.108,0.24-0.24v-4.466  c0-0.133-0.107-0.24-0.24-0.24h-1.519H25.38C25.247,40.757,25.14,40.864,25.14,40.997z M28.081,41.237h1.038v3.985h-1.038V41.237z   M27.601,45.223h-1.98v-3.985h1.98V45.223z"></path><path d="M36.862,39.323h4.281c0.057,0,0.104-0.027,0.145-0.06c0.041,0.032,0.088,0.06,0.145,0.06h4.467  c0.133,0,0.24-0.107,0.24-0.24v-4.435c0-0.132-0.107-0.24-0.24-0.24h-4.467c-0.057,0-0.104,0.027-0.145,0.06  c-0.041-0.032-0.088-0.06-0.145-0.06h-4.281c-0.133,0-0.24,0.108-0.24,0.24v4.435C36.622,39.216,36.729,39.323,36.862,39.323z   M37.103,38.843v-3.954h3.801v3.954H37.103z M41.673,38.843v-3.954h3.986v3.954H41.673z"></path><path d="M34.296,53.499h-3.373c-0.133,0-0.24,0.108-0.24,0.24v4.45c0,0.132,0.107,0.24,0.24,0.24h3.373  c0.132,0,0.24-0.108,0.24-0.24v-4.45C34.536,53.607,34.428,53.499,34.296,53.499z M34.056,53.979v3.97h-2.893v-3.97H34.056z"></path><path d="M38.987,52.066h4.116c0.132,0,0.24-0.108,0.24-0.24v-4.465c0-0.133-0.108-0.24-0.24-0.24h-4.116  c-0.132,0-0.24,0.107-0.24,0.24v4.465C38.747,51.958,38.855,52.066,38.987,52.066z M39.228,51.586v-3.984h3.636v3.984H39.228z"></path><path d="M65.017,23.167v-4.45c0-0.132-0.108-0.24-0.24-0.24h-2.309c-0.133,0-0.24,0.108-0.24,0.24v4.45  c0,0.132,0.107,0.24,0.24,0.24h2.309C64.908,23.407,65.017,23.299,65.017,23.167z M64.536,22.927h-1.828v-3.97h1.828V22.927z"></path><path d="M58.745,59.864c-0.132,0-0.24,0.107-0.24,0.24v4.463c0,0.133,0.108,0.24,0.24,0.24h3.996c0.133,0,0.24-0.107,0.24-0.24  v-4.463c0-0.133-0.107-0.24-0.24-0.24H58.745z M62.501,60.345v3.982h-3.516v-3.982H62.501z"></path><path d="M69.694,39.083v-4.435c0-0.132-0.107-0.24-0.24-0.24h-3.447c-0.133,0-0.24,0.108-0.24,0.24v4.435  c0,0.133,0.107,0.24,0.24,0.24h3.447C69.587,39.323,69.694,39.216,69.694,39.083z M69.214,38.843h-2.967v-3.954h2.967V38.843z"></path><path d="M76.743,47.121h-1.987c-0.133,0-0.24,0.107-0.24,0.24v4.465c0,0.132,0.107,0.24,0.24,0.24h1.987  c0.133,0,0.24-0.108,0.24-0.24v-4.465C76.983,47.229,76.876,47.121,76.743,47.121z M76.503,47.602v3.984h-1.507v-3.984H76.503z"></path><path d="M74.099,32.72v-4.451c0-0.132-0.108-0.24-0.24-0.24h-1.761c-0.085,0-0.147,0.052-0.189,0.119  c-0.042-0.067-0.104-0.119-0.19-0.119h-1.626h-2.109c-0.133,0-0.24,0.108-0.24,0.24v4.451c0,0.133,0.107,0.24,0.24,0.24h2.109h1.626  c0.086,0,0.148-0.052,0.19-0.118c0.042,0.066,0.104,0.118,0.189,0.118h1.761C73.99,32.96,74.099,32.853,74.099,32.72z   M69.852,32.479h-1.629v-3.971h1.629V32.479z M70.332,28.509h1.146v3.971h-1.146V28.509z M73.618,32.479h-1.28v-3.971h1.28V32.479z"></path><path d="M74.587,39.323h0.183c0.133,0,0.24-0.107,0.24-0.24v-4.435c0-0.132-0.107-0.24-0.24-0.24h-0.183  c-0.133,0-0.24,0.108-0.24,0.24v4.435C74.347,39.216,74.454,39.323,74.587,39.323z"></path><path d="M58.05,23.407h3.143c0.133,0,0.24-0.108,0.24-0.24v-4.45c0-0.132-0.107-0.24-0.24-0.24H58.05c-0.133,0-0.24,0.108-0.24,0.24  v4.45C57.81,23.299,57.917,23.407,58.05,23.407z M58.29,22.927v-3.97h2.662v3.97H58.29z"></path><path d="M58.944,39.323h3.858c0.132,0,0.24-0.107,0.24-0.24v-4.435c0-0.132-0.108-0.24-0.24-0.24h-3.858  c-0.132,0-0.24,0.108-0.24,0.24v4.435C58.704,39.216,58.812,39.323,58.944,39.323z M59.185,38.843v-3.954h3.378v3.954H59.185z"></path><path d="M52.565,32.96h4.04c0.133,0,0.24-0.107,0.24-0.24v-4.451c0-0.132-0.107-0.24-0.24-0.24h-4.04c-0.133,0-0.24,0.108-0.24,0.24  v4.451C52.325,32.853,52.433,32.96,52.565,32.96z M52.806,32.479v-3.971h3.56v3.971H52.806z"></path><path d="M55.419,60.104c0-0.133-0.108-0.24-0.24-0.24h-3.554c-0.07,0-0.13,0.032-0.175,0.082c-0.044-0.05-0.104-0.082-0.174-0.082  h-0.108h-1.125h-1.122h-0.485H46.9h-2.977h-3.19c-0.132,0-0.24,0.107-0.24,0.24v4.463c0,0.133,0.108,0.24,0.24,0.24h3.19H46.9h1.295  v17.575c0,0.132,0.107,0.24,0.24,0.24h0.485h1.122h1.125h0.457c0.133,0,0.24-0.108,0.24-0.24V64.808h3.313  c0.132,0,0.24-0.107,0.24-0.24V60.104z M51.168,82.143h-1.125h-1.122h-0.245V64.808h0.245h1.122h1.125h0.108  c0.042,0,0.073-0.025,0.108-0.045v17.38H51.168z M47.141,64.327v-3.982h1.295h0.485h1.122h0.993v3.982h-0.993h-1.122h-0.485H47.141z   M43.684,64.327h-2.71v-3.982h2.71V64.327z M44.164,60.345h2.496v3.982h-2.496V60.345z M51.865,60.345h3.073v3.982h-3.073V60.345z"></path><path d="M31,34.408c-0.132,0-0.24,0.108-0.24,0.24v4.435c0,0.133,0.108,0.24,0.24,0.24h0.698c0.133,0,0.24-0.107,0.24-0.24v-4.435  c0-0.132-0.107-0.24-0.24-0.24H31z M31.458,34.889v3.954H31.24v-3.954H31.458z"></path><path d="M33.581,52.066h3.646c0.133,0,0.24-0.108,0.24-0.24v-4.465c0-0.133-0.107-0.24-0.24-0.24h-3.646  c-0.133,0-0.24,0.107-0.24,0.24v4.465C33.341,51.958,33.448,52.066,33.581,52.066z M33.821,51.586v-3.984h3.166v3.984H33.821z"></path><path d="M33.4,59.864h-2.342c-0.041,0-0.071,0.025-0.105,0.043c-0.034-0.018-0.064-0.043-0.105-0.043h-2.264  c-0.133,0-0.24,0.107-0.24,0.24v4.463c0,0.133,0.107,0.24,0.24,0.24h2.264c0.041,0,0.071-0.025,0.105-0.043  c0.034,0.018,0.064,0.043,0.105,0.043H33.4c0.132,0,0.24-0.107,0.24-0.24v-4.463C33.641,59.972,33.532,59.864,33.4,59.864z   M30.607,64.327h-1.783v-3.982h1.783V64.327z M31.299,60.345h1.861v3.982h-1.861V60.345z"></path><path d="M28.021,59.864h-3.296c-0.132,0-0.24,0.107-0.24,0.24v4.463c0,0.133,0.108,0.24,0.24,0.24h3.296  c0.132,0,0.24-0.107,0.24-0.24v-4.463C28.262,59.972,28.153,59.864,28.021,59.864z M27.781,60.345v3.982h-2.815v-3.982H27.781z"></path><path d="M19.532,47.121c-0.133,0-0.24,0.107-0.24,0.24v4.465c0,0.132,0.107,0.24,0.24,0.24s0.24-0.108,0.24-0.24v-4.465  C19.772,47.229,19.665,47.121,19.532,47.121z"></path><path d="M22.01,40.757h-1.84c-0.133,0-0.24,0.107-0.24,0.24v4.466c0,0.132,0.107,0.24,0.24,0.24h1.84c0.132,0,0.24-0.108,0.24-0.24  v-4.466C22.25,40.864,22.142,40.757,22.01,40.757z M21.77,41.237v3.985H20.41v-3.985H21.77z"></path><path d="M28.865,52.051c0.014,0.003,0.023,0.016,0.037,0.016h4.071c0.133,0,0.24-0.108,0.24-0.24v-4.465  c0-0.133-0.107-0.24-0.24-0.24h-4.071c-0.014,0-0.023,0.013-0.037,0.015c-0.015-0.002-0.023-0.015-0.038-0.015h-3.508  c-0.133,0-0.24,0.107-0.24,0.24v4.465c0,0.132,0.107,0.24,0.24,0.24h3.508C28.842,52.066,28.851,52.054,28.865,52.051z   M29.143,47.602h3.591v3.984h-3.591V47.602z M28.587,51.586H25.56v-3.984h3.027V51.586z"></path><path d="M43.331,58.43h4.192c0.133,0,0.24-0.108,0.24-0.24v-4.45c0-0.132-0.107-0.24-0.24-0.24h-4.192  c-0.133,0-0.24,0.108-0.24,0.24v4.45C43.091,58.321,43.198,58.43,43.331,58.43z M43.571,57.949v-3.97h3.712v3.97H43.571z"></path><path d="M52.761,45.463v-4.466c0-0.133-0.107-0.24-0.24-0.24h-2.217h-4.421c-0.132,0-0.24,0.107-0.24,0.24v4.466  c0,0.132,0.108,0.24,0.24,0.24h4.421h2.217C52.653,45.703,52.761,45.595,52.761,45.463z M50.063,45.223h-3.94v-3.985h3.94V45.223z   M50.544,41.237h1.736v3.985h-1.736V41.237z"></path><path d="M63.619,58.189v-4.45c0-0.132-0.107-0.24-0.24-0.24h-3.356h-4.146c-0.133,0-0.24,0.108-0.24,0.24v4.45  c0,0.132,0.107,0.24,0.24,0.24h4.146h3.356C63.512,58.43,63.619,58.321,63.619,58.189z M59.782,57.949h-3.665v-3.97h3.665V57.949z   M60.263,53.979h2.876v3.97h-2.876V53.979z"></path><path d="M71.565,47.121h-1.656c-0.133,0-0.24,0.107-0.24,0.24v4.465c0,0.132,0.107,0.24,0.24,0.24h1.656  c0.133,0,0.24-0.108,0.24-0.24v-4.465C71.806,47.229,71.698,47.121,71.565,47.121z M71.325,47.602v3.984h-1.176v-3.984H71.325z"></path><path d="M77.746,40.757h-1.078h-3.447c-0.133,0-0.24,0.107-0.24,0.24v4.466c0,0.132,0.107,0.24,0.24,0.24h3.447h1.078  c0.133,0,0.24-0.108,0.24-0.24v-4.466C77.986,40.864,77.879,40.757,77.746,40.757z M76.428,45.223h-2.967v-3.985h2.967V45.223z   M76.908,41.237h0.598v3.985h-0.598V41.237z"></path><path d="M82.272,47.121h-3.16c-0.132,0-0.24,0.107-0.24,0.24v4.465c0,0.132,0.108,0.24,0.24,0.24h3.16c0.132,0,0.24-0.108,0.24-0.24  v-4.465C82.513,47.229,82.404,47.121,82.272,47.121z M82.032,47.602v3.984h-2.68v-3.984H82.032z"></path><path d="M71.247,53.499h-2.4c-0.132,0-0.24,0.108-0.24,0.24v4.45c0,0.132,0.108,0.24,0.24,0.24h2.4c0.133,0,0.24-0.108,0.24-0.24  v-4.45C71.487,53.607,71.38,53.499,71.247,53.499z M71.007,53.979v3.97h-1.92v-3.97H71.007z"></path><path d="M67.298,40.757h-2.794c-0.132,0-0.24,0.107-0.24,0.24v4.466c0,0.132,0.108,0.24,0.24,0.24h2.794  c0.133,0,0.24-0.108,0.24-0.24v-4.466C67.538,40.864,67.431,40.757,67.298,40.757z M67.058,41.237v3.985h-2.313v-3.985H67.058z"></path><path d="M40.109,45.463v-4.466c0-0.133-0.108-0.24-0.24-0.24h-4.011h-1.152c-0.133,0-0.24,0.107-0.24,0.24v4.466  c0,0.132,0.107,0.24,0.24,0.24h1.152h4.011C40.001,45.703,40.109,45.595,40.109,45.463z M35.618,45.223h-0.672v-3.985h0.672V45.223z   M36.099,41.237h3.53v3.985h-3.53V41.237z"></path><path d="M48.921,52.066h1.122h1.125h0.457h0.455c0.132,0,0.24-0.108,0.24-0.24v-4.465c0-0.133-0.108-0.24-0.24-0.24h-4.451  c-0.132,0-0.24,0.107-0.24,0.24v4.465c0,0.132,0.108,0.24,0.24,0.24h0.807H48.921z M47.869,51.586v-3.984h3.971v3.984h-0.215h-0.457  h-1.125h-1.122h-0.485H47.869z"></path><path d="M81.119,53.499h-2.675c-0.132,0-0.24,0.108-0.24,0.24v4.45c0,0.132,0.108,0.24,0.24,0.24h2.675  c0.132,0,0.24-0.108,0.24-0.24v-4.45C81.359,53.607,81.251,53.499,81.119,53.499z M80.879,53.979v3.97h-2.194v-3.97H80.879z"></path></svg>