<svg fill="#00DCFF" xmlns="http://www.w3.org/2000/svg" xmlns:xlink="http://www.w3.org/1999/xlink" version="1.1" x="0px" y="0px" viewBox="0 0 100 100" enable-background="new 0 0 100 100" xml:space="preserve"><path d="M85.5966797,35.5058594c0-4.961731-14.1600342-8.9232788-32.9677124-9.4671021l2.644043-2.9217529  c8.8511963-0.7473755,15.0809937-2.8685303,15.0809937-5.4358521c0-3.2104492-9.7373047-5.7250977-22.1674805-5.7250977  S26.019043,14.4707031,26.019043,17.6811523c0,2.7163696,6.9714966,4.9344482,16.6461792,5.5530396l2.6311035,2.7682495  c-19.5758667,0.3648682-34.5204468,4.4061279-34.5204468,9.503418c0,4.7387085,12.916748,8.5646973,30.4619141,9.3730469  L47.25,60.6605225v29.479126c0,0.1381836,0.1118164,0.25,0.25,0.25s0.25-0.1118164,0.25-0.25V67.6741333l5.2861328-7.3230591  c0.0126953-0.0180664,0.0234375-0.0371094,0.03125-0.0576172l5.9428101-15.6464844  C74.5488892,43.4904785,85.5966797,39.8883667,85.5966797,35.5058594z M51.9715576,26.0192871  c-1.2431641-0.0304565-2.5053101-0.0466309-3.7850342-0.0466309c-0.1465454,0-0.2904663,0.0022583-0.4365234,0.0026855v-2.5713501  c0.145752,0.0006714,0.289978,0.0027466,0.4365234,0.0027466c2.2196045,0,4.3510132-0.081543,6.3587646-0.2315674  L51.9715576,26.0192871z M47.25,27.3320313l-0.8065186-0.8485718c0.2674561-0.0030518,0.5376587-0.0032959,0.8065186-0.0050049  V27.3320313z M47.75,26.4753418c0.1459961-0.0004272,0.2901611-0.0026855,0.4365234-0.0026855  c1.1263428,0,2.2387085,0.0144653,3.3396606,0.0387573L47.75,30.6842041V26.4753418z M26.519043,17.6811523  c0-2.5234375,8.706543-5.2250977,21.6674805-5.2250977s21.6674805,2.7016602,21.6674805,5.2250977  c0,2.0385742-5.6864624,4.1921387-14.7036743,4.9450684c-0.0047607,0.0001221-0.0083618,0.0009155-0.0131836,0.0012817  c-2.1408081,0.1783447-4.4656372,0.2792358-6.9506226,0.2792358C35.2255859,22.9067383,26.519043,20.2045898,26.519043,17.6811523z   M43.3955688,23.2767334c1.2460327,0.0683594,2.5332642,0.1105347,3.8544312,0.1240845v2.5776367  c-0.4267578,0.0025635-0.8532104,0.005249-1.2758789,0.0112305L43.3955688,23.2767334z M41.7814941,44.9030151  c1.77948,0.0751953,3.6049194,0.1190796,5.4685059,0.130249v14.2241821L41.7814941,44.9030151z M52.6113281,60.0849609  L47.75,66.8197021V45.036377c0.1460571,0.0004272,0.289978,0.0026855,0.4365234,0.0026855  c3.5780029,0,7.0189819-0.1244507,10.2735596-0.3530884L52.6113281,60.0849609z M48.1865234,44.5390625  c-20.3525391,0-36.9106445-4.0522461-36.9106445-9.0332031c0-4.7815552,15.2614746-8.7049561,34.487915-9.0115967  l1.4613037,1.5374756c0.0067749,0.0071411,0.0175171,0.0045776,0.0249023,0.0106812v7.1240845c0,0.1381836,0.1118164,0.25,0.25,0.25  s0.25-0.1118164,0.25-0.25v-3.7362671l4.4375-4.9035645c18.4770508,0.4898071,32.9091797,4.3291626,32.9091797,8.979187  C85.0966797,40.4868164,68.5390625,44.5390625,48.1865234,44.5390625z"></path></svg>