<svg fill="#00DCFF" xmlns="http://www.w3.org/2000/svg" xmlns:xlink="http://www.w3.org/1999/xlink" version="1.1" x="0px" y="0px" viewBox="0 0 100 100" style="enable-background:new 0 0 100 100;" xml:space="preserve"><polygon points="92.4,22.2 92.9,23.1 91.6,24 "></polygon><polygon points="92,22.2 91.1,24.2 89.4,23.8 "></polygon><polygon points="89.1,24.2 90.7,24.5 89.1,25.5 "></polygon><polygon points="87.9,30.1 87.2,28.1 88.6,28.5 "></polygon><polygon points="92.1,28.5 93.1,28.9 92.7,29.9 "></polygon><polygon points="95.7,30.8 95.5,30.7 95.9,30.2 "></polygon><polygon points="95.1,30.6 93.5,30.3 95.8,29.7 "></polygon><polygon points="93.6,25.7 94.5,26.3 93.6,28 "></polygon><polygon points="93.5,29 95.4,29.4 93,30 "></polygon><polygon points="93.2,26 93.2,28.5 92.1,28.1 "></polygon><polygon points="91.7,28.5 92.5,30.2 88.6,30.3 "></polygon><polygon points="89,28.5 91,28.5 88.3,30.1 "></polygon><polygon points="87.3,26.3 88.7,26.1 88.7,27.9 "></polygon><polygon points="87.4,23.5 88.7,24 88.7,25.3 "></polygon><polygon points="88.7,23.6 87.2,22.9 88.8,20.9 "></polygon><polygon points="87.1,20.6 88.6,20.6 87.1,22.5 "></polygon><polygon points="87.1,23.6 88.6,25.7 87.1,25.9 "></polygon><polygon points="87.1,26.6 88.3,28 87,27.7 "></polygon><polygon points="86.8,28.1 87.6,30.3 83.8,29.7 "></polygon><polygon points="87.3,30.7 84.4,32.2 83.6,30 "></polygon><polygon points="83.4,32.2 83.5,32.2 83.4,32.2 83.4,30.7 84.1,32.3 83.4,32.3 "></polygon><polygon points="83.4,32.6 84.1,32.7 83.2,34.2 "></polygon><polygon points="84,13.8 84.1,13.8 84,14.1 "></polygon><polygon points="83.2,18.8 84,18.3 84.5,18.8 "></polygon><polygon points="86.5,18.7 85.6,18.7 86.5,18.1 "></polygon><polygon points="85.9,17.5 86.4,17.8 85.5,18.4 "></polygon><polygon points="84.9,18.7 84.3,18.1 85.5,17.6 "></polygon><polygon points="84.9,17.4 84,17.8 83.7,17.5 "></polygon><polygon points="83.7,18 82.5,18.8 82.1,19 83.3,17.6 "></polygon><polygon points="83.2,16.9 82.3,16.1 83.5,15.7 "></polygon><polygon points="83.6,15.2 82.7,14.8 83.7,14 "></polygon><polygon points="82.9,13.4 83.5,13.6 82.7,14.3 "></polygon><polygon points="82.4,15.1 83.2,15.4 82.3,15.7 "></polygon><polygon points="82.1,16.3 82.7,17 81.9,16.9 "></polygon><polygon points="81.8,17.3 82.9,17.4 81.7,18.9 "></polygon><polygon points="81.5,17.3 81.3,18.9 80.5,17.7 "></polygon><polygon points="81.2,19.3 80.6,19.5 80.5,18.3 "></polygon><polygon points="80.3,19.7 79.5,20 80.1,18.3 "></polygon><polygon points="79.9,17.9 79.2,19.6 79.1,18.3 "></polygon><polygon points="75.7,10.7 75.8,10.8 75.5,11.1 "></polygon><polygon points="75.1,10 75.4,10.4 74.9,11.4 "></polygon><polygon points="73.9,12.7 73.4,12 74.2,12.3 "></polygon><polygon points="74.7,10.1 74.5,11.7 74,10.8 "></polygon><polygon points="73.7,11.1 74.1,11.9 73.2,11.5 "></polygon><polygon points="73.6,12.9 73.3,13.3 73.2,12.3 "></polygon><polygon points="63.1,20.5 63.3,20.8 63,20.9 "></polygon><polygon points="52,11.9 51.3,12.9 51.7,11.7 "></polygon><polygon points="51.4,11.4 51,12.8 50.9,11 "></polygon><polygon points="49.3,6.5 50,7.2 49,7.5 "></polygon><polygon points="49.8,7.7 48.6,9 48.9,8 "></polygon><polygon points="48.8,6.8 48.6,7.7 48.1,7.7 "></polygon><polygon points="48.5,8 48.2,9.1 47.9,8.1 "></polygon><polygon points="47.6,8.3 48,9.4 46.7,9.2 "></polygon><polygon points="47.9,9.8 46.8,10.9 46.6,9.6 "></polygon><polygon points="46.4,10.7 46.5,11.3 46.4,11.7 "></polygon><polygon points="41.9,6.9 42.4,7.7 41.7,8.1 "></polygon><polygon points="36.1,4.8 36.2,5.6 35.4,5.4 "></polygon><polygon points="35.6,5.8 36.2,6 36.4,6.8 "></polygon><polygon points="36.5,5 37.3,6 36.6,5.7 "></polygon><polygon points="36.6,6.2 37.5,6.5 36.8,7.3 "></polygon><polygon points="37,7.7 37.7,6.8 37.9,8.9 "></polygon><polygon points="21.3,12.2 21.5,12.3 21.1,13 "></polygon><polygon points="20.6,11.7 21,12 20.5,13.3 "></polygon><polygon points="10.7,21.6 10.9,22 9.8,22 "></polygon><polygon points="9.2,22.3 10.7,22.4 9.7,23.6 "></polygon><polygon points="9.8,24 10.7,23 10.2,24.9 "></polygon><polygon points="10.2,25.7 10.7,26 9.4,26.2 "></polygon><polygon points="9.3,25.8 8.3,26.4 6.8,26 "></polygon><polygon points="3.6,23.9 4.3,24.7 2.9,24.6 "></polygon><polygon points="2.9,25 4.5,25.1 4.1,26.4 "></polygon><polygon points="3.8,27.4 3.5,28.1 2.6,28.3 "></polygon><polygon points="2.6,29.8 2,28.9 3.3,28.5 "></polygon><polygon points="3.2,29.5 3.7,28.4 4.6,28.4 "></polygon><polygon points="3.9,28 4.2,27.2 4.8,28 "></polygon><polygon points="4.4,26.8 4.7,25.8 4.9,27.5 "></polygon><polygon points="5.2,27.1 5,25.5 5.4,25.9 5.3,26 5.4,26 5.4,26 "></polygon><polygon points="5.8,26.2 7.9,26.7 5.4,27.9 "></polygon><polygon points="7.9,27.7 6.2,27.9 8.1,27 "></polygon><polygon points="8.3,27.7 8.6,26.9 10.3,27.5 "></polygon><polygon points="11,27.3 9.1,26.7 11.2,26.3 "></polygon><polygon points="10.4,25.4 11,23.3 11.2,25.8 "></polygon><polygon points="18.6,17.9 17.5,16.1 18.9,16.3 "></polygon><polygon points="20.2,11.9 20.1,14.2 18.7,14.3 "></polygon><polygon points="20,14.6 19.2,15.8 18.6,14.7 "></polygon><polygon points="18.8,15.9 17.5,15.7 18.3,14.8 "></polygon><polygon points="16.3,9.2 16.5,9.8 15.9,9.3 "></polygon><polygon points="15.1,9.7 15.4,9.5 15.6,10.9 "></polygon><polygon points="15.8,9.7 16.7,10.5 16,11.8 "></polygon><polygon points="16.9,10.9 17.9,13.9 16.1,12.3 "></polygon><polygon points="16.3,13 18.1,14.5 17.2,15.5 "></polygon><polygon points="17.2,16.3 18.2,18 16.9,17.6 "></polygon><polygon points="16.8,18 18.3,18.4 16.3,20.3 "></polygon><polygon points="18.3,18.9 17.6,22.1 16.2,20.9 "></polygon><polygon points="15.9,24.6 15.5,25.6 15.3,23.7 "></polygon><polygon points="15.5,23.2 16.6,23.5 16.1,24.2 "></polygon><polygon points="15.6,26.5 17.5,26.8 15.8,27.5 "></polygon><polygon points="16.2,30.6 15.4,29.3 15.7,28.5 "></polygon><polygon points="15.7,26.1 16.2,24.9 17.7,26.4 "></polygon><polygon points="16.4,24.5 16.9,23.8 17.7,25.9 "></polygon><polygon points="17.2,23.7 17.7,23.8 17.8,25.4 "></polygon><polygon points="17.6,22.9 17,22.1 17.5,22.6 "></polygon><polygon points="16,21.3 17.4,23.3 16.9,23.2 15.3,22.8 "></polygon><polygon points="15.6,20.8 14.3,21.5 14.9,20.1 "></polygon><polygon points="14.4,19.6 13.5,19.5 13.4,18.6 "></polygon><polygon points="12.8,16.6 12.9,17.5 11.9,16.4 "></polygon><polygon points="12.8,16.2 11.6,16 12.5,13.8 "></polygon><polygon points="7,17.8 8.3,17.8 7,18.2 "></polygon><polygon points="7,19.1 7,18.7 8,19.1 "></polygon><polygon points="9,19 7.4,18.5 9.1,17.9 "></polygon><polygon points="9.5,17.8 10.9,17.8 9.4,18.9 "></polygon><polygon points="11.3,19.1 9.8,19.1 11.3,18 "></polygon><polygon points="11.3,13.4 12.4,13.3 11.5,15.4 "></polygon><polygon points="12.5,17.7 11.7,17.5 11.6,16.7 "></polygon><polygon points="11.7,17.9 12.7,18.2 11.6,18.9 "></polygon><polygon points="13,18.4 13.2,19.5 11.9,19.2 "></polygon><polygon points="12,19.6 13.2,19.9 13.6,21.2 "></polygon><polygon points="13.6,19.9 14.6,20 14,21.3 "></polygon><polygon points="15,22.6 14.3,21.9 15.6,21.3 "></polygon><polygon points="15.3,26.6 15.4,27.6 13.4,27.9 "></polygon><polygon points="14.7,26.2 13,26.5 12.5,25.3 "></polygon><polygon points="12,25 12.5,26.3 11.6,25.9 11.4,23.5 "></polygon><polygon points="11.3,27.5 11.5,26.6 12.2,27.9 "></polygon><polygon points="12.5,27.7 11.8,26.5 12.7,26.8 "></polygon><polygon points="13,26.9 14.6,26.6 12.9,27.8 "></polygon><polygon points="13.4,28.3 15.4,28 15.1,29.1 "></polygon><polygon points="15.2,29.6 16.2,31.4 13.9,30.4 "></polygon><polygon points="11.2,31.5 9.2,32.2 10.1,31.1 "></polygon><polygon points="7.6,32 8,30.7 8.4,32.3 "></polygon><polygon points="8.2,30.4 9.8,30.9 8.7,32.2 "></polygon><polygon points="9.2,32.6 11.4,31.8 10.8,33.2 "></polygon><polygon points="10.9,34 11.1,34.7 10.3,35.1 "></polygon><polygon points="10.2,35.6 11.1,35.1 11.3,36.5 10.2,35.7 10.4,35.6 "></polygon><polygon points="10,36.3 10.7,37.6 9.9,37.2 "></polygon><polygon points="6.4,35.5 8.1,35.7 6.3,35.9 "></polygon><polygon points="6.3,36.8 6.3,36.4 7,36.9 "></polygon><polygon points="7.8,36.9 6.7,36.2 9.2,35.9 "></polygon><polygon points="8.4,37 9.6,36 9.6,37.1 "></polygon><polygon points="9.2,39.7 9.7,38 10.2,40 "></polygon><polygon points="10.5,39.6 10,37.7 10.9,38.2 "></polygon><polygon points="11.1,37.6 10.4,36.3 11.3,37 "></polygon><polygon points="11.2,33.7 12.3,34.1 11.4,34.5 "></polygon><polygon points="11.6,36.3 11.5,34.9 12.5,34.5 "></polygon><polygon points="12.8,33.9 11.8,33.5 13.9,33.3 "></polygon><polygon points="11.2,33.2 11.8,31.7 14,32.9 "></polygon><polygon points="12.1,31.5 13.4,30.7 14.3,32.6 "></polygon><polygon points="14.7,32.7 13.8,30.8 16.2,31.8 "></polygon><polygon points="16.8,31.5 16.1,28.6 17.8,30.9 "></polygon><polygon points="17.9,30.4 16,27.9 18,27 "></polygon><polygon points="12.7,46.7 13.3,46.1 13.5,47.7 "></polygon><polygon points="13.2,40.9 15.2,42.1 12.9,41.4 "></polygon><polygon points="12.4,42.4 12.7,41.8 14.1,43.5 "></polygon><polygon points="13.2,41.9 16.3,42.9 15.1,44 "></polygon><polygon points="13.9,47.9 13.7,46.1 15,46.9 "></polygon><polygon points="15.3,46.7 14.1,45.9 16.1,45.9 "></polygon><polygon points="14,45.5 15.1,44.6 16.1,45.5 "></polygon><polygon points="16.4,45.3 15.3,44.3 16.5,43.2 "></polygon><polygon points="97,37.5 95.9,38.2 94.9,37.9 "></polygon><polygon points="94.8,35.3 93.6,33.9 95.5,33.2 "></polygon><polygon points="94,32.4 95.3,32.9 93.6,33.5 "></polygon><polygon points="94.6,35.7 94.1,37.1 93.6,34.5 "></polygon><polygon points="93.3,34.5 93.7,37.1 92.8,35.8 "></polygon><polygon points="92.6,36.2 93.7,37.6 92.1,37.6 "></polygon><polygon points="88.6,33.3 89.8,36.2 88.2,36.3 "></polygon><polygon points="88.2,37 89.5,38.9 87.9,39.7 "></polygon><polygon points="86.7,35.1 87.6,36.2 85.9,35.8 "></polygon><polygon points="86,36.2 87.8,36.6 87.7,38.3 "></polygon><polygon points="87.5,40.4 87.9,42.6 86.1,41.1 "></polygon><polygon points="88,43.1 88,44.1 86.6,42 "></polygon><polygon points="85.3,41.2 84.1,42.1 82.8,41.1 "></polygon><polygon points="83.6,42.3 80.6,42.8 82.3,41.1 "></polygon><polygon points="79.7,40.6 78.8,40.9 80.3,39.5 "></polygon><polygon points="68.5,42.1 72,41 71,42.6 "></polygon><polygon points="70.7,43 69.4,44.6 68.1,42.4 "></polygon><polygon points="72.4,41 73.2,42.3 71.4,42.6 "></polygon><polygon points="73.2,42.7 72.4,44.7 71.3,43 "></polygon><polygon points="72.6,40.7 73.7,39 73.4,41.9 "></polygon><polygon points="65.7,41.5 67.1,39 67.5,41.9 "></polygon><polygon points="67.5,42.3 65.4,46.7 65.6,41.9 "></polygon><polygon points="65.4,41.3 61.7,38 66.9,38.6 "></polygon><polygon points="59.4,48 64.7,47.8 61.4,51 "></polygon><polygon points="61.1,51.3 59.4,52.8 59.2,48.4 "></polygon><polygon points="59.4,47.6 62,44.3 64.8,47.4 "></polygon><polygon points="63,41.2 61.7,38.5 64.9,41.4 "></polygon><polygon points="64.9,41.8 62.3,43.5 63,41.6 "></polygon><polygon points="64.7,36.3 61.5,37.4 62.9,34.4 "></polygon><polygon points="63.5,34.4 65.4,35 64.9,36.1 "></polygon><polygon points="65,36.6 66.7,38.1 62,37.7 "></polygon><polygon points="65.2,36.4 65.6,35.3 66.7,37.7 "></polygon><polygon points="65.5,34.6 63.3,34 66,31.9 "></polygon><polygon points="62.9,33.8 61.7,31.6 65.7,31.6 "></polygon><polygon points="62.5,33.8 60.8,33.4 61.5,31.8 "></polygon><polygon points="60.6,32.9 60.4,31.6 61.2,31.6 "></polygon><polygon points="62.6,34.2 61.2,37.2 60.7,33.8 "></polygon><polygon points="62.5,41.1 61.7,40.9 61.5,38.9 "></polygon><polygon points="62.6,41.5 62.1,43.2 61.8,41.3 "></polygon><polygon points="62.3,44 65.2,42 65,47.1 "></polygon><polygon points="65.8,34.8 66.2,32.5 66.9,37.2 "></polygon><polygon points="65.7,28 67,30.3 66.3,31 "></polygon><polygon points="65.7,27.3 68.4,28.5 67.2,30 "></polygon><polygon points="67.9,11.4 67.6,11.5 67.8,11.3 "></polygon><polygon points="67.8,11.3 68.1,11 67.9,11.4 "></polygon><polygon points="67.8,11.8 67.4,13 67.3,11.9 "></polygon><polygon points="69.1,15.5 67.7,14 69.2,14.1 "></polygon><polygon points="69.1,26.6 66.2,26.7 69,25.4 "></polygon><polygon points="68.9,24.7 67.9,24.1 68.8,22.9 "></polygon><polygon points="66.8,20 66,17.9 66.6,18.1 "></polygon><polygon points="66.8,20.8 65.9,20.3 65.8,18.6 "></polygon><polygon points="65.9,17.4 66.4,16.7 66.5,17.7 "></polygon><polygon points="65.6,17.1 65,15.5 66.2,16.2 "></polygon><polygon points="65.6,20.3 64.8,21 65.5,18.7 "></polygon><polygon points="65.9,20.7 66.9,21.3 65.2,23 "></polygon><polygon points="67.1,21.7 67.4,23.9 65.2,23.5 "></polygon><polygon points="67.6,24.4 68.7,25.1 65.9,26.4 "></polygon><polygon points="66.1,27.1 69.1,27 68.6,28.2 "></polygon><polygon points="69.3,27.3 70.1,29.5 68.9,28.4 "></polygon><polygon points="69.5,26.5 69.4,25.5 70.2,26.2 "></polygon><polygon points="70.4,26.6 70.4,27.3 69.7,26.8 "></polygon><polygon points="70.7,23.6 69.4,24.6 70.3,21.1 "></polygon><polygon points="69.6,19.2 71.3,19.2 70.4,19.9 70.4,19.9 70.4,19.9 70.4,19.9 "></polygon><polygon points="70.9,23.8 71.7,23.8 70.2,24.5 "></polygon><polygon points="70.6,20.5 71.5,21 71.5,21 71.5,21 71.5,21 70.9,22.9 "></polygon><polygon points="70.7,20.1 71.6,19.4 71.6,20.6 "></polygon><polygon points="70.2,18.1 71.7,18.1 71.7,18.7 "></polygon><polygon points="70.9,18.8 69.3,18.8 69.3,18.1 "></polygon><polygon points="70.2,20.2 69.2,21.8 69.3,19.4 "></polygon><polygon points="69.9,21.3 69.2,23.9 69.2,22.5 "></polygon><polygon points="69.7,27.2 70.4,27.7 70.4,29.2 "></polygon><polygon points="69.5,25.1 72.2,24.1 70.5,26 "></polygon><polygon points="77,18 77.1,16.4 78.5,17.9 77.1,18 77.1,18 "></polygon><polygon points="77,15.4 77,14.3 77.9,14.2 "></polygon><polygon points="77.3,16.1 78.7,16.1 78.7,17.6 "></polygon><polygon points="78.5,18.6 77.8,20.7 75.7,20.6 "></polygon><polygon points="77.2,21.1 76,21.7 75.5,21 "></polygon><polygon points="77.5,41.3 75.4,41.7 75.4,40.2 "></polygon><polygon points="75.7,39.9 76.4,39.7 77.3,40.8 "></polygon><polygon points="76.7,39.5 78.9,38.4 78,41 "></polygon><polygon points="76.9,39 77.4,38.1 78.5,38.2 "></polygon><polygon points="77.6,37.7 78.3,36.4 78.9,37.9 "></polygon><polygon points="78.5,36 79.4,35.7 79.1,37.4 "></polygon><polygon points="78.8,35.5 80.1,33.2 79.4,35.3 "></polygon><polygon points="80.9,31.8 82.9,32.5 79.9,34.9 "></polygon><polygon points="80.9,31 80.4,27.2 81.9,29.2 "></polygon><polygon points="82.2,29.4 82.9,29.8 81.3,30.9 "></polygon><polygon points="82.1,28.8 80.5,26.8 82.6,27.1 "></polygon><polygon points="80.7,26.5 82.5,25.6 82.7,26.7 "></polygon><polygon points="80.2,26.3 80.1,25.4 81.9,25.4 "></polygon><polygon points="73.1,36 74.2,35.7 74.9,37.2 "></polygon><polygon points="74.9,37.7 74.1,38.1 73.3,36.5 "></polygon><polygon points="76.3,28.7 77.8,27.4 77.3,28.5 "></polygon><polygon points="77.1,28.9 76.4,30.4 75.9,29.1 "></polygon><polygon points="75.8,28.6 75.7,26.4 77.9,26.9 "></polygon><polygon points="76,30.5 74.4,29.6 75.5,29.2 "></polygon><polygon points="75.3,28.9 74.3,29.2 74.7,28.3 "></polygon><polygon points="74.9,28 75.4,26.9 75.4,28.5 "></polygon><polygon points="75.3,32.3 73.2,32.3 74,30 "></polygon><polygon points="72.9,35.7 73.1,33.2 74,35.3 "></polygon><polygon points="73.2,32.6 75.3,32.7 74.3,35 "></polygon><polygon points="74.5,30 76.1,31 75.6,32.1 "></polygon><polygon points="76.1,26.1 77.2,25.5 77.9,26.5 "></polygon><polygon points="75.9,25.8 76.9,23.6 77.1,25.2 "></polygon><polygon points="77.1,22.7 76.4,22.1 78.1,21.9 "></polygon><polygon points="75.6,21.9 73.5,23 75.1,21.1 "></polygon><polygon points="73.1,22.9 73.6,21 74.7,21 "></polygon><polygon points="71.6,27.6 70.7,27.5 70.7,26.7 "></polygon><polygon points="70.7,27.8 71.8,28 70.7,29.6 "></polygon><polygon points="72.1,28.3 72.7,31.9 70.8,30.1 "></polygon><polygon points="72.4,28.4 73.8,29.6 73,31.7 "></polygon><polygon points="73.8,38.3 72.7,40 72.9,36.6 "></polygon><polygon points="74.1,39.1 75,41.9 74.9,44.1 73.7,42.4 "></polygon><polygon points="74.5,39.3 75,39.9 75,40.8 "></polygon><polygon points="74.3,38.4 75.1,38.1 75,39.3 "></polygon><polygon points="74.5,35.4 75.4,33.5 75.2,37 "></polygon><polygon points="75.4,42.1 77.5,41.7 75.3,44.1 "></polygon><polygon points="78.1,41.7 79.6,43 77.2,43.6 75.8,44.2 "></polygon><polygon points="78.4,41.5 79.7,41 79.8,42.7 "></polygon><polygon points="78.5,40.7 79.3,38.3 80.7,38.6 "></polygon><polygon points="79.4,37.9 79.7,36 80.8,38.2 "></polygon><polygon points="81,37.8 79.9,35.7 81.1,36 "></polygon><polygon points="81.2,35.6 80,35.3 82.6,33.2 "></polygon><polygon points="81.3,37.6 81.4,36 82.5,35.5 "></polygon><polygon points="82.8,35 81.7,35.4 83,33.3 "></polygon><polygon points="83.1,32.2 81.2,31.5 83.1,30.1 "></polygon><polygon points="83,29.4 82.3,29.1 82.8,27.7 "></polygon><polygon points="82.1,21.1 83.5,21.6 81.4,23 "></polygon><polygon points="83.5,22 82.6,24.9 81.4,23.5 "></polygon><polygon points="81.1,23.7 82.2,25.1 80,25 79.6,24.7 "></polygon><polygon points="80.8,23.4 79.4,24.3 79.1,22.1 "></polygon><polygon points="79.1,24.6 78.3,26.4 77.5,25.2 78.7,22.3 "></polygon><polygon points="77.4,24.5 77.2,23 78.4,22.2 "></polygon><polygon points="78.4,21.5 76.9,21.7 77.9,21.1 "></polygon><polygon points="78.7,20.3 78.3,20.5 78.8,18.9 78.9,20.2 "></polygon><polygon points="79,15.5 78.7,14.7 79.2,15.2 "></polygon><polygon points="81.1,10.6 81.8,11.2 80.7,11.2 "></polygon><polygon points="80.4,11.6 81.4,11.6 79.8,12.3 "></polygon><polygon points="81.7,11.9 80.5,13.5 79.6,12.8 "></polygon><polygon points="80.2,13.8 79.6,14.7 79.5,13.1 "></polygon><polygon points="79.1,13.2 79.2,14.6 78.6,13.9 "></polygon><polygon points="78.3,14.3 78.7,15.7 77.2,15.7 "></polygon><polygon points="78.1,11.6 78.1,13.3 77,11.7 "></polygon><polygon points="78,13.8 76.9,14 76.9,12.1 "></polygon><polygon points="77,18.4 78.2,18.3 75.9,20 "></polygon><polygon points="75,20.6 74.1,20.6 76,19.1 "></polygon><polygon points="75,19.5 73.4,20.7 72.6,20.7 "></polygon><polygon points="73.2,21.1 72.7,23 72,21.1 "></polygon><polygon points="72.5,23.5 71.1,23.5 71.8,21.5 "></polygon><polygon points="71.1,16.5 71.7,16.7 71.7,17.4 "></polygon><polygon points="71.8,16.3 71.1,16.1 72.1,15.6 "></polygon><polygon points="72.5,14.7 71.7,13.1 72.9,13.7 "></polygon><polygon points="72.9,13.3 71.7,12.7 72.8,11.9 "></polygon><polygon points="72.7,9.8 72.1,10.7 71.7,9.2 "></polygon><polygon points="71.7,8.8 72.8,8.3 72.7,9.4 "></polygon><polygon points="72.7,10.3 72.7,11.3 72.3,11 "></polygon><polygon points="72.1,11.4 72.6,11.6 71.8,12.2 "></polygon><polygon points="72.8,7.4 72.8,7.7 72.2,7.4 "></polygon><polygon points="71.5,7.5 72.5,8 71.5,8.5 "></polygon><polygon points="71.5,10.1 71.8,11.1 71.5,11.8 "></polygon><polygon points="71.3,13.2 72.1,14.8 70.9,14.3 "></polygon><polygon points="70.8,14.7 72.1,15.2 70.8,15.9 "></polygon><polygon points="70.6,16.5 71.5,17.7 69.6,17.7 "></polygon><polygon points="69.4,17.3 69.4,16.2 70.3,16.3 "></polygon><polygon points="70.4,15.9 69.6,15.8 70.4,14.9 "></polygon><polygon points="69.4,15.4 69.5,14.2 69.5,14.2 70.3,14.5 "></polygon><polygon points="70,13.9 69.5,13.8 69,12.9 "></polygon><polygon points="69,13.7 67.5,13.7 68.1,12.1 "></polygon><polygon points="67.3,11.2 67.3,8.8 68.3,10.2 "></polygon><polygon points="68.5,9.9 68.1,9.3 68.6,9.7 "></polygon><polygon points="68.7,9.3 67.6,8.4 69.1,8.3 "></polygon><polygon points="69.2,4.6 70.2,5 68.6,6.2 "></polygon><polygon points="70.2,5.5 69.3,7.7 68.4,6.7 "></polygon><polygon points="68.2,7 68.9,7.9 67.5,8 "></polygon><polygon points="66.2,2.6 66.7,3.9 65.2,3.1 "></polygon><polygon points="65.2,3.5 66.7,4.3 65.8,4.9 "></polygon><polygon points="66,5.2 66.8,4.7 66.4,6.2 "></polygon><polygon points="67.2,4.9 67.9,6.5 66.7,6.6 "></polygon><polygon points="66.7,6.9 67.8,6.9 67.1,7.9 "></polygon><polygon points="66.9,9.3 67,11.5 66.1,11.5 "></polygon><polygon points="66,11.9 66.6,11.9 65.7,12.7 "></polygon><polygon points="67,12.1 67.1,13.6 65.7,13.2 "></polygon><polygon points="67,14 66.5,15.6 65.6,13.6 "></polygon><polygon points="65.3,13.8 66.1,15.7 64.9,15 "></polygon><polygon points="64.7,15.7 65.3,17.4 64.2,17.4 "></polygon><polygon points="62.2,9 62.1,8.3 62.3,8 "></polygon><polygon points="62,11.7 62.2,11.9 61.7,11.8 "></polygon><polygon points="61,10.8 62,10.5 61.9,11.2 "></polygon><polygon points="62.5,6.5 62.4,7.1 61.7,6.3 "></polygon><polygon points="62.3,7.5 61.9,7.9 61.6,6.8 "></polygon><polygon points="61.2,6.9 61.7,8.2 60.9,9.7 "></polygon><path d="M60.3,11C60.4,11,60.4,11,60.3,11l0.3,0.5L59.2,11L60.3,11z"></path><polygon points="57.3,11 57.8,11 57.3,11.8 "></polygon><polygon points="57.4,12.3 58.1,11.2 58.4,12.2 "></polygon><polygon points="58.8,12.3 58.5,11.3 59.7,12.3 "></polygon><polygon points="59.2,11.4 60.7,11.9 60.3,12.2 "></polygon><polygon points="60.9,13 60.5,12.5 60.9,12.2 "></polygon><polygon points="61.8,8.8 62,10.1 60.9,10.5 "></polygon><polygon points="60.9,11.2 61.6,11.4 61.1,11.6 "></polygon><polygon points="61.2,12.1 62.2,12.3 61.2,13.2 "></polygon><polygon points="62.3,12.7 62.2,13.5 61.5,13.4 "></polygon><polygon points="62.2,13.9 62.2,14.2 61.7,13.8 "></polygon><polygon points="61.9,14.4 62.3,14.8 62.5,15.3 "></polygon><polygon points="62.7,12.7 64,14.5 62.5,13.6 "></polygon><polygon points="62.6,14.1 63.6,14.7 62.6,14.5 "></polygon><polygon points="62.8,14.9 64.3,15.2 63.1,16.1 "></polygon><polygon points="63.3,16.4 64.3,15.6 63.9,17.2 "></polygon><polygon points="64.2,17.8 65.2,17.8 64.3,19 "></polygon><polygon points="64.4,19.6 65.2,18.5 64.6,20.7 "></polygon><polygon points="64.7,21.7 65.4,21 64.8,22.8 "></polygon><polygon points="65,23.8 67.2,24.3 65.3,26.5 "></polygon><polygon points="65.1,27.3 65.9,31 63.5,29.2 "></polygon><polygon points="63.3,29.5 65.6,31.2 61.8,31.2 "></polygon><polygon points="61.5,31 60.8,29.4 62.9,29.4 "></polygon><polygon points="60.7,26.8 62.8,29.1 60.7,29 "></polygon><polygon points="60.6,29.9 61.2,31.2 60.4,31.2 "></polygon><polygon points="25,37.8 24.1,41.7 22.7,40.4 22.7,40.3 "></polygon><polygon points="22.9,39.6 23.6,36.8 25,37.2 "></polygon><polygon points="23.7,41.9 22.1,42.1 22.5,40.7 "></polygon><polygon points="24.1,42.3 24.7,43.6 22.5,42.4 "></polygon><polygon points="24.6,42.5 26.7,43.4 25.2,43.9 "></polygon><polygon points="25.6,44.2 27.2,43.7 29.1,45.6 "></polygon><polygon points="28.8,45.9 25.8,45.8 25.3,44.5 "></polygon><polygon points="28,44 31.3,45.4 29.9,45.9 "></polygon><polygon points="23.8,27.6 24.4,30.2 22.6,29.1 "></polygon><polygon points="22.4,28.8 22.1,27.3 23.6,27.3 "></polygon><polygon points="24.8,22.9 25.6,23.7 24.8,25 "></polygon><polygon points="33.3,20.7 32.8,22 31.7,20.4 "></polygon><polygon points="31.7,20.1 32.5,19.4 33.1,20.3 "></polygon><polygon points="33.5,21.1 33.9,22.3 33.1,22.2 "></polygon><polygon points="39.7,11.1 40.6,11.8 39.3,12.2 "></polygon><polygon points="39.5,10.5 38.6,9.7 39.9,9.6 "></polygon><polygon points="45.7,13.3 44.7,13.1 45.9,13 "></polygon><polygon points="46,13.8 47.3,14 45.6,14.3 "></polygon><polygon points="45.6,13.7 45.1,14.3 44.2,13.4 "></polygon><polygon points="47.7,15.9 49.8,15.4 49.3,17.8 "></polygon><polygon points="49.2,18.3 48.9,19 47.9,16.8 "></polygon><path d="M55.5,14.5L55,12.9l0.5-0.7l-0.1,0.3c0,0,0,0,0,0L55.5,14.5z"></path><polygon points="55.4,15.5 53.9,15.1 54.8,13.4 "></polygon><polygon points="54.1,15.5 55.4,15.9 54.9,16.8 "></polygon><polygon points="54.5,16.9 53.9,16.8 53.9,15.9 "></polygon><polygon points="58.1,17.8 57,19.1 56.7,18 "></polygon><polygon points="56.9,17.6 57.2,16.9 58,17.4 "></polygon><polygon points="55.4,32.6 54.1,33 54.1,32 "></polygon><polygon points="54.2,31.6 54.9,30.7 55.6,32.3 "></polygon><polygon points="55.4,33 54.3,34.4 54.1,33.4 "></polygon><polygon points="56,32.9 56,32.9 56,32.9 56,32.8 56.9,32.6 55.2,33.8 "></polygon><polygon points="55.1,30.4 55.8,29.4 55.8,31.8 "></polygon><polygon points="54.9,30 54.3,28.9 55.6,28.9 "></polygon><polygon points="54.7,30.3 54.1,31.1 54.1,29.3 "></polygon><polygon points="54.4,35 55.9,35 54,36.9 "></polygon><polygon points="54.8,34.6 57.3,32.8 56.2,34.6 "></polygon><polygon points="57.9,32.4 60,33.5 56.7,34.5 "></polygon><polygon points="58.4,32.2 60.1,31.7 60.3,33.2 "></polygon><polygon points="60.1,31 59.5,30.3 60.2,29.6 "></polygon><polygon points="59.2,30.1 57.8,28.6 60.1,29.3 "></polygon><polygon points="54,35.1 53.7,36.9 52.7,35 54,35 54,35 53.9,35.1 "></polygon><polygon points="53.2,59.9 51.4,57.8 53.2,55.4 55.7,57.3 "></polygon><polygon points="55.4,58.1 53.7,62.3 53.4,60.2 "></polygon><polygon points="51.6,73.8 52.9,69.3 53,72.9 "></polygon><polygon points="53.2,73.2 54.3,74.3 51.9,74.1 "></polygon><polygon points="51,74.3 48.4,77.2 49.1,72.9 "></polygon><polygon points="49.2,72.5 52.7,68.9 51.2,74 "></polygon><polygon points="48.6,77.5 51.3,74.6 52.8,76.9 "></polygon><polygon points="52.9,77.3 51.2,81.6 48.5,77.9 "></polygon><polygon points="48.3,67.4 51.4,66.1 52.7,67.9 "></polygon><polygon points="51.2,62.7 53.2,63.1 51.6,65.4 "></polygon><polygon points="51.3,65.5 48.5,64 50.9,62.8 "></polygon><polygon points="51.2,62 51.3,58.3 53,60.1 "></polygon><polygon points="50.9,61.5 49.7,58 51,58 "></polygon><polygon points="50.5,61.5 48.4,58.6 49.4,58 "></polygon><polygon points="50.6,62.2 47.7,61.8 48.2,59 "></polygon><polygon points="50.4,62.6 48.2,63.7 47.7,62.2 "></polygon><polygon points="50.8,65.7 45.5,65.9 48.1,64.2 "></polygon><polygon points="50.4,66.1 47.6,67.3 45.6,66.3 "></polygon><polygon points="47.7,67.7 52.1,68.2 45.5,70 "></polygon><polygon points="51.9,68.7 46.8,71.8 45.2,70.5 "></polygon><polygon points="46.9,72.2 52,69.1 48.8,72.4 45.4,77.3 "></polygon><polygon points="48.7,73.3 48,77.6 45.3,78 "></polygon><polygon points="48.2,78.2 50.8,81.7 47.6,81 "></polygon><polygon points="51,82.5 50.2,86.7 47.6,86.1 "></polygon><polygon points="50.7,82 45.4,84.9 47.4,81.4 "></polygon><polygon points="50.4,82.7 47.2,86 45.3,85.4 "></polygon><polygon points="47.3,86.5 49.9,87 45.4,90.2 "></polygon><polygon points="50.1,87.4 49.4,90 45.6,90.5 "></polygon><polygon points="50.4,87.4 52.7,91.6 49.8,90.1 "></polygon><polygon points="51.4,82.3 55.3,86.7 50.6,86.7 "></polygon><polygon points="51.6,82 55,80 55.5,86.4 "></polygon><polygon points="51.6,81.5 53.2,77.4 54.8,79.7 "></polygon><polygon points="53.1,76.7 51.7,74.5 54.5,74.7 "></polygon><polygon points="53.4,72.9 54.6,70.9 54.6,74.1 "></polygon><polygon points="53.4,72.3 53.3,68.7 54.6,70.3 "></polygon><polygon points="52.9,67.6 51.7,65.8 51.8,65.8 51.8,65.8 51.8,65.8 53.3,63.6 "></polygon><polygon points="51.4,62.4 53.1,60.6 53.4,62.7 "></polygon><polygon points="35.1,30.3 33.8,30 33.5,28.5 "></polygon><polygon points="33.6,28 35.7,28.1 35.2,29.9 "></polygon><polygon points="33.8,30.4 34.9,30.7 32.7,33.4 "></polygon><polygon points="34,26.4 36.1,26.3 35.8,27.6 "></polygon><polygon points="43.9,32.3 45.6,33.5 42.8,32.7 43.7,32.1 43.9,32.3 43.9,32.3 "></polygon><polygon points="53.7,25.6 52.2,24.9 55.1,24 "></polygon><polygon points="55.5,24.1 55.8,26.6 54.1,25.8 "></polygon><polygon points="54.6,23.7 51.8,24.7 51.2,23.6 "></polygon><polygon points="51.7,23.2 53.1,22.6 54.7,23.4 "></polygon><polygon points="49.8,25 50.1,26.7 48.4,24.7 "></polygon><polygon points="48.6,24.3 50.4,23.8 49.9,24.6 "></polygon><polygon points="53.7,47.6 51.6,46.8 55.5,46.3 "></polygon><polygon points="54,50 51.5,47.2 53.6,48 "></polygon><polygon points="56.4,49.9 55.6,51.8 54.6,50.7 "></polygon><polygon points="54.4,50.3 54,48.2 56.3,49.5 "></polygon><polygon points="54.1,47.8 56,46.3 56.5,49.1 "></polygon><polygon points="51.1,46.5 52.4,44 55.6,45.9 "></polygon><polygon points="39.5,37.9 40.5,34.5 41,37.3 "></polygon><polygon points="40.6,37.9 38.9,40 39.4,38.3 "></polygon><polygon points="39.3,23.8 41,24.1 38.9,26.3 "></polygon><polygon points="39.1,22.3 41.3,22.2 39.3,23.3 "></polygon><polygon points="41.2,24.4 40.8,27.4 38.9,26.8 "></polygon><polygon points="38.5,26.1 38.1,24.8 38.9,24.1 "></polygon><polygon points="40.7,27.7 39.4,29.1 38.8,27.2 "></polygon><polygon points="41,27.9 43.2,31.4 39.6,29.5 "></polygon><polygon points="39.7,30.2 42,32.7 40.6,33.4 "></polygon><polygon points="40.7,33.8 42.1,33.1 41.2,36.6 "></polygon><polygon points="42.3,33.6 42.9,36.5 41.5,37.1 "></polygon><polygon points="43,36.9 43.3,39.5 41.5,37.5 "></polygon><polygon points="43.3,36.3 42.6,33 46.3,34.1 "></polygon><polygon points="46.6,33.7 44.2,32.1 47.7,31.7 "></polygon><polygon points="47.8,32.4 47.5,34.4 46.9,34 "></polygon><polygon points="45.2,38.3 43.5,36.7 45.8,36.1 "></polygon><polygon points="45.2,39 45.6,40.2 45.6,40.2 44,40 "></polygon><polygon points="44,36.2 46.3,34.5 46,35.7 "></polygon><polygon points="45,38.7 43.7,39.7 43.4,37.1 "></polygon><polygon points="45.6,40.5 44.3,42.1 43.8,40.3 "></polygon><polygon points="45.7,41 45.5,42.8 44.6,42.3 "></polygon><polygon points="45.6,39.1 46.4,39.5 46,40 "></polygon><polygon points="46.6,39.8 46.9,41.4 46.2,40.4 "></polygon><polygon points="46.1,40.9 46.9,42.1 45.9,42.8 "></polygon><polygon points="47.2,42.4 48.7,44.5 46,43.1 "></polygon><polygon points="47.2,41.2 46.9,39.8 47.5,40 "></polygon><polygon points="47.8,40.2 49.2,41 47.5,41.8 "></polygon><polygon points="47.5,42.2 49.4,41.3 49.2,44.5 "></polygon><polygon points="48,34.8 49.1,33.9 49.8,36.2 "></polygon><polygon points="50.1,39.3 51.1,40.3 49.9,40.7 "></polygon><polygon points="49.8,41.1 51.1,40.7 49.6,44.1 "></polygon><polygon points="51.4,41 52.1,43.6 49.7,44.7 "></polygon><polygon points="51.9,44.1 50.8,46.4 49.7,45.1 "></polygon><polygon points="52.3,43.2 51.7,40.8 53,41.3 "></polygon><polygon points="51.4,40.2 50.3,39 53.2,37.9 "></polygon><polygon points="50.2,38.1 50.3,36.8 51.7,35.7 "></polygon><polygon points="50.6,36.1 51.3,34.3 52.1,34.9 "></polygon><polygon points="50.2,36.2 49.4,33.8 51,34.1 "></polygon><polygon points="49.3,33.4 48.6,32.2 50.5,33.7 "></polygon><polygon points="48.9,33.5 47.9,34.3 48.2,32.1 "></polygon><polygon points="48.1,31 46.9,27.3 49.1,29.3 "></polygon><polygon points="47.1,27 50.1,27.4 49.3,28.9 "></polygon><polygon points="49.9,27 46.9,26.6 47.9,24.7 "></polygon><polygon points="46.7,26.1 46.6,23.8 47.6,24.4 "></polygon><polygon points="46.6,23.3 46.4,20.7 47.5,23.9 "></polygon><polygon points="47.7,31 45.5,29.1 46.5,27.2 "></polygon><polygon points="47.6,31.4 44,31.7 45.3,29.4 "></polygon><polygon points="42.4,32.5 40.3,30.3 43.3,31.9 "></polygon><polygon points="41.2,27.6 41.5,24.8 43.2,30.7 "></polygon><polygon points="41.3,23.7 39.8,23.5 41.8,22.3 "></polygon><polygon points="40.1,20.9 41.4,20.2 41.8,21.6 "></polygon><polygon points="41.8,20.1 42.6,19.9 42.1,21.3 "></polygon><polygon points="41.7,19.7 41.1,18.5 42.5,19.5 "></polygon><polygon points="41.3,19.8 39.9,20.5 40.6,18.4 "></polygon><polygon points="41.3,21.8 39.3,21.9 39.7,21.1 "></polygon><polygon points="38.9,21.9 37.5,21.2 39.3,21.1 "></polygon><polygon points="39,23.5 37.6,23.6 38.8,22.5 "></polygon><polygon points="37.3,23.4 37.4,22.7 38.3,22.5 "></polygon><polygon points="38.6,23.9 37.9,24.5 37.5,24 "></polygon><polygon points="38.6,41 42.6,40.4 38.1,43 "></polygon><polygon points="38.9,40.5 41.2,37.7 43.1,40 "></polygon><polygon points="43.4,40.5 44,42.4 40,44.3 "></polygon><polygon points="44,42.8 43,46.1 39.7,44.9 "></polygon><polygon points="42.9,46.5 42.3,48.7 39.8,45.3 "></polygon><polygon points="42.4,49.6 44.3,54 41.1,53 "></polygon><polygon points="55.7,52.3 58.6,53.2 53.7,54.8 "></polygon><polygon points="55.9,52 56.8,49.9 58.8,52.8 "></polygon><polygon points="56.4,46.3 58.7,47.8 56.9,49.2 "></polygon><polygon points="56.3,45.8 55.5,44 58,46.9 "></polygon><polygon points="55.8,45.5 52.8,43.8 54.8,43.3 "></polygon><polygon points="52.6,43.5 53.3,41.5 54.6,42.9 "></polygon><polygon points="53.1,40.9 51.7,40.4 53.4,38.2 "></polygon><polygon points="50.4,38.5 52.4,35.2 53.5,37.4 "></polygon><polygon points="52.9,34.6 53.8,33.6 54,34.6 "></polygon><polygon points="50.2,25 51.4,25.1 50.5,26.7 "></polygon><polygon points="56.1,26.6 55.9,24.1 57.3,25.8 "></polygon><polygon points="57.4,26.2 57.1,27.8 56.3,27 "></polygon><polygon points="55.9,23.7 57.2,21.9 57.4,25.3 "></polygon><polygon points="57.2,19.8 58.8,20.6 57.5,21.1 "></polygon><polygon points="56.4,17.6 55.5,17.2 56.8,17 "></polygon><polygon points="56.2,17.9 55.5,18.8 55.1,17.5 "></polygon><polygon points="54.6,20.1 52.9,19.6 55.1,19.5 "></polygon><polygon points="54.4,20.4 53.9,21 52.6,19.9 "></polygon><polygon points="53.7,21.3 53.1,22 52.3,20.2 "></polygon><polygon points="51.1,23.1 51.3,21.4 52.7,22.3 "></polygon><polygon points="51.4,24.7 50.3,24.6 50.8,23.8 "></polygon><polygon points="50.7,23.3 48.6,24 50.9,21.6 "></polygon><polygon points="48.7,23.3 49.7,21.5 50.6,21.3 "></polygon><polygon points="49.7,21.1 49.2,20 50.7,20.9 "></polygon><polygon points="46,19.9 46.2,22.9 45,21.6 "></polygon><polygon points="44.8,21.2 44.4,20.2 45.6,19.7 "></polygon><polygon points="46.2,23.5 46.3,25.5 45.2,22.4 "></polygon><polygon points="43.4,17.6 42.8,19.3 41,18 43.7,17.1 "></polygon><polygon points="40.7,17.5 40.1,15.5 41.8,16.1 "></polygon><polygon points="39.4,13.7 39.3,12.8 40.8,13.4 "></polygon><polygon points="40.9,13.8 39.9,14.8 39.5,14.1 "></polygon><polygon points="39.6,15 37.8,15.5 39.2,14.2 "></polygon><polygon points="39,19.2 39.4,20.7 37.3,20.8 "></polygon><polygon points="38.7,19 37.1,20.5 37.6,18.5 "></polygon><polygon points="37.8,18.2 38.5,17.5 38.8,18.6 "></polygon><polygon points="38.4,22.1 37.4,22.3 37.1,21.4 "></polygon><polygon points="37.1,24.2 37.7,24.7 36.7,25.5 "></polygon><polygon points="36.9,23.7 35.9,23.9 37,23 "></polygon><polygon points="36.8,24.1 36.3,25.6 35.5,24.4 "></polygon><polygon points="36,25.9 33.9,26.1 35.2,24.6 "></polygon><polygon points="33.9,22.6 33.8,23.6 33.2,22.6 "></polygon><polygon points="33.9,21.1 34.5,21.7 34.2,22.1 "></polygon><polygon points="34,24.4 34.8,24.4 33.8,25.6 "></polygon><polygon points="34.1,24 34.3,22.5 34.7,22.1 35,24 "></polygon><polygon points="34.7,21.4 34,20.7 35,20.6 "></polygon><polygon points="35,20.2 33.8,20.3 34.2,19.3 "></polygon><polygon points="34.8,19.4 35.4,19.7 35.3,20 "></polygon><polygon points="33.7,24.2 33.5,25.3 33.2,23.3 "></polygon><polygon points="33.6,26.6 35.2,27.7 33.4,27.6 "></polygon><polygon points="33.4,29.9 31.6,29.7 33,28.2 "></polygon><polygon points="31.3,29.4 31,27.5 32.8,27.9 "></polygon><polygon points="30.9,27.1 30.4,26 32.3,27.4 "></polygon><polygon points="29.3,22 28.9,19.9 29.8,20.5 "></polygon><polygon points="30,21 30.3,21.9 29.6,22.3 "></polygon><polygon points="30.3,22.3 30.1,23.6 29.5,22.8 "></polygon><polygon points="30.1,24.2 30,24.7 29.7,23.7 "></polygon><polygon points="30.1,26.1 30.5,27.1 29.8,27.4 "></polygon><polygon points="30.6,27.5 30.9,29.1 29.9,27.8 "></polygon><polygon points="30.2,25.4 30.4,24.6 32.1,26.8 "></polygon><polygon points="30.2,20.4 30.5,19.3 30.4,21 "></polygon><polygon points="29.9,20.1 29,19.5 30.5,18.2 "></polygon><polygon points="28.9,19.1 28.9,17.7 30.4,17.8 "></polygon><polygon points="28.8,17.1 28.6,16.3 29.6,16.4 "></polygon><polygon points="28.7,20.9 29,22.6 28.5,22.8 "></polygon><polygon points="29.1,23 29.5,24.5 28.6,23.2 "></polygon><polygon points="29.8,25.7 29.5,27.3 28.5,26 28.4,25.9 "></polygon><polygon points="28,25.6 26.6,24.2 29.3,25.4 "></polygon><polygon points="30.4,37.4 29.5,41.3 27.8,38.4 "></polygon><polygon points="27.6,38.1 26.3,36 30.1,37.1 "></polygon><polygon points="26.2,35.6 28.6,33.3 30.3,36.8 "></polygon><polygon points="24.7,31 26.1,33 23.2,33.6 "></polygon><polygon points="23,33.2 23,31.4 24.3,30.9 "></polygon><polygon points="26.2,33.4 25.8,35.4 23.4,33.9 "></polygon><polygon points="25.3,31.2 28,32.8 26.5,32.9 "></polygon><polygon points="26.6,33.3 28.1,33.2 26.2,35.1 "></polygon><polygon points="23.9,26.8 23.3,25.8 24.4,25.9 "></polygon><polygon points="24.2,30.6 23,31 22.6,29.6 "></polygon><polygon points="21.8,33 22.7,31.8 22.7,33.5 "></polygon><polygon points="29.8,41.9 31.6,41.2 31.6,44.8 "></polygon><polygon points="31.5,40.8 31.4,40.8 31.5,40.8 29.8,41.5 29.8,41.5 30.7,37.8 31.6,40.8 "></polygon><polygon points="30.7,36.7 29,33.3 31.9,34.5 "></polygon><polygon points="28.9,32.9 31.1,30.2 31.9,34.1 "></polygon><polygon points="31.4,30 33.4,30.3 32.2,33.7 "></polygon><polygon points="32.3,35 33.3,36.6 32,39.8 "></polygon><polygon points="33.6,37 35.1,39.6 32.1,40.6 "></polygon><polygon points="35.3,39.9 36.1,41.2 32.7,40.8 "></polygon><polygon points="36.3,41.6 37.2,43 33,41.2 "></polygon><polygon points="37.6,43.6 38.8,44.8 33.2,45.2 "></polygon><polygon points="38,43.5 42.6,40.8 39.2,44.7 "></polygon><polygon points="40.5,52.2 38,48.2 39.2,45.5 "></polygon><polygon points="39.6,45.7 42.2,49.2 40.9,52.5 "></polygon><polygon points="44.3,54.4 41.6,57.2 41.1,53.4 "></polygon><polygon points="44.4,54.8 44.2,56.9 42.1,57.3 "></polygon><polygon points="44.2,57.3 44.4,59.3 42,57.7 "></polygon><polygon points="43.1,50.3 45.8,53.6 44.7,54 "></polygon><polygon points="46,53.9 47.4,57.5 44.9,54.4 "></polygon><polygon points="44.8,54.7 47.5,58.1 44.5,56.9 "></polygon><polygon points="46.7,54.7 49.2,57.7 48.2,58.3 "></polygon><polygon points="47.3,61.8 45.5,63 47.7,59.4 "></polygon><polygon points="47.4,62.2 47.9,63.9 45,65.8 45,63.8 "></polygon><polygon points="47.3,67.6 45,69.9 45,66.5 "></polygon><polygon points="46.3,71.9 45,71.9 45,70.8 "></polygon><polygon points="46.5,72.3 45,77.1 45,72.3 "></polygon><polygon points="47.9,78 47.2,80.8 45,78.5 45,78.5 "></polygon><polygon points="47.1,81.2 45,84.7 45,79 "></polygon><polygon points="47,86.4 45,90.1 45,85.7 "></polygon><polygon points="47.4,92.6 45,93.2 45,91.1 "></polygon><polygon points="45.4,90.9 49.2,90.5 47.8,92.4 "></polygon><polygon points="49.6,90.5 52.5,91.9 48.3,92.4 "></polygon><polygon points="52.8,92.3 50.6,95.3 48.3,92.8 "></polygon><polygon points="50.7,87.1 55.4,87.1 53.1,91.7 "></polygon><polygon points="55.7,87.5 56.8,92.9 53.4,91.9 "></polygon><polygon points="55.4,80.4 56.9,82.8 55.8,86 "></polygon><polygon points="55.1,79.4 53.5,77.2 56.7,76.6 "></polygon><polygon points="53.5,76.8 54.8,74.8 56.6,76.2 "></polygon><polygon points="54.7,69.9 53.3,68.2 53.4,68.1 53.3,68.1 53.4,68 53.4,68 53.4,68 56.6,63.1 "></polygon><polygon points="55,70.7 56.8,72.5 55,74.1 "></polygon><polygon points="53.3,67.5 53.7,63.1 56.7,62.4 "></polygon><polygon points="53.9,62.7 55.9,57.8 56.9,61.9 "></polygon><polygon points="53.6,55.2 58.7,53.5 55.9,57 "></polygon><polygon points="58.9,53.8 58.2,57.7 56.3,57.1 "></polygon><polygon points="57,49.5 58.9,48.1 59,52.5 "></polygon><polygon points="60.3,28.9 57.7,28.2 60.3,26.6 "></polygon><polygon points="57.4,27.8 57.8,26 60,26.4 "></polygon><polygon points="57.6,22.4 58.4,24.4 57.8,25.3 "></polygon><polygon points="59.9,26 57.9,25.7 58.6,24.7 "></polygon><polygon points="62.6,21.1 62,21.4 62.7,20.5 "></polygon><polygon points="62.6,20.2 61.2,21.7 59.8,20.7 "></polygon><polygon points="60.9,22 60,22.4 59.6,21 "></polygon><polygon points="58.7,24 57.8,21.8 59.6,22.7 "></polygon><polygon points="59.6,22.3 57.9,21.4 59.2,20.8 "></polygon><polygon points="59.9,17.2 58.9,17.3 59.8,15.8 "></polygon><polygon points="59.5,15.4 58.7,16.9 58.7,15.5 "></polygon><polygon points="59,20.2 57.2,19.4 58.4,17.9 "></polygon><polygon points="58.3,15.6 58.3,17.2 56.3,15.9 "></polygon><polygon points="56.7,16.6 55.2,16.9 55.7,16 55.8,16.1 55.8,16 "></polygon><polygon points="55.3,7.1 56.4,7.4 54.8,9.6 "></polygon><polygon points="56.4,8.1 55.8,11.1 54.8,10.4 54.9,10.4 54.7,10.4 "></polygon><polygon points="55.6,11.5 54.9,12.4 54.7,10.8 "></polygon><polygon points="54.4,11.1 54.6,12.9 53.9,14.4 53.8,12.5 54.4,11.1 "></polygon><polygon points="54.1,10.1 52.8,9.5 53.7,9.3 "></polygon><polygon points="51.9,8.2 52.7,7.8 52.2,9 "></polygon><polygon points="53.1,7.9 53.6,8.9 52.6,9.2 "></polygon><polygon points="52.6,9.8 53.6,10.2 52.8,10.3 "></polygon><polygon points="53,10.7 53,10.6 53.1,10.6 "></polygon><polygon points="53.2,11 54.1,10.7 53.6,12 "></polygon><polygon points="53.8,17.2 54.7,17.3 55.2,18.9 53.3,17.8 "></polygon><polygon points="53.1,18.1 54.8,19.1 52.2,19.3 "></polygon><polygon points="52.7,21.8 51.4,21 51.8,20 "></polygon><polygon points="51.1,20.8 49.1,19.4 49.5,18.5 51.6,19.6 "></polygon><polygon points="51.4,19.1 49.6,18.1 50.1,15.8 "></polygon><polygon points="50,14.9 49,14.1 50.5,14.1 "></polygon><polygon points="50.5,11.1 50.7,13.4 49.8,12.3 "></polygon><polygon points="49.5,12.6 50.5,13.7 48.7,13.7 "></polygon><polygon points="48.4,14.2 49.6,15.1 47.7,15.5 "></polygon><polygon points="47.3,15.5 45.7,14.7 48,14.2 "></polygon><polygon points="47.3,13.6 46.1,13.4 46.2,13 "></polygon><polygon points="46,12 45.2,10.4 46.1,9.7 "></polygon><polygon points="46,8.9 44.7,7.8 45.7,7.7 "></polygon><polygon points="43.8,5.6 44.8,5.2 44.2,7.1 "></polygon><polygon points="45.1,5.6 45.6,7.3 44.5,7.5 "></polygon><polygon points="44.5,8.2 46,9.4 45,10 "></polygon><polygon points="44.9,10.7 45.8,12.6 43.9,12.8 "></polygon><polygon points="44.9,14.6 44.1,16.2 43.8,13.5 "></polygon><polygon points="43.5,13.7 43.8,16.5 42.4,15.9 "></polygon><polygon points="42.2,16.2 43.5,16.8 41.1,17.6 "></polygon><polygon points="41.3,13.8 41.9,15.7 40.1,15.1 "></polygon><polygon points="41.1,13.1 39.6,12.5 40.8,12.1 "></polygon><polygon points="40.6,11.3 39.8,10.7 40.2,9.9 "></polygon><polygon points="41.6,6.7 41.4,7.9 41,7.1 "></polygon><polygon points="40.8,7.6 41.3,8.4 40.5,8.9 "></polygon><polygon points="40.5,7.4 40.1,9 39.4,8.1 "></polygon><polygon points="39.8,9.2 38.5,9.3 39.1,8.4 "></polygon><polygon points="38.1,7 38.9,8.1 38.3,9 "></polygon><polygon points="38.5,10.1 39.4,10.8 39,11.9 "></polygon><polygon points="38.9,13 39.1,13.8 37.7,15 "></polygon><polygon points="39.4,15.5 38.6,16.9 37.4,16 "></polygon><polygon points="38.3,17.2 37.6,17.9 37.3,16.4 "></polygon><polygon points="36.8,20.3 36.2,18 37.2,18.4 "></polygon><polygon points="36.8,16 36.8,16 36.8,16 36.9,16 36.9,16 36.8,16.1 36.9,16.1 37.1,17.2 36.2,15.5 "></polygon><polygon points="37.1,17.9 36.1,17.6 35.9,15.8 "></polygon><polygon points="35.7,17.3 34.6,16.6 35.5,15.4 "></polygon><polygon points="34.4,14.4 34.3,13.9 35,13.3 "></polygon><polygon points="35.4,13.4 35.4,14.8 34.6,14.7 "></polygon><polygon points="34.5,15 35.3,15.1 34.5,16.1 "></polygon><polygon points="35.5,9.9 35.5,11.4 35.1,9.9 "></polygon><polygon points="35.3,12.3 34.3,11.5 34.8,10.3 "></polygon><polygon points="34.2,9.9 34.6,9.9 34.2,10.7 "></polygon><polygon points="34.2,11.9 35.3,12.7 34.2,13.4 "></polygon><polygon points="33.2,15.5 32.8,15.8 32.6,14.9 "></polygon><polygon points="32.8,14.6 33.9,14.9 33.4,15.3 "></polygon><polygon points="34.1,16.1 33.7,15.6 34.2,15.2 "></polygon><polygon points="33.9,14 34.1,14.6 33,14.2 "></polygon><polygon points="32.7,12.4 33.7,13.7 32.5,14 "></polygon><polygon points="31.4,11 32.1,11.8 30.7,11.7 "></polygon><polygon points="30.7,12.1 32.1,12.2 31.4,12.9 "></polygon><polygon points="31.7,13.2 32.3,12.5 32.2,13.8 "></polygon><polygon points="32.2,14.8 32.5,16.1 31.3,17 "></polygon><polygon points="31.7,15.1 30.8,17.3 30.2,16.3 "></polygon><polygon points="30.5,17.4 29.2,17.3 30,16.5 "></polygon><polygon points="29.7,16 28.6,15.9 29.2,14.3 "></polygon><polygon points="26.9,11.3 27.8,10.9 27.2,12.2 "></polygon><polygon points="28.1,11.1 28.9,13.4 27.4,12.6 "></polygon><polygon points="27.5,13.1 28.7,13.7 27.8,13.9 "></polygon><polygon points="28.3,15.6 27.9,14.3 28.9,14.1 "></polygon><polygon points="25.6,16.9 26.2,16 26.8,17.8 "></polygon><polygon points="27.2,17.7 26.7,16.1 27.5,16.7 "></polygon><polygon points="27.8,17 28.4,17.5 27.5,18 "></polygon><polygon points="27.5,18.4 28.5,17.8 28.5,19.2 "></polygon><path d="M28.2,23.3c0,0,0.1,0,0.1,0.1l1.1,1.6l-3.1-1.3L28.2,23.3L28.2,23.3z"></path><polygon points="27.8,23 26,23.4 26.4,21.6 "></polygon><polygon points="25.7,23.3 24.9,22.5 26.1,21.7 "></polygon><polygon points="25,20.1 25.7,20.8 23.3,19.9 22.9,17.1 "></polygon><polygon points="21.6,17.4 22.5,16.7 22.9,19.3 "></polygon><polygon points="19.8,21.6 19.8,20.5 21,21.6 "></polygon><polygon points="20.1,20.3 22.7,20.3 21.4,21.5 "></polygon><polygon points="21.8,21.6 23.1,20.4 23.6,21.6 "></polygon><polygon points="23.5,20.4 25.6,21.2 24,21.5 "></polygon><polygon points="24.3,21.9 25.4,21.6 24.6,22.2 "></polygon><polygon points="24.4,23.1 24.5,25.5 23.2,25.4 "></polygon><polygon points="23.6,26.9 22.2,26.9 22.9,25.9 "></polygon><polygon points="21.9,23.5 22.5,25.1 20.9,24 "></polygon><polygon points="21.9,26.7 21,24.5 22.7,25.7 "></polygon><polygon points="22.3,30 22.6,31.2 21.9,32.3 "></polygon><polygon points="21.4,32.8 20,31.9 22,29.8 "></polygon><polygon points="19.8,31.6 19.6,30 21.7,29.5 "></polygon><polygon points="19.2,29.7 18.4,30.4 19,28.2 "></polygon><polygon points="18.3,27 18.9,27.4 18.3,29.6 "></polygon><polygon points="18.4,30.9 19.3,30.2 19.5,31.6 "></polygon><polygon points="19.4,27.6 21.8,29.1 19.6,29.6 "></polygon><polygon points="19.8,32.3 21.2,33.1 19.2,34.8 "></polygon><polygon points="21.2,33.6 20.5,36.4 19.2,35.3 "></polygon><polygon points="14.5,35.4 16.8,35.4 14.5,35.8 "></polygon><polygon points="14.4,37.1 14.5,36.3 16.8,37.2 "></polygon><polygon points="15,36.1 18.6,35.6 17.8,37.2 "></polygon><polygon points="18.2,37.5 18.3,37.5 18.1,37.5 18.1,37.4 18.7,36.1 18.9,38.9 "></polygon><polygon points="19.1,35.7 20.4,36.8 19.2,39.1 "></polygon><polygon points="20.6,37.1 22.1,40.1 19.4,39.6 "></polygon><polygon points="19.7,40.6 21.3,42.1 20.4,42.1 "></polygon><polygon points="16.8,45.5 16.8,43.1 20.9,44.9 "></polygon><polygon points="17.3,42.9 20.2,42.5 21.2,44.6 "></polygon><polygon points="21.4,44.3 20.6,42.5 21.6,42.5 "></polygon><polygon points="19.7,40.1 22.2,40.5 21.7,42 "></polygon><polygon points="22,42.6 24.6,44 21.7,44.8 "></polygon><polygon points="24.9,44.4 25.4,45.7 22.4,45 "></polygon><polygon points="23.4,45.6 25.6,46.1 27.4,47.4 "></polygon><polygon points="26.3,46.2 29.6,46.3 28.9,48.1 "></polygon><polygon points="29.3,48.2 29.9,46.6 31.6,49.3 "></polygon><polygon points="30.1,46.3 31.7,45.7 31.8,49 "></polygon><polygon points="31.7,39.9 30.9,37.1 32,35.2 "></polygon><polygon points="32,41.2 37.1,43.4 32,45.2 "></polygon><polygon points="32,46.1 33.5,48.5 32.2,49.4 "></polygon><polygon points="32.4,49.7 33.7,48.9 33.9,50.3 "></polygon><polygon points="33.9,48.4 32.3,45.9 37.1,48.1 "></polygon><polygon points="34,48.7 37.1,48.5 34.2,50.3 "></polygon><polygon points="34.4,50.6 37.2,48.8 35.2,51.7 "></polygon><polygon points="35.5,52 37.3,49.2 36.3,53 "></polygon><polygon points="37.6,54.6 36.6,53.4 37.6,49.6 "></polygon><polygon points="37.7,47.9 32.6,45.6 38.9,45.1 "></polygon><polygon points="38,48.8 40.6,53.1 38,54.8 "></polygon><polygon points="40.8,53.5 41.3,57.3 38.1,55.2 "></polygon><polygon points="38.9,56.2 41.4,57.8 43.7,62 "></polygon><polygon points="42,58.2 44.5,59.8 44.6,62.9 "></polygon><polygon points="44.8,59.4 44.5,57.3 47.5,58.5 "></polygon><polygon points="44.8,59.8 47.6,58.9 45,63.1 "></polygon><polygon points="45,93.6 47.5,92.9 45,97.4 "></polygon><polygon points="47.9,92.9 50.3,95.5 45.3,97.7 "></polygon><polygon points="45.8,97.9 50.6,95.8 53.9,97.9 "></polygon><polygon points="50.9,95.5 53.1,92.5 54.3,97.6 "></polygon><polygon points="54.7,97.9 53.6,93 56.7,97.9 "></polygon><polygon points="56.9,97.4 53.6,92.4 56.9,93.3 "></polygon><polygon points="56.9,91.4 55.9,86.9 56.9,83.9 "></polygon><polygon points="56.9,82.1 55.4,79.8 56.9,78.9 "></polygon><polygon points="56.9,78.5 55.6,79.2 56.9,77 "></polygon><polygon points="56.9,76 55.1,74.5 56.9,72.9 "></polygon><polygon points="56.9,72.1 55.1,70.3 56.9,68.6 "></polygon><polygon points="56.9,68.1 55.1,69.7 56.9,63.4 "></polygon><polygon points="57.1,61.4 56.2,57.5 58.1,58.1 "></polygon><polygon points="57.6,61.2 58.5,58.1 61.2,56.5 "></polygon><polygon points="58.6,57.6 59.3,53.5 61.7,55.8 "></polygon><polygon points="59.5,53.1 61.2,51.7 61.7,55.3 "></polygon><polygon points="62.1,55.4 61.6,51.5 64.7,52.1 "></polygon><polygon points="64.9,51.8 62,51.2 67.2,48.9 "></polygon><polygon points="62.3,50.7 65.2,47.8 67.3,48.5 "></polygon><polygon points="65.4,47.5 67.6,42.9 67.6,48.2 "></polygon><polygon points="67.9,42.8 69.1,44.9 68,47.6 "></polygon><polygon points="68.1,48.2 69.3,45.4 70.2,47.5 "></polygon><polygon points="70.3,46.9 69.6,44.9 70.8,43.4 "></polygon><polygon points="71.1,43.4 72.2,45.1 70.7,47 "></polygon><polygon points="70.9,47.3 72.4,45.4 73.6,46.5 "></polygon><polygon points="72.6,45 73.4,43.2 73.8,46.1 "></polygon><polygon points="73.8,43.1 74.9,44.6 74.1,45.9 "></polygon><polygon points="74.4,46.2 75.1,44.9 75.9,45.8 "></polygon><polygon points="76.2,45.5 75.4,44.7 76.9,44.1 "></polygon><polygon points="76.6,45.5 77.4,44 79.6,44.6 "></polygon><polygon points="78,43.8 79.9,43.3 80,44.4 "></polygon><polygon points="80,41 81.8,41.1 80.2,42.7 "></polygon><polygon points="80.2,43.3 83,42.8 80.4,44.3 "></polygon><polygon points="82.4,44.5 80.9,44.4 83.5,42.9 "></polygon><polygon points="82.9,44.5 84,42.8 84.9,44.6 "></polygon><polygon points="85.1,44.2 84.3,42.4 85.6,41.5 "></polygon><polygon points="85.9,41.6 87.8,44.5 85.4,44.6 "></polygon><polygon points="86,45 88,44.9 88.1,46 "></polygon><polygon points="88.2,42.4 87.9,40.2 89.4,39.3 "></polygon><polygon points="88.4,45 90,46 88.5,46.1 "></polygon><polygon points="90.4,46.3 90.2,47.3 88.9,46.4 "></polygon><polygon points="89.9,48.5 88.9,46.9 90.1,47.7 "></polygon><polygon points="90.6,49.6 90.3,49.1 91.5,49 "></polygon><polygon points="90.2,48.7 90.4,47.9 91.6,48.6 "></polygon><polygon points="91.7,48.2 90.5,47.5 90.7,46.6 "></polygon><polygon points="93.9,45.4 91.3,45.8 93.7,43.8 "></polygon><polygon points="93.2,43.7 91.1,45.5 91.8,43.9 "></polygon><polygon points="91.3,44 90.7,45.5 90.4,44.1 "></polygon><polygon points="90.4,45.7 88.6,44.7 90,44.2 "></polygon><polygon points="89.7,44 88.3,44.4 88.3,43.3 "></polygon><polygon points="89.6,42 88.5,42.6 89.6,39.9 "></polygon><polygon points="89.7,38.4 88.4,36.7 89.9,36.6 "></polygon><polygon points="88.8,32.9 90.3,33 90,35.7 "></polygon><polygon points="90,41.8 90,39.5 91.1,41.2 "></polygon><polygon points="91.2,40.7 90.3,39.3 91.2,39.6 "></polygon><polygon points="90.3,38.9 91.6,38.2 91.3,39.2 "></polygon><polygon points="91.6,41 91.6,39.7 93.2,40.2 "></polygon><polygon points="91.6,39.3 92,38.2 93.2,39.8 "></polygon><polygon points="93.6,39.7 92.3,38 93.8,38 "></polygon><polygon points="93.9,39.9 94.1,38.4 94.9,39.7 "></polygon><polygon points="94.4,38.2 95.6,38.5 95.2,39.4 "></polygon><polygon points="95.5,39.6 95.9,38.7 96.6,39.4 "></polygon><polygon points="96.2,38.4 97.5,37.6 96.8,39.1 "></polygon><polygon points="97.2,39.3 97.8,37.8 98,39.1 "></polygon></svg>