<svg fill="#00DCFF" xmlns="http://www.w3.org/2000/svg" xmlns:xlink="http://www.w3.org/1999/xlink" version="1.1" x="0px" y="0px" viewBox="0 0 100 100" enable-background="new 0 0 100 100" xml:space="preserve"><polygon points="64.829,68.799 65.331,68.665 64.963,68.665 "></polygon><polygon points="73.688,56.166 71.434,60.271 72.097,60.271 73.735,56.847 74.05,56.166 "></polygon><path d="M77.485,56.606h-0.971c-0.004,0-0.012,0-0.019-0.001c-0.012-0.001-0.019-0.013-0.03-0.019  c-0.014-0.007-0.028-0.011-0.04-0.023c-0.009-0.012-0.012-0.025-0.017-0.041c-0.004-0.012-0.014-0.021-0.014-0.035  c0-0.004,0.002-0.006,0.005-0.01c0-0.003-0.005-0.006-0.003-0.009l0.179-1.153h-0.867l-0.108,0.748  c-0.002,0.019-0.014,0.03-0.023,0.044c-0.007,0.01-0.007,0.019-0.014,0.026c-0.023,0.02-0.049,0.032-0.082,0.032h-1.167  l-0.284,0.612h3.43L77.485,56.606z"></path><polygon points="71.229,60.512 71.017,60.512 70.374,61.836 70.761,61.836 71.624,61.091 71.8,60.915 71.804,60.912 71.807,60.907   72.271,60.512 72.172,60.512 "></polygon><path d="M71.745,61.302l-0.616,0.534h0.223c0.017,0,0.026,0.011,0.04,0.017c0.014,0.004,0.033,0.004,0.045,0.016  c0,0,0,0.002,0,0.003c0.009,0.009,0.012,0.024,0.016,0.037c0.008,0.017,0.02,0.029,0.02,0.047c0,0.015-0.01,0.024-0.015,0.038  c-0.007,0.016-0.007,0.032-0.019,0.047l-5.937,6.084h0.063l4.82-4.279l0.045-0.045c0-0.002,0.002-0.001,0.005-0.002v-0.003  l2.817-2.493h-1.446H71.745z"></path><path d="M70.806,62.075h-0.623h-5.347l-1.177,4.239c-0.002,0.015-0.014,0.022-0.021,0.033c-0.005,0.009-0.01,0.017-0.017,0.023  c-0.021,0.019-0.047,0.032-0.077,0.032h-3.361l-0.785,1.368h-0.002l-0.757,1.335L58.585,69.2h0.223h2.886h1.731h0.664l0.253-0.254  c0-0.001,0,0,0-0.001l0.487-0.483l0,0l0.3-0.303l5.939-6.084H70.806z"></path><polygon points="73.288,66.162 76.52,66.162 81.535,57.017 77.638,57.017 "></polygon><path d="M77.703,34.95l0.021,0.145l0.506,0.938c0.003,0.007,0,0.012,0.003,0.019c0.002,0.008,0.009,0.011,0.012,0.02l1.683,9.68  h2.435h1.133L81.639,34.95H77.703z"></path><polygon points="79.189,45.989 78.198,45.989 76.834,55.214 76.834,55.215 76.655,56.368 77.624,56.368 80.438,56.368 82.22,45.989   79.827,45.989 "></polygon><path d="M27.854,35.97h8.121l0.021-0.289v-0.008c0.003-0.016,0.015-0.026,0.019-0.04c0.008-0.013,0.01-0.028,0.02-0.038  c0.016-0.016,0.035-0.019,0.054-0.023c0.012-0.002,0.019-0.012,0.028-0.012h0.64l1.495-5.423l0.593-2.203H38h-2.521h-3.387h-1.456  l-0.335,0.705L26.8,35.97H27.854z"></path><polygon points="66.261,34.95 66.292,35.243 66.292,35.245 66.292,35.246 66.458,37.355 67.194,45.751 77,45.751 78.095,45.751   79.051,45.751 77.64,36.108 77.643,36.107 77.492,35.152 77.46,34.95 77.457,34.95 76.304,34.95 "></polygon><path d="M34.558,63.415h2.925c0.007,0,0.009,0.005,0.014,0.005c0.017,0.003,0.028,0.01,0.04,0.018  c0.017,0.009,0.028,0.015,0.037,0.027c0.003,0.005,0.01,0.005,0.012,0.009l0.79,1.353h0.809h0.812l-0.453-0.778h-0.541  c-0.03,0-0.057-0.012-0.077-0.031c-0.007-0.006-0.01-0.016-0.017-0.022c-0.007-0.011-0.017-0.019-0.021-0.031l-0.201-0.688h-4.266  L34.558,63.415z"></path><polygon points="47.249,20.023 50.41,18.282 50.41,17.265 45.451,20.023 "></polygon><polygon points="35.286,55.076 35.232,54.481 34.822,54.481 34.888,55.076 "></polygon><polygon points="35.211,54.242 34.487,45.989 34.107,45.989 34.799,54.242 "></polygon><polygon points="40.459,65.662 40.335,65.457 39.165,65.067 38.504,65.067 38.537,65.134 "></polygon><polygon points="47.745,20.023 50.41,20.023 50.41,19.627 50.41,18.556 "></polygon><polygon points="42.746,69.2 44.089,69.2 50.41,69.2 50.41,68.576 50.41,67.712 50.41,66.283 50.41,64.048 39.819,64.048   40.307,64.888 40.309,64.89 40.312,64.892 40.518,65.296 40.822,65.794 40.822,65.797 40.824,65.799 40.824,65.799 41.537,67.074   42.327,68.487 "></polygon><polygon points="41.228,67.013 40.64,65.96 38.703,65.427 39.604,67.013 "></polygon><polygon points="40.904,68.427 42.018,68.427 41.361,67.252 39.739,67.252 40.285,68.22 "></polygon><polygon points="34.597,45.751 35.141,45.751 35.832,37.486 34.688,37.486 29.842,37.486 28.604,45.751 33.976,45.751 "></polygon><path d="M58.276,69.262l0.004-0.007l-2.006,0.644l1.992-0.552c0-0.004,0.002-0.008,0.002-0.011c-0.002-0.005-0.007-0.01-0.007-0.016  c0-0.011,0.01-0.018,0.012-0.028C58.276,69.282,58.271,69.271,58.276,69.262z"></path><polygon points="50.41,27.934 41.897,27.934 41.607,28.468 50.41,28.468 "></polygon><polygon points="24.198,45.751 25.062,45.751 26.41,36.649 25.56,36.649 "></polygon><polygon points="35.537,55.188 35.537,55.196 35.621,56.368 36.952,56.368 50.41,56.368 50.41,55.637 50.41,45.989 35.251,45.989   34.729,45.989 35.462,54.351 35.537,55.186 35.537,55.187 "></polygon><polygon points="27.843,36.411 34.78,36.411 35.933,36.411 35.954,36.212 27.932,36.212 "></polygon><path d="M29.619,37.349c0.002-0.015,0.014-0.021,0.021-0.033c0.008-0.014,0.012-0.028,0.023-0.037  c0.012-0.011,0.026-0.012,0.04-0.018c0.012-0.004,0.021-0.016,0.035-0.016h4.843l0.065-0.596h-6.989h-1.006l-1.345,9.102h3.054  L29.619,37.349z"></path><polygon points="34.822,37.245 35.854,37.245 35.909,36.649 34.888,36.649 "></polygon><polygon points="36.229,35.802 36.207,36.091 36.207,36.099 36.207,36.102 36.207,36.104 36.16,36.543 36.16,36.544 36.083,37.376   35.382,45.751 50.41,45.751 50.41,36.53 50.41,35.802 37.56,35.802 36.847,35.802 "></polygon><polygon points="37.004,35.56 37.468,35.56 38.907,30.286 38.457,30.286 "></polygon><path d="M38.522,30.048h0.45l0.417-1.493c0.003-0.01,0.015-0.015,0.02-0.023c0.007-0.015,0.014-0.026,0.027-0.035  c0.012-0.01,0.023-0.013,0.04-0.017c0.01-0.004,0.017-0.012,0.028-0.012h1.828l0.293-0.534h-2.533L38.522,30.048z"></path><polygon points="39.597,28.707 39.182,30.197 39.182,30.198 37.717,35.56 50.41,35.56 50.41,28.707 41.403,28.707 "></polygon><path d="M38.616,63.036l-1.755-6.43h-1.353c-0.033,0-0.061-0.013-0.082-0.033c-0.01-0.009-0.01-0.021-0.014-0.029  c-0.01-0.017-0.021-0.029-0.023-0.049v-0.008l-0.082-1.172h-0.396l0.141,1.571c0,0.001-0.002,0.004-0.002,0.006  c0,0.001,0.002,0.003,0.002,0.005c0,0.016-0.01,0.025-0.014,0.039c-0.008,0.015-0.008,0.029-0.02,0.041  c-0.009,0.012-0.025,0.014-0.039,0.021c-0.015,0.006-0.021,0.018-0.035,0.019c-0.005,0-0.008,0-0.012,0h-6.279l1.572,3.322  l1.2,2.521l0.087,0.176h0.077h2.538H38.616z"></path><polygon points="19.958,45.989 18.84,45.989 20.621,56.368 23.296,56.368 21.768,45.989 "></polygon><polygon points="29.929,60.271 28.389,57.017 28.119,57.017 29.9,60.271 "></polygon><polygon points="34.801,56.778 34.66,55.21 34.66,55.209 34.569,54.374 34.569,54.373 34.569,54.371 33.866,45.989 28.464,45.989   25.166,45.989 24.058,45.989 22.011,45.989 23.554,56.47 23.554,56.471 23.601,56.778 27.915,56.778 28.464,56.778 "></polygon><polygon points="19.524,57.017 24.538,66.162 27.772,66.162 23.422,57.017 "></polygon><polygon points="29.83,60.512 28.782,60.512 30.957,62.433 30.043,60.512 "></polygon><path d="M50.53,74.286c-0.02,0-0.04-0.005-0.057-0.015l-0.804-0.44c-0.003,0-0.003-0.002-0.003-0.002h-0.002l-0.274-0.167  l-0.019-0.009v10.293h0.354h1.123h1.125h0.35V73.719l-1.756,0.562C50.556,74.284,50.542,74.286,50.53,74.286z"></path><polygon points="31.923,63.274 32.092,63.415 34.218,63.415 34.079,63.274 "></polygon><polygon points="49.513,73.456 49.515,73.456 49.784,73.62 50.41,73.964 50.41,72.89 50.41,71.614 50.41,69.743 44.651,69.743   42.808,69.743 45.135,71.037 49.511,73.454 "></polygon><polygon points="40.995,69.928 40.236,68.605 40.101,68.38 40.101,68.378 40.101,68.377 39.43,67.191 38.352,65.293 38.35,65.29   38.199,65.002 37.414,63.654 34.508,63.654 32.047,63.654 28.248,63.654 35.832,71.389 41.807,71.389 40.995,69.929 "></polygon><path d="M42.275,69.716c-0.015-0.01-0.021-0.021-0.028-0.035c-0.01-0.015-0.014-0.025-0.017-0.04  c-0.002-0.007-0.007-0.01-0.007-0.017c0-0.012,0.01-0.019,0.012-0.028c0.002-0.011-0.002-0.021,0.002-0.03  c0.005-0.005,0.01-0.005,0.015-0.01c0.009-0.014,0.021-0.021,0.035-0.027c0.014-0.01,0.025-0.016,0.042-0.018  c0.005-0.002,0.01-0.006,0.014-0.006h1.836l-0.12-0.063h-1.38c-0.04,0-0.07-0.023-0.092-0.054c-0.002-0.004-0.01-0.003-0.012-0.006  l-0.422-0.717h-1.268h-0.338l0.633,1.102l2.777,0.891l-1.674-0.928C42.28,69.726,42.28,69.72,42.275,69.716z"></path><polygon points="23.954,45.751 25.337,36.513 25.438,35.802 24.573,35.802 21.819,35.802 20.101,45.751 21.87,45.751 "></polygon><polygon points="40.628,22.903 37.688,23.851 40.086,23.851 "></polygon><polygon points="37.796,25.604 37.722,25.681 35.762,27.694 37.93,27.694 39.934,24.15 39.235,24.15 37.799,25.604 "></polygon><path d="M40.257,24.062c-0.002,0.007-0.009,0.01-0.012,0.016c0,0.004,0.003,0.009,0,0.013l-2.039,3.604h0.795h2.826h8.583v-0.67  v-4.693v-0.168v-0.197v-1.078v-0.623h-3.131h-2.292h-2.574l-0.904,1.578l-0.305,0.547c0,0.001,0,0-0.002,0.001l-0.211,0.363v0.001  l-0.723,1.262L40.257,24.062z"></path><path d="M42.24,20.084c0.002-0.005,0.009-0.006,0.012-0.009c0.009-0.015,0.021-0.021,0.035-0.028  c0.014-0.007,0.025-0.015,0.042-0.017c0.005-0.001,0.01-0.007,0.014-0.007h2.613l4.458-2.479l-12.862,4.12h4.781L42.24,20.084z"></path><path d="M37.367,25.697c-0.007-0.003-0.014-0.007-0.021-0.013c-0.008-0.006-0.01-0.016-0.017-0.022  c-0.007-0.012-0.019-0.021-0.021-0.035c-0.002-0.005,0.003-0.009,0.003-0.015c-0.003-0.006-0.008-0.01-0.008-0.016  c0-0.012,0.01-0.019,0.012-0.029c0.005-0.016,0.008-0.028,0.017-0.041c0.01-0.012,0.021-0.019,0.035-0.027  c0.01-0.006,0.015-0.015,0.026-0.019l0.255-0.069l1.308-1.321h-2.034c-0.028,0-0.054-0.012-0.077-0.032  c-0.007-0.006-0.01-0.013-0.014-0.02c-0.008-0.012-0.02-0.019-0.023-0.03c-0.003-0.007,0.002-0.013,0.002-0.021  c0-0.006-0.007-0.01-0.007-0.018c0-0.01,0.009-0.016,0.012-0.025c0.002-0.017,0.007-0.028,0.017-0.041  c0.009-0.013,0.019-0.02,0.032-0.029c0.01-0.005,0.012-0.016,0.021-0.019l3.921-1.261l0.084-0.144h-3.355l-5.156,5.243h3.049  L37.367,25.697z"></path><polygon points="27.913,26.904 35.497,19.17 33.55,19.17 24.786,26.904 26.472,26.904 "></polygon><path d="M28.358,28.53c0.002-0.006,0.009-0.006,0.014-0.011c0.01-0.015,0.021-0.021,0.035-0.028c0.014-0.01,0.025-0.016,0.04-0.018  c0.007-0.001,0.009-0.006,0.017-0.006h0.407l0.619-1.324h-1.523c0,0,0,0.001-0.003,0.001v-0.001h-0.002h-1.418l-4.622,8.416h2.581  L28.358,28.53z"></path><path d="M28.534,28.707l-3.758,6.853h0.8c0.005,0,0.005,0.004,0.009,0.005c0.003,0,0.005-0.003,0.008-0.002  c0.014,0.001,0.023,0.013,0.035,0.019c0.012,0.007,0.025,0.012,0.037,0.023c0.01,0.012,0.012,0.025,0.017,0.041  c0.005,0.013,0.014,0.022,0.014,0.035c0,0.004-0.002,0.006-0.002,0.008c0,0.004,0.002,0.006,0.002,0.01l-0.101,0.713h0.954h1.031  l0.089-0.199h-1.06c-0.017,0-0.035-0.005-0.052-0.012c-0.007-0.005-0.007-0.012-0.014-0.017c-0.012-0.01-0.021-0.019-0.03-0.033  c-0.007-0.014-0.015-0.024-0.017-0.04c0-0.007-0.007-0.012-0.007-0.02c0-0.011,0.007-0.016,0.009-0.024  c0.003-0.01-0.002-0.019,0.003-0.027l3.501-7.332h-1.055H28.534z"></path><polygon points="34.386,21.664 35.765,21.664 44.689,18.805 "></polygon><polygon points="40.131,65.067 39.925,65.067 40.173,65.149 "></polygon><polygon points="65.919,45.751 66.952,45.751 66.229,37.486 65.194,37.486 "></polygon><polygon points="50.649,73.962 54.188,71.999 50.649,72.98 "></polygon><polygon points="65.171,45.751 65.678,45.751 64.953,37.486 63.937,37.486 64.658,45.751 "></polygon><path d="M66.041,34.751c0.009-0.012,0.025-0.015,0.04-0.021c0.012-0.007,0.021-0.019,0.035-0.021c0.002,0,0.002,0.002,0.004,0.002  c0.003,0,0.005-0.003,0.008-0.003h9.986l-2.866-6.054l-0.71-1.512h-8.993c-0.028,0-0.052-0.012-0.075-0.03  c-0.005-0.005-0.01-0.01-0.014-0.017c-0.005-0.005-0.012-0.01-0.017-0.017l-0.047-0.087l0.862,3.143l1.357,5h0.426l-0.03-0.293  c0-0.002,0.003-0.005,0.003-0.007c0-0.003-0.003-0.004-0.003-0.006c0-0.016,0.01-0.024,0.015-0.038  C66.029,34.777,66.029,34.763,66.041,34.751z"></path><path d="M62.572,26.904c0.012,0,0.019,0.01,0.03,0.012c0.014,0.005,0.028,0.007,0.04,0.017s0.019,0.021,0.025,0.035  c0.007,0.01,0.017,0.014,0.021,0.024l0.827,3.056h0.464l-1.036-3.782c-0.002-0.006,0.003-0.011,0.003-0.017  c-0.003-0.006-0.007-0.009-0.007-0.015c0-0.012,0.009-0.019,0.012-0.028c0.002-0.007,0-0.014,0.002-0.021l-0.27-0.469h-0.809h-1.768  l0.683,1.188H62.572z"></path><polygon points="64.909,55.076 65.678,45.989 65.281,45.989 64.496,55.076 "></polygon><polygon points="73.412,56.166 73.067,56.166 71.132,60.271 71.159,60.271 "></polygon><polygon points="73.546,28.724 76.382,34.709 77.253,34.709 73.939,28.724 "></polygon><polygon points="74.01,28.484 74.27,28.484 72.84,27.226 73.433,28.484 "></polygon><polygon points="77.956,45.989 77.104,45.989 75.744,55.076 76.611,55.076 "></polygon><polygon points="62.314,24.565 62.314,24.565 62.316,24.569 62.558,25.006 62.558,25.006 62.694,25.25 62.694,25.251 62.858,25.536   62.86,25.537 63.226,26.175 63.226,26.177 63.226,26.178 63.617,26.904 72.612,26.904 72.793,26.904 72.812,26.904 65.228,19.17   59.241,19.17 61.632,23.365 "></polygon><polygon points="74.237,55.927 75.378,55.927 75.483,55.18 75.483,55.179 76.862,45.989 67.084,45.989 65.919,45.989 65.139,55.205   65.139,55.206 65.075,55.927 72.992,55.927 73.616,55.927 "></polygon><polygon points="61.103,25.478 59.736,25.041 59.973,25.478 "></polygon><path d="M65.035,35.75c-0.009,0.013-0.021,0.02-0.035,0.028c-0.009,0.004-0.014,0.015-0.023,0.019  c-0.012,0.002-0.021,0.005-0.032,0.005h-2.715l0.162,0.609h1.353c0.012,0,0.019,0.009,0.03,0.012  c0.019,0.004,0.04,0.007,0.054,0.021c0.005,0.006,0.005,0.016,0.01,0.021c0.012,0.018,0.023,0.034,0.025,0.055l0.054,0.725h1.146  h1.146l-0.148-1.87h-0.541c-0.03,0-0.057-0.012-0.077-0.032c-0.007-0.006-0.01-0.015-0.015-0.021  c-0.009-0.012-0.021-0.021-0.023-0.034l-1.359-5.001h-0.464l1.477,5.363c0.003,0.004-0.002,0.009,0,0.016  c0,0.005,0.005,0.01,0.005,0.016c0,0.012-0.01,0.02-0.012,0.029C65.047,35.726,65.045,35.738,65.035,35.75z"></path><path d="M70.107,61.836l0.727-1.495l1.969-4.175h-7.858c-0.003,0-0.008,0-0.01,0c-0.017-0.001-0.023-0.013-0.037-0.019  c-0.015-0.007-0.028-0.01-0.04-0.021c-0.01-0.012-0.012-0.026-0.017-0.042c-0.005-0.012-0.017-0.023-0.017-0.037  c0-0.003,0.003-0.004,0.003-0.005c0-0.002-0.003-0.005-0.003-0.006l0.063-0.721h-0.41l-0.023,0.321v0.008  c0,0.019-0.014,0.032-0.021,0.048c-0.007,0.01-0.007,0.021-0.016,0.029c-0.021,0.021-0.05,0.034-0.082,0.034h-0.638l-0.202,0.762  c0,0.001-0.002,0.001-0.002,0.001l-0.065,0.26h2.7c0.007,0,0.009,0.004,0.016,0.006c0.005,0.001,0.01-0.004,0.017-0.003  c0.01,0.004,0.015,0.013,0.023,0.021c0.015,0.007,0.026,0.014,0.035,0.025c0.01,0.014,0.015,0.025,0.017,0.042  c0.005,0.01,0.012,0.017,0.012,0.028c0,0.006-0.005,0.01-0.005,0.016c-0.002,0.006,0.003,0.01,0.003,0.016l-1.344,4.907H70.107z"></path><polygon points="77.862,35.97 77.924,35.97 77.837,35.808 "></polygon><polygon points="79.684,45.751 78.024,36.212 77.897,36.212 79.295,45.751 "></polygon><polygon points="62.549,25.478 62.511,25.411 61.663,25.181 61.66,25.18 59.479,24.572 59.572,24.736 61.895,25.478 "></polygon><polygon points="63.224,56.606 50.649,56.606 50.649,56.778 63.182,56.778 "></polygon><polygon points="53.263,67.592 57.006,67.592 57.676,66.403 50.649,66.403 50.649,67.592 52.109,67.592 "></polygon><polygon points="50.649,67.831 50.649,68.374 51.641,67.831 "></polygon><polygon points="60.113,66.162 63.453,66.162 64.63,61.925 64.63,61.924 65.971,57.017 63.272,57.017 50.649,57.017 50.649,63.929   50.649,66.162 57.88,66.162 "></polygon><polygon points="59.223,67.592 59.907,66.403 57.95,66.403 57.282,67.592 "></polygon><polygon points="52.487,67.831 52.14,67.831 51.667,68.091 "></polygon><path d="M50.649,71.705v1.02l5.252-1.692l2.757-1.514c0.012-0.005,0.021,0,0.03-0.004c0.012-0.002,0.019-0.01,0.028-0.01h1.985  l0.203-0.063h-2.081L50.649,71.705z"></path><polygon points="57.093,70.653 59.949,69.743 58.749,69.743 "></polygon><polygon points="62.268,69.509 62.27,69.509 62.27,69.508 62.519,69.441 61.712,69.441 60.756,69.739 60.753,69.739 56.117,71.216   "></polygon><polygon points="61.456,23.544 59.216,23.544 61.953,24.417 "></polygon><path d="M44.683,69.505h5.848c0.065,0,0.119,0.054,0.119,0.119v1.826l7.805-2.504l0.633-1.115h-2.011h-3.795l-2.632,0.833v0.656  c0,0.067-0.054,0.121-0.119,0.121h-5.965L44.683,69.505z"></path><polygon points="52.651,22.21 50.649,21.092 50.649,21.876 51.821,22.21 "></polygon><polygon points="54.247,22.21 51.646,21.373 53.146,22.21 "></polygon><polygon points="59.797,25.656 59.797,25.655 59.795,25.653 59.387,24.896 59.129,24.441 59.129,24.438 58.628,23.579   58.571,23.491 58.569,23.485 58.564,23.482 57.992,22.451 55.436,22.451 55.011,22.451 53.112,22.451 51.805,22.451 51.639,22.451   51.182,22.451 50.818,22.451 50.649,22.451 50.649,26.904 60.515,26.904 "></polygon><polygon points="63.448,55.756 50.649,55.756 50.649,56.368 63.287,56.368 "></polygon><polygon points="61.71,24.945 62.249,24.945 62.127,24.724 58.991,23.724 59.312,24.277 "></polygon><polygon points="50.649,19.831 50.649,20.144 50.649,20.802 54.885,22.163 "></polygon><polygon points="64.787,35.56 63.311,30.2 63.311,30.198 62.48,27.144 60.721,27.144 50.649,27.144 50.649,27.813 50.649,28.587   50.649,35.56 62.073,35.56 "></polygon><polygon points="64.222,55.517 64.245,55.196 64.245,55.188 64.245,55.187 64.245,55.186 65.04,45.989 64.548,45.989 50.649,45.989   50.649,55.517 63.605,55.517 "></polygon><polygon points="63.686,37.376 63.686,37.375 63.686,37.374 63.634,36.649 62.3,36.649 50.649,36.649 50.649,45.751 64.417,45.751   "></polygon><polygon points="61.981,35.802 50.649,35.802 50.649,36.411 62.144,36.411 "></polygon><polygon points="38.891,63.125 39.09,63.81 39.61,63.81 50.41,63.81 50.41,56.897 50.41,56.606 37.109,56.606 38.891,63.124 "></polygon><polygon points="55.178,71.727 51.652,73.681 63.945,69.743 62.316,69.743 "></polygon></svg>