<svg fill="#00DCFF" xmlns="http://www.w3.org/2000/svg" xmlns:xlink="http://www.w3.org/1999/xlink" version="1.1" x="0px" y="0px" viewBox="0 0 100 100" enable-background="new 0 0 100 100" xml:space="preserve"><path d="M89.0908203,32.6445313c0-6.8344727-16.7822266-12.3945313-37.4101563-12.3945313  s-37.4101563,5.5600586-37.4101563,12.3945313c0,6.0449829,13.1322632,11.0899048,30.4389648,12.175415l6.034668,15.8405762  v29.479126c0,0.1381836,0.1123047,0.25,0.25,0.25s0.25-0.1118164,0.25-0.25V67.6748047l5.2861328-7.3237305  c0.0126953-0.0180664,0.0224609-0.0371094,0.0302734-0.0576172l5.9984741-15.7905273  C77.8972168,42.9553833,89.0908203,38.225708,89.0908203,32.6445313z M45.2563477,44.852417  c1.7894897,0.1030884,3.621582,0.1634521,5.487793,0.178772v14.2262573L45.2563477,44.852417z M56.1054688,60.0849609  l-4.8613281,6.7341309V45.0354004c0.1459961,0.0005493,0.2901611,0.0036621,0.4365234,0.0036621  c3.5813599,0,7.0423584-0.1710815,10.3241577-0.4838257L56.1054688,60.0849609z M51.6806641,44.5390625  c-20.3525391,0-36.9101563-5.3359375-36.9101563-11.8945313S31.328125,20.75,51.6806641,20.75  s36.9101563,5.3359375,36.9101563,11.8945313S72.0332031,44.5390625,51.6806641,44.5390625z"></path></svg>