<svg fill="#00DCFF" xmlns="http://www.w3.org/2000/svg" xmlns:xlink="http://www.w3.org/1999/xlink" version="1.1" x="0px" y="0px" viewBox="0 0 100 100" enable-background="new 0 0 100 100" xml:space="preserve"><path d="M24.513,43.87v-6.258h-0.748v12.502h0.87v-6.125h-0.003C24.566,43.989,24.513,43.936,24.513,43.87z"></path><rect x="60.382" y="31.263" width="0.747" height="6.11"></rect><rect x="56.343" y="31.263" width="3.8" height="6.11"></rect><rect x="37.783" y="18.522" width="2.677" height="6.122"></rect><polygon points="49.663,18.522 48.354,18.522 48.354,24.765 48.354,31.024 49.663,31.024 "></polygon><rect x="47.655" y="24.886" width="0.459" height="6.139"></rect><polygon points="19.422,37.612 19.422,50.114 23.526,50.114 23.526,37.612 20.821,37.612 "></polygon><polygon points="33.257,31.144 33.257,37.373 36.904,37.373 43.495,37.373 45.154,37.373 45.154,31.144 45.154,24.886   40.579,24.886 37.663,24.886 34.169,24.886 33.257,24.886 "></polygon><rect x="34.288" y="18.522" width="3.256" height="6.122"></rect><path d="M29.627,24.765v6.26h3.392v-6.26c0-0.066,0.054-0.12,0.119-0.12h0.912v-6.122h-8.766v6.122h4.223  C29.573,24.645,29.627,24.698,29.627,24.765z"></path><path d="M43.614,43.751h2.447h1.46v-6.258c0-0.066,0.054-0.12,0.119-0.12h8.464v-6.11h-6.321h-1.55h-0.698h-2.142v6.23  c0,0.065-0.055,0.119-0.12,0.119h-1.659V43.751z"></path><path d="M60.262,31.024h0.867v-6.26c0-0.066,0.054-0.12,0.12-0.12h0.897v-6.122H49.902v12.502h6.321H60.262z"></path><polygon points="77.746,37.373 77.746,31.144 77.746,24.886 71.439,24.886 71.439,37.373 72.611,37.373 "></polygon><rect x="62.386" y="18.522" width="7.068" height="6.122"></rect><polygon points="51.349,59.908 50.224,59.908 49.872,59.908 49.872,81.946 50.224,81.946 51.349,81.946 52.457,81.946   52.823,81.946 52.823,59.908 52.457,59.908 "></polygon><rect x="19.164" y="37.612" width="0.019" height="12.502"></rect><rect x="70.437" y="43.989" width="0.262" height="6.125"></rect><rect x="70.437" y="37.612" width="0.262" height="6.139"></rect><polygon points="69.874,50.114 70.197,50.114 70.197,43.87 70.197,37.612 69.874,37.612 "></polygon><polygon points="60.412,37.612 60.412,50.114 68.858,50.114 69.573,50.114 69.635,50.114 69.635,37.612 61.249,37.612 "></polygon><polygon points="71.2,24.886 69.573,24.886 62.266,24.886 61.368,24.886 61.368,31.144 61.368,37.373 69.754,37.373 70.316,37.373   70.818,37.373 71.2,37.373 "></polygon><rect x="68.979" y="50.355" width="0.476" height="12.501"></rect><polygon points="81.553,37.612 81.553,50.114 82.226,50.114 82.226,37.612 82.192,37.612 "></polygon><path d="M82.073,24.886h-4.088v6.139h1.353c0.065,0,0.119,0.054,0.119,0.119v6.229h1.976h0.641V24.886z"></path><path d="M72.491,43.87v-6.258h-1.172h-0.382v6.258v6.244h1.113V43.87c0-0.065,0.054-0.119,0.12-0.119  c0.065,0,0.119,0.054,0.119,0.119v6.244h6.276v-6.125h-5.955C72.546,43.989,72.491,43.936,72.491,43.87z"></path><path d="M77.985,37.493c0,0.065-0.054,0.119-0.119,0.119H72.73v6.139h5.956h0.531v-6.258v-6.23h-1.232V37.493z"></path><polygon points="29.388,31.144 29.388,24.886 25.164,24.886 20.94,24.886 20.94,37.373 23.646,37.373 24.632,37.373 25.164,37.373   26.47,37.373 29.388,37.373 "></polygon><polygon points="36.784,37.612 33.138,37.612 29.507,37.612 26.589,37.612 26.589,43.87 26.589,50.114 32.999,50.114 36.784,50.114   "></polygon><polygon points="24.752,43.751 24.754,43.751 25.045,43.751 25.045,37.612 24.752,37.612 "></polygon><rect x="26.179" y="43.989" width="0.172" height="6.125"></rect><polygon points="25.284,43.751 26.06,43.751 26.351,43.751 26.351,37.612 25.284,37.612 "></polygon><polygon points="33.119,50.355 33.119,62.856 37.544,62.856 37.544,56.599 37.544,50.355 36.904,50.355 "></polygon><path d="M47.521,50.234v-6.245h-1.341v6.245c0,0.067-0.054,0.121-0.119,0.121h-6.607v6.124H50.85v-6.124h-3.209  C47.575,50.355,47.521,50.302,47.521,50.234z"></path><polygon points="60.173,37.612 56.224,37.612 47.761,37.612 47.761,43.87 47.761,50.114 50.969,50.114 59.563,50.114 60.173,50.114   "></polygon><rect x="37.783" y="50.355" width="1.432" height="6.124"></rect><polygon points="59.683,50.355 59.683,62.856 68.739,62.856 68.739,50.355 60.292,50.355 "></polygon><path d="M45.941,43.989h-2.446c-0.066,0-0.12-0.054-0.12-0.119v-6.258h-6.352v12.502h0.64h1.672h6.606V43.989z"></path><rect x="29.627" y="31.263" width="3.392" height="6.11"></rect></svg>