<svg fill="#FFFFFF" xmlns="http://www.w3.org/2000/svg" xmlns:xlink="http://www.w3.org/1999/xlink" version="1.1" x="0px" y="0px" viewBox="0 0 65 65" enable-background="new 0 0 65 65" xml:space="preserve"><path d="M62.421,29.144l-0.859-0.232c-0.011-0.002-0.024-0.003-0.031-0.003l-0.45,0.023l-0.207,0.02l0.604-0.237l1.248-0.405  l0.416,0.06c0.011,0.001,0.021,0.002,0.031,0l0.844-0.143l-0.033-0.197l-0.828,0.14l-0.424-0.062c-0.016-0.001-0.03,0-0.046,0.004  l-1.275,0.415l-1.223,0.481l-1.571,0.25l-0.107,0.017l-0.402-0.097l-0.871-0.001l-0.265-0.05l0.055-0.056l0.698-0.539l1.098-0.722  l0.418-0.064c0.017-0.002,0.032-0.009,0.046-0.019l0.355-0.267c0.009-0.007,0.017-0.015,0.022-0.025l0.481-0.727l0.349-0.246  L60.378,26.3l-0.364,0.256c-0.01,0.007-0.019,0.016-0.025,0.026l-0.482,0.729l-0.321,0.241l-0.415,0.063  c-0.015,0.002-0.028,0.007-0.04,0.015l-1.122,0.739l-0.158,0.122l1.109-1.5l0.293-0.106l0.878-0.148l-0.033-0.197l-0.646,0.11  l0.324-0.284l0.279-0.347l-0.129-0.103l0.085-0.102l0.974-0.699l-0.117-0.162l-0.579,0.416l0.452-0.768l-0.172-0.102l-0.669,1.137  l-0.022,0.027l-0.019,0.013l-0.05-0.073l0.11-0.26l-0.184-0.078l-0.2,0.474l-0.322,0.217l0.06-0.385l0.263-0.347l0.424-0.783  l-0.176-0.095l-0.415,0.77l-0.27,0.354c-0.011,0.013-0.018,0.029-0.02,0.045l-0.067,0.433l-0.051,0.222l-0.22,0.283l-0.14,0.264  l-0.567,0.285l0.328-0.675l-0.18-0.088l-0.388,0.797l-0.071,0.131l-0.201,0.113l-0.402,0.142l-0.017,0.005c0,0,0,0-0.001,0l0,0l0,0  c-0.013,0.004-0.024,0.012-0.034,0.021l-1.608,1.476l-0.474,0.222L54.36,29.16l0.89-0.85l0.243-0.381l0.204-0.383l0.508-0.731  c0.005-0.007,0.008-0.015,0.011-0.022l0.001,0l0.153-0.412l0.173-0.387l0.789-1.06l0.688-0.545l-0.125-0.156l-0.696,0.553  c-0.007,0.005-0.014,0.012-0.019,0.019l-0.718,0.968l0.118-0.269l0.097-0.412l0.261-0.333l-0.158-0.123l-0.274,0.35  c-0.009,0.011-0.015,0.024-0.019,0.039l-0.096,0.416l-0.18,0.407c-0.003,0.008-0.006,0.016-0.007,0.025l-0.068,0.431l-0.104,0.411  v0.001l-0.504,0.728l-0.206,0.386l-0.225,0.356l-0.957,0.912l-1.062,0.771l-0.401,0.063l-0.594,0.007v0l-0.003,0l-1.179,0.044  l-1.714,0.39l-0.275,0.112L48.05,30.61l0.006-0.004c0.01-0.007,0.018-0.016,0.024-0.025l0.977-1.503  c0.005-0.008,0.009-0.016,0.012-0.024l0.547-1.726l0.299-2.361l0.002,0l0.141-0.581l0.563-0.658c0.009-0.011,0.016-0.023,0.02-0.037  l0.118-0.403l0.606-0.61l0.101-0.092l0.177,0.031l0.418-0.025l0.793,0.348c0.013,0.005,0.026,0.008,0.04,0.008  c0.003,0,0.007-0.001,0.01-0.001v0l0.414-0.042c0.018-0.002,0.033-0.008,0.047-0.018l0.347-0.24l0.397-0.056l1.271,0.334  c0.014,0.004,0.032,0.004,0.047,0.001l0.416-0.091l0.426-0.13l-0.059-0.191l-0.418,0.128l-0.385,0.084l-1.18-0.31l0.582-0.258  l0.421,0.03l0.228,0.056c0.009,0.002,0.017,0.003,0.024,0.003c0.015,0,0.028-0.003,0.041-0.009l0.056-0.025l0.936,0.066  c0.013,0.004,0.021,0,0.031-0.003l0.311-0.08l0.791,0.399l0.09-0.179l-0.587-0.296l0.202-0.052l0.82-0.345l-0.078-0.185  l-0.806,0.341l-0.409,0.105l-0.334-0.169c-0.016-0.008-0.044-0.013-0.05-0.011l-0.023,0.001l0.037-0.017  c0.012-0.005,0.021-0.012,0.03-0.021l0.494-0.498l0.288-0.085c0.016-0.004,0.03-0.013,0.042-0.024l0.33-0.331l0.24-0.375  l-0.168-0.107l-0.227,0.357l-0.088,0.086l-0.092-0.091l-0.003-0.089l-0.426,0.013l-0.262-0.096l0.512-0.658l-0.158-0.123  l-0.563,0.727l-0.096,0.007l0.162-0.118l-0.117-0.161l-0.423,0.308l-0.384,0.03c-0.012,0.001-0.022,0.004-0.033,0.008l-0.366,0.165  c-0.002,0-0.004-0.001-0.007-0.001l-0.291,0.022l0.093-0.055l1.715-1.418l-0.127-0.154l-1.702,1.409l-0.07,0.042l0.038-0.073  c0.005-0.011,0.009-0.022,0.011-0.034l0.053-0.435l0.084-0.424L55.57,18.4l-0.048-0.023l0.457-0.331l2.203-0.148l-0.014-0.199  l-1.886,0.127l0.077-0.056l-0.117-0.162l-0.362,0.263l-0.786,0.327c-0.01,0.004-0.018,0.009-0.025,0.015l-0.802,0.659l0.041-0.118  l0.423-0.809l0.116-0.43l-0.193-0.052l-0.108,0.41l-0.42,0.801l-0.105,0.303l-1.198,0.21l-0.564,0.003  c-0.003,0-0.006,0.001-0.009,0.001l0.064-0.889l0,0v0v-0.001l-0.001-0.011l-0.049-0.422l0.167-0.081  c0.009-0.004,0.017-0.01,0.024-0.017l0.326-0.302l-0.137-0.146l-0.315,0.292l-0.089,0.043l-0.027-0.24  c-0.001-0.01-0.004-0.019-0.008-0.028l0.119-0.356l0.195-0.869c0.004-0.017,0.003-0.034-0.002-0.05l-0.381-1.28  c-0.003-0.011-0.009-0.022-0.016-0.031l-0.131-0.175l0.006-0.117L51.9,14.506l-0.577-0.773l-0.16,0.119l0.625,0.838l-0.012,0.249  l-0.046,0.423l-0.274,0.869l-0.007,0.067l-0.268-0.343l-0.01-0.052l-0.003,0l-0.333-1.661l-0.027-0.444l-0.199,0.013l0.029,0.458  l0.334,1.671l-1.868,0.337l-0.633-0.07c-0.01,0-0.028,0-0.043,0.005l-0.428,0.146l-0.411,0.169c-0.01,0.004-0.02,0.01-0.027,0.017  l-0.556,0.483l-0.096,0.062l-0.826,0.196l-0.022,0.005c-0.012,0.003-0.023,0.008-0.033,0.015L45.29,17.8  c-0.009,0.006-0.017,0.013-0.022,0.021l-0.277,0.348c-0.011,0.014-0.019,0.03-0.021,0.047l-0.21,1.372l-0.28-0.3l-0.354-0.658  l-0.222-0.522l-0.211-0.392c-0.007-0.012-0.016-0.023-0.026-0.032l-0.003-0.002l-0.261-0.796c-0.003-0.011-0.009-0.021-0.016-0.03  l-0.271-0.353l-0.158,0.122l0.261,0.339l0.163,0.498l-1.119-0.872l-0.123,0.158l1.354,1.055v0l0.184,0.414l0.271,0.503l0.128,0.302  l0.215,0.39c0.005,0.009,0.012,0.017,0.019,0.024l0.312,0.298l0.091,0.169l-0.011,0.068l-0.082,0.392l-0.228-0.35l-0.405-0.785v0  l0,0l-0.013-0.029l-0.16-0.38c-0.004-0.011-0.011-0.021-0.019-0.029l-1.944-2.081L41.742,16.5l-0.058,0.03l-0.001-0.001  l-0.451-0.782l-0.266-0.356c-0.008-0.01-0.017-0.018-0.026-0.024l-0.018-0.596h0.001l-0.001-0.005l0,0l-0.001-0.003l-0.089-0.421  l-0.062-0.427l0.146-1.213c0.002-0.016,0-0.031-0.005-0.045l-0.432-1.232l0.695-1.995l0.186-0.659l0.611-0.743l1.363-1.116  l0.396-0.132l0.419-0.093l0.874,0.066l0.016-0.199l-0.889-0.068c-0.009-0.001-0.019,0-0.029,0.002l-0.443,0.1l-0.423,0.141  c-0.012,0.004-0.022,0.01-0.032,0.018l-1.178,0.965l0.086-0.515l0.162-0.605l0.549-0.701l0.389-0.8l-0.18-0.087l-0.377,0.782  l-0.389,0.494l0.01-0.062l0.117-0.43c0.004-0.016,0.005-0.032,0.001-0.048L42.32,5.303c-0.004-0.016-0.011-0.031-0.022-0.044  l-0.291-0.336C41.996,4.91,41.981,4.9,41.965,4.894l-0.42-0.148l-0.066,0.188l0.395,0.139l0.257,0.297l0.085,0.386l-0.113,0.416  l-0.162,0.971L41.767,7.79L41.24,8.483c-0.007,0.01-0.013,0.021-0.017,0.034L41.18,8.674L40.7,9.258  c-0.007,0.008-0.012,0.017-0.016,0.026L40.52,9.702l-0.381,1.074l-0.199-1.013l0.148-0.43l-0.189-0.065l-0.039,0.114L39.842,9.3  L39.68,8.88l-0.179-0.408l-0.184,0.08l0.177,0.404l0.156,0.4l0.08,0.399l-0.122,0.354c-0.004,0.013-0.006,0.026-0.005,0.039  l0.03,0.464l-1.062-0.405l-0.398-0.2c-0.016-0.008-0.033-0.01-0.05-0.011l-2.223,0.106l0.01,0.2l0.9-0.043l-0.059,0.117l0.384,0.192  l1.133,0.796l-0.004,0.005l0.334,0.246l0.311,0.5l-0.202-0.039c-0.012-0.003-0.024-0.002-0.036,0l-0.849,0.155l-0.32-0.116  l-1.172-0.64l-0.096,0.176l1.186,0.646l0.359,0.131c0.016,0.006,0.034,0.009,0.052,0.004l0.857-0.156l0.375,0.072l0.609,0.477  l-0.009,0.322c-0.001,0.015,0.002,0.03,0.009,0.044l0.363,0.798l0.124,0.412l-0.003,0.395l-0.271-0.227l-0.129,0.153l0.397,0.333  l-0.004,0.66l-0.061,0.843l-0.002,0.03l-0.158,0.399c-0.005,0.013-0.008,0.026-0.007,0.04l0.016,0.469l0.049,0.171l-0.623-0.912  c-0.009-0.012-0.019-0.021-0.03-0.029l-0.379-0.234c-0.01-0.006-0.02-0.01-0.03-0.013L38.5,16.385l-0.401-0.137l-0.654-0.539  l-0.164-0.387c-0.003-0.008-0.008-0.016-0.014-0.023l-0.283-0.359l-0.045-0.044l-0.915-0.905l-0.137-0.098l0.039-0.404  c0.001-0.016-0.001-0.031-0.006-0.046l-0.26-0.675l-0.005-0.077l-0.007-0.445l-0.188,0.003l-0.021-0.053l-0.028,0.011l-0.079-0.354  l-0.01-0.427l0.416-1.25l-0.189-0.063l-0.422,1.267c-0.004,0.011-0.006,0.022-0.005,0.034l0.013,0.464l0.189,0.854l0.05,0.832  l-0.085-0.058l-0.267-0.338c-0.007-0.009-0.017-0.018-0.027-0.024l-0.367-0.219l-0.271-0.332l-0.154,0.126l0.281,0.345  c0.007,0.009,0.016,0.017,0.026,0.023l0.366,0.219l0.146,0.185L34.8,13.407l-0.84-0.28l-1.657-0.649  c-0.015-0.006-0.033-0.006-0.046-0.006l-0.886,0.088l0.02,0.199l0.862-0.085l1.641,0.642l0.841,0.28l0.657,0.244l0.009,0.147  l-0.099,0.216l-0.114,0.416l-0.224,0.369c-0.005,0.009-0.009,0.02-0.012,0.03l-0.288,1.279l-0.005,0.023l0,0v0  c-0.003,0.016-0.003,0.032,0.001,0.047l0.232,0.881l0.607,1.203l0.251,0.368c0.01,0.015,0.023,0.026,0.039,0.034l0.566,0.273  l-0.165,0.026l-0.426-0.028l-0.112-0.045l-0.854-0.708c-0.002-0.002-0.006-0.002-0.008-0.004l-0.007-0.005l-1.712-0.967  l-0.138-0.303c-0.005-0.012-0.013-0.022-0.022-0.031l-0.645-0.614l-0.061,0.063l-0.138-0.236l-0.294-1.287l-0.195,0.045l0.298,1.302  c0.002,0.01,0.006,0.019,0.011,0.028l0.237,0.401l0.599,0.659c0.007,0.008,0.016,0.015,0.025,0.02l0.168,0.095l0.014,0.031  L33,17.986l0.037,0.4l-0.013,0l-0.357-0.218l-0.104,0.171l0.366,0.224l-0.123-0.022l-0.527-0.213l-0.211-0.264l-0.136-0.406  l-0.189,0.063l0.141,0.422c0.003,0.011,0.009,0.021,0.017,0.031l0.029,0.036l-1.294-0.009l-0.001,0.2l1.316,0.009l0.205,0.083  l0.297,0.372l0.517,0.724c0.009,0.012,0.02,0.021,0.032,0.029l0.406,0.229l0.426,0.136v-0.001c0.008,0.002,0.016,0.005,0.023,0.005  l0.452,0.031L34.762,20l1.303-0.178l0.434,0.028c0.002,0,0.004,0,0.007,0c0.01,0,0.019-0.001,0.028-0.004l0.828-0.241l0.375,0.092  c0.01,0.002,0.019,0.005,0.029,0.002l0.43-0.025l0.436,0.106l1.031,0.061l0.491,0.086l0.4,0.27l0.819,1.06l0.394,1.272l0.102,0.692  l1.29,3.869l0.086,3.003l-0.162,0.992l-0.02,1.01l0.223,2.229l-0.778,2.27l-1.263,7.123l-0.045,1.205l-0.047,2.954l-0.856-2.626  l-0.189,0.063l0.831,2.549l-1.623-2.33l-0.828-0.987l-0.966-0.805l-4.276-4.721l-5.902-4.81l-1.691-2.087l-0.357-0.634l-1.852-2.154  l-0.996-0.965l-0.165-0.665l0.104-0.473c0.003-0.012,0.003-0.025,0.001-0.038l-0.325-2.005c-0.002-0.014-0.007-0.026-0.015-0.038  l-0.144-0.223l0.42-0.728l0.138-0.356l0.675-0.467l0.396-0.069l0.41,0.106c0.007,0.002,0.014,0.002,0.022,0.002l0.001,0h0.002  c0.001,0,0.002,0,0.004,0l0.007,0l0.434,0.004l0.445-0.006c0.014,0,0.027-0.003,0.039-0.009l0.09-0.04l0.29-0.015l0.894,0.168  l0.445-0.005l-0.002-0.2l-0.425,0.007l-0.821-0.154l0.872-0.93l0.753-0.447l-0.102-0.172l-0.766,0.454  c-0.008,0.005-0.016,0.011-0.022,0.018l-0.899,0.959l-0.269,0.12l-0.958,0.046L23.56,23.11c-0.014-0.004-0.027-0.005-0.042-0.002  l-0.438,0.076c-0.014,0.002-0.028,0.008-0.04,0.017l-0.453,0.313l0.058-0.15l0.117-0.38l0.258-0.332  c0.006-0.008,0.011-0.017,0.014-0.026l0.166-0.438l0.029-0.213l0.079-0.149l-0.054-0.028l0.17-1.239l0.803-0.209l0.806-0.378  l-0.085-0.181l-0.789,0.372l-0.906,0.236l-0.008-0.001l0,0.003l-0.05,0.013l0.052-0.562c0.001-0.013,0-0.026-0.004-0.039  l-0.083-0.279l0.071-0.073l0.267-0.356c0.009-0.012,0.015-0.027,0.018-0.042l0,0v0c0,0,0,0,0-0.001l0.003-0.017l0.16-0.873  l0.028-0.893v-0.445c0-0.011-0.002-0.023-0.006-0.034l-0.23-0.645l-0.049-0.206l0.355-2.162c0.001-0.008,0.002-0.017,0.001-0.025  l-0.167-1.772l-0.199,0.019l0.166,1.76l-0.093,0.567l-0.117-0.062l-0.16,0.301l-0.058-0.762l0.135-0.403l-0.062-0.021l0.117-1.176  l-0.199-0.02L23.014,13.5l-0.178,0.521l-0.022-0.125c-0.003-0.017-0.01-0.033-0.021-0.046l-0.283-0.344  c-0.008-0.01-0.019-0.019-0.03-0.025l-0.768-0.406l-0.185-1.252l-0.161-0.393l0.015-0.401l0.116-0.43l-0.193-0.052l-0.119,0.451  l-0.019,0.445c0,0.015,0.002,0.029,0.007,0.042l0.162,0.389l0.16,1.09l-0.599-0.303l-0.09,0.179l0.718,0.363l-0.016,0.31  l-0.086,0.05l0.142,0.244l0.106,0.284l0.098,0.18l0.041,0.311l-0.83-0.276l-0.302-0.295l-0.14,0.143l0.318,0.311  c0.011,0.011,0.024,0.019,0.038,0.023l0.943,0.314l0.1,0.76l0.168,0.667l0.023,0.641c0,0.012,0.003,0.023,0.007,0.034l0.164,0.4  l0.115,0.434l0.118,0.396l-0.138,0.201l-0.336,0.269l0,0c-0.009,0.008-0.018,0.016-0.023,0.026l-0.003,0.006l-0.109-0.305  l-0.655-1.164l-0.174,0.098l0.647,1.148l0.157,0.443l-0.309,0.513l-0.043-0.012l-0.134-0.425c-0.003-0.009-0.007-0.018-0.012-0.025  l-0.248-0.37c-0.008-0.012-0.018-0.022-0.03-0.029l-0.382-0.236l-0.407-0.228l-0.425-0.133l-0.06,0.19l0.405,0.125l0.384,0.218  L21,18.668l0.227,0.34l0.091,0.289L20.592,19.1l-0.349-0.266l-0.518-0.297l0.093-0.544l0.167-0.853l1.008-1.424l0.347-0.286  l0.29-0.338l-0.152-0.13L21.2,15.288l-0.344,0.282c-0.007,0.005-0.013,0.012-0.018,0.02L20.547,16l-0.004-0.005l-0.987,0.865  l-0.202,0.056l-1.476-1.432l-0.141-0.19l0.166-0.054l-0.062-0.19l-0.23,0.074l-0.263-0.355l-0.161,0.119l0.223,0.301l-0.099,0.032  l-0.001-0.037l-0.2,0.004l0.002,0.097l-1.389,0.448c-0.009,0.003-0.018,0.007-0.026,0.013l-0.83,0.58l0.871-1.69  c0.007-0.013,0.01-0.027,0.011-0.042l0.072-1.779c0-0.017-0.003-0.035-0.011-0.05l-0.206-0.395l-0.178,0.093l0.193,0.371l-0.07,1.73  l-0.923,1.794l-0.55,0.153l-0.014-0.812l-0.087,0.001l0.156-0.27l0.354-0.228c0.011-0.007,0.02-0.016,0.027-0.026l0.504-0.714  l0.347-0.251l-0.117-0.162l-0.361,0.261c-0.009,0.006-0.017,0.014-0.023,0.023l-0.502,0.711l-0.358,0.231  c-0.013,0.008-0.024,0.02-0.032,0.034L13.71,15.76l-0.161-0.358c-0.006-0.013-0.015-0.025-0.026-0.035l-0.121-0.104l0.001-0.14  l-0.166-0.001l-0.397-0.343l-0.436-0.3l-0.002-0.259l-0.2,0.002l0.001,0.118l-0.096-0.066l-0.113,0.165l0.211,0.146l0.007,0.693  l-0.158,0.063l0.163,0.408l0.002,0.254c0,0.014,0.003,0.028,0.009,0.041l0.37,0.796l0.073,0.428l-0.115,0.264l-0.167-0.302  l-0.211-0.84l-0.065-0.461l-0.296-0.823l-0.167-0.894l0.047-0.124c0.004-0.011,0.006-0.022,0.006-0.033l0.053-2.222l0.024-0.444  l-0.199-0.011l-0.025,0.447l-0.039,1.607l-0.032-0.347c-0.001-0.013-0.005-0.025-0.011-0.037l-0.409-0.791l-0.178,0.092l0.4,0.774  l0.027,0.266l-0.022,0.004l0.03,0.162l-0.191,1.271l-0.208,0.373c-0.008,0.015-0.013,0.031-0.013,0.048l-0.002,0.443v0.001l0,0v0  l0,0c0,0.018,0.004,0.034,0.013,0.049l0.127,0.227l0.016,0.119l-0.066-0.05c-0.013-0.01-0.029-0.017-0.046-0.02l-0.475-0.07  l-0.16-0.285l-0.175,0.098l0.084,0.15L9.632,15.82c-0.018-0.003-0.034-0.001-0.049,0.005l-0.068,0.025l-0.002-0.105l-0.2,0.004  l0.004,0.175l-0.107,0.04l-0.185-0.177l0-0.002c-0.006-0.017-0.016-0.031-0.029-0.043l-0.334-0.294l-0.132,0.15l0.226,0.199  L8.75,15.801l0.101,0.096l0.06,0.177l-0.163,0.06l0.069,0.188l0.158-0.059l0.188,0.551l0.008,0.195l-0.024-0.006l-0.256-0.311  L8.55,16.117L8.378,16.22l0.115,0.194l-0.054,0.044l0.289,0.351l0.063,0.106l-0.163-0.041l-0.39-0.187L7.85,16.469  c-0.012-0.007-0.024-0.011-0.038-0.013L7.484,16.42l-0.107-0.042l-0.839-0.238l-0.341-0.256l-0.12,0.16l0.348,0.26l-0.371-0.041  l-0.435-0.096l-0.043,0.195l0.445,0.098l1.417,0.156l1.128,0.449l0.369,0.091l0.11,0.186l0.086,0.34l-0.004,0.07l-0.031,0.071  c-0.005-0.001-0.009-0.003-0.014-0.004l-0.177-0.012L8.789,17.65L8.55,17.274l-0.169,0.107l0.244,0.381l0.015,0.021l-0.38-0.159  l-0.077,0.185l0.411,0.172c0.01,0.004,0.021,0.007,0.032,0.007L8.801,18l0.089,0.12c0.006,0.009,0.015,0.017,0.023,0.023  l0.222,0.152l0.119,0.34l-0.065-0.007c-0.013,0-0.029,0-0.042,0.004l-0.069,0.022l-0.396-0.373  c-0.009-0.009-0.021-0.016-0.033-0.021l-0.395-0.148l-0.098-0.174l-0.14-1.057l-0.198,0.026l0.074,0.562l-0.217-0.386l-0.17-0.411  l-0.185,0.076l0.175,0.422l0.467,0.833l0.081,0.606L7.98,18.596l-0.676-0.542L7.18,18.209l0.465,0.374l-0.043-0.029l-0.396-0.203  l-0.091,0.178l0.191,0.097l-0.01,0.021l0.324,0.159l0.049,0.033l-0.282,0.023l-0.889-0.628l-0.077,0.108l-0.324-0.546l-0.013,0.007  l-0.033-0.105l-0.19,0.06l0.143,0.446l0.232,0.391l0.492,0.667l0.001,0.055l-1.775-0.781c-0.016-0.007-0.032-0.012-0.049-0.008  L4.48,18.563l-0.361-0.111l-0.059,0.191L4.44,18.76c0.012,0.004,0.025,0.006,0.038,0.004l0.417-0.036l0.989,0.435L5.81,19.337  l0.818,0.351c0.01,0.004,0.02,0.007,0.03,0.008l0.248,0.023l0.207,0.347l-0.933-0.17l-1.304-0.188l-0.375-0.204l-0.096,0.176  l0.391,0.212c0.011,0.006,0.022,0.009,0.034,0.011l1.318,0.19l0.823,0.148L6.912,20.39l0.412,0.162l0.124,0.333l-0.727-0.128  l-0.035,0.197l0.84,0.148c0.001,0,0.002,0,0.003,0l0.124,0.333l0.219,0.99l-0.538-0.286L6.93,21.952l-0.084,0.182l0.399,0.185  l0.178,0.095l-0.602-0.224l-0.043,0.116l-0.031-0.033l-0.062,0.06l-0.272-0.171c-0.013-0.007-0.026-0.013-0.041-0.014l-0.465-0.055  l-0.442,0.049l0.007,0.059l-0.305-0.05l-0.212-0.016L4.656,22.01l-0.427-0.075l-0.398-0.187l-0.419-0.15  c-0.017-0.006-0.035-0.008-0.05-0.004l-0.867,0.149l-0.015,0.001l-0.164-0.068l-1.289-0.349l-0.052,0.193l0.96,0.259l-0.323,0.021  L1.624,22l0.821-0.054l0.211,0.087l0.638,0.311c0.014,0.007,0.029,0.01,0.044,0.01c0.008,0,0.017-0.001,0.025-0.003l0.84-0.217  l0.338,0.06l0.07,0.013l0.101,0.041l-0.005,0.068l0.206,0.016l0.253,0.104l0.008,0.191l0.413-0.018l0.234,0.097l0.102,0.061  l-0.125,0.064L5.331,22.91l-0.317,0.01l-0.156-0.553l-0.192,0.055l0.138,0.486l-0.284-0.043L4.33,22.722l-0.12,0.159l0.549,0.415  l-0.917-0.44l-0.087,0.181l0.848,0.407l-0.067,0.034l-0.42-0.005l-0.002,0.2l0.445,0.005c0,0,0,0,0.001,0  c0.016,0,0.031-0.004,0.045-0.011l0.224-0.115l0.025,0.012l-0.018,0.111c-0.002,0.014-0.001,0.029,0.002,0.042L4.87,23.83  l-0.269-0.014l-1.054-0.31l-0.213-0.179c-0.008-0.007-0.018-0.012-0.027-0.016l-0.414-0.165l-0.074,0.186l0.398,0.159l0.07,0.059  l-0.024,0.082l0.187,0.054l1.118,0.94c0.008,0.006,0.017,0.012,0.026,0.016l0.814,0.341l0.375,0.191l-0.029,0.004l-0.964-0.267  l-0.025,0.089l-0.369-0.05l-0.736-0.479L3.253,24.27l-0.822-0.342l-0.077,0.185l0.816,0.339l0.388,0.193l0.745,0.486  c0.01,0.006,0.021,0.009,0.032,0.012l-0.449,0.016l-0.775,0.198l-0.443,0.023l0.011,0.2l0.462-0.026l0.773-0.198l0.899-0.03  l0.395-0.054l0.182,0.35l-0.142,0.02l-0.438,0.042l0.019,0.199l0.442-0.042l0.217-0.03l0.085,0.165  c0.006,0.012,0.015,0.022,0.024,0.031l0.329,0.275l0.292,0.341l0.064,0.07l-0.048,0.116l0.247,0.101l0.125,0.136l-0.445,0.054  l0.024,0.198l0.586-0.071l0.326,0.354c0.002,0.004,0.003,0.009,0.005,0.013l0.085,0.143l-0.583-0.138  c-0.015-0.003-0.031-0.003-0.047,0l-0.424,0.105l-0.143-0.084l-0.422-0.141l-0.063,0.189L5.909,27.8l0.755,0.446l0.249,0.259  l-0.126-0.001l-0.001,0.154l-0.214-0.103c-0.003-0.001-0.007-0.001-0.01-0.002l-0.003-0.002L6.174,28.43l-0.087-0.211  c-0.006-0.015-0.016-0.028-0.028-0.038l-0.666-0.556l-0.544-1.196l-0.182-0.38l0.01-0.421l-0.2-0.005l-0.011,0.445  c0,0.016,0.003,0.031,0.01,0.045l0.745,1.616c0.006,0.014,0.015,0.026,0.027,0.035l0.664,0.555l0.014,0.033l-0.217-0.068  C5.7,28.28,5.69,28.279,5.681,28.278l-0.425-0.012L3.647,27.55c-0.012-0.005-0.025-0.008-0.039-0.009l-0.43-0.006l-0.411-0.128  c-0.012-0.004-0.024-0.007-0.037-0.004l-0.888,0.059l0.014,0.199l0.869-0.058l0.407,0.127c0.009,0.003,0.019,0.005,0.028,0.005  l0.424,0.006l1.608,0.716c0.012,0.005,0.024,0.008,0.038,0.009l0.431,0.012l0.234,0.074l-0.625,0.006L4.669,28.39l-0.047,0.175  l-0.308,0.003l-1.169-0.292l-0.378-0.209c-0.015-0.008-0.031-0.013-0.048-0.013c0,0-0.001,0-0.001,0l-0.89,0.011l0.002,0.2  l0.864-0.011l0.367,0.203c0.008,0.004,0.016,0.007,0.024,0.01l1.195,0.298c0.009,0.002,0.021,0.011,0.025,0.003l0.949-0.01  l0.199,0.055l1.156,0.66l0.377,0.236l0,0l0.005,0.003l0.377,0.203L7.03,29.903l-0.437-0.084l-0.014,0.07l-0.865,0.024l0.006,0.2  l0.874-0.025l1.289,0.174c0.004,0,0.009,0.001,0.013,0.001c0.005,0,0.011,0,0.017-0.001l0.151-0.025l0.006,0.05l0.908-0.106  l0.207,0.035l0.028-0.001l0.81,0.227l0.172,0.032L10.16,30.54l0.396,0.202c0.014,0.007,0.029,0.011,0.045,0.011l1.314,0.003  l0.816,0.178c0.007,0.001,0.014,0.002,0.021,0.002c0.011,0,0.021-0.002,0.032-0.005l0.397-0.133l0.399,0.067  c0.005,0.001,0.011,0.001,0.017,0.001c0.003,0,0.007,0,0.01,0l0.89-0.091l0.128-0.037l0.27,0.055  c0.007,0.001,0.013,0.002,0.02,0.002c0.004,0,0.008,0,0.012-0.001l0.445-0.055l0.416-0.104l0.441,0.035l0.438-0.048l0.85-0.123  l0.541-0.045l0.369,0.184l1.53,0.84l0.787,0.358l3.12,1.559l0.825,0.304l2.536,0.671l5.883,4.794l4.275,4.721l0.964,0.802  l0.811,0.968l1.992,2.861l0.353,1.612l0.229,1.66l0.186,1.656l-0.109,5.035v1.68h0.199v-1.678l0.109-5.046l-0.187-1.672  l-0.231-1.671l-0.355-1.626l0.057-3.538l0.044-1.189l1.258-7.095l0.773-2.255l1.454-1.566l1.781-1.414l0.681-0.316l0.773-0.096  c0.009-0.001,0.017-0.003,0.025-0.006l0.773-0.316l0.414-0.018l0.436,0.089c0.019,0.002,0.038,0.001,0.056-0.005v0l0.688-0.261  l0.129,0.001l0.301,0.021l0.114-0.008l0.315,0.026c0.008,0.003,0.021,0,0.029-0.002l0.32-0.072l0.113-0.008l0.815,0.126  c0.016,0.003,0.032,0.001,0.048-0.004l0.691-0.234l0.198-0.014l0.38-0.033l0.077,0.008l0.365,0.126  c0.011,0.004,0.022,0.006,0.033,0.006s0.021-0.001,0.03-0.005l0.288-0.093l0.39,0.007l1.199,0.294  c0.008,0.002,0.016,0.003,0.023,0.003c0.01,0,0.021-0.001,0.03-0.004l0.013-0.004l2.131-0.264c0.013-0.001,0.025-0.006,0.037-0.012  l0.37-0.213l0.444-0.074l0.487-0.204l0.289-0.015l-0.005-0.104l0.05-0.021l-0.078-0.185l-0.299,0.126l-1.03,0.053l-1.312,0.323  L57.143,30.2l-0.722,0.225l-1.113-0.269l0.733-0.462c0.013-0.008,0.022-0.019,0.031-0.031l0.023-0.037l0.594-0.221  c0.014-0.005,0.026-0.014,0.036-0.024l0.001,0l0.079-0.083l0.411,0.077h0.865l0.398,0.099c0.008,0.002,0.017,0.003,0.024,0.003  c0.005,0,0.011,0,0.016-0.001l1.693-0.261l0.881-0.084l0.43-0.022l0.86,0.231l0.446,0.042l0.445,0.003l0.002-0.2l-0.437-0.002  L62.421,29.144z M3.349,22.148L2.818,21.89l0.551-0.094l0.385,0.137l0.152,0.071L3.349,22.148z M13.489,30.648l-0.297-0.05  c-0.003,0-0.005,0.001-0.008,0l-0.01-0.001l-0.431,0.002L12.381,30.5l-0.219-0.149l0.053-0.025l0.392,0.028v0  c0.002,0,0.005,0.001,0.007,0.001c0.004,0,0.007,0,0.011-0.001l1.256-0.143l0.011,0.004l0.436,0.379L13.6,30.667L13.489,30.648z   M11.331,30.017l0.057-0.008l0.703,0.095l0.045,0.039l-0.185,0.086L11.331,30.017z M7.09,29.54L7.09,29.54l-0.007-0.004  l-0.351-0.229L6.42,29.021l-0.114-0.274l0.197-0.002l0.321,0.153l0.058,0.027l0.344,0.231l0.623,0.636  c0.003,0.003,0.007,0.005,0.01,0.008l-0.397-0.062L7.09,29.54L7.09,29.54z M6.368,26.49l-0.143-0.166l0.558,0.227  c0.012,0.005,0.025,0.008,0.039,0.008c0.014,0,0.029-0.003,0.042-0.009l0.003-0.001l0.006,0.026l0.007,0.114l0.018-0.001  l0.043,0.193l-0.344-0.141L6.368,26.49z M5.264,24.501l-0.139-0.498l0.317-0.114l0.14,0.024l0.179,0.086  c0.011,0.005,0.023,0.008,0.035,0.009l0.065,0.005l0.482,0.217c0.013,0.006,0.027,0.009,0.041,0.009  c0.012,0,0.024-0.002,0.036-0.007l0.023-0.009L6.417,24.49c-0.001,0.011,0,0.021,0.002,0.031l0.102,0.462  c-0.015-0.003-0.033-0.003-0.051,0.002l-0.276,0.086L5.91,24.93l-0.034,0.069l-0.359-0.184L5.264,24.501z M6.924,19.064l0.401,0  l0.01,0.007l-0.391,0.073l0.015,0.083l-0.027-0.025l-0.005-0.009L6.924,19.064z M9.193,19.038c0.006,0.006,0.014,0.011,0.021,0.016  l0.228,0.121l0.005,0.015L9.102,19.13l-0.004-0.002L8.785,18.96l0.242-0.079L9.193,19.038z M9.271,16.298l-0.039,0.097l-0.068-0.199  L9.271,16.298z M9.355,16.622l0.071-0.174l0.044,0.043l-0.049-0.005l-0.037,0.361l-0.023-0.068L9.355,16.622z M9.869,16.939  l0.096,0.132c0.007,0.009,0.016,0.018,0.025,0.024l0.333,0.221l0.335,0.756l0.127,0.333l-0.039,0.165  c-0.007-0.007-0.014-0.013-0.022-0.018l-0.105-0.056l-0.236-0.353l-0.225-0.399l-0.267-0.356c-0.006-0.008-0.013-0.015-0.021-0.02  l-0.313-0.232l0.051-0.513l0.094,0.09l0.025,0.034L9.68,16.857L9.869,16.939z M14.471,16.607l-0.195,0.248l0,0  c-0.005,0.006-0.01,0.013-0.013,0.02l-0.208,0.456l-0.079-0.369l0.068-0.237L14.471,16.607z M17.377,17.062  c0,0.008,0.001,0.017,0.004,0.025l0.112,0.404l-0.007,0.031l-0.042,0.029l-0.045,0.021l-0.094-0.184l0.034-0.87l-0.002-0.115  l0.031-0.011L17.377,17.062z M19.306,17.149l0.128,0.386l0.025,0.876l-0.089,0.155l0.095,0.054l0.006,0.212l-0.429,1.723  c-0.002,0.01-0.003,0.02-0.002,0.03l0.024,0.445c0,0.009,0.002,0.019,0.005,0.027l0.4,1.159l-0.732-0.042l-0.409-0.089l-0.314-0.277  c-0.011-0.01-0.024-0.017-0.038-0.021l-0.029-0.009L17.74,21.61c0.003-0.004,0.007-0.007,0.009-0.012h0l0-0.001l0,0l0,0l0.396-0.805  l0.824-2.067c0.006-0.016,0.009-0.033,0.006-0.05l-0.063-0.46l-0.142-0.421l-0.145,0.048l0.113-0.187l-0.171-0.104l-0.219,0.362  l-0.577,0.391l-0.072-0.141l0.047-0.062l0.139-0.058l-0.033-0.081l0.171-0.224l-0.116-0.088l0.473-0.19l0.392-0.178l0.522-0.145  L19.306,17.149z M23.495,17.638l-0.103-0.33l0.087-0.53l0.026,0.073v0.425L23.495,17.638z M22.935,15.506l0,0.045  c0,0.009,0.001,0.019,0.004,0.028l0.215,0.777l-0.025,0.154l-0.455-1.248L22.935,15.506z M23.045,19.852l-0.056,0.571l-0.027-0.13  c-0.003-0.016-0.01-0.03-0.021-0.043l-0.218-0.266L23,19.7L23.045,19.852z M21.873,31.228l-0.506-0.311l-0.713-0.258l-0.401-0.445  c-0.009-0.01-0.021-0.019-0.033-0.024l-0.405-0.184c-0.012-0.005-0.025-0.008-0.038-0.009l-0.418-0.014l-0.733-0.452v0l-0.354-0.228  l-0.217-0.375l-0.265-0.357c-0.006-0.009-0.015-0.017-0.024-0.023l-0.26-0.177l-0.011-0.101c-0.002-0.016-0.007-0.031-0.016-0.044  l-0.235-0.362l-0.017-0.037l-0.216-0.475l1.091,0.558l0.197,0.191l0.153,0.633c0.003,0.013,0.008,0.024,0.016,0.035l0.276,0.378  l0.671,0.584c0.01,0.009,0.022,0.016,0.035,0.02l0.415,0.13l1.939,1.242L21.873,31.228z M9.036,29.792l0.474,0.124L9.07,29.967  l-0.304-0.085v-0.001l-0.337-0.036L9.036,29.792z M7.503,27.816c-0.01-0.006-0.02-0.01-0.031-0.013L7.461,27.8l-0.179-0.304  l-0.063-0.288l0.27,0.11l0.546,0.116l0.132,0.123l0.346,0.569l-0.653-0.083L7.503,27.816z M7.053,26.462l0.136-0.063l0.064,0.065  l-0.197,0.013L7.053,26.462z M6.363,23.841l0.002,0.005L6.332,23.84L6.363,23.841z M13.467,16.843l0.062,0.107l-0.08-0.026  l-0.129,0.399l-0.115,0.108l0.001-0.151c0-0.012-0.002-0.025-0.006-0.036l-0.07-0.186l0.099-0.08  c0.001-0.001,0.001-0.002,0.002-0.003L13.467,16.843z M13.769,16.939l-0.005,0.017l-0.108-0.187l0.076-0.008L13.769,16.939z   M17.622,17.938l-0.029,0.012l-0.001-0.002l0.043-0.186l0.175-0.07L17.622,17.938z M18.595,17.896l0.125,0.365l0.056,0.416  l-0.543,1.363l-0.12-1.054c-0.001-0.012-0.004-0.023-0.01-0.034l-0.237-0.466l0.616-0.418c0.012-0.008,0.022-0.019,0.029-0.031  L18.595,17.896z M19.532,22.419l0.082,0.297l-0.073,0.289l-0.456,0.036l-0.186-0.313c-0.007-0.013-0.017-0.023-0.029-0.031  l-0.606-0.421l0.446,0.095L19.532,22.419z M22.214,19.748l0.229,0.224l-0.764,0.343c-0.005,0.002-0.008,0.007-0.013,0.011l0.01-0.02  c0.008-0.015,0.012-0.031,0.012-0.047l0-0.445c0-0.01-0.001-0.021-0.005-0.03l-0.002-0.006l0.036-0.138l0.032-0.018L22.214,19.748z   M19.661,30.428l-0.232-0.074l0.491,0.091L19.661,30.428z M18.756,30.09l-0.24,0.031l-0.209-0.023l-0.235-0.371  c-0.007-0.01-0.015-0.02-0.025-0.027l-0.016-0.012l-0.405-0.443l-0.04-0.104l-0.006-0.06l0.559,0.387l0.347,0.21l0.698,0.432  L18.756,30.09z M7.451,26.381l0.24,0.01l0.109,0.055l-0.043,0.004l-0.232,0.006L7.451,26.381z M6.827,25.437L6.8,25.315l0.122-0.004  l0.378-0.044l0.082-0.001L7.636,25.7l-0.166-0.045l-0.447-0.1L6.827,25.437z M13.685,17.218l-0.317,1.047  c-0.002,0.008-0.004,0.017-0.004,0.026l-0.02,0.658l-0.3-0.541l-0.042-0.192l0.016-0.07c0.002-0.01,0.001-0.021,0.001-0.031  l0.173-0.348c0.007-0.014,0.01-0.029,0.011-0.044v-0.019l0.274-0.255c0.012-0.012,0.021-0.026,0.027-0.042l0.104-0.324  L13.685,17.218z M13.91,17.608l0.006,0.027l-0.022,0.05c-0.006,0.013-0.009,0.027-0.009,0.041l0.001,0.469l0.033,0.144l-0.368,0.85  l-0.012,0.042l0.023-0.92l0.262-0.851L13.91,17.608z M20.563,22.573l0.24-0.857c0-0.001,0-0.002,0-0.003l0.001-0.005l0.04-0.213  l0.379-0.361l0.002,0l-0.166,0.914l0.002,0l-0.004,0.02l0.014,0.425l-0.077,0.449l-0.022,0.342l-0.558-0.542l0.123-0.127  C20.55,22.604,20.559,22.589,20.563,22.573z M20.43,23.036l-0.242-0.072l0.042-0.028l0.047-0.049L20.43,23.036z M19.561,24.897  l-0.644-0.606l-0.083-0.088l0.287-0.527l0.301-0.201l-0.02,0.079c-0.003,0.013-0.004,0.026-0.002,0.039l0.13,0.874l0.033,0.434  L19.561,24.897z M15.48,24.794l0.241,0.365l0.002,0.003l0,0l0.002,0.003h0l0.002,0.003l0.255,0.355l0.222,0.361L16.244,26  l-0.377-0.447l-0.663-0.615l-0.016-0.011l-0.118-0.083l-0.005-0.055c-0.001-0.016-0.007-0.03-0.015-0.043l0,0l0-0.001l0,0  L15.04,24.73l-0.257-0.411l0.136,0.007l0.535,0.43L15.48,24.794z M10.768,29.77l-0.129-0.057l0.556,0.041l-0.415,0.022L10.768,29.77  z M9.872,25.334l-0.076-0.125l0.322,0.06l-0.032,0.349L9.872,25.334z M6.806,22.861l0.084,0.05l-0.097-0.048L6.806,22.861z   M9.883,19.493l-0.009-0.025l0.124,0.02l0.136,0.114l-0.033-0.001l-0.173-0.022L9.883,19.493z M10.002,19.231l-0.136-0.195  l0.05,0.069l0.013,0.021c0.006,0.011,0.015,0.02,0.025,0.027l0.212,0.157L10.102,19.3l-0.007-0.005l-0.047-0.025L10.002,19.231z   M12.114,18.443l0.065,0.036l0.171,0.124l0.169,0.444l-0.026,0.162l-0.008,0.078l-0.234-0.254l-0.149-0.399  c-0.003-0.008-0.008-0.017-0.013-0.024l-0.073-0.1l0.008-0.007L12.114,18.443z M15.292,20.3L15.292,20.3L15.292,20.3L15.292,20.3  L15.292,20.3L15.292,20.3l0.007-0.008l0.032,0.012l0.638,0.591c0.012,0.011,0.026,0.019,0.042,0.023l0.839,0.229l0.094,0.075  l-0.007,0.283l-0.39-0.142c-0.01-0.004-0.02-0.006-0.03-0.006l-0.445-0.018c-0.016,0.002-0.033,0.003-0.048,0.01l-0.364,0.178  l-0.211-0.162l-0.105-0.053l0.037-0.373l-0.199-0.02l-0.029,0.296l-0.114-0.058l-0.422-0.141c-0.014-0.004-0.028-0.004-0.042-0.005  l-0.148,0.015l0.006-0.046c0.002-0.016,0-0.033-0.005-0.048l-0.086-0.223l0.104-0.027l0.813-0.361  C15.271,20.319,15.283,20.311,15.292,20.3z M16.979,23.952c-0.014-0.01-0.03-0.017-0.047-0.019l-0.977-0.108l-0.261-0.194  l-0.019-0.025l0.359-0.066l0.167,0.005h0.002l0,0h0.001v-0.002l0.021,0l0.936-0.166l0.089,0.204l0.003,0.023  c0.001,0.011,0.005,0.022,0.011,0.033l0.348,0.659l-0.246-0.065L16.979,23.952z M15.104,23.91l-0.124-0.18  c0.005,0,0.009,0.002,0.014,0.002c0.006,0,0.012,0,0.018-0.002l0.434-0.081l0.089,0.104l0.001,0.001l0,0l0.003,0.004l0.002-0.002  l0.013,0.017l0.023,0.017c-0.007,0.001-0.015,0-0.021,0.003L15.18,23.94L15.104,23.91z M15.019,24.132l-0.024-0.001l-0.035-0.028  l-0.035-0.053l0.052,0.022L15.019,24.132z M16.479,26.681l0.019,0.055l0.163,0.351l-0.506-0.05l-0.637-1.134l-0.36-0.388  l-0.051-0.283l-0.012-0.122l0.626,0.581l0.564,0.668L16.479,26.681z M17.892,29.935l-0.054-0.139l0.061,0.044l0.139,0.217  L17.892,29.935z M10.384,28.805c-0.014-0.003-0.03-0.002-0.045,0.002l-0.103,0.028l-0.132-0.044l0.271-0.117l0.411,0.041  c0.02,0,0.037-0.001,0.053-0.009l0.194-0.092l0.171,0.223c0.006,0.008,0.014,0.016,0.023,0.021l0.218,0.148L10.384,28.805z   M7.986,23.847L7.961,23.85l-0.097-0.084l0.113,0.003l0.013,0.079C7.989,23.849,7.987,23.848,7.986,23.847L7.986,23.847z   M8.89,21.197l-0.048-0.361l0.035-0.007l0.311,0.36l0.007,0.008l0,0l0,0l0.001,0l0.009,0.01l0.043,0.038l-0.306-0.016L8.89,21.197z   M11.923,18.724l0.148,0.397c0.004,0.012,0.011,0.023,0.02,0.033l0.301,0.328c0.011,0.012,0.024,0.021,0.04,0.026l0.029,0.01  L12.43,19.8l-0.017,0.003l-0.167,0.024l-0.192-0.448l0-0.001l0,0l-0.002-0.004l-0.153-0.384l0.025-0.254  C11.924,18.731,11.923,18.728,11.923,18.724z M12.973,19.192l0.076,0.167l0.064,0.182l-0.129-0.047l0.006-0.021  c0.003-0.011,0.004-0.023,0.003-0.035L12.973,19.192z M18.411,23.449l0.531-0.089l0.002,0.221l-0.254,0.468l-0.568-0.604  L18.411,23.449z M16.915,22.81l0.147,0.336l-0.008,0.002l-0.404-0.038c-0.015-0.003-0.028,0-0.04,0.004l-0.403,0.13l-0.892-0.109  l-0.624-0.815l0.135-0.151l0.126-0.188l0.011,0V21.98l0.011,0l0.902-0.055l0.017-0.004l0.583,0.326l0.435,0.36l-0.004,0.16  C16.906,22.782,16.909,22.796,16.915,22.81z M17.906,24.42l-0.452-0.874l-0.008-0.019l-0.026-0.194l0.09-0.016l0.361,0.154  l0.719,0.763l-0.227,0.417L17.906,24.42z M11.622,28.078l-0.008-0.07l0.027,0.095l-0.001,0L11.622,28.078z M9.965,27.356  l-0.238-0.139l0.312-0.097l0.141,0.026l0.157,0.141l0.02,0.039L9.977,27.36L9.965,27.356z M10.467,26.521l0.126,0.203l-0.076-0.015  l-0.048-0.078l-0.018-0.12L10.467,26.521z M10.698,27.002l-0.021-0.034l-0.017-0.027l0.088,0.017l0.206,0.132l-0.027-0.008  l-0.191-0.035L10.698,27.002z M10.225,26.378l0.005,0.003l0.012,0.081l-0.118-0.08L10.225,26.378z M10.63,27.229l0.016,0.019  l-0.089,0.033l-0.036-0.072L10.63,27.229z M12.002,27.943c-0.001,0-0.002,0-0.003,0l-0.266-0.249l-0.002-0.006l0.386,0.255  L12.002,27.943L12.002,27.943z M11.203,27.002l-0.588-0.635c-0.002-0.002-0.004-0.003-0.006-0.005l0.067-0.003l0.563,0.667  L11.203,27.002z M9.822,26.557c-0.012-0.01-0.025-0.018-0.04-0.021l-0.406-0.113l-0.008-0.008l0.483-0.021l0.084,0.098  c0.005,0.007,0.012,0.013,0.02,0.018l0.186,0.126l-0.294-0.057L9.822,26.557z M10.388,26.888l0.067,0.106l-0.184-0.034l-0.135-0.122  L10.388,26.888z M12.432,29.081l-0.502-0.693l-0.05-0.176l0.075-0.036l0.595,0.556c0.003,0.014,0.01,0.027,0.019,0.038l0.58,0.703  c-0.001,0-0.003,0-0.005,0l-0.095,0.028L12.432,29.081z M12.213,28.144l0.091,0l0.152,0.174l0.015,0.067L12.213,28.144z   M12.042,27.067l-0.459,0.103l-0.014-0.05c-0.004-0.014-0.011-0.026-0.02-0.037l-0.05-0.06l-0.046-0.395l0.485,0.181l0.01,0.011  l0.246,0.238L12.042,27.067z M12.408,26.99L12.408,26.99l-0.307-0.322c-0.01-0.011-0.023-0.019-0.037-0.024l-0.008-0.003  l-0.245-0.288l-0.244-0.349l-0.176-0.405l0.136,0.014l1.064,0.771c0.014,0.01,0.029,0.016,0.046,0.018l0.031,0.004l0.108,0.625  l-0.333,0.017L12.408,26.99z M10.281,19.951l0.123,0.092l0.009,0.009l-0.062,0.128l-0.18-0.146l-0.049-0.092L10.281,19.951z   M13.224,19.229l0.094,0.085l0.014,0.025l-0.006,0.204l-0.086-0.245L13.224,19.229z M14.476,24.423l-0.447-0.301l0.503,0.179  l0.185,0.292L14.476,24.423z M14.54,21.754L14.44,21.74l-0.103-0.022l0.015-0.117l0.366,0.165L14.54,21.754z M12.928,25.013  l-0.049-0.005l-0.021-0.068l0.079,0.02l-0.004,0.035L12.928,25.013z M11.805,24.852l-0.091,0.178l0.02,0.01l-0.451,0.146  l-0.062-0.525l0.489-0.008l0.921,0.231l0.031,0.103l-0.558-0.057c-0.014,0-0.028,0-0.041,0.004l-0.062,0.02L11.805,24.852z   M10.426,24.124l0.005-0.055l0.051-0.119l0.035-0.002l0.018-0.001v0h0.002v-0.002l0.021-0.001l0.182-0.053l0.068,0.163l0.011,0.131  c0.001,0.012,0.004,0.024,0.01,0.035l0.119,0.246l-0.102,0.002l-0.194-0.025L10.426,24.124z M9.553,23.736l0.325,0.039l-0.293,0.013  L9.553,23.736z M14.497,22.533l0.477,0.561l-0.555-0.068l-0.203-0.246L14.497,22.533z M11.236,23.143l0.069-0.004l-0.204,0.071  l0.004-0.021L11.236,23.143z M10.507,20.978l0-0.022l0.01-0.061l0.068,0.021l0.343,0.221l0.195,0.204l-0.156-0.008l-0.349-0.246  l-0.09-0.079L10.507,20.978z M11.269,20.501l-0.098-0.339l0.069,0.023l0.073,0.08c0.007,0.007,0.014,0.013,0.023,0.018l0.219,0.13  l-0.019,0.192l-0.264-0.043l0-0.032C11.272,20.521,11.271,20.511,11.269,20.501z M13.545,23.273l-0.031-0.011l-0.002-0.017h0.01  l0.027,0.013l0,0.001L13.545,23.273z M12.01,20.896L12.01,20.896l0.043,0.105l-0.098,0.245l-0.022,0.02  c-0.002,0.002-0.004,0.005-0.006,0.007l-0.092-0.052l-0.129-0.296l0.004-0.042l0.005-0.002l0.171,0.021L12.01,20.896z M12.012,21.55  L12.012,21.55l0.243,0.137l-0.234-0.039l-0.029-0.066L12.012,21.55z M12.408,22.115l-0.083-0.095l-0.008-0.12l0.178,0.029  l0.029,0.121h0.001l0.002,0.01l0.049,0.137l-0.054-0.03L12.408,22.115z M12.992,22.35l-0.043-0.108l0.241,0.262l-0.003,0.014  L12.992,22.35z M11.891,21.83l0.067,0.077l-0.035-0.016l-0.063-0.065L11.891,21.83z M12.366,22.606l0.126,0.11l0,0l0.027,0.03  l-0.144-0.008L12.366,22.606z M13.278,22.036L13.278,22.036L13.278,22.036L13.278,22.036z M12.86,21.559h0.004l0.009,0.02  L12.86,21.559z M11.647,22.137l0.155,0.09l-0.015,0.024l0.369,0.22l0.019,0.256h-0.001l-0.058-0.084l-0.474-0.497L11.647,22.137z   M11.648,21.345l0.029,0.017l0.019,0.043l-0.021,0.006l-0.037-0.074C11.642,21.338,11.645,21.342,11.648,21.345z M11.692,22.487  l0.002,0.002l-0.001-0.001L11.692,22.487z M12.548,23.27l0.094,0.014l0.028,0.004l0,0h0l0-0.002l0.019,0.003l0.289-0.016  l0.018,0.007l0.089,0.099c0.001,0.002,0.004,0.002,0.006,0.004l-0.098,0.022l-0.381-0.041L12.548,23.27z M11.773,20.644l-0.04-0.006  l0.008-0.084l0.084,0.065l0.003,0.004L11.773,20.644z M13.325,21.706l-0.119-0.144h0.03l0.08,0.042L13.325,21.706z M12.14,23.235  l0.001,0.001L12.14,23.235L12.14,23.235z M11.439,21.386l-0.097-0.102l-0.047-0.19L11.439,21.386z M12.908,23.786l-0.033-0.048  l-0.012-0.012l-0.005-0.008c0.002,0,0.004,0.001,0.007,0.001l0.237-0.021l-0.01,0.078L12.908,23.786z M13.777,21.591l0.047,0.01  l0.003,0.005l-0.051-0.011L13.777,21.591z M10.973,20.924c0.019,0.007,0.039,0.012,0.059,0.006l0.038-0.007l0,0.075v0.001  l-0.013-0.014l-0.111-0.073L10.973,20.924z M11.811,23.24c0.008,0.014,0.019,0.026,0.032,0.035l0.01,0.007l-0.117-0.012  l-0.038-0.004v0l-0.003,0l-0.12-0.008l0.207-0.071L11.811,23.24z M13.304,23.68l0.008-0.001c0.004,0.006,0.009,0.012,0.014,0.017  l0.072,0.062l-0.105,0.006L13.304,23.68z M11.037,21.813l-0.068,0.036l-0.076-0.02l0.126-0.034L11.037,21.813z M11.027,22.072  l0.092,0.087l-0.147-0.084l0.021-0.012L11.027,22.072z M11.393,22.547l0.121,0.069l0.019,0.027l0.008,0.025l-0.02-0.004  l-0.133-0.109L11.393,22.547z M11.408,23.5c-0.017-0.005-0.035-0.004-0.051,0.001l-0.115,0.034l-0.07-0.006l-0.018-0.005  l-0.004-0.012l-0.004-0.013l-0.006-0.018l0.108,0.002h0.005l0.515,0.016l0.269,0.057v0.039l0.092,0l0.046,0.053l-0.124-0.024  l-0.236-0.03L11.408,23.5z M13.336,24.233l-0.013-0.01l-0.081-0.064l0.003-0.024l0.269,0.063l0.025,0.015l-0.007,0.116l-0.104-0.01  L13.336,24.233z M13.367,23.958l0.123-0.007l0.007,0.038L13.367,23.958z M10.592,21.525l0.211,0.123l-0.173,0.047h-0.001  l-0.027-0.055L10.592,21.525z M10.646,23.667l-0.04-0.005l0.019-0.045L10.646,23.667z M11.176,24.461l-0.124-0.342l-0.048-0.115  l-0.016-0.188l0.134-0.039l0.215,0.194c0.006,0.006,0.014,0.011,0.022,0.015l0.795,0.401c0.011,0.005,0.023,0.009,0.035,0.01  l0.304,0.029l0.07,0.231l-0.817-0.205c-0.008-0.001-0.013-0.002-0.026-0.003L11.176,24.461z M12.228,24.202l-0.766-0.387  L11.39,23.75l0.154,0.014l0.043,0.004l0,0h0l0.189,0.024l0.563,0.132l0.091,0.297L12.228,24.202z M12.566,23.976l0.16,0.037  l0.199,0.154l0.008,0.012L13,24.276l-0.354-0.034L12.566,23.976z M14.127,22.987l0.003,0.003l-0.004,0L14.127,22.987z M13.933,22.92  l-0.076-0.033l0.046-0.17l0.071,0.086L13.933,22.92z M13.673,22.804l-0.004-0.002l-0.05-0.077l-0.036-0.395l0.165,0.199  L13.673,22.804z M13.634,22.078l0.033-0.113l0.247-0.044l-0.102,0.373L13.634,22.078z M10.72,19.998  c0.004,0.002,0.007,0.005,0.012,0.006l0.031,0.011l0.092,0.186l-0.164-0.159L10.72,19.998z M11.296,22.896l-0.125,0.006l0.034-0.054  L11.296,22.896z M10.399,23.637l-0.288-0.035l0-0.001l0.165-0.021l0.145,0.007L10.399,23.637z M12.727,25.193l0.024,0.079  l-0.261-0.103L12.727,25.193z M12.791,24.716l-0.082-0.267L13,24.477l-0.037,0.282L12.791,24.716z M13.191,24.553l0.026,0.038  l0.102,0.258l-0.16-0.041L13.191,24.553z M13.43,24.591l0.082,0.076l-0.007,0.112L13.43,24.591z M14.605,23.25l0.287,0.035  l-0.268-0.012L14.605,23.25z M14.237,22.496l0.033-0.258l0.099,0.142L14.237,22.496z M14.029,22.556l-0.062-0.074l0.133-0.485  l0,0.001L14.029,22.556z M10.875,20.498l-0.165-0.027l-0.114-0.092l0.02-0.13L10.875,20.498z M10.808,24.663l0.026,0.003  l0.187-0.003l0.038,0.322l-0.132-0.171c-0.007-0.009-0.015-0.017-0.024-0.022l-0.006-0.004L10.808,24.663z M11.986,25.169  l0.133,0.068l0.679,0.269l-0.01,0.057l-1.282-0.238L11.986,25.169z M13.132,25.008l0.104,0.026l-0.107-0.006L13.132,25.008z   M14.1,25.786l-0.08-0.114l-0.153-0.386l0.502,0.545L14.1,25.786z M13.86,21.087l0.151-0.152l0.028,0.134L13.86,21.087z   M13.081,20.73l0.209,0.107l0.007,0.01l-0.002,0.115l0,0v0.006l0.001,0.03l-0.518-0.146l-0.017-0.006l0.173-0.123L13.081,20.73z   M9.754,24.067l-0.041-0.068l0.364-0.023l0.144,0.202l-0.011,0.115l-0.152-0.082l-0.095,0.176l0.149,0.081L9.97,24.443L9.754,24.067  z M10.173,24.681l-0.009,0.1L10.1,24.668L10.173,24.681z M10.371,24.715l0.067,0.011l0.317,0.208l0.007,0.01l0.061,0.075  l-0.063,0.167l-0.426-0.079L10.371,24.715z M13.078,25.225l0.433,0.027l0.215,0.406l-0.691-0.273L13.078,25.225z M14.94,26.546  L14.94,26.546l-0.009-0.007l-0.665-0.522l0.081,0.014l0.36,0.168l0.268,0.328l0.004,0.006l0,0l0,0l0,0l0.007,0.009l0.084,0.084  L14.94,26.546L14.94,26.546L14.94,26.546z M15.135,26.408l-0.278-0.348c-0.005-0.007-0.013-0.01-0.02-0.015l-0.695-0.754  l0.046,0.003l0.46,0.426l0.09,0.121l0.351,0.373l0.393,0.532l-0.036-0.036L15.135,26.408z M13.237,19.843l0.077,0.106l-0.004,0.124  l-0.007,0.44l-0.024-0.034h0l-0.227-0.598L13.237,19.843z M11.491,19.799l-0.185-0.276l0.088,0.102l0.086,0.139L11.491,19.799z   M8.926,23.43l-0.083-0.034l0.081-0.006L8.926,23.43z M12.164,25.678l0.589,0.09l-0.075,0.432l-0.754-0.546L12.164,25.678z   M12.988,25.6l0.003-0.018l0.081,0.032l-0.04-0.006L12.988,25.6z M13.844,24.702l-0.001-0.005l-0.011-0.057l-0.017-0.085  l0.138,0.014l0.124,0.348L13.844,24.702z M14.566,22.162l-0.185-0.229l0.036,0.006l0.103,0.022l0.2,0.009l-0.052,0.078  L14.566,22.162z M15.135,21.708l0.005-0.002l0.245,0.051l-0.295,0.018L15.135,21.708z M13.01,20.335l0.058,0.154l-0.065-0.035  l-0.013-0.018l-0.009,0.006l-0.216-0.115c-0.004-0.002-0.01-0.002-0.015-0.004l0.108-0.386L13.01,20.335z M10.655,22.274  l0.047,0.009c0.003,0.003,0.005,0.008,0.009,0.011l0.267,0.206L10.66,22.33L10.655,22.274z M11.028,22.753l-0.006,0.01l-0.03,0.049  c-0.005,0.009-0.01,0.02-0.012,0.03l-0.016,0.069l-0.017,0l-0.025-0.074l0-0.001h-0.001l-0.044-0.132l-0.028-0.047L11.028,22.753z   M9.134,23.483L9.13,23.426l0.003,0.002l0.03,0.049L9.134,23.483z M9.21,24.031l0.158-0.01l0.204,0.172l0.105,0.201l-0.424-0.072  l-0.071-0.115l-0.012-0.17L9.21,24.031z M9.41,24.571L9.41,24.571l-0.014-0.022l0.401,0.068l0.206,0.346L9.518,24.75L9.41,24.571z   M12.953,25.798l0.043,0.007l0.046,0.008l0.776,0.129l0.241,0.227l0.136,0.158l-1.09-0.068l-0.228-0.029L12.953,25.798z   M14.517,25.208l-0.241-0.324l-0.021-0.058l0.468,0.507L14.517,25.208z M13.943,23.812l0.006-0.13l0.018,0.005l0.135,0.051  l0.207,0.242L13.943,23.812z M16.932,21.729l-0.016,0.625l-0.335-0.277l-0.106-0.06l-0.298-0.168l0.472-0.119L16.932,21.729z   M13.821,20.154L13.821,20.154L13.821,20.154L13.821,20.154z M13.963,19.044l-0.094,0.298l-0.035,0.059l-0.013-0.05l0.146-0.384  L13.963,19.044z M12.549,20.311l-0.027,0l0.071-0.194l0.017-0.148l0.037-0.007L12.549,20.311z M12.4,20.07l-0.023,0.062  l-0.049-0.115l0.079-0.011L12.4,20.07z M12.212,20.247l-0.156-0.192l0.069-0.01L12.212,20.247z M10.688,19.065v0.206  c0,0.009,0.002,0.018,0.005,0.026l-0.156-0.192l-0.027-0.055c-0.007-0.014-0.018-0.026-0.03-0.036l-0.042-0.031l-0.055-0.068  l0.142,0.053L10.688,19.065z M10.061,18.958l0.241,0.174l0.057,0.07L10.087,19l-0.003-0.004L10.061,18.958z M8.899,20.542  l0.024,0.002l0.085-0.003l0.047,0.045l-0.102,0.021L8.899,20.542z M9.723,20.653l0.132,0.026l0.324,0.286l0.045,0.115l-0.248-0.144  l-0.409-0.251L9.723,20.653z M10.177,21.925l0.024-0.001l0.077,0.027L10.277,22l-0.04-0.007L10.177,21.925z M9.508,23.417  l-0.134,0.023l-0.022-0.036L9.508,23.417z M8.363,23.124l-0.144-0.055l-0.02-0.089l0.29,0.154L8.363,23.124z M11.394,26.101  l0.259,0.374l0.019,0.022l-0.246-0.092l-0.037-0.313L11.394,26.101z M11.265,26.747l-0.239-0.283l0.134,0.056l0.083,0.031  L11.265,26.747z M8.945,26.582l0.037,0.024c0.011,0.007,0.023,0.012,0.036,0.015l0.734,0.143l0.195,0.175l-0.41,0.127l-0.601-0.484  L8.945,26.582z M11.227,27.449l0.042,0.079c0.005,0.009,0.012,0.018,0.02,0.026l0.08,0.075l0.044,0.376l-0.128-0.311  c-0.004-0.01-0.009-0.019-0.016-0.027l-0.177-0.206L11.227,27.449z M11.573,28.356l0.131,0.188l0.582,0.674l0,0  c0.005,0.007,0.011,0.013,0.019,0.018l0.497,0.339l-0.044,0.014l-0.683-0.396l-0.018-0.012l-0.271-0.271l-0.226-0.546L11.573,28.356  z M11.535,28.826l-0.184-0.125l-0.136-0.175l0.164-0.078L11.535,28.826z M13.436,29.503L12.73,28.63l-0.085-0.38l0.142,0.067  l0.848,1.003c0.005,0.007,0.012,0.013,0.019,0.018L14,29.579L13.436,29.503z M12.045,27.545l-0.008-0.009  c-0.008-0.01-0.019-0.018-0.03-0.023l-0.065-0.033l-0.214-0.137l0.349-0.078l0.264-0.012l0.162,0.256l0.254,0.245l-0.437-0.032  L12.045,27.545z M12.915,27.629l-0.258-0.245l-0.089-0.141l0.245-0.011L12.915,27.629z M12.979,27.02l-0.102-0.588l0.209,0.026  l1.311,0.083l0.376,0.196l0,0l0.345,0.192l-1.73,0.07L12.979,27.02z M14.313,24.604l0.066,0.006l0.501,0.347l0.028,0.287  L14.313,24.604z M14.718,23.7l0.045,0.065l-0.038-0.016l-0.003-0.004c-0.008-0.012-0.019-0.022-0.031-0.03v0l-0.099-0.06  l-0.071-0.043l0.074-0.003l0.063,0.02L14.718,23.7z M15.001,23.528l-0.027-0.009l-0.037-0.012l0.154,0.004L15.001,23.528z   M15.926,21.709l-0.083-0.047l0.141-0.069l0.106-0.052l0.404,0.016l0.016,0.006L15.926,21.709z M15.058,21.464l-0.197-0.022  l-0.471-0.133l0.01-0.075l0.174-0.018l0.388,0.128l0.132,0.066L15.058,21.464z M14.229,20.996l-0.008-0.039l0.01,0.026  L14.229,20.996z M12.737,19.618l0.002,0.006l-0.033,0.12l-0.073,0.015l0.02-0.172L12.737,19.618z M11.855,19.424l0.015,0.034  l0.003-0.001l0.171,0.399l-0.043,0.006l-0.104-0.002l-0.077-0.094L11.855,19.424z M9.824,18.299l0.095,0.05l0.208,0.215  L9.824,18.299z M9.347,21.066L9.347,21.066l-0.243-0.285l0.181-0.038l0.589,0.364l0.319,0.185l-0.624-0.032L9.347,21.066z   M10.29,21.499l-0.004,0.172l-0.435-0.114l-0.073-0.084L10.29,21.499z M7.996,22.984L7.96,22.971  c-0.015-0.005-0.03-0.007-0.046-0.006L7.72,22.987l-0.078-0.061l-0.001-0.001l0.34-0.006L7.996,22.984z M7.356,22.89l0.016,0.02  L7.352,22.9l-0.015-0.015L7.356,22.89z M7.503,23.377l0.247-0.01l0.219,0.109l-0.012,0.061L7.75,23.479l-0.211-0.01l-0.018-0.004  L7.42,23.378L7.503,23.377z M8.183,23.784l0.149-0.018l0.21,0.17l-0.173,0.035l-0.165-0.058L8.183,23.784z M8.381,24.173L8.745,24.1  L9,24.305l0.01,0.016l-0.292,0.027l-0.125-0.003l-0.126-0.055l-0.094-0.115C8.375,24.173,8.378,24.173,8.381,24.173z M8.999,24.522  l0.13-0.012l0.058,0.094L9.08,24.558L8.999,24.522z M10.699,26.077l-0.252-0.701l0.363,0.16c0.009,0.004,0.02,0.007,0.03,0.008  l0.287,0.029l0.088,0.754l-0.393-0.165c-0.014-0.005-0.033-0.005-0.042-0.008h0l0,0l-0.009,0h-0.006L10.699,26.077z M9.155,26.219  l-0.063-0.058l0.163,0.012l0.149,0.036L9.155,26.219z M8.861,26.228l-0.088,0L8.72,26.191l-0.107-0.066l0.137,0.01L8.861,26.228z   M8.097,26.087l0.048,0.003l0.098,0.042l0.139,0.085l-0.213-0.009L8.097,26.087z M8.803,26.729l0.017,0.014l-0.034-0.015  l-0.01-0.006L8.803,26.729z M9.29,27.353l0.18-0.056L9.6,27.372l0.024,0.02l-0.101,0.009L9.29,27.353z M10.867,27.505l0.239,0.279  l0.198,0.479l-0.21,0.1l-0.398-0.804L10.867,27.505z M14.475,29.642l-0.042-0.005l-0.655-0.456l-0.853-1.01  c-0.009-0.011-0.021-0.02-0.033-0.026l-0.39-0.186l-0.042-0.028l0.496,0.037l0.166,0.186l0.333,0.29l0.002,0.002l0.651,0.607  c0.008,0.008,0.018,0.014,0.028,0.018l0.385,0.169l0.26,0.329c0.01,0.012,0.022,0.022,0.036,0.028l0.05,0.023L14.475,29.642z   M13.256,27.791l-0.145-0.198l-0.095-0.369l2.479-0.109l0.095,0.057c0.013,0.008,0.027,0.013,0.042,0.014l0.003,0l0.188,0.187  l-1.363,0.563l-0.391-0.084L13.256,27.791z M14.57,23.979l-0.079-0.092l-0.004-0.005l0.114,0.042l0.127,0.192l-0.076-0.004  L14.57,23.979z M19.143,23.422l-0.001-0.095l0.192-0.032L19.143,23.422z M17.965,23.243l-0.343-0.104l-0.029-0.013l0.543,0.12  L17.965,23.243z M17.515,23.104l-0.125,0.012l-0.017-0.126l0.125,0.103c0.007,0.006,0.017,0.009,0.026,0.013  C17.521,23.105,17.518,23.104,17.515,23.104z M17.152,22.854l-0.032-0.073l0.024,0.021L17.152,22.854z M17.132,21.789l0.099,0.036  l-0.107,0.29L17.132,21.789z M14.067,20.578l-0.028-0.049l0-0.004l0.034,0.051L14.067,20.578z M13.966,19.746l-0.005,0.029  l-0.019-0.004l0.083-0.261L13.966,19.746z M11.642,19.545l-0.191-0.236l-0.041-0.067l0.176-0.311l-0.054-0.03l0.032-0.025  l0.128,0.175L11.642,19.545z M9.499,17.903l-0.014-0.032l0.008-0.084l0.045,0.134L9.499,17.903z M8.934,19.427l0.114,0.101  l0.01,0.013l-0.262-0.178L8.934,19.427z M9.922,20.3l0.021,0.055l-0.098-0.037c-0.005-0.002-0.011-0.002-0.016-0.003l-0.155-0.233  L9.922,20.3z M9.162,20.336L9.06,20.304l-0.013-0.013l0.136,0.044L9.162,20.336z M8.672,20.169l0.013,0.019l-0.073-0.022  l-0.007-0.018L8.672,20.169z M8.646,20.876l0.025,0.185l-0.163-0.101l-0.042-0.047L8.646,20.876z M9.492,21.458l0.007,0.006  L9.47,21.457L9.492,21.458z M10.697,22.81l0.012,0.034l-0.006,0.019l-0.16-0.033l-0.061-0.262L10.697,22.81z M7.691,23.88  l-0.506,0.057l0.396-0.153L7.691,23.88z M10.27,25.805l0.024-0.255l0.17,0.466l0.053,0.146c0,0.001,0.001,0.002,0.001,0.003  l-0.036,0.001l-0.08-0.129l-0.098-0.13L10.27,25.805z M9.591,26.05l-0.305-0.073L8.83,25.943l-0.657-0.542l0.774,0.227l0.615,0.361  L9.591,26.05z M7.702,25.263l0.109,0.032l0.071,0.118c0.005,0.009,0.013,0.018,0.022,0.025l0.581,0.479l-0.275-0.02l-0.287-0.129  c-0.005-0.002-0.011-0.002-0.017-0.004l-0.295-0.5L7.702,25.263z M7.864,26.087L7.931,26.2l-0.082-0.003l-0.133-0.088L7.864,26.087z   M8.698,26.908l0.397,0.171l0.139,0.081l-0.063,0.02l-0.417-0.04c-0.015,0-0.03,0.001-0.044,0.006l-0.018,0.007l-0.178-0.346  L8.698,26.908z M9.053,27.599l0.455,0.003l0.003,0l0.457,0.094c0.007,0.001,0.013,0.002,0.02,0.002c0.012,0,0.023-0.002,0.035-0.006  l0.116-0.043l0.113,0.031c0.008,0.002,0.018,0.004,0.026,0.004c0.01,0,0.02-0.001,0.03-0.004l0.195-0.061l0.413,0.828l-0.137,0.065  l-0.409-0.041c-0.018-0.001-0.034,0.001-0.049,0.008l-0.376,0.163l-0.327-0.084L9.404,28.36l-0.021,0.022l-0.098-0.08l-0.38-0.739  L9.053,27.599z M11.638,29.246l0.364,0.247l-0.082-0.011l-0.466-0.27L11.638,29.246z M14.401,29.903L14.401,29.903l0.107-0.003  l0.342,0.05l-0.037,0.012l-0.441-0.008l-0.271,0.031L14.401,29.903z M16.227,29.55l-0.935,0.049l-0.366-0.172l-0.261-0.33  c-0.01-0.013-0.023-0.023-0.039-0.029l-0.392-0.173l-0.629-0.585l-0.2-0.309l0.636,0.047l0.407,0.089  c0.007,0.001,0.014,0.002,0.021,0.002c0.013,0,0.026-0.002,0.038-0.008l1.47-0.607l0.305,0.302l0.37,0.501l0.001-0.001l0.006,0.009  l0.205,0.224l0.665,0.99l0.181,0.469l-0.991-0.463c-0.013-0.006-0.028-0.009-0.042-0.009h0L16.227,29.55L16.227,29.55z   M15.253,24.126l0.354-0.138l0.273,0.03l0.03,0.023c0.011,0.008,0.022,0.014,0.035,0.017l0.583,0.155l-1.262-0.068L15.253,24.126z   M17.276,24.412l0.166,0.119l-0.233-0.063l-0.211-0.13L17.276,24.412z M18.382,23.095l-0.776-0.172l-0.273-0.225l-0.057-0.419  l0.131-0.356l1.331,0.925l0.125,0.21L18.382,23.095z M17.875,21.966l0.265,0.223l-0.368-0.256l0.098,0.029L17.875,21.966z   M17.431,21.624l-0.292-0.086l0.004-0.157l0.296,0.236L17.431,21.624z M17.269,18.454l-0.09,0.218l-0.743,0.227l0.642-0.52  l0.23-0.095L17.269,18.454z M16.496,19.087l0.586-0.177l-0.108,0.262c-0.006,0.013-0.008,0.028-0.008,0.042l0.018,0.438  l-0.033,1.321c-0.009-0.005-0.018-0.011-0.028-0.014l-0.835-0.228l-0.635-0.588c-0.004-0.004-0.011-0.006-0.016-0.01l0.741-0.853  l0.003-0.005L16.496,19.087z M14.495,20.446l0.328-0.331l0.227,0.084L14.495,20.446z M14.22,20.44l-0.133-0.204l0.037-0.223  l0.409-0.005l0.085,0.031L14.22,20.44z M12.748,18.891l0.019,0.235l-0.041-0.107L12.748,18.891L12.748,18.891z M11.907,18.341  l-0.009,0.007l-0.029-0.041l0.048,0.027L11.907,18.341z M11.441,18.716l-0.051,0.041l0.009-0.095L11.441,18.716z M8.993,19.735  l0.287,0.112l0.26,0.394l-0.706-0.229l-0.128-0.207c-0.007-0.011-0.016-0.021-0.027-0.029l-0.052-0.037l-0.231-0.408L8.993,19.735z   M7.918,20.185l0.221,0.109l0.059,0.029l0.229,0.16c0.014,0.01,0.03,0.016,0.047,0.018l0.061,0.006l0.07,0.175l-0.292,0.061  l-0.339-0.383l-0.101-0.157L7.918,20.185z M9.127,21.659l-0.099-0.111l0.531,0.139L9.54,21.699l0.033,0.052l-0.152,0.008  L9.127,21.659z M9.918,22.162l0.35,0.186l-0.003,0.129v0.005l0,0v0h0.003l0,0.024l0.063,0.278l-0.35-0.073L9.918,22.162z   M10.347,22.993l-0.34,0.019l-0.005-0.091L10.347,22.993z M9.802,22.931l0.001,0.016L9.703,22.86l0.003-0.001l0.09,0.019  L9.802,22.931z M9.388,24.93l-0.004,0l-0.001-0.007L9.388,24.93z M9.53,25.16l0.177,0.286l0.419,0.556l0.037,0.108L9.717,25.85  l-0.285-0.593l-0.017-0.118L9.53,25.16z M9.236,25.301c0.001,0.01,0.004,0.02,0.009,0.029l0.163,0.339l-0.382-0.224l-0.813-0.239  l0.904-0.123L9.207,25.1L9.236,25.301z M7.444,24.979l-0.079-0.134l0.283,0.194L7.444,24.979z M7.769,26.649l0.396-0.036  l0.014,0.008l0.123,0.209l0.164,0.318l-0.071-0.019l-0.67-0.479L7.769,26.649z M8.363,27.488l0.087-0.033l0.198,0.047l0.469,0.91  c0.004,0.008,0.011,0.014,0.017,0.02h0l-0.008-0.001l-0.021-0.015l-0.326-0.238l-0.419-0.689C8.36,27.489,8.361,27.489,8.363,27.488  z M10.692,29.243l-0.053-0.033l0.048-0.017l0.378,0.034l0.021,0.002l0.597,0.346l-0.122-0.003L10.692,29.243z M15.326,30.456  l-0.171-0.011l-0.818-0.286l0.045-0.005l0.445,0.008c0.011,0.004,0.021-0.001,0.032-0.004l0.45-0.14l0.825,0.121L15.326,30.456z   M15.858,29.771l0.318-0.018l0.061-0.003l0,0l0.418-0.003l0.451,0.21l-0.828-0.135L15.858,29.771z M17.551,28.819l-0.02-0.189  l0.106,0.073l0.249,0.334l0.014,0.024L17.551,28.819z M17.334,28.669l-0.171-0.119l-0.414-0.581l0.524,0.482l0.001-0.001l0.011,0.01  l0.03,0.021L17.334,28.669z M16.38,27.358l0.163-0.067l0.22,0.014l0.287,0.618l0.011,0.023l0,0l0,0l0.001,0l0.006,0.013l0.051,0.08  L16.38,27.358z M16.901,27.111l-0.215-0.473l-0.024-0.04l-0.278-0.797l-0.235-0.387l-0.255-0.355h0l-0.229-0.381  c-0.006-0.01-0.014-0.02-0.023-0.027l-0.062-0.05l-0.17-0.248l1.35,0.073l0.357,0.22c0.008,0.005,0.017,0.009,0.026,0.012  l0.434,0.118l0.299,0.069L17.87,25.22l0.035,1.354l0.1,0.438l0.2,0.726l0,0l-1.189-0.608c-0.01-0.005-0.022-0.009-0.035-0.01v0  L16.901,27.111z M18.116,26.606l-0.013-0.057l-0.033-1.331l0.004-0.329l0.224,0.052l-0.059,1.147L18.116,26.606z M18.542,24.74  l0.192-0.353l0.042,0.044l0.633,0.593l0.134,0.198l-0.802-0.382l0,0L18.542,24.74z M20.198,26.07l-0.167-0.312l-0.044-0.102  l0.17,0.081l0.396,0.348l0.166,0.213l-0.01,0.091l-0.075,0.248l-0.099-0.239c-0.005-0.013-0.014-0.024-0.024-0.033l0.001-0.001  L20.198,26.07z M20.754,25.966l-0.005,0.05l-0.052-0.066l-0.419-0.371c-0.007-0.006-0.015-0.012-0.023-0.016l-0.391-0.187  l-0.041-0.092l-0.035-0.051l-0.059-0.789l-0.127-0.861l0.004-0.017l0.042-0.17l0.022-0.088l0.139-0.093l0.334-0.056l0.387,0.115  l0.321,0.247l0.47,0.879l0.001,0l0.003,0.007l0.18,0.278l-0.062,0.072l0.002,0.001l-0.015,0.017l-0.41,0.777l-0.251,0.367  C20.762,25.934,20.756,25.95,20.754,25.966z M22.376,23.335l0.004-0.02l0.033-0.06L22.376,23.335z M22.917,21.163l-0.013,0.164  l-0.073,0.26c-0.003,0.01-0.004,0.02-0.004,0.03l0.016,0.425l-0.156,0.505l-0.261,0.275c-0.006,0.006-0.011,0.013-0.015,0.021  l-0.214,0.39c-0.005,0.009-0.009,0.019-0.011,0.028l-0.172,0.841l-0.372,0.428l-0.141-0.217l-0.335-0.933l0.027-0.413l0.078-0.458  l-0.015-0.423l0.229-1.019l1.359-0.355l0.079,0.376L22.917,21.163z M21.536,20.846l0.009-0.041l0.239-0.318l0.789-0.354  c0.003-0.001,0.006-0.004,0.009-0.006l0.191,0.232l0.033,0.157L21.536,20.846z M17.916,19.025l0.146,1.29l-0.106,0.394l-0.373,0.775  l-0.434-0.352l0.038-1.454l0.204-0.872l0.307-0.208L17.916,19.025z M17.458,18.519l0.034-0.082l0.075-0.098l0.04,0.079  L17.458,18.519z M16.296,18.334c0.014,0,0.027-0.005,0.039-0.011v0l0.002-0.001c0,0,0,0,0.001,0l0.005-0.003l0.383-0.191  l0.607-0.245l0.047,0.091l-0.017,0.07L16.988,18.2c-0.009,0.004-0.018,0.009-0.026,0.015l-0.69,0.559  c-0.009,0.007-0.016,0.015-0.022,0.024l-0.21,0.33l-0.007,0.004c-0.01,0.005-0.018,0.013-0.025,0.021l-0.77,0.902l-0.261-0.096  l0.054-0.055l0.263-0.359c0.006-0.009,0.011-0.018,0.015-0.028l0.137-0.423l-0.19-0.062l-0.132,0.408l-0.243,0.335l-0.107,0.108  l-0.188-0.069c-0.012-0.004-0.025-0.006-0.036-0.006l-0.392,0.008l0.005-0.03l0.216-0.863c0.003-0.015,0.004-0.029,0.001-0.044  l-0.045-0.22l0.258-0.25l0.382-0.108l0.438,0.082L16.296,18.334z M12.64,18.094l0.039,0.07l-0.045,0.162l-0.034,0.212l-0.078-0.056  l-0.025-0.067l0.041-0.253L12.64,18.094z M11.888,18.092l-0.104-0.045l-0.136-0.649l0,0l-0.001-0.006l-0.113-0.399l0.424,1.138  L11.888,18.092z M11.721,18.748L11.721,18.748L11.721,18.748L11.721,18.748z M11.2,18.411l0.014,0.11l-0.014,0.14l-0.098-0.054  l-0.016,0.029l-0.243-0.64l-0.037-0.083L11.2,18.411z M10.241,18.294l-0.272-0.19c-0.004-0.003-0.01-0.003-0.014-0.006L9.733,17.87  l-0.162-0.477l0.169,0.126l0.25,0.333l0.222,0.395l0.033,0.05L10.241,18.294z M9.528,19.418l-0.02-0.011l0.017,0.002L9.528,19.418z   M8.062,19.137c0.002,0.006,0.001,0.012,0.004,0.017l0.178,0.315l-0.409-0.29L8.062,19.137z M8.452,19.86l-0.146,0.058l-0.208-0.001  l-0.153-0.123c-0.008-0.006-0.017-0.011-0.026-0.015l-0.624-0.242l-0.231-0.213l0.497-0.093L8.452,19.86z M7.403,19.91l0.02,0.018  l0.143,0.163l0.005,0.007l-0.084,0.03l-0.007-0.026c-0.004-0.013-0.01-0.025-0.019-0.036l-0.182-0.225L7.403,19.91z M7.826,20.497  l0.084,0.094l-0.097-0.06l-0.238-0.094l-0.017-0.06L7.826,20.497z M7.723,20.709l0.186,0.115l-0.211,0.043l-0.055-0.19L7.723,20.709  z M8.97,21.783l-0.002,0l0-0.003L8.97,21.783z M8.995,21.982l0.406-0.02l0.306,0.104l0.067,0.602l-0.047-0.01  c-0.014-0.002-0.029-0.003-0.043,0l-0.167,0.039l-0.15-0.131L9.362,22.57l-0.3-0.284l-0.029-0.017L8.995,21.982z M9.067,22.563  l0.201,0.191l-0.002,0l-0.184-0.021L9.067,22.563z M9.259,22.956c0.01,0.001,0.023,0,0.034-0.001l0.163-0.038l0.137,0.118  L9.22,23.055l-0.078-0.029l-0.041-0.038l-0.003-0.051L9.259,22.956z M6.609,23.38l0.316-0.001l0.152,0.113l-1.074-0.127L6.609,23.38  z M6.74,23.652L6.5,23.645L6.49,23.622L6.74,23.652z M6.84,23.855l-0.074,0.029l-0.068-0.012L6.59,23.866l-0.008-0.019L6.84,23.855z   M6.732,24.112l0.367,0.063c0.006,0.001,0.011,0.001,0.017,0.001c0.005,0,0.01,0,0.015-0.001L7.9,24.063l0.373,0.326l-0.003,0.147  l0.278,0.006l0.699,0.307L9.172,24.86l0.004,0.03l-0.038-0.007c-0.01-0.003-0.021-0.003-0.032-0.001l-1.21,0.165l-0.072-0.12  c-0.007-0.012-0.017-0.022-0.029-0.031l-0.367-0.251c-0.01-0.006-0.02-0.011-0.031-0.014L7.21,24.583l-0.089-0.151L6.973,24.52  l-0.006-0.001l-0.001,0.006L6.95,24.534l0.009,0.015l-0.043,0.164l0.165,0.043l0.185,0.313l-0.336,0.004l-0.192-0.042l-0.119-0.538  l0.034-0.351L6.732,24.112z M7.084,25.942l-0.066,0l-0.085-0.086L7.084,25.942z M7.398,26.139l0.064,0.042l-0.218-0.009L7.213,26.14  L7.398,26.139z M7.318,26.661l0.127-0.003l0.125,0.126l0.35,0.251l-0.016,0.044l-0.37-0.136c-0.015-0.006-0.028-0.008-0.047-0.005  l-0.313,0.038l-0.009-0.003L7.1,26.674L7.318,26.661z M9.87,29.144c0.008,0.01,0.019,0.018,0.03,0.024l0.308,0.161  c0.015,0.007,0.03,0.011,0.046,0.011c0.011,0,0.022-0.002,0.033-0.006l0.098-0.035l0.206,0.117l0-0.001l0.014,0.008l0.097,0.037  l-0.209,0.031l-0.773-0.178l-0.137-0.09L9.87,29.144z M10.295,29.78l0.079,0.034l-0.222,0.026L10.295,29.78z M9.626,29.74  l0.067-0.006l0.159,0.065L9.626,29.74z M12.071,29.825l0.149-0.032l0.355,0.009l0.278,0.083l-0.595,0.041l-0.081-0.011  L12.071,29.825z M12.628,30.152l-0.105-0.044l0.888-0.062l0.037,0.013L12.628,30.152z M14.566,30.523l-0.018-0.003l-0.004-0.003  L14.566,30.523z M19.652,30.192l0.096,0.003l0.055,0.025L19.652,30.192z M18.566,28.361l0.146,0.141l0.504,0.792l-0.327-0.283  l-0.249-0.345L18.566,28.361z M19.953,29.703L19.953,29.703l-0.37-0.203l-0.717-1.123l-0.388-0.378l-0.043-0.178l0,0l-0.203-0.842  l0.204-0.86l0.06-1.131l0.168,0.039l1.003,0.479l0.188,0.351l0.148,0.34c0.006,0.015,0.016,0.027,0.029,0.038l0.326,0.266  l0.156,0.375l0.055,0.405l-0.004,0.454c0,0.012,0.002,0.023,0.005,0.034l0.281,0.805l0.052,0.482l0.142,0.405l-0.001,0.429  c0,0.011,0.002,0.022,0.005,0.032l0.142,0.422c0.004,0.011,0.009,0.022,0.017,0.031l0.216,0.268L19.953,29.703z M20.95,26.013  l0.243-0.356l0.402-0.768l0,0l0,0l0.008-0.009l0.016-0.019l0.048,0.075l-0.411,0.711l-0.314,0.422L20.95,26.013z M23.11,21.333  l0.015-0.054l-0.031,0.232L23.11,21.333z M22.134,19.519l-0.023-0.006l0.021-0.001L22.134,19.519z M21.339,20.299l-0.024,0.262  l-0.221,0.418l-0.186,0.178l0.058-0.31l0.209-0.386l0.166-0.393l0.094-0.141L21.339,20.299z M20.589,21.738l-0.212,0.758  l-0.116,0.122l-0.217-0.174l-0.042-0.022l0.016-0.028l0.281-0.339L20.589,21.738z M19.934,22.61l0.188,0.152l-0.021,0.021  L19.8,22.984l-0.047,0.004l0.06-0.235l0.091-0.159L19.934,22.61z M17.139,16.517l-0.035,0.89c0,0.017,0.003,0.034,0.011,0.049  l0.102,0.201l-0.589,0.272l-0.367,0.208l-0.837,0.049l-0.437-0.085c-0.016-0.003-0.031-0.002-0.046,0.002l-0.429,0.121  c-0.016,0.004-0.03,0.013-0.042,0.024l-0.183,0.177l-0.04-0.197l0.054-0.143l0.881-0.948l0.38-0.164l1.277-0.399l0.297-0.102  L17.139,16.517z M14.158,17.787l-0.028-0.138l0.219-0.48l-0.085,0.374L14.158,17.787z M13.546,16.58l-0.04-0.068l0.126-0.218  l0.057,0.271L13.546,16.58z M12.8,16.751l0.044,0.278l-0.009,0.007l-0.042-0.245c-0.001-0.009-0.004-0.018-0.008-0.026l-0.161-0.347  l0.081,0.082L12.8,16.751z M12.216,17.33l0.24,0.432l-0.084,0.192c-0.003,0.008-0.006,0.017-0.007,0.025l-0.01,0.065l-0.138,0.092  l-0.065-0.059l-0.447-1.197L12.216,17.33z M11.503,16.911l-0.173-0.35l-0.001-0.011l0.06,0.053L11.503,16.911z M11.304,17.035  l0.149,0.404l0.089,0.425l-0.233-0.318L11.27,17.18l-0.084-0.346L11.304,17.035z M11.497,18.14l0.144,0.196l0.04,0.188l-0.08,0.064  l-0.211-0.291l-0.023-0.214L11.497,18.14z M8.471,18.907L8.287,18.91c-0.001,0-0.003-0.001-0.004-0.001l-0.032-0.015v-0.035  l0.219,0.047L8.471,18.907z M7.754,21.062l0.403-0.083l0.215,0.133l0.133,0.15l-0.037,0.14l0.21,0.055l0.051,0.058l0.036,0.27  l-0.342-0.015l-0.445-0.005l-0.002,0.2l0.442,0.005l0.375,0.016l0.021,0.157l-0.137-0.08l-0.101,0.173l0.271,0.155l0.012,0.093  l0.016,0.227l-0.04-0.004l-0.066,0.001l-0.362-0.185L8.333,22.67l-0.229-0.122l-0.256-1.157l0,0l-0.001-0.006L7.754,21.062z   M7.343,22.62l-0.061-0.047l0.124,0.046L7.343,22.62z M6.049,22.514l-0.038-0.022l0.045,0.021L6.049,22.514z M6.243,22.957  l0.343,0.204c0.002,0.001,0.004,0.002,0.006,0.003l0,0.016l-0.99-0.024l0.261-0.134L6.243,22.957z M6.457,23.618l-0.059,0.023  l-0.982-0.031l-0.333-0.159L6.457,23.618z M7.04,26.248l-0.031,0.014l-0.013-0.057L7.04,26.248z M8.177,28.284l0.487,0.063  l0.051,0.037L8.691,28.38c-0.015-0.002-0.027-0.001-0.041,0.003l-0.065,0.02L8.54,28.402L8.177,28.284z M7.874,28.575l0.345,0.127  c0.02,0.008,0.042,0.007,0.064,0.002l0.279-0.085l0.401,0.13l0.688,0.248l-0.149,0.042l-0.264-0.044l-0.245-0.162l-0.072,0.109  L8.67,28.9l-0.444-0.03l-0.014,0.199l0.435,0.029l0.516,0.086l0.463,0.305c0.01,0.006,0.021,0.011,0.033,0.014l0.503,0.116  l-0.108,0.045L9.748,29.54c-0.015-0.006-0.031-0.009-0.047-0.007L9.053,29.59l-0.148-0.039l-0.827-0.311l-0.387-0.175l-0.351-0.39  l0.327-0.109L7.874,28.575z M7.94,29.398l0.056,0.025l0,0l0.006,0.002l0.555,0.208l-0.172,0.015l-0.403-0.076l-0.011,0.06  l-0.4-0.407c0.006,0.005,0.012,0.011,0.02,0.014l0,0.001L7.94,29.398z M17.002,30.154l0.194,0.021l0.279,0.045l-0.017,0.005  l-0.419,0.032l-0.417-0.062L17.002,30.154z M21.28,31.096l0.148,0.091l-0.252-0.067l-0.157-0.118L21.28,31.096z M23.39,31.897  l-0.422-0.27l0.788-0.11l0.841,0.399l0.356,0.309l1.594,1.508l-1.399-0.832l-0.347-0.388l-0.419-0.296  c-0.008-0.006-0.018-0.011-0.027-0.014L23.39,31.897z M25.13,31.604l0.355,0.632l0.737,0.91l-0.775-0.738l-0.361-0.331l-0.368-0.32  c-0.007-0.006-0.014-0.011-0.022-0.015l-0.881-0.418c-0.011-0.005-0.023-0.006-0.035-0.007v-0.002l-0.49-0.041  c-0.017-0.003-0.031,0-0.045,0.007l-0.4,0.159l-0.209-0.024l-0.69-0.441l-0.022-0.033l-0.548-0.679l-0.13-0.39l-0.001-0.438l0.002,0  l-0.048-0.471l-0.15-0.435l-0.09-0.846c-0.001-0.011-0.004-0.021-0.009-0.031l-0.177-0.389l0.004-0.403l0.02-0.064l0.089-0.285  l0.006,0.008l0.901,1.438l0.491,0.534l0.001,0c0.001,0.001,0.002,0.003,0.003,0.004l1.011,0.978L25.13,31.604z M21.867,25.243  l0.319,1.966l-0.105,0.478c-0.003,0.015-0.003,0.031,0,0.045l0.008,0.031l-0.001-0.002l-0.136,0.079l-0.002-0.003l-0.896-1.431  l-0.057-0.073l0.428-0.576l0.366-0.633L21.867,25.243z M21.757,24.705l0.133-0.152l-0.109,0.188L21.757,24.705z M23.216,20.614  l-0.073,0.537l-0.011-0.052l0.043-0.474L23.216,20.614z M23.093,19.313l-0.329-1.102l0.317-0.472l0.139-0.312l0.232,0.746  l-0.13,0.832L23.093,19.313z M23.45,14.544l-0.156,0.949l-0.049-0.062l-0.03-0.298v-0.147L23.45,14.544z M22.914,14.407l0.066-0.193  l0.036,0.475l0,0.247l-0.015,0.027l-0.091-0.52L22.914,14.407z M22.622,13.956l0.088,0.5l-0.037,0.35  c-0.001,0.018,0.001,0.035,0.008,0.051l0.102,0.234l-0.522-0.487l-0.318-0.547l-0.039-0.298l-0.125,0.017l-0.032-0.056l-0.041-0.11  l0.015-0.306l0.649,0.344L22.622,13.956z M22.112,14.893c0.002,0.002,0.003,0.004,0.005,0.006l0.313,0.28l0.592,1.624l-0.145,0.829  l-0.199,0.291l-0.069-0.231l-0.152-0.884l-0.155-0.614l-0.01-0.244l-0.125-0.427l-0.033,0.009l-0.002-0.007l-0.085-0.653  L22.112,14.893z M22.196,18.754l0.352-0.234c0.011-0.007,0.02-0.016,0.027-0.027l0.044-0.066l0.315,1.055l-0.341,0.353l-0.222-0.246  L22.34,19.5h0.002l-0.011-0.2l-0.062,0.003l-0.15-0.422L22.196,18.754z M22.062,19.314l-0.175,0.009  c-0.015,0.001-0.029,0.005-0.042,0.012l0.141-0.234L22.062,19.314z M20.132,19l0.354,0.27c0.01,0.008,0.022,0.014,0.034,0.017  l0.87,0.236l0.024,0.076l-0.249,0.375l-0.17,0.4l-0.022,0.041c0.003-0.01,0.006-0.02,0.006-0.03l-0.044-0.89l-0.2,0.011l0.042,0.865  l-0.167,0.388c-0.005,0.013-0.008,0.026-0.008,0.04l0.003,0.646l-0.01,0.009l-0.143,0.136l-0.305,0.332l-0.294,0.357l-0.027,0.048  l-0.132-0.07l-0.001-0.004l-0.431-1.249l-0.023-0.415l0.43-1.713c0.002-0.009,0.003-0.018,0.003-0.027v-0.004l0.017-0.098L20.132,19  z M19.631,17.046c0.014-0.004,0.028-0.011,0.039-0.021l0.396-0.348l-0.258,0.365c-0.008,0.011-0.014,0.024-0.017,0.039l-0.149,0.76  l-0.009-0.327c0-0.01-0.002-0.02-0.005-0.029l-0.133-0.401L19.631,17.046z M18.706,17.096l-0.402,0.182l-0.275,0.111l0.893-0.618  l0.085,0.083l0.126,0.124L18.706,17.096z M17.537,15.358l0.191,0.257l1.047,1.014l-1.101,0.763l-0.096-0.347l-0.01-0.721l0.115-0.04  l-0.064-0.189l-0.053,0.019l-0.005-0.391l-0.2,0.003l0.006,0.457l-0.033,0.011l-0.017-0.764L17.537,15.358z M15.799,15.918  l1.318-0.425l0.017,0.769l-0.355,0.123l-1.284,0.401l-0.409,0.176c-0.013,0.005-0.024,0.014-0.034,0.024l-0.617,0.665l0.02-0.045  l0.194-0.849l0.028-0.04l0.04-0.043L15.799,15.918z M13.877,16.496l-0.097-0.458l0.086-0.149L13.877,16.496z M13.542,15.871  l0.028,0.131l-0.163,0.282L13.328,16l0.071-0.432v-0.012L13.542,15.871z M12.719,14.937l0.483,0.417L13.2,15.55l-0.073,0.439  c-0.002,0.015-0.001,0.029,0.002,0.043l0.121,0.429c0.002,0.008,0.005,0.016,0.01,0.023l0.016,0.027l-0.183,0.315l-0.038,0.031  l-0.062-0.164l-0.004-0.024l-0.38-1.28l-0.191,0.057l0.204,0.686l-0.058-0.059l-0.146-0.365l-0.01-0.985L12.719,14.937z   M12.727,17.64l0.018,0.145l-0.035,0.022l-0.031-0.057L12.727,17.64z M11.919,15.975l0.063,0.452l0.138,0.552l-0.563-0.495  l-0.025-0.067l-0.289-0.514l-0.026-0.195l0.123-0.847l0.171-0.309l0.113,0.604L11.919,15.975z M11.443,14.192l-0.025,0.065  l0.017-0.109L11.443,14.192z M11.113,16.45l-0.025-0.018l-0.023-0.095l0.037,0.028L11.113,16.45z M11.042,16.319l-0.083,0.02  l-0.212-0.152l0.152,0.022L11.042,16.319z M9.628,16.021l0.724,0.107l0.01,0.018c0.007,0.013,0.017,0.024,0.029,0.032l0.521,0.373  l0.161,0.662l0.055,0.55l-0.057-0.024l-0.028,0.066l-0.465-0.666c-0.007-0.01-0.016-0.019-0.026-0.025l-0.089-0.06l-0.046-0.267  l0.003-0.445l-0.2-0.002l-0.002,0.463l0.018,0.098l-0.068-0.046L10,16.78l-0.146-0.199l-0.346-0.332l0.008-0.02  c0.005-0.013,0.007-0.026,0.007-0.04L9.52,16.062L9.628,16.021z M9.328,18.846l0.018,0.051L9.32,18.883L9.274,18.84L9.328,18.846z   M8.56,18.441l0.301,0.284l-0.112,0.036l-0.148-0.032l-0.194-0.346L8.56,18.441z M8.25,18.647l-0.023-0.175l0.113,0.201l-0.09-0.019  V18.647z M7.042,18.864h-0.12v0.113l0-0.028l-0.138,0.002l-0.278-0.467L7.042,18.864z M7.167,20.276l0.057,0.01l0.005,0.014  L7.167,20.276z M7.081,22.498l-0.042,0.055L6.986,22.52L6.9,22.431L7.081,22.498z M6.724,22.592l-0.24-0.106  c-0.005-0.002-0.011-0.001-0.016-0.002l-0.364-0.168l0.221,0.027L6.724,22.592z M5.25,23.112l-0.159,0.081l-0.021-0.076L5.25,23.112  z M4.862,23.118l0.002,0.007l-0.012-0.009L4.862,23.118z M5.125,23.694l-0.002,0.098L5.071,23.81l-0.035-0.125l0.005-0.031  L5.125,23.694z M3.925,23.825l0.642,0.187l0.359,0.02l0.151,0.543c0.003,0.013,0.01,0.025,0.019,0.036l0.03,0.038l-0.441-0.185  L3.925,23.825z M5.482,25.367l0.075,0.029l0,0h0c0.011,0.004,0.023,0.007,0.036,0.007c0.005,0,0.009,0,0.014-0.001l0.136-0.02  l0.46,0.126L5.6,25.593L5.482,25.367z M5.742,25.866l-0.044-0.084l0.878-0.123l0.015,0.003l0.093,0.053l0.008,0.037l-0.073,0.072  l0.114,0.115l0.001,0.006l-0.119,0.001l0.002,0.2l0.161-0.001l0.045,0.203L6.82,26.349l-0.717-0.29L6.07,26.143L6.067,26.14  L5.742,25.866z M7.107,28.418l-0.309-0.321c-0.006-0.006-0.014-0.012-0.021-0.017l-0.396-0.232l0.201-0.05l0.748,0.177l0,0l0,0  l0.003,0.001l0.011,0.018l0.31,0.319c0.011,0.012,0.025,0.021,0.041,0.025l0.102,0.033l-0.142-0.006  c-0.011-0.001-0.024,0.002-0.036,0.005l-0.406,0.136l-0.027,0L7.107,28.418z M7.098,28.707l0.417,0.463l-0.162-0.165l-0.381-0.258  l0,0l-0.089-0.042L7.098,28.707z M6.09,28.75l0.109,0.262l-0.455-0.258L6.09,28.75z M9.783,30.166l0.694-0.112l0.104,0l0.343,0.013  l0.172,0.082l0.484,0.166l-1.104,0.008l-0.408-0.076L9.783,30.166z M10.626,30.553L10.56,30.52l1.234-0.008  c0.015,0,0.029-0.003,0.042-0.009l0.116-0.054l0.244,0.167l-0.258-0.056L10.626,30.553z M16.642,30.425l-0.416,0.047L15.9,30.445  l0.118-0.047l0.165-0.064l0.542,0.079L16.642,30.425z M23.943,33.213l-3.113-1.555l-0.784-0.356l-1.498-0.821l-0.011-0.018  l1.073,0.252c0.012,0.003,0.024,0.003,0.037,0.002l0.419-0.058l0.368,0.132l0.278,0.229l0,0l0.003,0.003l0.355,0.268  c0.01,0.007,0.022,0.013,0.034,0.017l0.875,0.233l0.028,0.003l0.395,0.243c0.016,0.01,0.034,0.015,0.052,0.015  c0.013,0,0.025-0.002,0.037-0.007l0.045-0.018l0.251,0.16c0.009,0.005,0.018,0.009,0.028,0.012l0.502,0.135l0,0l0.96,0.306  l0.39,0.272l0.34,0.385c0.007,0.008,0.015,0.015,0.023,0.02L26.603,34l-1.855-0.49L23.943,33.213z M55.961,29.465l-0.192,0.072  l-0.377,0.222l-0.74,0.366l-0.314-0.006l-0.2-0.021l-0.04-0.014c-0.014-0.004-0.027-0.007-0.041-0.005l-0.055,0.004l-0.079-0.008  l0.374-0.441l1.192-0.408l0.418-0.095l0.236,0.044L56.14,29.18L55.961,29.465z M58.771,26.227l0.159-0.107l-0.157,0.249  l-0.066,0.059l0.039-0.168L58.771,26.227z M55.851,28.837c-0.009,0.001-0.018,0.004-0.026,0.008l-0.397,0.19l-0.39,0.134l0.124-0.07  l0.002-0.002l0.492-0.23l0.843-0.278l-0.232,0.18L55.851,28.837z M57.426,27.4l0.329-0.119l-0.548,0.523L57.426,27.4z   M56.772,28.189l-0.103,0.065l0.122-0.101L56.772,28.189z M54.176,29.466l-0.124,0.042l0.183-0.111L54.176,29.466z M53.812,29.8  l0.115-0.039l-0.151,0.178l-0.351,0.182l-0.016,0.002l-0.017,0.006l-0.089,0.006L53.812,29.8z M56.199,28.982l0.053-0.008  l-0.009,0.017L56.199,28.982z M56.516,28.905l0.158-0.198l0.75-0.581c0.012-0.009,0.021-0.021,0.028-0.035l0.19-0.383l0.197-0.182  l0.155-0.105l-1.109,1.498l-0.154,0.164l-0.283-0.053L56.516,28.905z M59.225,26.235l0.007-0.006v0L59.225,26.235z M56.786,27.613  l0.359-0.113l-0.222,0.409l-0.207,0.059c-0.014,0.004-0.025,0.01-0.036,0.019l-0.336,0.279l-0.351,0.241l-0.342,0.145L56.786,27.613  z M52.693,30.127l0.338-0.052l-0.035,0.023l-0.348,0.075l0.009-0.046L52.693,30.127z M50.928,30.178l1.131-0.043l0.177,0.079  l-0.356,0.026l-0.035-0.005c-0.013-0.003-0.026-0.002-0.037,0.001l-0.066,0.015l-0.635,0.047l-0.122-0.01l-0.297-0.003l-0.146-0.011  c-0.015-0.003-0.03,0-0.045,0.007l-0.674,0.266l-0.274-0.055L50.928,30.178z M50.598,23.167c-0.012,0.012-0.02,0.026-0.024,0.042  l-0.119,0.407l-0.565,0.66c-0.01,0.012-0.018,0.026-0.021,0.042l-0.007,0.028l-0.036,0.001l-0.057-1.562l0.015-0.252l0.167-0.06  l0.844,0.093l0.41-0.007L50.598,23.167z M47.793,23.03c-0.013,0.004-0.023,0.011-0.032,0.019l-0.003,0.003l-0.038-0.04l0.772-0.476  l0.424-0.107l0.457-0.021l0.122,0.014L47.793,23.03z M52.032,17.759l-0.09,0.044c-0.016,0.008-0.029,0.019-0.039,0.034l-0.25,0.368  c-0.005,0.008-0.009,0.016-0.012,0.024l-0.136,0.407l-0.115,0.15l0.321-1.082l0.098-0.676l0.044,0.047l0.138,0.322l-0.001,0.003  c-0.005,0.015-0.007,0.031-0.004,0.046L52.032,17.759z M51.596,17.126l-0.078,0.535l-0.104,0.354l0.152-0.849L51.596,17.126z   M51.402,18.049c0.003-0.006,0.005-0.012,0.006-0.019l-0.262,0.888l-0.225,0.375l-0.013,0.014l0.007-0.035l0.281-0.829  L51.402,18.049z M51.073,19.424L51.073,19.424l0.33-0.327l0.271-0.353c0.007-0.009,0.013-0.019,0.016-0.029l0.137-0.409l0.227-0.335  l0.009-0.004l0.05,0.343l0.001,0.007l-0.061,0.857l-0.021,0.077l-0.655,0.189c-0.015,0.004-0.027,0.011-0.038,0.021l-0.337,0.292  l0.001,0.001l-0.009,0.006l-0.215,0.231l0.057-0.295L51.073,19.424z M53.155,19.384l0.462-0.032l0.298-0.072l-0.075,0.217  l-0.271,0.341l-0.75,1.088l-0.314,0.258l-0.41,0.092c-0.017,0.004-0.031,0.011-0.044,0.022l-0.225,0.193L52,20.085l0.165-0.582  l0.672-0.117L53.155,19.384z M55.349,20.975l-0.36,0.263L54.56,21.32L53.447,21.7l-0.168,0.046l-0.381,0.183l-0.424,0.01  c-0.01,0-0.019,0.002-0.027,0.004l-0.752,0.234l0.087-0.341l0.008-0.06l0.8-0.271l0.448-0.045l0.444,0.026  c0.011,0.002,0.024,0,0.035-0.004l0.756-0.235c0.017-0.005,0.031-0.014,0.043-0.026l0.032-0.033l0.218-0.224l0.644-0.042h0.001  L55.349,20.975z M51.48,22.21l-0.113,0.145l-0.068,0.001l-0.496-0.089l-0.251-0.01l0.819-0.293l0.195-0.087L51.48,22.21z   M51.823,22.347l0.67-0.208l0.431-0.01c0.015,0,0.027-0.003,0.039-0.009l0,0l0.397-0.179l0.152-0.052l0.241-0.065l0.637,0.158  l-0.546,0.184l0,0l-0.003,0.001l-0.4,0.151L51.823,22.347z M54.788,21.873l-0.714-0.177l0.536-0.183l0.438-0.083  c0.015-0.003,0.028-0.009,0.04-0.018l0.481-0.352l0.218,0.084l-0.87,0.725L54.788,21.873z M54.223,21.029l-0.033,0.035l-0.714,0.222  l-0.202-0.011l0.241-0.082l0.383-0.186l0.37-0.026L54.223,21.029z M50.558,20.077l-0.087,0.138l0.036-0.145l0.066-0.076  L50.558,20.077z M49.894,21.77l0.218-0.47l0.198-0.39l0.223-0.363l0.591-0.637l0.355-0.222l0.408-0.137l0.062-0.011l-0.144,0.504  l-0.199,1.596l-0.309,0.138l-1.277,0.457l-0.213-0.009L49.894,21.77z M52.427,22.536l1.036-0.019c0.012,0,0.022-0.002,0.033-0.006  l0.188-0.071l-0.427,0.189l-0.358,0.113L52.427,22.536z M56.479,22.005l0.106,0.054l-0.073,0.019l-0.553-0.039l0.017-0.007  L56.479,22.005z M56.41,21.614l-0.481,0.22l-0.32,0.017l-0.368,0.01l0.759-0.634l0.414,0.16c0.012,0.004,0.023,0.007,0.036,0.007  c0.006,0,0.012,0,0.019-0.002l0.201-0.038L56.41,21.614z M56.88,20.819c0.012,0.005,0.024,0.005,0.037,0.006l0.285-0.009  l-0.275,0.277l-0.08,0.024l-0.388,0.072l-0.284-0.11l0.186-0.155l0.18-0.23L56.88,20.819z M56.293,20.688l-0.076,0.099l-0.254,0.212  l-0.201-0.078l0.295-0.215L56.293,20.688z M55.635,20.738l0.044-0.003l-0.138,0.101l-0.065-0.025L55.635,20.738z M54.813,19.517  c-0.004,0.008-0.007,0.016-0.008,0.024l-0.088,0.444l-0.052,0.424l-0.184,0.348c-0.001,0.001-0.003,0.002-0.004,0.003l-0.007,0.008  l-0.606,0.042c-0.013,0-0.025,0.004-0.037,0.01l-0.389,0.189l-0.689,0.233l0.207-0.17c0.007-0.006,0.014-0.013,0.019-0.021  l0.754-1.094l0.277-0.348c0.006-0.007,0.01-0.015,0.014-0.023l0,0l0.001-0.002c0,0,0.001-0.001,0.001-0.002l0.003-0.007l0.151-0.357  l0.307-0.074l-0.01-0.042l0.045-0.008c0.015-0.003,0.028-0.009,0.041-0.018l0.715-0.518L54.813,19.517z M52.318,16.146l-0.187,0.833  l-0.045,0.134L52.03,16.98c-0.005-0.011-0.011-0.021-0.019-0.029l-0.156-0.167l0.113-0.348l0.225-0.384l-0.172-0.101l-0.053,0.09  l0.002-0.134l0.068-0.703L52.318,16.146z M51.969,15.014l0.004-0.031l0.01,0.033L51.969,15.014z M51.651,16.271l0.121-0.382  l-0.001,0.009l-0.005,0.43l-0.083,0.269l-0.056-0.072L51.651,16.271z M48.472,16.408l0.024,0.002l-0.101,0.023L48.472,16.408z   M45.163,18.272l0.251-0.315l0.71-0.476l0.853-0.181c0.017-0.003,0.032-0.011,0.045-0.022l0.104-0.09l0.613-0.397l1.278-0.295  l0.095-0.017l0.224,0.025l0.007-0.066l1.719-0.311l0.361,0.46l-0.05,0.522l-0.155,0.863l-0.203,0.394l-0.291,0.856l-0.074,0.384  l-0.308,0.351c-0.011,0.012-0.018,0.026-0.021,0.042l-0.104,0.417l-0.462,0.743c-0.009,0.014-0.014,0.029-0.015,0.045l-0.041,0.519  l-0.093,0.496l-0.219-0.009v0l-0.009,0l-0.491,0.024l-0.458,0.114c-0.01,0.002-0.02,0.007-0.028,0.012l-0.805,0.495  c-0.007,0.004-0.014,0.009-0.02,0.016l-2.119,2.198v0c-0.006,0.006-0.012,0.013-0.016,0.021l-0.286,0.523l-0.74,0.992l-0.284,0.56  l-0.55,1.813l0.222-1.836c0.001-0.009,0.001-0.019-0.001-0.027l-0.07-0.461l0.129-0.458l0.082-0.461l0.18-0.454  c0.004-0.009,0.006-0.019,0.007-0.029l0.032-0.464l0.21-0.433c0.005-0.009,0.008-0.019,0.009-0.028l0.112-0.739l0.204-0.535  l0.159-0.484l0.206-0.196l2.619-1.687c0.013-0.008,0.023-0.019,0.031-0.031l1.182-1.886l-0.006-0.003l0.764-1.062l0.986-0.9  l-0.135-0.147l-1,0.916l-0.785,1.089l-1.144,1.837l-0.021,0.033l-2.579,1.663c0.002-0.013,0.005-0.025,0.002-0.038l-0.012-0.059  l0.297-0.709c0.006-0.014,0.009-0.029,0.008-0.044l-0.049-0.889c-0.001-0.015-0.005-0.029-0.012-0.042l-0.29-0.542L45.163,18.272z   M45.022,20.485l0.046,0.843l-0.175,0.411l-0.09-0.449l-0.011-0.44c0-0.011-0.002-0.021-0.005-0.031l-0.038-0.105l0.11-0.531  L45.022,20.485z M40.749,15.663l-0.472,1.228c-0.004,0.011-0.006,0.023-0.006,0.035l-0.004,1.003l-0.131-0.461l-0.012-0.424  l0.156-0.394c0.004-0.01,0.006-0.019,0.007-0.029l0,0l0.07-0.875l0.146-0.41l0,0l0.24,0.145L40.749,15.663z M40.856,20.001  l-0.152-0.538l0.049,0.069l0.136,0.412l0.107,0.29L40.856,20.001z M40.251,11.432l0.011,0.013l-0.006,0.018l-0.074,0.173l0.032-0.25  L40.251,11.432z M40.017,11.147l0.024,0.029l-0.113,0.864l-0.068-1.045L40.017,11.147z M39.184,12.18l-0.034-0.054l0.05,0.065  l-0.01-0.008C39.188,12.182,39.186,12.182,39.184,12.18z M40.702,14.716l0.024,0.091l0.012,0.438l-0.168-0.101l-0.004-0.003  L40.702,14.716z M40.609,13.598l-0.076-0.135l-0.27-0.34L40.187,13l-0.149-0.24l-0.049-0.224l0.099-0.177l0.281-0.653l0.349,0.993  L40.609,13.598z M40.706,9.772l0.158-0.399l0.181-0.22l-0.062,0.219l-0.644,1.849l-0.091-0.111l0.011-0.083L40.706,9.772z   M39.938,10.793l-0.094-0.091c-0.001-0.001-0.003-0.001-0.004-0.002l-0.035-0.543l0.004-0.01L39.938,10.793z M37.24,10.399  l-0.288-0.145l1.155-0.055l0.384,0.192l1.157,0.441l0.103,1.552l0.025,0.117l-0.007,0.013l-0.088-0.077l-0.291-0.326l-0.269-0.354  c-0.006-0.007-0.013-0.014-0.021-0.02l-0.353-0.26l-0.012-0.019c-0.007-0.012-0.017-0.021-0.027-0.029l-1.095-0.763L37.24,10.399z   M40.357,14.361l-0.134-0.439l-0.358-0.79l0.001-0.038l0.707,1.229l0.006,0.122L40.4,15.001l-0.043-0.037l0.004-0.575  C40.361,14.38,40.36,14.37,40.357,14.361z M37.102,15.412l0.169,0.397c0.006,0.015,0.016,0.028,0.028,0.038l0.248,0.205  l-1.305-0.938l-0.303-0.295l-0.154-0.403l-0.02-0.04l-0.015-0.23l0.04-0.058l0.095,0.064l0.953,0.926L37.102,15.412z M36.198,19.351  l0.418-0.063l0.564,0.162l-0.674,0.196l-0.366-0.128l-0.195-0.183L36.198,19.351z M33.258,18.603l-0.001-0.008l0.087,0.003  L33.258,18.603z M34.038,18.76l-0.393-0.17c-0.015-0.006-0.028-0.012-0.046-0.008l-0.042,0.002l0.739-0.121l0.394,0.078l0.422,0.35  l-0.202-0.058v0L34.038,18.76z M33.198,17.961l-0.048-0.293l1.074,0.605l-0.783,0.13l-0.203-0.008L33.198,17.961z M32.612,18.744  l-0.046-0.058l0.16,0.042l0.024,0.004l0.019,0.007l0.311,0.088l0.045,0.488c0.002,0.016,0.007,0.032,0.016,0.045l0.109,0.167  l-0.129-0.073L32.612,18.744z M34.744,19.801l-0.433,0.017l-0.42-0.029l-0.355-0.187l-0.216-0.33l-0.036-0.386l0.257,0.073  c0.009,0.002,0.019,0.004,0.027,0.004l0.438-0.001l0.874,0.068h0.002l0.409,0.119l0.258,0.103l0.148,0.124l0.276,0.258  L34.744,19.801z M40.247,19.751c-0.012-0.008-0.024-0.013-0.038-0.016l-0.507-0.089l0,0l-1.018-0.255  c-0.009-0.002-0.021-0.001-0.027-0.003l-0.873,0.027l-0.003-0.001l-1.104-0.354L35.9,18.684l-0.229-0.334l-0.594-1.172l-0.219-0.836  l0.29-1.263l0.216-0.365l0.201-0.295l0.004,0.008l0.003,0.048c0.001,0.012,0.004,0.023,0.008,0.035l0.173,0.386l0.008,0.018  c0,0.001,0.001,0.001,0.002,0.002v0l0,0c0.006,0.011,0.013,0.022,0.021,0.031l0.33,0.32l1.444,1.041  c0.009,0.006,0.019,0.011,0.028,0.014l0.428,0.136l0.429,0.12l0,0l0.005,0.001l0.418,0.096l0.347,0.214l0.945,1.381l0.497,1.757  L40.247,19.751z M42.062,23.177l-0.101-0.69l-0.405-1.309l0.002-0.001l-0.48-1.299l-0.14-0.422c-0.003-0.01-0.008-0.019-0.013-0.026  l-0.249-0.351l-0.132-0.397l-0.079-0.419l0.006-1.317l0.473-1.229c0.002-0.006,0.002-0.013,0.003-0.019l0.119,0.159l0.458,0.791  l0.158,0.169l0.089,0.17c0.005,0.008,0.011,0.016,0.017,0.023l1.846,1.906l0.17,0.392l0,0l0.003,0.006l0.413,0.8l0.231,0.352  l0.093,0.263l-0.023,0.114c-0.003,0.013-0.003,0.027,0,0.04l0.087,0.438l0.148,0.745l-0.201,0.473l-0.164,0.415h0.001  c-0.003,0.007-0.006,0.014-0.007,0.021l-0.086,0.563l-0.271,0.716l-0.062,0.489h0.001l-0.001,0.005l-0.034,0.472l-0.18,0.458  l-0.086,0.471l-0.133,0.47c-0.004,0.014-0.004,0.028-0.002,0.042l0.072,0.466l-0.197,1.632l-0.048-1.688  c0-0.01-0.002-0.02-0.005-0.029L42.062,23.177z M46.604,31.242l-1.813,1.436l-1.236,1.331l0.171-0.83l-0.195-0.041l-0.11,0.538  l-0.159-1.586l0.019-0.984l0.162-0.981l0.873-2.887l0.269-0.528l0.739-0.989l0.285-0.52l2.27-1.987l1.701-0.608l-0.011,0.177  l0.058,1.584l0.091,0.578l-0.297,2.341l-0.538,1.696l-0.96,1.477l-0.61,0.454L46.604,31.242z M48.086,30.807l0.01-0.004l0.042-0.006  l-0.013,0.005L48.086,30.807z M57.605,30.222l1.278-0.315l0.382-0.019l-0.318,0.051c-0.013,0.002-0.023,0.006-0.034,0.012  l-0.368,0.212l-1.134,0.141L57.605,30.222z M56.313,29.281l0.036-0.068l0.188,0.035l-0.268,0.1L56.313,29.281z"></path></svg>