<svg fill="#FFFFFF" xmlns="http://www.w3.org/2000/svg" xmlns:xlink="http://www.w3.org/1999/xlink" version="1.1" x="0px" y="0px" viewBox="0 0 100 100" enable-background="new 0 0 100 100" xml:space="preserve"><path fill="#FFFFFF" d="M39.778,44.277c0.667,0,1.286-0.203,1.802-0.55l6.352,8.347c-0.674,0.59-1.109,1.447-1.109,2.411  c0,1.312,0.781,2.438,1.895,2.947l-5.305,14.001c-0.299-0.092-0.611-0.154-0.94-0.154c-1.774,0-3.218,1.443-3.218,3.217  c0,1.787,1.443,3.242,3.218,3.242c1.409,0,2.598-0.909,3.044-2.167l12.982,3.628c-0.048,0.222-0.077,0.451-0.077,0.688  c0,1.773,1.455,3.217,3.242,3.217c1.774,0,3.219-1.443,3.219-3.217c0-1.788-1.444-3.242-3.219-3.242  c-1.411,0-2.602,0.912-3.047,2.173l-12.981-3.628c0.049-0.224,0.079-0.455,0.079-0.693c0-1.307-0.792-2.43-1.923-2.934l5.303-13.995  c0.301,0.095,0.615,0.159,0.947,0.159c1.787,0,3.242-1.453,3.242-3.241c0-1.774-1.455-3.219-3.242-3.219  c-0.667,0-1.286,0.204-1.8,0.552l-6.351-8.345c0.686-0.595,1.129-1.462,1.129-2.439c0-1.3-0.784-2.415-1.903-2.923l6.432-16.983  c0.183,0.048,0.372,0.083,0.571,0.083c1.196,0,2.156-0.96,2.156-2.156c0-1.217-0.96-2.178-2.156-2.178  c-1.218,0-2.178,0.961-2.178,2.178c0,0.859,0.5,1.59,1.23,1.938l-6.433,16.985c-0.306-0.095-0.624-0.161-0.961-0.161  c-1.774,0-3.218,1.443-3.218,3.218C36.56,42.822,38.003,44.277,39.778,44.277z M61.664,77.645c1.223,0,2.219,1.006,2.219,2.242  c0,1.223-0.996,2.217-2.219,2.217c-1.236,0-2.242-0.994-2.242-2.217C59.422,78.629,60.406,77.645,61.664,77.645z M44.714,74.496  c0,1.236-1.006,2.242-2.242,2.242c-1.223,0-2.218-1.006-2.218-2.242c0-1.223,0.995-2.217,2.218-2.217  C43.708,72.279,44.714,73.273,44.714,74.496z M52.283,54.485c0,1.257-0.985,2.241-2.242,2.241c-1.223,0-2.218-1.006-2.218-2.241  c0-1.224,0.995-2.219,2.218-2.219C51.277,52.267,52.283,53.262,52.283,54.485z M39.778,38.816c1.236,0,2.241,0.995,2.241,2.218  c0,1.258-0.984,2.243-2.241,2.243c-1.223,0-2.218-1.006-2.218-2.243C37.56,39.812,38.555,38.816,39.778,38.816z"></path></svg>