<svg fill="#FF7F7F" xmlns="http://www.w3.org/2000/svg" xmlns:xlink="http://www.w3.org/1999/xlink" version="1.1" preserveAspectRatio="none" x="0px" y="0px" viewBox="0 0 100 100"><defs><g id="a"><path fill="#FF7F7F" stroke="none" d=" M 71.7 20.9 Q 70.15 17 67.25 13.9 65.7 12.25 63.85 11.1 61.9 9.75 59.8 8.75 55.148828125 6.64765625 50.25 6.2 45.4033203125 5.806640625 41.9 6.6 38.396484375 7.3931640625 35.75 8.45 33.1009765625 9.5521484375 30.75 10.95 28.6 12.2 26.65 13.7 L 34.25 22.65 Q 35.4 21.6 36.7 20.9 39.65 19.2 42.85 18.15 44.25 17.6 45.75 17.4 50.8 17.2 54.95 20.1 57.5 21.89453125 58.4 24.95 59.300390625 28.01640625 59.25 30.4 59.2484375 32.836328125 59.1 33.6 58.9513671875 34.4068359375 58.4 36.4 57.8994140625 38.3986328125 56.05 41.05 54.3 43.55 52 45.5 48.55 48.35 45.2 51.35 43.089453125 53.24609375 41.65 55.3 40.2693359375 57.3494140625 39.85 58.45 39.4802734375 59.5501953125 38.8 62.5 38.16015625 65.453515625 37.5 73.2 L 50 73.2 Q 49.75 67.15 50.95 63.45 51.95 60.35 54.3 58.1 59.9 52.75 65.85 47.8 66.95 46.85 67.85 45.75 70.95 42.05 72.3 37.55 73.4 33.95 73.4 30.25 73.45 25.45 71.7 20.9 M 36.1 85.1 Q 36.1 88.25 38.35 90.5 40.6 92.75 43.75 92.75 46.9 92.75 49.15 90.5 51.4 88.25 51.4 85.1 51.4 81.95 49.15 79.7 46.9 77.45 43.75 77.45 40.6 77.45 38.35 79.7 36.1 81.95 36.1 85.1 Z"></path></g></defs><g transform="matrix( 1, 0, 0, 1, 0,0) "><use xlink:href="#a"></use></g></svg>