<svg fill="#00DCFF" xmlns="http://www.w3.org/2000/svg" xmlns:xlink="http://www.w3.org/1999/xlink" xml:space="preserve" version="1.1" style="shape-rendering:geometricPrecision;text-rendering:geometricPrecision;image-rendering:optimizeQuality;" viewBox="0 0 333 333" x="0px" y="0px" fill-rule="evenodd" clip-rule="evenodd"><defs><style type="text/css">
   
    .fil0 {fill:#00DCFF}
   
  </style></defs><g><path class="fil0" d="M173 214c0,0 -2,8 -5,17l-106 0 -2 5 66 84 145 0 3 -4 -67 -85 -33 0 8 -18c28,5 56,-57 59,-68l-13 3c17,-10 20,-24 27,-50l-23 10c33,-25 25,-14 27,-43 1,-1 -2,-46 -3,-46 -2,0 -7,2 -7,2l-1 -8c0,0 -9,0 -12,6 -34,54 -31,21 -30,77l-4 -19c-24,82 -39,55 -25,117 -7,-2 -11,-29 -11,-31 -3,23 1,31 7,51zm-25 35l4 0 0 6 -4 0 0 -6zm-24 1l16 0 0 5 -16 1 0 -6zm-31 3l17 -3 2 5 -18 4 -1 -6zm35 21l-11 1 0 -5 10 -2 1 6zm22 -2l-11 2 0 -6 9 -2 2 6zm16 -35c-8,21 -22,41 -9,28 5,-5 11,-19 15,-28l34 0 59 78 -137 0 -60 -78 98 0zm15 -35c28,-50 46,-119 62,-168 0,0 -24,89 -30,109 -6,20 -16,47 -32,59z"></path></g></svg>