<svg fill="#FF7F7F" xmlns:dc="http://purl.org/dc/elements/1.1/" xmlns:cc="http://creativecommons.org/ns#" xmlns:rdf="http://www.w3.org/1999/02/22-rdf-syntax-ns#" xmlns:svg="http://www.w3.org/2000/svg" xmlns="http://www.w3.org/2000/svg" xmlns:sodipodi="http://sodipodi.sourceforge.net/DTD/sodipodi-0.dtd" xmlns:inkscape="http://www.inkscape.org/namespaces/inkscape" version="1.1" x="0px" y="0px" viewBox="0 0 100 100"><g transform="translate(0,-952.36218)"><path style="text-indent:0;text-transform:none;direction:ltr;block-progression:tb;baseline-shift:baseline;color:#000000;enable-background:accumulate;" d="m 7.7889308,959.35695 a 1.0001,1.0001 0 0 0 -0.5,1.71875 l 41.3125012,41.2812 -41.3125012,41.2812 a 1.016466,1.016466 0 1 0 1.4375,1.4375 l 41.2812512,-41.2812 41.281246,41.2812 a 1.016466,1.016466 0 1 0 1.4375,-1.4375 l -41.312496,-41.2812 41.312496,-41.2812 a 1.0001,1.0001 0 0 0 -0.75,-1.71875 1.0001,1.0001 0 0 0 -0.6875,0.28125 L 50.007682,1000.9194 8.7264308,959.6382 a 1.0001,1.0001 0 0 0 -0.71875,-0.28125 1.0001,1.0001 0 0 0 -0.21875,0 z" fill="#FF7F7F" fill-opacity="1" fill-rule="evenodd" stroke="none" marker="none" visibility="visible" display="inline" overflow="visible"></path></g></svg>