<svg fill="#0F131C" xmlns="http://www.w3.org/2000/svg" xmlns:xlink="http://www.w3.org/1999/xlink" version="1.1" x="0px" y="0px" viewBox="0 0 128 128" enable-background="new 0 0 128 128" xml:space="preserve"><g><path d="M32.4,38.2c0.4,0,0.8-0.3,0.8-0.8V26.2c0-0.4-0.3-0.8-0.8-0.8s-0.8,0.3-0.8,0.8v11.2C31.7,37.8,32,38.2,32.4,38.2z"></path><path d="M32.4,45.5c0.4,0,0.8-0.3,0.8-0.8v-3.6c0-0.4-0.3-0.8-0.8-0.8s-0.8,0.3-0.8,0.8v3.6C31.7,45.2,32,45.5,32.4,45.5z"></path><path d="M120.5,67.5c0.4,0,0.8-0.3,0.8-0.8V55.5c0-0.4-0.3-0.8-0.8-0.8c-0.4,0-0.8,0.3-0.8,0.8v11.2   C119.8,67.1,120.1,67.5,120.5,67.5z"></path><path d="M120.5,74.8c0.4,0,0.8-0.3,0.8-0.8v-3.6c0-0.4-0.3-0.8-0.8-0.8c-0.4,0-0.8,0.3-0.8,0.8v3.6   C119.8,74.5,120.1,74.8,120.5,74.8z"></path><path d="M12.8,13.4c0.1,0.1,0.3,0.2,0.5,0.2c0.2,0,0.4-0.1,0.5-0.2c0.3-0.3,0.3-0.8,0-1.1L12,10.6c-0.3-0.3-0.8-0.3-1.1,0   c-0.3,0.3-0.3,0.8,0,1.1L12.8,13.4z"></path><path d="M18.5,19.2c0.1,0.1,0.3,0.2,0.5,0.2s0.4-0.1,0.5-0.2c0.3-0.3,0.3-0.8,0-1.1l-1.8-1.8c-0.3-0.3-0.8-0.3-1.1,0   c-0.3,0.3-0.3,0.8,0,1.1L18.5,19.2z"></path><path d="M11.5,19.4c0.2,0,0.4-0.1,0.5-0.2l1.8-1.8c0.3-0.3,0.3-0.8,0-1.1c-0.3-0.3-0.8-0.3-1.1,0L11,18.1c-0.3,0.3-0.3,0.8,0,1.1   C11.1,19.3,11.3,19.4,11.5,19.4z"></path><path d="M17.2,13.6c0.2,0,0.4-0.1,0.5-0.2l1.8-1.8c0.3-0.3,0.3-0.8,0-1.1c-0.3-0.3-0.8-0.3-1.1,0l-1.8,1.8c-0.3,0.3-0.3,0.8,0,1.1   C16.9,13.6,17.1,13.6,17.2,13.6z"></path><path d="M88.3,26.5c0.1,0.1,0.3,0.2,0.5,0.2c0.2,0,0.4-0.1,0.5-0.2c0.3-0.3,0.3-0.8,0-1.1l-1.8-1.8c-0.3-0.3-0.8-0.3-1.1,0   c-0.3,0.3-0.3,0.8,0,1.1L88.3,26.5z"></path><path d="M94,32.2c0.1,0.1,0.3,0.2,0.5,0.2c0.2,0,0.4-0.1,0.5-0.2c0.3-0.3,0.3-0.8,0-1.1l-1.8-1.8c-0.3-0.3-0.8-0.3-1.1,0   c-0.3,0.3-0.3,0.8,0,1.1L94,32.2z"></path><path d="M87,32.4c0.2,0,0.4-0.1,0.5-0.2l1.8-1.8c0.3-0.3,0.3-0.8,0-1.1c-0.3-0.3-0.8-0.3-1.1,0l-1.8,1.8c-0.3,0.3-0.3,0.8,0,1.1   C86.6,32.4,86.8,32.4,87,32.4z"></path><path d="M92.8,26.7c0.2,0,0.4-0.1,0.5-0.2l1.8-1.8c0.3-0.3,0.3-0.8,0-1.1c-0.3-0.3-0.8-0.3-1.1,0l-1.8,1.8c-0.3,0.3-0.3,0.8,0,1.1   C92.4,26.6,92.6,26.7,92.8,26.7z"></path><path d="M44.3,118.7c-0.3-0.3-0.8-0.3-1.1,0c-0.3,0.3-0.3,0.8,0,1.1l1.8,1.8c0.1,0.1,0.3,0.2,0.5,0.2c0.2,0,0.4-0.1,0.5-0.2   c0.3-0.3,0.3-0.8,0-1.1L44.3,118.7z"></path><path d="M50.1,124.4c-0.3-0.3-0.8-0.3-1.1,0c-0.3,0.3-0.3,0.8,0,1.1l1.8,1.8c0.1,0.1,0.3,0.2,0.5,0.2c0.2,0,0.4-0.1,0.5-0.2   c0.3-0.3,0.3-0.8,0-1.1L50.1,124.4z"></path><path d="M45,124.4l-1.8,1.8c-0.3,0.3-0.3,0.8,0,1.1c0.1,0.1,0.3,0.2,0.5,0.2c0.2,0,0.4-0.1,0.5-0.2l1.8-1.8c0.3-0.3,0.3-0.8,0-1.1   C45.8,124.1,45.3,124.1,45,124.4z"></path><path d="M50.8,118.7l-1.8,1.8c-0.3,0.3-0.3,0.8,0,1.1c0.1,0.1,0.3,0.2,0.5,0.2c0.2,0,0.4-0.1,0.5-0.2l1.8-1.8   c0.3-0.3,0.3-0.8,0-1.1C51.5,118.4,51.1,118.4,50.8,118.7z"></path><path d="M85.6,91.5l-1.8-1.8c-0.3-0.3-0.8-0.3-1.1,0c-0.3,0.3-0.3,0.8,0,1.1l1.8,1.8c0.1,0.1,0.3,0.2,0.5,0.2   c0.2,0,0.4-0.1,0.5-0.2C85.9,92.2,85.9,91.8,85.6,91.5z"></path><path d="M89.5,95.4c-0.3-0.3-0.8-0.3-1.1,0c-0.3,0.3-0.3,0.8,0,1.1l1.8,1.8c0.1,0.1,0.3,0.2,0.5,0.2c0.2,0,0.4-0.1,0.5-0.2   c0.3-0.3,0.3-0.8,0-1.1L89.5,95.4z"></path><path d="M84.5,95.4l-1.8,1.8c-0.3,0.3-0.3,0.8,0,1.1c0.1,0.1,0.3,0.2,0.5,0.2c0.2,0,0.4-0.1,0.5-0.2l1.8-1.8c0.3-0.3,0.3-0.8,0-1.1   C85.3,95.1,84.8,95.1,84.5,95.4z"></path><path d="M91.3,89.7c-0.3-0.3-0.8-0.3-1.1,0l-1.8,1.8c-0.3,0.3-0.3,0.8,0,1.1c0.1,0.1,0.3,0.2,0.5,0.2c0.2,0,0.4-0.1,0.5-0.2   l1.8-1.8C91.6,90.5,91.6,90,91.3,89.7z"></path><path d="M107.2,38.6c0,2,1.6,3.6,3.6,3.6c2,0,3.6-1.6,3.6-3.6c0-2-1.6-3.6-3.6-3.6C108.8,35.1,107.2,36.7,107.2,38.6z M112.8,38.6   c0,1.1-0.9,2.1-2.1,2.1c-1.1,0-2.1-0.9-2.1-2.1c0-1.1,0.9-2.1,2.1-2.1C111.9,36.6,112.8,37.5,112.8,38.6z"></path><path d="M9.1,64.7c2,0,3.6-1.6,3.6-3.6c0-2-1.6-3.6-3.6-3.6c-2,0-3.6,1.6-3.6,3.6C5.6,63.1,7.2,64.7,9.1,64.7z M9.1,59.1   c1.1,0,2.1,0.9,2.1,2.1c0,1.1-0.9,2.1-2.1,2.1c-1.1,0-2.1-0.9-2.1-2.1C7.1,60,8,59.1,9.1,59.1z"></path><path d="M121.2,115.9c-2,0-3.6,1.6-3.6,3.6c0,2,1.6,3.6,3.6,3.6c2,0,3.6-1.6,3.6-3.6C124.7,117.5,123.1,115.9,121.2,115.9z    M121.2,121.5c-1.1,0-2.1-0.9-2.1-2.1c0-1.1,0.9-2.1,2.1-2.1c1.1,0,2.1,0.9,2.1,2.1C123.2,120.6,122.3,121.5,121.2,121.5z"></path><path d="M38.8,95.1c0-2-1.6-3.6-3.6-3.6c-2,0-3.6,1.6-3.6,3.6c0,2,1.6,3.6,3.6,3.6C37.2,98.7,38.8,97.1,38.8,95.1z M33.2,95.1   c0-1.1,0.9-2.1,2.1-2.1c1.1,0,2.1,0.9,2.1,2.1c0,1.1-0.9,2.1-2.1,2.1C34.1,97.2,33.2,96.3,33.2,95.1z"></path><path d="M95.1,7.8h12.2c0.4,0,0.8-0.3,0.8-0.8s-0.3-0.8-0.8-0.8H95.1c-0.4,0-0.8,0.3-0.8,0.8S94.7,7.8,95.1,7.8z"></path><path d="M111.3,7.8h3.9c0.4,0,0.8-0.3,0.8-0.8s-0.3-0.8-0.8-0.8h-3.9c-0.4,0-0.8,0.3-0.8,0.8S110.9,7.8,111.3,7.8z"></path><path d="M116,11.2c0-0.4-0.3-0.8-0.8-0.8h-8.5c-0.4,0-0.8,0.3-0.8,0.8s0.3,0.8,0.8,0.8h8.5C115.6,12,116,11.6,116,11.2z"></path><path d="M100.3,10.5c-0.4,0-0.8,0.3-0.8,0.8s0.3,0.8,0.8,0.8h2.7c0.4,0,0.8-0.3,0.8-0.8s-0.3-0.8-0.8-0.8H100.3z"></path><path d="M106.5,76c0.1,0.2,0.4,0.4,0.6,0.4c0.1,0,0.3,0,0.4-0.1c0.4-0.2,0.5-0.7,0.2-1c-0.7-1.2-1.5-2.3-2.4-3.3   c-0.3-0.3-0.7-0.4-1.1-0.1c-0.3,0.3-0.4,0.7-0.1,1.1C105,73.8,105.8,74.9,106.5,76z"></path><path d="M90.2,62.4c0.6,0.4,1.3,0.7,2,1c2.4,1.1,4.7,2.5,6.7,4.1c0.1,0.1,0.3,0.2,0.5,0.2c0.2,0,0.4-0.1,0.6-0.3   c0.3-0.3,0.2-0.8-0.1-1.1c-2.1-1.6-4.5-3.1-7-4.3c-0.6-0.3-1.3-0.6-1.9-1c-0.4-0.2-0.8-0.1-1,0.3C89.7,61.7,89.8,62.2,90.2,62.4z"></path><path d="M84,57.5c0.1,0.2,0.3,0.2,0.5,0.2c0.2,0,0.4-0.1,0.5-0.2c0.3-0.3,0.3-0.8,0-1.1c-0.9-0.9-1.8-1.9-2.6-3   c-0.3-0.3-0.7-0.4-1.1-0.1c-0.3,0.3-0.4,0.7-0.1,1.1C82.2,55.6,83.1,56.6,84,57.5z"></path><path d="M42.4,53.5c-0.8,1.1-1.7,2.1-2.6,3c-0.3,0.3-0.3,0.8,0,1.1c0.1,0.1,0.3,0.2,0.5,0.2c0.2,0,0.4-0.1,0.5-0.2   c0.9-0.9,1.8-2,2.7-3.1c0.3-0.3,0.2-0.8-0.1-1.1C43.1,53.1,42.6,53.2,42.4,53.5z"></path><path d="M33.9,61.1c-0.6,0.4-1.2,0.7-1.9,1c-2.5,1.2-4.9,2.6-7,4.3c-0.3,0.3-0.4,0.7-0.1,1.1c0.1,0.2,0.4,0.3,0.6,0.3   c0.2,0,0.3-0.1,0.5-0.2c2-1.6,4.3-2.9,6.7-4.1c0.7-0.3,1.3-0.7,2-1c0.4-0.2,0.5-0.7,0.3-1C34.7,61,34.3,60.9,33.9,61.1z"></path><path d="M19.5,71.8c-0.9,1.1-1.7,2.2-2.4,3.3c-0.2,0.4-0.1,0.8,0.2,1c0.1,0.1,0.3,0.1,0.4,0.1c0.2,0,0.5-0.1,0.6-0.4   c0.7-1.1,1.5-2.2,2.3-3.2c0.3-0.3,0.2-0.8-0.1-1.1C20.2,71.5,19.7,71.5,19.5,71.8z"></path><path d="M72.1,43.7c0,0.4,0.3,0.8,0.7,0.8c0,0,0,0,0,0c0.4,0,0.8-0.3,0.8-0.7c0.1-11-5.8-23.9-6-24.4c-0.2-0.4-0.6-0.5-1-0.4   c-0.4,0.2-0.5,0.6-0.4,1C66.3,20.1,72.2,33.1,72.1,43.7z"></path><path d="M52,44.5C52,44.5,52,44.5,52,44.5c0.4,0,0.8-0.3,0.8-0.8c-0.1-10.6,5.8-23.6,5.9-23.8c0.2-0.4,0-0.8-0.4-1   c-0.4-0.2-0.8,0-1,0.4c-0.2,0.5-6.1,13.4-6,24.4C51.3,44.1,51.6,44.5,52,44.5z"></path><path d="M103.9,100.8C103.9,100.8,103.9,100.8,103.9,100.8c-0.7-1.9,0.1-3.9,1.8-4.7c0.8-0.3,1.7-0.3,2.5,0c0.8,0.4,1.5,1,1.8,1.9   c0,0,0,0,0,0.1c-0.1,0.7-0.1,1.5,0,2.2c0.1,0.4,0.4,0.6,0.7,0.6c0,0,0.1,0,0.1,0c0.4-0.1,0.7-0.5,0.6-0.9c-0.5-2.4,1-4.7,3.3-5.2   c1-0.2,2.1,0,3,0.6c1,0.6,1.6,1.7,1.9,2.8c0.1,0.4,0.5,0.7,0.9,0.6c0.4-0.1,0.7-0.5,0.6-0.9c-0.3-1.6-1.2-2.9-2.5-3.8   c-1.3-0.8-2.7-1.1-4.2-0.8c-1.7,0.4-3,1.5-3.8,2.9c-0.5-0.7-1.2-1.2-1.9-1.5c-1.2-0.5-2.5-0.5-3.6,0c-2,0.9-3.1,3-2.9,5.1   c-0.8-0.3-1.7-0.5-2.5-0.5c-3.9,0-7.2,3.2-7.4,7.2c-0.2-0.1-0.4-0.2-0.7-0.2c-1.5-0.3-3,0.1-4.2,1c-1.6,1.2-2.5,3.1-2.5,5.1   c-2.8-3.2-7.7-9.7-9.2-17.9c1.6-0.4,2.8-1.9,2.8-3.7v-5.1h36.8c0.2,0,0.4-0.1,0.6-0.2c0.1-0.2,0.2-0.4,0.2-0.6   c0-0.6-1.3-14.3-14.4-23.5c-1.7-1.2-3.6-2.3-5.6-3.3c-10.7-5-16.2-17.7-18.1-22.9c-1.6-8.7-4.7-17.3-9.4-25.4   c-1.3-2.2-2.7-4.5-4.2-6.8l-1.5-2.2c-0.1-0.2-0.4-0.3-0.6-0.3s-0.5,0.1-0.6,0.3L60.1,3c-1.5,2.2-3,4.5-4.2,6.8   c-2.8,4.9-5.1,10.1-6.8,15.3c-1.1,3.3-1.9,6.7-2.5,10.1c0,0,0,0,0,0c-1.9,5.2-7.4,17.9-18.2,23c-2,1-3.9,2-5.6,3.3c0,0,0,0,0,0   c0,0,0,0,0,0c0,0,0,0,0,0l0,0C9.7,70.6,8.4,84.4,8.4,85c0,0.2,0.1,0.4,0.2,0.6c0.1,0.2,0.3,0.2,0.6,0.2H46v5.1   c0,1.8,1.2,3.3,2.9,3.7c-1.5,8.2-6.4,14.7-9.2,17.9c0.1-1.9-0.8-3.9-2.5-5.1c-1.2-0.9-2.7-1.2-4.2-1c-0.2,0-0.4,0.1-0.7,0.2   c-0.3-4-3.5-7.2-7.4-7.2c-0.9,0-1.7,0.2-2.5,0.5c0.2-2.1-0.9-4.3-2.9-5.1c-1.2-0.5-2.5-0.5-3.6,0c-0.8,0.3-1.4,0.9-1.9,1.5   c-0.8-1.5-2.1-2.6-3.8-2.9c-1.4-0.3-2.9,0-4.2,0.8C4.5,95,3.6,96.4,3.3,98c-0.1,0.4,0.2,0.8,0.6,0.9c0.4,0.1,0.8-0.2,0.9-0.6   C5,97.1,5.7,96,6.7,95.4c0.9-0.6,2-0.8,3-0.6c2.3,0.5,3.7,2.8,3.3,5.2c-0.1,0.4,0.2,0.8,0.6,0.9c0,0,0.1,0,0.1,0   c0.4,0,0.7-0.2,0.7-0.6c0.1-0.8,0.1-1.5,0-2.2c0,0,0,0,0-0.1c0.3-0.9,1-1.6,1.8-1.9c0.8-0.3,1.7-0.3,2.5,0c1.7,0.7,2.5,2.8,1.8,4.6   c0,0,0,0,0,0.1c-0.7,0.5-1.3,1.2-1.8,1.9c-0.2,0.3-0.1,0.8,0.2,1c0.3,0.2,0.8,0.1,1-0.2c1.1-1.7,2.9-2.6,4.8-2.6   c3.3,0,5.9,2.8,5.9,6.3c0,0.1,0,0.1,0,0.2c-0.6,0.4-1.2,1-1.6,1.6c-0.2,0.3-0.1,0.8,0.2,1c0.3,0.2,0.8,0.1,1-0.2   c0.6-1,1.6-1.6,2.7-1.8c1.1-0.2,2.2,0,3.1,0.7c1.9,1.4,2.4,4.1,1.1,6.2c-0.2,0.3-0.1,0.7,0.1,1c0.1,0.1,0.3,0.2,0.5,0.2   c0.2,0,0.4-0.1,0.5-0.2c0.4-0.4,9.6-8.7,11.8-21.1h2.5c0.1,3,1,13.8,8.9,21.1c0.1,0.1,0.3,0.2,0.5,0.2c0.2,0,0.4-0.1,0.5-0.2   c8-7.2,8.8-18.1,8.9-21.1h2.5c2.2,12.4,11.4,20.7,11.8,21.1c0.1,0.1,0.3,0.2,0.5,0.2c0.2,0,0.4-0.1,0.5-0.2c0.3-0.2,0.3-0.7,0.1-1   c-1.3-2-0.8-4.8,1.1-6.2c0.9-0.6,2-0.9,3.1-0.7c1.1,0.2,2.1,0.9,2.7,1.8c0.2,0.3,0.7,0.4,1,0.2c0.3-0.2,0.4-0.7,0.2-1   c-0.4-0.7-1-1.2-1.6-1.6c0-0.1,0-0.1,0-0.2c0-3.4,2.7-6.3,5.9-6.3c1.9,0,3.7,1,4.8,2.6c0.2,0.3,0.7,0.4,1,0.2   c0.3-0.2,0.4-0.7,0.2-1C105.3,102,104.7,101.3,103.9,100.8z M77,90.9c0,1.3-1,2.3-2.2,2.4h-3.9c0,0,0,0,0,0c0,0,0,0,0,0   c0,0,0,0,0,0c-1.2,0-2.2-1.1-2.2-2.4V85c0,0,0,0,0,0c0,0,0,0,0,0V68c0-1.9,0.3-3.9,0.8-5.8c0.1-0.3,0.2-0.6,0.3-0.9   c0.7-2.1,1.8-4.2,3.1-6.2c1.6,2.4,2.7,4.8,3.3,7.2c0,0,0.1,0.2,0.1,0.2c0.5,1.8,0.8,3.7,0.8,5.6v17V90.9z M95.4,59.5   c1.9,0.9,3.7,2,5.4,3.1c10.7,7.5,13.2,18.5,13.7,21.6h-36V68c0-0.5,0-1,0-1.5c0-0.2,0-0.4-0.1-0.6c0-0.3,0-0.6-0.1-0.8   c0-0.3-0.1-0.5-0.1-0.8c0-0.2-0.1-0.5-0.1-0.7c0-0.2-0.1-0.4-0.1-0.6c-0.1-0.3-0.1-0.5-0.2-0.8l0-0.1c0.9-4.5,1.3-9.2,1.3-13.9   c0-2.4-0.1-4.8-0.4-7.2C81.8,47.3,87.1,55.6,95.4,59.5z M50.5,25.6c1.7-5.1,3.9-10.2,6.7-15c1.3-2.3,2.7-4.5,4.2-6.7l0.9-1.3   l0.9,1.3c1.5,2.2,2.9,4.5,4.2,6.7c4.6,8,7.7,16.5,9.2,25l0,0c0,0,0,0,0,0.1c0.7,4.1,1.1,8.3,1.1,12.6c0,3.7-0.3,7.3-0.9,10.9   c-0.7-1.8-1.6-3.5-2.8-5.3l-0.4-0.7c-0.1-0.2-0.4-0.3-0.6-0.3c-0.3,0-0.5,0.1-0.6,0.3L71.8,54c-1.5,2.2-2.6,4.5-3.4,6.8   c-0.1,0.4-0.2,0.7-0.3,1c-0.6,2.1-0.9,4.2-0.9,6.2v16.2h-9.9V68c0-2-0.3-4.1-0.9-6.2c-0.7-2.7-2-5.4-3.7-7.9l-0.5-0.7   c-0.1-0.2-0.4-0.3-0.6-0.3c-0.2,0-0.5,0.1-0.6,0.3L50.6,54c-1.2,1.7-2.1,3.4-2.8,5.2c-0.6-3.6-0.9-7.3-0.9-10.9   C46.9,40.7,48.1,33,50.5,25.6z M10,84.3c0.5-3.1,2.9-14.1,13.7-21.6c0,0,0,0,0,0c0,0,0,0,0,0c1.6-1.2,3.4-2.2,5.4-3.1   c8.4-4,13.7-12.3,16.7-18.5c-0.2,2.4-0.4,4.8-0.4,7.3c0,4.6,0.5,9.3,1.4,13.9c0,0,0,0,0,0C46.2,64.1,46,66.1,46,68v16.2H10z    M47.5,90.9V68c0-1.9,0.2-3.8,0.8-5.7c0-0.1,0-0.1,0.1-0.2c0.1-0.3,0.2-0.6,0.3-0.9c0.7-2.1,1.8-4.2,3.1-6.2   c1.6,2.3,2.7,4.7,3.4,7.2c0.5,1.9,0.8,3.9,0.8,5.8v22.8c0,1.3-1,2.3-2.2,2.4c0,0,0,0,0,0c0,0,0,0,0,0c0,0,0,0,0,0h-3.9   C48.5,93.2,47.5,92.2,47.5,90.9z M62.2,114.2c-7-6.8-7.8-16.9-7.9-19.5c1.7-0.4,3-1.9,3-3.8v-5.1h9.9v5.1c0,1.9,1.3,3.4,3,3.8   C70.1,97.3,69.3,107.4,62.2,114.2z"></path><path d="M118.7,105.7c0.1-0.4-0.1-0.8-0.5-0.9c-7-1.9-9.5,3.6-9.6,3.7c-0.2,0.4,0,0.8,0.4,1c0.1,0,0.2,0.1,0.3,0.1   c0.3,0,0.6-0.2,0.7-0.4c0.1-0.2,2.1-4.4,7.8-2.8C118.2,106.4,118.6,106.1,118.7,105.7z"></path><path d="M97.7,112.7c-2.2,0.2-3.6,2.2-3.6,2.3c-0.2,0.3-0.2,0.8,0.2,1c0.1,0.1,0.3,0.1,0.4,0.1c0.2,0,0.5-0.1,0.6-0.3   c0,0,1.1-1.5,2.6-1.7c0.8-0.1,1.5,0.2,2.3,0.8c0.3,0.3,0.8,0.2,1.1-0.1c0.3-0.3,0.2-0.8-0.1-1.1C100.1,113,98.9,112.6,97.7,112.7z"></path><path d="M111.9,112.8c-3.6-0.4-5.7,3-5.8,3.2c-0.2,0.4-0.1,0.8,0.3,1c0.1,0.1,0.3,0.1,0.4,0.1c0.3,0,0.5-0.1,0.6-0.4   c0,0,1.6-2.7,4.3-2.5c0.4,0,0.8-0.3,0.8-0.7C112.6,113.2,112.3,112.9,111.9,112.8z"></path><path d="M14.6,109.1c0.1,0.3,0.4,0.4,0.7,0.4c0.1,0,0.2,0,0.3-0.1c0.4-0.2,0.5-0.6,0.4-1c0-0.1-2.6-5.6-9.6-3.7   c-0.4,0.1-0.6,0.5-0.5,0.9c0.1,0.4,0.5,0.6,0.9,0.5C12.5,104.7,14.5,108.9,14.6,109.1z"></path><path d="M26.9,112.7c-1.2-0.1-2.4,0.3-3.4,1.2c-0.3,0.3-0.4,0.7-0.1,1.1c0.3,0.3,0.7,0.4,1.1,0.1c0.8-0.7,1.5-0.9,2.3-0.8   c1.5,0.2,2.6,1.6,2.6,1.7c0.1,0.2,0.4,0.3,0.6,0.3c0.2,0,0.3,0,0.4-0.1c0.3-0.2,0.4-0.7,0.2-1.1C30.4,114.9,29,113,26.9,112.7z"></path><path d="M12.7,112.8c-0.4,0-0.7,0.4-0.7,0.8c0,0.4,0.4,0.7,0.8,0.7c2.7-0.3,4.3,2.4,4.3,2.5c0.1,0.2,0.4,0.4,0.6,0.4   c0.1,0,0.3,0,0.4-0.1c0.4-0.2,0.5-0.7,0.3-1C18.4,115.9,16.3,112.5,12.7,112.8z"></path></g></svg>