<svg fill="#0F131C" xmlns="http://www.w3.org/2000/svg" xmlns:xlink="http://www.w3.org/1999/xlink" version="1.1" x="0px" y="0px" viewBox="0 0 100 100" style="enable-background:new 0 0 100 100;" xml:space="preserve"><g><path d="M51.9,85.9c0,0.1-0.1,0.2-0.1,0.3c3.2-0.1,6.6-0.8,9.6-1.8c-7.8-6.8-16-11.6-24.2-19.9C29.4,56.5,22.2,46,15.7,38.4   c-0.4,1.2-0.7,2.5-1,3.7c-0.1,0.2,0.2,0.2,0.2,0.4c0.1,0.1,0,0.3-0.1,0.4c0.2,0,0.4,0,0.6,0.2c0.2,0,0.4,0,0.6,0.1   c0.1,0.1,0.6,0.3,0.6,0.5c0,0-0.3,0.3-0.3,0.3c0.4,0.3,0.9,0.6,1.4,0.7c-0.1,0-0.1,0.1-0.1,0.2c0,0.1,0.1,0.2,0.1,0.2   c-0.2,0.1-0.4,0.3-0.5,0.5c0.1,0.1,0.2,0.2,0.3,0.3c0.4,0.3,0.9,0.6,1.3,1c0.3,0.2,0.5,0.5,0.8,0.7c0.1,0,0.1,0.1,0.2,0.1   c0.2,0.2,0.5,0.4,0.6,0.6c0,0,0.1,0.1,0.1,0.1c0.1,0.1,0.2,0.2,0.2,0.4c0.4,0.8,0.4,1.9,0.2,2.8c0.2,0.6,0.4,1.2,0.6,1.8   c0.3,0.2,0.6,0.5,0.8,0.8c0.2,0.1,0.4,0.2,0.5,0.3c0.3,0.2,0.4,0.6,0.1,0.4c0,0.1,0,0.3,0,0.4c-0.3-0.2,1.1,1.5,1.2,1.8   c0.2,0.4,0.6,0.5,1,0.7c0.6,0.3,1.1,0.8,1.3,1.5c-0.5,0-1.1,0.1-1.6,0c-0.7-0.1-1.2-0.4-1.7-0.9c-0.1-0.1-0.3-0.3-0.5-0.3   c-0.1,0-0.2,0.1-0.3,0.1c-0.3,0.1-0.5-0.1-0.7-0.3c-0.8-0.7-1.9-1.1-2.9-1.3c-0.1,0-0.2,0-0.4-0.1c-0.1-0.1-0.2-0.2-0.2-0.3   c0-0.1,0-0.1,0-0.2c0-0.1,0-0.1-0.1-0.2c-0.3-0.3-0.8-0.5-1.2-0.4c0-0.3,0-0.9-0.4-0.9c-0.1,0-0.3,0.1-0.3,0.3   c-0.1-0.4-0.7-0.7-0.9-1c-0.2-0.4-0.4-0.9-0.6-1.3c-0.1-0.3-0.2-0.6-0.4-0.9c-0.1-0.2-0.2-0.8-0.3-1l-0.3-0.3   c0.1,9.1,3.6,18.2,10.6,25.2c6.1,6.1,13.9,9.6,21.9,10.4c0.5,0.1,0.8-0.5,1-0.9c0,0,0,0,0-0.1c-0.1,0-0.2,0-0.2-0.1   c-0.1-0.1-0.1-0.2-0.1-0.3c0,0,0,0,0,0c0,0,0,0,0,0c-0.4-0.7-0.8-1.5-0.9-2.4c-0.1,0-0.2,0-0.3,0c0,0-0.1,0-0.1,0   c-0.1,0.1-0.2,0.3-0.1,0.5c0,0.1,0.1,0.1,0.1,0.2c0.1,0.5-0.7-0.2-0.8-0.3c0.1,0,0.1-0.1,0-0.1c-0.1-0.4-0.2-0.8-0.2-1.3   c0-0.1-0.1-0.2-0.2-0.3c-0.1-0.1-0.2,0-0.3,0c-0.6,0-0.4-0.7-0.6-1c0.4-0.2,0.9-0.2,1.3-0.2c0.4,0.1,0.8,0.4,1.2,0.4   c0.3,0,0.6,0,0.9,0.1c0.3,0.1,0.6,0.2,1,0.4c0.6,0.2,1.3,0.5,1.9,0.7c0.3,0.1,0.6,0.2,0.8,0.5c0.2,0.3,0.1,0.6,0.1,0.9   c0,0.6,0.2,1.2,0.6,1.7c0.1,0.1,0.1,0.2,0.2,0.2c0.1,0,0.2-0.1,0.3-0.1c0.2,0,0.4,0.3,0.3,0.4c0-0.1,0.2-0.1,0.3,0   c0.1,0.2-0.2,0.4-0.3,0.5C52,85.6,52,85.8,51.9,85.9z"></path><path d="M82.6,65.7c-0.1-0.1,0.7-1.6,0.8-1.8c0.2-0.6,0.4-1.2,0.6-1.7c0-0.1,0-0.1,0-0.2c0-0.1-0.1-0.1-0.1-0.1   c-0.2-0.1-0.3-0.2-0.5-0.3c0.1-0.1,0.2-0.3,0.2-0.4c-0.1,0-0.1-0.1-0.2-0.1c-0.3-0.2-0.5-0.3-0.8-0.5c0,0,0,0,0,0   c-0.5,0.1-0.9,0-1.3-0.2c-0.1,0-0.2,0-0.2,0c0,0,0,0,0-0.1c-0.5-0.3-1-0.6-1.6-0.8c-0.5-0.2-0.6-0.7-0.4-1   c-0.1-0.1-0.2-0.2-0.3-0.3c-0.2-0.1-0.3-0.2-0.5-0.2c-1-0.6-2-1.3-3.1-1.8c-0.4-0.2-0.5-0.7-0.3-1c-0.2-0.2-0.4-0.5-0.4-0.8   c0-0.2,0.1-0.4,0.3-0.6c0.2-0.2,0.3-0.5,0.5-0.7c0,0,0-0.1,0-0.1c-0.1-1.7-1-3.1-1.6-4.6c0-0.1-0.1-0.2-0.1-0.2   c-0.2-0.2-0.5-0.4-0.7-0.6c-0.8-0.6-1.7-1.1-2.6-1.7c-0.1,0.1-0.1,0.3-0.1,0.4c-0.9,0-1.7-0.8-2.1-1.7c-0.4-0.8-0.7-1.8-1.5-2.4   c-0.3-0.2-0.7-0.4-1-0.7c-0.6-0.5-0.7-1.4-1.3-1.9c0.8,0,1.6,0.3,2.3,0.8c0.7,0.4,1.3,1,1.9,1.6c0.3,0.2,0.6,0.5,1,0.4   c2.9,2.2,5.9,4.2,9.1,6c0.4,1.2,1,2.2,1.9,3c0.7,0.7,1.7,1.2,2.2,2.1c0.4,0.6,0.6,0.8,1.3,0.8c0.2,0,0.8,0.6,0.7,0.1   c0-0.1,0-0.3,0.1-0.3c0.1,0,0.1,0.2,0.1,0.3c0,0.4-0.2,1.1,0.3,1.2c0.4,0.1,0.3-0.5,0.7-0.5c-0.2,0.3-0.2,0.6-0.1,1   c0,0,0.1,0,0.1,0c1.8-11.1-1.6-22.8-10.1-31.4c-4.8-4.8-10.7-8-16.9-9.5L58.3,15c0.1,0.5,0.3,1.1,0.4,1.6c0.1,0,0.2,0,0.2,0   c0,0.1-0.1,0.2-0.1,0.3c0.1-0.1,0.7,0,0.8,0c0.2,0.1,0.4,0.4,0.6,0.6c0.3,0.5-0.8,1.1-0.3,1.2c-0.2,0-0.3-0.1-0.5-0.1   c0,0.2-0.1,0.4-0.2,0.6c-0.2,0.3-0.5,0.5-0.6,0.9c0,0.1-0.1,0.3-0.1,0.4c0.5,0.6,0.9,1.3,1.2,2.1c0.1,0,0.1,0,0.2,0   c0.4,0.1,0.6,0.4,0.5,0.7c0.2,0.1,0.3,0.2,0.5,0.3c0.1,0.1,0.2,0.1,0.2,0.2c0.1,0.2,0,0.3-0.2,0.4c0,0.1,0,0.2,0.1,0.2   c0,0.3,0,0.7,0.1,0.9c0,0,0,0.1,0,0.1c0,0,0,0,0,0c0.1,0.1,0.1,0.2,0.1,0.3c0,0,0,0,0,0c0,0,0.2,0,0.2,0c0.4,0.1,0.6,0.6,0.5,0.9   c0,0,0,0.1,0,0.1c0,0,0.1,0.1,0.1,0.1c0.3,0.2,0.6,0.6,0.7,0.9c0,0.2,0.1,0.3,0,0.5c-0.2,0.3-1.1-0.1-1.3-0.2   c-0.5-0.2-1-0.5-1.3-0.9c-0.1-0.1-0.2-0.3-0.4-0.3c-0.2-0.1-0.4-0.2-0.6-0.3c-0.4-0.2-0.7-0.6-1.1-0.9c-0.2-0.2-0.5-0.4-0.8-0.7   c-0.1,0-0.1,0-0.2-0.1c-0.2,0-0.4-0.2-0.4-0.4c-0.1-0.1-0.3-0.2-0.4-0.3c-0.4-0.2-0.6-0.5-0.9-0.8c0,0,0,0-0.1,0c0,0,0,0,0-0.1   c-0.2-0.2-0.3-0.5-0.5-0.7c-0.2,0-0.3-0.2-0.4-0.3c-0.1-0.1-0.1-0.3-0.1-0.4c0,0,0-0.1-0.1-0.1c-0.1,0-0.1,0-0.2,0   c0-0.2-0.1-0.3-0.1-0.5c0,0-0.1-0.1-0.1-0.1c-0.1-0.1-0.2-0.3-0.2-0.4c-0.4-0.6-0.8-1.3-1.2-1.8c-0.2-0.1-0.4-0.2-0.4-0.5   c0,0,0,0,0,0c-0.1-0.2-0.2-0.4-0.1-0.6c-0.1-0.6-0.1-1.2,0-1.8c0,0-0.1,0-0.1,0c0,0,0.1,0,0.1-0.1c0.1-0.6,0.3-1.2,0.7-1.7   c0.1-0.2,0.2-0.4,0.3-0.4c-0.1,0.1-0.3,0.1-0.4,0.2c0-0.1,0-0.1,0-0.2c-6.2-0.4-12.4,0.7-18.1,3.5C20.6,7.3,9.7,2.6,6.2,6.2   C2.6,9.7,7.3,20.6,17.4,34.3c5.9,8,13.6,16.9,22.5,25.9c8.9,8.9,17.9,16.6,25.9,22.5c13.7,10,24.6,14.7,28.1,11.2   C97.3,90.3,92.7,79.4,82.6,65.7z M35.4,22.6c0.2,0.1,0.3,0.2,0.5,0.3c0.3,0.2,0.6,0.4,0.7,0.8c-0.2,0-0.3,0.1-0.4,0.3c0,0,0,0,0,0   c0.1,0.3,0.3,0.5,0.4,0.7c0.9,1.4,1.7,2.8,1.9,4.5c0.4,0.4,0.8,0.9,1,1.5c0.2,0.5,0.4,0.9,0.5,1c0,0.1,0,0.2,0,0.3   c0,0.2,0.2,0.4,0.3,0.6c0.4-0.1,0.9,0.1,1.1,0.5c0.3,0.3,0.5,0.7,0.8,1c-1.1,0.3-2.2-0.1-3.2-0.7c-0.3-0.2-0.7-0.4-1-0.2   c0,0-1.7-1-1.8-1.1c-0.6-0.3-1.3-0.6-2-0.7c-0.1,0-0.1,0-0.2-0.1c-0.1-0.1-0.1-0.1-0.1-0.2c-0.1-0.3-0.3-0.5-0.6-0.5   c-0.2,0-0.4,0-0.5-0.2c0-0.1,0-0.1,0-0.2c0-0.2-0.1-0.4-0.3-0.4c-0.3-0.1-0.4,0.1-0.6,0.1c-0.2-0.1-0.4-0.4-0.5-0.6   c-0.5-0.8-0.6-1.7-0.9-2.5c-0.3-0.6-0.7-1.2-1.2-1.7c-0.1-0.1-0.3-0.3-0.3-0.4c0-0.1,0-0.2-0.1-0.3c-0.2-0.3-0.8-0.1-0.9-0.5   c-0.1,0-0.2,0.1-0.2,0.1c0-0.2,0-0.4,0-0.6c0-0.1,0-0.1-0.1-0.2c-0.1-0.1-0.3,0-0.4,0.1c0.2-0.3,0.1-0.7,0.1-1c0-0.3,0-0.6,0.2-0.8   c-1.2,0.8-2.2,1.8-3.2,2.8c-0.5,0.5-1,1.1-1.5,1.7c6,8.8,14.1,19,24.6,29.3C56.8,64.4,66,71.6,74,77.2c0.6-0.5,1.1-1,1.7-1.5   c0.5-0.5,1-1.1,1.5-1.6c-0.1,0.1-0.2,0-0.4-0.2c-1-0.2-2-0.9-2.9-1.3c-0.4-0.2-0.8-0.4-1-0.8c0-0.1-0.1-0.1-0.1-0.2   c-0.3-0.1-0.5-0.2-0.5-0.2c-0.6-0.4-1.2-0.7-1.7-1.1c0,0-0.1-0.1-0.1-0.1c0-0.1,0-0.1,0-0.2c0.3-0.8-0.2-1.8-1-2.1   c-0.5-0.2-1.1-0.1-1.6-0.2c-0.5-0.1-1-0.6-0.9-1.1c0.1-0.4,0.5-0.5,0.8-0.7c0.2-0.1,0.3-0.2,0.5-0.3c-0.3-0.5-0.6-1-0.8-1.5   c0-0.1-0.1-0.1-0.1-0.2c-0.4-0.4-0.8-0.9-1.1-1.4c-0.9-1.2-2.1-2-3.1-3.1c-0.1-0.1-0.1-0.1-0.1-0.2c0,0-0.1,0-0.1,0   c-0.5-0.2-0.8-0.7-1-1.1c-0.4-0.5-0.9-0.7-1.3-1.2c-0.3-0.4-0.6-0.9-0.9-1.3c0,0,0.8,0.1,0.9,0.1c1.2,0.3,2.2,1.2,3.2,1.8   c1.2,0.8,2.4,1.6,3.6,2.4c0.4,0.3,0.9,0.6,1.4,0.4c0.1,0.4,0.6,0.5,0.9,0.7c0.8,0.4,1.2,1.5,1.6,2.3c0.5,1,1.3,1.8,2.3,2.3   c-0.1,0-0.2,0.1-0.2,0.2c0.4,0,0.8,0.1,1.1,0.4c0.2,0.2,0.5,0.5,0.8,0.3c0,0.3,0,0.6,0,0.9c0.7,0.5,1.2,1.1,1.8,1.8   c0.5,0.6,1,1.4,1.7,1.8c0.4-0.2,0.6-0.7,0.9-0.9c0.5-0.7,0.9-1.4,1.4-2.2c4.1,6.9,5.6,12.2,3.6,14.3c-2,2-7,0.6-13.6-3.2   c-7.8-4.5-17.9-12.5-28-22.6s-18.1-20.2-22.6-28C16.8,22,15.4,17,17.4,15c2-2,7-0.6,13.6,3.2c0,0,0.1,0,0.1,0l0,0   c0.2,0.1,0.3,0.2,0.5,0.3c0,0,0.1,0,0.1,0c-0.1,0.1-0.1,0.1-0.1,0.2c0.1,0,0.3,0,0.4,0c0.1,0.1,0.2,0.2,0.3,0.3   c0.1,0.1,0.2,0.1,0.3,0.1c-0.1,0-0.1,0.1-0.1,0.2c0,0,0,0.1,0.1,0.1c0,0,0.1,0.1,0.1,0.1c0.1,0.1,0.3,0.2,0.4,0.2   c0.2,0.1,0.5,0.3,0.5,0.5c0,0.1,0,0.1,0,0.2c0.1,0,0.1,0.1,0.2,0.1C34.5,21.2,35,21.9,35.4,22.6z M89.1,87.7   C83,93.8,59.8,77.9,41,59C22.1,40.2,6.2,17,12.3,10.9c3.3-3.3,11.8-0.1,21.8,6.6L33.2,18c-10.1-6.4-17.6-8.6-20-6.2   c-4.3,4.3,6.3,23.9,28.7,46.3S84,91,88.2,86.8c2.4-2.4,0.2-9.9-6.2-20l0.4-1C89.2,75.9,92.4,84.4,89.1,87.7z"></path></g></svg>