<svg fill="#00DCFF" xmlns="http://www.w3.org/2000/svg" xmlns:xlink="http://www.w3.org/1999/xlink" viewBox="0 0 100 100" version="1.1" x="0px" y="0px"><title>Download s5.2</title><desc>Created with Sketch.</desc><g stroke="none" stroke-width="1" fill="none" fill-rule="evenodd"><g fill="#00DCFF"><path d="M50.6891868,34.4634936 L66.6892767,50.5391002 C67.6312763,51.482038 66.2187763,52.8959447 65.2767767,51.9530069 L51.7069794,38.3696949 C51.3104304,37.972751 50.9989392,38.1101559 50.9989392,38.6642799 L50.9989392,77.2466696 C50.9989392,77.7941659 50.5516989,78.25 50,78.25 C49.4444548,78.25 49.0010608,77.8007937 49.0010608,77.2466696 L49.0010608,38.6642799 C49.0010608,38.1167836 48.6840604,37.9782656 48.2930206,38.3696949 L34.7232233,51.9530069 C33.7812237,52.8959447 32.3687237,51.482038 33.3107233,50.5391002 L49.2762717,34.4634936 C49.6638222,34.0732715 50.2985995,34.0710628 50.6891868,34.4634936 Z M30,24 C29.4477153,24 29,23.5522847 29,23 C29,22.4477153 29.4477153,22 30,22 L70,22 C70.5522847,22 71,22.4477153 71,23 C71,23.5522847 70.5522847,24 70,24 L30,24 Z" transform="translate(50.000000, 50.125000) rotate(-180.000000) translate(-50.000000, -50.125000) "></path></g></g></svg>