<svg fill="#00DCFF" xmlns="http://www.w3.org/2000/svg" xmlns:xlink="http://www.w3.org/1999/xlink" version="1.1" x="0px" y="0px" viewBox="0 0 100 100" enable-background="new 0 0 100 100" xml:space="preserve"><path fill="#00DCFF" d="M66.9,50.2c0,1.7-2.2,3-2.7,4.6c-0.5,1.6,0.5,4-0.5,5.3c-1,1.3-3.6,1.1-4.9,2.1c-1.3,1-1.9,3.5-3.5,4  c-1.5,0.5-3.5-1.2-5.2-1.2c-1.7,0-3.7,1.7-5.2,1.2c-1.6-0.5-2.2-3-3.5-4c-1.3-1-3.9-0.8-4.9-2.1c-1-1.3,0-3.7-0.5-5.3  c-0.5-1.5-2.7-2.9-2.7-4.6c0-1.7,2.2-3,2.7-4.6c0.5-1.6-0.5-4,0.5-5.3c1-1.3,3.6-1.1,4.9-2.1c1.3-1,1.9-3.5,3.5-4  c1.5-0.5,3.5,1.2,5.2,1.2c1.7,0,3.7-1.7,5.2-1.2c1.6,0.5,2.2,3,3.5,4c1.3,1,3.9,0.8,4.9,2.1c1,1.3,0,3.7,0.5,5.3  C64.7,47.1,66.9,48.5,66.9,50.2z M54,29c0-2.1-1.7-3.8-3.8-3.8c-2.1,0-3.8,1.7-3.8,3.8s1.7,3.8,3.8,3.8C52.3,32.8,54,31.1,54,29z   M53.3,21.6c0-1.7-1.3-3-3-3s-3,1.3-3,3s1.3,3,3,3S53.3,23.2,53.3,21.6z M52.5,14.1c0-1.2-1-2.2-2.2-2.2c-1.2,0-2.2,1-2.2,2.2  s1,2.2,2.2,2.2C51.5,16.3,52.5,15.3,52.5,14.1z M51.7,6.7c0-0.8-0.6-1.4-1.4-1.4s-1.4,0.6-1.4,1.4s0.6,1.4,1.4,1.4  S51.7,7.4,51.7,6.7z M40.8,30.6c-1.2-1.7-3.6-2.1-5.3-0.8c-1.7,1.2-2.1,3.6-0.8,5.3c1.2,1.7,3.6,2.1,5.3,0.8  C41.6,34.7,42,32.3,40.8,30.6z M35.7,25.1c-1-1.3-2.8-1.6-4.2-0.7s-1.6,2.8-0.7,4.2s2.8,1.6,4.2,0.7C36.4,28.3,36.7,26.4,35.7,25.1z   M30.7,19.5c-0.7-1-2.1-1.2-3.1-0.5s-1.2,2.1-0.5,3.1s2.1,1.2,3.1,0.5S31.4,20.5,30.7,19.5z M25.7,13.9c-0.5-0.6-1.3-0.8-2-0.3  c-0.6,0.5-0.8,1.3-0.3,2c0.5,0.6,1.3,0.8,2,0.3C26,15.4,26.2,14.6,25.7,13.9z M31,39.7c-2-0.6-4.1,0.4-4.8,2.4  c-0.6,2,0.4,4.1,2.4,4.8c2,0.6,4.1-0.4,4.8-2.4S33,40.4,31,39.7z M23.6,38.2c-1.6-0.5-3.3,0.3-3.8,1.9s0.3,3.3,1.9,3.8  c1.6,0.5,3.3-0.3,3.8-1.9S25.2,38.7,23.6,38.2z M16.3,36.6c-1.2-0.4-2.4,0.3-2.8,1.4c-0.4,1.2,0.3,2.4,1.4,2.8s2.4-0.3,2.8-1.4  C18.1,38.3,17.5,37,16.3,36.6z M9,35.1c-0.7-0.2-1.5,0.2-1.8,0.9c-0.2,0.7,0.2,1.5,0.9,1.8s1.5-0.2,1.8-0.9  C10.1,36.1,9.7,35.3,9,35.1z M28.4,52.9c-2,0.6-3.1,2.8-2.4,4.8c0.6,2,2.8,3.1,4.8,2.4s3.1-2.8,2.4-4.8  C32.5,53.3,30.4,52.2,28.4,52.9z M21.6,55.9c-1.6,0.5-2.4,2.2-1.9,3.8s2.2,2.4,3.8,1.9c1.6-0.5,2.4-2.2,1.9-3.8  C24.8,56.3,23.1,55.4,21.6,55.9z M14.7,59c-1.2,0.4-1.8,1.6-1.4,2.8c0.4,1.2,1.6,1.8,2.8,1.4c1.2-0.4,1.8-1.6,1.4-2.8  C17.1,59.2,15.9,58.6,14.7,59z M7.9,62c-0.7,0.2-1.1,1-0.9,1.8c0.2,0.7,1,1.1,1.8,0.9c0.7-0.2,1.1-1,0.9-1.8  C9.4,62.2,8.6,61.8,7.9,62z M34,65c-1.2,1.7-0.9,4.1,0.8,5.3c1.7,1.2,4.1,0.9,5.3-0.8s0.9-4.1-0.8-5.3C37.6,62.9,35.3,63.3,34,65z   M30.3,71.5c-1,1.3-0.7,3.2,0.7,4.2c1.3,1,3.2,0.7,4.2-0.7c1-1.3,0.7-3.2-0.7-4.2C33.1,69.9,31.3,70.1,30.3,71.5z M26.5,78  c-0.7,1-0.5,2.4,0.5,3.1c1,0.7,2.4,0.5,3.1-0.5c0.7-1,0.5-2.4-0.5-3.1C28.6,76.8,27.3,77,26.5,78z M22.8,84.5  c-0.5,0.6-0.3,1.5,0.3,2s1.5,0.3,2-0.3c0.5-0.6,0.3-1.5-0.3-2C24.1,83.7,23.3,83.9,22.8,84.5z M45.7,71.5c0,2.1,1.7,3.8,3.8,3.8  c2.1,0,3.8-1.7,3.8-3.8s-1.7-3.8-3.8-3.8C47.4,67.7,45.7,69.4,45.7,71.5z M46.5,78.9c0,1.7,1.3,3,3,3s3-1.3,3-3s-1.3-3-3-3  S46.5,77.3,46.5,78.9z M47.3,86.4c0,1.2,1,2.2,2.2,2.2c1.2,0,2.2-1,2.2-2.2c0-1.2-1-2.2-2.2-2.2C48.3,84.2,47.3,85.2,47.3,86.4z   M48.1,93.9c0,0.8,0.6,1.4,1.4,1.4s1.4-0.6,1.4-1.4c0-0.8-0.6-1.4-1.4-1.4S48.1,93.1,48.1,93.9z M59,69.9c1.2,1.7,3.6,2.1,5.3,0.8  c1.7-1.2,2.1-3.6,0.8-5.3c-1.2-1.7-3.6-2.1-5.3-0.8C58.1,65.8,57.7,68.2,59,69.9z M64,75.5c1,1.3,2.8,1.6,4.2,0.7  c1.3-1,1.6-2.8,0.7-4.2s-2.8-1.6-4.2-0.7S63,74.1,64,75.5z M69,81c0.7,1,2.1,1.2,3.1,0.5c1-0.7,1.2-2.1,0.5-3.1  c-0.7-1-2.1-1.2-3.1-0.5C68.5,78.7,68.3,80,69,81z M74.1,86.6c0.5,0.6,1.3,0.8,2,0.3s0.8-1.3,0.3-2c-0.5-0.6-1.3-0.8-2-0.3  S73.6,86,74.1,86.6z M68.8,60.8c2,0.6,4.1-0.4,4.8-2.4c0.6-2-0.4-4.1-2.4-4.8c-2-0.6-4.1,0.4-4.8,2.4S66.8,60.1,68.8,60.8z   M76.1,62.3c1.6,0.5,3.3-0.3,3.8-1.9s-0.3-3.3-1.9-3.8c-1.6-0.5-3.3,0.3-3.8,1.9S74.5,61.8,76.1,62.3z M83.4,63.9  c1.2,0.4,2.4-0.3,2.8-1.4c0.4-1.2-0.3-2.4-1.4-2.8c-1.2-0.4-2.4,0.3-2.8,1.4C81.7,62.3,82.3,63.5,83.4,63.9z M90.8,65.4  c0.7,0.2,1.5-0.2,1.8-0.9c0.2-0.7-0.2-1.5-0.9-1.8c-0.7-0.2-1.5,0.2-1.8,0.9C89.6,64.4,90,65.2,90.8,65.4z M71.3,47.7  c2-0.6,3.1-2.8,2.4-4.8S71,39.8,69,40.5s-3.1,2.8-2.4,4.8S69.4,48.3,71.3,47.7z M78.2,44.6c1.6-0.5,2.4-2.2,1.9-3.8  c-0.5-1.6-2.2-2.4-3.8-1.9c-1.6,0.5-2.4,2.2-1.9,3.8C74.9,44.3,76.6,45.1,78.2,44.6z M85,41.6c1.2-0.4,1.8-1.6,1.4-2.8  c-0.4-1.2-1.6-1.8-2.8-1.4s-1.8,1.6-1.4,2.8C82.6,41.3,83.9,41.9,85,41.6z M91.9,38.5c0.7-0.2,1.1-1,0.9-1.8c-0.2-0.7-1-1.1-1.8-0.9  c-0.7,0.2-1.1,1-0.9,1.8C90.4,38.3,91.2,38.7,91.9,38.5z M65.7,35.5c1.2-1.7,0.9-4.1-0.8-5.3s-4.1-0.9-5.3,0.8  c-1.2,1.7-0.9,4.1,0.8,5.3S64.5,37.2,65.7,35.5z M69.5,29c1-1.3,0.7-3.2-0.7-4.2s-3.2-0.7-4.2,0.7s-0.7,3.2,0.7,4.2  C66.6,30.7,68.5,30.4,69.5,29z M73.2,22.5c0.7-1,0.5-2.4-0.5-3.1c-1-0.7-2.4-0.5-3.1,0.5c-0.7,1-0.5,2.4,0.5,3.1  C71.1,23.7,72.5,23.5,73.2,22.5z M76.9,16c0.5-0.6,0.3-1.5-0.3-2c-0.6-0.5-1.5-0.3-2,0.3s-0.3,1.5,0.3,2  C75.6,16.8,76.5,16.7,76.9,16z"></path></svg>