<svg fill="#FFFFFF" xmlns="http://www.w3.org/2000/svg" xmlns:xlink="http://www.w3.org/1999/xlink" version="1.1" x="0px" y="0px" viewBox="0 0 100 100" enable-background="new 0 0 100 100" xml:space="preserve"><path d="M49.084,59.041c-0.047-0.174-0.068-0.351-0.088-0.527c-0.048-0.004-0.094-0.002-0.143-0.009  c-0.029-0.003-0.055-0.012-0.084-0.018c-0.062,0.166-0.127,0.331-0.216,0.487c-0.478,0.837-1.261,1.381-2.13,1.586  c0.525,0.621,1.27,1.057,2.141,1.16c0.839,0.1,1.636-0.132,2.279-0.581C50.012,60.735,49.348,60.001,49.084,59.041z M59.298,50.627  c-0.173,0.048-0.352,0.07-0.524,0.086c-0.004,0.046-0.005,0.087-0.009,0.131c-0.003,0.033-0.019,0.065-0.021,0.098  c0.165,0.062,0.328,0.127,0.489,0.216c0.837,0.475,1.383,1.261,1.586,2.13c0.619-0.525,1.057-1.269,1.158-2.139  c0.1-0.84-0.131-1.636-0.579-2.28C60.991,49.7,60.259,50.364,59.298,50.627z M58.915,46.934c-0.144,0.112-0.299,0.201-0.452,0.286  c0.016,0.04,0.033,0.079,0.044,0.123c0.011,0.03,0.011,0.065,0.02,0.097c0.176-0.006,0.355-0.012,0.535,0.009  c0.99,0.116,1.812,0.661,2.336,1.421c0.347-0.703,0.459-1.523,0.234-2.337c-0.231-0.846-0.775-1.517-1.468-1.945  C60.092,45.479,59.67,46.336,58.915,46.934z M32.369,64.604c1.157-0.776,1.464-2.343,0.688-3.5  c-0.778-1.156-2.346-1.464-3.502-0.687c-1.155,0.775-1.465,2.343-0.687,3.5C29.646,65.074,31.213,65.381,32.369,64.604z   M58.275,54.065c-0.182-0.02-0.354-0.067-0.524-0.114c-0.016,0.032-0.025,0.066-0.042,0.098c-0.02,0.036-0.049,0.064-0.069,0.099  c0.132,0.117,0.26,0.244,0.375,0.386c0.615,0.781,0.813,1.75,0.647,2.66c0.741-0.255,1.399-0.757,1.817-1.49  c0.435-0.763,0.528-1.624,0.339-2.415C60.138,53.868,59.232,54.179,58.275,54.065z M55.934,56.95  c-0.156-0.092-0.297-0.201-0.435-0.311c-0.027,0.022-0.053,0.051-0.082,0.075c-0.029,0.023-0.066,0.041-0.097,0.062  c0.072,0.162,0.145,0.326,0.191,0.503c0.257,0.928,0.082,1.868-0.386,2.627c0.811,0.066,1.646-0.15,2.33-0.693  c0.665-0.522,1.065-1.25,1.206-2.02C57.787,57.492,56.801,57.442,55.934,56.95z M45.646,58.019c0.021-0.18,0.067-0.354,0.118-0.523  c-0.035-0.015-0.072-0.027-0.103-0.046c-0.035-0.019-0.067-0.045-0.097-0.065c-0.12,0.129-0.243,0.259-0.388,0.373  c-0.782,0.615-1.749,0.812-2.656,0.647c0.255,0.741,0.755,1.4,1.488,1.821c0.762,0.433,1.622,0.523,2.414,0.334  C45.843,59.88,45.535,58.975,45.646,58.019z M34.594,39.655c-0.706,1.077-0.93,2.32-0.757,3.501c1.116-0.856,2.568-1.262,4.056-0.97  c0.271,0.054,0.526,0.144,0.778,0.236c0.03-0.054,0.062-0.111,0.094-0.165c0.03-0.044,0.065-0.081,0.102-0.123  c-0.188-0.197-0.367-0.398-0.524-0.63c-0.818-1.217-1.025-2.656-0.715-3.982C36.427,37.82,35.326,38.538,34.594,39.655z   M31.934,46.188c-0.256,1.31,0.028,2.595,0.681,3.647c0.706-1.165,1.86-2.053,3.297-2.351c0.272-0.057,0.541-0.074,0.81-0.087  c0.009-0.062,0.013-0.125,0.021-0.186c0.012-0.051,0.034-0.101,0.046-0.153c-0.244-0.108-0.492-0.226-0.726-0.377  c-1.271-0.83-2.025-2.134-2.225-3.523C32.89,43.882,32.18,44.926,31.934,46.188z M31.974,53.488c0.266,1.262,0.99,2.297,1.948,3.012  c0.183-1.394,0.921-2.708,2.176-3.553c0.23-0.154,0.476-0.272,0.719-0.386c-0.012-0.055-0.035-0.106-0.049-0.164  c-0.009-0.058-0.011-0.121-0.017-0.176c-0.27-0.009-0.543-0.023-0.816-0.076c-1.437-0.283-2.6-1.156-3.32-2.311  C31.973,50.893,31.703,52.183,31.974,53.488z M42.762,55.68c0.092-0.158,0.201-0.299,0.311-0.437  c-0.022-0.03-0.053-0.053-0.077-0.082c-0.021-0.031-0.041-0.067-0.062-0.099c-0.16,0.074-0.325,0.146-0.5,0.194  c-0.929,0.254-1.867,0.082-2.627-0.388c-0.067,0.81,0.15,1.646,0.692,2.335c0.523,0.665,1.253,1.06,2.023,1.201  C42.223,57.531,42.271,56.543,42.762,55.68z M39.727,34.458c-1.112,0.746-1.819,1.857-2.1,3.063  c1.321-0.327,2.766-0.139,3.995,0.665c0.229,0.151,0.432,0.331,0.633,0.512c0.055-0.038,0.101-0.082,0.154-0.12  c0.041-0.029,0.088-0.047,0.134-0.073c-0.101-0.254-0.19-0.504-0.248-0.782c-0.311-1.481,0.076-2.936,0.918-4.061  C42.029,33.507,40.793,33.743,39.727,34.458z M46.228,31.721c-1.264,0.262-2.302,0.984-3.015,1.942  c1.394,0.184,2.707,0.923,3.554,2.182c0.155,0.231,0.273,0.471,0.385,0.716c0.062-0.015,0.127-0.037,0.191-0.049  c0.047-0.01,0.101-0.01,0.149-0.017c0.007-0.27,0.022-0.539,0.076-0.814c0.282-1.44,1.154-2.605,2.312-3.323  C48.819,31.717,47.533,31.446,46.228,31.721z M52.781,58.657c-0.114-0.141-0.203-0.296-0.289-0.449  c-0.045,0.014-0.088,0.033-0.133,0.046c-0.03,0.009-0.059,0.009-0.085,0.015c0.006,0.178,0.01,0.354-0.009,0.535  c-0.12,0.989-0.665,1.813-1.422,2.337c0.702,0.347,1.522,0.458,2.335,0.233c0.848-0.231,1.519-0.774,1.947-1.467  C54.236,59.833,53.374,59.414,52.781,58.657z M40.671,48.83c0.175-0.046,0.352-0.069,0.526-0.09  c0.002-0.039,0.006-0.083,0.008-0.124c0.005-0.034,0.014-0.065,0.023-0.102c-0.166-0.061-0.333-0.125-0.492-0.217  c-0.837-0.477-1.379-1.261-1.583-2.132c-0.619,0.526-1.058,1.27-1.16,2.141c-0.101,0.84,0.13,1.635,0.578,2.28  C38.979,49.756,39.712,49.093,40.671,48.83z M25.021,44.83c-0.269,1.367,0.623,2.694,1.99,2.961c1.364,0.269,2.692-0.624,2.96-1.988  c0.27-1.368-0.624-2.694-1.989-2.963C26.616,42.571,25.289,43.462,25.021,44.83z M34.716,59.991  c0.744,1.108,1.856,1.815,3.062,2.094c-0.327-1.321-0.134-2.764,0.665-3.993c0.153-0.23,0.334-0.436,0.516-0.634  c-0.038-0.044-0.078-0.084-0.108-0.132c-0.033-0.049-0.06-0.105-0.089-0.154c-0.251,0.094-0.504,0.189-0.779,0.245  c-1.483,0.309-2.937-0.079-4.061-0.918C33.765,57.681,33.999,58.922,34.716,59.991z M38.34,52.924  c0.231,0.845,0.774,1.518,1.466,1.944c0.072-0.89,0.493-1.749,1.251-2.346c0.143-0.112,0.295-0.201,0.45-0.288  c-0.014-0.039-0.03-0.076-0.042-0.114c-0.011-0.034-0.011-0.071-0.02-0.104c-0.175,0.008-0.354,0.011-0.535-0.009  c-0.991-0.117-1.815-0.663-2.339-1.42C38.227,51.29,38.113,52.11,38.34,52.924z M28.064,56.881c1.364-0.287,2.241-1.622,1.957-2.986  c-0.287-1.364-1.624-2.239-2.986-1.954c-1.361,0.285-2.24,1.621-1.956,2.986C25.364,56.29,26.704,57.163,28.064,56.881z   M32.921,38.558c0.765-1.167,0.437-2.73-0.729-3.493c-1.164-0.763-2.729-0.437-3.491,0.729c-0.765,1.164-0.437,2.728,0.729,3.492  C30.594,40.049,32.158,39.724,32.921,38.558z M44.034,42.506c0.157,0.091,0.299,0.199,0.436,0.31  c0.033-0.027,0.063-0.06,0.099-0.084c0.023-0.02,0.056-0.036,0.082-0.056c-0.075-0.16-0.145-0.323-0.192-0.5  c-0.256-0.929-0.084-1.869,0.387-2.628c-0.811-0.067-1.646,0.15-2.333,0.693c-0.666,0.524-1.065,1.252-1.205,2.023  C42.18,41.964,43.168,42.014,44.034,42.506z M50.885,40.412c0.047,0.179,0.07,0.355,0.088,0.532c0.035,0.002,0.072,0,0.108,0.004  c0.038,0.005,0.075,0.019,0.118,0.026c0.059-0.167,0.128-0.334,0.218-0.493c0.476-0.838,1.261-1.38,2.131-1.584  c-0.523-0.621-1.27-1.058-2.14-1.161c-0.841-0.1-1.637,0.134-2.278,0.578C49.96,38.719,50.622,39.454,50.885,40.412z M41.694,45.389  c0.178,0.021,0.352,0.068,0.521,0.114c0.021-0.038,0.036-0.077,0.056-0.116c0.017-0.028,0.038-0.053,0.058-0.081  c-0.134-0.12-0.259-0.24-0.375-0.387c-0.614-0.781-0.812-1.748-0.647-2.656c-0.741,0.254-1.398,0.755-1.816,1.487  c-0.436,0.764-0.526,1.624-0.337,2.414C39.834,45.587,40.738,45.275,41.694,45.389z M54.322,41.438  c-0.021,0.181-0.065,0.354-0.115,0.526c0.036,0.02,0.079,0.028,0.115,0.05c0.029,0.018,0.054,0.04,0.081,0.058  c0.12-0.132,0.245-0.26,0.39-0.375c0.78-0.615,1.749-0.812,2.655-0.647c-0.254-0.741-0.757-1.399-1.487-1.816  c-0.762-0.435-1.622-0.525-2.413-0.337C54.127,39.577,54.436,40.482,54.322,41.438z M47.187,40.796  c0.117,0.146,0.206,0.299,0.293,0.454c0.031-0.01,0.062-0.028,0.097-0.036c0.04-0.012,0.082-0.015,0.121-0.023  c-0.008-0.18-0.013-0.357,0.009-0.54c0.117-0.989,0.662-1.813,1.424-2.339c-0.705-0.345-1.527-0.457-2.341-0.232  c-0.848,0.232-1.52,0.774-1.944,1.466C45.732,39.621,46.592,40.041,47.187,40.796z M57.206,43.779c-0.091,0.16-0.2,0.3-0.315,0.438  c0.029,0.033,0.064,0.059,0.092,0.094c0.021,0.024,0.035,0.054,0.053,0.085c0.162-0.076,0.326-0.147,0.501-0.196  c0.927-0.254,1.868-0.082,2.628,0.388c0.067-0.812-0.15-1.646-0.692-2.335c-0.524-0.665-1.252-1.062-2.023-1.202  C57.747,41.924,57.698,42.913,57.206,43.779z M67.048,60.896c-0.762,1.167-0.436,2.732,0.729,3.494  c1.166,0.763,2.729,0.437,3.493-0.728c0.763-1.165,0.437-2.73-0.729-3.492C69.375,59.405,67.812,59.733,67.048,60.896z M67.6,34.853  c-1.155,0.777-1.464,2.344-0.688,3.501c0.778,1.156,2.346,1.464,3.502,0.688c1.157-0.777,1.465-2.346,0.688-3.502  C70.324,34.384,68.756,34.076,67.6,34.853z M44.787,24.825c-1.364,0.283-2.237,1.621-1.955,2.984  c0.284,1.363,1.621,2.239,2.987,1.954c1.362-0.284,2.237-1.622,1.95-2.985C47.488,25.415,46.149,24.539,44.787,24.825z   M73.74,13.441c0.584,0.382,1.367,0.218,1.749-0.365c0.38-0.582,0.217-1.364-0.365-1.747c-0.583-0.382-1.365-0.216-1.748,0.365  C72.996,12.278,73.158,13.06,73.74,13.441z M74.948,54.626c0.27-1.367-0.622-2.693-1.99-2.961c-1.364-0.269-2.692,0.624-2.96,1.988  c-0.27,1.368,0.624,2.695,1.989,2.964C73.354,56.884,74.681,55.993,74.948,54.626z M68.138,21.997  c0.875,0.572,2.049,0.328,2.62-0.546c0.572-0.873,0.328-2.047-0.546-2.619c-0.874-0.571-2.047-0.328-2.617,0.547  C67.022,20.251,67.265,21.427,68.138,21.997z M64.819,27.066c1.021,0.668,2.389,0.381,3.057-0.639  c0.667-1.02,0.384-2.385-0.638-3.055c-1.019-0.666-2.387-0.381-3.054,0.638C63.518,25.03,63.8,26.398,64.819,27.066z M71.112,17.456  c0.729,0.477,1.709,0.271,2.184-0.455c0.478-0.728,0.273-1.707-0.456-2.185c-0.729-0.477-1.708-0.272-2.182,0.457  C70.178,16.001,70.384,16.979,71.112,17.456z M83.898,40.718c-1.023,0.214-1.684,1.216-1.469,2.238s1.217,1.679,2.24,1.465  c1.021-0.213,1.679-1.215,1.466-2.239C85.921,41.161,84.921,40.505,83.898,40.718z M87.735,25.884  c0.577-0.389,0.733-1.172,0.344-1.751c-0.388-0.578-1.172-0.731-1.75-0.344c-0.579,0.391-0.733,1.173-0.344,1.751  C86.374,26.118,87.157,26.272,87.735,25.884z M87.744,41.847c0.179,0.854,1.015,1.399,1.866,1.222  c0.852-0.178,1.399-1.013,1.222-1.866c-0.177-0.853-1.014-1.399-1.865-1.221C88.116,40.16,87.567,40.995,87.744,41.847z   M76.499,44.193c0.249,1.194,1.418,1.959,2.612,1.709c1.193-0.248,1.959-1.417,1.71-2.611c-0.248-1.193-1.418-1.958-2.612-1.709  C77.017,41.833,76.25,43.001,76.499,44.193z M80.123,31.758c0.865-0.581,1.097-1.759,0.516-2.625  c-0.584-0.865-1.762-1.097-2.627-0.514c-0.866,0.581-1.1,1.758-0.515,2.624C78.077,32.11,79.255,32.342,80.123,31.758z   M73.068,31.559c-1.014,0.679-1.283,2.05-0.602,3.063c0.68,1.011,2.052,1.279,3.063,0.601c1.015-0.679,1.282-2.05,0.602-3.063  C75.451,31.148,74.08,30.88,73.068,31.559z M53.909,29.714c1.371,0.268,2.696-0.625,2.964-1.99c0.269-1.366-0.622-2.693-1.991-2.961  c-1.367-0.268-2.691,0.624-2.96,1.99C51.655,28.118,52.544,29.446,53.909,29.714z M62.075,57.271  c-0.268-0.051-0.526-0.144-0.774-0.236c-0.035,0.06-0.065,0.115-0.1,0.17c-0.028,0.043-0.069,0.078-0.095,0.12  c0.183,0.197,0.361,0.397,0.519,0.627c0.821,1.216,1.028,2.658,0.72,3.982c1.198-0.296,2.3-1.016,3.03-2.132  c0.707-1.078,0.929-2.321,0.757-3.501C65.016,57.157,63.562,57.564,62.075,57.271z M64.06,51.975  c-0.274,0.055-0.543,0.072-0.811,0.084c-0.008,0.063-0.009,0.13-0.024,0.197c-0.006,0.047-0.029,0.095-0.04,0.145  c0.244,0.11,0.494,0.226,0.727,0.377c1.268,0.827,2.022,2.133,2.221,3.523c0.947-0.725,1.656-1.769,1.904-3.029  c0.258-1.312-0.028-2.597-0.683-3.649C66.65,50.788,65.494,51.674,64.06,51.975z M61.524,41.365  c-0.153,0.232-0.329,0.438-0.517,0.638c0.037,0.052,0.089,0.093,0.124,0.149c0.028,0.042,0.047,0.088,0.074,0.132  c0.251-0.098,0.507-0.189,0.781-0.247c1.481-0.309,2.938,0.079,4.061,0.918c0.156-1.182-0.081-2.421-0.794-3.487  c-0.746-1.108-1.856-1.815-3.062-2.096C62.518,38.694,62.327,40.138,61.524,41.365z M63.868,46.513  c-0.232,0.156-0.477,0.274-0.727,0.386c0.017,0.065,0.047,0.123,0.061,0.188c0.01,0.048,0.01,0.099,0.012,0.151  c0.272,0.007,0.545,0.021,0.817,0.074c1.437,0.282,2.604,1.156,3.322,2.311c0.644-1.06,0.912-2.347,0.641-3.653  c-0.265-1.263-0.988-2.299-1.946-3.013C65.864,44.352,65.126,45.667,63.868,46.513z M52.229,35.65  c0.058,0.276,0.076,0.547,0.09,0.817c0.049,0.007,0.104,0.005,0.157,0.017c0.061,0.012,0.118,0.035,0.179,0.05  c0.11-0.25,0.225-0.496,0.377-0.729c0.834-1.269,2.134-2.024,3.529-2.224c-0.728-0.948-1.772-1.658-3.035-1.906  c-1.312-0.257-2.595,0.027-3.646,0.68C51.043,33.061,51.929,34.216,52.229,35.65z M57.53,37.634  c-0.057,0.276-0.145,0.532-0.241,0.785c0.048,0.027,0.098,0.048,0.145,0.079c0.049,0.034,0.092,0.077,0.144,0.116  c0.196-0.188,0.4-0.37,0.632-0.526c1.217-0.819,2.657-1.025,3.983-0.714c-0.296-1.203-1.015-2.304-2.134-3.034  c-1.078-0.706-2.32-0.927-3.498-0.756C57.415,34.697,57.821,36.148,57.53,37.634z M61.154,32.666  c1.166,0.762,2.73,0.436,3.495-0.729c0.761-1.166,0.436-2.731-0.73-3.494c-1.165-0.763-2.73-0.436-3.49,0.73  C59.664,30.339,59.99,31.901,61.154,32.666z M57.412,11.876c0.855,0.167,1.684-0.392,1.853-1.245  c0.167-0.854-0.39-1.683-1.245-1.852c-0.854-0.167-1.682,0.39-1.85,1.244C56.002,10.877,56.56,11.708,57.412,11.876z M58.35,61.268  c-0.233-0.151-0.436-0.333-0.638-0.512c-0.044,0.032-0.079,0.074-0.127,0.106c-0.049,0.033-0.106,0.055-0.158,0.087  c0.099,0.25,0.189,0.508,0.247,0.78c0.311,1.483-0.075,2.939-0.92,4.065c1.184,0.157,2.423-0.08,3.491-0.797  c1.109-0.745,1.818-1.855,2.1-3.061C61.021,62.261,59.576,62.072,58.35,61.268z M58.335,7.167c0.686,0.134,1.35-0.311,1.483-0.995  c0.135-0.684-0.312-1.346-0.996-1.48c-0.683-0.134-1.346,0.311-1.479,0.995C57.208,6.37,57.654,7.033,58.335,7.167z M56.365,17.203  c1.026,0.201,2.022-0.467,2.223-1.493c0.201-1.023-0.467-2.02-1.493-2.22c-1.025-0.202-2.021,0.467-2.221,1.491  C54.672,16.007,55.34,17.002,56.365,17.203z M55.199,23.148c1.199,0.235,2.357-0.545,2.593-1.742  c0.234-1.196-0.544-2.356-1.743-2.591c-1.193-0.234-2.353,0.545-2.588,1.74C53.226,21.753,54.004,22.913,55.199,23.148z   M39.913,65.121c1.076,0.704,2.318,0.926,3.501,0.755c-0.858-1.117-1.267-2.567-0.974-4.056c0.054-0.271,0.142-0.525,0.237-0.778  c-0.063-0.038-0.125-0.067-0.188-0.11c-0.039-0.023-0.069-0.054-0.102-0.081c-0.197,0.184-0.398,0.365-0.629,0.518  c-1.215,0.818-2.656,1.026-3.98,0.717C38.075,63.288,38.795,64.389,39.913,65.121z M69.948,45.56  c0.287,1.364,1.624,2.238,2.984,1.954c1.365-0.284,2.241-1.62,1.957-2.984c-0.285-1.364-1.622-2.239-2.985-1.954  C70.541,42.86,69.663,44.198,69.948,45.56z M57.528,85.878c1.023-0.214,1.679-1.216,1.465-2.238  c-0.213-1.025-1.213-1.682-2.237-1.466c-1.022,0.211-1.68,1.215-1.464,2.238C55.504,85.434,56.507,86.091,57.528,85.878z   M56.419,80.564c1.195-0.25,1.96-1.419,1.71-2.612c-0.249-1.193-1.416-1.959-2.608-1.711c-1.195,0.25-1.96,1.419-1.711,2.613  C54.057,80.046,55.228,80.813,56.419,80.564z M68.154,72.811c-0.682-1.011-2.051-1.281-3.062-0.602  c-1.014,0.681-1.283,2.054-0.604,3.064c0.682,1.013,2.052,1.282,3.063,0.602C68.566,75.196,68.834,73.824,68.154,72.811z   M58.512,90.575c0.853-0.177,1.397-1.014,1.218-1.866c-0.178-0.853-1.012-1.4-1.863-1.222c-0.853,0.178-1.401,1.015-1.224,1.866  C56.82,90.205,57.657,90.753,58.512,90.575z M53.512,67.734c1.262-0.264,2.412-0.985,3.128-1.941  c-1.395-0.185-2.649-0.922-3.498-2.18c-0.152-0.232-0.24-0.476-0.354-0.718c-0.054,0.011-0.09,0.035-0.147,0.045  c-0.057,0.013-0.111,0.011-0.169,0.02c-0.009,0.271-0.021,0.529-0.076,0.801C52.124,65.16,51.288,66,50.182,67h-0.184  c-1.116-1-1.969-1.817-2.258-3.213c-0.057-0.27-0.073-0.534-0.09-0.801c-0.071-0.011-0.141-0.011-0.212-0.024  c-0.046-0.007-0.084-0.024-0.127-0.036c-0.109,0.247-0.226,0.492-0.373,0.726c-0.833,1.267-2.135,2.021-3.524,2.223  c0.725,0.947,1.943,1.656,3.207,1.902c1.134,0.224,2.367,0.023,3.379-0.455v-0.046C51.012,67.772,52.352,67.977,53.512,67.734z   M64.861,67.344c-0.778-1.159-2.344-1.465-3.504-0.688c-1.155,0.778-1.462,2.346-0.687,3.501c0.779,1.158,2.346,1.464,3.504,0.688  C65.329,70.069,65.637,68.499,64.861,67.344z M58.845,92.185c-0.683,0.142-1.119,0.81-0.977,1.492  c0.143,0.683,0.811,1.119,1.492,0.978c0.681-0.143,1.119-0.81,0.978-1.493C60.195,92.479,59.525,92.042,58.845,92.185z   M55.183,74.629c1.363-0.283,2.236-1.619,1.954-2.983c-0.284-1.363-1.621-2.24-2.986-1.953c-1.362,0.283-2.238,1.621-1.951,2.985  C52.48,74.04,53.819,74.916,55.183,74.629z M41.632,92.289c-0.684-0.134-1.348,0.311-1.48,0.993  c-0.136,0.685,0.312,1.348,0.995,1.482c0.683,0.134,1.346-0.311,1.479-0.996C42.761,93.085,42.314,92.422,41.632,92.289z   M38.814,66.792c-1.163-0.764-2.73-0.436-3.493,0.729c-0.763,1.166-0.438,2.73,0.729,3.492c1.165,0.763,2.731,0.437,3.493-0.729  S39.98,67.556,38.814,66.792z M46.057,69.74c-1.365-0.268-2.693,0.623-2.961,1.99c-0.269,1.367,0.624,2.693,1.99,2.961  c1.367,0.268,2.692-0.623,2.961-1.99C48.315,71.336,47.425,70.009,46.057,69.74z M42.557,87.58  c-0.855-0.167-1.684,0.389-1.853,1.243c-0.166,0.854,0.391,1.685,1.244,1.853c0.855,0.167,1.684-0.391,1.851-1.245  C43.968,88.577,43.41,87.747,42.557,87.58z M43.602,82.25c-1.024-0.2-2.021,0.47-2.221,1.495c-0.201,1.023,0.467,2.019,1.491,2.22  c1.027,0.201,2.021-0.467,2.223-1.491C45.297,83.449,44.629,82.453,43.602,82.25z M44.769,76.306  c-1.195-0.234-2.356,0.547-2.591,1.742c-0.234,1.196,0.546,2.355,1.741,2.591c1.196,0.233,2.354-0.545,2.589-1.742  C46.743,77.702,45.966,76.541,44.769,76.306z M35.149,72.39c-1.02-0.667-2.388-0.381-3.055,0.638  c-0.668,1.02-0.384,2.387,0.638,3.057c1.02,0.667,2.387,0.38,3.054-0.641C36.451,74.426,36.169,73.058,35.149,72.39z M43.55,18.891  c-1.195,0.25-1.96,1.42-1.71,2.612c0.249,1.193,1.417,1.959,2.611,1.709c1.192-0.248,1.96-1.419,1.71-2.612  C45.912,19.409,44.742,18.641,43.55,18.891z M71.097,77.756c-0.584-0.868-1.76-1.1-2.626-0.515c-0.867,0.582-1.1,1.758-0.516,2.626  c0.582,0.865,1.757,1.096,2.627,0.514C71.446,79.799,71.678,78.621,71.097,77.756z M84.729,54.619  c-1.024-0.201-2.019,0.465-2.221,1.491c-0.2,1.025,0.469,2.02,1.491,2.221c1.027,0.201,2.021-0.466,2.224-1.493  C86.425,55.813,85.755,54.821,84.729,54.619z M88.02,73.121c-0.582-0.381-1.366-0.218-1.748,0.362  c-0.383,0.586-0.217,1.368,0.365,1.748c0.582,0.38,1.364,0.22,1.747-0.364C88.764,74.284,88.6,73.502,88.02,73.121z M94.026,57.086  c-0.685-0.135-1.349,0.31-1.482,0.995c-0.134,0.684,0.312,1.345,0.997,1.479c0.684,0.134,1.345-0.31,1.48-0.993  C95.153,57.881,94.71,57.219,94.026,57.086z M93.935,41.843c0.682-0.141,1.118-0.81,0.977-1.491  c-0.141-0.684-0.809-1.118-1.491-0.978c-0.684,0.142-1.12,0.811-0.978,1.495C92.584,41.55,93.252,41.987,93.935,41.843z   M89.689,55.913c-0.856-0.168-1.686,0.388-1.852,1.242c-0.169,0.855,0.389,1.683,1.244,1.852c0.854,0.167,1.682-0.389,1.85-1.244  C91.098,56.908,90.543,56.081,89.689,55.913z M84.191,28.646c0.721-0.486,0.916-1.466,0.43-2.188  c-0.486-0.724-1.466-0.915-2.189-0.428c-0.723,0.483-0.915,1.465-0.429,2.187C82.488,28.939,83.469,29.13,84.191,28.646z   M73.686,82.176c-0.485-0.723-1.463-0.917-2.188-0.43c-0.723,0.485-0.915,1.466-0.43,2.188c0.486,0.722,1.465,0.916,2.188,0.428  C73.978,83.878,74.17,82.897,73.686,82.176z M75.701,63.925c-1.018-0.667-2.389-0.383-3.055,0.637  c-0.668,1.02-0.381,2.389,0.637,3.056c1.022,0.67,2.39,0.384,3.058-0.638C77.007,65.961,76.723,64.592,75.701,63.925z   M74.172,85.729c-0.577,0.389-0.731,1.174-0.342,1.752c0.387,0.576,1.171,0.73,1.75,0.343c0.577-0.389,0.731-1.173,0.345-1.75  C75.535,85.493,74.752,85.34,74.172,85.729z M80.895,55.793c0.235-1.195-0.544-2.355-1.739-2.589  c-1.196-0.235-2.356,0.544-2.592,1.739c-0.235,1.197,0.546,2.357,1.742,2.592C79.501,57.77,80.659,56.99,80.895,55.793z   M80.337,67.337c-0.876-0.574-2.052-0.329-2.621,0.545c-0.573,0.873-0.327,2.047,0.545,2.622c0.875,0.571,2.05,0.325,2.621-0.548  C81.455,69.082,81.208,67.907,80.337,67.337z M84.439,70.401c-0.729-0.477-1.704-0.274-2.182,0.454  c-0.478,0.729-0.271,1.706,0.458,2.184c0.727,0.477,1.704,0.273,2.183-0.455C85.373,71.856,85.169,70.878,84.439,70.401z   M24.268,35.529c1.019,0.667,2.389,0.383,3.056-0.636c0.667-1.021,0.38-2.389-0.637-3.056c-1.021-0.667-2.391-0.383-3.058,0.637  C22.96,33.494,23.247,34.862,24.268,35.529z M25.797,13.727c0.577-0.388,0.731-1.172,0.343-1.75  c-0.388-0.578-1.172-0.733-1.751-0.343c-0.579,0.387-0.731,1.171-0.341,1.75C24.436,13.961,25.217,14.115,25.797,13.727z   M19.074,43.663c-0.235,1.195,0.546,2.355,1.738,2.589c1.199,0.235,2.357-0.544,2.593-1.739c0.235-1.197-0.543-2.355-1.743-2.591  C20.469,41.687,19.31,42.465,19.074,43.663z M15.239,44.838c1.026,0.201,2.019-0.468,2.22-1.493c0.2-1.027-0.465-2.021-1.491-2.222  c-1.025-0.201-2.021,0.467-2.222,1.494C13.544,43.641,14.214,44.636,15.239,44.838z M15.529,29.057  c0.729,0.475,1.706,0.271,2.183-0.456c0.477-0.73,0.273-1.706-0.456-2.185c-0.728-0.476-1.704-0.272-2.183,0.454  C14.597,27.601,14.801,28.578,15.529,29.057z M26.285,17.28c0.484,0.722,1.464,0.915,2.186,0.43c0.722-0.486,0.914-1.466,0.43-2.189  c-0.484-0.722-1.465-0.916-2.188-0.428C25.991,15.578,25.799,16.559,26.285,17.28z M42.44,13.576  c-1.023,0.214-1.679,1.217-1.466,2.239c0.214,1.024,1.214,1.679,2.238,1.465c1.022-0.212,1.681-1.214,1.467-2.239  C44.466,14.021,43.464,13.362,42.44,13.576z M28.872,21.701c0.584,0.867,1.762,1.098,2.626,0.516c0.869-0.583,1.1-1.759,0.516-2.626  c-0.579-0.867-1.757-1.098-2.627-0.515C28.523,19.659,28.291,20.834,28.872,21.701z M11.951,26.335  c0.583,0.382,1.365,0.219,1.747-0.363c0.38-0.583,0.218-1.366-0.364-1.749c-0.583-0.381-1.365-0.218-1.748,0.366  C11.206,25.172,11.369,25.954,11.951,26.335z M41.124,7.27c0.683-0.142,1.12-0.81,0.977-1.493c-0.143-0.682-0.812-1.12-1.492-0.977  s-1.119,0.811-0.978,1.492C39.773,6.974,40.443,7.412,41.124,7.27z M41.457,8.879c-0.851,0.178-1.396,1.014-1.218,1.865  c0.178,0.853,1.013,1.4,1.866,1.223c0.85-0.179,1.396-1.016,1.221-1.868C43.148,9.249,42.312,8.701,41.457,8.879z M31.831,77.46  c-0.876-0.572-2.047-0.328-2.621,0.546c-0.571,0.874-0.326,2.047,0.547,2.619c0.874,0.572,2.049,0.328,2.62-0.545  C32.949,79.206,32.704,78.034,31.831,77.46z M31.814,26.645c0.682,1.01,2.053,1.281,3.062,0.601c1.014-0.68,1.283-2.051,0.603-3.063  c-0.68-1.011-2.051-1.281-3.062-0.601C31.402,24.259,31.135,25.632,31.814,26.645z M35.108,32.113  c0.777,1.156,2.343,1.464,3.502,0.688c1.157-0.777,1.462-2.348,0.686-3.502c-0.776-1.155-2.344-1.464-3.501-0.688  C34.64,29.389,34.334,30.957,35.108,32.113z M19.635,32.118c0.874,0.572,2.045,0.329,2.619-0.544  c0.573-0.875,0.328-2.048-0.546-2.62c-0.875-0.572-2.047-0.327-2.62,0.546C18.514,30.375,18.761,31.547,19.635,32.118z   M23.47,55.262c-0.249-1.196-1.418-1.959-2.612-1.709c-1.192,0.248-1.959,1.417-1.709,2.611c0.249,1.192,1.42,1.959,2.612,1.709  C22.954,57.625,23.719,56.453,23.47,55.262z M19.846,67.699c-0.867,0.582-1.098,1.759-0.515,2.625  c0.584,0.868,1.759,1.099,2.626,0.516c0.867-0.582,1.098-1.758,0.515-2.625C21.891,67.347,20.715,67.116,19.846,67.699z   M26.9,67.897c1.013-0.679,1.283-2.05,0.602-3.062c-0.68-1.014-2.052-1.28-3.062-0.602c-1.012,0.68-1.283,2.052-0.603,3.065  C24.518,68.31,25.889,68.577,26.9,67.897z M26.229,86.016c-0.585-0.381-1.366-0.218-1.745,0.365  c-0.384,0.583-0.221,1.366,0.361,1.746c0.584,0.383,1.365,0.218,1.748-0.364C26.972,87.181,26.811,86.396,26.229,86.016z   M28.855,82.002c-0.727-0.477-1.707-0.274-2.18,0.455c-0.48,0.728-0.276,1.705,0.453,2.182c0.729,0.476,1.707,0.272,2.182-0.455  C29.79,83.457,29.585,82.478,28.855,82.002z M5.944,42.37c0.684,0.134,1.347-0.311,1.48-0.994c0.134-0.682-0.311-1.345-0.995-1.479  c-0.685-0.136-1.348,0.31-1.482,0.994C4.814,41.572,5.259,42.235,5.944,42.37z M10.282,43.542c0.854,0.167,1.684-0.388,1.851-1.242  c0.168-0.854-0.389-1.685-1.244-1.852c-0.854-0.167-1.683,0.389-1.851,1.244C8.87,42.546,9.427,43.375,10.282,43.542z   M12.224,57.609c-0.177-0.854-1.014-1.4-1.867-1.222c-0.851,0.178-1.398,1.013-1.221,1.868c0.179,0.849,1.015,1.397,1.867,1.219  C11.855,59.294,12.402,58.461,12.224,57.609z M6.036,57.611c-0.682,0.143-1.122,0.812-0.978,1.493  C5.2,59.786,5.87,60.22,6.55,60.081c0.682-0.143,1.121-0.811,0.978-1.491C7.385,57.905,6.716,57.469,6.036,57.611z M15.778,70.812  c-0.723,0.484-0.916,1.465-0.43,2.187c0.486,0.724,1.466,0.914,2.189,0.43c0.722-0.483,0.914-1.466,0.43-2.188  C17.481,70.519,16.501,70.327,15.778,70.812z M12.234,73.576c-0.579,0.387-0.733,1.171-0.344,1.75  c0.389,0.577,1.171,0.731,1.75,0.343c0.578-0.388,0.731-1.173,0.344-1.75C13.595,73.339,12.812,73.185,12.234,73.576z   M16.072,58.739c1.022-0.215,1.682-1.217,1.465-2.239c-0.213-1.023-1.215-1.68-2.238-1.466c-1.021,0.214-1.68,1.215-1.465,2.24  C14.048,58.296,15.05,58.951,16.072,58.739z"></path></svg>