<svg fill="#00DCFF" xmlns:dc="http://purl.org/dc/elements/1.1/" xmlns:cc="http://creativecommons.org/ns#" xmlns:rdf="http://www.w3.org/1999/02/22-rdf-syntax-ns#" xmlns:svg="http://www.w3.org/2000/svg" xmlns="http://www.w3.org/2000/svg" xmlns:sodipodi="http://sodipodi.sourceforge.net/DTD/sodipodi-0.dtd" xmlns:inkscape="http://www.inkscape.org/namespaces/inkscape" version="1.1" x="0px" y="0px" viewBox="0 0 95 94.852081"><g transform="translate(-210.56352,-502.8691)"><path style="" d="m 498.62228,442.86374 a 142.2804,154.45755 0 1 1 -284.56079,0 142.2804,154.45755 0 1 1 284.56079,0 z" transform="matrix(0.12674654,0,0,0.11675407,211.66933,500.11805)" fill="#00DCFF" fill-opacity="1" stroke="none"></path><path style="" d="m 498.62228,442.86374 a 142.2804,154.45755 0 1 1 -284.56079,0 142.2804,154.45755 0 1 1 284.56079,0 z" transform="matrix(0.03934982,0,0,0.03624755,226.31955,536.09767)" fill="#00DCFF" fill-opacity="1" stroke="none"></path><path style="" d="m 498.62228,442.86374 a 142.2804,154.45755 0 1 1 -284.56079,0 142.2804,154.45755 0 1 1 284.56079,0 z" transform="matrix(0.03934982,0,0,0.03624755,259.9184,536.42387)" fill="#00DCFF" fill-opacity="1" stroke="none"></path><path style="" d="m 498.62228,442.86374 a 142.2804,154.45755 0 1 1 -284.56079,0 142.2804,154.45755 0 1 1 284.56079,0 z" transform="matrix(0.03934982,0,0,0.03624755,242.81244,519.13514)" fill="#00DCFF" fill-opacity="1" stroke="none"></path><path style="" d="m 498.62228,442.86374 a 142.2804,154.45755 0 1 1 -284.56079,0 142.2804,154.45755 0 1 1 284.56079,0 z" transform="matrix(0.03934982,0,0,0.03624755,242.81244,552.40779)" fill="#00DCFF" fill-opacity="1" stroke="none"></path><path style="" d="m 498.62228,442.86374 a 142.2804,154.45755 0 1 1 -284.56079,0 142.2804,154.45755 0 1 1 284.56079,0 z" transform="matrix(0,-0.03934982,0.03624755,0,228.95061,577.95583)" fill="#00DCFF" fill-opacity="1" stroke="none"></path><path style="" d="m 498.62228,442.86374 a 142.2804,154.45755 0 1 1 -284.56079,0 142.2804,154.45755 0 1 1 284.56079,0 z" transform="matrix(0,-0.03934982,0.03624755,0,252.93924,554.42851)" fill="#00DCFF" fill-opacity="1" stroke="none"></path><path style="" d="m 498.62228,442.86374 a 142.2804,154.45755 0 1 1 -284.56079,0 142.2804,154.45755 0 1 1 284.56079,0 z" transform="matrix(0,-0.03934982,0.03624755,0,228.02797,554.88983)" fill="#00DCFF" fill-opacity="1" stroke="none"></path><path style="" d="m 498.62228,442.86374 a 142.2804,154.45755 0 1 1 -284.56079,0 142.2804,154.45755 0 1 1 284.56079,0 z" transform="matrix(0,-0.03934982,0.03624755,0,252.0166,577.95582)" fill="#00DCFF" fill-opacity="1" stroke="none"></path><path style="" d="m 498.62228,442.86374 a 142.2804,154.45755 0 1 1 -284.56079,0 142.2804,154.45755 0 1 1 284.56079,0 z" transform="matrix(0.0216424,0,0,0.01993615,249.12234,516.75557)" fill="#00DCFF" fill-opacity="1" stroke="none"></path><path style="" d="m 498.62228,442.86374 a 142.2804,154.45755 0 1 1 -284.56079,0 142.2804,154.45755 0 1 1 284.56079,0 z" transform="matrix(0.0216424,0,0,0.01993615,249.12234,569.41759)" fill="#00DCFF" fill-opacity="1" stroke="none"></path><path style="" d="m 498.62228,442.86374 a 142.2804,154.45755 0 1 1 -284.56079,0 142.2804,154.45755 0 1 1 284.56079,0 z" transform="matrix(0.01999497,-0.00828219,0.00762923,0.0184186,236.39767,521.96567)" fill="#00DCFF" fill-opacity="1" stroke="none"></path><path style="" d="m 498.62228,442.86374 a 142.2804,154.45755 0 1 1 -284.56079,0 142.2804,154.45755 0 1 1 284.56079,0 z" transform="matrix(0.01999497,-0.00828219,0.00762923,0.0184186,256.55055,570.61903)" fill="#00DCFF" fill-opacity="1" stroke="none"></path><path style="" d="m 498.62228,442.86374 a 142.2804,154.45755 0 1 1 -284.56079,0 142.2804,154.45755 0 1 1 284.56079,0 z" transform="matrix(0.01530349,-0.01530349,0.01409699,0.01409699,226.33651,532.08938)" fill="#00DCFF" fill-opacity="1" stroke="none"></path><path style="" d="m 498.62228,442.86374 a 142.2804,154.45755 0 1 1 -284.56079,0 142.2804,154.45755 0 1 1 284.56079,0 z" transform="matrix(0.01530349,-0.01530349,0.01409699,0.01409699,263.57418,569.32705)" fill="#00DCFF" fill-opacity="1" stroke="none"></path><path style="" d="m 498.62228,442.86374 a 142.2804,154.45755 0 1 1 -284.56079,0 142.2804,154.45755 0 1 1 284.56079,0 z" transform="matrix(0.00828219,-0.01999497,0.0184186,0.00762923,221.21676,545.16788)" fill="#00DCFF" fill-opacity="1" stroke="none"></path><path style="" d="m 498.62228,442.86374 a 142.2804,154.45755 0 1 1 -284.56079,0 142.2804,154.45755 0 1 1 284.56079,0 z" transform="matrix(0.00828219,-0.01999497,0.0184186,0.00762923,269.87012,565.32076)" fill="#00DCFF" fill-opacity="1" stroke="none"></path><path style="" d="m 498.62228,442.86374 a 142.2804,154.45755 0 1 1 -284.56079,0 142.2804,154.45755 0 1 1 284.56079,0 z" transform="matrix(0,-0.0216424,0.01993615,0,221.81786,559.21008)" fill="#00DCFF" fill-opacity="1" stroke="none"></path><path style="" d="m 498.62228,442.86374 a 142.2804,154.45755 0 1 1 -284.56079,0 142.2804,154.45755 0 1 1 284.56079,0 z" transform="matrix(0,-0.0216424,0.01993615,0,274.47988,559.21008)" fill="#00DCFF" fill-opacity="1" stroke="none"></path><path style="" d="m 498.62228,442.86374 a 142.2804,154.45755 0 1 1 -284.56079,0 142.2804,154.45755 0 1 1 284.56079,0 z" transform="matrix(-0.00828219,-0.01999497,0.0184186,-0.00762923,227.11934,572.07818)" fill="#00DCFF" fill-opacity="1" stroke="none"></path><path style="" d="m 498.62228,442.86374 a 142.2804,154.45755 0 1 1 -284.56079,0 142.2804,154.45755 0 1 1 284.56079,0 z" transform="matrix(-0.00828219,-0.01999497,0.0184186,-0.00762923,275.7727,551.92529)" fill="#00DCFF" fill-opacity="1" stroke="none"></path><path style="" d="m 498.62228,442.86374 a 142.2804,154.45755 0 1 1 -284.56079,0 142.2804,154.45755 0 1 1 284.56079,0 z" transform="matrix(-0.01530349,-0.01530349,0.01409699,-0.01409699,237.56926,581.81317)" fill="#00DCFF" fill-opacity="1" stroke="none"></path><path style="" d="m 498.62228,442.86374 a 142.2804,154.45755 0 1 1 -284.56079,0 142.2804,154.45755 0 1 1 284.56079,0 z" transform="matrix(-0.01530349,-0.01530349,0.01409699,-0.01409699,274.80693,544.5755)" fill="#00DCFF" fill-opacity="1" stroke="none"></path><path style="" d="m 498.62228,442.86374 a 142.2804,154.45755 0 1 1 -284.56079,0 142.2804,154.45755 0 1 1 284.56079,0 z" transform="matrix(-0.01999497,-0.00828219,0.00762923,-0.0184186,250.32155,586.93289)" fill="#00DCFF" fill-opacity="1" stroke="none"></path><path style="" d="m 498.62228,442.86374 a 142.2804,154.45755 0 1 1 -284.56079,0 142.2804,154.45755 0 1 1 284.56079,0 z" transform="matrix(-0.01999497,-0.00828219,0.00762923,-0.0184186,270.47443,538.27953)" fill="#00DCFF" fill-opacity="1" stroke="none"></path><path style="" d="m 498.62228,442.86374 a 142.2804,154.45755 0 1 1 -284.56079,0 142.2804,154.45755 0 1 1 284.56079,0 z" transform="matrix(0.01290478,0.00268241,-0.00247094,0.01188739,260.76737,512.40785)" fill="#00DCFF" fill-opacity="1" stroke="none"></path><path style="" d="m 498.62228,442.86374 a 142.2804,154.45755 0 1 1 -284.56079,0 142.2804,154.45755 0 1 1 284.56079,0 z" transform="matrix(0.01290478,0.00268241,-0.00247094,0.01188739,247.12092,578.05941)" fill="#00DCFF" fill-opacity="1" stroke="none"></path><path style="" d="m 498.62228,442.86374 a 142.2804,154.45755 0 1 1 -284.56079,0 142.2804,154.45755 0 1 1 284.56079,0 z" transform="matrix(0.01294897,-0.00246022,0.00226626,0.0119281,245.85944,513.62651)" fill="#00DCFF" fill-opacity="1" stroke="none"></path><path style="" d="m 498.62228,442.86374 a 142.2804,154.45755 0 1 1 -284.56079,0 142.2804,154.45755 0 1 1 284.56079,0 z" transform="matrix(0.01294897,-0.00246022,0.00226626,0.0119281,258.37552,579.50292)" fill="#00DCFF" fill-opacity="1" stroke="none"></path><path style="" d="m 498.62228,442.86374 a 142.2804,154.45755 0 1 1 -284.56079,0 142.2804,154.45755 0 1 1 284.56079,0 z" transform="matrix(0.01102181,-0.00722831,0.00665844,0.01015287,232.06584,520.92936)" fill="#00DCFF" fill-opacity="1" stroke="none"></path><path style="" d="m 498.62228,442.86374 a 142.2804,154.45755 0 1 1 -284.56079,0 142.2804,154.45755 0 1 1 284.56079,0 z" transform="matrix(0.01102181,-0.00722831,0.00665844,0.01015287,268.839,577.00152)" fill="#00DCFF" fill-opacity="1" stroke="none"></path><path style="" d="m 498.62228,442.86374 a 142.2804,154.45755 0 1 1 -284.56079,0 142.2804,154.45755 0 1 1 284.56079,0 z" transform="matrix(0.00741667,-0.01089595,0.01003693,0.00683195,222.52494,532.87736)" fill="#00DCFF" fill-opacity="1" stroke="none"></path><path style="" d="m 498.62228,442.86374 a 142.2804,154.45755 0 1 1 -284.56079,0 142.2804,154.45755 0 1 1 284.56079,0 z" transform="matrix(0.00741667,-0.01089595,0.01003693,0.00683195,277.9568,570.60881)" fill="#00DCFF" fill-opacity="1" stroke="none"></path><path style="" d="m 498.62228,442.86374 a 142.2804,154.45755 0 1 1 -284.56079,0 142.2804,154.45755 0 1 1 284.56079,0 z" transform="matrix(0.00268241,-0.01290478,0.01188739,0.00247094,218.68926,547.65156)" fill="#00DCFF" fill-opacity="1" stroke="none"></path><path style="" d="m 498.62228,442.86374 a 142.2804,154.45755 0 1 1 -284.56079,0 142.2804,154.45755 0 1 1 284.56079,0 z" transform="matrix(0.00268241,-0.01290478,0.01188739,0.00247094,284.34082,561.29801)" fill="#00DCFF" fill-opacity="1" stroke="none"></path><path style="" d="m 498.62228,442.86374 a 142.2804,154.45755 0 1 1 -284.56079,0 142.2804,154.45755 0 1 1 284.56079,0 z" transform="matrix(-0.00246022,-0.01294898,0.0119281,-0.00226626,219.98469,562.76197)" fill="#00DCFF" fill-opacity="1" stroke="none"></path><path style="" d="m 498.62228,442.86374 a 142.2804,154.45755 0 1 1 -284.56079,0 142.2804,154.45755 0 1 1 284.56079,0 z" transform="matrix(-0.00246022,-0.01294898,0.0119281,-0.00226626,285.86109,550.24588)" fill="#00DCFF" fill-opacity="1" stroke="none"></path><path style="" d="m 498.62228,442.86374 a 142.2804,154.45755 0 1 1 -284.56079,0 142.2804,154.45755 0 1 1 284.56079,0 z" transform="matrix(-0.00722831,-0.01102181,0.01015287,-0.00665844,227.77871,576.23349)" fill="#00DCFF" fill-opacity="1" stroke="none"></path><path style="" d="m 498.62228,442.86374 a 142.2804,154.45755 0 1 1 -284.56079,0 142.2804,154.45755 0 1 1 284.56079,0 z" transform="matrix(-0.00722831,-0.01102181,0.01015287,-0.00665844,283.85088,539.46032)" fill="#00DCFF" fill-opacity="1" stroke="none"></path><path style="" d="m 498.62228,442.86374 a 142.2804,154.45755 0 1 1 -284.56079,0 142.2804,154.45755 0 1 1 284.56079,0 z" transform="matrix(-0.01089595,-0.00741667,0.00683195,-0.01003692,239.32006,585.68982)" fill="#00DCFF" fill-opacity="1" stroke="none"></path><path style="" d="m 498.62228,442.86374 a 142.2804,154.45755 0 1 1 -284.56079,0 142.2804,154.45755 0 1 1 284.56079,0 z" transform="matrix(-0.01089595,-0.00741667,0.00683195,-0.01003692,277.05151,530.25796)" fill="#00DCFF" fill-opacity="1" stroke="none"></path><path style="" d="m 498.62228,442.86374 a 142.2804,154.45755 0 1 1 -284.56079,0 142.2804,154.45755 0 1 1 284.56079,0 z" transform="matrix(0.00871818,0.00400101,-0.00368558,0.00803086,273.04039,508.84397)" fill="#00DCFF" fill-opacity="1" stroke="none"></path><path style="" d="m 498.62228,442.86374 a 142.2804,154.45755 0 1 1 -284.56079,0 142.2804,154.45755 0 1 1 284.56079,0 z" transform="matrix(0.00871818,0.00400101,-0.00368558,0.00803086,239.04431,582.92115)" fill="#00DCFF" fill-opacity="1" stroke="none"></path><path style="" d="m 498.62228,442.86374 a 142.2804,154.45755 0 1 1 -284.56079,0 142.2804,154.45755 0 1 1 284.56079,0 z" transform="matrix(0.00958568,3.6015465e-4,-3.3175903e-4,0.00882995,256.24936,505.60719)" fill="#00DCFF" fill-opacity="1" stroke="none"></path><path style="" d="m 498.62228,442.86374 a 142.2804,154.45755 0 1 1 -284.56079,0 142.2804,154.45755 0 1 1 284.56079,0 z" transform="matrix(0.00958568,3.6015465e-4,-3.3175903e-4,0.00882995,253.18918,587.05532)" fill="#00DCFF" fill-opacity="1" stroke="none"></path><path style="" d="m 498.62228,442.86374 a 142.2804,154.45755 0 1 1 -284.56079,0 142.2804,154.45755 0 1 1 284.56079,0 z" transform="matrix(0.00899383,-0.00333554,0.00307257,0.00828477,238.79286,509.46938)" fill="#00DCFF" fill-opacity="1" stroke="none"></path><path style="" d="m 498.62228,442.86374 a 142.2804,154.45755 0 1 1 -284.56079,0 142.2804,154.45755 0 1 1 284.56079,0 z" transform="matrix(0.00899383,-0.00333554,0.00307257,0.00828477,267.13447,585.88871)" fill="#00DCFF" fill-opacity="1" stroke="none"></path><path style="" d="m 498.62228,442.86374 a 142.2804,154.45755 0 1 1 -284.56079,0 142.2804,154.45755 0 1 1 284.56079,0 z" transform="matrix(0.00703276,-0.00652343,0.00600913,0.00647831,224.64766,519.73684)" fill="#00DCFF" fill-opacity="1" stroke="none"></path><path style="" d="m 498.62228,442.86374 a 142.2804,154.45755 0 1 1 -284.56079,0 142.2804,154.45755 0 1 1 284.56079,0 z" transform="matrix(0.00703276,-0.00652343,0.00600913,0.00647831,280.0763,579.49324)" fill="#00DCFF" fill-opacity="1" stroke="none"></path><path style="" d="m 498.62228,442.86374 a 142.2804,154.45755 0 1 1 -284.56079,0 142.2804,154.45755 0 1 1 284.56079,0 z" transform="matrix(0.00400101,-0.00871818,0.00803085,0.00368558,215.96723,534.84646)" fill="#00DCFF" fill-opacity="1" stroke="none"></path><path style="" d="m 498.62228,442.86374 a 142.2804,154.45755 0 1 1 -284.56079,0 142.2804,154.45755 0 1 1 284.56079,0 z" transform="matrix(0.00400101,-0.00871818,0.00803085,0.00368558,290.0444,568.84255)" fill="#00DCFF" fill-opacity="1" stroke="none"></path><path style="" d="m 498.62228,442.86374 a 142.2804,154.45755 0 1 1 -284.56079,0 142.2804,154.45755 0 1 1 284.56079,0 z" transform="matrix(3.6015465e-4,-0.00958568,0.00882996,3.3176157e-4,212.76641,551.89823)" fill="#00DCFF" fill-opacity="1" stroke="none"></path><path style="" d="m 498.62228,442.86374 a 142.2804,154.45755 0 1 1 -284.56079,0 142.2804,154.45755 0 1 1 284.56079,0 z" transform="matrix(3.6015465e-4,-0.00958568,0.00882996,3.3176157e-4,294.21453,554.9584)" fill="#00DCFF" fill-opacity="1" stroke="none"></path><path style="" d="m 498.62228,442.86374 a 142.2804,154.45755 0 1 1 -284.56079,0 142.2804,154.45755 0 1 1 284.56079,0 z" transform="matrix(-0.00333554,-0.00899383,0.00828477,-0.00307257,217.29801,569.10651)" fill="#00DCFF" fill-opacity="1" stroke="none"></path><path style="" d="m 498.62228,442.86374 a 142.2804,154.45755 0 1 1 -284.56079,0 142.2804,154.45755 0 1 1 284.56079,0 z" transform="matrix(-0.00333554,-0.00899383,0.00828477,-0.00307257,293.71734,540.76489)" fill="#00DCFF" fill-opacity="1" stroke="none"></path><path style="" d="m 498.62228,442.86374 a 142.2804,154.45755 0 1 1 -284.56079,0 142.2804,154.45755 0 1 1 284.56079,0 z" transform="matrix(-0.00652343,-0.00703276,0.00647831,-0.00600913,227.10664,583.04109)" fill="#00DCFF" fill-opacity="1" stroke="none"></path><path style="" d="m 498.62228,442.86374 a 142.2804,154.45755 0 1 1 -284.56079,0 142.2804,154.45755 0 1 1 284.56079,0 z" transform="matrix(-0.00652343,-0.00703276,0.00647831,-0.00600913,286.86302,527.61245)" fill="#00DCFF" fill-opacity="1" stroke="none"></path><path style="" d="m 498.62228,442.86374 a 142.2804,154.45755 0 1 1 -284.56079,0 142.2804,154.45755 0 1 1 284.56079,0 z" transform="matrix(0.00575472,0.00398284,-0.00366884,0.00530104,283.9382,508.5221)" fill="#00DCFF" fill-opacity="1" stroke="none"></path><path style="" d="m 498.62228,442.86374 a 142.2804,154.45755 0 1 1 -284.56079,0 142.2804,154.45755 0 1 1 284.56079,0 z" transform="matrix(0.00575472,0.00398284,-0.00366884,0.00530104,230.24253,586.10591)" fill="#00DCFF" fill-opacity="1" stroke="none"></path><path style="" d="m 498.62228,442.86374 a 142.2804,154.45755 0 1 1 -284.56079,0 142.2804,154.45755 0 1 1 284.56079,0 z" transform="matrix(0.00684085,0.00147743,-0.00136095,0.00630153,266.2775,501.18148)" fill="#00DCFF" fill-opacity="1" stroke="none"></path><path style="" d="m 498.62228,442.86374 a 142.2804,154.45755 0 1 1 -284.56079,0 142.2804,154.45755 0 1 1 284.56079,0 z" transform="matrix(0.00684085,0.00147743,-0.00136095,0.00630153,246.3592,593.40802)" fill="#00DCFF" fill-opacity="1" stroke="none"></path><path style="" d="m 498.62228,442.86374 a 142.2804,154.45755 0 1 1 -284.56079,0 142.2804,154.45755 0 1 1 284.56079,0 z" transform="matrix(0.00688551,-0.00125291,0.00115414,0.00634266,246.2623,501.50256)" fill="#00DCFF" fill-opacity="1" stroke="none"></path><path style="" d="m 498.62228,442.86374 a 142.2804,154.45755 0 1 1 -284.56079,0 142.2804,154.45755 0 1 1 284.56079,0 z" transform="matrix(0.00688551,-0.00125291,0.00115414,0.00634266,263.15376,594.33117)" fill="#00DCFF" fill-opacity="1" stroke="none"></path><path style="" d="m 498.62228,442.86374 a 142.2804,154.45755 0 1 1 -284.56079,0 142.2804,154.45755 0 1 1 284.56079,0 z" transform="matrix(0.00588191,-0.00379252,0.00349352,0.00541819,228.46481,509.58206)" fill="#00DCFF" fill-opacity="1" stroke="none"></path><path style="" d="m 498.62228,442.86374 a 142.2804,154.45755 0 1 1 -284.56079,0 142.2804,154.45755 0 1 1 284.56079,0 z" transform="matrix(0.00588191,-0.00379252,0.00349352,0.00541819,279.59444,588.88044)" fill="#00DCFF" fill-opacity="1" stroke="none"></path><path style="" d="m 498.62228,442.86374 a 142.2804,154.45755 0 1 1 -284.56079,0 142.2804,154.45755 0 1 1 284.56079,0 z" transform="matrix(0.00398284,-0.00575472,0.00530104,0.00366884,215.59452,524.18997)" fill="#00DCFF" fill-opacity="1" stroke="none"></path><path style="" d="m 498.62228,442.86374 a 142.2804,154.45755 0 1 1 -284.56079,0 142.2804,154.45755 0 1 1 284.56079,0 z" transform="matrix(0.00398284,-0.00575472,0.00530104,0.00366884,293.17831,577.88564)" fill="#00DCFF" fill-opacity="1" stroke="none"></path><path style="" d="m 498.62228,442.86374 a 142.2804,154.45755 0 1 1 -284.56079,0 142.2804,154.45755 0 1 1 284.56079,0 z" transform="matrix(0.00147743,-0.00684085,0.00630153,0.00136095,208.2423,542.15514)" fill="#00DCFF" fill-opacity="1" stroke="none"></path><path style="" d="m 498.62228,442.86374 a 142.2804,154.45755 0 1 1 -284.56079,0 142.2804,154.45755 0 1 1 284.56079,0 z" transform="matrix(0.00147743,-0.00684085,0.00630153,0.00136095,300.46882,562.07343)" fill="#00DCFF" fill-opacity="1" stroke="none"></path><path style="" d="m 498.62228,442.86374 a 142.2804,154.45755 0 1 1 -284.56079,0 142.2804,154.45755 0 1 1 284.56079,0 z" transform="matrix(-0.00125291,-0.00688551,0.00634266,-0.00115414,209.37652,562.02243)" fill="#00DCFF" fill-opacity="1" stroke="none"></path><path style="" d="m 498.62228,442.86374 a 142.2804,154.45755 0 1 1 -284.56079,0 142.2804,154.45755 0 1 1 284.56079,0 z" transform="matrix(-0.00125291,-0.00688551,0.00634266,-0.00115414,302.20512,545.13097)" fill="#00DCFF" fill-opacity="1" stroke="none"></path><path style="" d="m 498.62228,442.86374 a 142.2804,154.45755 0 1 1 -284.56079,0 142.2804,154.45755 0 1 1 284.56079,0 z" transform="matrix(-0.00379251,-0.0058819,0.00541819,-0.00349352,216.97547,579.48728)" fill="#00DCFF" fill-opacity="1" stroke="none"></path><path style="" d="m 498.62228,442.86374 a 142.2804,154.45755 0 1 1 -284.56079,0 142.2804,154.45755 0 1 1 284.56079,0 z" transform="matrix(-0.00379251,-0.0058819,0.00541819,-0.00349352,296.27383,528.35765)" fill="#00DCFF" fill-opacity="1" stroke="none"></path></g></svg>