<svg fill="#FFFFFF" xmlns="http://www.w3.org/2000/svg" viewBox="0 0 920 920" version="1.1" x="0px" y="0px"><path fill="#FFFFFF" opacity="1.00" d=" M 516.02 57.98 C 517.79 54.78 520.96 52.72 524.13 51.08 C 529.06 49.26 533.39 53.45 535.72 57.32 C 545.63 80.59 553.76 104.55 562.65 128.21 C 564.41 132.64 560.87 138.08 556.07 138.04 C 552.98 138.36 549.83 136.43 548.79 133.50 C 541.10 112.60 533.70 91.59 525.42 70.92 C 517.61 83.67 510.20 96.66 502.26 109.34 C 493.70 123.34 484.61 137.00 476.02 150.98 C 467.98 162.91 460.31 175.07 452.73 187.29 C 455.85 187.22 458.98 187.06 462.11 186.97 C 469.70 175.04 476.53 162.65 483.30 150.24 C 490.20 139.05 496.23 127.36 502.85 115.99 C 506.14 110.36 508.71 104.05 513.79 99.71 C 516.46 96.94 521.53 96.97 524.12 99.85 C 527.69 103.63 529.53 108.59 531.87 113.15 C 536.20 122.30 541.37 131.67 541.24 142.08 C 541.69 145.50 537.11 147.62 534.65 145.32 C 526.38 138.52 522.65 128.11 518.18 118.72 C 506.75 139.64 494.65 160.17 483.10 181.03 C 481.87 183.25 480.53 185.41 479.12 187.52 C 496.09 188.12 512.96 190.85 529.44 194.86 C 535.30 189.92 541.11 184.94 547.25 180.35 C 574.23 159.61 601.68 139.46 627.98 117.84 C 635.20 111.73 642.69 105.94 649.98 99.91 C 653.02 97.32 657.13 96.22 661.07 96.26 C 665.79 96.81 667.56 101.92 668.63 105.87 C 669.46 119.55 669.56 133.27 669.46 146.97 C 669.84 158.96 669.77 170.96 669.69 182.96 C 669.35 188.73 661.40 191.41 657.38 187.46 C 653.99 184.65 655.18 179.89 655.00 176.06 C 654.99 155.81 654.87 135.56 654.40 115.32 C 634.61 131.64 614.69 147.82 594.16 163.20 C 578.31 175.40 562.25 187.31 546.51 199.65 C 549.58 200.71 552.66 201.75 555.81 202.60 C 566.32 194.22 576.34 185.23 586.68 176.65 C 599.17 165.80 612.01 155.37 624.37 144.37 C 627.19 141.79 630.47 139.72 634.03 138.33 C 637.40 137.09 641.58 138.71 643.04 142.04 C 645.83 149.50 645.74 157.58 646.70 165.38 C 647.66 172.20 647.06 179.15 645.60 185.85 C 645.12 188.03 643.68 190.70 641.06 190.45 C 639.02 190.62 637.73 188.86 636.79 187.34 C 632.11 178.30 632.38 167.90 631.16 158.05 C 620.04 168.02 608.36 177.32 597.15 187.17 C 588.39 194.26 580.22 202.04 571.30 208.92 C 586.92 215.57 601.85 223.80 615.93 233.28 C 627.09 229.13 638.36 225.25 649.79 221.87 C 658.57 218.82 667.71 216.90 676.43 213.63 C 701.66 205.84 726.71 197.49 751.59 188.61 C 757.60 186.78 763.58 183.51 770.06 184.76 C 773.75 184.86 776.83 188.22 776.78 191.88 C 777.81 197.26 775.52 202.33 773.84 207.31 C 767.23 227.75 759.52 247.82 752.40 268.09 C 751.61 271.42 748.47 274.06 744.98 273.80 C 740.16 274.02 736.33 268.65 738.08 264.14 C 745.50 243.19 753.43 222.41 760.31 201.26 C 747.07 205.65 734.07 210.74 720.71 214.79 C 704.99 220.42 688.92 225.02 673.08 230.30 C 658.70 234.33 644.49 238.93 630.34 243.64 C 632.81 245.71 635.31 247.77 637.98 249.60 C 647.45 245.82 657.29 243.01 666.67 238.98 C 682.68 233.26 698.56 227.18 714.50 221.26 C 720.43 218.79 726.53 216.32 733.02 216.01 C 736.90 215.62 740.63 219.13 740.49 223.03 C 740.31 231.52 737.58 239.68 735.45 247.83 C 733.82 254.34 730.95 260.59 726.83 265.91 C 725.47 268.03 722.16 268.27 720.51 266.38 C 718.95 264.25 718.92 261.49 718.95 258.97 C 719.05 250.17 721.68 241.69 724.17 233.33 C 707.01 239.95 689.75 246.33 672.47 252.59 C 665.11 255.59 657.68 258.43 650.07 260.72 C 662.61 272.26 673.79 285.26 683.85 299.01 C 701.24 298.82 718.62 299.61 735.96 300.77 C 763.98 301.89 791.99 303.38 820.04 303.33 C 828.56 304.15 837.84 301.86 845.64 306.35 C 849.27 307.96 850.30 312.53 849.00 316.03 C 848.11 321.82 843.00 325.41 840.11 330.17 C 826.64 346.68 812.92 363.00 799.32 379.41 C 796.54 382.83 790.65 382.53 788.03 379.08 C 786.11 376.71 785.83 373.02 787.55 370.49 C 801.80 353.01 816.62 335.97 830.53 318.21 C 797.99 318.11 765.47 316.90 732.97 315.30 C 719.92 314.48 706.85 313.85 693.78 313.68 C 695.42 316.25 696.79 319.02 698.70 321.42 C 707.07 322.61 715.59 321.83 724.02 321.75 C 731.34 321.76 738.66 321.82 745.98 321.76 C 758.65 321.16 771.34 321.88 784.01 321.27 C 789.63 321.17 795.46 321.06 800.75 323.25 C 804.18 324.71 805.68 329.11 804.32 332.49 C 801.61 339.49 796.70 345.30 792.59 351.50 C 788.92 357.91 783.45 363.19 777.36 367.31 C 775.10 369.13 770.98 368.21 770.62 365.09 C 770.36 359.55 773.40 354.61 775.99 349.95 C 778.98 345.18 782.06 340.46 785.43 335.94 C 771.95 336.59 758.46 335.90 744.98 336.47 C 732.25 336.36 719.52 336.61 706.79 336.75 C 714.34 351.85 720.59 367.63 725.20 383.89 C 739.49 388.86 753.44 394.74 767.33 400.73 C 778.72 405.73 790.41 410.01 801.75 415.12 C 809.86 417.87 817.45 421.93 825.61 424.56 C 835.58 428.60 845.75 432.13 855.70 436.22 C 862.78 438.96 871.20 440.59 875.62 447.43 C 878.22 451.83 874.90 456.69 872.01 459.97 C 850.38 473.57 828.14 486.15 806.08 499.04 C 801.36 501.74 794.79 497.47 795.46 492.03 C 795.57 486.16 802.13 484.51 806.22 481.91 C 822.93 471.94 839.98 462.52 856.45 452.14 C 841.91 446.93 827.64 441.00 813.14 435.71 C 808.89 434.11 804.88 431.92 800.58 430.47 C 794.30 428.40 788.52 425.09 782.27 422.95 C 764.66 415.77 747.26 408.09 729.59 401.06 C 730.35 404.10 730.57 407.30 731.69 410.24 C 735.54 412.32 739.81 413.59 743.87 415.24 C 767.09 423.14 790.07 431.70 813.22 439.76 C 817.73 441.32 822.28 443.02 826.14 445.92 C 829.26 448.25 829.75 453.32 827.19 456.24 C 822.72 461.84 816.44 465.50 810.75 469.70 C 803.79 474.31 796.60 479.63 787.98 480.22 C 785.39 480.40 783.40 477.44 784.34 475.08 C 785.92 471.09 789.24 468.21 792.19 465.24 C 796.71 460.35 802.89 457.57 808.05 453.46 C 794.15 449.10 780.68 443.54 766.83 439.04 C 756.02 434.78 744.87 431.48 734.01 427.36 C 736.07 444.18 736.48 461.20 735.38 478.11 C 741.98 483.63 748.47 489.28 754.91 494.99 C 784.16 522.56 813.96 549.62 844.58 575.68 C 849.24 579.29 853.87 583.92 854.79 589.99 C 855.28 594.87 850.43 597.69 846.69 599.56 C 821.98 605.06 796.98 609.16 772.06 613.62 C 767.57 614.77 762.94 610.55 763.46 606.00 C 763.42 602.40 766.47 599.31 770.00 598.98 C 782.43 596.89 794.85 594.69 807.23 592.30 C 816.51 590.91 825.74 589.12 834.85 586.85 C 809.95 565.56 785.49 543.75 761.53 521.40 C 752.19 512.95 743.27 504.06 733.58 495.99 C 733.19 499.02 732.74 502.04 732.29 505.06 C 741.53 513.78 751.68 521.46 761.33 529.72 C 773.58 539.75 785.69 549.95 798.06 559.83 C 801.80 563.10 805.81 566.23 808.52 570.47 C 810.84 573.59 810.00 578.61 806.68 580.71 C 803.85 582.36 800.67 583.28 797.58 584.31 C 787.00 587.57 776.21 591.41 764.96 590.62 C 762.71 590.34 759.77 590.29 758.75 587.85 C 758.06 585.86 758.94 583.81 760.57 582.61 C 768.77 576.18 779.24 574.36 789.04 571.67 C 768.91 555.25 748.99 538.57 728.89 522.11 C 724.98 538.65 719.70 554.88 712.79 570.40 C 715.29 575.71 718.67 580.54 721.32 585.78 C 730.16 602.02 738.05 618.76 746.84 635.03 C 758.48 657.83 770.99 680.16 783.60 702.44 C 786.12 706.41 786.99 711.28 786.26 715.92 C 784.68 720.87 778.52 722.10 773.99 721.85 C 751.56 718.96 729.34 714.67 707.05 710.91 C 703.06 709.90 697.72 710.70 695.44 706.47 C 692.10 701.38 697.04 693.83 703.09 695.34 C 725.01 699.01 746.89 702.98 768.84 706.45 C 750.97 675.12 734.12 643.24 717.83 611.06 C 713.80 602.86 709.48 594.80 704.97 586.86 C 703.49 589.60 702.01 592.34 700.49 595.06 C 712.54 616.36 725.31 637.26 737.46 658.51 C 741.25 664.59 745.20 670.63 748.06 677.23 C 749.11 680.46 750.56 684.35 748.40 687.46 C 745.81 691.54 740.27 691.14 736.06 691.12 C 724.42 690.02 712.23 690.60 701.38 685.59 C 699.16 684.63 696.36 682.87 697.00 680.04 C 697.14 677.88 699.41 676.78 701.24 676.25 C 710.98 673.63 721.09 675.32 730.95 676.05 C 721.61 661.23 713.19 645.85 704.15 630.85 C 699.91 623.79 695.81 616.67 691.66 609.57 C 682.30 624.10 671.39 637.59 659.51 650.14 C 662.93 666.33 664.33 682.86 666.57 699.25 C 668.82 718.27 671.61 737.21 674.27 756.17 C 676.48 771.18 679.28 786.11 681.39 801.13 C 681.44 805.76 680.23 812.28 674.83 813.39 C 671.29 813.54 667.45 813.69 664.34 811.76 C 643.76 800.91 623.74 789.07 603.58 777.50 C 601.30 776.22 598.51 775.23 597.39 772.66 C 595.55 768.93 597.32 763.92 601.27 762.44 C 603.96 761.30 606.94 762.18 609.29 763.70 C 628.08 774.60 646.89 785.45 665.91 795.94 C 659.14 758.43 654.41 720.59 649.67 682.77 C 648.64 675.99 648.25 669.11 646.68 662.42 C 644.53 664.51 642.29 666.51 639.94 668.38 C 640.54 677.92 643.38 687.12 644.64 696.58 C 646.91 707.43 648.52 718.41 650.73 729.29 C 652.17 739.61 655.06 749.68 656.11 760.06 C 656.27 762.60 656.25 765.21 655.63 767.70 C 654.54 771.17 650.55 773.28 647.05 772.34 C 637.62 770.22 629.17 765.33 620.45 761.36 C 615.71 758.30 610.52 755.41 607.34 750.59 C 605.53 748.00 607.87 744.08 611.03 744.51 C 621.78 744.72 631.37 750.06 640.74 754.74 C 636.58 737.02 634.18 718.93 630.48 701.11 C 629.32 693.81 627.88 686.57 626.40 679.33 C 612.54 689.60 597.73 698.54 582.27 706.18 C 580.76 714.16 579.19 722.13 577.64 730.10 C 569.67 764.48 561.87 798.91 555.39 833.61 C 553.72 841.28 552.68 849.10 550.62 856.67 C 548.69 859.97 546.40 864.37 541.96 864.29 C 537.89 864.01 533.79 862.06 531.22 858.84 C 523.06 849.64 514.87 840.46 506.99 831.01 C 500.83 822.91 493.66 815.67 487.32 807.71 C 485.11 804.77 481.39 802.15 481.97 798.01 C 481.99 792.18 489.93 788.92 494.11 792.90 C 508.93 810.02 523.20 827.62 538.23 844.55 C 544.43 811.79 551.18 779.15 558.68 746.67 C 561.33 735.62 563.76 724.53 565.98 713.39 C 563.20 714.46 560.31 715.31 557.66 716.68 C 555.92 722.03 555.29 727.68 554.33 733.21 C 550.84 753.66 547.32 774.10 543.88 794.56 C 542.99 801.18 542.09 808.03 538.84 813.98 C 536.74 817.59 531.44 818.34 528.19 815.88 C 520.99 811.19 515.44 804.52 509.35 798.56 C 506.29 795.56 503.82 792.03 501.52 788.43 C 499.99 785.92 498.43 783.08 498.85 780.05 C 499.57 777.85 502.14 776.75 504.26 777.64 C 514.32 781.40 521.49 789.77 528.79 797.25 C 529.87 786.06 532.62 775.12 534.07 763.98 C 536.64 749.98 538.84 735.93 541.31 721.92 C 524.69 726.96 507.53 729.95 490.30 731.94 C 486.30 739.84 481.31 747.16 476.76 754.73 C 461.07 778.57 445.86 802.73 430.84 827.00 C 423.70 838.53 417.29 850.51 409.77 861.81 C 406.83 865.09 402.22 868.64 397.62 866.37 C 394.72 864.31 391.88 861.73 390.64 858.30 C 381.21 835.93 373.54 812.87 364.84 790.22 C 363.86 787.75 363.93 784.75 365.64 782.63 C 368.05 779.17 373.54 778.68 376.61 781.52 C 378.15 782.79 378.63 784.82 379.34 786.61 C 386.87 806.65 393.81 826.93 401.90 846.76 C 418.13 818.68 435.57 791.34 453.02 764.01 C 459.87 753.77 466.41 743.33 472.90 732.87 C 469.77 733.16 466.49 732.58 463.44 733.37 C 456.16 744.66 450.07 756.68 443.33 768.31 C 434.55 783.00 426.74 798.25 417.85 812.87 C 415.16 816.72 410.96 821.39 405.72 819.40 C 401.03 817.03 399.15 811.65 396.74 807.31 C 392.75 798.48 387.71 789.88 386.24 780.16 C 386.04 777.80 385.58 775.15 386.82 773.01 C 388.21 770.75 391.59 770.91 393.30 772.70 C 400.92 779.74 404.90 789.53 409.00 798.82 C 421.51 776.64 434.05 754.47 446.69 732.36 C 429.58 731.20 412.59 728.35 396.00 724.00 C 382.71 736.27 367.59 746.25 353.47 757.48 C 327.81 776.66 302.92 796.84 278.03 817.01 C 273.94 820.39 267.07 823.18 262.40 819.49 C 259.69 816.39 258.28 812.16 258.33 808.06 C 257.54 785.03 257.74 761.99 257.49 738.95 C 257.55 736.49 257.13 733.75 258.69 731.64 C 261.13 727.79 267.24 727.32 270.29 730.68 C 271.68 732.05 272.34 734.01 272.24 735.96 C 272.28 745.31 272.02 754.66 272.47 763.99 C 272.59 776.72 272.21 789.46 272.97 802.17 C 287.57 789.99 302.57 778.29 317.44 766.45 C 329.47 756.84 341.97 747.85 354.03 738.26 C 362.59 732.06 371.10 725.77 379.17 718.95 C 376.34 717.97 373.52 716.97 370.73 715.88 C 367.37 718.10 364.27 720.67 361.30 723.39 C 348.48 734.55 335.40 745.38 322.51 756.44 C 314.55 762.83 307.27 770.05 299.06 776.13 C 295.67 778.27 291.37 780.93 287.37 778.74 C 283.29 776.65 283.05 771.46 282.29 767.51 C 280.97 755.18 278.12 742.33 282.23 730.24 C 283.10 726.85 288.12 725.92 289.78 729.16 C 295.19 738.35 294.85 749.38 296.05 759.65 C 315.41 742.64 335.50 726.47 354.75 709.34 C 339.37 702.49 324.65 694.12 310.84 684.49 C 278.22 696.29 244.65 705.19 211.86 716.48 C 200.43 719.91 189.39 724.46 178.02 728.06 C 171.13 730.10 164.35 734.10 156.91 732.71 C 153.09 732.48 150.25 728.81 150.41 725.10 C 149.76 721.13 150.93 717.27 152.31 713.60 C 159.40 691.62 167.60 670.03 175.29 648.26 C 176.88 643.43 183.82 642.16 187.30 645.69 C 189.81 647.94 190.07 651.75 188.72 654.70 C 181.38 675.13 173.86 695.50 166.96 716.10 C 176.01 713.25 185.01 710.20 193.88 706.83 C 212.56 700.79 231.12 694.35 249.95 688.80 C 265.50 683.77 281.22 679.28 296.65 673.89 C 294.19 671.87 291.74 669.85 289.15 668.02 C 265.52 676.54 242.02 685.44 218.48 694.22 C 210.40 696.82 202.70 701.53 194.01 701.50 C 190.41 701.73 186.97 698.65 186.78 695.06 C 186.61 690.43 187.70 685.88 188.67 681.39 C 191.61 670.91 193.47 659.48 200.95 651.06 C 203.44 648.36 207.76 650.77 208.01 654.10 C 209.37 664.43 205.77 674.48 203.11 684.30 C 221.27 677.28 239.53 670.49 257.84 663.85 C 264.23 661.29 270.64 658.77 277.20 656.68 C 264.96 645.13 254.18 632.11 244.29 618.51 C 233.86 618.42 223.43 618.67 213.01 617.99 C 176.38 616.01 139.71 614.38 103.02 614.16 C 97.50 613.70 91.89 614.43 86.42 613.44 C 82.93 612.02 78.42 610.34 77.79 606.06 C 77.69 602.00 78.83 597.71 81.51 594.58 C 96.60 575.99 111.66 557.36 127.18 539.11 C 129.36 536.04 133.77 534.95 137.06 536.85 C 140.79 538.77 142.08 544.23 139.49 547.55 C 126.84 562.23 114.70 577.36 102.33 592.28 C 100.28 594.65 98.75 597.47 96.26 599.44 C 129.89 599.40 163.51 600.85 197.11 602.37 C 209.62 603.18 222.14 603.92 234.69 603.79 C 233.10 601.20 231.53 598.61 229.99 596.00 C 218.32 595.39 206.62 595.91 194.95 595.71 C 179.96 596.34 164.96 595.64 149.97 596.22 C 142.36 596.06 134.54 596.95 127.12 594.78 C 123.66 593.67 121.72 589.61 122.65 586.16 C 124.04 581.52 126.86 577.53 129.44 573.50 C 135.60 565.15 140.89 555.60 150.04 550.11 C 152.28 548.56 155.94 549.41 156.55 552.28 C 157.04 558.37 153.18 563.59 150.81 568.90 C 147.89 573.20 144.96 577.53 141.66 581.56 C 168.46 581.25 195.27 581.02 222.09 581.01 C 214.61 565.96 208.89 550.13 204.02 534.07 C 195.23 531.67 186.83 528.00 178.38 524.61 C 172.96 522.96 168.08 520.01 162.79 518.05 C 143.11 509.74 123.31 501.68 103.49 493.70 C 89.13 487.88 74.48 482.81 60.13 476.96 C 56.31 475.49 53.00 472.55 51.08 468.96 C 49.49 463.65 53.66 458.53 57.91 455.86 C 78.75 442.86 100.23 430.91 121.32 418.35 C 125.91 415.98 132.09 419.81 131.80 425.02 C 132.12 428.53 129.37 431.18 126.44 432.57 C 107.80 443.41 89.14 454.24 70.62 465.27 C 101.16 476.60 131.35 488.89 161.42 501.43 C 174.23 506.75 186.82 512.62 199.97 517.06 C 198.81 513.78 199.98 508.42 195.76 507.28 C 176.66 499.53 156.97 493.41 137.68 486.18 C 126.82 482.11 115.50 479.21 105.06 474.08 C 102.21 472.55 98.77 470.61 98.51 466.98 C 97.77 461.67 102.79 458.19 106.43 455.27 C 115.92 448.67 124.89 440.54 136.36 437.61 C 138.31 437.31 140.87 436.91 142.19 438.79 C 143.77 440.51 142.93 443.04 141.74 444.73 C 136.20 453.20 127.26 458.33 119.37 464.30 C 144.97 472.87 170.30 482.22 195.78 491.17 C 194.02 475.50 193.55 459.69 194.50 443.95 C 195.23 440.66 191.58 439.23 189.59 437.43 C 170.82 422.34 154.21 404.82 136.00 389.07 C 118.97 373.05 101.16 357.89 83.53 342.54 C 78.73 338.78 73.73 334.26 72.46 328.04 C 71.79 323.13 76.50 320.27 80.21 318.34 C 86.35 316.27 92.84 315.54 99.16 314.25 C 116.40 310.80 133.71 307.77 151.01 304.66 C 154.24 304.03 158.05 302.76 160.89 305.14 C 165.23 308.14 164.62 315.71 159.71 317.80 C 156.25 318.92 152.60 319.37 149.02 319.99 C 141.63 320.96 134.43 322.99 127.03 323.90 C 115.35 325.95 103.76 328.58 92.04 330.42 C 100.66 337.57 108.94 345.12 117.43 352.43 C 124.52 358.71 131.82 364.77 138.55 371.44 C 158.25 388.52 176.56 407.11 196.43 423.99 C 196.78 421.03 197.42 418.09 197.46 415.11 C 192.25 409.51 186.25 404.58 180.23 399.84 C 165.81 387.91 151.41 375.95 137.03 363.97 C 130.86 358.85 124.00 354.26 119.23 347.71 C 116.65 344.51 117.32 339.12 120.94 336.97 C 126.76 333.22 133.74 332.18 140.27 330.26 C 148.46 327.77 157.12 325.91 165.68 327.43 C 168.40 327.98 169.61 331.63 167.84 333.74 C 165.63 336.64 162.10 338.08 158.93 339.66 C 152.41 342.87 145.18 344.01 138.27 346.07 C 147.11 352.80 155.46 360.13 164.03 367.20 C 176.37 377.45 188.82 387.56 201.09 397.90 C 204.92 381.75 210.04 365.90 216.71 350.69 C 210.49 340.28 204.66 329.64 199.04 318.90 C 191.57 303.29 183.29 288.10 175.28 272.79 C 164.72 252.20 152.94 232.27 142.03 211.89 C 140.46 207.47 139.35 200.94 143.77 197.78 C 146.83 196.21 150.37 195.13 153.84 195.71 C 172.66 198.26 191.33 201.72 210.06 204.88 C 215.98 206.14 222.05 206.61 227.91 208.17 C 231.78 209.24 233.73 213.89 232.45 217.56 C 231.48 220.62 228.28 222.90 225.04 222.49 C 202.84 218.54 180.59 214.73 158.34 211.09 C 177.70 245.31 196.26 279.99 213.79 315.19 C 217.38 321.63 220.61 328.28 224.52 334.55 C 225.71 330.89 230.00 327.00 227.10 323.15 C 215.86 303.07 203.82 283.43 192.31 263.50 C 188.28 255.73 182.80 248.77 179.33 240.71 C 178.09 237.15 176.49 232.63 179.31 229.39 C 182.35 225.61 187.76 226.78 192.01 226.52 C 203.94 227.30 216.45 227.27 227.41 232.68 C 229.71 233.63 231.16 236.49 229.74 238.74 C 227.98 241.13 224.78 241.60 222.05 242.10 C 213.40 243.63 204.66 242.06 196.02 241.31 C 204.36 253.50 210.91 266.78 218.77 279.27 C 224.94 290.11 231.60 300.67 237.54 311.64 C 246.27 297.98 256.30 285.18 267.30 273.28 C 269.63 271.04 267.38 267.73 267.18 265.04 C 262.38 237.89 260.27 210.35 255.96 183.13 C 253.34 161.68 249.56 140.40 246.18 119.07 C 245.29 114.96 246.11 110.59 248.09 106.93 C 250.88 102.89 256.41 103.92 260.54 104.62 C 282.47 115.93 303.62 128.69 325.14 140.76 C 327.75 141.92 330.32 144.00 330.50 147.08 C 331.21 151.09 328.06 155.27 323.97 155.53 C 320.54 155.93 317.76 153.54 314.92 152.05 C 297.09 141.91 279.46 131.43 261.37 121.76 C 268.69 162.23 273.51 203.10 278.76 243.88 C 279.35 249.11 280.34 254.29 281.13 259.50 C 283.33 257.40 285.76 255.53 287.73 253.20 C 287.44 243.71 284.69 234.52 283.45 225.14 C 280.84 212.98 279.07 200.66 276.55 188.49 C 275.13 177.95 272.03 167.70 271.10 157.09 C 271.11 153.55 270.63 149.19 273.74 146.69 C 277.25 143.52 282.23 145.52 286.07 146.90 C 295.57 151.12 305.63 154.58 313.90 161.07 C 316.37 162.99 319.07 164.95 320.32 167.93 C 321.19 170.56 318.88 173.44 316.12 173.03 C 305.38 173.22 296.17 167.18 286.63 163.20 C 290.92 182.27 293.64 201.66 297.63 220.80 C 298.64 227.95 300.30 234.99 301.39 242.13 C 314.19 233.02 327.24 224.17 341.33 217.15 C 342.38 216.40 344.04 216.07 344.54 214.79 C 346.68 200.77 349.78 186.91 352.89 173.08 C 361.53 136.89 368.80 100.39 375.78 63.84 C 376.20 60.54 378.30 57.85 380.36 55.37 C 382.68 52.75 386.80 52.62 389.71 54.31 C 394.23 56.07 397.22 60.05 400.38 63.52 C 414.31 79.32 427.70 95.59 441.36 111.63 C 443.22 113.71 445.66 115.91 445.30 119.00 C 445.47 122.90 441.91 126.46 438.02 126.30 C 435.22 126.60 432.92 124.72 431.27 122.69 C 417.29 106.15 403.43 89.51 389.23 73.17 C 385.61 88.33 383.32 103.78 379.91 118.99 C 376.70 134.92 373.05 150.76 369.63 166.65 C 366.22 180.34 363.17 194.13 360.64 208.02 C 363.41 206.93 366.17 205.81 368.96 204.77 C 372.93 187.97 374.89 170.78 378.20 153.85 C 380.28 141.32 382.55 128.82 384.32 116.25 C 385.16 111.82 386.23 107.33 388.50 103.40 C 390.69 99.79 396.07 99.19 399.29 101.75 C 405.94 106.31 411.26 112.47 416.89 118.17 C 421.09 122.09 424.56 126.76 427.21 131.84 C 428.18 134.09 429.42 137.35 427.19 139.25 C 425.62 140.83 423.17 140.22 421.37 139.43 C 412.23 135.03 404.95 127.74 398.47 120.09 C 395.69 141.85 391.13 163.35 387.80 185.03 C 386.97 189.76 386.45 194.55 385.12 199.17 C 401.36 194.08 418.11 190.59 435.02 188.71 C 444.10 172.25 454.57 156.62 464.89 140.91 C 473.04 127.46 481.88 114.44 490.02 100.99 C 498.91 86.79 507.13 72.18 516.02 57.98 Z"></path><path fill="#FFFFFF" opacity="1.00" d=" M 510.48 152.61 C 515.25 150.67 521.12 154.73 520.54 159.96 C 520.74 165.89 512.84 169.30 508.47 165.50 C 503.97 162.24 505.16 154.32 510.48 152.61 Z"></path><path fill="#FFFFFF" opacity="1.00" d=" M 405.38 153.56 C 410.12 151.73 415.86 155.81 415.29 160.95 C 415.49 166.78 407.85 170.21 403.42 166.65 C 398.67 163.47 399.85 155.17 405.38 153.56 Z"></path><path fill="#FFFFFF" opacity="1.00" d=" M 496.42 165.40 C 504.61 163.07 512.56 167.95 519.93 170.99 C 524.11 172.44 525.81 177.88 523.63 181.61 C 522.02 184.58 518.22 186.06 515.02 184.98 C 510.59 183.43 506.56 180.82 501.97 179.70 C 499.22 178.80 495.99 178.30 494.10 175.91 C 491.45 172.66 492.61 167.21 496.42 165.40 Z"></path><path fill="#FFFFFF" opacity="1.00" d=" M 399.30 169.37 C 406.28 167.96 413.61 168.32 420.58 169.67 C 426.79 171.61 426.81 181.49 420.69 183.58 C 415.51 184.66 410.18 182.89 404.93 183.37 C 401.58 183.27 397.71 184.39 394.84 182.15 C 391.66 179.86 391.26 174.77 393.92 171.94 C 395.26 170.35 397.39 169.88 399.30 169.37 Z"></path><path fill="#FFFFFF" opacity="1.00" d=" M 610.31 187.42 C 615.01 185.95 620.34 190.03 619.79 195.00 C 619.97 200.94 611.91 204.39 607.64 200.35 C 602.95 196.99 604.70 188.69 610.31 187.42 Z"></path><path fill="#FFFFFF" opacity="1.00" d=" M 301.71 197.98 C 301.01 192.21 308.18 188.09 312.95 191.19 C 318.14 193.65 317.79 203.62 311.47 204.00 C 311.99 204.43 312.52 204.85 313.06 205.27 C 315.50 203.09 319.11 203.01 322.15 202.02 C 326.28 200.59 331.12 203.70 331.49 208.05 C 331.95 211.04 330.49 214.37 327.67 215.65 C 323.15 217.81 318.02 218.22 313.55 220.51 C 310.19 221.91 305.92 223.82 302.59 221.34 C 299.12 219.07 298.61 213.44 301.74 210.69 C 304.73 208.15 308.37 206.59 311.89 204.96 C 307.27 206.00 301.62 203.21 301.71 197.98 Z"></path><path fill="#FFFFFF" opacity="1.00" d=" M 593.37 194.49 C 597.57 193.16 601.19 196.30 604.50 198.39 C 609.02 201.81 613.74 205.38 616.80 210.23 C 619.48 216.03 613.04 222.65 607.18 220.11 C 602.78 217.58 599.96 212.99 595.63 210.29 C 592.68 207.90 588.49 205.36 588.70 201.04 C 588.53 198.11 590.66 195.42 593.37 194.49 Z"></path><path fill="#FFFFFF" opacity="1.00" d=" M 687.15 262.83 C 684.86 258.55 689.56 253.55 693.97 253.95 C 699.60 253.61 703.31 260.66 700.28 265.27 C 698.04 269.67 689.86 270.35 688.15 265.34 C 687.77 265.17 687.01 264.83 686.62 264.66 C 688.99 268.52 691.16 272.59 692.46 276.94 C 693.62 282.16 688.10 286.91 683.08 285.33 C 678.87 284.40 677.94 279.81 676.27 276.52 C 674.35 272.07 670.83 268.49 669.24 263.89 C 667.96 260.24 670.36 256.00 674.09 255.10 C 680.01 253.76 683.92 259.92 686.12 264.47 C 686.46 263.92 686.81 263.38 687.15 262.83 Z"></path><path fill="#FFFFFF" opacity="1.00" d=" M 226.32 259.42 C 230.82 257.49 236.60 260.95 236.54 265.96 C 237.26 271.72 230.07 275.94 225.30 272.81 C 220.05 270.05 220.72 261.35 226.32 259.42 Z"></path><path fill="#FFFFFF" opacity="1.00" d=" M 243.40 265.46 C 248.04 262.36 255.08 266.40 254.55 272.02 C 254.81 276.35 250.60 278.49 247.67 280.74 C 243.38 283.65 240.01 287.77 235.50 290.35 C 230.10 292.84 223.88 286.69 226.41 281.28 C 230.34 274.45 237.13 269.94 243.40 265.46 Z"></path><path fill="#FFFFFF" opacity="1.00" d=" M 726.50 340.54 C 729.59 338.45 734.44 339.31 736.26 342.71 C 739.99 349.49 740.57 357.44 740.98 365.02 C 741.24 370.73 733.73 374.15 729.33 370.77 C 724.98 367.68 726.26 361.64 725.26 357.08 C 724.92 351.67 720.83 344.46 726.50 340.54 Z"></path><path fill="#FFFFFF" opacity="1.00" d=" M 744.38 345.36 C 748.99 342.99 755.28 346.66 755.05 351.95 C 755.62 357.77 748.21 361.73 743.54 358.40 C 738.69 355.61 739.25 347.53 744.38 345.36 Z"></path><path fill="#FFFFFF" opacity="1.00" d=" M 193.43 350.46 C 197.64 348.62 203.13 351.39 203.72 356.04 C 204.58 360.39 200.91 363.51 198.87 366.87 C 195.79 371.09 194.54 376.97 189.77 379.76 C 184.87 382.20 178.58 377.35 180.10 371.96 C 182.01 365.60 185.36 359.71 189.30 354.40 C 190.45 352.88 191.61 351.21 193.43 350.46 Z"></path><path fill="#FFFFFF" opacity="1.00" d=" M 174.38 351.37 C 179.03 348.96 185.36 352.72 185.05 358.05 C 185.45 363.84 178.21 367.71 173.54 364.40 C 168.73 361.59 169.23 353.54 174.38 351.37 Z"></path><path fill="#FFFFFF" opacity="1.00" d=" M 749.34 438.33 C 752.34 436.55 756.64 437.41 758.61 440.36 C 760.23 442.54 759.70 445.43 759.75 447.97 C 759.31 454.18 758.21 460.40 756.24 466.31 C 753.87 471.73 745.11 471.55 742.86 466.10 C 741.24 461.86 743.49 457.38 744.16 453.15 C 745.55 448.20 744.45 441.54 749.34 438.33 Z"></path><path fill="#FFFFFF" opacity="1.00" d=" M 174.31 448.29 C 178.65 445.78 184.91 448.82 185.27 453.91 C 185.13 458.21 183.31 462.24 182.67 466.47 C 182.06 470.04 181.96 473.85 180.14 477.08 C 177.84 480.75 171.98 481.12 169.20 477.82 C 167.09 475.76 167.46 472.64 167.49 469.97 C 167.72 464.88 168.61 459.82 169.95 454.92 C 170.76 452.39 171.72 449.51 174.31 448.29 Z"></path><path fill="#FFFFFF" opacity="1.00" d=" M 764.40 448.56 C 769.14 446.74 774.88 450.83 774.29 455.98 C 774.46 461.80 766.85 465.20 762.42 461.66 C 757.67 458.43 758.80 450.16 764.40 448.56 Z"></path><path fill="#FFFFFF" opacity="1.00" d=" M 157.26 455.30 C 161.87 453.06 168.04 456.70 167.80 461.96 C 168.42 467.71 161.15 471.60 156.48 468.53 C 151.44 465.79 151.92 457.44 157.26 455.30 Z"></path><path fill="#FFFFFF" opacity="1.00" d=" M 738.32 537.43 C 742.96 535.87 748.24 540.17 747.23 545.07 C 745.49 551.89 741.72 557.97 737.73 563.69 C 736.24 565.93 733.92 567.96 731.06 567.80 C 727.24 568.10 723.58 564.84 723.46 561.01 C 723.08 556.75 726.78 553.84 728.62 550.39 C 731.71 546.04 732.95 539.62 738.32 537.43 Z"></path><path fill="#FFFFFF" opacity="1.00" d=" M 190.31 546.16 C 194.07 544.25 199.38 546.13 200.60 550.29 C 201.77 555.43 201.60 560.78 202.98 565.88 C 203.57 568.98 204.67 572.69 202.41 575.39 C 199.79 579.12 193.39 578.95 191.09 574.97 C 187.53 568.62 186.95 561.14 186.29 554.02 C 185.76 550.87 187.36 547.49 190.31 546.16 Z"></path><path fill="#FFFFFF" opacity="1.00" d=" M 747.24 552.26 C 752.13 550.47 757.84 554.87 757.03 560.09 C 756.89 565.60 749.76 568.79 745.42 565.56 C 740.36 562.52 741.58 553.84 747.24 552.26 Z"></path><path fill="#FFFFFF" opacity="1.00" d=" M 177.38 558.47 C 183.07 556.40 189.35 562.98 186.57 568.47 C 184.79 573.38 177.64 574.67 174.20 570.80 C 170.41 567.10 172.22 559.85 177.38 558.47 Z"></path><path fill="#FFFFFF" opacity="1.00" d=" M 691.32 627.38 C 696.57 624.44 703.18 630.27 701.00 635.88 C 698.09 641.45 692.98 645.42 688.09 649.17 C 685.40 651.08 682.54 653.67 678.97 652.99 C 673.52 652.49 670.72 645.25 674.17 641.11 C 676.49 638.69 679.46 637.02 682.06 634.93 C 685.30 632.60 687.81 629.34 691.32 627.38 Z"></path><path fill="#FFFFFF" opacity="1.00" d=" M 239.48 632.61 C 242.62 631.50 246.71 632.52 248.35 635.60 C 250.34 639.30 251.83 643.29 254.27 646.75 C 255.95 649.28 257.83 651.89 258.28 654.97 C 258.90 659.04 255.09 663.04 250.99 662.54 C 247.89 662.67 245.89 660.01 244.11 657.89 C 240.25 653.40 237.81 647.96 235.34 642.64 C 233.53 638.88 235.53 633.96 239.48 632.61 Z"></path><path fill="#FFFFFF" opacity="1.00" d=" M 696.18 644.14 C 700.97 642.72 706.24 646.98 705.54 652.00 C 705.47 657.72 697.95 660.89 693.63 657.36 C 688.69 654.03 690.32 645.38 696.18 644.14 Z"></path><path fill="#FFFFFF" opacity="1.00" d=" M 230.28 649.29 C 235.29 646.83 241.65 651.41 240.78 656.95 C 240.53 662.55 233.24 665.54 228.94 662.17 C 224.40 659.12 225.18 651.33 230.28 649.29 Z"></path><path fill="#FFFFFF" opacity="1.00" d=" M 618.42 695.51 C 622.29 693.98 627.06 696.90 627.49 701.03 C 627.83 703.30 627.14 705.79 625.29 707.25 C 620.78 710.97 615.01 712.54 609.56 714.34 C 606.09 715.29 601.87 716.95 598.67 714.40 C 594.05 711.34 594.96 703.14 600.37 701.51 C 606.51 699.88 612.42 697.58 618.42 695.51 Z"></path><path fill="#FFFFFF" opacity="1.00" d=" M 314.34 697.50 C 316.89 696.51 320.15 696.71 322.18 698.73 C 324.63 700.96 326.74 703.56 329.36 705.62 C 332.06 707.88 335.17 709.73 337.42 712.49 C 340.00 716.05 338.13 721.67 333.93 723.00 C 330.10 724.14 326.48 721.79 323.43 719.77 C 319.10 716.37 314.68 712.94 311.26 708.59 C 308.50 705.01 310.17 699.19 314.34 697.50 Z"></path><path fill="#FFFFFF" opacity="1.00" d=" M 615.09 712.98 C 619.79 710.81 625.97 714.65 625.55 719.96 C 625.91 725.74 618.56 729.40 613.97 726.13 C 609.13 723.20 609.81 715.05 615.09 712.98 Z"></path><path fill="#FFFFFF" opacity="1.00" d=" M 311.35 716.51 C 315.97 713.87 322.63 717.52 322.30 723.00 C 322.80 728.55 316.03 732.47 311.33 729.72 C 306.16 727.27 306.18 718.93 311.35 716.51 Z"></path><path fill="#FFFFFF" opacity="1.00" d=" M 407.45 732.62 C 411.51 731.13 415.29 733.93 418.89 735.43 C 423.12 737.73 428.25 737.96 432.20 740.85 C 435.56 743.53 435.31 749.37 431.74 751.78 C 429.51 753.61 426.46 752.96 423.87 752.57 C 417.43 751.26 411.10 749.01 405.54 745.48 C 400.93 742.34 402.16 734.34 407.45 732.62 Z"></path><path fill="#FFFFFF" opacity="1.00" d=" M 506.24 734.31 C 509.02 733.24 512.09 734.07 515.00 734.00 C 519.95 734.40 524.95 733.72 529.89 734.40 C 536.66 735.61 536.70 746.59 529.92 747.81 C 522.38 749.68 514.48 749.17 506.86 748.16 C 500.66 746.39 500.30 736.67 506.24 734.31 Z"></path><path fill="#FFFFFF" opacity="1.00" d=" M 516.25 750.09 C 521.04 747.88 527.27 751.60 526.80 757.04 C 527.10 762.86 519.52 766.50 515.01 762.97 C 510.43 759.99 511.11 752.08 516.25 750.09 Z"></path><path fill="#FFFFFF" opacity="1.00" d=" M 411.20 751.21 C 415.83 749.19 421.84 752.79 421.55 758.02 C 422.07 763.95 414.43 767.77 409.82 764.27 C 405.09 761.25 405.90 753.16 411.20 751.21 Z"></path></svg>