<svg fill="#FFFFFF" xmlns="http://www.w3.org/2000/svg" viewBox="0 0 920 920" version="1.1" x="0px" y="0px"><path fill="#FFFFFF" opacity="1.00" d=" M 421.61 92.66 C 424.57 88.29 432.07 88.84 434.24 93.71 C 441.13 106.24 443.75 121.83 438.84 135.52 C 448.00 129.68 457.85 123.90 468.98 123.30 C 479.34 121.75 488.83 127.03 497.88 131.23 C 506.32 135.97 515.38 139.96 525.04 141.31 C 529.37 141.62 534.33 141.84 537.78 138.72 C 541.40 136.21 542.88 131.90 544.62 128.06 C 531.03 127.46 516.97 125.99 504.92 119.16 C 502.69 117.84 500.22 115.93 500.21 113.06 C 499.70 109.61 502.40 105.96 505.94 105.75 C 510.56 105.44 514.78 107.58 518.97 109.19 C 526.29 112.25 534.34 112.50 542.14 113.23 C 543.29 112.35 544.45 111.47 545.61 110.59 C 546.20 107.07 545.93 102.58 549.40 100.45 C 553.40 97.50 560.04 99.86 560.83 104.90 C 563.07 119.47 560.31 135.50 550.64 147.01 C 561.50 143.65 573.45 142.47 584.53 145.52 C 593.58 147.96 600.15 155.05 606.69 161.32 C 614.87 170.95 624.41 180.69 637.04 183.98 C 643.64 185.08 649.04 180.27 652.95 175.57 C 639.54 170.40 626.06 163.58 617.13 151.93 C 613.78 147.74 617.58 140.70 622.98 141.46 C 629.71 142.40 633.52 148.71 638.89 152.17 C 643.83 155.42 649.18 158.04 654.64 160.30 C 656.27 161.22 657.99 160.11 659.62 159.77 C 661.39 156.51 662.83 152.05 667.02 151.33 C 671.59 150.15 676.65 154.22 675.99 159.00 C 674.16 171.93 667.02 183.81 657.16 192.25 C 655.53 193.61 653.62 194.57 651.75 195.55 C 658.83 195.48 665.66 197.55 672.40 199.49 C 677.93 201.03 682.64 204.47 687.07 207.99 C 692.47 212.61 695.36 219.27 698.45 225.49 C 701.95 232.42 703.81 240.15 708.33 246.55 C 712.19 252.15 716.32 258.39 723.00 260.83 C 728.46 262.61 733.64 259.60 738.56 257.64 C 727.65 248.18 717.30 236.94 712.93 222.88 C 711.15 217.67 716.98 212.73 721.90 214.83 C 727.36 217.74 728.96 224.11 732.12 228.96 C 735.95 234.68 740.82 239.64 745.76 244.42 C 747.18 244.56 748.60 244.71 750.05 244.85 C 752.87 242.39 755.70 238.69 759.94 239.50 C 764.96 239.89 768.00 246.15 765.40 250.40 C 758.09 262.95 745.62 272.94 731.20 275.75 C 743.60 281.75 756.08 290.33 761.39 303.58 C 764.58 313.77 764.04 324.63 764.89 335.16 C 766.12 343.27 767.41 351.77 772.44 358.54 C 776.25 364.76 784.52 364.73 790.91 363.80 C 783.89 351.68 778.47 338.07 778.34 323.90 C 777.87 319.60 781.63 315.34 786.11 316.23 C 790.83 316.72 792.36 322.05 792.99 326.00 C 794.09 335.50 797.19 344.71 801.89 353.03 C 802.65 354.54 804.43 354.90 805.81 355.65 C 808.47 354.68 811.11 353.24 814.02 353.21 C 818.02 353.17 821.48 357.06 821.04 361.04 C 821.10 365.36 816.78 367.51 813.73 369.67 C 808.32 373.52 802.01 375.82 795.68 377.64 C 789.51 378.64 783.00 380.02 776.90 377.95 C 782.83 383.14 787.46 389.66 791.50 396.39 C 795.49 404.51 797.88 413.99 795.37 422.94 C 793.38 434.49 787.84 445.22 787.17 457.02 C 786.77 462.78 786.60 469.13 789.83 474.18 C 792.95 478.74 798.60 479.94 803.58 481.32 C 801.32 467.00 800.68 451.83 806.15 438.13 C 808.11 433.21 815.94 433.25 818.13 437.98 C 820.49 444.28 817.34 450.70 816.78 457.01 C 816.60 462.98 816.56 469.01 817.57 474.92 C 817.79 476.76 819.34 478.23 821.04 478.84 C 824.43 479.21 828.56 477.82 831.25 480.65 C 835.13 484.02 833.95 491.29 828.99 492.98 C 815.30 498.08 799.29 497.49 786.27 490.72 C 791.50 502.58 795.64 516.06 792.08 529.00 C 788.45 541.67 777.89 550.43 771.52 561.59 C 767.94 568.22 764.04 575.25 764.32 583.03 C 765.31 589.06 770.44 593.03 775.32 596.06 C 778.29 582.16 782.34 567.77 792.04 556.95 C 795.18 553.00 802.33 554.42 803.59 559.37 C 804.55 564.61 801.10 569.21 798.50 573.42 C 795.49 577.97 793.92 583.24 792.42 588.43 C 791.43 592.14 789.41 596.26 792.00 599.78 C 795.45 601.02 799.92 601.65 801.64 605.38 C 803.76 609.61 800.93 615.52 796.08 615.94 C 784.46 616.02 772.73 612.64 763.28 605.78 C 760.24 603.73 757.52 601.21 755.45 598.16 C 756.71 604.06 755.98 610.09 755.58 616.03 C 755.04 623.31 752.65 630.44 748.70 636.57 C 745.12 642.00 739.56 645.57 734.47 649.43 C 729.25 653.29 723.16 655.91 718.28 660.24 C 712.37 665.57 705.81 671.07 703.58 679.05 C 702.61 685.02 706.26 690.05 709.61 694.55 C 716.84 682.03 726.19 670.03 739.23 663.20 C 744.10 660.83 749.91 665.77 748.43 670.97 C 746.21 677.55 739.18 680.09 734.81 684.90 C 730.60 689.53 726.82 694.55 723.64 699.94 C 723.83 701.19 724.04 702.45 724.26 703.73 C 726.84 706.10 730.73 708.04 731.01 711.96 C 731.61 715.74 728.81 719.65 725.02 720.21 C 721.89 720.71 719.04 719.01 716.32 717.74 C 705.06 711.99 694.96 702.79 690.42 690.76 C 688.04 698.22 685.15 705.58 681.13 712.31 C 678.23 716.54 674.59 720.28 670.58 723.47 C 656.37 732.63 638.21 731.18 623.71 739.70 C 619.19 742.45 613.86 745.57 612.62 751.15 C 611.41 755.62 613.03 760.11 614.19 764.40 C 624.73 755.87 636.47 748.18 649.94 745.43 C 652.41 745.20 655.34 744.77 657.35 746.61 C 660.46 748.92 660.75 754.18 657.78 756.72 C 654.43 759.50 650.12 760.60 646.11 762.06 C 639.03 764.33 632.96 768.79 627.05 773.16 C 625.34 774.17 624.62 776.18 625.03 778.11 C 626.32 781.33 629.36 784.18 628.43 787.95 C 627.59 793.45 619.99 795.79 616.12 791.88 C 605.17 782.16 596.71 767.86 597.82 752.84 C 595.91 756.99 592.55 760.18 589.55 763.53 C 583.08 770.88 574.65 777.09 564.82 778.77 C 554.89 780.05 544.91 778.48 535.08 777.13 C 528.66 776.20 522.15 776.87 515.79 777.84 C 511.01 778.83 505.63 780.67 503.21 785.28 C 500.99 789.02 500.85 793.47 500.34 797.67 C 512.72 792.87 526.24 790.45 539.52 791.66 C 541.80 792.01 544.32 792.25 546.14 793.84 C 549.57 796.66 548.90 803.03 544.73 804.82 C 541.36 806.21 537.64 806.34 534.05 806.18 C 525.83 805.61 517.76 807.69 509.91 809.82 C 507.74 810.08 506.81 812.13 505.74 813.73 C 506.45 817.50 508.34 822.13 505.38 825.42 C 502.24 829.51 494.93 828.73 492.95 823.88 C 486.12 811.04 483.07 794.89 488.95 781.16 C 485.08 784.87 480.00 786.82 475.40 789.40 C 467.40 793.79 458.00 795.10 449.00 794.15 C 437.70 791.73 428.08 784.96 417.61 780.43 C 409.72 777.88 401.29 774.43 392.93 776.85 C 387.13 778.75 384.72 784.80 382.30 789.83 C 396.55 789.63 411.43 791.89 423.86 799.25 C 428.72 801.54 428.34 809.42 423.35 811.33 C 419.62 812.39 415.58 811.25 412.10 809.81 C 404.22 806.25 395.53 804.93 386.97 804.47 C 384.66 804.02 383.16 806.02 381.53 807.25 C 381.03 810.26 381.39 813.80 379.16 816.20 C 376.34 819.40 370.76 819.34 367.99 816.10 C 366.04 813.88 366.13 810.73 365.84 807.97 C 365.10 794.97 367.78 781.04 376.40 770.89 C 364.59 773.73 351.74 775.47 340.04 771.24 C 332.35 768.61 326.92 762.30 321.22 756.86 C 317.15 752.88 314.00 748.00 309.45 744.52 C 303.39 739.67 296.95 734.44 288.97 733.45 C 282.89 733.33 278.01 737.47 274.30 741.85 C 287.49 747.13 300.81 753.82 309.86 765.14 C 312.75 768.52 311.19 774.43 306.89 775.76 C 302.32 777.01 298.18 773.76 294.99 770.89 C 289.07 765.03 281.59 761.09 274.05 757.75 C 272.10 756.75 269.74 756.56 267.91 757.92 C 266.15 759.91 265.48 762.63 263.72 764.64 C 260.45 767.78 254.36 766.98 252.18 762.95 C 250.33 759.92 251.63 756.25 252.37 753.08 C 255.86 740.58 263.58 728.65 274.99 722.10 C 267.47 721.68 260.12 719.76 253.00 717.39 C 243.73 713.78 235.52 706.84 231.55 697.59 C 227.76 690.97 225.48 683.67 222.23 676.81 C 218.09 669.36 213.37 661.55 205.75 657.21 C 200.08 654.66 193.89 657.20 188.95 660.19 C 199.63 669.46 209.59 680.47 214.18 694.09 C 215.64 697.82 213.14 702.47 209.12 702.99 C 204.10 703.92 200.86 699.05 198.73 695.29 C 196.33 690.24 193.33 685.48 189.41 681.48 C 185.95 678.01 183.19 672.92 177.81 672.39 C 174.86 674.78 172.21 678.70 167.94 678.29 C 162.78 678.35 159.23 672.13 161.68 667.66 C 168.89 654.72 181.61 644.36 196.37 641.73 C 185.70 636.90 175.33 630.15 169.00 620.03 C 163.61 612.44 163.80 602.81 162.91 593.94 C 162.59 581.45 161.71 567.74 153.68 557.52 C 149.50 552.49 142.25 553.34 136.43 553.80 C 143.31 566.11 149.03 579.75 148.87 594.06 C 149.23 598.32 145.24 602.21 140.95 601.24 C 136.12 600.61 134.91 595.06 134.19 591.06 C 133.06 581.74 129.95 572.75 125.41 564.56 C 124.34 562.26 121.16 561.83 119.08 562.92 C 116.11 564.14 112.52 565.56 109.58 563.43 C 105.26 560.91 105.03 554.01 109.14 551.16 C 120.53 541.91 135.99 536.57 150.62 539.59 C 146.02 536.13 142.68 531.35 139.27 526.77 C 133.18 518.60 129.84 508.10 131.29 497.91 C 132.48 490.42 134.60 483.10 137.02 475.92 C 139.68 466.32 141.96 455.92 139.00 446.13 C 136.69 439.84 129.53 437.58 123.59 436.22 C 125.45 447.67 126.36 459.58 123.62 470.96 C 122.87 474.42 122.31 478.16 120.02 481.00 C 117.02 484.50 110.58 483.42 108.93 479.08 C 107.77 475.20 108.33 471.07 109.28 467.22 C 111.44 458.70 110.54 449.82 109.63 441.19 C 106.90 437.54 102.26 439.28 98.46 438.38 C 93.44 436.74 92.02 429.45 95.93 425.97 C 99.06 423.53 103.17 422.90 106.97 422.14 C 118.59 420.33 131.51 420.84 141.57 427.56 C 138.51 422.33 136.77 416.49 135.36 410.64 C 132.93 401.63 133.16 391.63 137.29 383.14 C 141.44 374.75 147.55 367.59 153.20 360.20 C 157.90 352.49 162.87 344.17 162.94 334.87 C 162.19 328.64 156.80 324.59 151.94 321.39 C 149.44 332.68 146.62 344.26 140.13 354.03 C 138.17 357.02 136.19 360.23 133.11 362.19 C 129.21 364.23 123.74 361.51 123.47 357.00 C 123.33 351.26 127.37 346.78 130.01 342.05 C 133.46 335.43 135.10 328.08 137.01 320.91 C 135.31 315.42 127.61 317.56 125.61 312.35 C 123.08 307.43 127.37 300.97 132.95 301.71 C 147.33 301.95 162.45 307.61 171.58 319.10 C 170.45 306.07 171.23 291.90 178.71 280.70 C 182.73 274.65 189.19 271.07 194.88 266.82 C 199.31 263.55 204.33 261.12 208.62 257.65 C 214.62 252.45 220.87 246.83 223.56 239.13 C 224.70 233.06 221.29 227.53 217.68 222.99 C 211.83 232.68 205.23 242.25 196.04 249.08 C 192.47 251.71 188.80 255.71 183.94 254.95 C 179.70 254.28 177.36 249.05 179.38 245.34 C 182.37 239.45 188.80 236.76 193.04 231.99 C 196.99 227.46 200.58 222.61 203.76 217.51 C 203.41 216.15 203.05 214.78 202.70 213.43 C 199.46 211.27 195.39 208.49 196.23 203.97 C 196.58 198.64 202.99 195.89 207.48 198.32 C 220.12 203.81 231.87 213.46 236.82 226.66 C 239.87 218.25 242.61 209.42 248.37 202.40 C 252.39 197.38 257.31 192.82 263.40 190.51 C 271.89 187.28 280.87 185.66 289.67 183.59 C 298.43 180.68 307.79 177.27 313.52 169.60 C 316.41 164.49 314.42 158.48 313.37 153.14 C 302.08 162.09 289.35 170.20 274.89 172.48 C 269.17 173.69 265.10 166.08 268.77 161.79 C 273.93 156.26 282.14 156.20 288.31 152.32 C 292.77 149.49 297.54 147.02 301.48 143.45 C 303.56 140.64 301.45 137.59 299.93 135.13 C 297.80 132.12 298.45 127.56 301.39 125.31 C 304.40 122.76 309.23 123.30 311.82 126.22 C 322.42 136.02 330.78 150.16 329.37 165.01 C 331.59 160.31 335.42 156.68 338.78 152.79 C 343.43 147.49 349.36 143.43 355.90 140.82 C 364.48 136.92 374.16 138.32 383.22 139.15 C 395.46 141.17 409.07 142.54 420.41 136.40 C 425.78 132.97 426.31 125.94 426.88 120.20 C 413.17 124.58 398.41 128.27 384.04 125.10 C 378.66 124.29 377.09 116.40 381.43 113.34 C 385.73 110.50 391.15 111.57 396.00 111.49 C 403.95 111.57 411.62 109.24 419.24 107.25 C 419.99 106.15 420.73 105.04 421.48 103.93 C 420.86 100.30 419.00 95.94 421.61 92.66 M 456.40 142.42 C 447.24 146.64 439.80 153.71 432.90 160.90 C 425.34 169.94 418.89 180.19 415.57 191.57 C 419.45 190.81 423.45 190.53 427.25 189.41 C 428.19 186.84 428.98 184.18 430.72 182.01 C 436.32 174.30 443.26 167.27 451.82 162.89 C 456.80 160.31 462.53 160.25 467.85 158.77 C 470.14 158.25 472.58 157.12 474.89 158.17 C 478.40 159.62 483.08 161.50 483.20 165.98 C 483.20 173.17 481.81 180.28 481.65 187.47 C 485.71 187.74 489.76 188.48 493.84 188.27 C 498.97 181.07 504.24 173.77 511.27 168.28 C 516.83 164.07 522.05 159.21 528.50 156.33 C 519.10 156.03 510.00 153.22 501.38 149.64 C 493.31 145.70 485.49 141.14 476.92 138.35 C 469.90 136.81 462.49 138.84 456.40 142.42 M 353.84 158.85 C 343.67 167.63 336.63 179.48 331.92 191.95 C 328.54 202.57 326.07 213.73 327.24 224.94 C 330.61 222.83 334.23 221.16 337.52 218.93 C 337.60 216.23 336.98 213.46 337.86 210.84 C 340.37 201.94 344.02 193.11 350.08 186.02 C 354.81 180.47 361.77 177.81 367.61 173.72 C 370.35 171.60 373.97 172.76 377.07 173.16 C 379.72 173.58 381.82 175.75 382.50 178.30 C 384.56 184.88 385.47 191.79 388.03 198.23 C 391.74 197.17 395.46 196.15 399.20 195.18 C 400.67 190.40 401.89 185.54 403.60 180.83 C 407.47 170.63 413.61 161.51 420.14 152.83 C 410.72 155.47 400.77 155.98 391.05 155.19 C 383.76 154.05 376.43 152.86 369.02 152.96 C 363.41 152.82 358.26 155.68 353.84 158.85 M 545.11 164.43 C 535.13 168.22 526.53 174.71 518.49 181.58 C 515.33 184.29 512.79 187.59 510.26 190.86 C 514.15 191.53 518.03 192.30 521.92 193.06 C 523.31 190.44 525.49 188.42 528.11 187.04 C 534.92 182.23 542.76 178.94 550.88 177.13 C 557.64 175.57 564.40 177.68 571.12 178.34 C 573.16 178.62 575.49 178.55 577.07 180.11 C 579.77 182.66 583.19 185.85 582.14 189.98 C 579.97 196.89 575.96 203.04 573.53 209.86 C 577.20 211.48 580.82 213.19 584.40 214.98 C 587.57 212.91 590.68 210.76 593.91 208.78 C 604.43 202.24 616.55 198.73 628.66 196.54 C 626.61 195.93 624.55 195.31 622.64 194.36 C 612.10 188.73 603.30 180.38 595.70 171.26 C 590.49 166.41 585.45 160.37 578.04 159.13 C 566.81 156.98 555.52 160.45 545.11 164.43 M 457.03 176.92 C 452.23 179.65 448.51 183.80 444.78 187.78 C 452.15 187.27 459.55 186.93 466.95 186.99 C 467.18 182.61 467.44 178.22 468.00 173.86 C 464.28 174.61 460.34 174.93 457.03 176.92 M 318.78 185.06 C 312.88 191.19 304.53 193.76 296.84 196.84 C 287.04 199.99 276.46 200.70 267.07 205.14 C 259.46 209.52 255.65 217.94 252.77 225.85 C 247.70 241.88 247.27 259.33 251.67 275.57 C 252.88 279.24 254.35 282.82 255.63 286.46 C 258.31 283.43 261.02 280.42 263.60 277.30 C 262.32 274.62 260.73 271.96 260.66 268.90 C 259.91 259.29 260.38 249.27 264.20 240.29 C 266.20 235.58 269.51 231.64 272.79 227.78 C 274.99 225.31 276.26 221.41 279.98 220.91 C 283.28 220.13 287.49 218.97 290.19 221.74 C 295.41 227.48 298.88 234.54 303.91 240.44 C 306.96 238.26 310.01 236.07 313.09 233.93 C 312.77 226.13 311.68 218.30 312.69 210.51 C 313.75 201.84 315.70 193.24 318.78 185.06 M 360.17 197.02 C 357.06 201.38 354.77 206.28 353.12 211.36 C 359.97 208.27 366.92 205.39 374.00 202.88 C 372.45 198.51 371.11 194.07 370.15 189.53 C 366.61 191.70 362.72 193.62 360.17 197.02 M 552.81 191.77 C 548.01 193.10 543.42 195.08 539.03 197.41 C 546.02 199.41 552.93 201.68 559.73 204.25 C 561.43 200.24 563.13 196.22 565.19 192.37 C 561.11 191.85 556.90 190.71 552.81 191.77 M 630.57 210.95 C 619.67 213.38 608.72 216.52 599.32 222.76 C 602.63 224.70 605.71 227.08 609.21 228.70 C 614.21 225.42 620.23 224.55 626.04 223.86 C 632.21 223.19 638.53 222.96 644.62 224.41 C 650.29 225.82 654.97 229.49 660.19 231.94 C 662.30 233.01 664.87 233.88 665.76 236.33 C 667.48 239.65 669.43 244.17 666.62 247.47 C 662.00 252.69 656.45 257.05 652.06 262.49 C 655.09 265.25 657.65 268.51 660.91 271.02 C 663.98 270.47 666.93 269.36 670.00 268.76 C 682.42 265.92 695.45 266.33 707.90 268.72 C 700.88 262.96 695.86 255.13 691.64 247.19 C 687.87 238.76 684.90 229.90 679.86 222.08 C 677.68 218.87 674.30 216.76 671.01 214.85 C 658.35 209.22 644.08 209.21 630.57 210.95 M 277.61 246.61 C 275.12 252.44 275.10 258.90 275.00 265.13 C 280.75 259.94 286.30 254.53 292.30 249.64 C 289.21 245.86 286.33 241.91 283.83 237.71 C 281.45 240.44 279.00 243.22 277.61 246.61 M 624.20 239.03 C 629.93 243.38 635.63 247.77 641.07 252.48 C 643.73 249.17 646.80 246.23 650.05 243.50 C 646.58 241.49 643.20 238.90 639.12 238.36 C 634.15 237.64 629.12 238.26 624.20 239.03 M 218.08 269.08 C 211.22 274.33 203.50 278.35 196.70 283.71 C 191.02 287.14 187.84 293.44 186.73 299.81 C 185.44 308.48 185.41 317.39 187.64 325.91 C 189.52 337.25 194.56 347.74 200.66 357.38 C 203.24 361.44 206.71 364.80 209.71 368.53 C 211.04 364.66 212.52 360.83 214.01 357.01 C 211.44 354.53 208.75 352.01 207.40 348.60 C 203.77 340.60 201.57 331.80 201.48 322.99 C 201.21 315.99 204.63 309.70 206.52 303.15 C 207.44 299.03 211.33 296.47 214.95 294.90 C 218.90 293.75 222.14 296.66 225.07 298.81 C 229.61 302.41 234.56 305.42 239.34 308.67 C 241.52 305.65 243.64 302.58 245.73 299.50 C 242.25 293.45 239.93 286.85 237.65 280.29 C 234.84 271.04 234.32 261.31 233.72 251.73 C 230.02 258.72 223.85 263.86 218.08 269.08 M 671.75 283.42 C 674.21 286.51 676.68 289.61 679.18 292.68 C 682.64 291.58 686.29 291.63 689.85 292.22 C 698.10 293.59 706.56 295.49 713.53 300.38 C 718.61 303.61 721.80 308.86 726.11 312.94 C 727.52 314.44 729.41 315.86 729.62 318.08 C 730.18 322.04 730.84 327.40 726.60 329.63 C 720.45 332.91 713.84 335.27 707.80 338.78 C 709.72 342.34 710.89 346.31 713.21 349.64 C 720.38 350.67 727.66 351.21 734.66 353.22 C 742.68 355.77 750.30 359.38 757.82 363.13 C 751.23 351.25 749.90 337.28 749.60 323.94 C 748.76 317.91 749.49 311.29 746.08 305.94 C 741.51 298.52 733.89 293.71 726.30 289.84 C 715.97 285.69 705.19 281.96 693.94 281.79 C 686.49 281.01 679.01 281.75 671.75 283.42 M 689.66 307.08 C 693.40 313.23 697.35 319.26 700.85 325.56 C 704.68 323.71 708.49 321.80 712.33 319.97 C 709.98 317.25 707.77 314.31 704.74 312.31 C 700.27 309.26 694.83 308.28 689.66 307.08 M 218.86 312.79 C 217.70 316.46 215.98 320.09 216.18 324.03 C 216.42 330.22 218.26 336.23 220.49 341.96 C 224.12 334.98 227.72 327.98 231.60 321.14 C 227.27 318.48 223.00 315.73 218.86 312.79 M 164.25 370.22 C 159.51 376.24 154.61 382.19 150.91 388.93 C 148.81 392.92 148.19 397.56 148.67 402.00 C 150.39 414.54 156.55 425.97 164.00 436.01 C 172.11 446.18 182.08 455.11 193.99 460.56 C 194.02 456.57 194.11 452.58 194.27 448.59 C 191.17 447.26 187.88 446.03 185.61 443.41 C 179.66 437.37 174.79 430.24 171.28 422.52 C 168.06 415.44 169.47 407.52 168.87 400.02 C 168.70 398.27 168.82 396.44 169.93 395.00 C 171.94 391.89 174.74 387.98 179.01 388.80 C 186.85 389.88 194.06 393.57 201.98 394.36 C 202.85 390.87 203.75 387.38 204.74 383.92 C 201.10 381.03 197.93 377.64 194.99 374.08 C 186.83 365.36 181.76 354.38 176.94 343.60 C 174.42 353.16 169.90 362.14 164.25 370.22 M 719.13 365.12 C 720.44 368.92 721.75 372.72 723.06 376.52 C 728.48 376.61 733.16 379.53 737.67 382.21 C 742.81 385.27 747.18 389.45 751.39 393.66 C 755.85 398.28 757.16 404.74 759.67 410.43 C 760.65 412.82 762.30 415.22 761.65 417.95 C 760.97 421.48 759.90 425.98 755.93 427.10 C 748.80 428.61 741.43 428.06 734.26 429.32 C 734.79 433.38 734.74 437.53 735.64 441.54 C 738.04 443.18 740.73 444.33 743.30 445.68 C 755.01 451.26 764.72 460.32 772.85 470.26 C 771.05 457.36 773.50 444.23 777.78 432.04 C 779.13 428.14 779.97 424.08 780.92 420.07 C 783.21 412.08 779.46 403.79 774.55 397.57 C 769.20 389.57 761.39 383.76 753.68 378.21 C 743.18 371.67 731.47 366.64 719.13 365.12 M 727.99 393.59 C 729.41 400.60 731.09 407.56 732.21 414.64 C 736.40 414.13 740.62 413.79 744.85 413.62 C 743.59 409.97 742.68 405.96 739.91 403.10 C 736.34 399.46 732.43 396.13 727.99 393.59 M 183.70 405.07 C 183.78 409.26 183.32 413.74 185.29 417.61 C 187.90 422.93 191.31 427.88 195.42 432.17 C 196.23 424.35 197.38 416.58 198.79 408.85 C 193.70 407.87 188.59 406.86 183.70 405.07 M 150.44 482.64 C 148.48 487.93 147.16 493.43 146.05 498.96 C 144.64 506.38 147.78 513.85 152.35 519.59 C 158.60 528.60 167.39 535.38 176.51 541.26 C 186.84 546.96 198.10 551.80 210.03 552.45 C 208.74 548.81 207.52 545.13 206.37 541.44 C 203.42 540.98 200.36 540.82 197.62 539.53 C 188.62 535.57 180.48 529.58 174.29 521.91 C 170.41 516.76 169.31 510.26 166.40 504.62 C 164.52 501.61 165.95 498.11 167.04 495.11 C 167.84 492.53 170.07 490.30 172.86 490.15 C 180.35 489.27 187.89 488.97 195.36 487.94 C 195.09 484.34 194.81 480.74 194.56 477.15 C 188.98 474.55 183.46 471.84 178.10 468.81 C 170.75 464.47 164.69 458.39 158.58 452.52 C 156.96 450.86 155.63 448.95 154.39 447.00 C 156.37 458.99 153.95 471.17 150.44 482.64 M 736.04 458.52 C 735.92 462.47 735.88 466.42 735.92 470.38 C 738.73 471.58 741.19 473.45 743.17 475.77 C 747.92 481.29 752.43 487.16 755.40 493.86 C 759.40 501.96 757.97 511.25 758.37 519.95 C 756.87 524.02 754.10 529.44 748.97 529.00 C 742.00 527.83 735.37 525.18 728.44 523.82 C 727.45 527.92 726.42 532.00 725.28 536.07 C 728.86 539.71 732.33 543.46 735.66 547.34 C 741.15 554.53 745.15 562.69 748.93 570.87 C 749.67 572.52 750.20 574.27 750.61 576.05 C 750.56 572.30 751.68 568.66 753.17 565.26 C 756.73 557.23 760.95 549.40 766.64 542.66 C 769.68 538.97 772.38 535.02 775.07 531.06 C 778.56 525.74 779.55 518.97 778.12 512.81 C 776.91 507.73 775.64 502.61 773.23 497.95 C 768.70 488.90 763.15 480.19 755.69 473.26 C 750.04 467.27 743.49 462.09 736.04 458.52 M 734.55 488.52 C 733.73 495.43 732.77 502.32 731.57 509.18 C 735.59 510.26 739.60 511.36 743.58 512.56 C 743.46 509.07 743.78 505.47 742.74 502.09 C 741.01 497.03 737.83 492.66 734.55 488.52 M 182.25 503.99 C 183.43 507.25 184.38 510.72 186.55 513.51 C 190.74 518.45 196.13 522.20 201.79 525.28 C 200.12 517.69 198.50 510.09 197.28 502.42 C 192.30 503.24 187.28 503.70 182.25 503.99 M 716.01 562.92 C 720.72 568.65 722.89 575.92 724.48 583.05 C 726.05 590.21 726.61 597.95 723.94 604.92 C 722.42 609.10 721.38 613.49 719.40 617.49 C 716.53 620.62 712.21 624.15 707.69 622.32 C 701.58 619.25 696.76 614.20 690.73 610.99 C 688.36 614.56 685.93 618.10 683.46 621.61 C 685.99 627.33 688.37 633.16 690.17 639.17 C 692.36 648.04 693.28 657.22 693.36 666.34 C 696.17 659.91 701.74 655.47 706.68 650.75 C 713.99 643.69 723.62 639.82 731.33 633.27 C 738.29 628.64 740.84 619.90 741.14 611.95 C 742.34 600.68 739.52 589.47 736.15 578.81 C 732.07 569.24 727.39 559.64 720.12 552.06 C 718.79 555.69 717.40 559.31 716.01 562.92 M 169.10 554.00 C 174.03 561.79 175.47 571.00 176.93 579.92 C 177.69 588.61 177.44 597.39 178.97 606.01 C 179.76 610.44 182.70 614.06 185.59 617.36 C 194.46 625.64 205.97 630.38 217.53 633.57 C 230.15 636.20 243.49 637.21 256.10 633.97 C 253.62 630.76 251.18 627.51 248.41 624.55 C 246.31 625.25 244.14 625.97 241.90 625.69 C 232.30 625.07 222.66 622.67 214.34 617.72 C 208.35 614.11 204.74 607.90 199.78 603.17 C 197.05 600.94 197.37 597.13 197.26 593.98 C 197.11 591.46 198.54 588.98 200.75 587.81 C 207.23 584.25 214.38 582.06 220.73 578.23 C 219.14 574.78 217.57 571.32 216.02 567.85 C 208.67 567.20 201.22 566.63 194.06 564.76 C 185.44 561.96 176.87 558.72 169.10 554.00 M 698.64 598.29 C 701.96 600.45 705.24 602.70 708.45 605.05 C 709.52 601.09 711.28 597.19 711.06 593.01 C 710.89 588.45 709.50 584.08 708.49 579.67 C 705.53 586.04 702.14 592.20 698.64 598.29 M 214.81 597.44 C 217.14 600.31 219.34 603.45 222.59 605.36 C 227.64 608.33 233.40 609.73 239.11 610.78 C 234.99 604.50 231.08 598.07 227.54 591.44 C 223.45 593.75 219.14 595.63 214.81 597.44 M 665.70 643.52 C 667.86 654.86 667.35 667.08 662.87 677.81 C 660.57 683.72 655.41 687.73 652.08 692.99 C 650.14 696.61 645.72 697.30 642.03 697.75 C 639.12 698.10 636.58 696.15 635.16 693.78 C 632.08 689.11 628.91 684.51 625.58 680.02 C 621.83 682.58 618.12 685.21 614.40 687.82 C 614.78 693.89 615.35 700.00 614.66 706.07 C 614.07 713.18 612.19 720.08 610.50 726.98 C 609.97 729.08 609.00 731.02 607.89 732.87 C 617.62 724.25 630.38 720.24 642.88 717.65 C 649.12 716.52 655.29 714.78 661.00 711.98 C 664.17 709.98 666.70 707.07 668.82 704.01 C 675.92 692.02 678.61 677.88 678.68 664.08 C 678.04 654.25 677.40 644.09 672.95 635.12 C 670.52 637.91 668.06 640.67 665.70 643.52 M 257.12 648.90 C 244.81 651.67 232.09 650.75 219.69 649.15 C 229.37 657.46 235.64 669.13 240.02 680.96 C 241.99 685.55 244.20 690.06 246.66 694.41 C 250.56 700.67 257.67 703.95 264.65 705.45 C 272.52 707.89 280.83 707.63 288.96 707.47 C 297.82 707.11 306.31 704.32 314.69 701.68 C 319.20 700.22 323.26 697.74 327.20 695.16 C 323.98 693.15 320.82 691.05 317.59 689.08 C 312.91 692.14 307.22 692.71 301.83 693.60 C 295.97 694.54 289.96 694.41 284.12 693.41 C 278.48 692.28 273.43 689.37 268.57 686.40 C 266.17 684.87 262.91 684.22 261.59 681.43 C 259.76 678.23 257.87 673.83 260.47 670.51 C 264.94 664.89 270.85 660.64 275.34 655.03 C 272.53 652.28 270.04 649.17 266.96 646.71 C 263.61 647.11 260.40 648.19 257.12 648.90 M 637.12 670.89 C 639.40 673.71 641.52 676.68 643.42 679.78 C 649.58 674.10 652.25 665.76 652.13 657.53 C 647.21 662.08 642.24 666.57 637.12 670.89 M 286.29 665.18 C 283.34 668.41 280.30 671.55 276.99 674.42 C 279.96 675.93 282.84 677.69 286.05 678.68 C 291.52 680.13 297.23 679.45 302.75 678.69 C 297.13 674.35 291.58 669.91 286.29 665.18 M 590.23 702.14 C 588.86 711.34 585.06 720.06 580.03 727.83 C 576.29 733.59 570.52 737.56 564.52 740.68 C 561.37 742.16 558.82 745.48 555.01 745.00 C 551.65 744.95 547.40 744.80 545.61 741.41 C 543.06 735.27 542.35 728.56 540.34 722.24 C 536.00 723.47 531.64 724.65 527.24 725.63 C 525.81 730.02 524.53 734.46 522.86 738.77 C 518.95 748.30 512.96 756.75 506.89 765.00 C 518.18 761.63 530.29 761.18 541.87 763.23 C 548.87 764.08 556.01 765.17 563.04 764.09 C 571.56 762.10 577.40 755.06 582.88 748.77 C 593.95 733.76 600.40 715.26 600.33 696.55 C 596.96 698.41 593.59 700.26 590.23 702.14 M 320.93 715.14 C 314.05 717.51 307.06 719.66 299.89 720.99 C 308.49 724.47 315.79 730.33 322.67 736.43 C 328.90 743.13 334.71 750.38 342.13 755.84 C 350.64 760.84 361.04 758.99 370.24 757.26 C 380.51 753.97 390.91 750.17 399.45 743.38 C 405.66 739.31 411.14 734.23 415.78 728.44 C 412.04 727.71 408.32 726.94 404.60 726.15 C 396.53 733.49 386.30 738.65 375.53 740.53 C 369.01 741.77 362.55 739.78 356.09 739.15 C 353.93 738.86 351.46 738.88 349.89 737.13 C 347.17 734.56 343.87 731.22 345.19 727.10 C 347.33 720.71 351.17 715.04 353.17 708.59 C 349.36 706.89 345.60 705.11 341.91 703.19 C 335.23 707.66 328.53 712.34 320.93 715.14 M 554.24 717.82 C 555.41 721.16 556.34 724.58 556.99 728.07 C 560.46 725.95 564.21 724.03 566.81 720.80 C 569.29 717.71 570.85 714.03 572.66 710.54 C 566.59 713.14 560.43 715.52 554.24 717.82 M 362.12 725.18 C 365.36 725.58 368.61 726.32 371.89 726.11 C 376.95 725.60 381.67 723.51 386.18 721.29 C 379.75 719.10 373.29 716.96 366.94 714.52 C 365.43 718.11 363.87 721.69 362.12 725.18 M 499.56 730.84 C 494.11 739.91 486.66 747.99 477.54 753.47 C 471.30 757.31 463.85 757.77 456.88 759.45 C 454.98 759.97 452.97 759.80 451.22 758.89 C 448.22 757.55 444.46 755.77 444.10 752.06 C 443.90 745.43 445.21 738.88 445.49 732.28 C 441.09 731.92 436.70 731.52 432.31 730.99 C 426.09 739.71 418.99 748.00 410.03 754.02 C 406.06 756.61 402.60 760.14 398.01 761.63 C 404.87 760.68 411.54 763.09 418.03 764.96 C 428.33 767.86 437.02 774.46 447.00 778.13 C 453.36 780.96 460.87 779.81 467.05 777.02 C 472.05 774.46 477.23 772.08 481.57 768.43 C 487.50 763.49 493.59 758.50 498.01 752.09 C 503.07 744.96 507.93 737.52 510.65 729.16 C 506.95 729.66 503.25 730.21 499.56 730.84 M 460.16 733.04 C 459.99 736.70 459.67 740.35 459.14 743.98 C 462.55 743.25 466.08 742.76 469.22 741.16 C 473.27 739.06 476.62 735.88 479.78 732.64 C 473.24 732.84 466.70 733.08 460.16 733.04 Z"></path></svg>