<svg fill="#FFFFFF" xmlns="http://www.w3.org/2000/svg" viewBox="0 0 920 920" version="1.1" x="0px" y="0px"><path fill="#FFFFFF" opacity="1.00" d=" M 470.73 113.89 C 469.01 108.60 475.07 104.03 479.95 104.72 C 493.32 105.58 506.68 106.84 519.91 108.97 C 524.00 109.82 528.39 109.91 532.15 111.89 C 534.63 113.81 537.74 115.70 538.44 119.01 C 538.74 122.39 537.53 125.65 536.98 128.95 C 534.81 139.96 532.43 150.93 530.65 162.01 C 528.45 172.54 527.64 183.30 525.10 193.76 C 537.80 196.64 550.14 200.82 562.45 205.03 C 564.98 197.54 568.33 190.36 571.12 182.97 C 569.10 179.63 569.06 174.77 572.43 172.27 C 575.56 169.58 580.02 170.74 583.11 172.87 C 586.55 174.27 588.71 178.24 587.51 181.85 C 583.74 191.57 579.57 201.13 575.99 210.92 C 577.81 211.79 579.63 212.67 581.45 213.56 C 587.36 200.21 593.35 186.88 600.20 173.98 C 594.17 170.60 588.19 166.45 584.54 160.45 C 582.86 158.18 583.95 154.42 586.85 153.87 C 592.46 153.35 598.11 155.27 602.82 158.24 C 606.64 160.61 610.78 162.81 613.65 166.36 C 615.32 169.84 617.28 174.23 614.92 177.87 C 607.37 191.63 601.06 206.00 594.63 220.29 C 596.27 221.19 597.93 222.09 599.60 222.98 C 605.02 214.16 609.89 205.03 614.91 195.98 C 621.23 185.65 627.30 175.17 633.72 164.90 C 620.69 157.24 607.01 150.77 593.15 144.80 C 588.02 142.70 586.20 133.23 592.54 131.48 C 596.63 129.48 600.75 131.85 604.44 133.55 C 614.13 138.02 623.92 142.33 633.19 147.66 C 639.05 150.87 645.98 153.71 648.93 160.18 C 650.84 163.00 650.11 166.68 648.28 169.33 C 638.51 185.60 628.39 201.66 619.43 218.40 C 617.27 222.59 614.74 226.59 612.07 230.47 C 622.66 237.93 633.24 245.45 642.92 254.09 C 648.25 248.04 654.14 242.46 658.98 235.99 C 659.00 233.75 658.81 231.26 660.34 229.42 C 662.93 225.65 669.16 225.38 672.01 229.00 C 673.92 231.29 676.46 233.74 676.04 237.02 C 676.04 240.97 672.26 243.22 670.07 246.04 C 664.98 252.36 659.18 258.06 653.83 264.16 C 655.29 265.65 656.74 267.13 658.20 268.63 C 668.35 258.13 678.50 247.60 689.42 237.89 C 684.83 232.42 680.11 226.35 679.23 219.03 C 678.55 216.12 681.77 213.55 684.49 214.52 C 692.83 217.48 698.48 224.83 703.12 232.00 C 705.44 235.06 704.84 239.11 704.56 242.68 C 703.49 246.17 699.89 247.95 697.60 250.57 C 687.19 259.56 677.96 269.81 668.18 279.46 C 669.43 280.87 670.69 282.28 671.95 283.70 C 684.07 274.02 695.50 263.50 707.53 253.70 C 713.08 249.53 718.46 245.14 723.86 240.79 C 714.14 228.70 702.95 217.87 691.90 207.02 C 690.26 204.74 690.65 201.70 690.91 199.08 C 692.70 194.18 700.02 194.44 703.33 197.54 C 713.94 207.66 724.15 218.23 733.77 229.30 C 737.79 234.00 741.76 240.58 739.13 246.83 C 735.19 251.64 729.67 254.84 724.99 258.87 C 709.80 270.29 696.07 283.49 681.16 295.25 C 688.78 305.68 695.89 316.48 702.11 327.81 C 709.22 323.99 716.52 320.51 723.46 316.38 C 724.04 314.50 724.46 312.37 726.09 311.07 C 729.48 307.82 736.01 308.88 737.78 313.37 C 739.62 317.10 741.15 322.29 737.59 325.53 C 728.23 331.00 718.47 335.83 708.95 341.04 C 709.77 342.88 710.57 344.72 711.36 346.59 C 724.61 340.37 737.76 333.91 751.35 328.42 C 748.99 321.57 746.74 314.30 748.10 306.99 C 748.62 304.25 752.33 302.98 754.49 304.72 C 761.77 310.21 764.50 319.51 766.27 328.05 C 767.09 331.29 765.52 334.44 764.42 337.42 C 763.28 340.17 760.19 340.91 757.67 341.83 C 743.90 347.33 730.60 353.89 717.22 360.25 C 717.87 361.98 718.53 363.72 719.19 365.46 C 723.59 364.21 727.83 362.48 732.19 361.09 C 748.69 354.07 765.83 348.73 782.81 343.01 C 777.73 328.98 771.79 315.24 764.89 302.01 C 762.78 298.27 764.41 292.93 768.09 290.83 C 771.77 289.66 776.41 291.58 778.05 295.13 C 783.85 306.62 789.32 318.28 793.83 330.34 C 796.04 336.24 799.56 342.49 797.56 348.94 C 797.16 351.57 795.57 354.16 792.91 354.98 C 779.65 359.80 766.17 364.00 752.91 368.80 C 743.44 372.45 734.06 376.31 724.39 379.38 C 724.05 380.60 724.68 381.81 724.93 382.99 C 728.33 394.24 730.76 405.76 732.69 417.35 C 740.62 416.07 748.67 415.47 756.54 413.79 C 757.93 411.48 760.07 409.22 762.97 409.22 C 767.36 408.60 771.51 412.65 771.03 417.06 C 771.52 421.00 770.65 425.94 766.33 427.35 C 755.77 429.07 745.13 430.41 734.55 432.00 C 734.74 434.05 734.93 436.11 735.13 438.17 C 749.59 436.69 764.06 435.16 778.60 434.83 C 778.57 427.64 779.16 420.14 782.76 413.76 C 784.02 411.24 788.02 411.01 789.57 413.35 C 794.60 420.89 793.75 430.48 792.83 439.05 C 792.77 442.40 790.17 444.79 788.12 447.13 C 785.87 449.80 782.09 449.19 779.01 449.53 C 764.57 449.84 750.21 451.46 735.85 452.87 C 735.92 454.78 736.00 456.71 736.10 458.63 C 747.74 459.13 759.37 458.33 771.01 458.52 C 781.76 458.44 792.51 458.93 803.26 459.05 C 803.31 444.76 802.37 430.47 800.57 416.30 C 799.63 412.94 800.49 409.35 803.18 407.06 C 805.39 404.29 809.54 404.70 811.85 407.11 C 815.43 409.49 815.08 414.08 815.63 417.84 C 817.15 433.43 818.67 449.15 817.60 464.81 C 816.05 468.54 813.79 473.55 809.11 473.71 C 795.73 473.96 782.36 473.01 768.98 473.24 C 757.88 473.06 746.77 473.95 735.67 473.25 C 735.01 486.27 733.48 499.25 731.00 512.06 C 738.77 513.51 746.47 515.30 754.26 516.67 C 755.99 515.58 757.79 514.19 759.98 514.45 C 764.37 514.23 768.14 518.70 767.19 523.00 C 766.31 526.33 765.42 530.40 762.01 532.07 C 758.73 533.79 755.13 531.92 751.83 531.29 C 743.84 529.65 735.83 528.14 727.86 526.39 C 727.35 528.31 726.84 530.23 726.35 532.17 C 737.99 535.51 749.73 538.47 761.39 541.74 C 763.41 542.37 765.36 543.21 767.30 544.09 C 769.92 539.93 770.93 534.95 774.03 531.04 C 776.18 528.21 778.82 523.90 782.98 524.92 C 785.01 525.70 785.79 527.89 785.92 529.90 C 786.81 538.97 782.83 547.65 778.15 555.15 C 775.09 557.56 771.32 560.57 767.17 559.20 C 752.29 554.31 737.11 550.34 721.93 546.53 C 721.36 548.36 720.79 550.19 720.24 552.04 C 735.55 558.34 751.66 562.47 766.85 569.06 C 772.03 571.04 777.25 572.95 782.32 575.21 C 783.76 572.48 784.84 569.59 785.75 566.66 C 789.30 554.95 792.76 543.20 795.43 531.26 C 796.33 528.38 799.27 526.59 802.02 525.79 C 806.35 524.73 809.13 529.29 809.76 532.93 C 809.64 537.90 807.78 542.61 806.66 547.41 C 803.11 560.20 799.97 573.24 794.19 585.25 C 791.41 588.74 787.03 592.79 782.19 590.79 C 768.55 585.93 755.34 579.87 741.56 575.37 C 732.66 572.15 723.50 569.60 714.85 565.73 C 709.80 577.71 703.98 589.36 697.31 600.53 C 703.72 604.61 710.20 608.59 716.72 612.50 C 719.11 612.13 721.80 611.41 724.01 612.82 C 727.78 614.73 729.05 620.17 726.52 623.54 C 724.60 626.14 722.46 629.37 718.89 629.53 C 715.98 629.98 713.62 628.05 711.32 626.63 C 703.97 622.09 696.60 617.59 689.27 613.03 C 688.18 614.74 687.06 616.44 685.93 618.13 C 697.39 626.26 709.31 633.83 720.22 642.71 C 724.89 637.88 729.49 632.67 735.68 629.76 C 738.10 628.49 741.56 629.23 742.36 632.13 C 742.50 637.98 739.48 643.41 735.88 647.83 C 732.64 650.92 729.94 654.70 726.10 657.10 C 723.23 658.03 720.12 658.79 717.09 658.34 C 713.40 656.85 710.73 653.72 707.54 651.45 C 697.47 644.14 687.31 636.96 676.96 630.05 C 675.69 631.63 674.44 633.24 673.21 634.86 C 690.46 648.46 707.32 662.58 723.50 677.44 C 733.45 665.55 742.50 652.94 750.98 639.97 C 753.96 636.97 760.47 636.06 762.93 640.15 C 764.03 643.11 764.36 646.79 762.42 649.49 C 758.19 656.17 753.47 662.53 749.01 669.04 C 742.95 676.31 737.93 684.52 730.81 690.82 C 727.28 692.77 722.47 694.94 718.75 692.29 C 711.23 686.91 704.80 680.20 697.75 674.25 C 686.42 664.63 675.00 655.10 663.36 645.84 C 654.71 655.45 645.21 664.31 635.13 672.40 C 639.81 678.15 644.19 684.12 648.86 689.87 C 655.05 688.83 660.03 696.21 656.42 701.45 C 653.06 705.25 646.62 709.11 642.00 705.04 C 635.68 697.27 629.65 689.26 623.37 681.45 C 621.70 682.66 620.04 683.87 618.38 685.09 C 626.40 696.41 634.66 707.61 641.93 719.44 C 648.43 715.91 655.39 712.45 662.98 712.64 C 665.35 712.96 666.91 715.76 666.04 717.98 C 664.33 722.58 660.32 725.80 656.40 728.49 C 652.18 731.01 647.76 733.43 642.98 734.66 C 639.53 734.60 635.41 734.79 632.70 732.28 C 630.26 729.25 628.64 725.66 626.46 722.45 C 619.61 712.70 613.08 702.73 605.88 693.24 C 604.14 694.24 602.40 695.26 600.66 696.27 C 612.09 714.85 622.85 733.83 633.19 753.04 C 646.08 745.56 658.48 737.26 670.33 728.23 C 672.94 726.06 676.64 726.58 679.68 727.38 C 684.55 729.59 683.05 736.77 679.76 739.72 C 666.73 749.57 653.15 758.73 638.90 766.74 C 633.65 769.44 624.91 770.12 622.17 763.62 C 610.95 743.35 600.00 722.91 587.48 703.40 C 576.16 709.35 564.33 714.37 552.18 718.36 C 553.77 725.54 556.40 732.44 558.56 739.47 C 563.71 740.43 566.38 746.94 563.26 751.19 C 561.31 754.28 557.34 754.40 554.09 754.70 C 551.00 755.23 547.71 753.35 546.60 750.42 C 543.76 741.22 540.45 732.17 537.84 722.89 C 535.74 723.48 533.64 724.10 531.56 724.74 C 535.65 738.01 538.85 751.54 542.32 764.97 C 548.82 763.63 555.78 762.95 562.27 764.71 C 565.48 765.25 567.44 769.46 564.96 771.92 C 557.70 778.40 547.41 779.69 538.05 779.44 C 534.42 778.31 529.77 776.74 528.57 772.67 C 525.68 757.52 521.27 742.73 517.20 727.87 C 515.20 728.24 513.22 728.62 511.24 729.00 C 515.29 750.38 519.49 771.74 522.21 793.36 C 537.05 790.79 551.56 786.78 566.07 782.77 C 570.47 781.50 577.14 784.78 576.24 790.04 C 575.46 793.12 573.30 796.37 569.97 797.04 C 558.03 800.01 546.31 803.91 534.16 805.97 C 527.83 806.98 521.14 809.71 514.84 807.15 C 512.16 806.43 509.35 804.75 508.81 801.81 C 505.81 784.18 503.81 766.36 499.86 748.90 C 499.02 742.91 497.69 737.02 496.58 731.09 C 483.73 732.68 470.76 733.15 457.81 732.98 C 457.32 740.22 456.95 747.48 457.03 754.74 C 462.11 757.96 461.58 766.63 455.60 768.44 C 450.62 769.26 442.85 768.41 442.06 762.14 C 442.31 752.12 442.39 742.09 443.10 732.09 C 440.96 731.89 438.83 731.69 436.71 731.49 C 435.91 741.69 435.02 751.89 433.98 762.08 C 433.68 765.70 433.40 769.33 432.44 772.85 C 439.34 774.69 446.81 775.86 452.44 780.64 C 454.93 782.27 454.46 786.60 451.66 787.66 C 443.59 791.04 434.54 789.13 426.55 786.48 C 422.77 785.48 419.94 782.41 417.84 779.29 C 416.23 774.66 418.60 769.82 418.90 765.13 C 419.98 753.25 421.42 741.39 421.94 729.47 C 420.02 729.15 418.10 728.84 416.19 728.52 C 414.57 735.56 413.78 742.74 412.53 749.84 C 410.37 764.37 407.24 778.74 404.35 793.15 C 419.14 795.64 434.08 797.48 449.07 798.26 C 452.57 798.22 455.22 801.17 456.61 804.10 C 457.93 808.35 453.89 811.98 450.16 812.92 C 438.34 812.74 426.58 811.21 414.88 809.63 C 408.50 808.76 401.97 808.28 395.89 806.06 C 393.66 804.72 391.62 803.01 389.92 801.06 C 387.90 798.43 388.97 795.02 389.55 792.11 C 392.43 777.47 395.67 762.90 397.90 748.14 C 399.19 740.56 400.04 732.91 401.80 725.42 C 389.13 722.42 376.70 718.40 364.62 713.55 C 361.94 720.69 358.88 727.68 356.02 734.75 C 359.75 739.48 356.32 747.54 350.02 747.05 C 344.89 746.29 338.19 742.17 339.60 736.06 C 343.23 726.50 347.45 717.18 351.01 707.59 C 349.10 706.71 347.19 705.84 345.27 704.99 C 339.58 718.05 333.68 731.03 327.02 743.62 C 332.95 746.86 338.52 751.04 342.49 756.58 C 343.87 758.28 344.16 760.95 342.54 762.61 C 340.83 764.45 338.07 763.69 335.87 763.65 C 331.17 762.98 326.60 761.12 322.76 758.33 C 319.60 756.20 316.10 754.34 313.71 751.31 C 312.06 747.94 310.02 743.71 312.10 740.09 C 319.54 726.41 326.04 712.25 332.16 697.95 C 330.59 697.03 329.02 696.10 327.46 695.20 C 320.56 705.61 315.34 717.02 308.74 727.61 C 303.76 736.11 298.63 744.53 293.26 752.80 C 306.50 759.83 319.74 766.93 333.68 772.49 C 338.17 774.23 340.90 781.41 336.87 784.91 C 334.27 786.58 330.78 787.47 327.85 786.15 C 318.16 782.04 308.57 777.70 299.31 772.69 C 293.31 769.41 286.85 766.73 281.56 762.31 C 278.93 758.96 275.68 754.40 277.97 750.04 C 283.22 740.46 289.51 731.49 294.86 721.97 C 302.01 710.67 307.57 698.45 314.95 687.29 C 304.13 680.13 293.97 672.02 284.24 663.46 C 279.03 669.57 273.30 675.19 268.22 681.40 C 268.24 683.87 268.52 686.68 266.67 688.64 C 263.81 692.37 257.39 692.18 254.81 688.22 C 252.12 685.33 249.78 681.04 252.10 677.22 C 259.11 669.10 266.46 661.24 273.52 653.13 C 272.07 651.67 270.64 650.21 269.20 648.76 C 258.91 659.09 249.17 670.05 237.91 679.35 C 242.06 685.44 247.37 691.30 248.22 698.97 C 248.56 701.64 245.62 703.97 243.08 703.08 C 234.32 700.33 228.42 692.60 223.85 685.06 C 221.96 682.40 222.48 678.98 222.54 675.92 C 222.60 672.88 225.27 671.03 227.28 669.18 C 238.68 659.49 248.66 648.29 259.35 637.86 C 258.17 636.40 256.99 634.95 255.81 633.51 C 251.59 636.33 247.96 639.89 244.11 643.17 C 237.55 648.93 230.84 654.52 224.15 660.14 C 217.46 665.97 210.11 670.98 203.35 676.74 C 212.98 688.64 223.86 699.47 234.95 709.99 C 237.51 713.41 237.58 720.13 232.94 721.89 C 229.65 722.33 225.82 722.30 223.48 719.57 C 216.77 712.87 209.76 706.45 203.41 699.40 C 198.42 693.38 192.45 688.10 188.62 681.19 C 187.73 678.60 187.16 675.83 187.28 673.09 C 187.55 669.79 190.71 668.16 192.98 666.26 C 197.63 662.18 202.48 658.32 207.48 654.66 C 220.92 644.11 233.39 632.39 246.67 621.64 C 239.06 611.32 232.27 600.41 226.25 589.09 C 218.68 593.10 211.03 596.94 203.65 601.29 C 203.50 607.91 194.23 610.87 190.30 605.60 C 188.37 602.05 186.18 597.42 188.45 593.52 C 190.08 590.56 193.78 590.13 196.40 588.40 C 203.95 583.84 211.95 580.12 219.58 575.73 C 218.76 573.93 217.94 572.15 217.12 570.38 C 203.56 577.01 189.83 583.29 175.91 589.14 C 178.12 595.83 180.45 602.83 179.23 609.97 C 179.06 611.69 177.71 613.38 175.93 613.58 C 173.00 614.19 171.09 611.41 169.29 609.60 C 164.17 603.20 161.64 595.05 160.74 587.00 C 161.47 583.17 162.58 578.30 166.78 576.90 C 181.94 570.72 196.74 563.75 211.52 556.72 C 210.94 555.04 210.36 553.36 209.79 551.69 C 201.38 553.83 193.36 557.23 185.32 560.46 C 171.76 565.51 158.12 570.34 144.26 574.52 C 149.62 588.23 155.00 601.97 162.10 614.90 C 164.40 618.50 163.15 623.48 160.04 626.18 C 157.72 627.77 154.62 626.95 152.33 625.70 C 149.99 624.66 149.14 622.11 148.03 620.02 C 142.53 609.53 137.71 598.67 133.55 587.58 C 131.27 581.75 127.84 575.50 129.60 569.09 C 129.92 566.27 131.48 563.41 134.33 562.51 C 146.77 557.90 159.59 554.47 171.93 549.57 C 183.09 545.86 193.70 540.54 205.13 537.61 C 201.63 525.19 198.76 512.59 196.91 499.82 C 188.17 501.01 179.46 502.33 170.73 503.60 C 169.36 506.08 167.04 508.44 163.97 508.29 C 159.95 508.71 156.07 505.15 156.24 501.10 C 156.21 498.05 155.72 494.48 158.07 492.09 C 160.81 489.02 165.32 489.72 169.00 489.00 C 177.70 487.60 186.45 486.53 195.15 485.10 C 194.98 483.11 194.81 481.13 194.63 479.15 C 179.34 480.64 164.04 482.38 148.66 482.75 C 148.69 489.83 148.19 497.27 144.64 503.57 C 143.46 506.20 139.42 506.69 137.71 504.38 C 133.61 498.51 133.51 490.97 133.86 484.09 C 134.23 480.28 134.37 476.04 137.00 472.99 C 138.62 470.64 140.78 468.12 143.92 468.24 C 160.70 467.80 177.43 466.16 194.12 464.39 C 194.03 462.65 193.96 460.92 193.87 459.19 C 182.94 458.03 171.95 459.32 160.99 458.97 C 148.65 459.16 136.32 458.76 123.99 458.41 C 124.10 473.30 124.86 488.21 126.90 502.97 C 127.71 506.52 125.26 509.75 122.54 511.72 C 118.55 513.72 113.97 510.32 112.61 506.57 C 110.28 492.52 109.88 478.24 109.24 464.03 C 109.30 458.65 108.86 452.76 112.03 448.09 C 113.25 445.44 115.95 443.48 118.95 443.76 C 137.94 443.89 156.92 444.73 175.91 444.09 C 182.10 443.97 188.30 443.86 194.47 444.41 C 195.17 431.57 196.84 418.79 199.33 406.18 C 190.54 404.94 182.06 402.17 173.27 400.90 C 170.17 403.69 164.95 404.38 161.96 401.06 C 158.18 397.11 160.60 391.05 163.07 387.08 C 166.72 382.77 172.40 385.75 176.90 386.53 C 185.49 387.99 193.89 390.33 202.46 391.92 C 203.02 390.01 203.59 388.10 204.14 386.18 C 189.33 381.91 174.20 378.80 159.63 373.65 C 156.95 380.37 153.96 387.44 148.12 392.04 C 145.90 393.93 142.05 392.45 141.63 389.56 C 139.76 380.03 144.30 370.83 148.80 362.74 C 151.87 359.90 156.21 356.69 160.61 358.48 C 176.33 363.91 192.50 367.83 208.60 371.90 C 209.11 370.29 209.63 368.67 210.15 367.07 C 203.84 363.87 197.00 361.98 190.37 359.60 C 174.90 354.55 159.93 348.14 144.69 342.50 C 143.12 345.70 142.11 349.11 141.22 352.55 C 137.50 363.15 134.80 374.08 132.11 384.98 C 131.63 388.97 127.59 391.30 124.01 392.07 C 119.13 391.41 116.55 385.50 117.80 381.09 C 119.83 372.75 122.13 364.46 124.44 356.18 C 127.40 347.94 129.18 339.20 133.52 331.52 C 136.41 328.64 140.09 324.89 144.60 326.56 C 162.69 333.35 180.52 340.90 198.90 346.91 C 204.51 348.94 210.34 350.43 215.58 353.34 C 220.56 341.43 226.42 329.89 233.08 318.83 C 225.53 314.34 218.24 309.42 210.59 305.08 C 207.74 306.01 204.32 306.24 201.96 304.06 C 198.54 301.23 198.78 295.80 201.74 292.74 C 203.74 289.06 208.34 286.49 212.35 288.69 C 221.97 294.47 231.44 300.52 241.05 306.32 C 242.13 304.72 243.21 303.12 244.29 301.52 C 231.76 292.75 218.96 284.31 206.98 274.78 C 202.11 280.15 197.10 286.03 189.95 288.31 C 187.33 289.17 184.34 286.76 184.78 284.01 C 186.00 275.24 192.11 268.27 198.46 262.57 C 201.40 259.59 205.89 258.88 209.89 259.09 C 213.11 260.13 215.46 262.77 218.10 264.78 C 229.54 273.44 241.42 281.49 253.20 289.67 C 254.32 288.30 255.43 286.94 256.55 285.57 C 244.97 274.37 231.55 265.28 219.68 254.40 C 214.45 249.59 208.79 245.26 203.87 240.12 C 193.94 251.68 185.16 264.15 176.77 276.86 C 173.77 281.31 164.08 281.63 163.68 275.02 C 162.40 270.40 165.62 266.55 168.14 263.06 C 172.40 257.57 175.67 251.36 180.16 246.03 C 185.58 239.56 190.14 232.29 196.47 226.64 C 199.72 224.87 203.82 222.97 207.49 224.59 C 211.73 227.20 215.32 230.71 218.96 234.08 C 227.57 241.47 235.85 249.24 244.80 256.21 C 252.25 261.97 259.38 268.10 266.48 274.28 C 275.01 264.81 284.41 256.15 294.22 248.02 C 289.19 241.03 283.63 234.45 278.46 227.57 C 276.50 227.44 274.36 227.53 272.75 226.22 C 268.86 223.63 268.57 217.12 272.42 214.37 C 275.22 212.43 278.34 210.01 281.98 210.82 C 284.64 211.18 286.23 213.46 287.58 215.53 C 293.91 223.19 300.02 231.02 306.03 238.94 C 307.70 237.74 309.37 236.51 311.03 235.28 C 303.97 226.14 297.70 216.41 290.98 207.03 C 288.92 204.23 287.15 201.23 285.50 198.18 C 279.07 201.40 272.40 205.19 264.94 204.80 C 261.84 205.00 259.81 201.03 261.57 198.56 C 266.35 190.28 275.41 186.08 283.99 182.87 C 287.57 182.81 291.90 182.66 294.67 185.35 C 297.38 189.05 299.40 193.22 302.04 196.98 C 309.18 207.03 316.03 217.28 323.33 227.21 C 324.84 226.35 326.36 225.49 327.89 224.65 C 323.33 214.49 316.68 205.45 311.42 195.66 C 305.28 185.51 299.90 174.93 294.10 164.59 C 280.86 172.19 268.21 180.79 255.96 189.88 C 252.36 191.60 246.34 191.27 244.65 186.99 C 244.12 183.47 245.08 179.26 248.24 177.21 C 257.34 170.19 267.05 164.04 276.61 157.70 C 281.67 154.71 286.66 151.49 292.10 149.23 C 296.29 148.69 301.96 148.18 304.30 152.59 C 313.16 168.08 321.19 184.08 330.72 199.18 C 333.98 205.30 338.06 210.97 340.96 217.29 C 352.36 211.37 364.20 206.31 376.31 202.03 C 373.71 194.16 371.51 186.16 368.66 178.38 C 366.88 177.57 364.91 176.78 363.86 175.02 C 361.15 171.10 363.23 164.70 368.10 163.77 C 372.11 162.58 377.54 161.71 380.11 165.95 C 383.89 176.34 386.84 187.08 390.55 197.51 C 392.52 196.97 394.50 196.43 396.49 195.91 C 392.46 181.62 388.41 167.33 385.19 152.83 C 378.08 153.96 370.53 154.98 363.64 152.29 C 360.60 151.23 360.31 146.68 362.95 145.01 C 370.49 138.95 380.70 138.02 390.02 138.10 C 393.69 139.55 398.46 141.43 398.94 145.96 C 401.69 161.67 406.99 176.77 410.43 192.30 C 412.32 192.14 414.20 191.90 416.07 191.59 C 414.41 174.56 409.50 157.99 407.50 140.98 C 406.59 135.48 405.71 129.98 405.09 124.45 C 389.82 126.72 374.87 130.86 360.08 135.23 C 355.68 135.76 349.65 132.20 351.10 127.09 C 352.09 124.67 353.54 122.00 356.16 121.09 C 363.54 118.48 371.20 116.82 378.73 114.69 C 388.78 112.80 398.66 109.57 408.96 109.30 C 412.55 110.26 417.31 111.31 418.39 115.46 C 420.95 129.97 422.54 144.64 425.48 159.08 C 427.45 169.08 429.57 179.08 430.82 189.19 C 443.65 187.53 456.60 186.95 469.53 186.93 C 469.60 178.79 470.36 170.66 470.29 162.50 C 465.17 159.29 466.17 150.63 472.07 148.97 C 476.86 148.39 483.78 149.44 485.14 155.02 C 485.12 165.90 484.60 176.78 484.18 187.65 C 486.27 187.85 488.35 188.05 490.44 188.27 C 491.12 176.81 492.33 165.40 493.41 153.99 C 493.61 150.82 493.98 147.66 494.84 144.60 C 487.80 142.80 480.02 141.67 474.57 136.41 C 472.50 134.61 473.14 130.76 475.71 129.76 C 483.58 126.58 492.36 128.31 500.17 130.82 C 504.24 131.79 507.31 135.03 509.53 138.40 C 510.81 142.60 508.92 146.94 508.51 151.14 C 507.17 164.07 505.92 177.03 505.02 190.00 C 506.88 190.29 508.75 190.59 510.62 190.88 C 511.63 186.24 512.72 181.60 513.27 176.87 C 515.79 159.22 519.48 141.76 522.79 124.24 C 507.63 121.92 492.37 120.03 477.04 119.36 C 474.09 118.95 472.08 116.32 470.73 113.89 Z"></path></svg>