<svg fill="#FFFFFF" xmlns="http://www.w3.org/2000/svg" xmlns:xlink="http://www.w3.org/1999/xlink" version="1.1" x="0px" y="0px" viewBox="0 0 100 100" enable-background="new 0 0 100 100" xml:space="preserve"><rect fill="none" width="100" height="100"></rect><g><circle cx="50" cy="50" r="21.717"></circle><path d="M50,18.714c-2.63,0-4.761,1.184-4.761,2.646h9.52C54.76,19.898,52.629,18.714,50,18.714z"></path><path d="M50,15.439c-1.991,0-3.605,0.896-3.605,2.002h7.208C53.604,16.335,51.99,15.439,50,15.439z"></path><path d="M50,13.04c-1.483,0-2.685,0.667-2.685,1.491h5.368C52.684,13.707,51.482,13.04,50,13.04z"></path><path d="M31.557,27.578l8.247-4.762c-0.731-1.263-3.168-1.225-5.445,0.09C32.08,24.221,30.826,26.312,31.557,27.578z"></path><path d="M30.599,23.605l6.243-3.604c-0.553-0.958-2.399-0.928-4.123,0.068C30.995,21.065,30.046,22.648,30.599,23.605z"></path><path d="M34.59,17.94c-0.412-0.713-1.787-0.691-3.07,0.051c-1.284,0.741-1.991,1.921-1.579,2.634L34.59,17.94z"></path><path d="M22.817,39.802l4.76-8.244c-1.265-0.731-3.355,0.522-4.67,2.799C21.592,36.635,21.551,39.073,22.817,39.802z"></path><path d="M20,36.842l3.606-6.243c-0.958-0.553-2.542,0.396-3.538,2.12C19.074,34.444,19.043,36.29,20,36.842z"></path><path d="M17.94,34.59l2.685-4.649c-0.713-0.412-1.893,0.295-2.634,1.578C17.25,32.804,17.227,34.178,17.94,34.59z"></path><path d="M21.359,54.76v-9.52c-1.46,0-2.644,2.131-2.644,4.76C18.715,52.629,19.898,54.76,21.359,54.76z"></path><path d="M17.442,46.396c-1.107,0-2.003,1.613-2.003,3.604c0,1.991,0.896,3.606,2.003,3.606V46.396z"></path><path d="M13.04,50c0,1.483,0.668,2.684,1.492,2.684v-5.369C13.708,47.315,13.04,48.517,13.04,50z"></path><path d="M22.907,65.643c1.314,2.275,3.405,3.529,4.67,2.801l-4.76-8.246C21.551,60.928,21.592,63.365,22.907,65.643z"></path><path d="M20.069,67.279c0.996,1.725,2.579,2.674,3.538,2.121L20,63.158C19.043,63.711,19.074,65.557,20.069,67.279z"></path><path d="M17.991,68.48c0.741,1.283,1.921,1.99,2.634,1.578l-2.685-4.65C17.227,65.822,17.25,67.197,17.991,68.48z"></path><path d="M34.358,77.094c2.277,1.314,4.714,1.355,5.445,0.09l-8.247-4.76C30.826,73.688,32.08,75.779,34.358,77.094z"></path><path d="M32.719,79.932c1.724,0.994,3.57,1.025,4.123,0.068l-6.243-3.605C30.046,77.352,30.995,78.936,32.719,79.932z"></path><path d="M31.52,82.008c1.283,0.742,2.658,0.766,3.07,0.053l-4.649-2.686C29.529,80.088,30.236,81.268,31.52,82.008z"></path><path d="M50,81.285c2.628,0,4.759-1.184,4.759-2.645h-9.52C45.24,80.102,47.371,81.285,50,81.285z"></path><path d="M50,84.561c1.99,0,3.603-0.896,3.603-2.002h-7.208C46.395,83.664,48.009,84.561,50,84.561z"></path><path d="M50,86.961c1.482,0,2.683-0.668,2.683-1.492h-5.368C47.316,86.293,48.517,86.961,50,86.961z"></path><path d="M68.441,72.424l-8.244,4.76c0.73,1.266,3.168,1.225,5.445-0.09S69.174,73.688,68.441,72.424z"></path><path d="M69.4,76.395L63.158,80c0.553,0.957,2.398,0.926,4.123-0.068C69.004,78.936,69.953,77.352,69.4,76.395z"></path><path d="M65.41,82.061c0.412,0.713,1.785,0.689,3.07-0.053c1.283-0.74,1.99-1.92,1.578-2.633L65.41,82.061z"></path><path d="M74.645,56.604c1.486-1.004,2.539-3.582,2.539-6.604c0-3.021-1.053-5.6-2.539-6.604c0.783-1.61,0.408-4.371-1.102-6.987   c-1.512-2.617-3.715-4.321-5.502-4.449c-0.127-1.787-1.832-3.991-4.449-5.501c-2.615-1.511-5.377-1.885-6.988-1.103   C55.6,23.87,53.021,22.815,50,22.815c-3.022,0-5.601,1.055-6.604,2.539c-1.612-0.782-4.372-0.408-6.989,1.103   c-2.617,1.51-4.321,3.714-4.449,5.501c-1.787,0.128-3.991,1.832-5.502,4.449c-1.51,2.617-1.885,5.377-1.102,6.987   c-1.483,1.005-2.54,3.583-2.54,6.604c0,3.022,1.057,5.6,2.54,6.604c-0.783,1.611-0.408,4.373,1.102,6.988   c1.511,2.617,3.715,4.322,5.502,4.449c0.128,1.787,1.832,3.99,4.449,5.502c2.617,1.51,5.377,1.887,6.989,1.102   c1.003,1.484,3.582,2.541,6.604,2.541c3.021,0,5.599-1.057,6.603-2.541c1.611,0.785,4.373,0.408,6.988-1.102   c2.617-1.512,4.322-3.715,4.449-5.502c1.787-0.127,3.99-1.832,5.502-4.449C75.053,60.977,75.428,58.215,74.645,56.604z    M73.266,56.234l-6.232,10.797l-10.799,6.234H43.766l-10.798-6.234l-6.235-10.797V43.766l6.235-10.799l10.798-6.234h12.468   l10.799,6.234l6.232,10.798V56.234z"></path><path d="M77.184,60.197l-4.762,8.246c1.266,0.73,3.357-0.525,4.672-2.801C78.408,63.365,78.447,60.928,77.184,60.197z"></path><path d="M79.998,63.158L76.395,69.4c0.957,0.553,2.541-0.396,3.535-2.121C80.926,65.557,80.957,63.711,79.998,63.158z"></path><path d="M82.061,65.408l-2.686,4.65c0.713,0.412,1.893-0.295,2.633-1.578C82.75,67.197,82.773,65.822,82.061,65.408z"></path><path d="M78.641,45.24v9.52c1.461,0,2.645-2.131,2.645-4.76C81.285,47.371,80.102,45.24,78.641,45.24z"></path><path d="M82.559,46.396v7.209c1.105,0,2.002-1.615,2.002-3.606C84.561,48.009,83.664,46.396,82.559,46.396z"></path><path d="M85.471,47.315v5.369c0.822,0,1.49-1.201,1.49-2.684C86.961,48.517,86.293,47.315,85.471,47.315z"></path><path d="M77.094,34.357c-1.314-2.277-3.406-3.531-4.672-2.799l4.762,8.244C78.447,39.073,78.408,36.635,77.094,34.357z"></path><path d="M79.93,32.719c-0.994-1.724-2.578-2.673-3.535-2.12l3.604,6.243C80.957,36.29,80.926,34.444,79.93,32.719z"></path><path d="M82.008,31.519c-0.74-1.283-1.92-1.99-2.633-1.578l2.686,4.649C82.773,34.178,82.75,32.804,82.008,31.519z"></path><path d="M65.643,22.905c-2.277-1.314-4.715-1.353-5.445-0.09l8.244,4.762C69.174,26.312,67.92,24.221,65.643,22.905z"></path><path d="M67.281,20.07c-1.725-0.996-3.57-1.026-4.123-0.068l6.242,3.604C69.953,22.648,69.004,21.065,67.281,20.07z"></path><path d="M68.48,17.991c-1.285-0.742-2.658-0.764-3.07-0.051l4.648,2.685C70.471,19.912,69.764,18.732,68.48,17.991z"></path></g></svg>