<svg fill="#FFFFFF" xmlns="http://www.w3.org/2000/svg" viewBox="0 0 920 920" version="1.1" x="0px" y="0px"><path fill="#FFFFFF" opacity="1.00" d=" M 476.38 50.49 C 481.28 48.18 487.56 52.52 486.79 57.97 C 486.73 63.75 479.04 66.96 474.74 63.26 C 470.35 60.09 471.31 52.45 476.38 50.49 Z"></path><path fill="#FFFFFF" opacity="1.00" d=" M 338.26 69.19 C 342.86 67.17 348.78 70.81 348.55 75.96 C 349.12 81.94 341.39 85.81 336.76 82.23 C 332.06 79.17 332.95 71.08 338.26 69.19 Z"></path><path fill="#FFFFFF" opacity="1.00" d=" M 612.33 80.15 C 617.04 77.65 623.52 81.57 623.05 87.00 C 623.35 92.61 616.34 96.30 611.74 93.29 C 606.77 90.59 607.11 82.38 612.33 80.15 Z"></path><path fill="#FFFFFF" opacity="1.00" d=" M 494.26 82.05 C 499.01 79.72 505.29 83.69 504.80 89.06 C 505.08 94.92 497.43 98.52 492.94 94.92 C 488.41 91.89 489.17 84.08 494.26 82.05 Z"></path><path fill="#FFFFFF" opacity="1.00" d=" M 365.33 93.28 C 370.03 90.54 376.78 94.43 376.30 99.98 C 376.65 105.74 369.30 109.41 364.73 106.13 C 360.10 103.34 360.44 95.60 365.33 93.28 Z"></path><path fill="#FFFFFF" opacity="1.00" d=" M 417.09 109.93 C 414.38 105.54 417.78 99.03 423.00 98.97 C 426.57 98.47 429.18 101.31 431.74 103.30 C 443.14 113.55 453.85 124.53 464.69 135.36 C 481.06 152.82 495.84 171.69 510.20 190.82 C 512.16 191.20 514.12 191.58 516.08 191.99 C 502.48 172.58 489.32 152.85 475.69 133.47 C 472.45 129.72 468.09 125.47 469.13 120.03 C 470.16 114.63 477.80 112.49 481.53 116.50 C 487.05 123.10 491.38 130.58 496.57 137.43 C 510.06 157.36 523.80 177.13 537.51 196.90 C 541.19 198.04 544.89 199.12 548.54 200.38 C 544.26 193.06 539.90 185.79 535.47 178.56 C 531.94 172.46 526.72 167.43 523.93 160.89 C 522.37 156.03 526.82 150.67 531.90 151.47 C 536.42 151.69 538.21 156.36 540.50 159.51 C 549.33 171.93 556.79 185.25 564.42 198.42 C 566.31 201.60 567.75 205.08 570.04 208.01 C 573.34 210.21 577.25 211.32 580.73 213.20 C 575.44 197.05 569.66 181.07 563.58 165.19 C 557.72 152.00 551.25 139.09 544.96 126.10 C 542.59 121.73 538.50 117.49 539.35 112.13 C 540.34 106.47 548.53 104.39 552.12 108.85 C 556.61 115.08 559.34 122.34 562.88 129.10 C 567.95 139.72 573.32 150.21 577.83 161.07 C 585.49 181.32 592.99 201.66 598.76 222.55 C 600.67 223.69 602.58 224.84 604.45 226.06 C 600.50 214.33 598.29 202.10 594.94 190.20 C 591.99 179.31 589.31 168.34 586.20 157.50 C 584.65 152.99 582.46 148.03 584.06 143.25 C 586.27 137.55 595.57 137.51 597.63 143.33 C 606.48 174.33 613.66 205.78 622.51 236.78 C 624.42 240.48 628.91 242.01 631.77 244.94 C 629.75 235.32 628.67 225.51 625.99 216.05 C 624.49 211.13 623.32 206.12 622.35 201.07 C 621.34 196.65 625.53 192.22 629.97 192.71 C 632.83 192.68 635.60 194.65 636.50 197.37 C 638.58 203.60 639.51 210.13 641.35 216.43 C 644.49 230.76 646.46 245.33 649.46 259.68 C 651.87 262.78 655.03 265.20 657.72 268.05 C 658.37 243.32 658.99 218.49 655.92 193.89 C 654.74 185.52 655.13 176.89 652.56 168.76 C 651.93 164.86 651.45 159.76 655.11 157.14 C 659.00 154.02 665.77 156.10 666.75 161.13 C 669.11 172.20 669.43 183.58 670.83 194.79 C 674.00 224.03 673.31 253.56 671.37 282.87 C 672.72 284.65 674.09 286.41 675.43 288.20 C 677.20 264.44 680.31 240.79 681.96 217.02 C 681.88 212.61 681.54 207.73 684.06 203.87 C 687.40 199.45 695.34 200.73 696.93 206.12 C 697.93 212.74 696.47 219.42 695.99 226.04 C 694.54 245.44 692.01 264.74 690.54 284.14 C 689.91 291.38 688.84 298.64 688.90 305.91 C 690.63 309.21 692.94 312.17 694.76 315.42 C 696.06 308.31 697.11 301.15 698.37 294.03 C 699.82 286.11 699.43 277.96 701.09 270.07 C 701.92 266.67 705.59 264.49 709.00 264.98 C 712.90 265.24 716.04 269.09 715.48 272.99 C 713.96 292.73 710.42 312.24 706.70 331.68 C 705.11 336.83 709.50 341.08 711.09 345.68 C 722.81 317.92 732.43 289.25 738.88 259.79 C 740.77 254.14 739.60 247.46 743.55 242.57 C 747.52 238.25 755.88 240.87 756.24 246.86 C 756.13 254.67 753.15 262.02 751.75 269.63 C 748.51 282.19 745.45 294.81 741.33 307.11 C 734.85 326.72 727.24 345.95 719.07 364.91 C 719.73 366.89 720.40 368.87 721.03 370.87 C 730.84 349.27 741.48 328.06 751.44 306.52 C 752.98 302.60 754.06 298.22 757.24 295.23 C 761.14 291.96 767.95 294.07 769.09 299.11 C 769.97 303.57 767.05 307.54 765.49 311.50 C 753.31 337.29 740.88 362.95 728.85 388.81 C 726.23 393.33 729.51 398.31 730.00 403.01 C 735.07 393.45 740.93 384.29 745.38 374.40 C 747.05 370.50 748.90 366.68 750.98 362.98 C 753.05 359.30 758.56 358.65 761.76 361.22 C 764.29 363.13 765.27 366.80 764.03 369.73 C 755.69 388.77 744.84 406.55 734.53 424.55 C 733.32 428.67 735.01 433.09 735.06 437.34 C 744.16 426.69 753.61 416.34 762.27 405.32 C 772.09 393.86 779.85 380.86 788.56 368.57 C 790.44 365.76 792.74 363.16 793.94 359.95 C 795.20 356.33 797.87 353.04 801.32 351.33 C 806.58 349.21 812.68 354.43 811.15 359.97 C 809.71 363.95 807.24 367.46 804.93 370.97 C 796.52 382.90 788.54 395.14 780.01 407.00 C 766.08 424.55 751.39 441.49 736.02 457.79 C 735.98 459.86 735.94 461.93 735.90 464.02 C 750.08 449.49 764.72 435.42 779.14 421.14 C 782.46 417.78 785.96 414.58 788.89 410.85 C 791.44 407.98 794.59 404.38 798.89 405.28 C 804.74 405.89 807.16 413.99 802.91 417.92 C 794.06 427.70 784.29 436.60 775.00 445.96 C 762.26 458.53 749.50 471.09 736.88 483.79 C 732.96 487.01 734.75 492.81 733.39 497.17 C 740.98 490.14 749.30 483.91 756.53 476.48 C 759.72 473.05 763.15 469.83 766.74 466.80 C 771.23 463.60 778.36 467.39 778.05 472.97 C 778.42 476.83 774.94 479.18 772.59 481.64 C 759.85 494.32 746.02 505.82 732.13 517.21 C 727.71 520.23 728.45 526.36 726.66 530.88 C 748.85 519.23 770.66 506.74 790.77 491.74 C 796.15 487.78 801.83 484.18 806.93 479.86 C 810.10 476.31 814.48 472.26 819.65 473.41 C 824.72 474.56 826.91 481.61 823.32 485.38 C 819.02 489.81 813.93 493.37 808.92 496.94 C 799.50 503.89 789.83 510.47 780.26 517.19 C 763.28 527.91 745.73 537.71 727.89 546.94 C 725.55 548.27 722.85 549.03 720.74 550.74 C 719.82 552.42 719.29 554.28 718.65 556.08 C 738.63 546.98 758.64 537.93 778.59 528.77 C 783.41 526.68 787.62 522.95 792.95 522.22 C 797.60 521.65 801.70 526.38 800.72 530.92 C 800.29 534.87 796.30 536.63 793.19 538.20 C 766.42 550.91 739.25 562.72 712.43 575.32 C 708.08 577.35 707.58 582.88 705.15 586.57 C 715.98 582.45 727.03 578.80 737.32 573.40 C 741.72 572.08 746.44 568.29 751.08 570.86 C 756.05 573.35 756.08 581.60 750.90 583.86 C 732.43 592.53 713.25 599.59 693.96 606.19 C 691.64 609.58 689.38 613.01 687.14 616.45 C 704.50 613.84 721.88 611.21 738.99 607.25 C 750.67 604.13 762.33 600.93 773.96 597.62 C 779.69 596.43 784.71 592.04 790.86 593.15 C 796.41 594.36 798.25 602.36 793.89 605.93 C 790.91 608.05 787.30 608.99 783.89 610.15 C 769.59 614.12 755.35 618.34 740.95 621.94 C 722.76 625.98 704.34 628.83 685.90 631.46 C 682.26 632.12 678.42 631.72 674.92 632.95 C 673.31 634.27 672.14 636.02 670.85 637.62 C 681.52 636.37 692.27 635.83 702.98 634.93 C 716.96 633.46 731.13 633.43 744.98 630.85 C 748.11 630.60 751.84 630.24 754.28 632.67 C 757.47 635.55 757.29 641.23 753.92 643.90 C 751.66 645.64 748.67 645.74 745.98 646.16 C 717.34 648.67 688.66 650.66 660.02 653.13 C 654.37 652.87 651.71 658.69 647.65 661.58 C 654.75 661.58 661.84 661.30 668.94 661.27 C 676.62 661.29 684.21 659.14 691.91 659.98 C 695.24 660.98 697.52 664.50 697.02 667.97 C 696.80 671.56 693.57 674.44 690.01 674.54 C 670.46 676.70 650.76 676.01 631.14 676.34 C 627.18 677.87 624.22 681.31 620.56 683.47 C 637.91 687.24 655.39 690.55 673.02 692.64 C 685.70 693.84 698.39 694.94 711.10 695.61 C 715.92 695.69 721.37 694.39 725.61 697.30 C 730.21 700.71 728.65 709.08 722.94 710.27 C 715.67 711.36 708.34 709.91 701.05 709.72 C 683.65 708.38 666.14 707.35 648.99 703.92 C 633.88 701.62 618.96 698.25 604.06 694.91 C 601.84 695.17 600.06 696.76 598.12 697.76 C 618.76 703.55 639.44 709.18 660.10 714.92 C 664.83 716.41 670.08 716.06 674.43 718.76 C 679.03 721.05 679.26 728.33 675.07 731.17 C 671.97 733.57 667.92 732.14 664.51 731.40 C 646.72 726.64 629.01 721.59 611.27 716.69 C 600.43 714.07 589.89 710.29 578.96 708.05 C 575.08 709.00 571.60 711.15 567.87 712.55 C 578.67 716.18 589.34 720.24 600.43 722.91 C 604.42 724.34 610.08 724.51 611.64 729.27 C 613.63 734.10 609.29 740.14 604.00 739.22 C 584.50 734.74 565.87 727.24 547.03 720.65 C 542.73 720.98 538.69 722.84 534.57 724.01 C 547.83 731.96 561.14 739.82 574.66 747.32 C 587.59 753.60 600.67 759.57 613.83 765.34 C 617.94 767.27 622.74 767.68 626.36 770.64 C 630.30 773.50 629.84 780.28 625.64 782.70 C 622.35 784.88 618.26 783.28 614.93 782.05 C 603.50 776.81 591.87 772.01 580.60 766.44 C 567.32 761.08 555.36 753.10 542.87 746.22 C 533.04 740.71 523.86 734.18 514.17 728.46 C 512.16 728.78 510.16 729.08 508.17 729.37 C 525.61 741.33 542.54 754.05 559.94 766.07 C 564.15 769.62 569.84 771.21 573.29 775.68 C 576.26 779.67 573.86 786.19 568.92 787.14 C 565.23 788.10 562.12 785.58 559.25 783.70 C 535.71 767.32 512.59 750.34 489.07 733.94 C 484.96 730.59 479.36 733.27 474.59 732.77 C 481.52 738.01 487.92 743.93 495.05 748.92 C 499.57 752.04 504.08 755.18 508.36 758.62 C 512.22 762.33 510.07 769.75 504.81 770.86 C 499.63 772.15 495.98 767.46 492.05 765.01 C 477.88 755.33 465.25 743.67 451.90 732.98 C 447.87 731.98 443.62 732.33 439.52 731.79 C 445.09 739.35 451.10 746.57 457.19 753.71 C 469.63 769.47 484.41 783.13 498.77 797.10 C 501.95 800.70 506.76 802.46 509.35 806.63 C 513.07 810.65 510.43 818.09 504.95 818.72 C 500.90 819.53 497.73 816.39 494.98 813.95 C 480.35 799.65 465.14 785.86 451.76 770.35 C 440.33 756.93 429.24 743.22 418.81 729.01 C 416.82 728.64 414.83 728.30 412.84 727.99 C 423.49 743.14 433.81 758.51 444.29 773.77 C 447.81 778.30 450.48 783.47 454.61 787.52 C 456.78 790.49 459.39 794.03 458.32 797.94 C 457.42 801.52 453.59 803.89 449.97 803.24 C 446.31 802.86 444.38 799.33 442.33 796.74 C 425.55 773.08 409.65 748.82 392.82 725.20 C 390.04 720.75 384.06 721.04 379.65 719.18 C 384.96 727.06 389.36 735.52 394.65 743.41 C 397.53 747.29 400.39 751.20 402.79 755.40 C 404.87 759.18 402.70 764.49 398.54 765.71 C 395.51 766.69 391.92 765.70 390.11 763.02 C 378.35 746.54 368.43 728.83 358.35 711.30 C 354.91 708.96 350.78 707.80 347.12 705.82 C 350.87 718.11 355.30 730.16 359.88 742.16 C 365.43 758.32 373.69 773.35 380.93 788.79 C 383.02 793.66 387.25 797.57 388.02 802.98 C 388.69 807.42 384.44 811.65 380.00 811.03 C 375.33 810.88 373.23 806.04 371.29 802.53 C 363.77 787.04 355.81 771.74 349.19 755.83 C 342.06 736.92 334.91 717.97 329.54 698.46 C 329.07 695.26 325.66 694.30 323.40 692.63 C 329.49 715.27 334.79 738.12 341.24 760.66 C 342.81 765.12 345.07 770.35 342.82 774.94 C 340.05 780.31 330.87 779.51 329.37 773.53 C 320.67 742.56 313.30 711.23 304.76 680.23 C 301.65 677.77 298.45 675.42 295.44 672.85 C 297.78 682.95 298.71 693.36 301.71 703.31 C 303.26 708.10 304.33 713.05 305.02 718.03 C 305.17 723.42 298.44 726.90 293.95 724.16 C 290.26 722.23 290.08 717.67 289.03 714.14 C 284.27 695.44 281.18 676.39 277.89 657.39 C 275.05 654.74 272.34 651.95 269.59 649.22 C 269.07 667.14 268.64 685.07 269.45 702.99 C 270.48 715.34 271.81 727.67 272.87 740.02 C 273.24 745.85 276.54 751.60 274.45 757.47 C 272.66 761.88 266.41 763.24 262.86 760.15 C 260.13 757.97 260.04 754.19 259.46 751.04 C 257.42 735.41 256.28 719.68 254.78 703.99 C 253.92 681.33 254.12 658.59 255.83 635.97 C 256.49 632.90 253.45 630.99 251.99 628.73 C 249.99 652.13 247.19 675.46 245.40 698.87 C 245.21 703.70 246.06 709.03 243.38 713.35 C 240.26 717.98 232.22 716.96 230.42 711.64 C 229.41 707.86 230.24 703.90 230.52 700.07 C 232.87 670.35 236.49 640.74 238.66 611.01 C 237.51 607.31 234.74 604.33 232.87 600.96 C 230.81 609.81 229.90 618.87 228.32 627.81 C 227.31 634.73 227.74 641.92 225.72 648.67 C 222.85 654.97 212.04 653.09 211.78 646.07 C 213.31 623.92 217.41 602.04 221.65 580.27 C 220.12 576.90 218.60 573.55 217.04 570.21 C 209.97 585.71 204.63 601.91 198.95 617.95 C 194.56 632.55 190.71 647.32 187.32 662.18 C 186.96 666.30 186.71 670.69 184.27 674.22 C 181.62 677.96 175.38 678.02 172.60 674.39 C 169.78 671.15 171.44 666.60 171.95 662.84 C 177.18 640.85 182.41 618.76 190.45 597.59 C 195.98 581.78 202.30 566.25 208.93 550.88 C 209.07 548.60 207.89 546.46 207.39 544.28 C 197.64 565.42 187.39 586.33 177.49 607.41 C 174.93 612.26 174.26 618.19 170.14 622.13 C 166.60 625.28 160.30 623.86 158.52 619.43 C 156.75 615.41 159.51 611.49 160.97 607.87 C 171.90 584.29 183.36 560.96 194.35 537.41 C 196.52 532.60 199.20 528.00 200.92 523.00 C 200.90 519.27 199.58 515.69 198.95 512.05 C 194.73 518.57 191.30 525.56 187.33 532.23 C 183.15 539.38 180.42 547.26 176.30 554.44 C 174.30 558.12 168.85 558.85 165.64 556.38 C 163.09 554.57 162.01 551.02 163.10 548.10 C 171.78 528.24 183.08 509.70 193.98 491.00 C 196.62 487.07 194.46 482.20 194.66 477.84 C 177.35 496.98 160.18 516.42 146.14 538.14 C 141.44 545.48 135.58 552.15 132.11 560.21 C 130.03 563.33 127.28 567.25 123.02 566.79 C 118.24 566.89 114.59 561.49 116.32 557.06 C 118.63 551.22 122.81 546.42 126.10 541.14 C 133.92 529.94 141.29 518.42 149.66 507.61 C 163.63 490.04 178.53 473.23 194.00 456.97 C 194.07 454.90 194.13 452.82 194.23 450.76 C 183.91 461.27 173.34 471.56 162.83 481.88 C 154.65 490.34 145.52 497.92 138.17 507.15 C 135.54 509.92 132.22 513.19 128.02 512.17 C 122.90 511.36 120.36 504.53 123.60 500.53 C 132.24 490.92 141.62 481.99 150.86 472.95 C 164.97 459.01 179.11 445.11 193.20 431.15 C 197.46 427.94 196.07 422.00 197.40 417.44 C 189.74 424.10 181.95 430.63 174.40 437.42 C 169.51 441.88 165.42 447.23 159.97 451.05 C 155.55 453.50 149.30 450.11 149.22 444.99 C 148.61 440.38 153.00 437.70 155.81 434.86 C 167.68 423.02 180.54 412.23 193.52 401.65 C 196.18 399.16 199.25 397.11 201.71 394.42 C 203.07 391.22 203.54 387.72 204.67 384.44 C 187.67 393.65 170.50 402.63 154.35 413.28 C 143.53 420.76 132.77 428.35 122.18 436.17 C 118.51 439.33 115.17 443.77 110.00 444.29 C 105.53 444.78 101.53 440.43 102.23 436.02 C 102.57 431.92 106.58 429.77 109.39 427.36 C 130.17 411.79 151.25 396.45 174.20 384.20 C 186.24 377.35 198.54 371.01 210.95 364.88 C 211.68 363.04 212.42 361.20 213.17 359.38 C 191.12 369.59 168.91 379.44 146.88 389.70 C 142.02 392.22 136.93 396.59 131.09 394.83 C 125.38 392.94 124.76 383.84 130.33 381.39 C 158.64 367.31 187.92 355.27 216.34 341.42 C 218.18 340.58 220.05 339.82 221.93 339.08 C 223.71 335.78 225.41 332.45 227.20 329.17 C 214.52 333.99 201.52 338.11 189.41 344.30 C 185.32 345.60 181.20 349.21 176.74 347.18 C 171.43 345.09 170.90 336.61 176.04 334.02 C 195.36 324.39 215.91 317.63 236.17 310.31 C 240.81 309.08 242.13 303.82 245.06 300.59 C 227.64 302.82 210.30 305.67 193.08 309.12 C 179.78 312.54 166.50 316.05 153.33 319.94 C 147.83 321.30 142.88 325.09 136.96 324.45 C 132.13 323.81 129.45 317.87 131.72 313.68 C 133.16 310.69 136.59 309.77 139.44 308.70 C 155.09 303.85 170.93 299.68 186.76 295.49 C 193.71 293.86 200.71 292.45 207.78 291.47 C 224.30 288.10 241.10 286.55 257.76 284.06 C 259.10 282.53 260.46 281.00 261.84 279.50 C 237.26 281.97 212.58 283.26 188.00 285.66 C 183.53 286.35 178.61 287.91 174.31 285.82 C 169.08 283.09 169.68 274.30 175.34 272.47 C 182.44 270.91 189.76 270.89 196.96 270.06 C 223.52 267.94 250.09 265.91 276.65 263.65 C 279.40 261.10 282.14 258.53 284.92 256.00 C 277.94 255.85 270.97 256.34 263.99 256.22 C 254.96 256.18 246.01 257.75 236.98 257.70 C 233.10 257.73 229.85 253.87 230.21 250.07 C 230.14 246.44 233.31 243.07 236.97 243.04 C 257.62 241.48 278.36 240.84 299.06 241.58 C 304.11 242.09 307.36 237.37 311.35 235.11 C 305.24 233.63 299.04 232.65 292.94 231.16 C 279.02 229.02 265.27 225.74 251.21 224.57 C 245.49 224.27 239.81 223.48 234.09 223.25 C 226.38 222.94 218.67 221.17 210.95 222.35 C 207.03 222.39 202.03 221.92 199.87 218.11 C 197.54 214.22 199.60 208.49 204.04 207.28 C 210.30 206.17 216.64 207.35 222.92 207.57 C 239.99 209.18 257.20 209.64 274.08 212.87 C 281.20 214.16 288.29 215.66 295.47 216.60 C 303.35 218.56 311.40 219.71 319.25 221.81 C 322.46 222.44 325.58 223.77 328.89 223.75 C 330.65 223.09 332.23 222.03 333.88 221.13 C 311.74 215.08 289.66 208.85 267.56 202.69 C 262.51 201.26 256.95 201.41 252.31 198.72 C 248.09 196.06 248.18 189.08 252.39 186.46 C 255.41 184.20 259.30 185.63 262.59 186.34 C 292.12 193.68 321.16 202.81 350.68 210.22 C 355.41 211.96 359.55 208.04 363.85 206.63 C 353.14 203.41 342.92 198.69 332.00 196.12 C 327.54 195.20 323.23 193.66 318.98 192.10 C 314.15 189.83 313.92 182.19 318.41 179.45 C 321.70 177.01 325.87 178.84 329.35 179.77 C 339.09 182.95 349.11 185.30 358.58 189.26 C 367.60 192.31 376.51 195.65 385.40 199.05 C 388.88 198.00 392.38 196.99 395.90 196.02 C 389.94 191.52 383.18 188.30 376.99 184.16 C 362.89 175.83 348.61 167.77 333.56 161.27 C 324.46 157.36 315.74 152.33 306.08 149.89 C 304.04 149.06 302.15 147.86 300.43 146.48 C 296.93 143.39 297.63 137.02 301.71 134.73 C 304.55 132.85 308.07 133.94 310.95 135.14 C 319.79 138.83 328.63 142.54 337.25 146.73 C 365.02 158.70 390.72 174.87 416.04 191.22 C 418.07 191.25 420.07 190.80 422.07 190.49 C 412.51 183.49 402.65 176.90 393.17 169.78 C 384.14 163.13 374.67 157.11 365.74 150.32 C 361.28 147.26 355.03 145.47 352.93 139.98 C 351.00 134.30 357.33 128.45 362.80 130.95 C 369.14 134.49 375.09 138.72 380.88 143.09 C 402.03 157.53 422.41 173.08 443.70 187.31 C 447.48 188.26 451.56 187.04 455.46 187.20 C 445.46 179.27 435.89 170.74 425.16 163.81 C 422.31 161.07 417.55 159.47 417.01 155.05 C 416.19 150.83 419.67 146.39 424.03 146.46 C 427.88 146.20 430.63 149.38 433.58 151.35 C 446.02 160.09 457.74 169.79 469.25 179.71 C 472.45 182.15 475.20 185.24 478.75 187.19 C 482.42 187.86 486.20 187.71 489.90 188.24 C 478.39 174.10 467.30 159.58 454.71 146.36 C 446.27 137.79 437.82 129.24 429.08 120.98 C 425.47 116.84 419.93 114.79 417.09 109.93 Z"></path><path fill="#FFFFFF" opacity="1.00" d=" M 511.27 108.43 C 516.36 106.78 521.89 111.66 520.72 116.92 C 520.10 122.74 511.92 125.19 508.06 120.90 C 504.08 117.22 505.96 109.70 511.27 108.43 Z"></path><path fill="#FFFFFF" opacity="1.00" d=" M 390.36 112.41 C 395.23 110.32 401.27 114.58 400.54 119.94 C 400.53 125.68 393.01 128.89 388.66 125.39 C 384.01 122.26 385.04 114.22 390.36 112.41 Z"></path><path fill="#FFFFFF" opacity="1.00" d=" M 618.35 116.27 C 623.07 113.53 629.82 117.48 629.30 123.04 C 629.60 128.74 622.37 132.36 617.81 129.18 C 613.10 126.43 613.41 118.60 618.35 116.27 Z"></path><path fill="#FFFFFF" opacity="1.00" d=" M 410.38 133.38 C 415.07 130.46 422.02 134.33 421.55 139.97 C 421.90 145.75 414.55 149.41 409.96 146.12 C 405.43 143.36 405.66 135.83 410.38 133.38 Z"></path><path fill="#FFFFFF" opacity="1.00" d=" M 214.41 134.35 C 219.01 132.01 225.27 135.65 225.05 140.93 C 225.63 146.75 218.26 150.72 213.57 147.42 C 208.72 144.63 209.22 136.51 214.41 134.35 Z"></path><path fill="#FFFFFF" opacity="1.00" d=" M 523.31 135.43 C 528.22 133.27 534.34 137.62 533.54 143.03 C 533.44 148.73 525.97 151.87 521.65 148.38 C 517.04 145.26 518.03 137.28 523.31 135.43 Z"></path><path fill="#FFFFFF" opacity="1.00" d=" M 625.23 146.37 C 630.11 144.34 636.07 148.70 635.28 154.01 C 635.21 159.63 627.93 162.82 623.55 159.50 C 618.73 156.43 619.73 148.10 625.23 146.37 Z"></path><path fill="#FFFFFF" opacity="1.00" d=" M 248.32 147.28 C 253.05 144.52 259.83 148.47 259.30 154.05 C 259.59 159.75 252.36 163.36 247.79 160.17 C 243.11 157.42 243.41 149.62 248.32 147.28 Z"></path><path fill="#FFFFFF" opacity="1.00" d=" M 731.19 154.28 C 736.07 152.46 741.81 156.80 741.03 162.03 C 740.95 167.87 733.11 170.99 728.86 167.15 C 724.40 163.78 725.78 155.84 731.19 154.28 Z"></path><path fill="#FFFFFF" opacity="1.00" d=" M 277.39 157.37 C 282.09 154.46 289.03 158.35 288.55 163.99 C 288.89 169.80 281.47 173.42 276.91 170.08 C 272.42 167.30 272.69 159.80 277.39 157.37 Z"></path><path fill="#FFFFFF" opacity="1.00" d=" M 305.24 169.20 C 309.83 167.17 315.77 170.79 315.55 175.94 C 316.13 181.91 308.44 185.81 303.80 182.25 C 299.07 179.22 299.92 171.11 305.24 169.20 Z"></path><path fill="#FFFFFF" opacity="1.00" d=" M 627.35 176.13 C 632.04 173.67 638.47 177.54 638.05 182.94 C 638.41 188.58 631.35 192.32 626.73 189.28 C 621.76 186.58 622.12 178.35 627.35 176.13 Z"></path><path fill="#FFFFFF" opacity="1.00" d=" M 724.25 190.19 C 728.87 188.16 734.83 191.85 734.55 197.03 C 735.06 202.99 727.35 206.80 722.75 203.22 C 718.07 200.15 718.95 192.09 724.25 190.19 Z"></path><path fill="#FFFFFF" opacity="1.00" d=" M 719.25 221.06 C 724.00 218.71 730.30 222.69 729.80 228.07 C 730.07 233.95 722.37 237.53 717.90 233.89 C 713.42 230.84 714.18 223.08 719.25 221.06 Z"></path><path fill="#FFFFFF" opacity="1.00" d=" M 121.43 237.55 C 126.18 235.74 131.90 239.86 131.29 245.01 C 131.43 250.82 123.84 254.19 119.41 250.65 C 114.65 247.45 115.87 239.13 121.43 237.55 Z"></path><path fill="#FFFFFF" opacity="1.00" d=" M 157.43 237.63 C 162.22 235.64 168.16 239.74 167.54 245.00 C 167.69 250.93 159.83 254.27 155.46 250.49 C 150.99 247.24 152.16 239.37 157.43 237.63 Z"></path><path fill="#FFFFFF" opacity="1.00" d=" M 188.30 237.28 C 193.33 234.84 199.74 239.41 198.77 244.99 C 198.49 250.56 191.20 253.55 186.91 250.15 C 182.39 247.08 183.20 239.31 188.30 237.28 Z"></path><path fill="#FFFFFF" opacity="1.00" d=" M 218.27 239.36 C 223.16 237.35 229.10 241.75 228.28 247.06 C 228.16 252.69 220.84 255.82 216.49 252.46 C 211.72 249.34 212.78 241.05 218.27 239.36 Z"></path><path fill="#FFFFFF" opacity="1.00" d=" M 712.39 249.57 C 717.17 247.71 722.94 251.89 722.29 257.07 C 722.38 262.89 714.72 266.20 710.34 262.60 C 705.67 259.37 706.89 251.15 712.39 249.57 Z"></path><path fill="#FFFFFF" opacity="1.00" d=" M 816.49 264.61 C 821.25 262.68 827.13 266.74 826.54 271.97 C 826.72 277.89 818.90 281.26 814.51 277.53 C 809.97 274.30 811.14 266.32 816.49 264.61 Z"></path><path fill="#FFFFFF" opacity="1.00" d=" M 797.40 296.48 C 802.07 293.85 808.69 297.64 808.30 303.12 C 808.70 308.61 802.01 312.43 797.35 309.73 C 792.14 307.29 792.18 298.88 797.40 296.48 Z"></path><path fill="#FFFFFF" opacity="1.00" d=" M 783.17 323.29 C 788.04 321.44 793.80 325.78 793.03 331.01 C 792.96 336.57 785.75 339.82 781.39 336.54 C 776.39 333.47 777.50 324.93 783.17 323.29 Z"></path><path fill="#FFFFFF" opacity="1.00" d=" M 159.38 335.49 C 164.03 332.86 170.63 336.59 170.30 342.04 C 170.76 347.57 164.04 351.44 159.35 348.73 C 154.15 346.30 154.18 337.90 159.38 335.49 Z"></path><path fill="#FFFFFF" opacity="1.00" d=" M 131.30 343.28 C 135.94 341.06 142.08 344.78 141.80 350.03 C 142.28 355.71 135.22 359.59 130.53 356.56 C 125.43 353.83 125.91 345.40 131.30 343.28 Z"></path><path fill="#FFFFFF" opacity="1.00" d=" M 766.46 347.62 C 771.25 345.65 777.17 349.76 776.54 355.03 C 776.67 360.94 768.81 364.27 764.46 360.49 C 759.98 357.23 761.16 349.35 766.46 347.62 Z"></path><path fill="#FFFFFF" opacity="1.00" d=" M 102.37 354.49 C 107.29 352.17 113.60 356.54 112.78 362.02 C 112.69 367.78 105.01 370.96 100.72 367.25 C 96.35 364.07 97.32 356.46 102.37 354.49 Z"></path><path fill="#FFFFFF" opacity="1.00" d=" M 68.47 366.62 C 73.25 364.65 79.16 368.76 78.54 374.01 C 78.69 379.89 70.92 383.24 66.54 379.55 C 61.98 376.33 63.13 368.35 68.47 366.62 Z"></path><path fill="#FFFFFF" opacity="1.00" d=" M 859.38 397.47 C 864.10 395.86 869.61 399.93 869.04 404.99 C 869.19 410.70 861.79 414.15 857.35 410.78 C 852.29 407.62 853.60 398.97 859.38 397.47 Z"></path><path fill="#FFFFFF" opacity="1.00" d=" M 830.32 421.15 C 835.03 418.64 841.50 422.55 841.05 427.98 C 841.37 433.62 834.30 437.32 829.70 434.26 C 824.77 431.54 825.13 423.37 830.32 421.15 Z"></path><path fill="#FFFFFF" opacity="1.00" d=" M 807.24 441.20 C 811.86 439.16 817.81 442.83 817.55 448.00 C 818.08 453.97 810.38 457.80 805.76 454.23 C 801.07 451.17 801.94 443.10 807.24 441.20 Z"></path><path fill="#FFFFFF" opacity="1.00" d=" M 138.20 445.21 C 142.84 443.13 148.84 446.83 148.55 452.04 C 149.05 457.99 141.35 461.80 136.75 458.22 C 132.09 455.17 132.94 447.14 138.20 445.21 Z"></path><path fill="#FFFFFF" opacity="1.00" d=" M 783.38 458.40 C 788.28 456.31 794.32 460.64 793.54 466.02 C 793.45 471.75 785.92 474.89 781.60 471.35 C 777.01 468.18 778.07 460.19 783.38 458.40 Z"></path><path fill="#FFFFFF" opacity="1.00" d=" M 114.31 462.43 C 119.23 460.27 125.34 464.62 124.54 470.03 C 124.44 475.72 116.98 478.86 112.66 475.39 C 108.03 472.27 109.03 464.27 114.31 462.43 Z"></path><path fill="#FFFFFF" opacity="1.00" d=" M 90.31 483.15 C 95.04 480.63 101.53 484.57 101.05 490.02 C 101.34 495.65 94.27 499.31 89.69 496.25 C 84.78 493.53 85.14 485.38 90.31 483.15 Z"></path><path fill="#FFFFFF" opacity="1.00" d=" M 62.40 506.35 C 67.02 503.99 73.30 507.68 73.05 512.97 C 73.59 518.78 66.23 522.71 61.56 519.41 C 56.72 516.62 57.23 508.51 62.40 506.35 Z"></path><path fill="#FFFFFF" opacity="1.00" d=" M 852.37 537.38 C 857.07 534.46 864.03 538.34 863.55 543.99 C 863.88 549.76 856.55 553.39 851.97 550.13 C 847.43 547.38 847.65 539.83 852.37 537.38 Z"></path><path fill="#FFFFFF" opacity="1.00" d=" M 818.45 549.45 C 823.08 546.90 829.60 550.60 829.30 556.01 C 829.79 561.55 823.06 565.44 818.36 562.74 C 813.12 560.29 813.18 551.82 818.45 549.45 Z"></path><path fill="#FFFFFF" opacity="1.00" d=" M 154.42 556.35 C 159.12 553.48 166.04 557.36 165.55 563.00 C 165.88 568.77 158.55 572.39 153.97 569.13 C 149.42 566.36 149.66 558.78 154.42 556.35 Z"></path><path fill="#FFFFFF" opacity="1.00" d=" M 790.31 560.34 C 795.16 558.39 801.02 562.69 800.28 567.95 C 800.26 573.60 792.95 576.83 788.56 573.51 C 783.69 570.42 784.75 562.01 790.31 560.34 Z"></path><path fill="#FFFFFF" opacity="1.00" d=" M 761.38 568.49 C 766.31 566.17 772.61 570.56 771.78 576.04 C 771.67 581.77 764.07 584.93 759.78 581.29 C 755.34 578.14 756.29 570.45 761.38 568.49 Z"></path><path fill="#FFFFFF" opacity="1.00" d=" M 139.22 580.27 C 144.09 578.47 149.79 582.80 149.03 588.01 C 148.97 593.85 141.14 596.99 136.87 593.16 C 132.39 589.79 133.78 581.81 139.22 580.27 Z"></path><path fill="#FFFFFF" opacity="1.00" d=" M 124.25 607.26 C 129.13 605.48 134.82 609.84 134.03 615.06 C 133.92 620.90 126.08 623.98 121.84 620.13 C 117.38 616.74 118.81 608.79 124.25 607.26 Z"></path><path fill="#FFFFFF" opacity="1.00" d=" M 104.39 639.37 C 109.08 636.47 116.02 640.33 115.55 645.97 C 115.90 651.75 108.54 655.40 103.96 652.12 C 99.43 649.36 99.67 641.81 104.39 639.37 Z"></path><path fill="#FFFFFF" opacity="1.00" d=" M 209.34 654.26 C 214.38 651.85 220.77 656.46 219.77 662.04 C 219.44 667.60 212.16 670.54 207.89 667.14 C 203.38 664.05 204.22 656.27 209.34 654.26 Z"></path><path fill="#FFFFFF" opacity="1.00" d=" M 703.29 664.28 C 707.93 662.05 714.09 665.78 713.80 671.04 C 714.27 676.70 707.25 680.57 702.56 677.58 C 697.43 674.88 697.89 666.42 703.29 664.28 Z"></path><path fill="#FFFFFF" opacity="1.00" d=" M 733.26 666.36 C 738.15 664.35 744.09 668.73 743.28 674.05 C 743.17 679.67 735.87 682.82 731.52 679.48 C 726.72 676.38 727.76 668.06 733.26 666.36 Z"></path><path fill="#FFFFFF" opacity="1.00" d=" M 763.40 666.36 C 768.10 663.48 775.01 667.33 774.55 672.97 C 774.91 678.77 767.51 682.42 762.93 679.10 C 758.42 676.32 758.68 668.79 763.40 666.36 Z"></path><path fill="#FFFFFF" opacity="1.00" d=" M 800.32 666.27 C 805.35 663.85 811.75 668.43 810.77 674.01 C 810.47 679.57 803.20 682.54 798.92 679.16 C 794.38 676.09 795.20 668.28 800.32 666.27 Z"></path><path fill="#FFFFFF" opacity="1.00" d=" M 202.41 682.56 C 207.15 680.73 212.87 684.83 212.29 689.97 C 212.47 695.82 204.80 699.22 200.37 695.62 C 195.66 692.40 196.88 684.14 202.41 682.56 Z"></path><path fill="#FFFFFF" opacity="1.00" d=" M 197.30 713.43 C 202.19 711.27 208.30 715.57 207.54 720.97 C 207.50 726.68 200.02 729.88 195.67 726.40 C 191.04 723.29 192.02 715.29 197.30 713.43 Z"></path><path fill="#FFFFFF" opacity="1.00" d=" M 293.28 728.17 C 298.00 725.62 304.54 729.56 304.05 735.03 C 304.34 740.63 297.32 744.30 292.73 741.28 C 287.79 738.58 288.11 730.42 293.28 728.17 Z"></path><path fill="#FFFFFF" opacity="1.00" d=" M 616.31 734.43 C 621.20 732.28 627.30 736.58 626.54 741.98 C 626.49 747.72 618.94 750.90 614.61 747.35 C 610.03 744.21 611.05 736.26 616.31 734.43 Z"></path><path fill="#FFFFFF" opacity="1.00" d=" M 643.46 746.62 C 648.24 744.66 654.14 748.73 653.54 753.98 C 653.71 759.90 645.89 763.26 641.50 759.53 C 636.98 756.28 638.14 748.34 643.46 746.62 Z"></path><path fill="#FFFFFF" opacity="1.00" d=" M 190.36 749.37 C 195.00 746.96 201.35 750.70 201.05 756.03 C 201.55 761.82 194.19 765.71 189.54 762.40 C 184.73 759.60 185.23 751.56 190.36 749.37 Z"></path><path fill="#FFFFFF" opacity="1.00" d=" M 296.27 757.29 C 301.31 754.82 307.76 759.42 306.77 765.03 C 306.46 770.59 299.17 773.55 294.89 770.14 C 290.41 767.07 291.20 759.33 296.27 757.29 Z"></path><path fill="#FFFFFF" opacity="1.00" d=" M 672.24 757.07 C 676.98 754.71 683.29 758.67 682.80 764.05 C 683.09 769.91 675.43 773.52 670.94 769.92 C 666.42 766.89 667.16 759.10 672.24 757.07 Z"></path><path fill="#FFFFFF" opacity="1.00" d=" M 398.34 768.42 C 403.23 766.29 409.30 770.59 408.54 775.98 C 408.49 781.72 400.96 784.89 396.62 781.36 C 392.03 778.22 393.05 770.24 398.34 768.42 Z"></path><path fill="#FFFFFF" opacity="1.00" d=" M 707.23 769.27 C 712.10 767.47 717.82 771.83 717.03 777.06 C 716.92 782.88 709.10 785.98 704.86 782.15 C 700.39 778.77 701.79 770.81 707.23 769.27 Z"></path><path fill="#FFFFFF" opacity="1.00" d=" M 510.48 770.61 C 515.28 768.66 521.18 772.78 520.54 778.04 C 520.66 783.92 512.89 787.23 508.52 783.54 C 503.97 780.30 505.14 772.32 510.48 770.61 Z"></path><path fill="#FFFFFF" opacity="1.00" d=" M 303.28 787.43 C 308.36 785.78 313.89 790.66 312.72 795.92 C 312.10 801.73 303.95 804.18 300.08 799.92 C 296.08 796.25 297.95 788.69 303.28 787.43 Z"></path><path fill="#FFFFFF" opacity="1.00" d=" M 531.32 791.42 C 536.24 789.27 542.35 793.64 541.53 799.06 C 541.42 804.72 534.02 807.84 529.70 804.42 C 525.03 801.32 526.01 793.27 531.32 791.42 Z"></path><path fill="#FFFFFF" opacity="1.00" d=" M 410.31 795.29 C 414.99 792.53 421.74 796.39 421.30 801.93 C 421.69 807.68 414.39 811.40 409.79 808.17 C 405.12 805.42 405.41 797.63 410.31 795.29 Z"></path><path fill="#FFFFFF" opacity="1.00" d=" M 555.21 811.08 C 559.92 808.71 566.22 812.60 565.80 817.96 C 566.17 823.84 558.50 827.53 553.97 823.94 C 549.43 820.93 550.14 813.14 555.21 811.08 Z"></path><path fill="#FFFFFF" opacity="1.00" d=" M 427.42 821.56 C 432.18 819.73 437.90 823.86 437.29 829.02 C 437.42 834.83 429.80 838.20 425.39 834.64 C 420.66 831.42 421.87 823.13 427.42 821.56 Z"></path><path fill="#FFFFFF" opacity="1.00" d=" M 309.38 823.48 C 314.13 821.84 319.66 825.98 319.04 831.06 C 319.14 836.75 311.74 840.14 307.32 836.76 C 302.30 833.59 303.62 824.97 309.38 823.48 Z"></path><path fill="#FFFFFF" opacity="1.00" d=" M 583.31 834.43 C 588.22 832.27 594.33 836.61 593.54 842.02 C 593.46 847.71 586.01 850.87 581.68 847.40 C 577.03 844.29 578.02 836.27 583.31 834.43 Z"></path><path fill="#FFFFFF" opacity="1.00" d=" M 444.41 853.48 C 449.05 850.87 455.64 854.60 455.30 860.05 C 455.75 865.59 449.01 869.45 444.32 866.72 C 439.14 864.26 439.19 855.87 444.41 853.48 Z"></path></svg>