<svg fill="#D1B794" xmlns="http://www.w3.org/2000/svg" xmlns:xlink="http://www.w3.org/1999/xlink" version="1.1" x="0px" y="0px" viewBox="0 0 100 100" enable-background="new 0 0 100 100" xml:space="preserve"><path d="M57.689,66.408c-0.18-1.18-1.112-1.738-1.623-1.76c-0.431-0.011-0.889,0.144-1.327,0.677c-0.523,0.643-0.105,2.23,0.584,3.2  c0.633,0.894,0.633,1.415,0.183,1.623c-0.452,0.212-0.582-0.316-0.785-0.342c-0.19-0.014-0.368,0.1-0.364,0.476  c-0.004,0.083,0.065,0.369,0.171,0.782c0.151,0.051,0.271,0.174,0.3,0.326c0.027,0.138-0.019,0.279-0.116,0.383  c0.412,1.517,1.068,3.71,1.355,4.292c0.606,1.23,1.479,1.902,1.479,1.902l-1.427-0.873c0,0,0.062,0.337,0.448,1.097  c0.533,1.051,1.328,1.624,1.328,1.624s-0.989-0.421-1.469-1.125c-0.47-0.701-0.816-1.882-0.816-1.882s0.432,1.796,0.801,3.149  c0.228,0.085,0.411,0.286,0.468,0.55c0.041,0.219-0.018,0.437-0.144,0.598c0.021,0.063,0.042,0.113,0.055,0.162  c0.259,0.701,0.806,1.618,0.806,1.618s-0.238-0.044-0.364-0.102c-0.315-0.134-0.401-0.04-0.396,0.187  c0,0.233,0.584,1.782,0.584,1.782s0.205,0.042,0.256-0.295c0.054-0.337,0.542-3.251,2.449-3.479  c1.903-0.229,2.678,1.694,2.692,2.757c0.016,1.092-0.678,1.914-1.411,2.126c-0.731,0.203-1.336-0.283-1.56-0.778  c-0.233-0.48-0.058-1.246,0.463-1.47c0.521-0.229,0.919,0.032,1.108,0.263c0.19,0.224,0.25,0.734,0.075,0.951  c-0.17,0.218-0.374,0.162-0.374,0.162s0.119,0.278,0.567,0.161c0.457-0.115,0.829-0.778,0.53-1.667  c-0.198-0.577-0.787-0.975-1.419-0.995c-0.773-0.034-1.454,0.365-2.11,1.078c-0.648,0.711-1.027,2.11-1.027,2.11  s0.55-0.181,1.098,0.023c0.795,0.307,0.897,1.011,0.684,1.19c-0.175,0.146-0.384-0.099-0.522-0.42  c-0.137-0.328-0.373-0.429-0.599-0.283c-0.175,0.117,0.087,0.432,0.254,0.569c0.171,0.139-0.134,0.201-0.134,0.201  s-0.069,0.022,0.3,0.218c0.378,0.191,0.748,0.766,0.622,1.013c-0.128,0.24-0.516,0.09-0.813-0.591  c-0.284-0.651-0.504-1.042-1.156-1.455c0,0,0.289,1.023,0.571,1.656c0.283,0.637,1.012,2.27,1.012,2.27l-0.101,4.04l-1.652-3.688  c0,0,0.039-1.789,0.054-2.479c0.019-0.692-0.11-1.75-0.11-1.75c-0.441,0.628-0.499,1.073-0.509,1.785  c-0.006,0.743-0.302,1.034-0.517,0.856c-0.217-0.174-0.092-0.853,0.181-1.171c0.267-0.318,0.196-0.313,0.196-0.313  s-0.313,0.053-0.205-0.139c0.101-0.189,0.228-0.582,0.013-0.621c-0.257-0.049-0.441,0.141-0.441,0.491  c0,0.349-0.103,0.656-0.323,0.589c-0.263-0.082-0.439-0.773,0.179-1.354c0.415-0.407,0.997-0.448,0.997-0.448  s-0.884-1.149-1.769-1.554c-0.877-0.404-1.657-0.508-2.355-0.181c-0.577,0.271-0.97,0.861-0.928,1.466  c0.069,0.94,0.674,1.404,1.131,1.34c0.468-0.074,0.463-0.372,0.463-0.372s-0.167,0.129-0.406-0.005  c-0.24-0.134-0.38-0.625-0.302-0.907c0.088-0.288,0.351-0.676,0.929-0.669c0.567,0.005,1.021,0.642,0.997,1.175  c-0.027,0.54-0.391,1.231-1.148,1.32c-0.747,0.092-1.709-0.403-2.123-1.415c-0.393-0.981-0.42-3.057,1.425-3.583  c1.847-0.531,3.427,1.972,3.605,2.263c0.176,0.288,0.343,0.171,0.343,0.171s-0.051-1.653-0.143-1.865  c-0.094-0.21-0.2-0.266-0.441-0.019c-0.09,0.099-0.29,0.235-0.29,0.235s0.136-1.058,0.107-1.803  c-0.002-0.054-0.005-0.106-0.008-0.174c-0.184-0.104-0.315-0.279-0.36-0.496c-0.054-0.264,0.037-0.52,0.221-0.688  c-0.189-1.383-0.484-3.211-0.484-3.211s0.138,1.214-0.028,2.047c-0.164,0.834-0.91,1.605-0.91,1.605s0.504-0.833,0.589-2.009  c0.063-0.854-0.006-1.187-0.006-1.187l-0.975,1.36c0,0,0.54-0.961,0.618-2.332c0.045-0.649-0.196-2.926-0.402-4.477  c-0.131-0.063-0.23-0.169-0.263-0.308c-0.027-0.157,0.036-0.313,0.157-0.416c-0.06-0.417-0.115-0.716-0.143-0.791  c-0.148-0.347-0.356-0.389-0.526-0.294c-0.175,0.098-0.088,0.636-0.592,0.612c-0.493-0.016-0.695-0.503-0.46-1.563  c0.264-1.162,0.03-2.79-0.694-3.177c-0.613-0.326-1.099-0.296-1.481-0.113c-0.472,0.214-1.118,1.092-0.826,2.246  c0.483,1.939,1.505,2.7,1.924,4.479c0.274,1.154,0.236,2.686-0.969,3.454c-1.616,1.022-3.33,0.318-4.201-1.01  c-0.639-0.971-0.888-1.793-0.944-3.633c0.231,1.283,0.515,1.821,1.276,2.505c0.636,0.575,1.637,0.565,2.304,0.161  c0.626-0.373,1.094-1.078,0.653-2.371c-0.441-1.288-1.171-3.03-1.221-4.363c-0.053-1.332,0.351-2.713,1.786-3.173  c1.349-0.427,2.799,0.358,3.106,1.97c0.282,1.455,0,1.623,0.212,1.797c0.212,0.173,0.687,0.078,0.817-0.164  c0.132-0.24-0.196-0.286-0.502-1.741c-0.336-1.604,0.698-2.886,2.106-3.013c1.496-0.129,2.409,0.983,2.877,2.23  c0.464,1.253,0.464,3.14,0.557,4.499c0.096,1.365,0.795,1.829,1.519,1.935c0.771,0.111,1.697-0.271,2.068-1.045  c0.431-0.919,0.487-1.526,0.207-2.803c0.649,1.727,0.743,2.578,0.531,3.72c-0.291,1.56-1.599,2.876-3.479,2.553  c-1.417-0.242-2.037-1.637-2.233-2.81C57.349,69.476,57.993,68.377,57.689,66.408z M35.738,67.243  c-0.9,0.751-1.774,1.986-1.265,3.351c0.681,1.82,2.461,2.317,3.934,1.803c1.078-0.371,1.767-0.879,2.901-2.306  c-0.945,0.879-1.487,1.131-2.499,1.203c-0.844,0.058-1.639-0.566-1.926-1.299c-0.281-0.688-0.235-1.539,0.878-2.294  s2.719-1.69,3.547-2.717c0.835-1.025,1.32-2.384,0.448-3.637c-0.812-1.176-2.434-1.45-3.631-0.36  c-1.085,0.986-0.955,1.297-1.225,1.305c-0.28,0.005-0.604-0.365-0.56-0.645c0.043-0.277,0.33-0.104,1.424-1.073  c1.215-1.067,1.155-2.729,0.106-3.703c-1.113-1.034-2.497-0.721-3.605-0.008c-1.109,0.702-2.222,2.205-3.103,3.23  c-0.879,1.027-1.71,0.968-2.352,0.598c-0.679-0.39-1.191-1.265-1.024-2.11c0.2-1.006,0.514-1.519,1.49-2.363  c-1.536,0.965-2.119,1.593-2.621,2.634c-0.684,1.42-0.421,3.273,1.264,4.186c1.271,0.688,2.587-0.039,3.431-0.848  c1.309-1.241,1.444-2.522,2.848-3.908c0.837-0.821,1.909-0.688,2.33-0.386c0.351,0.257,0.617,0.665,0.654,1.364  c0.038,0.834-1.231,1.836-2.353,2.187c-1.029,0.314-1.337,0.728-1.105,1.171c0.24,0.457,0.658,0.117,0.822,0.222  c0.165,0.102,0.24,0.309,0.018,0.605c-0.05,0.066-0.276,0.254-0.6,0.515c-0.153-0.051-0.319-0.028-0.43,0.074  c-0.105,0.094-0.153,0.232-0.133,0.378c-1.225,0.95-3.039,2.288-3.616,2.574c-1.204,0.604-2.302,0.598-2.302,0.598l1.656,0.188  c0,0-0.254,0.229-1.008,0.598c-1.044,0.503-2.009,0.464-2.009,0.464s1.034,0.284,1.823,0.017c0.8-0.268,1.76-0.99,1.76-0.99  s-1.4,1.163-2.486,2.015c-0.238-0.078-0.504-0.039-0.7,0.144c-0.165,0.147-0.244,0.354-0.239,0.561  c-0.051,0.04-0.096,0.072-0.139,0.101c-0.628,0.387-1.595,0.793-1.595,0.793s0.213,0.108,0.346,0.136  c0.339,0.091,0.346,0.218,0.206,0.402c-0.134,0.181-1.515,1.046-1.515,1.046s-0.19-0.088-0.032-0.391  c0.162-0.297,1.487-2.92,0.105-4.287c-1.383-1.361-3.129-0.315-3.767,0.518c-0.661,0.861-0.597,1.951-0.14,2.563  c0.464,0.626,1.233,0.609,1.706,0.358c0.472-0.243,0.779-0.951,0.497-1.457c-0.284-0.508-0.752-0.547-1.034-0.48  c-0.286,0.063-0.63,0.432-0.624,0.707c0.01,0.284,0.205,0.367,0.205,0.367s-0.26,0.146-0.551-0.225  c-0.293-0.374-0.204-1.136,0.568-1.655c0.493-0.337,1.191-0.286,1.712,0.086c0.633,0.452,0.945,1.195,1.045,2.17  c0.097,0.972-0.435,2.312-0.435,2.312s-0.326-0.483-0.877-0.651c-0.813-0.257-1.317,0.242-1.251,0.52  c0.051,0.224,0.363,0.159,0.662-0.015c0.303-0.173,0.552-0.105,0.639,0.15c0.078,0.206-0.318,0.291-0.528,0.291  c-0.22,0.004-0.017,0.247-0.017,0.247s0.042,0.064-0.369-0.019c-0.406-0.079-1.048,0.15-1.089,0.425  c-0.042,0.271,0.357,0.393,0.997,0.034c0.608-0.342,1.016-0.514,1.77-0.436c0,0-0.828,0.632-1.431,0.963  c-0.593,0.327-2.143,1.173-2.143,1.173l-2.307,3.278l3.498-1.903c0,0,1.019-1.454,1.415-2.01c0.398-0.566,1.124-1.324,1.124-1.324  c-0.016,0.774-0.239,1.164-0.647,1.729c-0.433,0.601-0.365,1.014-0.096,1.009c0.274-0.007,0.58-0.623,0.547-1.04  c-0.019-0.426,0.035-0.374,0.035-0.374s0.212,0.232,0.24,0.016c0.027-0.215,0.163-0.605,0.353-0.506  c0.236,0.125,0.273,0.386,0.069,0.663c-0.21,0.283-0.309,0.591-0.102,0.674c0.266,0.097,0.813-0.344,0.67-1.188  c-0.093-0.582-0.531-0.979-0.531-0.979s1.382-0.359,2.315-0.131c0.945,0.214,1.623,0.62,1.986,1.311  c0.303,0.577,0.266,1.29-0.127,1.741c-0.61,0.713-1.361,0.704-1.69,0.367c-0.326-0.342-0.147-0.58-0.147-0.58  s0.055,0.206,0.325,0.25c0.267,0.039,0.677-0.261,0.778-0.538c0.095-0.279,0.115-0.756-0.346-1.111  c-0.458-0.348-1.192-0.119-1.487,0.324c-0.295,0.441-0.411,1.219,0.134,1.757c0.544,0.542,1.603,0.747,2.521,0.189  c0.901-0.531,2.143-2.166,0.989-3.736c-1.159-1.561-3.894-0.554-4.204-0.432c-0.315,0.118-0.376-0.079-0.376-0.079  s1.015-1.284,1.209-1.394c0.198-0.115,0.318-0.092,0.365,0.254c0.021,0.138,0.097,0.374,0.097,0.374s0.512-0.934,0.979-1.51  c0.028-0.04,0.059-0.079,0.107-0.125c0.201,0.023,0.419-0.025,0.579-0.173c0.194-0.173,0.273-0.441,0.232-0.686  c0.964-0.991,2.279-2.256,2.279-2.256s-0.834,0.882-1.191,1.65c-0.358,0.765-0.217,1.841-0.217,1.841s0.087-0.983,0.713-1.965  c0.456-0.726,0.705-0.936,0.705-0.936l-0.021,1.681c0,0,0.133-1.097,0.876-2.237c0.351-0.54,1.887-2.207,2.975-3.313  c0.133,0.032,0.275,0.005,0.382-0.091c0.115-0.101,0.157-0.268,0.12-0.424c0.3-0.296,0.514-0.495,0.582-0.538  c0.319-0.189,0.512-0.09,0.591,0.09c0.088,0.18-0.302,0.563,0.111,0.856c0.402,0.291,0.85,0.032,1.288-0.962  c0.48-1.086,1.621-2.24,2.428-2.095c0.684,0.12,1.049,0.443,1.252,0.834c0.248,0.459,0.236,1.556-0.674,2.299  C38.38,66.117,37.125,66.08,35.738,67.243z M14.646,42.487c0.103,0.263,0.564,0.472,0.854,0.425c0.282-0.051,0.698-0.272,0.768-0.85  c0.064-0.577-0.498-1.107-1.029-1.152c-0.524-0.041-1.243,0.236-1.428,0.989c-0.182,0.75,0.17,1.772,1.115,2.313  c0.907,0.524,2.93,0.811,3.678-0.977c0.747-1.794-1.491-3.703-1.755-3.915c-0.258-0.218-0.122-0.374-0.122-0.374  s1.609,0.268,1.803,0.385c0.199,0.111,0.236,0.235-0.034,0.441c-0.107,0.08-0.271,0.266-0.271,0.266s1.054-0.012,1.78,0.117  c0.049,0.01,0.102,0.021,0.169,0.032c0.069,0.192,0.224,0.354,0.435,0.43c0.253,0.086,0.512,0.023,0.696-0.139  c1.339,0.363,3.085,0.894,3.085,0.894s-1.178-0.295-2.009-0.233c-0.836,0.063-1.681,0.723-1.681,0.723s0.872-0.415,2.04-0.349  c0.837,0.045,1.152,0.158,1.152,0.158l-1.452,0.816c0,0,1.007-0.43,2.354-0.337c0.639,0.041,2.836,0.572,4.326,0.979  c0.042,0.137,0.138,0.252,0.267,0.294c0.154,0.051,0.308,0.004,0.427-0.102c0.401,0.113,0.682,0.205,0.758,0.246  c0.317,0.189,0.332,0.407,0.215,0.563c-0.113,0.162-0.633,0.012-0.677,0.521c-0.037,0.498,0.401,0.761,1.475,0.66  c1.166-0.12,2.731,0.32,3.013,1.099c0.24,0.66,0.153,1.145-0.077,1.515c-0.266,0.438-1.207,0.98-2.301,0.543  c-1.826-0.737-2.442-1.856-4.13-2.506c-1.091-0.42-2.591-0.582-3.493,0.542c-1.207,1.499-0.729,3.312,0.455,4.357  c0.865,0.769,1.64,1.119,3.434,1.415c-1.229-0.402-1.716-0.753-2.287-1.609c-0.479-0.711-0.351-1.717,0.13-2.339  c0.447-0.586,1.191-0.963,2.397-0.357c1.209,0.603,2.82,1.561,4.109,1.785c1.293,0.221,2.697-0.019,3.324-1.404  c0.591-1.305,0-2.865-1.527-3.38c-1.392-0.469-1.59-0.201-1.732-0.437c-0.143-0.23,0.033-0.436,0.033-0.436s-0.023-0.271,0.235-0.37  c0.254-0.102,0.254,0.235,1.629,0.728c1.528,0.538,2.915-0.337,3.212-1.746c0.318-1.486-0.65-2.546-1.817-3.171  c-1.159-0.626-3.006-0.864-4.319-1.137c-1.318-0.263-1.688-1.029-1.702-1.769c-0.01-0.795,0.477-1.679,1.282-1.951  c0.958-0.32,1.553-0.297,2.768,0.144c-1.604-0.878-2.427-1.078-3.569-1.007c-1.56,0.098-3.009,1.245-2.932,3.188  c0.058,1.457,1.344,2.261,2.461,2.603c1.719,0.533,2.88,0.018,4.766,0.569c1.125,0.33,1.56,1.339,1.515,1.863  c-0.042,0.437-0.253,0.873-0.834,1.244c-0.689,0.448-2.189-0.173-3.05-0.99c-0.785-0.745-1.303-0.813-1.561-0.393  c-0.269,0.437,0.235,0.638,0.225,0.834c-0.001,0.201-0.137,0.362-0.505,0.312c-0.08-0.009-0.357-0.115-0.741-0.268  c-0.032-0.162-0.131-0.296-0.281-0.347c-0.133-0.044-0.27-0.012-0.387,0.072c-1.433-0.609-3.487-1.547-4.023-1.908  c-1.124-0.762-1.675-1.729-1.675-1.729l0.678,1.54c0,0-0.318-0.102-1.016-0.587c-0.958-0.671-1.418-1.539-1.418-1.539  s0.287,1.05,0.91,1.618c0.631,0.568,1.735,1.062,1.735,1.062s-1.698-0.665-2.978-1.198c-0.053-0.247-0.221-0.457-0.475-0.547  c-0.209-0.069-0.421-0.039-0.602,0.071c-0.055-0.032-0.109-0.055-0.147-0.078c-0.655-0.353-1.487-1.012-1.487-1.012  s0.021,0.245,0.06,0.375c0.089,0.334-0.013,0.408-0.235,0.38c-0.23-0.032-1.663-0.821-1.663-0.821s-0.017-0.204,0.317-0.215  c0.34-0.012,3.246-0.135,3.71-2.029c0.458-1.891-1.319-2.916-2.354-3.062c-1.065-0.155-1.958,0.438-2.254,1.152  c-0.29,0.71,0.111,1.383,0.559,1.674c0.448,0.29,1.213,0.217,1.496-0.285c0.291-0.498,0.085-0.929-0.111-1.146  c-0.199-0.224-0.691-0.342-0.923-0.201c-0.232,0.15-0.201,0.358-0.201,0.358s-0.261-0.148-0.094-0.589  c0.172-0.445,0.867-0.739,1.701-0.323c0.533,0.272,0.847,0.912,0.792,1.554c-0.065,0.785-0.546,1.418-1.318,1.985  c-0.782,0.572-2.194,0.773-2.194,0.773s0.248-0.535,0.113-1.104c-0.195-0.843-0.877-1.034-1.075-0.843  c-0.165,0.157,0.047,0.401,0.352,0.582c0.293,0.173,0.364,0.43,0.194,0.637c-0.137,0.162-0.407-0.141-0.527-0.329  c-0.105-0.19-0.213,0.11-0.213,0.11s-0.027,0.069-0.167-0.331c-0.142-0.4-0.656-0.854-0.919-0.752  c-0.247,0.095-0.146,0.508,0.477,0.894c0.603,0.365,0.957,0.637,1.271,1.344c0,0-0.958-0.416-1.542-0.782  c-0.583-0.366-2.09-1.31-2.09-1.31L8.03,35.494l3.398,2.131c0,0,1.75,0.185,2.428,0.252c0.68,0.074,1.69,0.337,1.69,0.337  c-0.669,0.367-1.113,0.363-1.801,0.284c-0.733-0.088-1.053,0.181-0.905,0.416c0.145,0.24,0.819,0.2,1.169-0.03  c0.346-0.233,0.333-0.162,0.333-0.162s-0.098,0.303,0.105,0.229c0.197-0.088,0.6-0.157,0.608,0.058  c0.011,0.273-0.188,0.435-0.536,0.386c-0.341-0.044-0.654,0.021-0.617,0.247c0.049,0.279,0.701,0.543,1.353-0.007  c0.444-0.364,0.563-0.939,0.563-0.939s1.003,1.029,1.289,1.97c0.281,0.935,0.291,1.738-0.119,2.398  c-0.34,0.544-0.962,0.868-1.552,0.745c-0.908-0.18-1.288-0.849-1.164-1.304c0.127-0.46,0.424-0.425,0.424-0.425  S14.545,42.231,14.646,42.487z M39.888,19.02c1.902-0.227,2.395-3.145,2.445-3.481c0.05-0.335,0.252-0.291,0.252-0.291  s0.593,1.54,0.589,1.775c0,0.233-0.079,0.328-0.398,0.193c-0.125-0.06-0.36-0.106-0.36-0.106s0.541,0.919,0.797,1.623  c0.021,0.044,0.04,0.096,0.063,0.162c-0.128,0.157-0.191,0.375-0.143,0.594c0.054,0.268,0.24,0.464,0.471,0.547  c0.36,1.36,0.799,3.151,0.799,3.151s-0.352-1.176-0.821-1.879c-0.474-0.707-1.465-1.125-1.465-1.125s0.789,0.57,1.325,1.626  c0.386,0.757,0.448,1.092,0.448,1.092l-1.427-0.873c0,0,0.877,0.677,1.477,1.902c0.287,0.587,0.947,2.775,1.357,4.292  c-0.097,0.106-0.146,0.244-0.118,0.382c0.036,0.154,0.154,0.272,0.309,0.326c0.103,0.411,0.163,0.7,0.163,0.786  c0.009,0.369-0.172,0.496-0.366,0.473c-0.194-0.021-0.326-0.556-0.78-0.339c-0.453,0.208-0.447,0.731,0.18,1.622  c0.692,0.968,1.109,2.561,0.586,3.198c-0.44,0.538-0.896,0.69-1.33,0.679c-0.515-0.019-1.444-0.582-1.623-1.757  c-0.302-1.974,0.348-3.073,0.04-4.874c-0.194-1.168-0.816-2.567-2.229-2.808c-1.883-0.325-3.187,0.996-3.482,2.556  c-0.212,1.137-0.119,1.993,0.535,3.718c-0.277-1.276-0.229-1.882,0.209-2.806c0.369-0.774,1.288-1.156,2.059-1.045  c0.728,0.105,1.427,0.577,1.521,1.935c0.096,1.36,0.096,3.246,0.559,4.504c0.469,1.242,1.378,2.357,2.877,2.228  c1.406-0.124,2.445-1.41,2.108-3.015c-0.306-1.455-0.633-1.496-0.508-1.74c0.129-0.24,0.393-0.186,0.393-0.186  s0.217-0.152,0.435,0.023c0.212,0.169-0.075,0.339,0.207,1.796c0.31,1.609,1.756,2.395,3.105,1.968  c1.428-0.457,1.84-1.838,1.789-3.173c-0.056-1.334-0.787-3.07-1.224-4.363c-0.438-1.293,0.022-1.994,0.655-2.371  c0.669-0.401,1.666-0.413,2.305,0.163c0.759,0.687,1.042,1.225,1.278,2.506c-0.063-1.842-0.312-2.664-0.952-3.636  c-0.864-1.325-2.58-2.032-4.193-1.007c-1.217,0.771-1.241,2.297-0.973,3.451c0.415,1.78,1.441,2.545,1.919,4.477  c0.291,1.161-0.349,2.034-0.815,2.249c-0.396,0.183-0.874,0.212-1.486-0.113c-0.729-0.386-0.962-2.014-0.697-3.173  c0.236-1.064,0.037-1.549-0.457-1.567c-0.506-0.025-0.425,0.517-0.592,0.612c-0.171,0.1-0.383,0.056-0.521-0.293  c-0.031-0.076-0.088-0.37-0.152-0.787c0.127-0.106,0.189-0.264,0.152-0.416c-0.025-0.143-0.125-0.245-0.249-0.308  c-0.207-1.558-0.452-3.832-0.411-4.481c0.079-1.373,0.629-2.331,0.629-2.331l-0.979,1.36c0,0-0.072-0.336-0.015-1.181  c0.083-1.182,0.598-2.016,0.598-2.016s-0.75,0.774-0.913,1.604c-0.169,0.834-0.032,2.048-0.032,2.048s-0.293-1.821-0.483-3.208  c0.187-0.169,0.276-0.426,0.226-0.688c-0.041-0.22-0.181-0.393-0.359-0.499c-0.005-0.058-0.01-0.122-0.015-0.174  c-0.032-0.745,0.115-1.8,0.115-1.8s-0.2,0.139-0.295,0.237c-0.235,0.247-0.354,0.188-0.443-0.021  c-0.093-0.217-0.144-1.863-0.144-1.863s0.172-0.125,0.347,0.167c0.178,0.293,1.762,2.793,3.606,2.263  c1.846-0.527,1.819-2.598,1.417-3.582c-0.408-1.013-1.361-1.504-2.12-1.415c-0.752,0.091-1.121,0.783-1.142,1.318  c-0.027,0.533,0.424,1.176,1,1.178c0.568,0.004,0.831-0.386,0.923-0.672c0.083-0.281-0.061-0.773-0.306-0.907  c-0.239-0.129-0.405-0.005-0.405-0.005s0.003-0.298,0.462-0.369c0.463-0.067,1.067,0.397,1.129,1.337  c0.044,0.604-0.347,1.198-0.921,1.466c-0.703,0.33-1.483,0.229-2.362-0.176c-0.88-0.406-1.762-1.554-1.762-1.554  s0.577-0.046,0.996-0.443c0.615-0.586,0.445-1.278,0.172-1.362c-0.217-0.064-0.313,0.241-0.319,0.592  c-0.004,0.349-0.179,0.533-0.438,0.486c-0.212-0.034-0.092-0.431,0.01-0.62c0.107-0.191-0.197-0.134-0.197-0.134  s-0.075,0.004,0.19-0.314c0.271-0.318,0.397-0.999,0.188-1.173c-0.218-0.176-0.522,0.11-0.528,0.858  c-0.008,0.707-0.058,1.152-0.503,1.775c0,0-0.128-1.048-0.114-1.745c0.013-0.688,0.061-2.479,0.061-2.479l-1.657-3.683l-0.106,4.04  c0,0,0.738,1.631,1.02,2.266c0.281,0.627,0.568,1.652,0.568,1.652c-0.646-0.408-0.867-0.796-1.151-1.449  c-0.299-0.679-0.687-0.833-0.816-0.589c-0.13,0.242,0.246,0.821,0.619,1.013c0.37,0.192,0.306,0.214,0.306,0.214  s-0.311,0.066-0.136,0.202c0.165,0.139,0.429,0.45,0.25,0.568c-0.223,0.145-0.456,0.041-0.595-0.279  c-0.135-0.323-0.347-0.565-0.52-0.42c-0.215,0.18-0.112,0.884,0.687,1.186c0.535,0.209,1.085,0.028,1.085,0.028  s-0.368,1.399-1.025,2.11c-0.656,0.711-1.33,1.108-2.101,1.078c-0.644-0.025-1.229-0.423-1.424-0.995  c-0.304-0.894,0.075-1.554,0.526-1.667c0.45-0.117,0.569,0.162,0.569,0.162s-0.2-0.056-0.375,0.157  c-0.165,0.219-0.116,0.729,0.072,0.955s0.586,0.489,1.111,0.263c0.527-0.232,0.695-0.989,0.47-1.479  c-0.236-0.487-0.838-0.979-1.569-0.769c-0.735,0.208-1.422,1.031-1.411,2.126C37.208,17.322,37.979,19.248,39.888,19.02z   M64.27,32.754c0.897-0.75,1.778-1.987,1.266-3.353c-0.679-1.816-2.46-2.315-3.938-1.803c-1.081,0.376-1.765,0.884-2.9,2.307  c0.947-0.878,1.489-1.132,2.496-1.203c0.85-0.056,1.638,0.57,1.932,1.303c0.278,0.685,0.238,1.539-0.876,2.289  c-1.11,0.756-2.718,1.69-3.552,2.721c-0.831,1.021-1.315,2.378-0.442,3.629c0.813,1.182,2.436,1.459,3.628,0.369  c1.084-0.99,0.953-1.302,1.229-1.305c0.272-0.005,0.353,0.247,0.353,0.247s0.243,0.123,0.206,0.393  c-0.042,0.275-0.331,0.106-1.432,1.074c-1.215,1.073-1.151,2.731-0.101,3.703c1.113,1.036,2.497,0.715,3.604,0.012  c1.107-0.707,2.223-2.21,3.104-3.235c0.877-1.026,1.709-0.968,2.351-0.593c0.675,0.383,1.187,1.261,1.018,2.105  c-0.19,1.011-0.505,1.526-1.479,2.364c1.534-0.965,2.116-1.589,2.62-2.632c0.684-1.418,0.418-3.278-1.27-4.19  c-1.266-0.684-2.584,0.039-3.434,0.849c-1.308,1.247-1.437,2.522-2.841,3.909c-0.84,0.824-1.915,0.69-2.337,0.388  c-0.345-0.258-0.617-0.667-0.649-1.366c-0.042-0.831,1.226-1.836,2.351-2.187c1.028-0.312,1.334-0.728,1.103-1.171  c-0.24-0.457-0.651-0.115-0.821-0.222c-0.165-0.102-0.235-0.304-0.014-0.604c0.045-0.063,0.273-0.257,0.595-0.52  c0.154,0.056,0.319,0.037,0.439-0.069c0.102-0.095,0.139-0.233,0.129-0.374c1.221-0.95,3.043-2.293,3.611-2.578  c1.209-0.601,2.299-0.599,2.299-0.599l-1.651-0.185c0,0,0.248-0.231,1.006-0.598c1.043-0.506,2.01-0.467,2.01-0.467  s-1.029-0.283-1.825-0.012c-0.791,0.259-1.76,0.985-1.76,0.985s1.404-1.163,2.488-2.015c0.236,0.079,0.503,0.039,0.699-0.139  c0.169-0.15,0.248-0.357,0.243-0.565c0.049-0.037,0.097-0.072,0.139-0.096c0.625-0.396,1.598-0.793,1.598-0.793  s-0.217-0.111-0.352-0.141c-0.329-0.089-0.341-0.213-0.208-0.397c0.139-0.185,1.521-1.051,1.521-1.051s0.187,0.09,0.027,0.391  c-0.16,0.302-1.484,2.927-0.106,4.292c1.385,1.354,3.135,0.313,3.775-0.52c0.662-0.861,0.588-1.953,0.131-2.568  c-0.456-0.616-1.233-0.604-1.705-0.356c-0.466,0.248-0.779,0.952-0.498,1.458c0.286,0.509,0.756,0.547,1.039,0.48  c0.287-0.06,0.629-0.432,0.624-0.711c-0.012-0.275-0.198-0.362-0.198-0.362s0.254-0.142,0.544,0.225  c0.291,0.378,0.201,1.14-0.569,1.654c-0.497,0.337-1.195,0.291-1.716-0.088c-0.633-0.45-0.933-1.193-1.034-2.165  c-0.104-0.97,0.422-2.315,0.422-2.315s0.335,0.489,0.889,0.657c0.806,0.252,1.305-0.245,1.243-0.52  c-0.051-0.224-0.36-0.161-0.661,0.012c-0.302,0.169-0.55,0.102-0.646-0.152c-0.069-0.205,0.328-0.288,0.541-0.29  c0.216,0,0.014-0.245,0.014-0.245s-0.041-0.063,0.367,0.017c0.403,0.077,1.046-0.146,1.087-0.426  c0.049-0.274-0.355-0.393-0.997-0.034c-0.605,0.347-1.014,0.521-1.769,0.443c0,0,0.831-0.638,1.428-0.967  c0.6-0.331,2.146-1.172,2.146-1.172l2.3-3.278l-3.49,1.903c0,0-1.018,1.449-1.42,2.009c-0.393,0.564-1.119,1.325-1.119,1.325  c0.016-0.776,0.239-1.169,0.647-1.735c0.436-0.597,0.37-1.018,0.096-1.011c-0.277,0.015-0.576,0.631-0.55,1.046  c0.023,0.425-0.026,0.375-0.026,0.375s-0.214-0.236-0.251-0.017c-0.023,0.213-0.157,0.603-0.351,0.503  c-0.238-0.122-0.27-0.381-0.06-0.665c0.202-0.281,0.299-0.588,0.092-0.667c-0.263-0.101-0.809,0.337-0.664,1.188  c0.097,0.576,0.53,0.974,0.53,0.974s-1.383,0.362-2.317,0.138c-0.94-0.219-1.626-0.62-1.985-1.32  c-0.302-0.574-0.264-1.28,0.124-1.738c0.605-0.711,1.369-0.701,1.693-0.364c0.325,0.342,0.148,0.586,0.148,0.586  s-0.055-0.208-0.327-0.256c-0.269-0.04-0.677,0.258-0.771,0.542c-0.103,0.275-0.12,0.751,0.336,1.106  c0.459,0.349,1.191,0.119,1.493-0.319c0.299-0.441,0.415-1.223-0.136-1.759c-0.548-0.54-1.599-0.745-2.524-0.187  c-0.895,0.53-2.143,2.165-0.982,3.73c1.152,1.563,3.892,0.555,4.205,0.437c0.31-0.122,0.374,0.079,0.374,0.079  s-1.016,1.283-1.212,1.389c-0.2,0.118-0.317,0.093-0.357-0.254c-0.023-0.138-0.098-0.369-0.098-0.369s-0.518,0.926-0.983,1.508  c-0.027,0.032-0.069,0.081-0.111,0.127c-0.199-0.027-0.412,0.023-0.576,0.174c-0.194,0.172-0.273,0.436-0.229,0.683  c-0.968,0.99-2.278,2.253-2.278,2.253s0.826-0.877,1.187-1.647c0.36-0.768,0.216-1.841,0.216-1.841s-0.087,0.979-0.708,1.967  C70.259,31.008,70,31.226,70,31.226l0.025-1.686c0,0-0.131,1.099-0.877,2.239c-0.354,0.538-1.886,2.205-2.972,3.313  c-0.133-0.03-0.279-0.008-0.381,0.088c-0.117,0.102-0.16,0.268-0.127,0.427c-0.296,0.296-0.51,0.492-0.581,0.536  c-0.314,0.189-0.508,0.094-0.586-0.091c-0.087-0.185,0.303-0.559-0.111-0.854c-0.402-0.293-0.85-0.035-1.288,0.96  c-0.483,1.085-1.622,2.239-2.434,2.095c-0.674-0.121-1.039-0.439-1.245-0.829c-0.247-0.465-0.241-1.561,0.672-2.3  C61.619,33.883,62.888,33.91,64.27,32.754z M69.267,56.949c0.087,0.007,0.356,0.11,0.753,0.264c0.026,0.161,0.129,0.296,0.276,0.351  c0.129,0.042,0.272,0.007,0.386-0.072c1.429,0.61,3.488,1.54,4.021,1.903c1.125,0.771,1.674,1.729,1.674,1.729l-0.675-1.54  c0,0,0.322,0.103,1.018,0.589c0.955,0.67,1.416,1.538,1.416,1.538s-0.287-1.051-0.913-1.621c-0.624-0.562-1.732-1.058-1.732-1.058  s1.699,0.661,2.975,1.196c0.055,0.245,0.229,0.46,0.474,0.547c0.209,0.069,0.43,0.04,0.604-0.066  c0.056,0.027,0.105,0.055,0.154,0.078c0.641,0.353,1.478,1.009,1.478,1.009s-0.021-0.246-0.051-0.381  c-0.097-0.329,0.007-0.403,0.235-0.374c0.222,0.032,1.658,0.819,1.658,0.819s0.018,0.209-0.318,0.22  c-0.333,0.008-3.247,0.135-3.709,2.03c-0.462,1.888,1.318,2.91,2.349,3.056c1.067,0.157,1.96-0.438,2.255-1.151  c0.296-0.711-0.112-1.379-0.559-1.67c-0.444-0.29-1.205-0.217-1.496,0.282c-0.285,0.496-0.078,0.933,0.113,1.146  c0.206,0.223,0.688,0.341,0.926,0.199c0.23-0.146,0.203-0.358,0.203-0.358s0.259,0.153,0.09,0.594  c-0.172,0.439-0.868,0.739-1.701,0.321c-0.541-0.271-0.85-0.912-0.79-1.557c0.064-0.782,0.541-1.41,1.315-1.985  c0.779-0.57,2.198-0.769,2.198-0.769s-0.251,0.533-0.115,1.104c0.199,0.839,0.868,1.034,1.079,0.845  c0.156-0.161-0.054-0.403-0.35-0.586c-0.3-0.176-0.366-0.433-0.203-0.632c0.145-0.169,0.416,0.138,0.524,0.326  c0.108,0.186,0.22-0.11,0.22-0.11s0.027-0.071,0.171,0.331c0.141,0.396,0.65,0.849,0.907,0.75c0.258-0.098,0.157-0.511-0.474-0.896  c-0.597-0.364-0.953-0.637-1.271-1.344c0,0,0.962,0.423,1.552,0.785c0.577,0.363,2.073,1.31,2.073,1.31l3.962,0.406l-3.386-2.136  c0,0-1.753-0.185-2.436-0.252c-0.68-0.073-1.687-0.337-1.687-0.337c0.665-0.367,1.106-0.358,1.802-0.284  c0.731,0.086,1.048-0.18,0.904-0.417c-0.143-0.236-0.823-0.199-1.174,0.032c-0.341,0.228-0.327,0.161-0.327,0.161  s0.093-0.303-0.105-0.229c-0.199,0.088-0.596,0.157-0.61-0.058c-0.015-0.269,0.193-0.43,0.538-0.385  c0.34,0.043,0.649-0.018,0.612-0.245c-0.046-0.279-0.697-0.545-1.35,0c-0.447,0.373-0.56,0.948-0.56,0.948s-1.009-1.034-1.291-1.97  c-0.281-0.937-0.29-1.738,0.12-2.403c0.337-0.542,0.957-0.863,1.544-0.743c0.918,0.183,1.294,0.851,1.167,1.302  c-0.125,0.465-0.421,0.421-0.421,0.421s0.147-0.146,0.049-0.403c-0.104-0.265-0.561-0.475-0.851-0.421  c-0.29,0.051-0.704,0.266-0.769,0.847c-0.068,0.58,0.494,1.106,1.026,1.152c0.531,0.044,1.246-0.235,1.432-0.99  c0.185-0.746-0.176-1.772-1.118-2.311c-0.91-0.522-2.928-0.813-3.681,0.974c-0.75,1.797,1.496,3.7,1.759,3.921  c0.265,0.215,0.126,0.369,0.126,0.369s-1.612-0.262-1.807-0.381c-0.196-0.118-0.235-0.235,0.039-0.441  c0.105-0.085,0.267-0.268,0.267-0.268s-1.05,0.005-1.777-0.123c-0.052-0.002-0.106-0.013-0.167-0.024  c-0.079-0.198-0.23-0.358-0.438-0.43c-0.255-0.086-0.518-0.023-0.705,0.139c-1.328-0.362-3.07-0.894-3.07-0.894  s1.168,0.291,2.001,0.229c0.837-0.061,1.68-0.721,1.68-0.721s-0.874,0.414-2.034,0.342c-0.84-0.035-1.155-0.157-1.155-0.157  l1.445-0.806c0,0-1.007,0.425-2.349,0.335c-0.638-0.044-2.836-0.575-4.329-0.979c-0.04-0.139-0.138-0.252-0.267-0.296  c-0.146-0.051-0.308-0.007-0.425,0.104c-0.402-0.119-0.679-0.205-0.756-0.251c-0.32-0.183-0.335-0.406-0.219-0.563  c0.113-0.162,0.627-0.005,0.675-0.516c0.046-0.503-0.402-0.761-1.475-0.66c-1.167,0.113-2.727-0.322-3.014-1.103  c-0.239-0.661-0.143-1.141,0.078-1.511c0.269-0.445,1.21-0.982,2.295-0.547c1.838,0.737,2.452,1.858,4.138,2.506  c1.097,0.42,2.594,0.581,3.495-0.543c1.205-1.499,0.729-3.312-0.452-4.357c-0.867-0.771-1.644-1.114-3.433-1.41  c1.224,0.402,1.72,0.745,2.279,1.604c0.483,0.711,0.35,1.718-0.127,2.341c-0.447,0.587-1.19,0.966-2.401,0.358  c-1.201-0.601-2.813-1.561-4.109-1.785c-1.294-0.224-2.69,0.021-3.319,1.404c-0.59,1.304-0.004,2.862,1.523,3.377  c1.396,0.467,1.594,0.201,1.737,0.437c0.141,0.241-0.015,0.706-0.264,0.809c-0.262,0.099-0.262-0.238-1.64-0.723  c-1.523-0.545-2.908,0.334-3.208,1.738c-0.319,1.489,0.647,2.551,1.812,3.176c1.163,0.625,3.011,0.864,4.328,1.132  c1.321,0.268,1.69,1.03,1.695,1.773c0.013,0.795-0.473,1.674-1.278,1.946c-0.962,0.32-1.557,0.302-2.763-0.144  c1.594,0.883,2.421,1.081,3.564,1.007c1.563-0.102,3.011-1.246,2.933-3.188c-0.059-1.455-1.343-2.251-2.461-2.602  c-1.727-0.534-2.875-0.019-4.771-0.565c-1.125-0.335-1.56-1.344-1.508-1.863c0.041-0.441,0.253-0.878,0.834-1.252  c0.691-0.442,2.185,0.178,3.05,0.995c0.788,0.748,1.297,0.815,1.563,0.386c0.264-0.427-0.242-0.632-0.233-0.829  C68.764,57.056,68.906,56.892,69.267,56.949z M43.787,73.374c0,0-0.221,0.226-0.133,0.662s0.671,0.713,1.124,1.133  c0.597,0.558,0.711,1.127,0.592,1.67c-0.122,0.52-0.585,0.764-0.585,0.764s0.016-0.229-0.069-0.491  c-0.106-0.354-0.261-0.552-0.811-0.995c-0.566-0.459-0.559-1.163-0.737-1.254c-0.185-0.089-0.212,0.393-0.013,0.778  c0.167,0.33,0.835,0.85,1.075,1.554c0.264,0.819-0.342,1.044-0.799,1.092c-0.194,0.017-0.325,0.023-0.555,0.017  c0,0,0.239-0.111,0.318-0.235c0.177-0.261,0.024-0.646-0.313-1.063c-0.31-0.374-0.273-0.905-0.347-1.141  c-0.069-0.242-0.296-0.141-0.365,0.067c-0.097,0.295,0.162,1,0.282,1.505c0.126,0.511-0.11,1.152-0.966,1.393  c-1.066,0.298-1.482,1.579-1.482,1.579s0.421-1.281-0.256-2.178c-0.537-0.727-0.349-1.382,0.048-1.71  c0.402-0.325,1.026-0.729,1.116-1.021c0.076-0.208-0.044-0.435-0.248-0.279c-0.196,0.141-0.48,0.589-0.949,0.692  c-0.514,0.117-0.859,0.337-0.874,0.646c-0.012,0.149,0.111,0.39,0.111,0.39c-0.186-0.141-0.284-0.228-0.429-0.362  c-0.339-0.32-0.694-0.875,0.01-1.359c0.607-0.42,1.443-0.409,1.776-0.57c0.384-0.185,0.638-0.589,0.442-0.633  c-0.193-0.039-0.602,0.531-1.321,0.548c-0.701,0.011-0.946,0.073-1.239,0.286c-0.219,0.156-0.338,0.346-0.338,0.346  s-0.231-0.476-0.02-0.968c0.224-0.51,0.651-0.891,1.46-0.967c0.608-0.054,1.228,0.092,1.561-0.198  c0.326-0.296,0.286-0.614,0.286-0.614s-0.36,0.342-0.928,0.347c-0.566-0.005-1.289-0.122-1.289-0.122s0.349-0.576,1.044-0.721  c0.702-0.146,1.27-0.173,1.827-0.578c0.501-0.353,1.289-1.064,0.997-2.066c-0.289-1.011-1.59-1.502-1.59-1.502  s0.917,0.141,1.504-0.24c0.587-0.376,0.482-1.124-0.02-1.406c-0.505-0.284-1.186,0.069-1.186,0.069s0.203-0.716,0.574-0.979  c0.366-0.254,0.856-0.326,1.327,0c0.312,0.212,0.472,0.503,0.688,0.574c0.227,0.071-0.323-0.76,0.071-1.288  c0.289-0.383,0.829-0.508,1.063-0.713c0.228-0.199,0.428-0.621,0.428-0.621s-0.086,0.457-0.024,0.759  c0.065,0.303,0.42,0.751,0.42,1.227c0.005,0.669-0.918,0.987-0.701,1.073c0.22,0.083,0.522-0.056,0.896-0.032  c0.558,0.032,0.907,0.396,1.048,0.822c0.147,0.445-0.12,1.136-0.12,1.136s-0.337-0.702-0.906-0.79  c-0.564-0.085-1.088,0.441-0.84,1.108c0.235,0.669,1.055,1.12,1.055,1.12s-1.326-0.411-2.155,0.205  c-0.822,0.621-0.612,1.679-0.427,2.271c0.212,0.672,0.642,1.046,1.115,1.596c0.473,0.547,0.398,1.224,0.398,1.224  s-0.634-0.353-1.089-0.709C43.875,73.872,43.787,73.374,43.787,73.374z M43.244,73.664c-0.182-0.316-0.382-0.528-0.458-0.909  c-0.07-0.321,0.133-1.23,0.133-1.23s-0.374,0.85-0.613,1.062c-0.287,0.257-0.573,0.301-0.901,0.441  c-0.3,0.124-0.535,0.425-0.188,0.694c0.229,0.178,0.782,0.017,0.782,0.017s-0.284,0.24-0.34,0.482  c-0.06,0.245,0.079,0.441,0.217,0.489c0.134,0.046,0.365-0.027,0.462-0.251c0.097-0.233,0.015-0.599,0.015-0.599  s0.345,0.472,0.632,0.472C43.422,74.327,43.403,73.951,43.244,73.664z M43.842,68.73c0.173,0.058,0.573-0.1,0.78-0.739  c0.244-0.735,0.069-1.133-0.143-1.207c-0.245-0.085-0.596,0.139-0.835,0.869C43.432,68.311,43.637,68.659,43.842,68.73z   M42.457,69.316c0.074-0.237-0.046-0.496-0.269-0.578c-0.229-0.074-0.478,0.05-0.553,0.29c-0.079,0.235,0.044,0.491,0.271,0.57  C42.131,69.677,42.379,69.553,42.457,69.316z M40.968,69.793c0.179,0.062,0.371-0.032,0.429-0.213  c0.063-0.182-0.034-0.378-0.216-0.436c-0.177-0.067-0.37,0.029-0.428,0.212C40.688,69.536,40.786,69.732,40.968,69.793z   M40.495,70.125c0.092,0.032,0.188-0.017,0.221-0.102c0.033-0.09-0.021-0.185-0.114-0.217c-0.094-0.03-0.192,0.012-0.216,0.104  C40.356,69.995,40.402,70.091,40.495,70.125z M45.15,69.768c-0.232-0.081-0.477,0.049-0.556,0.283  c-0.079,0.236,0.047,0.492,0.271,0.571c0.227,0.078,0.477-0.049,0.551-0.285C45.495,70.098,45.375,69.846,45.15,69.768z   M45.713,70.705c-0.181-0.061-0.37,0.034-0.43,0.219c-0.058,0.174,0.042,0.374,0.212,0.437c0.179,0.058,0.375-0.035,0.435-0.213  C45.99,70.963,45.894,70.771,45.713,70.705z M45.676,71.914c0.092,0.033,0.189-0.011,0.222-0.102  c0.027-0.088-0.019-0.185-0.117-0.217c-0.091-0.034-0.186,0.016-0.216,0.099C45.532,71.785,45.589,71.882,45.676,71.914z   M46.39,67.759c-0.236-0.052-0.449,0-0.56,0.183c-0.085,0.141-0.181,0.64,0.397,0.907c0.984,0.459,1.171,0.727,1.299,1.143  c0.02-0.212-0.002-1.009-0.327-1.574C46.981,68.033,46.78,67.842,46.39,67.759z M42.729,66.867c0.013-0.216-0.124-0.386-0.347-0.491  c-0.36-0.178-0.632-0.15-1.024,0.017c-0.603,0.246-1.09,0.879-1.201,1.057c0.351-0.261,0.661-0.353,1.711-0.106  C42.484,67.488,42.712,67.036,42.729,66.867z M45.478,62.806c-0.052,0.146,0.036,0.308,0.193,0.363  c0.157,0.051,0.321-0.021,0.365-0.166c0.052-0.15-0.037-0.308-0.199-0.363C45.686,62.59,45.519,62.656,45.478,62.806z   M46.004,62.151c-0.069-0.026-0.142,0.011-0.167,0.077c-0.019,0.07,0.019,0.146,0.084,0.169c0.069,0.023,0.137-0.016,0.167-0.083  C46.105,62.248,46.069,62.174,46.004,62.151z M33.785,53.938c0.042,0.231,0.312,0.428,0.477,0.771  c0.254,0.515,0.127,0.992-0.169,1.334c-0.308,0.345-1.029,0.458-1.029,0.458s0.426-0.645,0.214-1.192  c-0.207-0.538-0.923-0.733-1.366-0.188c-0.448,0.54-0.424,1.479-0.424,1.479s-0.32-1.374-1.266-1.794  c-0.947-0.42-1.736,0.286-2.147,0.743c-0.467,0.511-0.566,1.085-0.8,1.769c-0.229,0.688-0.835,0.963-0.835,0.963  s-0.023-0.738,0.046-1.315c0.072-0.566,0.456-0.889,0.456-0.889s-0.309-0.083-0.636,0.212c-0.325,0.296-0.265,0.939-0.397,1.549  c-0.167,0.801-0.596,1.18-1.119,1.344c-0.506,0.154-0.949-0.137-0.949-0.137s0.202-0.104,0.384-0.305  c0.246-0.265,0.336-0.5,0.436-1.209c0.103-0.723,0.713-1.063,0.699-1.263c-0.016-0.199-0.439,0.004-0.669,0.366  c-0.199,0.319-0.299,1.155-0.786,1.719c-0.558,0.644-1.056,0.219-1.33-0.162c-0.111-0.162-0.184-0.274-0.297-0.476  c0,0,0.22,0.149,0.37,0.162c0.302,0.022,0.559-0.301,0.737-0.8c0.163-0.464,0.639-0.689,0.802-0.872  c0.167-0.185-0.034-0.33-0.242-0.286c-0.297,0.058-0.771,0.632-1.14,0.995c-0.369,0.359-1.037,0.471-1.675-0.167  c-0.789-0.789-2.102-0.521-2.102-0.521s1.308-0.263,1.736-1.302c0.344-0.837,0.997-0.991,1.475-0.802  c0.483,0.189,1.145,0.538,1.442,0.476c0.207-0.044,0.34-0.252,0.113-0.353c-0.227-0.106-0.751-0.134-1.075-0.496  c-0.363-0.397-0.723-0.59-0.996-0.455c-0.134,0.066-0.274,0.293-0.274,0.293c0.022-0.231,0.05-0.365,0.09-0.555  c0.102-0.454,0.397-1.041,1.163-0.664c0.662,0.327,1.081,1.071,1.383,1.283c0.353,0.242,0.826,0.271,0.763,0.081  c-0.06-0.192-0.753-0.269-1.131-0.896c-0.36-0.613-0.538-0.798-0.868-0.95c-0.25-0.113-0.472-0.13-0.472-0.13  s0.291-0.437,0.817-0.487c0.545-0.061,1.09,0.125,1.56,0.801c0.354,0.509,0.546,1.13,0.964,1.274c0.413,0.146,0.662-0.05,0.662-0.05  s-0.476-0.144-0.762-0.646c-0.287-0.504-0.544-1.191-0.544-1.191s0.659,0.025,1.14,0.568c0.479,0.538,0.79,1.024,1.418,1.322  c0.554,0.261,1.557,0.603,2.268-0.152c0.709-0.75,0.474-2.138,0.474-2.138s0.342,0.88,0.962,1.208  c0.622,0.32,1.203-0.133,1.19-0.714c-0.016-0.582-0.659-1.009-0.659-1.009s0.711-0.183,1.126,0.019  c0.397,0.196,0.709,0.591,0.674,1.172c-0.022,0.372-0.198,0.656-0.146,0.888c0.055,0.237,0.489-0.664,1.141-0.573  c0.464,0.058,0.849,0.48,1.14,0.582c0.286,0.102,0.739,0.066,0.739,0.066s-0.426,0.15-0.652,0.358  c-0.229,0.203-0.424,0.738-0.834,0.979C34.486,54.363,33.743,53.703,33.785,53.938z M28.079,54.402c0,0-0.911,0.091-1.219-0.021  c-0.365-0.124-0.545-0.357-0.832-0.572c-0.26-0.201-0.631-0.264-0.686,0.176c-0.04,0.288,0.38,0.692,0.38,0.692  s-0.346-0.127-0.585-0.061c-0.236,0.077-0.328,0.292-0.301,0.437c0.027,0.146,0.204,0.312,0.448,0.279  c0.241-0.028,0.514-0.274,0.514-0.274s-0.227,0.535-0.079,0.783c0.221,0.385,0.535,0.184,0.701-0.103  c0.176-0.312,0.254-0.591,0.54-0.85C27.201,54.671,28.079,54.402,28.079,54.402z M32.901,53.431  c-0.046-0.257-0.414-0.452-1.157-0.307c-0.668,0.138-0.858,0.491-0.816,0.704c0.037,0.18,0.37,0.459,1.028,0.33  C32.7,54.008,32.951,53.659,32.901,53.431z M29.728,52.9c0.24-0.052,0.399-0.282,0.348-0.522c-0.05-0.235-0.283-0.393-0.522-0.342  c-0.241,0.051-0.397,0.279-0.35,0.52C29.251,52.791,29.486,52.95,29.728,52.9z M28.827,51.418c-0.181,0.039-0.296,0.222-0.262,0.408  c0.035,0.187,0.217,0.307,0.398,0.268c0.182-0.034,0.302-0.215,0.267-0.399C29.188,51.506,29.012,51.378,28.827,51.418z   M28.24,51.723c0.09-0.021,0.146-0.116,0.128-0.21c-0.018-0.098-0.109-0.162-0.196-0.146c-0.085,0.021-0.148,0.111-0.13,0.21  C28.065,51.674,28.153,51.736,28.24,51.723z M30.701,55.495c-0.046-0.24-0.279-0.397-0.521-0.347  c-0.239,0.049-0.394,0.283-0.346,0.524c0.04,0.235,0.276,0.388,0.521,0.337C30.595,55.966,30.747,55.73,30.701,55.495z   M29.521,56.587c0.038,0.188,0.219,0.312,0.403,0.276c0.179-0.039,0.297-0.221,0.264-0.405c-0.036-0.192-0.219-0.31-0.402-0.271  C29.602,56.215,29.486,56.402,29.521,56.587z M29.136,57.021c0.02,0.097,0.111,0.162,0.203,0.141  c0.088-0.021,0.143-0.112,0.127-0.207c-0.021-0.095-0.108-0.157-0.2-0.144C29.176,56.831,29.121,56.927,29.136,57.021z   M32.894,56.63c0.205-0.38,0.277-0.652,0.148-1.036c-0.079-0.237-0.23-0.395-0.443-0.406c-0.161-0.006-0.633,0.161-0.572,0.804  c0.114,1.087-0.021,1.391-0.312,1.706C31.902,57.609,32.576,57.196,32.894,56.63z M31.104,51.405  c0.189,0.622,0.688,0.592,0.84,0.521c0.196-0.086,0.274-0.296,0.248-0.538c-0.03-0.409-0.198-0.633-0.535-0.9  c-0.514-0.401-1.291-0.524-1.503-0.531C30.545,50.136,30.787,50.365,31.104,51.405z M36.594,52.688  c0.032,0.171,0.175,0.276,0.323,0.244c0.151-0.027,0.241-0.184,0.212-0.351c-0.037-0.164-0.185-0.266-0.333-0.242  C36.648,52.369,36.557,52.528,36.594,52.688z M37.623,52.484c-0.012-0.077-0.084-0.117-0.147-0.106  c-0.075,0.016-0.121,0.085-0.105,0.152c0.018,0.076,0.084,0.118,0.151,0.106C37.595,52.621,37.639,52.551,37.623,52.484z   M29.404,29.406c0,0-0.02,0.271,0.04,0.398c0.14,0.285,0.546,0.356,1.063,0.265c0.472-0.086,0.905,0.212,1.145,0.272  c0.245,0.057,0.265-0.189,0.119-0.354c-0.198-0.235-0.93-0.366-1.421-0.515c-0.499-0.146-0.924-0.681-0.707-1.554  c0.275-1.09-0.609-2.107-0.609-2.107s0.88,1.022,1.981,0.882c0.882-0.11,1.349,0.388,1.432,0.908  c0.083,0.514,0.113,1.27,0.318,1.502c0.144,0.165,0.392,0.171,0.36-0.078c-0.024-0.25-0.269-0.726-0.126-1.196  c0.157-0.508,0.142-0.919-0.11-1.092c-0.129-0.088-0.393-0.099-0.393-0.099c0.212-0.091,0.338-0.14,0.518-0.196  c0.443-0.13,1.09-0.167,1.157,0.699c0.058,0.743-0.362,1.478-0.391,1.852c-0.032,0.43,0.185,0.861,0.318,0.706  c0.127-0.147-0.157-0.797,0.189-1.44c0.333-0.618,0.402-0.866,0.364-1.229c-0.027-0.279-0.128-0.476-0.128-0.476  s0.526,0.037,0.838,0.474c0.32,0.455,0.44,1.024,0.103,1.769c-0.254,0.561-0.687,1.041-0.602,1.478s0.38,0.561,0.38,0.561  s-0.114-0.493,0.167-0.99c0.281-0.499,0.734-1.075,0.734-1.075s0.317,0.6,0.098,1.288c-0.216,0.686-0.476,1.2-0.412,1.902  c0.058,0.621,0.277,1.672,1.273,1.927c1.003,0.248,2.067-0.646,2.067-0.646s-0.574,0.737-0.542,1.443  c0.039,0.709,0.723,0.995,1.209,0.698c0.489-0.301,0.526-1.079,0.526-1.079s0.513,0.536,0.548,1c0.043,0.45-0.146,0.914-0.649,1.166  c-0.333,0.171-0.667,0.154-0.832,0.315c-0.175,0.165,0.805,0.098,1.063,0.714c0.186,0.446,0.025,0.991,0.082,1.298  c0.061,0.303,0.312,0.692,0.312,0.692s-0.339-0.312-0.632-0.408c-0.291-0.103-0.846-0.005-1.249-0.245  c-0.574-0.337-0.388-1.316-0.567-1.163c-0.176,0.149-0.208,0.484-0.416,0.798c-0.312,0.477-0.787,0.605-1.219,0.511  c-0.451-0.097-0.912-0.684-0.912-0.684s0.766,0.061,1.125-0.393c0.352-0.452,0.157-1.175-0.527-1.304  c-0.688-0.123-1.481,0.364-1.481,0.364s1.012-0.963,0.886-2.002c-0.115-1.041-1.116-1.387-1.718-1.527  c-0.674-0.151-1.209,0.045-1.909,0.18c-0.699,0.134-1.242-0.268-1.242-0.268s0.617-0.384,1.142-0.605  c0.523-0.22,0.989-0.039,0.989-0.039s-0.083-0.31-0.503-0.455c-0.416-0.143-0.938,0.235-1.52,0.421  c-0.771,0.247-1.311,0.055-1.712-0.331c-0.389-0.369-0.36-0.9-0.36-0.9s0.18,0.13,0.452,0.192c0.349,0.083,0.601,0.043,1.249-0.212  c0.667-0.271,1.266,0.099,1.427-0.015c0.164-0.115-0.229-0.383-0.648-0.401c-0.369-0.023-1.136,0.307-1.861,0.157  c-0.831-0.179-0.72-0.83-0.533-1.254C29.227,29.728,29.286,29.607,29.404,29.406z M37.327,36.166  c0.508,0.587,0.933,0.631,1.102,0.477c0.189-0.169,0.177-0.59-0.327-1.167c-0.456-0.528-0.854-0.52-1.015-0.378  C36.95,35.22,36.884,35.656,37.327,36.166z M33.177,32.075c0.359,0.003,0.636-0.066,1.001,0.058  c0.309,0.104,0.979,0.738,0.979,0.738s-0.535-0.752-0.595-1.075c-0.079-0.386,0.032-0.656,0.069-1.014  c0.036-0.33-0.098-0.688-0.504-0.52c-0.264,0.111-0.397,0.679-0.397,0.679s-0.065-0.369-0.242-0.543  c-0.178-0.175-0.418-0.156-0.525-0.057c-0.107,0.097-0.16,0.334-0.009,0.538c0.145,0.2,0.495,0.313,0.495,0.313  s-0.573,0.064-0.707,0.316C32.521,31.893,32.851,32.075,33.177,32.075z M37.276,33.588c0.161,0.185,0.437,0.21,0.619,0.05  c0.175-0.159,0.188-0.443,0.028-0.632c-0.167-0.188-0.442-0.213-0.624-0.051C37.129,33.112,37.107,33.396,37.276,33.588z   M37.571,32.514c0.12,0.15,0.338,0.161,0.485,0.039c0.136-0.132,0.148-0.348,0.023-0.489c-0.123-0.146-0.339-0.162-0.479-0.032  C37.457,32.161,37.448,32.373,37.571,32.514z M37.793,31.461c-0.063-0.074-0.17-0.078-0.244-0.012  c-0.072,0.063-0.079,0.169-0.021,0.245c0.063,0.069,0.169,0.074,0.241,0.012C37.845,31.644,37.851,31.527,37.793,31.461z   M35.554,35.728c0.178-0.161,0.194-0.445,0.033-0.635c-0.163-0.187-0.439-0.208-0.616-0.046c-0.183,0.156-0.191,0.442-0.035,0.625  C35.102,35.864,35.379,35.887,35.554,35.728z M34.506,35.264c-0.124-0.146-0.334-0.161-0.476-0.037  c-0.146,0.129-0.157,0.341-0.033,0.486c0.123,0.146,0.338,0.16,0.481,0.033C34.616,35.621,34.632,35.404,34.506,35.264z   M33.685,35.355c0.073-0.064,0.079-0.17,0.021-0.242c-0.063-0.071-0.166-0.074-0.244-0.007c-0.069,0.063-0.08,0.169-0.021,0.242  C33.504,35.416,33.618,35.42,33.685,35.355z M36.656,37.833c0.159-0.18,0.219-0.393,0.122-0.586c-0.079-0.153-0.46-0.478-0.97-0.108  c-0.882,0.633-1.205,0.666-1.621,0.561c0.173,0.129,0.868,0.515,1.511,0.515C36.127,38.212,36.393,38.136,36.656,37.833z   M39.223,35.059c0.178,0.122,0.39,0.089,0.589-0.047c0.335-0.232,0.441-0.487,0.497-0.921c0.081-0.649-0.211-1.399-0.309-1.584  c0.045,0.436-0.031,0.76-0.752,1.556C38.814,34.536,39.093,34.961,39.223,35.059z M40.925,39.521  c-0.121,0.108-0.142,0.291-0.037,0.411c0.097,0.111,0.276,0.115,0.399,0.009c0.127-0.11,0.141-0.295,0.04-0.408  C41.229,39.417,41.047,39.41,40.925,39.521z M41.456,40.128c-0.052,0.053-0.06,0.131-0.012,0.189  c0.051,0.051,0.127,0.06,0.182,0.016c0.052-0.05,0.058-0.133,0.01-0.188C41.589,40.094,41.505,40.087,41.456,40.128z M53.527,30.364  c0,0,1.323,0.413,2.154-0.207c0.826-0.621,0.619-1.679,0.433-2.268c-0.211-0.675-0.65-1.051-1.121-1.601  c-0.466-0.542-0.405-1.224-0.405-1.224s0.646,0.358,1.094,0.712c0.453,0.354,0.538,0.849,0.538,0.849s0.224-0.232,0.134-0.666  c-0.095-0.435-0.672-0.709-1.119-1.129c-0.604-0.56-0.716-1.134-0.596-1.675c0.119-0.524,0.581-0.764,0.581-0.764  s-0.009,0.229,0.074,0.491c0.101,0.354,0.264,0.55,0.812,0.998c0.567,0.457,0.55,1.161,0.735,1.256  c0.178,0.085,0.213-0.397,0.017-0.783c-0.169-0.33-0.839-0.845-1.073-1.554c-0.275-0.817,0.334-1.045,0.793-1.087  c0.189-0.021,0.323-0.025,0.55-0.021c0,0-0.235,0.115-0.318,0.239c-0.166,0.259-0.02,0.645,0.318,1.053  c0.309,0.38,0.269,0.91,0.341,1.147c0.077,0.24,0.296,0.139,0.369-0.064c0.098-0.291-0.163-1.004-0.285-1.511  c-0.126-0.507,0.11-1.146,0.969-1.387c1.067-0.3,1.487-1.581,1.487-1.581s-0.427,1.278,0.245,2.177  c0.547,0.728,0.358,1.385-0.042,1.706c-0.4,0.33-1.025,0.732-1.122,1.027c-0.061,0.204,0.052,0.428,0.25,0.279  c0.197-0.145,0.484-0.593,0.953-0.696c0.516-0.113,0.856-0.338,0.877-0.646c0.008-0.149-0.109-0.387-0.109-0.387  c0.182,0.136,0.283,0.224,0.424,0.354c0.34,0.324,0.69,0.878-0.011,1.362c-0.606,0.421-1.446,0.411-1.773,0.568  c-0.382,0.189-0.643,0.596-0.447,0.635c0.196,0.039,0.604-0.53,1.324-0.547c0.7-0.012,0.946-0.067,1.237-0.284  c0.222-0.159,0.346-0.344,0.346-0.344s0.227,0.476,0.01,0.965c-0.222,0.508-0.65,0.897-1.452,0.966  c-0.611,0.057-1.235-0.088-1.561,0.198c-0.331,0.3-0.291,0.613-0.291,0.613s0.362-0.342,0.931-0.346  c0.568,0.004,1.287,0.122,1.287,0.122s-0.351,0.577-1.042,0.718c-0.699,0.15-1.271,0.179-1.833,0.575  c-0.5,0.357-1.289,1.069-0.994,2.076c0.288,1.006,1.594,1.5,1.594,1.5s-0.922-0.146-1.506,0.237  c-0.586,0.377-0.483,1.128,0.016,1.406c0.508,0.284,1.186-0.066,1.186-0.066s-0.194,0.716-0.568,0.979  c-0.369,0.256-0.859,0.323-1.33,0.005c-0.309-0.217-0.47-0.511-0.696-0.582c-0.214-0.071,0.327,0.762-0.065,1.288  c-0.284,0.386-0.832,0.513-1.056,0.713c-0.232,0.204-0.431,0.624-0.431,0.624s0.083-0.459,0.019-0.757  c-0.058-0.307-0.419-0.755-0.423-1.229c0-0.672,0.926-0.99,0.709-1.071c-0.222-0.083-0.521,0.053-0.891,0.03  c-0.564-0.035-0.915-0.394-1.054-0.824c-0.145-0.441,0.121-1.137,0.121-1.137s0.332,0.707,0.902,0.795  c0.565,0.09,1.08-0.441,0.845-1.11C54.343,30.812,53.527,30.364,53.527,30.364z M56.767,26.336c0.176,0.313,0.378,0.526,0.457,0.907  c0.066,0.323-0.139,1.226-0.139,1.226s0.38-0.845,0.616-1.06c0.292-0.256,0.575-0.301,0.898-0.437  c0.305-0.129,0.535-0.425,0.195-0.697c-0.227-0.175-0.776-0.014-0.776-0.014s0.275-0.24,0.337-0.489  c0.056-0.238-0.083-0.437-0.222-0.487c-0.141-0.041-0.365,0.028-0.462,0.256c-0.098,0.231-0.019,0.594-0.019,0.594  s-0.342-0.466-0.628-0.466C56.586,25.664,56.601,26.045,56.767,26.336z M55.534,33.211c0.237,0.084,0.584-0.134,0.824-0.865  c0.219-0.66,0.016-1.007-0.189-1.076c-0.178-0.065-0.578,0.095-0.795,0.739C55.138,32.742,55.316,33.135,55.534,33.211z   M57.552,30.684c-0.084,0.234,0.043,0.496,0.273,0.569c0.224,0.083,0.469-0.049,0.544-0.284c0.083-0.24-0.037-0.489-0.266-0.57  C57.875,30.318,57.63,30.447,57.552,30.684z M59.043,30.207c-0.181-0.066-0.374,0.032-0.435,0.213  c-0.055,0.177,0.042,0.373,0.217,0.436c0.177,0.063,0.375-0.031,0.43-0.217C59.317,30.459,59.219,30.263,59.043,30.207z   M59.509,29.873c-0.088-0.03-0.188,0.011-0.217,0.104c-0.029,0.085,0.021,0.185,0.107,0.215c0.099,0.027,0.193-0.012,0.225-0.102  C59.653,30,59.603,29.905,59.509,29.873z M54.854,30.23c0.234,0.078,0.471-0.047,0.555-0.281c0.079-0.24-0.042-0.501-0.271-0.575  c-0.224-0.078-0.473,0.049-0.551,0.284C54.509,29.898,54.634,30.157,54.854,30.23z M54.295,29.291  c0.182,0.06,0.371-0.035,0.431-0.215c0.062-0.183-0.038-0.379-0.217-0.441c-0.181-0.056-0.372,0.04-0.43,0.213  C54.02,29.032,54.116,29.224,54.295,29.291z M54.328,28.081c-0.089-0.032-0.188,0.016-0.217,0.106  c-0.028,0.083,0.025,0.18,0.116,0.217c0.09,0.03,0.188-0.021,0.216-0.104C54.472,28.211,54.424,28.113,54.328,28.081z   M52.481,30.005c-0.022,0.21,0,1.008,0.329,1.574c0.217,0.378,0.414,0.574,0.803,0.665c0.239,0.046,0.451-0.006,0.563-0.189  c0.093-0.142,0.181-0.637-0.393-0.903C52.801,30.689,52.605,30.425,52.481,30.005z M57.284,33.128  c-0.019,0.217,0.114,0.391,0.339,0.496c0.362,0.176,0.638,0.146,1.03-0.021c0.599-0.247,1.085-0.873,1.193-1.051  c-0.344,0.249-0.661,0.351-1.703,0.104C57.522,32.507,57.297,32.964,57.284,33.128z M54.534,37.194  c0.047-0.151-0.04-0.313-0.191-0.368c-0.157-0.046-0.323,0.021-0.369,0.167c-0.049,0.146,0.031,0.309,0.188,0.364  C54.322,37.406,54.485,37.339,54.534,37.194z M53.925,37.683c-0.026,0.067,0.011,0.144,0.08,0.161  c0.069,0.029,0.139-0.011,0.163-0.078c0.021-0.066-0.015-0.141-0.084-0.163C54.024,37.576,53.946,37.614,53.925,37.683z   M76.327,45.396c-0.209,0.047-0.333,0.252-0.114,0.357c0.233,0.103,0.756,0.13,1.079,0.495c0.354,0.396,0.717,0.591,0.992,0.451  c0.134-0.066,0.277-0.29,0.277-0.29c-0.025,0.229-0.054,0.357-0.093,0.552c-0.098,0.459-0.396,1.046-1.163,0.662  c-0.665-0.32-1.081-1.064-1.384-1.276c-0.353-0.245-0.824-0.274-0.767-0.083c0.066,0.194,0.761,0.268,1.136,0.898  c0.366,0.606,0.538,0.796,0.868,0.95c0.252,0.109,0.477,0.125,0.477,0.125s-0.293,0.441-0.819,0.492  c-0.552,0.058-1.086-0.13-1.559-0.801c-0.357-0.509-0.552-1.129-0.968-1.279c-0.416-0.146-0.665,0.05-0.665,0.05  s0.48,0.146,0.768,0.647c0.281,0.5,0.547,1.193,0.547,1.193s-0.663-0.02-1.148-0.566c-0.475-0.538-0.785-1.029-1.412-1.324  c-0.558-0.259-1.559-0.601-2.272,0.15c-0.707,0.75-0.472,2.142-0.472,2.142s-0.336-0.882-0.962-1.212  c-0.616-0.32-1.208,0.134-1.19,0.716c0.015,0.582,0.662,1.011,0.662,1.011s-0.713,0.181-1.127-0.021  c-0.405-0.201-0.707-0.593-0.672-1.17c0.025-0.375,0.196-0.665,0.14-0.889c-0.049-0.236-0.478,0.66-1.135,0.574  c-0.462-0.064-0.849-0.485-1.141-0.582c-0.286-0.104-0.746-0.071-0.746-0.071s0.433-0.152,0.661-0.354  c0.229-0.205,0.425-0.738,0.823-0.979c0.572-0.329,1.319,0.324,1.275,0.091c-0.037-0.231-0.311-0.43-0.481-0.771  c-0.258-0.511-0.124-0.998,0.171-1.333c0.306-0.347,1.034-0.455,1.034-0.455s-0.433,0.641-0.22,1.188  c0.212,0.543,0.928,0.733,1.368,0.196c0.447-0.543,0.422-1.482,0.422-1.482s0.325,1.369,1.269,1.792  c0.949,0.418,1.738-0.286,2.153-0.741c0.465-0.516,0.559-1.085,0.79-1.773c0.236-0.684,0.841-0.963,0.841-0.963  s0.024,0.739-0.052,1.315c-0.068,0.571-0.455,0.89-0.455,0.89s0.313,0.083,0.637-0.208c0.327-0.301,0.264-0.944,0.393-1.549  c0.179-0.806,0.604-1.185,1.129-1.349c0.504-0.155,0.948,0.142,0.948,0.142s-0.202,0.094-0.387,0.297  c-0.251,0.272-0.336,0.508-0.436,1.212c-0.102,0.728-0.712,1.063-0.7,1.261c0.017,0.206,0.446-0.002,0.668-0.364  c0.202-0.31,0.299-1.157,0.786-1.713c0.562-0.646,1.058-0.225,1.329,0.156c0.114,0.164,0.185,0.275,0.299,0.48  c0,0-0.221-0.154-0.365-0.166c-0.306-0.022-0.563,0.303-0.738,0.801c-0.165,0.462-0.637,0.692-0.807,0.873  c-0.167,0.183,0.036,0.328,0.243,0.283c0.304-0.055,0.776-0.632,1.142-0.994c0.374-0.36,1.039-0.467,1.678,0.168  c0.789,0.792,2.095,0.529,2.095,0.529s-1.306,0.258-1.729,1.295c-0.342,0.834-1,0.988-1.478,0.804  C77.287,45.688,76.626,45.334,76.327,45.396z M69.082,46.17c-0.036-0.185-0.375-0.462-1.03-0.332  c-0.747,0.152-0.99,0.503-0.947,0.729c0.047,0.256,0.412,0.452,1.159,0.305C68.934,46.738,69.125,46.382,69.082,46.17z   M75.173,44.944c-0.027-0.15-0.206-0.31-0.448-0.282c-0.245,0.028-0.518,0.279-0.518,0.279s0.229-0.54,0.088-0.792  c-0.225-0.381-0.543-0.18-0.703,0.106c-0.182,0.313-0.258,0.591-0.544,0.854c-0.245,0.215-1.119,0.487-1.119,0.487  s0.916-0.091,1.221,0.016c0.367,0.13,0.545,0.357,0.826,0.578c0.269,0.195,0.632,0.263,0.688-0.179  c0.037-0.291-0.381-0.694-0.381-0.694s0.349,0.129,0.582,0.057C75.1,45.306,75.203,45.089,75.173,44.944z M70.281,47.098  c-0.239,0.049-0.4,0.28-0.351,0.52c0.047,0.24,0.281,0.393,0.523,0.342c0.244-0.046,0.4-0.279,0.351-0.52  C70.753,47.204,70.523,47.042,70.281,47.098z M71.177,48.575c0.186-0.034,0.305-0.215,0.269-0.408  c-0.042-0.185-0.221-0.306-0.406-0.266c-0.176,0.039-0.3,0.215-0.262,0.404S70.997,48.614,71.177,48.575z M71.766,48.277  c-0.093,0.021-0.148,0.113-0.129,0.208c0.021,0.095,0.108,0.162,0.196,0.144c0.096-0.021,0.15-0.111,0.129-0.21  C71.944,48.321,71.856,48.262,71.766,48.277z M69.309,44.5c0.045,0.24,0.281,0.393,0.521,0.35c0.24-0.051,0.397-0.281,0.347-0.522  c-0.044-0.24-0.281-0.39-0.517-0.341C69.411,44.031,69.26,44.266,69.309,44.5z M70.485,43.41c-0.037-0.19-0.217-0.313-0.402-0.278  c-0.18,0.039-0.297,0.221-0.264,0.408c0.038,0.189,0.218,0.308,0.402,0.272C70.406,43.78,70.524,43.596,70.485,43.41z   M70.871,42.979c-0.021-0.103-0.108-0.162-0.197-0.141c-0.092,0.018-0.15,0.107-0.129,0.203c0.018,0.099,0.106,0.161,0.194,0.141  C70.832,43.169,70.886,43.073,70.871,42.979z M67.116,43.367c-0.21,0.379-0.28,0.646-0.154,1.039  c0.083,0.23,0.233,0.396,0.445,0.403c0.159,0.005,0.632-0.163,0.571-0.801c-0.106-1.092,0.027-1.392,0.318-1.711  C68.107,42.386,67.435,42.801,67.116,43.367z M68.901,48.592c-0.194-0.621-0.693-0.593-0.838-0.521  c-0.191,0.09-0.27,0.293-0.251,0.542c0.032,0.409,0.197,0.633,0.54,0.896c0.51,0.401,1.292,0.525,1.5,0.53  C69.46,49.861,69.225,49.633,68.901,48.592z M63.42,47.306c-0.033-0.164-0.185-0.27-0.327-0.237c-0.153,0.027-0.24,0.184-0.21,0.344  c0.032,0.166,0.178,0.272,0.325,0.245C63.356,47.624,63.453,47.472,63.42,47.306z M62.635,47.466  c-0.016-0.072-0.083-0.116-0.152-0.104c-0.069,0.017-0.114,0.083-0.103,0.154c0.02,0.074,0.085,0.113,0.154,0.106  C62.607,47.606,62.646,47.534,62.635,47.466z M66.878,70.975c0.026,0.245,0.267,0.723,0.127,1.191  c-0.158,0.508-0.14,0.924,0.119,1.092c0.123,0.088,0.385,0.1,0.385,0.1c-0.212,0.097-0.335,0.136-0.52,0.196  c-0.438,0.139-1.087,0.162-1.15-0.699c-0.064-0.744,0.361-1.476,0.39-1.848c0.027-0.434-0.19-0.861-0.315-0.713  c-0.133,0.15,0.148,0.804-0.192,1.44c-0.339,0.624-0.407,0.868-0.37,1.232c0.028,0.28,0.129,0.48,0.129,0.48  s-0.521-0.044-0.831-0.476c-0.327-0.457-0.439-1.024-0.101-1.773c0.249-0.561,0.687-1.036,0.59-1.473  c-0.082-0.437-0.376-0.567-0.376-0.567s0.118,0.496-0.164,0.99c-0.282,0.503-0.736,1.078-0.736,1.078s-0.318-0.594-0.099-1.288  c0.216-0.687,0.475-1.2,0.415-1.905c-0.06-0.616-0.276-1.669-1.274-1.925c-1.001-0.247-2.068,0.648-2.068,0.648  s0.577-0.731,0.542-1.445c-0.034-0.709-0.723-0.995-1.212-0.692c-0.484,0.298-0.521,1.075-0.521,1.075s-0.511-0.533-0.555-1.002  c-0.033-0.452,0.151-0.916,0.656-1.166c0.335-0.166,0.66-0.154,0.837-0.315c0.162-0.16-0.813-0.098-1.073-0.716  c-0.184-0.439-0.018-0.986-0.078-1.293c-0.062-0.307-0.314-0.69-0.314-0.69s0.344,0.305,0.634,0.403  c0.291,0.102,0.845,0.008,1.246,0.245c0.577,0.337,0.393,1.321,0.57,1.166c0.179-0.152,0.208-0.482,0.413-0.796  c0.313-0.48,0.79-0.607,1.227-0.514c0.447,0.1,0.907,0.682,0.907,0.682s-0.771-0.061-1.119,0.393  c-0.359,0.452-0.163,1.18,0.525,1.302c0.686,0.125,1.479-0.361,1.479-0.361s-1.01,0.962-0.89,2.001  c0.122,1.046,1.123,1.39,1.724,1.528c0.668,0.152,1.207-0.044,1.905-0.178c0.701-0.134,1.242,0.264,1.242,0.264  s-0.613,0.39-1.135,0.609c-0.527,0.212-0.99,0.038-0.99,0.038s0.08,0.313,0.498,0.453s0.935-0.23,1.518-0.416  c0.77-0.249,1.313-0.06,1.717,0.326c0.383,0.369,0.362,0.9,0.362,0.9s-0.185-0.13-0.452-0.194c-0.354-0.08-0.603-0.039-1.255,0.213  c-0.669,0.272-1.264-0.097-1.43,0.021c-0.163,0.106,0.229,0.382,0.653,0.404c0.368,0.021,1.138-0.31,1.862-0.16  c0.828,0.177,0.722,0.83,0.531,1.254c-0.079,0.176-0.139,0.294-0.257,0.494c0,0,0.021-0.268-0.048-0.398  c-0.137-0.28-0.535-0.352-1.053-0.262c-0.477,0.084-0.909-0.217-1.147-0.274c-0.237-0.056-0.264,0.189-0.127,0.358  c0.207,0.23,0.938,0.364,1.432,0.515c0.495,0.141,0.923,0.679,0.706,1.549c-0.276,1.088,0.611,2.11,0.611,2.11  s-0.888-1.022-1.985-0.884c-0.88,0.11-1.348-0.392-1.427-0.906c-0.085-0.517-0.117-1.271-0.326-1.5  C67.096,70.73,66.854,70.718,66.878,70.975z M62.683,63.829c-0.509-0.581-0.937-0.626-1.104-0.476  c-0.19,0.173-0.178,0.589,0.329,1.166c0.451,0.526,0.848,0.524,1.009,0.378C63.055,64.775,63.124,64.34,62.683,63.829z   M67.045,69.654c0.106-0.1,0.156-0.335,0.01-0.535c-0.143-0.199-0.497-0.319-0.497-0.319s0.571-0.058,0.713-0.31  c0.212-0.386-0.114-0.565-0.441-0.569c-0.356-0.005-0.637,0.066-1.003-0.058c-0.3-0.101-0.979-0.742-0.979-0.742  s0.535,0.76,0.603,1.083c0.077,0.386-0.027,0.656-0.07,1.009c-0.036,0.331,0.092,0.688,0.499,0.52  c0.26-0.11,0.394-0.677,0.394-0.677s0.071,0.37,0.248,0.543C66.7,69.771,66.935,69.751,67.045,69.654z M62.703,67.043  c0.18-0.157,0.191-0.443,0.028-0.633c-0.164-0.185-0.438-0.212-0.615-0.056c-0.186,0.167-0.191,0.451-0.035,0.638  C62.25,67.182,62.524,67.202,62.703,67.043z M61.93,67.937c0.118,0.141,0.336,0.152,0.478,0.032c0.14-0.127,0.154-0.347,0.027-0.489  c-0.122-0.146-0.339-0.159-0.478-0.035C61.813,67.579,61.805,67.795,61.93,67.937z M62.215,68.537  c0.063,0.071,0.171,0.076,0.24,0.014c0.079-0.067,0.085-0.179,0.022-0.25c-0.064-0.069-0.17-0.073-0.239-0.007  C62.165,68.356,62.156,68.47,62.215,68.537z M64.448,64.272c-0.179,0.161-0.19,0.443-0.025,0.625  c0.167,0.192,0.438,0.215,0.614,0.052c0.18-0.157,0.194-0.437,0.036-0.626C64.902,64.132,64.628,64.11,64.448,64.272z   M65.499,64.736c0.125,0.146,0.345,0.157,0.481,0.034c0.142-0.128,0.157-0.346,0.03-0.486c-0.12-0.146-0.342-0.162-0.48-0.034  C65.392,64.374,65.373,64.596,65.499,64.736z M66.322,64.643c-0.076,0.062-0.082,0.172-0.022,0.244  c0.058,0.069,0.173,0.074,0.242,0.007c0.074-0.067,0.079-0.173,0.016-0.245C66.5,64.584,66.395,64.58,66.322,64.643z M63.356,62.165  c-0.166,0.185-0.223,0.395-0.127,0.586c0.078,0.15,0.454,0.476,0.971,0.106c0.873-0.633,1.193-0.665,1.62-0.565  c-0.175-0.127-0.862-0.511-1.506-0.508C63.877,61.784,63.614,61.855,63.356,62.165z M60.784,64.939  c-0.175-0.125-0.393-0.09-0.592,0.049c-0.326,0.231-0.434,0.487-0.489,0.916c-0.088,0.649,0.203,1.399,0.31,1.589  c-0.051-0.438,0.021-0.764,0.753-1.559C61.192,65.464,60.913,65.034,60.784,64.939z M58.72,60.055  c-0.12,0.115-0.139,0.296-0.039,0.408c0.1,0.118,0.284,0.122,0.404,0.013c0.121-0.109,0.143-0.294,0.036-0.41  C59.021,59.957,58.841,59.948,58.72,60.055z M58.554,59.865c0.051-0.051,0.055-0.129,0.01-0.192c-0.047-0.05-0.131-0.055-0.18-0.006  c-0.057,0.046-0.057,0.131-0.015,0.184C58.417,59.904,58.499,59.913,58.554,59.865z M55.824,60.911c-0.013,0-0.024,0-0.031,0  c-0.069,0.016-0.123,0.048-0.177,0.087c-0.258,0.153-0.405,0.467-0.34,0.786c0.078,0.408,0.468,0.669,0.869,0.591  c0.397-0.083,0.655-0.474,0.575-0.882c-0.083-0.408-0.474-0.667-0.872-0.589C55.839,60.908,55.829,60.911,55.824,60.911z   M48.89,62.303c-0.018,0.005-0.027,0.008-0.039,0.017c-0.017,0-0.025,0-0.04,0.005c-0.401,0.078-0.655,0.466-0.574,0.875  c0.083,0.408,0.473,0.665,0.871,0.591c0.396-0.078,0.655-0.476,0.571-0.882c-0.06-0.291-0.281-0.516-0.55-0.582  C49.057,62.297,48.973,62.287,48.89,62.303z M43.634,60.486c-0.05-0.051-0.105-0.085-0.164-0.113  c-0.26-0.149-0.602-0.125-0.839,0.09c-0.307,0.272-0.334,0.748-0.067,1.056c0.277,0.31,0.733,0.344,1.043,0.068  c0.301-0.27,0.332-0.745,0.061-1.053c-0.005-0.009-0.013-0.016-0.022-0.022C43.642,60.502,43.637,60.495,43.634,60.486z   M38.837,56.088c0.223-0.196,0.296-0.494,0.217-0.766c-0.016-0.079-0.046-0.162-0.101-0.229c-0.011-0.007-0.018-0.014-0.028-0.022  c-0.01-0.017-0.016-0.023-0.023-0.03c-0.268-0.316-0.738-0.346-1.043-0.076c-0.304,0.274-0.331,0.751-0.06,1.058  C38.07,56.333,38.534,56.367,38.837,56.088z M37.823,49.626c0-0.007,0.003-0.016,0.007-0.028c0-0.011,0.005-0.019,0.01-0.027  c0.022-0.066,0.028-0.129,0.019-0.196c-0.008-0.307-0.195-0.594-0.5-0.699c-0.387-0.134-0.807,0.079-0.934,0.472  c-0.132,0.385,0.078,0.814,0.468,0.948C37.272,50.229,37.69,50.019,37.823,49.626z M39.928,42.995  c0.062-0.051,0.112-0.122,0.141-0.201c0.004-0.016,0.007-0.032,0.011-0.049c0.005-0.006,0.015-0.018,0.015-0.029  c0.131-0.39-0.079-0.816-0.467-0.948c-0.388-0.137-0.802,0.071-0.93,0.464c-0.133,0.395,0.081,0.814,0.463,0.951  C39.442,43.277,39.737,43.196,39.928,42.995z M44.185,39.087c0.012-0.002,0.022,0,0.032-0.002c0.064-0.017,0.12-0.049,0.171-0.083  c0.259-0.162,0.406-0.469,0.341-0.788c-0.082-0.404-0.467-0.667-0.862-0.589c-0.402,0.078-0.661,0.471-0.577,0.88  c0.083,0.406,0.471,0.669,0.867,0.587C44.169,39.092,44.18,39.085,44.185,39.087z M51.121,37.692c0.012-0.005,0.024-0.01,0.04-0.012  c0.011,0,0.023,0,0.039-0.005c0.393-0.078,0.653-0.471,0.57-0.873c-0.078-0.412-0.469-0.671-0.867-0.598  c-0.397,0.083-0.653,0.48-0.574,0.882c0.057,0.291,0.283,0.511,0.551,0.577C50.954,37.699,51.036,37.711,51.121,37.692z   M40.045,42.931l2.043-0.146l0.111-1.752l-0.023-0.032h0.027v-0.023l0.027,0.028l1.729,0.114l0.396-2.045l1.999,0.474l0.706-4.167  l2.272,3.568l1.655-1.212l1.156,1.733l1.562-0.777l0.002-0.032l0.012,0.025l0.021-0.012l-0.006,0.034l0.778,1.58l1.943-0.661  l0.61,1.992l3.91-1.434l-1.898,3.759l1.866,0.861l-0.889,1.875l1.448,0.981l0.029-0.002l-0.012,0.018l0.019,0.016l-0.029,0.007  l-0.956,1.469l1.544,1.384l-1.385,1.521l3.2,2.731l-4.16,0.185l0.207,2.076l-2.047,0.141l-0.107,1.757l0.025,0.032h-0.027v0.023  l-0.028-0.028l-1.73-0.112l-0.401,2.04l-1.991-0.473l-0.709,4.167l-2.264-3.564l-1.662,1.207l-1.154-1.731l-1.554,0.771L46.3,61.331  l-0.015-0.022l-0.022,0.011l0.009-0.034l-0.78-1.577l-1.939,0.66l-0.61-1.997l-3.905,1.441l1.892-3.759l-1.867-0.866l0.89-1.874  l-1.446-0.984l-0.036,0.005l0.012-0.019l-0.021-0.011l0.042-0.01l0.945-1.466l-1.542-1.384l1.395-1.525l-3.209-2.729l4.163-0.188  L40.045,42.931z M40.448,46.694c-0.576,1.773-0.646,3.587-0.291,5.293c0.335,1.707,1.101,3.351,2.314,4.754  c1.216,1.399,2.724,2.383,4.359,2.926c1.617,0.577,3.393,0.734,5.19,0.371c1.804-0.359,3.386-1.198,4.661-2.356  c1.287-1.137,2.296-2.618,2.873-4.381c0.582-1.772,0.655-3.597,0.291-5.307c-0.333-1.697-1.094-3.337-2.303-4.735  c-1.225-1.404-2.739-2.388-4.365-2.932c-1.62-0.575-3.403-0.729-5.193-0.367c-1.801,0.357-3.376,1.191-4.651,2.348  C42.046,43.443,41.026,44.928,40.448,46.694z M56.404,38.408c-0.308,0.271-0.335,0.746-0.066,1.058  c0.004,0.002,0.021,0.011,0.021,0.019c0.006,0.009,0.016,0.016,0.021,0.027c0.041,0.048,0.101,0.082,0.158,0.11  c0.263,0.15,0.604,0.13,0.843-0.087c0.298-0.275,0.325-0.747,0.06-1.053C57.175,38.168,56.703,38.136,56.404,38.408z M61.172,43.903  c-0.222,0.196-0.297,0.498-0.219,0.771c0.012,0.08,0.049,0.162,0.103,0.227c0.007,0.014,0.02,0.016,0.031,0.027  c0.006,0.014,0.006,0.021,0.021,0.032c0.27,0.308,0.734,0.346,1.04,0.072c0.303-0.278,0.33-0.744,0.063-1.056  C61.939,43.667,61.473,43.633,61.172,43.903z M62.653,51.32c0.389,0.134,0.8-0.073,0.93-0.471c0.128-0.386-0.079-0.815-0.462-0.944  c-0.39-0.139-0.809,0.074-0.934,0.469c-0.004,0.007-0.009,0.012-0.009,0.025c-0.007,0.009-0.007,0.021-0.01,0.028  c-0.021,0.06-0.027,0.131-0.018,0.198C62.156,50.928,62.35,51.209,62.653,51.32z M60.078,57.005c-0.056,0.046-0.11,0.118-0.14,0.201  c-0.004,0.016-0.009,0.027-0.009,0.041c-0.007,0.009-0.014,0.021-0.019,0.037c-0.124,0.388,0.078,0.813,0.467,0.946  c0.391,0.134,0.803-0.074,0.933-0.467c0.13-0.39-0.079-0.814-0.467-0.953C60.567,56.718,60.271,56.804,60.078,57.005z   M57.277,48.832c0.031,0.161,0.177,0.272,0.339,0.252c0.164-0.017,0.281-0.174,0.249-0.348c-0.027-0.168-0.187-0.281-0.343-0.251  C57.356,48.521,57.256,48.675,57.277,48.832z M57.354,49.409c0.009,0.159,0.151,0.284,0.314,0.279  c0.165-0.007,0.29-0.152,0.274-0.33c-0.017-0.173-0.165-0.294-0.326-0.274C57.454,49.104,57.339,49.252,57.354,49.409z   M57.376,49.988c0.005,0.162,0.134,0.293,0.296,0.305c0.166,0.005,0.3-0.129,0.3-0.305c-0.002-0.177-0.139-0.312-0.304-0.3  C57.502,49.693,57.381,49.831,57.376,49.988z M57.362,50.57c-0.014,0.156,0.104,0.302,0.268,0.326  c0.167,0.02,0.313-0.107,0.324-0.279c0.016-0.179-0.116-0.319-0.282-0.324C57.51,50.291,57.376,50.413,57.362,50.57z M57.302,51.147  c-0.027,0.157,0.081,0.31,0.243,0.346c0.163,0.03,0.319-0.083,0.341-0.256c0.026-0.174-0.089-0.321-0.256-0.341  C57.466,50.88,57.321,50.995,57.302,51.147z M57.196,51.718c-0.042,0.152,0.055,0.318,0.215,0.36  c0.161,0.048,0.32-0.051,0.362-0.225c0.039-0.168-0.067-0.332-0.229-0.36C57.383,51.457,57.227,51.563,57.196,51.718z   M57.046,52.276c-0.053,0.157,0.029,0.321,0.188,0.381c0.154,0.058,0.328-0.027,0.383-0.196c0.046-0.166-0.042-0.339-0.205-0.383  C57.251,52.036,57.094,52.131,57.046,52.276z M56.854,52.821c-0.061,0.15,0.009,0.323,0.16,0.396  c0.154,0.067,0.324-0.002,0.39-0.168c0.062-0.157-0.017-0.335-0.171-0.393C57.075,52.603,56.912,52.676,56.854,52.821z   M56.622,53.353c-0.072,0.145-0.018,0.323,0.127,0.403c0.143,0.082,0.326,0.021,0.401-0.132c0.08-0.154,0.014-0.343-0.136-0.406  C56.86,53.149,56.692,53.216,56.622,53.353z M56.347,53.862c-0.073,0.134-0.042,0.323,0.102,0.413  c0.134,0.096,0.322,0.049,0.409-0.097c0.089-0.154,0.034-0.341-0.108-0.423C56.604,53.676,56.429,53.727,56.347,53.862z   M56.039,54.352c-0.094,0.13-0.067,0.31,0.063,0.415c0.133,0.101,0.323,0.074,0.42-0.066c0.102-0.146,0.06-0.329-0.074-0.425  C56.305,54.186,56.124,54.22,56.039,54.352z M55.69,54.807c-0.1,0.127-0.092,0.314,0.037,0.425c0.123,0.111,0.313,0.102,0.42-0.034  c0.111-0.134,0.088-0.328-0.045-0.431C55.972,54.666,55.793,54.688,55.69,54.807z M55.308,55.243c-0.106,0.11-0.11,0.3,0.005,0.42  c0.115,0.123,0.304,0.123,0.425,0c0.117-0.12,0.111-0.32-0.01-0.432C55.599,55.121,55.419,55.126,55.308,55.243z M54.896,55.641  c-0.116,0.105-0.131,0.29-0.027,0.42c0.105,0.134,0.293,0.146,0.42,0.036c0.13-0.119,0.142-0.311,0.023-0.434  C55.195,55.543,55.017,55.534,54.896,55.641z M54.454,56.01c-0.126,0.095-0.157,0.274-0.061,0.413  c0.098,0.137,0.282,0.173,0.421,0.066c0.138-0.105,0.16-0.3,0.055-0.429C54.763,55.936,54.581,55.913,54.454,56.01z M53.987,56.335  c-0.135,0.088-0.176,0.266-0.093,0.409c0.08,0.147,0.268,0.198,0.416,0.1c0.141-0.091,0.181-0.284,0.083-0.421  C54.297,56.284,54.121,56.25,53.987,56.335z M53.493,56.626c-0.139,0.077-0.193,0.252-0.123,0.406  c0.072,0.146,0.253,0.212,0.405,0.125c0.153-0.079,0.199-0.271,0.119-0.413C53.808,56.607,53.629,56.552,53.493,56.626z   M52.98,56.875c-0.143,0.067-0.218,0.24-0.157,0.394c0.06,0.156,0.241,0.235,0.393,0.168c0.162-0.074,0.227-0.259,0.154-0.404  C53.294,56.878,53.124,56.815,52.98,56.875z M52.45,57.083c-0.148,0.056-0.236,0.225-0.185,0.382  c0.043,0.156,0.216,0.251,0.372,0.195c0.167-0.058,0.245-0.235,0.186-0.392C52.762,57.115,52.599,57.04,52.45,57.083z M51.9,57.256  c-0.148,0.035-0.25,0.201-0.212,0.36c0.036,0.161,0.2,0.262,0.364,0.222c0.165-0.048,0.26-0.217,0.213-0.373  C52.214,57.308,52.053,57.217,51.9,57.256z M51.342,57.379c-0.152,0.027-0.26,0.175-0.24,0.344c0.028,0.162,0.177,0.277,0.346,0.245  c0.173-0.028,0.278-0.19,0.241-0.352C51.649,57.457,51.493,57.351,51.342,57.379z M50.78,57.457  c-0.162,0.017-0.279,0.159-0.268,0.325c0.007,0.167,0.15,0.292,0.326,0.275c0.172-0.017,0.291-0.173,0.263-0.335  C51.078,57.554,50.937,57.44,50.78,57.457z M50.205,57.491c-0.151,0.005-0.285,0.14-0.291,0.303c0,0.169,0.134,0.303,0.309,0.303  c0.172-0.005,0.302-0.147,0.29-0.314C50.495,57.616,50.362,57.485,50.205,57.491z M49.637,57.485  c-0.158-0.01-0.299,0.108-0.314,0.274c-0.019,0.169,0.108,0.314,0.283,0.32c0.17,0.017,0.314-0.12,0.309-0.286  C49.914,57.631,49.79,57.491,49.637,57.485z M49.06,57.43c-0.151-0.028-0.299,0.085-0.326,0.252  c-0.029,0.161,0.085,0.32,0.257,0.341c0.168,0.028,0.319-0.094,0.332-0.263C49.338,57.594,49.219,57.448,49.06,57.43z   M48.501,57.323c-0.154-0.028-0.313,0.067-0.354,0.229c-0.037,0.159,0.063,0.333,0.229,0.365c0.172,0.034,0.333-0.071,0.357-0.235  C48.756,57.515,48.654,57.362,48.501,57.323z M47.945,57.183c-0.153-0.044-0.313,0.039-0.37,0.199  c-0.051,0.154,0.04,0.327,0.201,0.382c0.169,0.047,0.333-0.048,0.37-0.212C48.188,57.386,48.095,57.229,47.945,57.183z   M47.403,56.993c-0.146-0.056-0.318,0.012-0.379,0.174c-0.069,0.146,0.009,0.329,0.166,0.387c0.166,0.067,0.336-0.018,0.385-0.172  C47.629,57.224,47.553,57.051,47.403,56.993z M46.876,56.76c-0.141-0.063-0.318-0.007-0.389,0.143  c-0.082,0.146-0.02,0.331,0.138,0.409c0.154,0.07,0.334,0.002,0.399-0.145C47.085,57.01,47.019,56.831,46.876,56.76z M46.363,56.497  c-0.131-0.083-0.31-0.039-0.396,0.099c-0.088,0.141-0.042,0.331,0.106,0.421c0.152,0.09,0.332,0.032,0.414-0.114  C46.558,56.753,46.508,56.573,46.363,56.497z M45.883,56.184c-0.131-0.091-0.312-0.056-0.415,0.078  c-0.093,0.129-0.061,0.323,0.082,0.42c0.145,0.104,0.333,0.06,0.417-0.086C46.049,56.453,46.015,56.277,45.883,56.184z   M45.422,55.837c-0.12-0.103-0.31-0.083-0.416,0.039c-0.105,0.129-0.092,0.328,0.048,0.434c0.128,0.108,0.321,0.086,0.414-0.048  C45.567,56.125,45.54,55.938,45.422,55.837z M44.985,55.456c-0.113-0.107-0.303-0.111-0.418,0.011  c-0.115,0.116-0.112,0.307,0.015,0.43c0.124,0.122,0.318,0.108,0.424-0.021C45.112,55.754,45.099,55.566,44.985,55.456z   M44.582,55.04c-0.103-0.115-0.292-0.131-0.419-0.021c-0.121,0.102-0.137,0.298-0.016,0.43c0.114,0.129,0.308,0.129,0.42,0.018  C44.683,55.345,44.688,55.16,44.582,55.04z M44.213,54.599c-0.096-0.127-0.28-0.156-0.419-0.06c-0.128,0.1-0.16,0.296-0.052,0.429  c0.106,0.141,0.3,0.158,0.421,0.052C44.29,54.909,44.304,54.724,44.213,54.599z M43.875,54.123  c-0.093-0.129-0.269-0.173-0.411-0.088c-0.139,0.084-0.181,0.277-0.088,0.419c0.103,0.149,0.29,0.185,0.418,0.085  C43.933,54.442,43.959,54.26,43.875,54.123z M43.575,53.627c-0.078-0.136-0.253-0.196-0.401-0.117  c-0.146,0.071-0.2,0.261-0.118,0.413c0.082,0.146,0.27,0.2,0.408,0.112C43.606,53.946,43.654,53.765,43.575,53.627z M43.316,53.112  c-0.069-0.148-0.239-0.215-0.394-0.157c-0.151,0.063-0.221,0.245-0.147,0.406c0.071,0.157,0.253,0.22,0.398,0.148  C43.318,53.427,43.376,53.255,43.316,53.112z M43.09,52.569c-0.055-0.147-0.215-0.23-0.374-0.185  c-0.156,0.051-0.237,0.229-0.18,0.396c0.064,0.159,0.235,0.242,0.387,0.175C43.077,52.897,43.149,52.725,43.09,52.569z   M42.914,52.016c-0.043-0.152-0.202-0.252-0.362-0.213c-0.158,0.04-0.252,0.21-0.209,0.379c0.051,0.164,0.217,0.254,0.373,0.203  C42.875,52.339,42.961,52.171,42.914,52.016z M42.775,51.454c-0.027-0.161-0.175-0.268-0.342-0.245  c-0.161,0.028-0.272,0.19-0.23,0.363c0.027,0.169,0.19,0.274,0.349,0.23C42.712,51.764,42.813,51.606,42.775,51.454z M42.687,50.875  c-0.021-0.157-0.165-0.275-0.326-0.258c-0.166,0.004-0.286,0.156-0.263,0.334c0.022,0.168,0.175,0.286,0.336,0.258  C42.596,51.182,42.707,51.037,42.687,50.875z M42.635,50.298c-0.004-0.157-0.141-0.29-0.302-0.29c-0.166,0-0.301,0.143-0.287,0.313  c0.008,0.174,0.153,0.306,0.314,0.297C42.521,50.594,42.647,50.455,42.635,50.298z M42.631,49.716  c0.006-0.156-0.119-0.298-0.279-0.314c-0.169-0.016-0.309,0.118-0.314,0.296c-0.005,0.173,0.13,0.311,0.296,0.311  S42.631,49.873,42.631,49.716z M42.67,49.134c0.017-0.152-0.092-0.302-0.259-0.329c-0.156-0.028-0.313,0.094-0.329,0.263  c-0.021,0.173,0.105,0.323,0.27,0.334C42.512,49.418,42.65,49.291,42.67,49.134z M42.411,48.805  c0.162,0.021,0.314-0.086,0.343-0.241c0.032-0.156-0.067-0.318-0.232-0.357c-0.154-0.039-0.318,0.071-0.346,0.24  C42.14,48.614,42.25,48.776,42.411,48.805z M42.877,47.999c0.049-0.157-0.045-0.321-0.198-0.375  c-0.157-0.05-0.323,0.044-0.369,0.213c-0.049,0.166,0.055,0.334,0.212,0.369C42.687,48.245,42.844,48.148,42.877,47.999z   M43.053,47.444c0.058-0.152-0.024-0.323-0.178-0.386c-0.149-0.066-0.323,0.017-0.381,0.179c-0.056,0.163,0.027,0.341,0.185,0.387  C42.835,47.678,43.002,47.594,43.053,47.444z M43.268,46.906c0.063-0.146,0.002-0.323-0.146-0.402  c-0.148-0.073-0.33-0.006-0.396,0.155c-0.069,0.157,0,0.338,0.149,0.399C43.031,47.119,43.2,47.052,43.268,46.906z M43.519,46.387  c0.074-0.138,0.029-0.318-0.117-0.408c-0.137-0.086-0.321-0.035-0.403,0.117c-0.088,0.153-0.024,0.335,0.124,0.408  C43.27,46.583,43.445,46.525,43.519,46.387z M43.81,45.888c0.089-0.134,0.052-0.313-0.083-0.417  c-0.139-0.097-0.323-0.063-0.42,0.083c-0.087,0.145-0.046,0.339,0.095,0.425C43.548,46.063,43.727,46.021,43.81,45.888z   M44.141,45.412c0.094-0.122,0.072-0.311-0.056-0.417c-0.126-0.106-0.313-0.085-0.418,0.051c-0.106,0.143-0.079,0.329,0.06,0.425  C43.866,45.57,44.042,45.542,44.141,45.412z M44.503,44.967c0.106-0.117,0.102-0.302-0.017-0.423  c-0.121-0.119-0.315-0.11-0.424,0.02c-0.114,0.129-0.104,0.325,0.022,0.432C44.217,45.099,44.401,45.085,44.503,44.967z   M44.9,44.551c0.113-0.105,0.119-0.295,0.014-0.42c-0.108-0.129-0.301-0.143-0.426-0.016c-0.123,0.122-0.123,0.313-0.002,0.429  C44.604,44.662,44.785,44.662,44.9,44.551z M45.326,44.176c0.123-0.106,0.142-0.292,0.049-0.426  c-0.099-0.134-0.291-0.156-0.425-0.053c-0.133,0.11-0.145,0.305-0.036,0.434C45.024,44.254,45.205,44.268,45.326,44.176z   M45.782,43.819c0.127-0.09,0.166-0.271,0.075-0.413c-0.081-0.146-0.274-0.18-0.413-0.081c-0.14,0.095-0.168,0.291-0.069,0.425  C45.468,43.884,45.653,43.909,45.782,43.819z M46.266,43.511c0.136-0.079,0.186-0.257,0.106-0.409  c-0.072-0.146-0.257-0.2-0.405-0.115c-0.152,0.087-0.194,0.279-0.109,0.42C45.952,43.549,46.126,43.594,46.266,43.511z   M46.77,43.238c0.14-0.067,0.204-0.241,0.14-0.399c-0.069-0.15-0.245-0.218-0.401-0.146c-0.153,0.082-0.208,0.264-0.136,0.409  C46.451,43.254,46.629,43.31,46.77,43.238z M47.292,43.007c0.144-0.056,0.226-0.222,0.175-0.381  c-0.061-0.157-0.233-0.24-0.391-0.183c-0.163,0.065-0.236,0.245-0.167,0.396C46.977,42.995,47.148,43.069,47.292,43.007z   M47.832,42.822c0.148-0.048,0.239-0.208,0.196-0.369c-0.04-0.167-0.211-0.262-0.369-0.208c-0.164,0.046-0.253,0.224-0.192,0.381  C47.518,42.785,47.687,42.863,47.832,42.822z M48.386,42.677c0.153-0.032,0.254-0.186,0.227-0.354  c-0.03-0.166-0.187-0.276-0.36-0.232c-0.166,0.031-0.264,0.195-0.224,0.362C48.071,42.614,48.234,42.706,48.386,42.677z   M48.945,42.575c0.156-0.021,0.271-0.173,0.253-0.335c-0.012-0.166-0.168-0.291-0.332-0.263c-0.175,0.022-0.284,0.185-0.254,0.346  C48.645,42.487,48.79,42.599,48.945,42.575z M49.519,42.516c0.155-0.007,0.277-0.146,0.275-0.313  c-0.004-0.163-0.147-0.302-0.317-0.286c-0.167,0.009-0.296,0.157-0.278,0.323C49.216,42.402,49.36,42.526,49.519,42.516z   M50.087,42.504c0.158,0.005,0.296-0.123,0.299-0.291c0.019-0.166-0.12-0.312-0.29-0.312c-0.172-0.002-0.306,0.139-0.302,0.302  C49.802,42.365,49.929,42.504,50.087,42.504z M50.658,42.538c0.156,0.017,0.303-0.105,0.326-0.268  c0.02-0.164-0.103-0.316-0.271-0.337c-0.172-0.012-0.313,0.113-0.327,0.279C50.383,42.381,50.506,42.522,50.658,42.538z   M51.223,42.614c0.161,0.025,0.313-0.071,0.348-0.24c0.03-0.161-0.077-0.323-0.247-0.355c-0.166-0.03-0.324,0.093-0.339,0.252  C50.961,42.437,51.073,42.589,51.223,42.614z M51.784,42.734c0.156,0.044,0.316-0.051,0.36-0.208  c0.046-0.163-0.048-0.33-0.212-0.376c-0.167-0.044-0.332,0.063-0.362,0.224C51.54,42.538,51.637,42.695,51.784,42.734z   M52.336,42.905c0.151,0.051,0.314-0.028,0.375-0.185c0.058-0.155-0.021-0.335-0.188-0.386c-0.163-0.06-0.333,0.03-0.379,0.191  C52.101,42.688,52.187,42.853,52.336,42.905z M53.258,42.959c0.069-0.148,0.003-0.33-0.154-0.397  c-0.163-0.07-0.335,0.004-0.393,0.159c-0.055,0.159,0.016,0.325,0.159,0.393C53.013,43.176,53.187,43.113,53.258,42.959z   M53.391,43.36c0.137,0.079,0.315,0.023,0.398-0.118c0.078-0.145,0.029-0.33-0.133-0.415c-0.15-0.082-0.335-0.021-0.398,0.132  C53.187,43.113,53.248,43.286,53.391,43.36z M53.886,43.651c0.134,0.085,0.314,0.046,0.403-0.085  c0.096-0.144,0.056-0.331-0.094-0.424c-0.143-0.097-0.328-0.045-0.406,0.1C53.706,43.384,53.756,43.567,53.886,43.651z   M54.36,43.981c0.121,0.094,0.311,0.071,0.412-0.059c0.103-0.126,0.078-0.318-0.062-0.425c-0.138-0.105-0.326-0.075-0.422,0.068  C54.2,43.702,54.237,43.891,54.36,43.981z M54.809,44.346c0.12,0.104,0.303,0.096,0.416-0.027c0.11-0.118,0.099-0.316-0.029-0.423  c-0.132-0.117-0.32-0.104-0.423,0.027C54.671,44.056,54.69,44.24,54.809,44.346z M55.229,44.743  c0.106,0.115,0.297,0.118,0.417,0.009c0.124-0.115,0.124-0.307,0.003-0.429c-0.123-0.13-0.313-0.125-0.424-0.005  C55.116,44.445,55.116,44.635,55.229,44.743z M55.615,45.178c0.103,0.117,0.291,0.141,0.418,0.038  c0.129-0.104,0.146-0.295,0.033-0.434c-0.11-0.131-0.302-0.146-0.421-0.03C55.525,44.865,55.516,45.051,55.615,45.178z   M55.972,45.632c0.091,0.129,0.273,0.166,0.409,0.071c0.135-0.088,0.178-0.279,0.072-0.425c-0.102-0.141-0.291-0.168-0.42-0.063  C55.903,45.318,55.882,45.502,55.972,45.632z M56.286,46.119c0.084,0.139,0.264,0.183,0.406,0.104  c0.144-0.081,0.195-0.268,0.102-0.418c-0.087-0.149-0.278-0.189-0.413-0.102C56.245,45.798,56.203,45.982,56.286,46.119z   M56.566,46.627c0.076,0.141,0.242,0.203,0.396,0.134c0.15-0.062,0.212-0.247,0.134-0.408c-0.078-0.155-0.261-0.213-0.404-0.13  C56.55,46.304,56.498,46.481,56.566,46.627z M56.809,47.158c0.059,0.146,0.23,0.22,0.388,0.164c0.152-0.056,0.227-0.236,0.16-0.397  c-0.066-0.159-0.247-0.23-0.394-0.164C56.813,46.83,56.75,47.008,56.809,47.158z M57.012,47.702  c0.046,0.155,0.209,0.241,0.364,0.199c0.161-0.044,0.25-0.217,0.196-0.383c-0.05-0.164-0.229-0.254-0.376-0.196  C57.039,47.382,56.961,47.546,57.012,47.702z M57.164,48.262c0.038,0.154,0.192,0.256,0.358,0.224  c0.156-0.027,0.263-0.191,0.219-0.359c-0.041-0.174-0.204-0.273-0.365-0.225C57.224,47.947,57.127,48.104,57.164,48.262z   M57.623,46.38c-0.113,0.305-0.136,0.628-0.039,0.93c0.11,0.304,0.328,0.543,0.613,0.705c0.277,0.161,0.628,0.24,0.985,0.173  c0.135-0.022,0.262-0.078,0.373-0.145c-0.282-0.033-0.536-0.155-0.753-0.323c-0.213-0.176-0.378-0.399-0.471-0.673  c-0.097-0.27-0.102-0.547-0.044-0.817c0.058-0.268,0.187-0.521,0.381-0.728c-0.128,0.017-0.252,0.061-0.378,0.125  C57.97,45.798,57.749,46.08,57.623,46.38z M59.168,47.397c0.056-0.016,0.111-0.043,0.162-0.077c-0.251-0.015-0.471-0.179-0.56-0.431  c-0.085-0.246-0.012-0.514,0.174-0.681c-0.058,0.009-0.119,0.026-0.174,0.044c-0.29,0.129-0.432,0.465-0.325,0.76  C58.547,47.304,58.862,47.479,59.168,47.397z M58.841,46.872c0.046,0.129,0.216,0.196,0.392,0.141  c0.17-0.056,0.273-0.212,0.222-0.362c-0.046-0.142-0.227-0.203-0.393-0.137C58.893,46.576,58.798,46.738,58.841,46.872z   M56.522,45.244c0.185,0.263,0.462,0.423,0.779,0.503c0.309,0.069,0.668,0.051,0.989-0.12c0.124-0.062,0.229-0.145,0.317-0.242  c-0.276,0.046-0.558,0.007-0.808-0.102c-0.249-0.104-0.472-0.272-0.642-0.503c-0.161-0.236-0.252-0.501-0.268-0.776  c-0.019-0.274,0.033-0.559,0.166-0.808c-0.117,0.051-0.23,0.129-0.33,0.227c-0.26,0.256-0.39,0.591-0.427,0.921  C56.273,44.665,56.338,44.983,56.522,45.244z M58.061,44.875c0.046-0.033,0.094-0.076,0.133-0.123  c-0.239,0.058-0.504-0.037-0.656-0.249c-0.154-0.215-0.156-0.494-0.022-0.701c-0.055,0.018-0.106,0.046-0.154,0.089  c-0.24,0.204-0.279,0.566-0.104,0.818C57.438,44.96,57.786,45.043,58.061,44.875z M58.019,44.484  c0.147-0.099,0.197-0.284,0.108-0.413c-0.087-0.123-0.28-0.129-0.419-0.019c-0.141,0.113-0.19,0.293-0.107,0.404  C57.68,44.574,57.864,44.586,58.019,44.484z M54.464,42.756c0.063,0.325,0.212,0.609,0.463,0.811  c0.251,0.196,0.559,0.276,0.88,0.258c0.323-0.027,0.661-0.146,0.921-0.401c0.1-0.098,0.18-0.203,0.235-0.321  c-0.247,0.12-0.531,0.164-0.801,0.137c-0.271-0.03-0.526-0.13-0.753-0.308c-0.223-0.175-0.38-0.408-0.477-0.667  c-0.087-0.259-0.118-0.548-0.061-0.827c-0.103,0.088-0.185,0.194-0.252,0.317C54.443,42.074,54.407,42.433,54.464,42.756z   M56.296,42.762c0.036-0.041,0.068-0.095,0.093-0.147c-0.214,0.125-0.49,0.108-0.691-0.055c-0.205-0.157-0.29-0.43-0.219-0.67  c-0.051,0.036-0.092,0.076-0.124,0.129c-0.177,0.268-0.111,0.626,0.125,0.82C55.728,43.025,56.078,43.002,56.296,42.762z   M56.146,42.404c0.117-0.141,0.113-0.333-0.007-0.427c-0.12-0.095-0.3-0.049-0.406,0.102c-0.105,0.149-0.102,0.334,0.005,0.425  C55.851,42.587,56.035,42.543,56.146,42.404z M52.27,41.756c0.145,0.295,0.368,0.523,0.665,0.646  c0.296,0.117,0.613,0.108,0.915-0.005c0.304-0.111,0.586-0.326,0.771-0.644c0.067-0.123,0.11-0.25,0.143-0.379  c-0.208,0.185-0.474,0.307-0.736,0.362c-0.266,0.046-0.542,0.022-0.806-0.083c-0.259-0.106-0.477-0.282-0.638-0.503  c-0.16-0.22-0.269-0.495-0.296-0.774c-0.063,0.109-0.118,0.236-0.147,0.37C52.058,41.104,52.124,41.47,52.27,41.756z M53.264,41.541  c0.292,0.113,0.622-0.012,0.761-0.296c0.022-0.058,0.04-0.117,0.046-0.173c-0.174,0.18-0.436,0.24-0.677,0.146  c-0.239-0.095-0.396-0.334-0.399-0.582c-0.032,0.044-0.06,0.1-0.078,0.157C52.818,41.1,52.985,41.431,53.264,41.541z M53.778,40.942  c0.071-0.168,0.02-0.357-0.122-0.417c-0.136-0.052-0.302,0.044-0.366,0.216c-0.054,0.174-0.002,0.354,0.131,0.402  C53.548,41.199,53.708,41.106,53.778,40.942z M50.703,41.851c0.315,0.032,0.614-0.067,0.874-0.264s0.48-0.482,0.563-0.84  c0.029-0.134,0.04-0.273,0.029-0.406c-0.151,0.24-0.364,0.434-0.606,0.559c-0.239,0.122-0.508,0.182-0.79,0.154  c-0.281-0.025-0.535-0.134-0.756-0.305c-0.213-0.164-0.393-0.388-0.49-0.662c-0.036,0.133-0.05,0.27-0.044,0.408  c0.021,0.369,0.185,0.688,0.404,0.936C50.108,41.671,50.39,41.822,50.703,41.851z M50.782,40.937  c0.306,0.025,0.592-0.189,0.643-0.508c0.008-0.061,0.008-0.118-0.006-0.181c-0.111,0.225-0.346,0.36-0.604,0.333  c-0.254-0.02-0.47-0.204-0.544-0.439c-0.021,0.053-0.029,0.113-0.029,0.173C50.233,40.636,50.483,40.903,50.782,40.937z   M50.814,40.507c0.143,0.016,0.273-0.118,0.296-0.302c0.02-0.179-0.084-0.348-0.23-0.359c-0.152-0.016-0.288,0.13-0.291,0.31  C50.574,40.341,50.682,40.495,50.814,40.507z M47.515,41.795c0.277,0.171,0.59,0.232,0.906,0.173  c0.307-0.058,0.569-0.24,0.765-0.503c0.19-0.258,0.318-0.601,0.297-0.97c-0.006-0.139-0.039-0.275-0.083-0.397  c-0.074,0.275-0.229,0.522-0.422,0.712c-0.194,0.18-0.438,0.313-0.716,0.373c-0.276,0.056-0.552,0.024-0.805-0.076  c-0.25-0.101-0.486-0.27-0.655-0.498c0,0.139,0.023,0.272,0.065,0.406C46.994,41.358,47.236,41.627,47.515,41.795z M48.24,41.064  c0.299-0.063,0.507-0.354,0.469-0.671c-0.005-0.065-0.022-0.121-0.049-0.171c-0.048,0.24-0.239,0.447-0.491,0.496  c-0.25,0.047-0.504-0.063-0.643-0.274c-0.002,0.058,0,0.12,0.02,0.181C47.632,40.932,47.935,41.123,48.24,41.064z M48.155,40.645  c0.136-0.027,0.221-0.193,0.191-0.373c-0.031-0.185-0.173-0.308-0.318-0.28c-0.151,0.028-0.232,0.201-0.19,0.382  C47.877,40.546,48.022,40.669,48.155,40.645z M46.255,42.732c0.284-0.15,0.482-0.397,0.598-0.705  c0.113-0.307,0.142-0.669,0.015-1.013c-0.042-0.134-0.105-0.257-0.192-0.363c0.008,0.286-0.07,0.566-0.207,0.802  c-0.129,0.236-0.326,0.434-0.58,0.565c-0.244,0.132-0.521,0.183-0.789,0.159c-0.268-0.027-0.537-0.12-0.771-0.288  c0.04,0.127,0.103,0.249,0.182,0.362c0.212,0.303,0.526,0.487,0.843,0.565C45.661,42.896,45.977,42.877,46.255,42.732z M45.83,41.91  c0.275-0.143,0.397-0.479,0.271-0.777c-0.022-0.056-0.053-0.104-0.097-0.15c0.027,0.252-0.098,0.493-0.333,0.616  c-0.227,0.122-0.502,0.083-0.686-0.079c0.012,0.056,0.034,0.118,0.068,0.167C45.219,41.966,45.564,42.051,45.83,41.91z   M45.64,41.529c0.119-0.067,0.155-0.245,0.078-0.409c-0.072-0.17-0.25-0.249-0.383-0.183c-0.136,0.072-0.167,0.264-0.082,0.421  C45.343,41.52,45.519,41.597,45.64,41.529z M44.403,44.087c0.229-0.229,0.349-0.521,0.375-0.849  c0.022-0.326-0.057-0.684-0.269-0.986c-0.079-0.113-0.173-0.205-0.284-0.286c0.088,0.271,0.088,0.561,0.028,0.828  c-0.069,0.269-0.194,0.516-0.397,0.712c-0.202,0.196-0.453,0.323-0.719,0.378c-0.263,0.054-0.547,0.039-0.813-0.055  c0.075,0.108,0.166,0.215,0.276,0.298c0.282,0.228,0.637,0.314,0.955,0.307C43.878,44.417,44.175,44.312,44.403,44.087z   M43.771,43.415c0.215-0.212,0.243-0.574,0.038-0.821c-0.038-0.047-0.083-0.09-0.134-0.117c0.093,0.229,0.039,0.508-0.146,0.692  c-0.187,0.175-0.459,0.224-0.684,0.117c0.028,0.051,0.067,0.102,0.107,0.137C43.191,43.645,43.552,43.633,43.771,43.415z   M43.479,43.108c0.102-0.097,0.082-0.281-0.042-0.425c-0.118-0.134-0.305-0.161-0.411-0.055c-0.111,0.105-0.093,0.3,0.037,0.424  C43.195,43.188,43.376,43.208,43.479,43.108z M42.286,46.493c0.301-0.102,0.558-0.296,0.718-0.575  c0.155-0.276,0.188-0.604,0.122-0.919c-0.07-0.323-0.243-0.645-0.525-0.872c-0.11-0.083-0.229-0.15-0.351-0.192  c0.156,0.236,0.24,0.511,0.251,0.785c0.011,0.275-0.048,0.552-0.186,0.799c-0.14,0.247-0.341,0.437-0.58,0.565  c-0.24,0.125-0.512,0.196-0.795,0.179c0.105,0.085,0.212,0.158,0.341,0.212C41.621,46.611,41.981,46.595,42.286,46.493z   M41.907,45.278c-0.122,0.229-0.378,0.354-0.614,0.319c0.037,0.034,0.084,0.073,0.14,0.101c0.287,0.141,0.628,0.028,0.777-0.241  c0.154-0.272,0.076-0.621-0.188-0.806c-0.048-0.033-0.105-0.056-0.166-0.072C42.014,44.775,42.037,45.051,41.907,45.278z   M41.844,45.247c0.069-0.125,0.004-0.303-0.153-0.397c-0.151-0.098-0.336-0.069-0.41,0.061c-0.077,0.133-0.005,0.313,0.155,0.396  C41.594,45.396,41.778,45.369,41.844,45.247z M41.354,47.075c0.087,0.259,0.105,0.538,0.042,0.816  c-0.062,0.279-0.2,0.521-0.398,0.712c-0.194,0.188-0.438,0.339-0.711,0.397c0.122,0.055,0.253,0.09,0.388,0.104  c0.364,0.034,0.702-0.079,0.966-0.266c0.263-0.188,0.451-0.448,0.521-0.757c0.079-0.313,0.02-0.633-0.133-0.924  c-0.158-0.284-0.407-0.547-0.747-0.684c-0.129-0.054-0.257-0.083-0.389-0.093C41.109,46.567,41.266,46.816,41.354,47.075z   M40.438,48.262c0.053,0.023,0.106,0.044,0.167,0.06c0.315,0.046,0.605-0.154,0.677-0.46c0.067-0.3-0.101-0.62-0.408-0.715  c-0.055-0.025-0.112-0.032-0.172-0.032c0.199,0.15,0.297,0.413,0.244,0.667C40.888,48.038,40.684,48.223,40.438,48.262z   M40.495,47.943c0.18,0.036,0.345-0.042,0.374-0.176c0.031-0.144-0.078-0.291-0.25-0.34c-0.177-0.05-0.351,0.028-0.388,0.179  C40.201,47.756,40.32,47.908,40.495,47.943z M41.968,50.399c-0.019-0.325-0.161-0.612-0.387-0.847  c-0.232-0.234-0.542-0.414-0.906-0.448c-0.135-0.014-0.272,0-0.396,0.025c0.259,0.12,0.478,0.307,0.632,0.53  c0.157,0.229,0.25,0.49,0.271,0.778c0.016,0.284-0.056,0.552-0.183,0.795c-0.134,0.24-0.323,0.452-0.568,0.591  c0.126,0.016,0.259,0.016,0.394-0.017c0.358-0.066,0.65-0.279,0.854-0.53C41.87,51.021,41.986,50.718,41.968,50.399z M41.058,50.438  c-0.012-0.304-0.271-0.561-0.586-0.573c-0.063,0.005-0.115,0.008-0.176,0.028c0.236,0.083,0.405,0.303,0.417,0.57  c0.021,0.259-0.126,0.499-0.35,0.6c0.058,0.018,0.113,0.021,0.177,0.01C40.855,51.037,41.076,50.75,41.058,50.438z M40.331,50.745  c0.183-0.016,0.318-0.141,0.307-0.286c-0.004-0.139-0.151-0.246-0.332-0.244c-0.182,0.005-0.328,0.132-0.316,0.284  C39.991,50.648,40.151,50.762,40.331,50.745z M42.379,53.615c0.122-0.302,0.147-0.628,0.042-0.93  c-0.105-0.303-0.323-0.541-0.608-0.705c-0.283-0.156-0.631-0.239-0.989-0.173c-0.135,0.032-0.259,0.079-0.375,0.146  c0.285,0.032,0.543,0.157,0.754,0.326c0.215,0.173,0.379,0.396,0.476,0.669c0.087,0.27,0.101,0.554,0.042,0.822  c-0.062,0.264-0.186,0.521-0.381,0.723c0.124-0.017,0.255-0.061,0.375-0.127C42.037,54.197,42.258,53.916,42.379,53.615z   M40.84,52.603c-0.057,0.016-0.111,0.039-0.156,0.073c0.244,0.012,0.467,0.178,0.555,0.43c0.083,0.247,0.02,0.515-0.171,0.684  c0.058-0.007,0.113-0.024,0.169-0.044c0.29-0.13,0.427-0.464,0.325-0.758C41.46,52.692,41.146,52.519,40.84,52.603z M41.164,53.128  c-0.041-0.134-0.219-0.2-0.393-0.145c-0.17,0.055-0.271,0.217-0.224,0.361c0.054,0.142,0.235,0.208,0.4,0.138  C41.112,53.419,41.216,53.258,41.164,53.128z M43.482,54.752c-0.188-0.264-0.457-0.428-0.771-0.499  c-0.317-0.074-0.675-0.051-0.998,0.113c-0.12,0.066-0.227,0.15-0.317,0.249c0.275-0.051,0.557-0.01,0.812,0.098  c0.249,0.101,0.477,0.271,0.636,0.507c0.167,0.236,0.251,0.495,0.272,0.774c0.019,0.274-0.031,0.558-0.162,0.81  c0.113-0.056,0.224-0.134,0.325-0.229c0.259-0.259,0.393-0.598,0.43-0.919C43.736,55.331,43.667,55.012,43.482,54.752z   M41.949,55.126c-0.054,0.032-0.093,0.071-0.132,0.117c0.236-0.058,0.497,0.034,0.649,0.247c0.151,0.217,0.162,0.496,0.032,0.708  c0.051-0.022,0.102-0.048,0.148-0.089c0.244-0.206,0.278-0.566,0.101-0.822C42.568,55.04,42.218,54.957,41.949,55.126z   M41.991,55.516c-0.147,0.097-0.198,0.282-0.111,0.409c0.084,0.124,0.275,0.129,0.417,0.018c0.146-0.108,0.193-0.291,0.109-0.403  C42.324,55.421,42.14,55.412,41.991,55.516z M45.544,57.24c-0.058-0.323-0.212-0.605-0.463-0.807  c-0.25-0.196-0.56-0.278-0.885-0.258c-0.318,0.019-0.658,0.141-0.917,0.399c-0.102,0.095-0.175,0.205-0.239,0.323  c0.255-0.127,0.535-0.166,0.808-0.139c0.266,0.032,0.525,0.132,0.747,0.303c0.223,0.182,0.38,0.413,0.474,0.67  c0.095,0.258,0.127,0.547,0.071,0.828c0.098-0.09,0.186-0.196,0.25-0.314C45.564,57.924,45.598,57.563,45.544,57.24z M43.713,57.233  c-0.037,0.046-0.071,0.097-0.098,0.152c0.218-0.125,0.495-0.111,0.698,0.051c0.202,0.161,0.286,0.432,0.222,0.669  c0.042-0.027,0.084-0.076,0.119-0.127c0.174-0.268,0.111-0.625-0.133-0.817C44.276,56.971,43.926,56.996,43.713,57.233z   M43.861,57.594c-0.11,0.139-0.11,0.33,0.005,0.429c0.12,0.091,0.303,0.044,0.408-0.102c0.106-0.149,0.102-0.334-0.007-0.425  C44.161,57.413,43.979,57.448,43.861,57.594z M47.739,58.242c-0.147-0.298-0.372-0.526-0.666-0.648  c-0.294-0.118-0.613-0.106-0.919,0.004c-0.297,0.113-0.587,0.326-0.765,0.648c-0.064,0.118-0.113,0.248-0.142,0.377  c0.211-0.187,0.465-0.31,0.731-0.36c0.269-0.051,0.544-0.027,0.807,0.079c0.263,0.105,0.475,0.281,0.64,0.506  c0.162,0.221,0.267,0.491,0.295,0.775c0.065-0.11,0.117-0.236,0.15-0.375C47.952,58.891,47.883,58.533,47.739,58.242z   M46.741,58.455c-0.281-0.113-0.62,0.012-0.757,0.3c-0.027,0.053-0.042,0.112-0.048,0.171c0.169-0.181,0.436-0.242,0.677-0.146  c0.245,0.096,0.397,0.336,0.397,0.583c0.036-0.047,0.063-0.103,0.077-0.158C47.186,58.896,47.024,58.569,46.741,58.455z   M46.228,59.058c-0.073,0.168-0.021,0.353,0.122,0.411c0.141,0.055,0.303-0.042,0.364-0.216c0.056-0.173,0-0.351-0.128-0.401  C46.46,58.796,46.3,58.891,46.228,59.058z M49.304,58.146c-0.313-0.028-0.617,0.069-0.878,0.263  c-0.257,0.196-0.474,0.482-0.555,0.84c-0.033,0.139-0.039,0.273-0.027,0.409c0.145-0.247,0.362-0.432,0.603-0.561  c0.24-0.122,0.505-0.183,0.791-0.155c0.275,0.028,0.536,0.13,0.749,0.303c0.215,0.166,0.392,0.395,0.497,0.665  c0.036-0.129,0.05-0.269,0.041-0.404c-0.019-0.374-0.187-0.692-0.407-0.936C49.9,58.325,49.616,58.173,49.304,58.146z   M49.222,59.063c-0.305-0.027-0.583,0.189-0.642,0.509c-0.005,0.056-0.005,0.117,0.002,0.175c0.114-0.224,0.35-0.36,0.612-0.332  c0.261,0.023,0.473,0.199,0.544,0.443c0.02-0.056,0.028-0.113,0.03-0.173C49.773,59.359,49.53,59.092,49.222,59.063z M49.187,59.493  c-0.136-0.016-0.265,0.118-0.285,0.303c-0.026,0.173,0.078,0.337,0.232,0.349c0.143,0.021,0.273-0.122,0.286-0.308  C49.435,59.657,49.322,59.505,49.187,59.493z M52.493,58.202c-0.284-0.168-0.593-0.234-0.902-0.173  c-0.313,0.061-0.572,0.245-0.767,0.504c-0.193,0.26-0.318,0.598-0.3,0.972c0.009,0.136,0.039,0.271,0.092,0.393  c0.06-0.274,0.218-0.52,0.416-0.711c0.196-0.185,0.438-0.319,0.71-0.374c0.279-0.051,0.555-0.02,0.809,0.078  c0.254,0.099,0.485,0.269,0.655,0.496c0-0.134-0.024-0.268-0.072-0.397C53.017,58.635,52.769,58.376,52.493,58.202z M51.771,58.936  c-0.3,0.057-0.514,0.348-0.475,0.666c0.011,0.065,0.027,0.118,0.054,0.174c0.042-0.243,0.232-0.444,0.49-0.499  c0.255-0.046,0.508,0.067,0.638,0.275c0.004-0.056-0.005-0.118-0.012-0.176C52.376,59.063,52.069,58.875,51.771,58.936z   M51.854,59.351c-0.138,0.032-0.222,0.194-0.193,0.374c0.028,0.185,0.173,0.307,0.323,0.284c0.146-0.032,0.23-0.201,0.188-0.379  C52.129,59.449,51.99,59.327,51.854,59.351z M53.751,57.264c-0.278,0.149-0.479,0.396-0.594,0.709  c-0.108,0.302-0.141,0.662-0.023,1.017c0.048,0.13,0.114,0.253,0.193,0.354c-0.006-0.286,0.073-0.564,0.207-0.8  c0.138-0.234,0.334-0.431,0.577-0.57c0.259-0.124,0.524-0.175,0.794-0.151c0.272,0.027,0.541,0.112,0.768,0.283  c-0.03-0.127-0.094-0.249-0.175-0.362c-0.218-0.298-0.523-0.482-0.835-0.561C54.35,57.099,54.031,57.117,53.751,57.264z   M54.171,58.09c-0.272,0.136-0.393,0.479-0.272,0.777c0.03,0.052,0.065,0.103,0.101,0.146c-0.024-0.248,0.105-0.497,0.329-0.614  c0.236-0.12,0.504-0.081,0.698,0.076c-0.016-0.056-0.037-0.116-0.072-0.166C54.793,58.034,54.443,57.944,54.171,58.09z   M54.37,58.467c-0.124,0.066-0.16,0.244-0.083,0.413c0.078,0.165,0.249,0.246,0.389,0.178c0.129-0.072,0.166-0.262,0.072-0.423  C54.661,58.478,54.494,58.403,54.37,58.467z M55.604,55.913c-0.229,0.224-0.352,0.517-0.375,0.845  c-0.018,0.33,0.055,0.688,0.27,0.985c0.081,0.113,0.175,0.208,0.277,0.291c-0.078-0.274-0.085-0.561-0.024-0.834  c0.073-0.268,0.198-0.51,0.401-0.711c0.201-0.196,0.448-0.323,0.711-0.373c0.264-0.056,0.552-0.044,0.816,0.055  c-0.072-0.113-0.162-0.212-0.269-0.298c-0.294-0.228-0.635-0.318-0.958-0.307S55.829,55.69,55.604,55.913z M56.235,56.585  c-0.217,0.212-0.239,0.572-0.041,0.821c0.041,0.047,0.088,0.081,0.138,0.113c-0.091-0.229-0.036-0.503,0.144-0.688  c0.189-0.18,0.46-0.224,0.684-0.117c-0.027-0.056-0.063-0.102-0.105-0.141C56.813,56.355,56.457,56.362,56.235,56.585z   M56.531,56.887c-0.1,0.098-0.083,0.286,0.037,0.425c0.124,0.134,0.31,0.164,0.417,0.056c0.108-0.104,0.087-0.295-0.043-0.425  C56.813,56.811,56.628,56.792,56.531,56.887z M57.722,53.502c-0.307,0.106-0.563,0.298-0.716,0.577  c-0.16,0.279-0.188,0.599-0.121,0.922c0.066,0.316,0.235,0.64,0.526,0.872c0.106,0.086,0.224,0.148,0.348,0.192  c-0.158-0.236-0.236-0.511-0.254-0.79c-0.009-0.274,0.052-0.547,0.189-0.794c0.139-0.252,0.339-0.437,0.578-0.565  c0.239-0.132,0.514-0.201,0.799-0.179c-0.101-0.095-0.222-0.161-0.347-0.217C58.384,53.387,58.027,53.4,57.722,53.502z   M58.097,54.717c0.129-0.229,0.376-0.351,0.619-0.314c-0.037-0.039-0.09-0.076-0.142-0.104c-0.29-0.141-0.631-0.025-0.777,0.24  c-0.146,0.272-0.069,0.625,0.194,0.806c0.049,0.033,0.097,0.06,0.157,0.071C57.993,55.22,57.97,54.945,58.097,54.717z   M58.161,54.756c-0.064,0.118,0,0.291,0.153,0.393c0.154,0.095,0.343,0.071,0.418-0.063c0.07-0.134,0-0.314-0.158-0.401  C58.415,54.604,58.233,54.634,58.161,54.756z M57.843,51.919c-0.074,0.309-0.015,0.628,0.139,0.918  c0.152,0.287,0.406,0.55,0.743,0.684c0.125,0.056,0.259,0.084,0.389,0.093c-0.218-0.183-0.37-0.43-0.46-0.688  c-0.085-0.261-0.109-0.54-0.045-0.819c0.065-0.281,0.205-0.518,0.398-0.711c0.193-0.191,0.441-0.342,0.714-0.404  c-0.118-0.05-0.249-0.083-0.388-0.099c-0.361-0.035-0.701,0.087-0.964,0.272C58.104,51.344,57.915,51.602,57.843,51.919z   M59.569,51.736c-0.051-0.028-0.105-0.046-0.167-0.058c-0.309-0.056-0.604,0.152-0.674,0.452c-0.071,0.303,0.106,0.623,0.404,0.723  c0.058,0.019,0.119,0.027,0.174,0.027c-0.206-0.146-0.3-0.408-0.245-0.665C59.121,51.96,59.33,51.775,59.569,51.736z M59.509,52.055  c-0.17-0.039-0.341,0.044-0.374,0.178c-0.029,0.137,0.079,0.291,0.257,0.337c0.174,0.049,0.347-0.03,0.377-0.176  C59.805,52.239,59.688,52.092,59.509,52.055z M58.04,49.598c0.015,0.323,0.163,0.615,0.39,0.846  c0.228,0.235,0.542,0.413,0.903,0.448c0.139,0.016,0.271,0,0.398-0.03c-0.256-0.111-0.477-0.3-0.633-0.524  c-0.158-0.229-0.258-0.491-0.273-0.777c-0.013-0.282,0.052-0.555,0.185-0.8c0.131-0.238,0.323-0.448,0.571-0.589  c-0.129-0.016-0.264-0.006-0.398,0.017c-0.357,0.071-0.646,0.275-0.849,0.531C58.134,48.977,58.022,49.277,58.04,49.598z   M58.95,49.555c0.015,0.307,0.264,0.567,0.586,0.575c0.066,0,0.121-0.006,0.174-0.028c-0.238-0.078-0.398-0.298-0.42-0.565  c-0.011-0.268,0.134-0.499,0.354-0.603c-0.056-0.015-0.113-0.019-0.177-0.007C59.154,48.961,58.932,49.245,58.95,49.555z   M59.366,49.536c0.01,0.136,0.157,0.251,0.337,0.247c0.186-0.007,0.325-0.13,0.319-0.286c-0.015-0.15-0.166-0.262-0.342-0.245  C59.498,49.269,59.36,49.396,59.366,49.536z M48.627,45.916c0.072,0.503,0.245,1.12,0.442,1.713L48.58,47.73  c-0.322-0.46-0.657-0.903-0.975-1.237c-0.427-0.443-0.896-0.684-1.109-0.492c-0.211,0.185-0.084,0.665,0.293,1.147  c0.29,0.37,0.708,0.783,1.134,1.176l-0.158,0.484c-0.542-0.259-1.101-0.499-1.571-0.638c-0.587-0.172-1.109-0.141-1.196,0.13  c-0.092,0.272,0.251,0.626,0.817,0.854c0.47,0.188,1.074,0.346,1.681,0.471l-0.161,0.482c-0.548,0.049-1.096,0.127-1.533,0.238  c-0.587,0.147-1.027,0.438-0.97,0.722c0.055,0.282,0.528,0.41,1.121,0.319c0.467-0.063,1.021-0.218,1.57-0.397l0.328,0.386  c-0.483,0.342-0.965,0.711-1.321,1.058c-0.436,0.427-0.667,0.902-0.48,1.115c0.189,0.224,0.659,0.094,1.136-0.287  c0.391-0.313,0.828-0.771,1.233-1.236l0.338,0.382c-0.231,0.509-0.444,1.028-0.563,1.469c-0.168,0.601-0.135,1.127,0.133,1.217  c0.273,0.1,0.615-0.247,0.837-0.824c0.171-0.44,0.314-1.007,0.427-1.576l0.496-0.098c0.051,0.605,0.125,1.215,0.25,1.692  c0.148,0.606,0.438,1.051,0.716,0.995c0.276-0.058,0.402-0.533,0.313-1.141c-0.078-0.505-0.254-1.119-0.452-1.717l0.501-0.103  c0.313,0.465,0.653,0.907,0.971,1.237c0.429,0.448,0.893,0.688,1.109,0.502c0.213-0.194,0.082-0.67-0.296-1.152  c-0.29-0.37-0.699-0.792-1.131-1.181l0.161-0.479c0.534,0.261,1.09,0.496,1.563,0.638c0.594,0.168,1.113,0.141,1.202-0.135  c0.091-0.27-0.251-0.62-0.817-0.85c-0.47-0.187-1.075-0.344-1.683-0.475l0.157-0.483c0.553-0.046,1.091-0.122,1.538-0.235  c0.588-0.149,1.026-0.436,0.967-0.72c-0.06-0.282-0.521-0.414-1.124-0.321c-0.46,0.067-1.015,0.22-1.565,0.396l-0.33-0.378  c0.49-0.349,0.968-0.718,1.321-1.064c0.433-0.43,0.669-0.9,0.479-1.118c-0.188-0.224-0.654-0.094-1.125,0.287  c-0.398,0.316-0.827,0.771-1.24,1.239l-0.335-0.381c0.23-0.512,0.441-1.027,0.563-1.47c0.162-0.594,0.135-1.125-0.138-1.22  c-0.273-0.095-0.609,0.252-0.833,0.829c-0.169,0.44-0.312,1.002-0.433,1.572l-0.487,0.104c-0.053-0.607-0.132-1.217-0.252-1.7  c-0.148-0.601-0.439-1.046-0.72-0.985C48.658,44.831,48.532,45.306,48.627,45.916z M50.25,56.458  c-0.28,0.245-0.375,0.143-0.348,0.06c0.048-0.15,0.32-0.225,0.442-0.355c0.141-0.152,0.353-0.545,0.353-0.545  s-0.314,0.056-0.46,0.09c-0.083,0.021-0.299,0.185-0.299,0.185s0.157-0.323,0.154-0.614c-0.021-0.476-0.349-0.813-0.349-0.813  s-0.379,0.291-0.443,0.76c-0.042,0.286,0.079,0.623,0.079,0.623s-0.209-0.187-0.282-0.22c-0.139-0.05-0.439-0.149-0.439-0.149  s0.165,0.418,0.282,0.591c0.106,0.142,0.369,0.252,0.402,0.411c0.009,0.083-0.094,0.171-0.342-0.105  c-0.347-0.384-0.878-0.265-0.878-0.265s0.156,0.543,0.443,0.812c0.379,0.347,0.729,0.452,1.001,0.471  c0.274,0.021,0.656-0.058,1.049-0.33c0.323-0.227,0.534-0.746,0.534-0.746S50.634,56.125,50.25,56.458z M47.043,55.701  c-0.368,0.062-0.407-0.073-0.335-0.133c0.117-0.105,0.39-0.029,0.561-0.078c0.198-0.063,0.575-0.291,0.575-0.291  s-0.298-0.118-0.445-0.157c-0.074-0.022-0.352,0.005-0.352,0.005s0.295-0.191,0.434-0.448c0.219-0.418,0.095-0.882,0.095-0.882  s-0.463,0.067-0.759,0.435c-0.176,0.229-0.239,0.577-0.239,0.577s-0.079-0.268-0.131-0.33c-0.087-0.123-0.313-0.358-0.313-0.358  s-0.063,0.441-0.035,0.648c0.012,0.189,0.192,0.409,0.141,0.563c-0.032,0.081-0.169,0.102-0.244-0.265  c-0.111-0.511-0.635-0.675-0.635-0.675s-0.134,0.55-0.007,0.931c0.152,0.487,0.403,0.76,0.638,0.912  c0.226,0.154,0.591,0.278,1.065,0.247c0.393-0.03,0.84-0.369,0.84-0.369S47.546,55.605,47.043,55.701z M44.396,53.128  c0.152-0.032,0.353,0.173,0.526,0.213c0.198,0.051,0.645,0.046,0.645,0.046s-0.208-0.249-0.309-0.364  c-0.06-0.056-0.309-0.174-0.309-0.174s0.354-0.016,0.597-0.169c0.396-0.244,0.517-0.706,0.517-0.706s-0.438-0.183-0.865-0.014  c-0.271,0.106-0.498,0.379-0.498,0.379s0.061-0.272,0.045-0.354c-0.023-0.15-0.094-0.464-0.094-0.464s-0.275,0.349-0.355,0.538  c-0.077,0.164-0.028,0.452-0.148,0.559c-0.069,0.058-0.199,0.003-0.088-0.352c0.157-0.493-0.218-0.902-0.218-0.902  s-0.384,0.404-0.468,0.794c-0.104,0.499-0.016,0.859,0.108,1.11c0.12,0.25,0.384,0.543,0.813,0.756  c0.351,0.173,0.903,0.105,0.903,0.105s-0.091-0.544-0.58-0.722C44.274,53.281,44.313,53.145,44.396,53.128z M43.056,50.572  c0.224,0.328,0.736,0.547,0.736,0.547s0.187-0.515-0.147-0.916c-0.236-0.282-0.142-0.386-0.057-0.354  c0.153,0.051,0.222,0.326,0.351,0.453c0.153,0.141,0.541,0.364,0.541,0.364s-0.055-0.32-0.087-0.466  c-0.024-0.088-0.186-0.308-0.186-0.308s0.318,0.162,0.6,0.157c0.468-0.012,0.8-0.351,0.8-0.351s-0.286-0.382-0.75-0.455  c-0.284-0.049-0.616,0.073-0.616,0.073s0.188-0.203,0.218-0.278c0.052-0.137,0.142-0.45,0.142-0.45s-0.408,0.164-0.573,0.286  c-0.146,0.11-0.248,0.374-0.411,0.403c-0.08,0.017-0.166-0.097,0.108-0.346c0.372-0.344,0.249-0.887,0.249-0.887  s-0.532,0.147-0.79,0.443c-0.342,0.381-0.44,0.734-0.462,1.014C42.712,49.783,42.786,50.173,43.056,50.572z M44.376,46.95  c-0.072-0.369,0.066-0.411,0.122-0.339c0.106,0.112,0.032,0.392,0.087,0.57c0.059,0.2,0.287,0.586,0.287,0.586  s0.11-0.302,0.152-0.447c0.019-0.079-0.005-0.358-0.005-0.358s0.189,0.303,0.445,0.438c0.405,0.224,0.862,0.104,0.862,0.104  s-0.064-0.474-0.426-0.771c-0.226-0.181-0.576-0.247-0.576-0.247s0.264-0.079,0.328-0.134c0.119-0.095,0.346-0.314,0.346-0.314  s-0.435-0.067-0.646-0.044c-0.176,0.019-0.396,0.191-0.547,0.142c-0.078-0.027-0.101-0.17,0.258-0.248  c0.503-0.11,0.658-0.637,0.658-0.637s-0.541-0.141-0.91-0.022c-0.481,0.156-0.743,0.413-0.896,0.644  c-0.153,0.23-0.275,0.609-0.235,1.09c0.033,0.396,0.368,0.852,0.368,0.852S44.471,47.461,44.376,46.95z M46.608,44.503  c0.127-0.349,0.259-0.313,0.277-0.227c0.03,0.162-0.166,0.358-0.206,0.533c-0.051,0.206-0.044,0.658-0.044,0.658  s0.253-0.205,0.355-0.312c0.061-0.058,0.172-0.314,0.172-0.314s0.021,0.363,0.171,0.61c0.241,0.404,0.701,0.53,0.701,0.53  s0.171-0.445,0.009-0.889c-0.105-0.272-0.384-0.503-0.384-0.503s0.274,0.066,0.355,0.056c0.146-0.023,0.458-0.103,0.458-0.103  s-0.347-0.276-0.539-0.361c-0.166-0.074-0.444-0.035-0.547-0.155c-0.054-0.069-0.004-0.196,0.345-0.081  c0.487,0.157,0.89-0.217,0.89-0.217s-0.402-0.397-0.784-0.482c-0.498-0.106-0.851-0.025-1.097,0.097  c-0.245,0.127-0.536,0.391-0.737,0.827c-0.169,0.357-0.098,0.914-0.098,0.914S46.444,44.995,46.608,44.503z M49.758,43.538  c0.276-0.245,0.378-0.144,0.355-0.056c-0.054,0.15-0.328,0.22-0.452,0.353c-0.14,0.151-0.352,0.543-0.352,0.543  s0.314-0.051,0.457-0.085c0.083-0.025,0.305-0.185,0.305-0.185s-0.161,0.32-0.151,0.606c0.013,0.477,0.351,0.815,0.351,0.815  s0.369-0.286,0.438-0.76c0.044-0.29-0.078-0.623-0.078-0.623s0.196,0.187,0.278,0.225c0.142,0.05,0.446,0.147,0.446,0.147  s-0.166-0.416-0.289-0.589c-0.105-0.15-0.369-0.257-0.396-0.413c-0.021-0.086,0.095-0.176,0.341,0.102  c0.345,0.39,0.873,0.268,0.873,0.268s-0.152-0.545-0.443-0.813c-0.377-0.341-0.723-0.452-1-0.473  c-0.274-0.014-0.655,0.064-1.041,0.335c-0.325,0.224-0.543,0.748-0.543,0.748S49.37,43.875,49.758,43.538z M52.97,44.299  c0.361-0.066,0.4,0.073,0.334,0.13c-0.117,0.102-0.393,0.028-0.568,0.079c-0.188,0.062-0.566,0.291-0.566,0.291  s0.297,0.115,0.437,0.161c0.079,0.021,0.356-0.007,0.356-0.007s-0.296,0.191-0.433,0.45c-0.223,0.413-0.099,0.873-0.099,0.873  s0.467-0.063,0.758-0.428c0.178-0.229,0.239-0.577,0.239-0.577s0.078,0.264,0.13,0.33c0.097,0.114,0.314,0.354,0.314,0.354  s0.063-0.445,0.046-0.649c-0.028-0.184-0.198-0.408-0.15-0.563c0.025-0.081,0.168-0.102,0.247,0.263  c0.111,0.513,0.633,0.677,0.633,0.677s0.133-0.545,0.014-0.929c-0.154-0.488-0.412-0.757-0.642-0.914  c-0.227-0.156-0.595-0.278-1.07-0.246c-0.393,0.034-0.832,0.371-0.832,0.371S52.466,44.39,52.97,44.299z M55.382,46.592  c0.355,0.126,0.315,0.264,0.23,0.275c-0.16,0.029-0.351-0.168-0.528-0.212c-0.206-0.051-0.641-0.044-0.641-0.044  s0.204,0.247,0.305,0.357c0.057,0.063,0.308,0.178,0.308,0.178s-0.348,0.017-0.598,0.168c-0.396,0.243-0.512,0.707-0.512,0.707  s0.434,0.185,0.868,0.017c0.267-0.106,0.498-0.376,0.498-0.376s-0.069,0.27-0.057,0.353c0.024,0.15,0.099,0.464,0.099,0.464  s0.281-0.351,0.36-0.543c0.072-0.166,0.029-0.452,0.143-0.554c0.071-0.06,0.198-0.004,0.088,0.347  c-0.152,0.494,0.217,0.907,0.217,0.907s0.388-0.404,0.466-0.794c0.103-0.504,0.021-0.866-0.097-1.113  c-0.121-0.247-0.386-0.545-0.813-0.758c-0.359-0.173-0.909-0.105-0.909-0.105S54.904,46.414,55.382,46.592z M56.358,49.793  c0.242,0.286,0.145,0.383,0.058,0.357c-0.143-0.056-0.221-0.333-0.35-0.453c-0.154-0.145-0.536-0.367-0.536-0.367  s0.055,0.323,0.086,0.464c0.021,0.089,0.186,0.313,0.186,0.313s-0.316-0.162-0.604-0.157c-0.462,0.007-0.801,0.349-0.801,0.349  s0.294,0.379,0.754,0.452c0.281,0.046,0.619-0.071,0.619-0.071s-0.19,0.201-0.222,0.276c-0.047,0.142-0.141,0.45-0.141,0.45  s0.408-0.163,0.574-0.281c0.148-0.11,0.25-0.379,0.402-0.406c0.087-0.019,0.175,0.1-0.102,0.346c-0.374,0.347-0.249,0.89-0.249,0.89  s0.531-0.152,0.796-0.447c0.335-0.38,0.44-0.737,0.455-1.012c0.021-0.279-0.061-0.667-0.333-1.069  c-0.229-0.33-0.734-0.549-0.734-0.549S56.027,49.396,56.358,49.793z M55.636,53.05c0.064,0.369-0.068,0.404-0.127,0.337  c-0.106-0.118-0.03-0.396-0.086-0.568c-0.056-0.205-0.285-0.586-0.285-0.586s-0.111,0.303-0.153,0.447  c-0.022,0.083,0.009,0.358,0.009,0.358s-0.195-0.303-0.447-0.443c-0.414-0.226-0.861-0.104-0.861-0.104s0.057,0.476,0.426,0.775  c0.228,0.176,0.574,0.243,0.574,0.243s-0.263,0.078-0.332,0.133c-0.113,0.1-0.348,0.314-0.348,0.314s0.438,0.072,0.643,0.044  c0.18-0.016,0.406-0.191,0.55-0.141c0.086,0.027,0.104,0.174-0.254,0.252c-0.5,0.105-0.656,0.632-0.656,0.632  s0.533,0.141,0.91,0.022c0.476-0.151,0.743-0.412,0.893-0.644c0.151-0.229,0.27-0.604,0.236-1.09  c-0.035-0.396-0.37-0.845-0.37-0.845S55.536,52.539,55.636,53.05z M53.396,55.495c-0.119,0.351-0.259,0.312-0.271,0.224  c-0.029-0.157,0.164-0.358,0.207-0.533c0.047-0.205,0.035-0.653,0.035-0.653s-0.242,0.203-0.35,0.309  c-0.063,0.061-0.17,0.313-0.17,0.313s-0.019-0.358-0.17-0.605c-0.246-0.408-0.703-0.53-0.703-0.53s-0.176,0.44-0.006,0.884  c0.102,0.271,0.371,0.503,0.371,0.503s-0.266-0.066-0.345-0.051c-0.146,0.024-0.454,0.096-0.454,0.096s0.344,0.279,0.533,0.364  c0.164,0.073,0.441,0.034,0.547,0.156c0.058,0.068,0,0.196-0.342,0.084c-0.494-0.162-0.892,0.215-0.892,0.215  s0.397,0.395,0.785,0.484c0.49,0.106,0.851,0.019,1.092-0.102c0.248-0.122,0.534-0.386,0.741-0.822  c0.166-0.362,0.099-0.92,0.099-0.92S53.563,55.001,53.396,55.495z"></path></svg>