<svg fill="#DDDDDD" xmlns="http://www.w3.org/2000/svg" xmlns:xlink="http://www.w3.org/1999/xlink" version="1.1" x="0px" y="0px" viewBox="0 0 100 100" enable-background="new 0 0 100 100" xml:space="preserve"><g><path fill-rule="evenodd" clip-rule="evenodd" d="M14.727,39.52h0.848v29.042h-0.848v1.662h6.975v-1.662h-0.865V39.52h0.865v-1.662   h-6.975V39.52z M25.302,39.52h0.848v29.042h-0.848v1.662h6.975v-1.662h-0.865V39.52h0.865v-1.662h-6.975V39.52z M35.877,39.52   h0.848v29.042h-0.848v1.662h6.975v-1.662h-0.865V39.52h0.865v-1.662h-6.975V39.52z M46.452,39.52H47.3v29.042h-0.848v1.662h6.975   v-1.662h-0.865V39.52h0.865v-1.662h-6.975V39.52z M57.027,39.52h0.865v29.042h-0.865v1.662h6.975v-1.662h-0.865V39.52h0.865v-1.662   h-6.975V39.52z M67.602,39.52h0.865v29.042h-0.865v1.662h6.975v-1.662h-0.865V39.52h0.865v-1.662h-6.975V39.52z M78.177,39.52   h0.865v29.042h-0.865v1.662h6.975v-1.662h-0.848V39.52h0.848v-1.662h-6.975V39.52z M12.788,72.578h74.423v3.462H12.788V72.578z    M9.327,81.838h81.346v-3.462H9.327V81.838z M12.788,32.043h74.423v3.462H12.788V32.043z M50,12.347l39.808,17.36H10.21L50,12.347z    M50,16.12L26.808,26.245h46.385L50,16.12z M5,87.653h90v-3.462H5V87.653z M50,18.855c1.471,0,2.665,1.194,2.665,2.665   c0,1.488-1.194,2.683-2.665,2.683s-2.665-1.194-2.665-2.683C47.335,20.049,48.529,18.855,50,18.855L50,18.855z"></path></g></svg>