<svg fill="#0F131C" xmlns="http://www.w3.org/2000/svg" xmlns:xlink="http://www.w3.org/1999/xlink" xmlns:a="http://ns.adobe.com/AdobeSVGViewerExtensions/3.0/" version="1.1" x="0px" y="0px" viewBox="-2.285 -11.104 100 100" overflow="visible" enable-background="new -2.285 -11.104 100 100" xml:space="preserve"><rect x="13.991" y="16.303" width="67.93" height="4.5"></rect><path d="M13.932,65.647c-0.066-0.521-0.129-1.044-0.19-1.565c0.549,0,1.098,0,1.647,0c-0.95-13.198-0.944-26.532,0.017-39.729  c-0.545,0-1.091,0-1.637,0c0.053-0.443,0.107-0.885,0.163-1.328c2.73,0,5.459,0,8.189,0c0.056,0.442,0.11,0.885,0.163,1.328  c-0.545,0-1.089,0-1.634,0c0.962,13.197,0.968,26.531,0.017,39.729c0.548,0,1.097,0,1.645,0c-0.061,0.521-0.125,1.044-0.19,1.565  C19.391,65.647,16.662,65.647,13.932,65.647z"></path><path d="M25.918,65.647c-0.066-0.521-0.129-1.044-0.19-1.565c0.549,0,1.098,0,1.647,0c-0.95-13.198-0.944-26.532,0.017-39.729  c-0.545,0-1.091,0-1.636,0c0.053-0.443,0.107-0.885,0.163-1.328c2.73,0,5.461,0,8.192,0c0.056,0.442,0.11,0.885,0.163,1.328  c-0.546,0-1.091,0-1.637,0c0.961,13.197,0.967,26.531,0.017,39.729c0.549,0,1.098,0,1.647,0c-0.061,0.521-0.125,1.044-0.19,1.565  C31.379,65.647,28.648,65.647,25.918,65.647z"></path><path d="M37.907,65.647c-0.066-0.521-0.129-1.044-0.19-1.565c0.549,0,1.098,0,1.647,0c-0.95-13.198-0.944-26.532,0.017-39.729  c-0.545,0-1.091,0-1.636,0c0.053-0.443,0.107-0.885,0.163-1.328c2.73,0,5.461,0,8.191,0c0.056,0.442,0.11,0.885,0.163,1.328  c-0.545,0-1.091,0-1.636,0c0.961,13.197,0.967,26.531,0.017,39.729c0.549,0,1.098,0,1.647,0c-0.061,0.521-0.125,1.044-0.19,1.565  C43.368,65.647,40.637,65.647,37.907,65.647z"></path><path d="M49.893,65.647c-0.065-0.521-0.129-1.044-0.19-1.565c0.549,0,1.099,0,1.647,0c-0.95-13.198-0.944-26.532,0.018-39.729  c-0.546,0-1.092,0-1.637,0c0.052-0.443,0.106-0.885,0.162-1.328c2.731,0,5.463,0,8.194,0c0.056,0.442,0.11,0.885,0.162,1.328  c-0.545,0-1.091,0-1.637,0c0.962,13.197,0.968,26.531,0.018,39.729c0.549,0,1.099,0,1.647,0c-0.062,0.521-0.125,1.044-0.19,1.565  C55.355,65.647,52.624,65.647,49.893,65.647z"></path><path d="M61.882,65.647c-0.065-0.521-0.129-1.044-0.19-1.565c0.549,0,1.098,0,1.646,0c-0.95-13.198-0.944-26.532,0.018-39.729  c-0.546,0-1.091,0-1.636,0c0.052-0.443,0.106-0.885,0.162-1.328c2.73,0,5.461,0,8.191,0c0.056,0.442,0.11,0.885,0.162,1.328  c-0.544,0-1.089,0-1.633,0c0.962,13.197,0.968,26.531,0.017,39.729c0.548,0,1.097,0,1.645,0c-0.062,0.521-0.125,1.044-0.19,1.565  C67.343,65.647,64.612,65.647,61.882,65.647z"></path><path d="M73.87,65.647c-0.065-0.521-0.129-1.044-0.19-1.565c0.548,0,1.097,0,1.645,0c-0.951-13.198-0.945-26.532,0.017-39.729  c-0.544,0-1.089,0-1.633,0c0.052-0.443,0.106-0.885,0.162-1.328c2.73,0,5.461,0,8.191,0c0.056,0.442,0.11,0.885,0.162,1.328  c-0.545,0-1.09,0-1.636,0c0.962,13.197,0.968,26.531,0.018,39.729c0.549,0,1.098,0,1.646,0c-0.062,0.521-0.125,1.044-0.19,1.565  C79.331,65.647,76.601,65.647,73.87,65.647z"></path><polygon fill="none" points="47.71,4.773 30.576,10.454 64.842,10.454 "></polygon><path d="M47.957,0L7.408,13.442h81.095L47.957,0z"></path><polygon points="11.338,70.574 11.338,67.306 7.244,67.306 7.244,70.595 3.623,70.595 3.623,73.888 0,73.888 0,77.182 8.188,77.182   8.188,73.914 9.922,73.914 9.922,70.574 "></polygon><polygon points="92.291,73.888 92.291,70.595 88.67,70.595 88.67,67.306 84.353,67.306 84.353,70.574 85.769,70.574 85.769,73.914   87.503,73.914 87.503,77.182 95.911,77.182 95.911,73.888 "></polygon><polygon points="84.033,70.646 82.618,70.646 82.618,67.306 13.073,67.306 13.073,70.646 11.657,70.646 11.657,73.914 9.922,73.914   9.922,77.182 85.769,77.182 85.769,73.914 84.033,73.914 "></polygon></svg>