<svg fill="#00DCFF" xmlns="http://www.w3.org/2000/svg" xmlns:xlink="http://www.w3.org/1999/xlink" version="1.1" x="0px" y="0px" viewBox="0 0 100 100" style="enable-background:new 0 0 100 100;" xml:space="preserve"><style type="text/css">
	.st0{fill:#00DCFF;}
</style><path class="st0" d="M50,27.5c6,0,11-5.1,11-11.2S56,5,50,5s-11,5.1-11,11.2S44,27.5,50,27.5z"></path><path class="st0" d="M50,38.8c-6,0-11,5.1-11,11.2s5,11.2,11,11.2S61,56.2,61,50S56,38.8,50,38.8z"></path><path class="st0" d="M50,72.5c-6,0-11,5.1-11,11.2S44,95,50,95s11-5.1,11-11.2S56,72.5,50,72.5z"></path></svg>