<svg fill="#FFFFFF" xmlns="http://www.w3.org/2000/svg" xmlns:xlink="http://www.w3.org/1999/xlink" version="1.1" x="0px" y="0px" viewBox="0 0 100 100" enable-background="new 0 0 100 100" xml:space="preserve"><g><g><path d="M29.943,58.815c-4.86,0-8.815-3.954-8.815-8.814s3.955-8.815,8.815-8.815s8.815,3.955,8.815,8.815    S34.804,58.815,29.943,58.815z M29.943,43.285c-3.703,0-6.715,3.013-6.715,6.715c0,3.703,3.013,6.714,6.715,6.714    s6.715-3.012,6.715-6.714C36.659,46.298,33.646,43.285,29.943,43.285z"></path></g><g><path d="M50,58.815c-4.86,0-8.815-3.954-8.815-8.814S45.14,41.185,50,41.185s8.815,3.955,8.815,8.815S54.86,58.815,50,58.815z     M50,43.285c-3.703,0-6.715,3.013-6.715,6.715c0,3.703,3.013,6.714,6.715,6.714s6.715-3.012,6.715-6.714    C56.715,46.298,53.703,43.285,50,43.285z"></path></g><g><path d="M70.057,58.815c-4.86,0-8.815-3.954-8.815-8.814s3.955-8.815,8.815-8.815s8.815,3.955,8.815,8.815    S74.917,58.815,70.057,58.815z M70.057,43.285c-3.703,0-6.715,3.013-6.715,6.715c0,3.703,3.013,6.714,6.715,6.714    s6.715-3.012,6.715-6.714C76.772,46.298,73.759,43.285,70.057,43.285z"></path></g></g></svg>