<svg fill="#00DCFF" xmlns="http://www.w3.org/2000/svg" xmlns:xlink="http://www.w3.org/1999/xlink" xml:space="preserve" version="1.1" style="shape-rendering:geometricPrecision;text-rendering:geometricPrecision;image-rendering:optimizeQuality;" viewBox="0 0 665 800" x="0px" y="0px" fill-rule="evenodd" clip-rule="evenodd"><defs><style type="text/css">
   
    .fil0 {fill:#00DCFF}
   
  </style></defs><g><path class="fil0" d="M181 47c0,0 111,32 164,99 5,-54 59,-92 59,-92 -95,91 12,185 0,272 91,-86 202,-70 202,-70 -278,28 -285,463 -162,544l-164 0c-102,-128 43,-311 -212,-422 0,0 132,14 194,148 105,-160 161,-364 -81,-479z"></path><ellipse class="fil0" cx="31" cy="353" rx="31" ry="32"></ellipse><ellipse class="fil0" cx="116" cy="339" rx="28" ry="29"></ellipse><circle class="fil0" cx="59" cy="426" r="26"></circle><circle class="fil0" cx="185" cy="371" r="29"></circle><circle class="fil0" cx="120" cy="455" r="25"></circle><circle class="fil0" cx="528" cy="328" r="25"></circle><circle class="fil0" cx="576" cy="292" r="19"></circle><circle class="fil0" cx="639" cy="275" r="26"></circle><circle class="fil0" cx="602" cy="220" r="23"></circle><circle class="fil0" cx="536" cy="223" r="26"></circle><circle class="fil0" cx="460" cy="233" r="33"></circle><circle class="fil0" cx="480" cy="355" r="17"></circle><circle class="fil0" cx="274" cy="138" r="12"></circle><circle class="fil0" cx="235" cy="137" r="18"></circle><circle class="fil0" cx="211" cy="97" r="17"></circle><circle class="fil0" cx="159" cy="80" r="26"></circle><circle class="fil0" cx="161" cy="25" r="20"></circle><circle class="fil0" cx="217" cy="23" r="23"></circle><circle class="fil0" cx="266" cy="47" r="20"></circle><circle class="fil0" cx="342" cy="82" r="19"></circle><circle class="fil0" cx="372" cy="41" r="20"></circle><circle class="fil0" cx="427" cy="31" r="20"></circle><circle class="fil0" cx="424" cy="82" r="20"></circle><circle class="fil0" cx="392" cy="125" r="19"></circle></g></svg>