<svg fill="#D1B794" xmlns="http://www.w3.org/2000/svg" xmlns:xlink="http://www.w3.org/1999/xlink" xml:space="preserve" version="1.1" style="shape-rendering:geometricPrecision;text-rendering:geometricPrecision;image-rendering:optimizeQuality;" viewBox="0 0 765 800" x="0px" y="0px" fill-rule="evenodd" clip-rule="evenodd"><defs><style type="text/css">
   
    .fil0 {fill:#D1B794}
   
  </style></defs><g><path class="fil0" d="M135 312c39,13 113,60 86,111 31,23 62,55 84,104 7,17 -3,95 -27,111 -3,-69 -6,-139 -70,-199 -25,19 -70,24 -117,9 -61,-19 -101,-66 -89,-103 12,-38 72,-52 133,-33z"></path><path class="fil0" d="M646 299c71,-17 124,-48 119,-69 -5,-21 -67,-25 -137,-8 -61,15 -109,40 -117,60 -22,10 -43,25 -64,44 -10,17 -41,83 -2,88 19,-42 46,-81 82,-109 23,8 69,6 119,-6z"></path><path class="fil0" d="M478 83c34,-25 51,-59 39,-75 -12,-16 -49,-8 -83,17 -15,12 -64,62 -32,80 -7,12 -12,26 -14,42 0,0 6,19 22,18 -4,-19 -4,-38 2,-57 17,2 42,-7 66,-25z"></path><path class="fil0" d="M256 26c10,3 127,56 86,77 14,10 27,22 39,34 -1,21 8,38 30,35 10,47 36,94 37,139 -15,21 -58,108 -6,111 -58,141 -32,328 45,378l-164 0c-36,-46 -41,-99 -44,-153 35,-18 40,-98 32,-130 85,-133 133,-294 7,-409 -22,0 -53,-6 -86,-18 -57,-21 -99,-53 -93,-70 7,-18 59,-15 117,6z"></path></g></svg>