<svg fill="#00DCFF" xmlns="http://www.w3.org/2000/svg" xmlns:xlink="http://www.w3.org/1999/xlink" version="1.1" x="0px" y="0px" viewBox="0 0 100 100" enable-background="new 0 0 100 100" xml:space="preserve"><g><path d="M92.503,72.723V21.806H7.497v50.917h35.172v0.353l-14.403,0.207l-1.399,2.841c-0.024,0.073-0.228,0.732,0.15,1.31   c0.266,0.405,0.724,0.641,1.361,0.699c0.512,0.046,5.523,0.062,11.965,0.062c12.367,0,30.001-0.057,31.15-0.063   c0.395-0.042,1.706-0.242,2.002-1.079c0.108-0.308,0.113-0.799-0.483-1.396c-1.363-1.362-2.443-2.177-2.489-2.21l-0.131-0.099   l-13.196-0.132v-0.493H92.503z M9.092,70.848V23.003h81.815v47.845H9.092z"></path><rect x="9.842" y="23.753" width="80.315" height="46.345"></rect></g></svg>