<svg fill="#00DCFF" xmlns="http://www.w3.org/2000/svg" xmlns:xlink="http://www.w3.org/1999/xlink" version="1.1" x="0px" y="0px" viewBox="0 0 100 100" enable-background="new 0 0 100 100" xml:space="preserve"><g><path d="M93.542,22.456H6.458c-0.276,0-0.5,0.224-0.5,0.5V72.69c0,0.276,0.224,0.5,0.5,0.5h24.527l-0.878,1.688   c-0.003,0.005-0.001,0.01-0.003,0.015c-0.032,0.066-0.054,0.137-0.054,0.215v1.935c0,0.276,0.224,0.5,0.5,0.5h38.704   c0.276,0,0.5-0.224,0.5-0.5v-1.935c0-0.074-0.018-0.143-0.047-0.206c-0.001-0.003,0-0.007-0.002-0.01l-0.817-1.703h24.652   c0.276,0,0.5-0.224,0.5-0.5V22.956C94.042,22.68,93.818,22.456,93.542,22.456z M31.375,74.609l0.738-1.419h1.009l-1.248,1.419   H31.375z M33.205,74.609l1.249-1.419h31.219l0.794,1.419H33.205z M66.818,73.19h0.962l0.681,1.419h-0.848L66.818,73.19z    M92.203,71.142c0,0.276-0.224,0.5-0.5,0.5H8.297c-0.276,0-0.5-0.224-0.5-0.5V24.504c0-0.276,0.224-0.5,0.5-0.5h83.405   c0.276,0,0.5,0.224,0.5,0.5V71.142z"></path><rect x="8.797" y="25.004" width="82.405" height="45.637"></rect></g></svg>