<svg fill="#00DCFF" xmlns="http://www.w3.org/2000/svg" xmlns:xlink="http://www.w3.org/1999/xlink" version="1.1" x="0px" y="0px" viewBox="0 0 256 256" enable-background="new 0 0 256 256" xml:space="preserve"><g><path fill="#00DCFF" d="M77.912,156.146c0,3.422-2.772,6.208-6.204,6.208c-3.427,0-6.208-2.786-6.208-6.208   s2.781-6.204,6.208-6.204C75.14,149.942,77.912,152.725,77.912,156.146L77.912,156.146z"></path><path fill="#00DCFF" d="M90.466,162.354c-3.427,0-6.193-2.786-6.193-6.208s2.767-6.204,6.193-6.204   c3.429,0,6.219,2.782,6.219,6.204S93.895,162.354,90.466,162.354L90.466,162.354z"></path><path fill="#00DCFF" d="M90.466,143.598c-3.427,0-6.193-2.79-6.193-6.218c0-3.431,2.767-6.194,6.193-6.194   c3.429,0,6.219,2.764,6.219,6.194C96.685,140.808,93.895,143.598,90.466,143.598L90.466,143.598z"></path><path fill="#00DCFF" d="M109.247,143.598c-3.429,0-6.218-2.79-6.218-6.218c0-3.431,2.789-6.194,6.218-6.194   c3.422,0,6.194,2.764,6.194,6.194C115.441,140.808,112.669,143.598,109.247,143.598L109.247,143.598z"></path><path fill="#00DCFF" d="M146.762,143.598c-3.43,0-6.194-2.79-6.194-6.218c0-3.431,2.765-6.194,6.194-6.194   c3.427,0,6.218,2.764,6.218,6.194C152.979,140.808,150.188,143.598,146.762,143.598L146.762,143.598z"></path><path fill="#00DCFF" d="M115.441,118.62c0,3.431-2.772,6.194-6.194,6.194c-3.429,0-6.218-2.764-6.218-6.194   c0-3.428,2.789-6.218,6.218-6.218C112.669,112.402,115.441,115.192,115.441,118.62L115.441,118.62z"></path><path fill="#00DCFF" d="M134.207,118.62c0,3.431-2.773,6.194-6.202,6.194s-6.211-2.764-6.211-6.194   c0-3.428,2.782-6.218,6.211-6.218S134.207,115.192,134.207,118.62L134.207,118.62z"></path><path fill="#00DCFF" d="M134.207,99.854c0,3.422-2.773,6.204-6.202,6.204s-6.211-2.782-6.211-6.204s2.782-6.208,6.211-6.208   S134.207,96.432,134.207,99.854L134.207,99.854z"></path><path fill="#00DCFF" d="M152.979,118.62c0,3.431-2.791,6.194-6.218,6.194c-3.43,0-6.194-2.764-6.194-6.194   c0-3.428,2.765-6.218,6.194-6.218C150.188,112.402,152.979,115.192,152.979,118.62L152.979,118.62z"></path><path fill="#00DCFF" d="M165.54,162.354c-3.426,0-6.218-2.786-6.218-6.208s2.792-6.204,6.218-6.204   c3.423,0,6.196,2.782,6.196,6.204S168.963,162.354,165.54,162.354L165.54,162.354z"></path><path fill="#00DCFF" d="M165.54,143.598c-3.426,0-6.218-2.79-6.218-6.218c0-3.431,2.792-6.194,6.218-6.194   c3.423,0,6.196,2.764,6.196,6.194C171.736,140.808,168.963,143.598,165.54,143.598L165.54,143.598z"></path><path fill="#00DCFF" d="M184.3,162.354c-3.43,0-6.211-2.786-6.211-6.208s2.781-6.204,6.211-6.204c3.429,0,6.2,2.782,6.2,6.204   S187.729,162.354,184.3,162.354L184.3,162.354z"></path></g></svg>